<?xml version="1.0" standalone="no"?>
<!DOCTYPE svg PUBLIC "-//W3C//DTD SVG 1.1//EN" "http://www.w3.org/Graphics/SVG/1.1/DTD/svg11.dtd" >
<svg xmlns="http://www.w3.org/2000/svg" xmlns:xlink="http://www.w3.org/1999/xlink" version="1.1">
<metadata>
Created by FontForge 20170731 at Sun Sep 30 05:35:47 2012
 By Aleksey,,,
Copyright (c) 2012 by Rene Bieder. All rights reserved.
</metadata>
<defs>
<font id="RBNo2.1b-MediumItalic" horiz-adv-x="389" >
  <font-face 
    font-family="RBNo2.1b MediumItalic"
    font-weight="450"
    font-style="italic"
    font-stretch="normal"
    units-per-em="1000"
    panose-1="2 0 0 0 0 0 0 0 0 0"
    ascent="750"
    descent="-250"
    x-height="565"
    cap-height="700"
    bbox="-61 -215 861 923"
    underline-thickness="50"
    underline-position="-200"
    unicode-range="U+0020-FB02"
  />
<missing-glyph horiz-adv-x="450" 
d="M-30 0l98 700h450l-98 -700h-450zM260 350l138 -305l86 609zM228 350l-137 304l-86 -609zM241 325l-218 -297h352zM114 673l134 -298l218 298h-352z" />
    <glyph glyph-name="fi" unicode="fi" horiz-adv-x="399" 
d="M320 715l-11 -85h-77q-27 0 -32 -32l-5 -33h216l-79 -565h-95l68 485h-121l-68 -485h-95l68 485h-41l11 80h41l6 40q10 68 37.5 89t99.5 21h77z" />
    <glyph glyph-name="fl" unicode="fl" horiz-adv-x="398" 
d="M243 715h189l-100 -715h-95l90 640h-94q-27 0 -32 -32l-6 -43h64l-11 -80h-64l-68 -485h-95l68 485h-41l11 80h41l6 40q10 68 37.5 89t99.5 21z" />
    <glyph glyph-name=".notdef" horiz-adv-x="450" 
d="M-30 0l98 700h450l-98 -700h-450zM260 350l138 -305l86 609zM228 350l-137 304l-86 -609zM241 325l-218 -297h352zM114 673l134 -298l218 298h-352z" />
    <glyph glyph-name=".null" horiz-adv-x="0" 
 />
    <glyph glyph-name="nonmarkingreturn" horiz-adv-x="333" 
 />
    <glyph glyph-name="space" unicode=" " horiz-adv-x="150" 
 />
    <glyph glyph-name="exclam" unicode="!" horiz-adv-x="191" 
d="M70 209l20 305l26 186h95l-26 -186l-66 -305h-49zM23 0l18 127h85l-18 -127h-85z" />
    <glyph glyph-name="quotedbl" unicode="&#x22;" horiz-adv-x="299" 
d="M69 415l38 285h85l-16 -111l-49 -174h-58zM205 415l38 285h85l-16 -111l-49 -174h-58z" />
    <glyph glyph-name="numbersign" unicode="#" horiz-adv-x="577" 
d="M107 461l21 70h81l50 169h74l-49 -169h141l49 169h75l-50 -169h98l-22 -70h-98l-69 -235h97l-22 -69h-97l-46 -157h-74l46 157h-142l-45 -157h-74l46 157h-82l21 69h83l68 235h-80zM261 461l-68 -235h141l68 235h-141z" />
    <glyph glyph-name="dollar" unicode="$" horiz-adv-x="402" 
d="M126 -86l12 83l-135 3l12 82h181q31 0 46 9.5t20 45.5l15 103q3 8 1 16.5t-1.5 13t-4 10t-6.5 8t-9 6.5t-10.5 5.5t-12 5.5t-13.5 6l-70 25q-26 11 -39 18.5t-28 22.5t-19 38t1 56l12 85q12 84 46 114.5t113 32.5l9 69h81l-9 -70l99 -2l-11 -82h-160q-21 0 -32 -2.5
t-21.5 -14.5t-13.5 -37l-9 -68q-5 -37 7 -50t55 -30l66 -24q33 -12 49.5 -23t27 -38.5t4.5 -71.5l-16 -115q-11 -80 -42.5 -111t-101.5 -35l-12 -84h-81z" />
    <glyph glyph-name="percent" unicode="%" horiz-adv-x="631" 
d="M199 702h38q51 0 68.5 -21t10.5 -71l-29 -203q-7 -51 -30.5 -72t-74.5 -21h-38q-51 0 -68.5 21t-10.5 72l29 203q7 50 30.5 71t74.5 21zM487 386h38q51 0 68.5 -21t10.5 -71l-28 -203q-7 -51 -30.5 -72.5t-74.5 -21.5h-38q-51 0 -69 21.5t-10 72.5l29 203q7 50 30 71
t74 21zM516 338h-32q-36 0 -41 -37l-30 -217q-3 -21 4.5 -29t25.5 -8h32q35 0 40 37l31 217q3 21 -4.5 29t-25.5 8zM227 654h-32q-35 0 -40 -37l-31 -217q-3 -21 4.5 -29t25.5 -8h32q35 0 40 37l31 217q3 21 -4.5 29t-25.5 8zM118 0l369 700h60l-369 -700h-60z" />
    <glyph glyph-name="ampersand" unicode="&#x26;" horiz-adv-x="480" 
d="M381 670l-11 -85h-102q-26 0 -41.5 -12t-20.5 -44l-11 -73q-9 -56 45 -56h259l-10 -65l-102 -20l-45 -315h-179q-28 0 -45.5 1t-35 4.5t-27.5 9.5t-18 16.5t-10.5 26t-2 36t4.5 48.5l15 102q16 107 101 115q-62 10 -47 112l8 58q12 85 47.5 113t125.5 28h102zM261 81
l32 228h-84q-56 0 -64 -56l-17 -121q-5 -32 7 -41.5t40 -9.5h86z" />
    <glyph glyph-name="quotesingle" unicode="'" horiz-adv-x="163" 
d="M69 415l38 285h85l-16 -111l-49 -174h-58z" />
    <glyph glyph-name="parenleft" unicode="(" horiz-adv-x="208" 
d="M176 586l-79 -560q-7 -44 2 -71q3 -9 18 -31.5l17 -25.5l-44 -37q-37 28 -61 66q-25 38 -17 99l79 560q8 60 45 98q36 39 79 66l33 -37q-1 -1 -23 -24.5t-27 -32.5q-15 -24 -22 -70z" />
    <glyph glyph-name="parenright" unicode=")" horiz-adv-x="208" 
d="M58 26l79 560q6 45 -2 70q-3 9 -17.5 31.5t-16.5 25.5l43 37q37 -28 61 -66q25 -38 17 -98l-79 -560q-8 -60 -45 -99q-36 -39 -79 -66l-34 37q2 2 24 25t27 32q15 24 22 71z" />
    <glyph glyph-name="asterisk" unicode="*" horiz-adv-x="334" 
d="M319 439l-44 30l-49 55l11 16l70 -28l43 -29zM190 547l-70 28l-43 30l31 44l44 -30l49 -56zM196 524l-65 -55l-52 -30l-19 44l51 29l78 28zM367 605l-51 -30l-78 -28l-7 16l65 56l52 30zM167 387l7 56l27 78h18l5 -78l-7 -56h-50zM208 566l-5 78l7 56h50l-7 -56l-27 -78
h-18z" />
    <glyph glyph-name="plus" unicode="+" horiz-adv-x="335" 
d="M37 326l9 66h113l16 113h66l-16 -113h115l-9 -66h-115l-16 -115h-66l16 115h-113z" />
    <glyph glyph-name="comma" unicode="," horiz-adv-x="163" 
d="M8 0l17 122h87l-14 -97q-6 -43 -22 -70t-52 -66l-26 21q25 33 32 48.5t11 41.5h-33z" />
    <glyph glyph-name="hyphen" unicode="-" horiz-adv-x="286" 
d="M28 261l11 78h244l-11 -78h-244z" />
    <glyph glyph-name="period" unicode="." horiz-adv-x="182" 
d="M18 0l17 122h86l-17 -122h-86z" />
    <glyph glyph-name="slash" unicode="/" horiz-adv-x="253" 
d="M-14 -36l249 775h61l-250 -775h-60z" />
    <glyph glyph-name="zero" unicode="0" horiz-adv-x="421" 
d="M263 703h33q90 0 120 -33t17 -124l-55 -392q-13 -90 -52 -123.5t-129 -33.5h-33q-90 0 -120 34t-17 123l55 392q13 91 52 124t129 33zM176 82h33q31 0 46.5 10t20.5 46l59 424q5 36 -7.5 46t-43.5 10h-33q-31 0 -46.5 -10t-20.5 -46l-59 -424q-5 -36 7.5 -46t43.5 -10z
" />
    <glyph glyph-name="one" unicode="1" horiz-adv-x="327" 
d="M56 642l143 58h96l-87 -619h97l-11 -81h-294l11 81h102l74 524l-115 -29z" />
    <glyph glyph-name="two" unicode="2" horiz-adv-x="374" 
d="M-2 0l26 186q8 52 30 84t61 61l102 80q41 29 60.5 57t24.5 66l4 28q5 36 -7 45.5t-44 9.5h-148l11 83q104 3 160 3q79 0 104 -32.5t14 -114.5l-5 -36q-8 -57 -31.5 -89.5t-68.5 -66.5l-94 -71q-5 -4 -16 -12.5t-15 -11.5t-12.5 -10.5t-11.5 -11.5t-8.5 -11.5t-8 -14
t-5.5 -15.5t-4 -20l-15 -105h232l-11 -81h-324z" />
    <glyph glyph-name="three" unicode="3" horiz-adv-x="350" 
d="M89 320l11 81h115q44 0 51 50l16 110q5 36 -7.5 46t-43.5 10h-149l11 83q108 3 155 3q83 0 111.5 -29t16.5 -118l-11 -82q-8 -56 -26 -81t-50 -30q31 -5 42 -28.5t3 -80.5l-16 -110q-7 -50 -21 -80.5t-37.5 -44.5t-47 -18t-63.5 -4l-164 3l11 80h159q31 0 46.5 10
t20.5 46l19 133q4 29 -5.5 40t-31.5 11h-115z" />
    <glyph glyph-name="four" unicode="4" horiz-adv-x="440" 
d="M2 223l242 477h161l-66 -467h91l-11 -81h-91l-21 -152h-95l21 152h-241zM289 618l-185 -385h140l54 385h-9z" />
    <glyph glyph-name="five" unicode="5" horiz-adv-x="377" 
d="M111 700h292l-12 -85h-200l-25 -184h103q63 0 87.5 -23.5t13.5 -101.5l-23 -162q-7 -51 -18.5 -80.5t-34.5 -44t-49.5 -18.5t-76.5 -4l-173 3l11 80h178h11h11t9 0.5t8.5 1.5t7.5 3.5t7 5.5t5 8t4.5 11.5t2.5 15.5l24 172q4 31 -6.5 41t-35.5 10h-175z" />
    <glyph glyph-name="six" unicode="6" horiz-adv-x="381" 
d="M211 429h42q29 0 46.5 -1.5t34 -7.5t24.5 -16t13 -27.5t4.5 -43t-5.5 -61.5l-18 -128q-12 -90 -47.5 -118.5t-126.5 -28.5h-26q-89 0 -118.5 32.5t-18.5 114.5l58 407q12 90 50.5 121t129.5 31l142 -3l-11 -85h-150q-30 0 -45 -10t-20 -46l-20 -145q25 15 62 15zM227 348
h-42q-23 0 -36 -8t-16 -32l-24 -174q-5 -36 8 -46t43 -10h29q30 0 46 10t21 46l21 153q6 37 -7 49t-43 12z" />
    <glyph glyph-name="seven" unicode="7" horiz-adv-x="345" 
d="M71 615l12 85h314l-12 -91l-260 -609h-98l258 599l2 16h-216z" />
    <glyph glyph-name="eight" unicode="8" horiz-adv-x="390" 
d="M157 -3q-95 0 -128.5 27t-20.5 115l16 111q9 65 31 89.5t67 29.5q-34 6 -47 30t-6 78l11 77q12 90 49 119.5t128 29.5h16q93 0 122 -29.5t16 -119.5l-10 -67q-9 -61 -28.5 -86.5t-58.5 -31.5q42 -5 56.5 -30t5.5 -89l-16 -111q-13 -88 -53.5 -115t-135.5 -27h-14zM193 82
h20.5t17 2.5t16 7.5t10 15t7.5 25l19 136q5 36 -7.5 45.5t-43.5 9.5h-46q-21 -1 -31.5 -3.5t-20.5 -15t-13 -36.5l-19 -136q-6 -44 27 -49q8 -1 30 -1h34zM266 618h-23q-22 0 -32.5 -2t-21 -14t-13.5 -37l-15 -105q-5 -33 6 -42t40 -9h33q21 1 30 2.5t19 13t13 35.5l15 105
q0 13 1.5 22t-3.5 15l-7.5 9t-11 4.5t-14 2t-16.5 0.5z" />
    <glyph glyph-name="nine" unicode="9" horiz-adv-x="391" 
d="M206 254h-37q-29 0 -47 1.5t-35 7.5t-25.5 16t-14.5 27.5t-5.5 43t5.5 61.5l20 145q12 90 50 118.5t130 28.5h21q89 0 118 -32t18 -115l-57 -407q-13 -91 -49 -121.5t-126 -30.5l-153 3l11 80h153q30 0 46.5 12.5t21.5 48.5l18 127q-26 -14 -63 -14zM190 335h42
q25 0 37 9t16 40l26 185q3 19 0.5 30t-11.5 16t-17 6t-24 1h-29q-21 0 -31.5 -2t-21 -14t-13.5 -37l-25 -178q-5 -36 8 -46t43 -10z" />
    <glyph glyph-name="colon" unicode=":" horiz-adv-x="163" 
d="M9 0l17 122h86l-17 -122h-86zM71 443l17 122h86l-17 -122h-86z" />
    <glyph glyph-name="semicolon" unicode=";" horiz-adv-x="163" 
d="M8 0l17 122h87l-14 -97q-6 -43 -22 -70t-52 -66l-26 21q25 33 32 48.5t11 41.5h-33zM71 443l17 122h86l-17 -122h-86z" />
    <glyph glyph-name="less" unicode="&#x3c;" horiz-adv-x="325" 
d="M338 457l-204 -96l177 -95l-11 -79l-263 140l10 69l302 140z" />
    <glyph glyph-name="equal" unicode="=" horiz-adv-x="335" 
d="M47 404l9 63h294l-9 -63h-294zM25 244l9 63h294l-9 -63h-294z" />
    <glyph glyph-name="greater" unicode="&#x3e;" horiz-adv-x="325" 
d="M232 361l-177 96l11 79l263 -140l-9 -69l-303 -140l11 79z" />
    <glyph glyph-name="question" unicode="?" horiz-adv-x="356" 
d="M92 622l11 78q61 3 140 3q84 0 114.5 -29.5t18.5 -117.5l-8 -61q-1 -11 -3.5 -20.5t-6.5 -18t-7 -14.5t-10 -14l-10.5 -12t-13 -12t-13.5 -11l-16 -12l-16 -12q-14 -11 -31.5 -23.5t-24 -17.5t-15 -12t-11 -13.5t-5 -15t-4.5 -21.5l-8 -57h-78l13 93q2 12 6 22t13 20
t15 16t21 18t21 17q8 7 25 21t22 18.5t15.5 15.5t14.5 18t8 18t6 24l8 59q3 19 0.5 30t-11 16t-16.5 6t-25 1h-139zM61 0l18 127h85l-18 -127h-85z" />
    <glyph glyph-name="at" unicode="@" horiz-adv-x="538" 
d="M321 525q74 0 95.5 -25t12.5 -90l-42 -296q-4 -29 1 -39.5t28 -10.5q30 0 40 12.5t14 42.5l51 363q9 64 -10.5 91.5t-83.5 27.5h-206q-64 0 -91.5 -28t-36.5 -91l-57 -408q-9 -64 10.5 -91.5t83.5 -27.5h271l-3 -22h-271q-75 0 -102 30t-15 111l57 408q12 81 47 111
t110 30h206q76 0 102.5 -30t14.5 -111l-52 -368q-7 -48 -26.5 -64.5t-56.5 -16.5q-53 0 -71.5 4t-37.5 21q-31 -22 -70 -22h-19q-110 0 -96 100l19 131q14 100 114 100h91l6 45q4 30 -5 38t-32 8h-124l9 64q74 3 125 3zM234 107h14q33 0 60 19l25 179h-71q-38 0 -45 -48
l-15 -108q-6 -42 32 -42z" />
    <glyph glyph-name="A" unicode="A" horiz-adv-x="440" 
d="M368 700l37 -700h-100l-10 141h-171l-49 -141h-100l233 700h160zM271 621l-120 -385h143l-12 385h-11z" />
    <glyph glyph-name="B" unicode="B" horiz-adv-x="406" 
d="M7 0l98 700h177q90 0 118 -28t16 -113l-12 -88q-8 -57 -26.5 -82.5t-50.5 -31.5q32 -6 44 -30t4 -83l-14 -102q-7 -49 -17.5 -77t-33 -42.5t-48.5 -18.5t-75 -4h-180zM151 314l-32 -229h80q27 0 41.5 9.5t19.5 41.5l18 128q4 31 -8.5 40.5t-41.5 9.5h-77zM193 615
l-30 -216h81q26 0 39.5 10t17.5 41l16 114q4 32 -7.5 41.5t-39.5 9.5h-77z" />
    <glyph glyph-name="C" unicode="C" horiz-adv-x="388" 
d="M263 703l168 -3l-12 -84h-169q-31 0 -46.5 -10t-20.5 -46l-59 -420q-5 -36 8 -46t44 -10h169l-12 -84q-88 -3 -170 -3q-92 0 -121 29t-17 118l58 412q12 89 50 118t130 29z" />
    <glyph glyph-name="D" unicode="D" horiz-adv-x="410" 
d="M7 0l98 700h186q90 0 118.5 -28t16.5 -113l-59 -417q-12 -85 -48.5 -113.5t-125.5 -28.5h-186zM279 615h-85l-75 -530h86q28 0 42 10t19 42l61 430q3 22 -3.5 33t-16 13t-28.5 2z" />
    <glyph glyph-name="E" unicode="E" horiz-adv-x="352" 
d="M153 316l-32 -231h191l-12 -85h-291l98 700h291l-12 -85h-191l-30 -214h176l-12 -85h-176z" />
    <glyph glyph-name="F" unicode="F" horiz-adv-x="337" 
d="M152 304l-43 -304h-100l98 700h286l-12 -85h-186l-31 -226h171l-12 -85h-171z" />
    <glyph glyph-name="G" unicode="G" horiz-adv-x="412" 
d="M263 703l146 -3l-11 -82h-147q-30 0 -46 -10t-21 -46l-61 -429q-3 -19 -0.5 -30t11.5 -15t16.5 -5t24.5 -1h28q23 0 32.5 1.5t20 13t13.5 36.5l21 151h-76l12 85h177l-32 -225q-12 -89 -50 -118t-130 -29h-28q-92 0 -121 29t-17 118l58 412q12 89 50 118t130 29z" />
    <glyph glyph-name="H" unicode="H" horiz-adv-x="423" 
d="M9 0l98 700h100l-42 -299h146l42 299h100l-98 -700h-100l43 306h-146l-43 -306h-100z" />
    <glyph glyph-name="I" unicode="I" horiz-adv-x="178" 
d="M9 0l98 700h100l-98 -700h-100z" />
    <glyph glyph-name="J" unicode="J" horiz-adv-x="267" 
d="M-23 0l12 82h70q18 0 28.5 2.5t20 14t12.5 33.5l80 569h99l-76 -543q-8 -56 -19.5 -88.5t-33.5 -49.5t-49 -21t-74 -2z" />
    <glyph glyph-name="K" unicode="K" horiz-adv-x="416" 
d="M150 293l-41 -293h-100l98 700h100l-43 -312h63l136 312h105l-159 -352l71 -348h-110l-51 293h-69z" />
    <glyph glyph-name="L" unicode="L" horiz-adv-x="323" 
d="M9 0l98 700h100l-86 -615h176l-12 -85h-276z" />
    <glyph glyph-name="M" unicode="M" horiz-adv-x="555" 
d="M107 700h146l20 -501h4l160 501h147l-98 -700h-103l72 479h-1l-157 -479h-98l-24 478h-2l-62 -478h-102z" />
    <glyph glyph-name="N" unicode="N" horiz-adv-x="431" 
d="M107 700h106l86 -449h1l63 449h98l-98 -700h-109l-79 435h-5l-61 -435h-100z" />
    <glyph glyph-name="O" unicode="O" horiz-adv-x="421" 
d="M262 703h33q92 0 121.5 -29t17.5 -118l-58 -412q-12 -89 -50 -118t-130 -29h-33q-91 0 -120.5 29.5t-17.5 117.5l58 412q12 89 49.5 118t129.5 29zM177 82h29q21 0 32.5 3t22.5 15.5t14 37.5l60 424q5 35 -9 45.5t-45 10.5h-29q-31 0 -47 -10t-21 -46l-60 -424
q-5 -36 8.5 -46t44.5 -10z" />
    <glyph glyph-name="P" unicode="P" horiz-adv-x="386" 
d="M7 0l98 700h184q87 0 114 -27.5t16 -108.5l-26 -190q-12 -82 -47 -109t-122 -27h-84l-33 -238h-100zM273 615h-80l-41 -292h80q18 0 28 2t19.5 13t12.5 31l28 200q3 20 -3.5 31t-16 13t-27.5 2z" />
    <glyph glyph-name="Q" unicode="Q" horiz-adv-x="421" 
d="M262 703h33q92 0 121.5 -29t17.5 -118l-58 -412q-14 -104 -72 -131l27 -96h-75l-37 81q-7 -1 -23 -1h-33q-91 0 -120.5 29.5t-17.5 117.5l58 412q12 89 49.5 118t129.5 29zM177 82h29q21 0 32.5 3t22.5 15.5t14 37.5l60 424q5 35 -9 45.5t-45 10.5h-29q-31 0 -47 -10
t-21 -46l-60 -424q-5 -36 8.5 -46t44.5 -10z" />
    <glyph glyph-name="R" unicode="R" horiz-adv-x="396" 
d="M7 0l98 700h189q87 0 114 -27t16 -109l-16 -118q-13 -99 -79 -109q32 -7 44 -33t3 -85l-31 -219h-100l33 234q8 56 -43 56h-87l-41 -290h-100zM193 615l-33 -240h89q17 0 26.5 2.5t17.5 13t11 30.5l21 150q3 20 -3.5 30.5t-15.5 12t-27 1.5h-86z" />
    <glyph glyph-name="S" unicode="S" horiz-adv-x="402" 
d="M258 703l159 -3l-11 -82h-160q-21 0 -32 -2.5t-21.5 -14.5t-13.5 -37l-9 -68q-5 -38 7.5 -51.5t54.5 -28.5l66 -24q33 -12 49.5 -23t27 -38.5t4.5 -71.5l-16 -115q-12 -89 -49.5 -118t-129.5 -29l-181 3l12 82h181q31 0 46 9.5t20 45.5l15 103q3 8 1 16.5t-1.5 13t-4 10
t-6.5 8t-9 6.5t-10.5 5.5t-12 5.5t-13.5 6l-70 25q-26 11 -39 18.5t-28 22.5t-19 38t1 56l12 85q12 89 50 118t130 29z" />
    <glyph glyph-name="T" unicode="T" horiz-adv-x="376" 
d="M294 615l-86 -615h-100l86 615h-132l12 85h364l-12 -85h-132z" />
    <glyph glyph-name="U" unicode="U" horiz-adv-x="421" 
d="M103 700h101l-79 -559q-5 -37 3.5 -48t36.5 -11h53q28 0 40.5 11t17.5 48l79 559h99l-78 -556q-12 -89 -50 -118t-130 -29h-33q-92 0 -121 29t-17 118z" />
    <glyph glyph-name="V" unicode="V" horiz-adv-x="457" 
d="M514 700l-228 -700h-175l-32 700h100l25 -591h18l192 591h100z" />
    <glyph glyph-name="W" unicode="W" horiz-adv-x="606" 
d="M77 700h103l-18 -574h4l141 574h129l-20 -574h4l143 574h103l-178 -700h-175l29 469h-6l-102 -469h-175z" />
    <glyph glyph-name="X" unicode="X" horiz-adv-x="393" 
d="M449 700l-169 -346l76 -354h-100l-53 265l-126 -265h-100l176 354l-73 346h100l49 -255l120 255h100z" />
    <glyph glyph-name="Y" unicode="Y" horiz-adv-x="412" 
d="M126 0l38 274l-89 426h100l55 -309l142 309h101l-209 -426l-38 -274h-100z" />
    <glyph glyph-name="Z" unicode="Z" horiz-adv-x="352" 
d="M83 614l12 86h305l-12 -85l-282 -530h208l-12 -85h-312l12 86l292 528h-211z" />
    <glyph glyph-name="bracketleft" unicode="[" horiz-adv-x="260" 
d="M189 663l-96 -681h125l-10 -72h-210l116 825h210l-10 -72h-125z" />
    <glyph glyph-name="backslash" unicode="\" horiz-adv-x="253" 
d="M166 739l31 -775h-60l-32 775h61z" />
    <glyph glyph-name="bracketright" unicode="]" horiz-adv-x="260" 
d="M101 -18l96 681h-125l10 72h210l-116 -825h-210l10 72h125z" />
    <glyph glyph-name="asciicircum" unicode="^" horiz-adv-x="425" 
d="M334 467l-62 165l-109 -165h-74l158 233h69l92 -233h-74z" />
    <glyph glyph-name="underscore" unicode="_" horiz-adv-x="423" 
d="M-49 -109l9 66h431l-9 -66h-431z" />
    <glyph glyph-name="grave" unicode="`" horiz-adv-x="500" 
d="M331 696l27 -92h-64l-60 92h97z" />
    <glyph glyph-name="a" unicode="a" horiz-adv-x="378" 
d="M103 488l11 77q72 3 139 3q83 0 107 -28t14 -100l-62 -440q-107 -3 -164 -3h-30q-118 0 -102 113l23 166q16 112 134 112h99l7 53q3 22 -2 32.5t-12.5 12.5t-24.5 2h-137zM134 275l-21 -150q-6 -44 30 -44h86l33 235h-86q-36 0 -42 -41z" />
    <glyph glyph-name="b" unicode="b" 
d="M6 0l101 720h95l-22 -155h105q58 0 85 -25t18 -84l-49 -346q-16 -113 -133 -113h-31zM257 485h-88l-57 -404h88q41 0 47 44l44 316q3 20 -6 32t-28 12z" />
    <glyph glyph-name="c" unicode="c" horiz-adv-x="355" 
d="M227 568l153 -3l-11 -77h-153q-24 0 -37 -10t-17 -39l-44 -313q-4 -29 6 -39t34 -10h153l-11 -77q-86 -3 -153 -3q-84 0 -109 28.5t-15 99.5l44 315q10 72 43 100t117 28z" />
    <glyph glyph-name="d" unicode="d" 
d="M21 110l48 346q9 59 42.5 84t91.5 25h105l21 155h95l-101 -720q-103 -3 -168 -3h-32q-118 0 -102 113zM240 81l56 404h-88q-39 0 -46 -44l-44 -316q-6 -44 34 -44h88z" />
    <glyph glyph-name="e" unicode="e" horiz-adv-x="383" 
d="M227 568h30q83 0 108.5 -28t15.5 -100l-30 -216l-220 -2l-13 -96q-4 -29 6 -39t34 -10h152l-11 -77q-91 -3 -152 -3q-84 0 -109 28.5t-15 99.5l44 315q10 72 43 100t117 28zM216 488q-24 0 -37 -10t-17 -39l-19 -133h124l19 133q4 29 -6 39t-34 10h-30z" />
    <glyph glyph-name="f" unicode="f" horiz-adv-x="231" 
d="M274 565l-11 -80h-79l-68 -485h-95l68 485h-41l11 80h41l5 35q10 68 37.5 89t100.5 21l54 -5l-10 -75h-55q-27 0 -32 -32l-5 -33h79z" />
    <glyph glyph-name="g" unicode="g" 
d="M68 446q8 60 47.5 91t97.5 31h23l166 -3l-76 -545q-11 -79 -42 -103.5t-118 -24.5l-134 5l10 75h139q24 0 35 8.5t15 38.5l2 14h-105q-119 0 -103 112zM244 116l52 369h-88q-39 0 -46 -44l-40 -281q-6 -44 34 -44h88z" />
    <glyph glyph-name="h" unicode="h" 
d="M228 0l62 441q3 20 -6 32t-28 12h-87l-68 -485h-95l101 720h95l-22 -155h104q58 0 85 -25t18 -84l-64 -456h-95z" />
    <glyph glyph-name="i" unicode="i" horiz-adv-x="168" 
d="M7 0l79 565h95l-79 -565h-95zM91 615l13 90h98l-13 -90h-98z" />
    <glyph glyph-name="j" unicode="j" horiz-adv-x="167" 
d="M-17 -119l-44 49q43 45 54 66q16 30 23 79l69 490h95l-70 -500q-17 -121 -127 -184zM91 615l13 90h98l-13 -90h-98z" />
    <glyph glyph-name="k" unicode="k" horiz-adv-x="384" 
d="M253 0l-52 256h-64l-36 -256h-95l101 720h95l-52 -372h63l112 217h96l-135 -262l63 -303h-96z" />
    <glyph glyph-name="l" unicode="l" horiz-adv-x="167" 
d="M6 0l101 720h95l-101 -720h-95z" />
    <glyph glyph-name="m" unicode="m" horiz-adv-x="600" 
d="M6 0l79 565l385 3h27q58 0 84.5 -26t17.5 -86l-64 -456h-95l62 441q3 20 -6 32t-28 12h-82l-68 -485h-95l65 461q2 18 0 21t-17 3h-102l-68 -485h-95z" />
    <glyph glyph-name="n" unicode="n" 
d="M228 0l62 441q3 20 -6 32t-28 12h-87l-68 -485h-95l79 565q96 3 169 3h31q58 0 84.5 -26t17.5 -86l-64 -456h-95z" />
    <glyph glyph-name="o" unicode="o" horiz-adv-x="387" 
d="M227 568h34q83 0 108.5 -28t15.5 -100l-44 -315q-10 -71 -43.5 -99.5t-116.5 -28.5h-34q-84 0 -109 28.5t-15 99.5l44 315q10 72 43 100t117 28zM158 77h34q24 0 37 10t17 39l45 314q4 29 -6 39t-34 10h-34q-24 0 -37 -10t-17 -39l-45 -314q-4 -29 6 -39t34 -10z" />
    <glyph glyph-name="p" unicode="p" 
d="M-11 -120l96 685q80 3 169 3h32q56 0 82.5 -30.5t17.5 -91.5l-47 -336q-16 -113 -134 -113h-31l-73 3l-17 -120h-95zM257 485h-88l-57 -404h88q40 0 46 44l45 316q3 20 -6 32t-28 12z" />
    <glyph glyph-name="q" unicode="q" 
d="M21 110l47 336q9 60 48.5 91t96.5 31h23l167 -3l-97 -685h-95l17 120q-52 -3 -73 -3h-32q-118 0 -102 113zM240 81l56 404h-88q-39 0 -46 -44l-44 -316q-6 -44 34 -44h88z" />
    <glyph glyph-name="r" unicode="r" horiz-adv-x="273" 
d="M6 0l66 467q6 44 36 72.5t83 28.5h10l118 -6l-10 -70q-71 -4 -100 -6q-26 -1 -34 -10t-12 -34l-62 -442h-95z" />
    <glyph glyph-name="s" unicode="s" horiz-adv-x="345" 
d="M215 568l136 -3l-10 -77h-137q-17 0 -26 -2t-16.5 -11.5t-10.5 -29.5l-7 -45q-1 -5 -1 -9.5t1 -8t2 -6.5t4 -6t5 -4.5t7 -4t7.5 -4t9.5 -4.5t10 -5l63 -26q41 -17 59 -39.5t11 -71.5l-12 -81q-11 -73 -44 -102.5t-116 -29.5l-154 2l11 78h154q24 0 37 9.5t17 38.5l9 69
q-1 8 1 12.5t-1 10t-3 8.5t-4.5 6.5t-5.5 5t-6.5 4.5t-7.5 4t-8.5 4t-8.5 4l-62 27q-22 9 -31.5 14.5t-23 17.5t-16.5 31t1 47l7 49q10 72 43 100t117 28z" />
    <glyph glyph-name="t" unicode="t" horiz-adv-x="238" 
d="M275 565l-11 -80h-79l-52 -372q-5 -32 22 -32h60l-11 -81l-61 -3q-72 -2 -94 20.5t-12 90.5l53 377h-41l11 80h41l18 125h95l-18 -125h79z" />
    <glyph glyph-name="u" unicode="u" horiz-adv-x="387" 
d="M179 565l-62 -440q-6 -44 34 -44h87l68 484h95l-80 -565q-130 -3 -167 -3h-32q-118 0 -102 113l64 455h95z" />
    <glyph glyph-name="v" unicode="v" horiz-adv-x="376" 
d="M421 565l-189 -565h-148l-31 565h100l18 -447h6l144 447h100z" />
    <glyph glyph-name="w" unicode="w" horiz-adv-x="544" 
d="M279 0l10 332h-3l-81 -332h-150l-2 565h100l-7 -440h5l115 440h110l-9 -440h4l118 440h100l-160 -565h-150z" />
    <glyph glyph-name="x" unicode="x" horiz-adv-x="363" 
d="M403 565l-135 -276l56 -289h-100l-41 222l-103 -222h-100l138 289l-59 276h100l43 -208l101 208h100z" />
    <glyph glyph-name="y" unicode="y" horiz-adv-x="373" 
d="M74 5l-28 560h103l13 -471h8l150 471h95l-223 -691h-91l42 131h-69z" />
    <glyph glyph-name="z" unicode="z" horiz-adv-x="334" 
d="M302 84l-12 -84h-306l11 81l255 400h-193l11 84h299l-11 -84l-252 -397h198z" />
    <glyph glyph-name="braceleft" unicode="{" horiz-adv-x="237" 
d="M18 284l7 51q1 1 9.5 5t17 9.5t18 14t16.5 22t9 29.5l24 171q8 57 45 98q29 32 79 66l31 -27q-3 -3 -21.5 -25.5t-24.5 -31.5q-15 -24 -24 -80l-24 -171q-9 -65 -72 -106q52 -40 43 -105l-25 -178q-8 -56 1 -81q3 -8 15 -30.5t14 -26.5l-37 -27q-35 27 -61 66
q-25 38 -17 99l25 178q0 10 1 17t-2.5 14t-5 12t-6.5 10.5t-7.5 8t-8 6.5t-7.5 5.5t-6.5 4t-5.5 2.5z" />
    <glyph glyph-name="bar" unicode="|" horiz-adv-x="236" 
d="M41 -70l117 830h75l-117 -830h-75z" />
    <glyph glyph-name="braceright" unicode="}" horiz-adv-x="237" 
d="M245 335l-7 -51q-1 0 -6 -2.5l-8 -4t-9 -5t-10 -7t-9.5 -8t-9.5 -10t-8 -12t-7 -14.5t-4 -17l-25 -178q-8 -58 -45 -99q-37 -38 -79 -66l-30 27q2 3 21.5 26t24.5 31q14 23 23 81l25 178q9 65 73 105q-52 40 -43 106l24 171q8 55 -1 80q-1 3 -30 57l38 27q39 -32 61 -66
q25 -40 17 -98l-24 -171q-2 -16 1 -29.5t10.5 -22t14 -14t14 -9.5t8.5 -5z" />
    <glyph glyph-name="asciitilde" unicode="~" horiz-adv-x="400" 
d="M272 312l-109 61l-9 -58h-53l15 101h54l111 -42l7 39h52l-15 -101h-53z" />
    <glyph glyph-name="uni00A0" unicode="&#xa0;" horiz-adv-x="135" 
 />
    <glyph glyph-name="exclamdown" unicode="&#xa1;" horiz-adv-x="173" 
d="M35 186l66 305h49l-20 -305l-26 -186h-95zM95 573l17 127h85l-17 -127h-85z" />
    <glyph glyph-name="cent" unicode="&#xa2;" horiz-adv-x="355" 
d="M120 -77l10 75q-73 2 -95 30.5t-13 97.5l45 315q9 68 39 96.5t105 31.5l9 68h81l-10 -69l88 -2l-11 -77h-153q-24 0 -36.5 -10t-16.5 -39l-44 -313q-4 -29 6 -39t34 -10h153l-11 -77q-42 -1 -88 -2l-11 -76h-81z" />
    <glyph glyph-name="sterling" unicode="&#xa3;" horiz-adv-x="416" 
d="M271 621q-31 0 -46.5 -10t-20.5 -46l-29 -206h175l-11 -80h-175l-28 -199h246l-11 -80h-390l11 80h44l28 199h-44l11 80h45l26 187q13 91 52 124t129 33l143 -3l-11 -79h-144z" />
    <glyph glyph-name="yen" unicode="&#xa5;" horiz-adv-x="412" 
d="M50 286l7 48h95l-77 366h100l55 -309l142 309h101l-179 -366h92l-7 -48h-109l-6 -12l-5 -40h113l-7 -48h-113l-26 -186h-100l26 186h-116l7 48h116l5 40l-2 12h-112z" />
    <glyph glyph-name="section" unicode="&#xa7;" horiz-adv-x="424" 
d="M405 632h-155q-31 0 -47 -10t-20 -46l-1 -9q1 -9 -0.5 -15t2 -12t4 -9.5t6.5 -7t8.5 -5.5t10.5 -4.5t12 -3.5t13 -3.5t14 -3.5l83 -17q51 -10 71 -34.5t13 -77.5l-12 -84q-6 -42 -49 -71q17 -33 8 -85l-1 -5q-15 -83 -56 -107.5t-121 -24.5l-160 3l10 68h160
q25 0 36.5 1.5t25.5 14.5t19 40l2 10q4 9 1 17t-3 13t-6.5 9.5t-9.5 7t-12 5t-14 4t-15 4t-16 3.5l-83 17q-51 10 -70.5 34.5t-12.5 77.5l11 82q7 47 48 74q-20 43 -8 85l1 4q4 75 51.5 103.5t126.5 28.5l144 -3zM204 430q-51 10 -61 22q-11 -12 -12 -24l-11 -82
q-1 -7 -1 -12.5t-0.5 -10t1 -7.5t1.5 -5.5t3.5 -4.5t5 -3.5t7 -3t8 -2t11 -2.5t12.5 -3l83 -20q52 -12 64 -24q10 11 11 25l12 81q5 33 -5 43t-49 17z" />
    <glyph glyph-name="dieresis" unicode="&#xa8;" horiz-adv-x="500" 
d="M214 612l12 84h64l-12 -84h-64zM334 612l12 84h64l-12 -84h-64z" />
    <glyph glyph-name="copyright" unicode="&#xa9;" horiz-adv-x="524" 
d="M255 700h152q150 0 130 -141l-59 -417q-19 -142 -170 -142h-152q-70 0 -104.5 34.5t-24.5 107.5l59 417q20 141 169 141zM158 16h152q133 0 150 126l59 417q18 126 -114 126h-152q-131 0 -149 -126l-59 -417q-18 -126 113 -126zM300 610l130 -3l-9 -60h-124q-16 0 -23 -1
t-16 -11t-12 -30l-44 -312q-3 -27 6.5 -36t32.5 -9h124l-8 -60q-58 -3 -131 -3q-65 0 -85 27.5t-10 98.5l38 273q10 71 37.5 98.5t93.5 27.5z" />
    <glyph glyph-name="ordfeminine" unicode="&#xaa;" horiz-adv-x="255" 
d="M118 654l6 46q42 3 82 3q51 0 65.5 -16.5t8.5 -60.5l-37 -265h-106q-81 0 -72 67l15 106q6 38 26 52.5t55 14.5h57l3 24q3 19 -2.5 24t-19.5 5h-81zM235 314l-8 -55h-188l8 55h188zM143 412h49l20 145h-49q-21 0 -26 -29l-13 -91q-3 -25 19 -25z" />
    <glyph glyph-name="guillemotleft" unicode="&#xab;" horiz-adv-x="306" 
d="M205 111l-61 169l2 11l108 170h68l-96 -170l-2 -11l49 -169h-68zM20 280l2 11l118 170h64l-101 -170l-2 -11l54 -169h-64z" />
    <glyph glyph-name="registered" unicode="&#xae;" horiz-adv-x="352" 
d="M224 300h-72q-53 0 -75 21t-14 78l29 203q8 57 36 77.5t81 20.5h72q53 0 75.5 -20.5t14.5 -77.5l-29 -203q-8 -57 -36.5 -78t-81.5 -21zM154 311h72q49 0 73 18.5t31 69.5l29 203q7 51 -12.5 69t-67.5 18h-72q-47 0 -71.5 -18t-31.5 -69l-29 -203q-7 -50 12 -69t67 -19z
M190 472l-15 -103h-42l37 265h74q36 0 48 -11.5t7 -45.5l-6 -43q-3 -24 -11.5 -33.5t-26.5 -11.5q17 -3 22.5 -13t2.5 -33l-10 -74h-42l11 78q3 25 -14 25h-35zM239 598h-32l-12 -90h35q18 0 20 20l7 49q3 21 -18 21z" />
    <glyph glyph-name="macron" unicode="&#xaf;" horiz-adv-x="500" 
d="M204 622l8 56h206l-8 -56h-206z" />
    <glyph glyph-name="degree" unicode="&#xb0;" horiz-adv-x="256" 
d="M179 703h37q54 0 67 -22.5t5 -77.5l-19 -131q-8 -55 -27 -77.5t-73 -22.5h-37q-54 0 -67 22.5t-5 77.5l19 131q8 55 26.5 77.5t73.5 22.5zM206 651h-33q-19 0 -25.5 -8t-9.5 -29l-21 -152q-3 -21 1 -29t24 -8h33q20 0 26 7.5t9 29.5l21 152q3 21 -1 29t-24 8z" />
    <glyph glyph-name="plusminus" unicode="&#xb1;" horiz-adv-x="335" 
d="M46 395l9 66h113l16 113h66l-16 -113h115l-9 -66h-115l-16 -115h-66l16 115h-113zM13 160l9 66h294l-9 -66h-294z" />
    <glyph glyph-name="acute" unicode="&#xb4;" horiz-adv-x="500" 
d="M251 604l54 92h97l-87 -92h-64z" />
    <glyph glyph-name="paragraph" unicode="&#xb6;" horiz-adv-x="435" 
d="M164 0l45 320h-72q-43 0 -62 30t-13 69l25 182q6 40 32.5 69.5t70.5 29.5h274l-98 -700h-58l89 633h-86l-89 -633h-58z" />
    <glyph glyph-name="periodcentered" unicode="&#xb7;" horiz-adv-x="176" 
d="M53 267l17 122h86l-17 -122h-86z" />
    <glyph glyph-name="cedilla" unicode="&#xb8;" horiz-adv-x="500" 
d="M251 0l-42 -118h-72l60 118h54z" />
    <glyph glyph-name="ordmasculine" unicode="&#xba;" horiz-adv-x="263" 
d="M188 703h23q50 0 65 -19t9 -63l-25 -179q-6 -43 -26.5 -62t-70.5 -19h-23q-49 0 -64 19t-9 62l25 179q6 44 26.5 63t69.5 19zM148 412h23q27 0 30 28l26 183q2 17 -3.5 22.5t-19.5 5.5h-23q-26 0 -30 -28l-26 -183q-2 -17 4 -22.5t19 -5.5zM41 259l8 55h193l-8 -55h-193z
" />
    <glyph glyph-name="guillemotright" unicode="&#xbb;" horiz-adv-x="306" 
d="M182 280l-109 -169h-69l97 169l1 11l-49 170h69l61 -170zM306 291l-1 -11l-119 -169h-63l102 169l1 11l-54 170h63z" />
    <glyph glyph-name="questiondown" unicode="&#xbf;" horiz-adv-x="356" 
d="M312 78l-11 -78q-61 -3 -140 -3q-84 0 -115 30t-18 117l9 61q5 31 20.5 55.5t26.5 33.5t48 37q14 11 31.5 23.5t24 17.5t15 12t11 13.5t5 15t4.5 21.5l8 57h78l-13 -93q-2 -12 -6 -22t-13 -20t-15 -16t-21 -18t-21 -17q-7 -6 -21.5 -18t-19.5 -16.5t-14.5 -14t-13 -14.5
t-9 -14t-8 -18t-4.5 -20l-9 -59q-5 -15 -1 -25.5t5.5 -16t11 -8t16.5 -3t20 -0.5h139zM343 700l-18 -127h-85l18 127h85z" />
    <glyph glyph-name="Agrave" unicode="&#xc0;" horiz-adv-x="407" 
d="M352 700l37 -700h-100l-10 141h-171l-49 -141h-100l233 700h160zM255 621l-120 -385h143l-12 385h-11zM284 831l27 -92h-64l-60 92h97z" />
    <glyph glyph-name="Aacute" unicode="&#xc1;" horiz-adv-x="407" 
d="M352 700l37 -700h-100l-10 141h-171l-49 -141h-100l233 700h160zM255 621l-120 -385h143l-12 385h-11zM239 739l54 92h97l-87 -92h-64z" />
    <glyph glyph-name="Acircumflex" unicode="&#xc2;" horiz-adv-x="407" 
d="M352 700l37 -700h-100l-10 141h-171l-49 -141h-100l233 700h160zM255 621l-120 -385h143l-12 385h-11zM167 739l78 92h92l52 -92h-64l-40 52l-54 -52h-64z" />
    <glyph glyph-name="Atilde" unicode="&#xc3;" horiz-adv-x="407" 
d="M352 700l37 -700h-100l-10 141h-171l-49 -141h-100l233 700h160zM255 621l-120 -385h143l-12 385h-11zM328 744l-90 50l-10 -48h-43l14 84h44l92 -35l8 34h43l-14 -85h-44z" />
    <glyph glyph-name="Adieresis" unicode="&#xc4;" horiz-adv-x="407" 
d="M352 700l37 -700h-100l-10 141h-171l-49 -141h-100l233 700h160zM255 621l-120 -385h143l-12 385h-11zM187 747l12 84h64l-12 -84h-64zM307 747l12 84h64l-12 -84h-64z" />
    <glyph glyph-name="Aring" unicode="&#xc5;" horiz-adv-x="407" 
d="M352 700l37 -700h-100l-10 141h-171l-49 -141h-100l233 700h160zM255 621l-120 -385h143l-12 385h-11zM285 860h19q39 0 49 -13t5 -48l-2 -14q-5 -35 -19 -48t-52 -13h-19q-38 0 -49 13t-6 48l2 14q5 35 19.5 48t52.5 13zM298 829h-15q-21 0 -27 -4.5t-8 -22.5l-3 -19
q-2 -19 2.5 -23.5t24.5 -4.5h15q21 0 27.5 5t8.5 23l3 19q2 18 -2 22.5t-26 4.5z" />
    <glyph glyph-name="AE" unicode="&#xc6;" horiz-adv-x="629" 
d="M286 0l21 151h-158l-69 -151h-99l329 700h365l-12 -85h-191l-30 -214h176l-12 -86h-176l-32 -229h191l-12 -86h-291zM357 615l-170 -379h132l53 379h-15z" />
    <glyph glyph-name="Ccedilla" unicode="&#xc7;" horiz-adv-x="388" 
d="M263 703l169 -3l-12 -84h-169q-31 0 -46.5 -10t-20.5 -46l-59 -420q-5 -36 7.5 -46t43.5 -10h169l-12 -84q-60 -2 -126 -3l-40 -115h-72l58 115q-85 2 -112 31.5t-15 115.5l57 412q12 89 50 118t130 29z" />
    <glyph glyph-name="Egrave" unicode="&#xc8;" horiz-adv-x="352" 
d="M153 316l-32 -231h191l-12 -85h-291l98 700h291l-12 -85h-191l-30 -214h176l-12 -85h-176zM285 831l27 -92h-64l-60 92h97z" />
    <glyph glyph-name="Eacute" unicode="&#xc9;" horiz-adv-x="352" 
d="M209 739l54 92h97l-87 -92h-64zM153 316l-32 -231h191l-12 -85h-291l98 700h291l-12 -85h-191l-30 -214h176l-12 -85h-176z" />
    <glyph glyph-name="Ecircumflex" unicode="&#xca;" horiz-adv-x="352" 
d="M147 739l78 92h92l52 -92h-64l-40 52l-54 -52h-64zM153 316l-32 -231h191l-12 -85h-291l98 700h291l-12 -85h-191l-30 -214h176l-12 -85h-176z" />
    <glyph glyph-name="Edieresis" unicode="&#xcb;" horiz-adv-x="352" 
d="M172 747l12 84h64l-12 -84h-64zM292 747l12 84h64l-12 -84h-64zM153 316l-32 -231h191l-12 -85h-291l98 700h291l-12 -85h-191l-30 -214h176l-12 -85h-176z" />
    <glyph glyph-name="Igrave" unicode="&#xcc;" horiz-adv-x="178" 
d="M9 0l98 700h100l-98 -700h-100zM172 831l27 -92h-64l-60 92h97z" />
    <glyph glyph-name="Iacute" unicode="&#xcd;" horiz-adv-x="178" 
d="M9 0l98 700h100l-98 -700h-100zM128 739l54 92h97l-87 -92h-64z" />
    <glyph glyph-name="Icircumflex" unicode="&#xce;" horiz-adv-x="178" 
d="M9 0l98 700h100l-98 -700h-100zM52 739l78 92h92l52 -92h-64l-40 52l-54 -52h-64z" />
    <glyph glyph-name="Idieresis" unicode="&#xcf;" horiz-adv-x="178" 
d="M9 0l98 700h100l-98 -700h-100zM72 747l12 84h64l-12 -84h-64zM192 747l12 84h64l-12 -84h-64z" />
    <glyph glyph-name="Eth" unicode="&#xd0;" horiz-adv-x="424" 
d="M17 322l10 70h49l43 308h186q89 0 117.5 -28t16.5 -113l-58 -417q-12 -85 -48.5 -113.5t-125.5 -28.5h-186l45 322h-49zM293 615h-85l-32 -223h59l-10 -70h-59l-33 -237h86q28 0 42 10t19 42l60 430v27t-9 14.5t-16.5 5.5t-21.5 1z" />
    <glyph glyph-name="Ntilde" unicode="&#xd1;" horiz-adv-x="431" 
d="M107 700h106l86 -449h1l63 449h98l-98 -700h-109l-79 435h-5l-61 -435h-100zM338 744l-90 50l-10 -48h-43l14 84h44l92 -35l8 34h43l-14 -85h-44z" />
    <glyph glyph-name="Ograve" unicode="&#xd2;" horiz-adv-x="421" 
d="M262 703h33q92 0 121.5 -29t17.5 -118l-58 -412q-12 -89 -50 -118t-130 -29h-33q-91 0 -120.5 29.5t-17.5 117.5l58 412q12 89 49.5 118t129.5 29zM177 82h29q21 0 32.5 3t22.5 15.5t14 37.5l60 424q5 35 -9 45.5t-45 10.5h-29q-31 0 -47 -10t-21 -46l-60 -424
q-5 -36 8.5 -46t44.5 -10zM296 831l27 -92h-64l-60 92h97z" />
    <glyph glyph-name="Oacute" unicode="&#xd3;" horiz-adv-x="421" 
d="M240 739l54 92h97l-87 -92h-64zM262 703h33q92 0 121.5 -29t17.5 -118l-58 -412q-12 -89 -50 -118t-130 -29h-33q-91 0 -120.5 29.5t-17.5 117.5l58 412q12 89 49.5 118t129.5 29zM177 82h29q21 0 32.5 3t22.5 15.5t14 37.5l60 424q5 35 -9 45.5t-45 10.5h-29
q-31 0 -47 -10t-21 -46l-60 -424q-5 -36 8.5 -46t44.5 -10z" />
    <glyph glyph-name="Ocircumflex" unicode="&#xd4;" horiz-adv-x="421" 
d="M173 739l78 92h92l52 -92h-64l-39 52l-55 -52h-64zM262 703h33q92 0 121.5 -29t17.5 -118l-58 -412q-12 -89 -50 -118t-130 -29h-33q-91 0 -120.5 29.5t-17.5 117.5l58 412q12 89 49.5 118t129.5 29zM177 82h29q21 0 32.5 3t22.5 15.5t14 37.5l60 424q5 35 -9 45.5
t-45 10.5h-29q-31 0 -47 -10t-21 -46l-60 -424q-5 -36 8.5 -46t44.5 -10z" />
    <glyph glyph-name="Otilde" unicode="&#xd5;" horiz-adv-x="421" 
d="M262 703h33q92 0 121.5 -29t17.5 -118l-58 -412q-12 -89 -50 -118t-130 -29h-33q-91 0 -120.5 29.5t-17.5 117.5l58 412q12 89 49.5 118t129.5 29zM177 82h29q21 0 32.5 3t22.5 15.5t14 37.5l60 424q5 35 -9 45.5t-45 10.5h-29q-31 0 -47 -10t-21 -46l-60 -424
q-5 -36 8.5 -46t44.5 -10zM333 744l-90 50l-10 -48h-43l14 84h44l92 -35l8 34h43l-14 -85h-44z" />
    <glyph glyph-name="Odieresis" unicode="&#xd6;" horiz-adv-x="421" 
d="M194 747l11 84h64l-11 -84h-64zM314 747l11 84h64l-11 -84h-64zM262 703h33q92 0 121.5 -29t17.5 -118l-58 -412q-12 -89 -50 -118t-130 -29h-33q-91 0 -120.5 29.5t-17.5 117.5l58 412q12 89 49.5 118t129.5 29zM177 82h29q21 0 32.5 3t22.5 15.5t14 37.5l60 424
q5 35 -9 45.5t-45 10.5h-29q-31 0 -47 -10t-21 -46l-60 -424q-5 -36 8.5 -46t44.5 -10z" />
    <glyph glyph-name="multiply" unicode="&#xd7;" horiz-adv-x="325" 
d="M288 491l40 -46l-99 -87l72 -84l-52 -47l-74 84l-98 -85l-39 47l98 85l-72 85l53 46l72 -84z" />
    <glyph glyph-name="Oslash" unicode="&#xd8;" horiz-adv-x="421" 
d="M263 703h33q56 0 84 -8l23 45h54l-37 -70q26 -32 14 -114l-58 -412q-12 -89 -49.5 -118t-129.5 -29h-33q-54 0 -87 9l-22 -42h-53l36 67q-25 33 -13 113l58 412q12 89 50 118t130 29zM184 562l-50 -356l197 396q-10 16 -49 16h-29q-21 0 -32.5 -3t-22.5 -15.5t-14 -37.5z
M178 82h29q31 0 47 10t21 46l48 342l-191 -387q11 -11 46 -11z" />
    <glyph glyph-name="Ugrave" unicode="&#xd9;" horiz-adv-x="421" 
d="M103 700h101l-79 -559q-5 -37 3.5 -48t36.5 -11h53q28 0 40.5 11t17.5 48l79 559h99l-78 -556q-12 -89 -50 -118t-130 -29h-33q-92 0 -121 29t-17 118zM307 831l27 -92h-64l-60 92h97z" />
    <glyph glyph-name="Uacute" unicode="&#xda;" horiz-adv-x="421" 
d="M244 739l54 92h97l-87 -92h-64zM103 700h101l-79 -559q-5 -37 3.5 -48t36.5 -11h53q28 0 40.5 11t17.5 48l79 559h99l-78 -556q-12 -89 -50 -118t-130 -29h-33q-92 0 -121 29t-17 118z" />
    <glyph glyph-name="Ucircumflex" unicode="&#xdb;" horiz-adv-x="421" 
d="M174 739l78 92h92l52 -92h-64l-40 52l-54 -52h-64zM103 700h101l-79 -559q-5 -37 3.5 -48t36.5 -11h53q28 0 40.5 11t17.5 48l79 559h99l-78 -556q-12 -89 -50 -118t-130 -29h-33q-92 0 -121 29t-17 118z" />
    <glyph glyph-name="Udieresis" unicode="&#xdc;" horiz-adv-x="421" 
d="M194 747l12 84h64l-12 -84h-64zM314 747l12 84h64l-12 -84h-64zM103 700h101l-79 -559q-5 -37 3.5 -48t36.5 -11h53q28 0 40.5 11t17.5 48l79 559h99l-78 -556q-12 -89 -50 -118t-130 -29h-33q-92 0 -121 29t-17 118z" />
    <glyph glyph-name="Yacute" unicode="&#xdd;" horiz-adv-x="412" 
d="M126 0l38 274l-89 426h100l55 -309l142 309h101l-209 -426l-38 -274h-100zM240 739l54 92h97l-87 -92h-64z" />
    <glyph glyph-name="Thorn" unicode="&#xde;" horiz-adv-x="386" 
d="M7 0l98 700h100l-16 -118h84q87 0 114 -27.5t16 -108.5l-26 -185q-12 -82 -46.5 -109t-121.5 -27h-84l-18 -125h-100zM261 498h-84l-41 -289h84q24 0 38 10.5t18 40.5l27 187q4 30 -7 40.5t-35 10.5z" />
    <glyph glyph-name="germandbls" unicode="&#xdf;" horiz-adv-x="418" 
d="M259 620q-28 0 -42.5 -9t-18.5 -41l-80 -570h-95l70 496l-47 10l8 59h51l4 27q7 52 45.5 80t90.5 28h45q90 0 118 -28t16 -113l-10 -73q-8 -58 -28.5 -82.5t-64.5 -30.5q49 -4 65.5 -28t7.5 -86l-16 -117q-7 -49 -17.5 -77t-33 -42.5t-48.5 -18.5t-75 -4h-51l11 75h56
q27 0 41.5 11.5t19.5 44.5l21 143q4 32 -9 43.5t-40 11.5h-54l12 85h44q27 0 42 11.5t20 44.5l14 100q4 32 -7.5 41t-39.5 9h-25z" />
    <glyph glyph-name="agrave" unicode="&#xe0;" horiz-adv-x="378" 
d="M103 488l11 77q72 3 139 3q83 0 107 -28t14 -100l-62 -440q-107 -3 -164 -3h-30q-118 0 -102 113l23 166q16 112 134 112h99l7 53q3 22 -2 32.5t-12.5 12.5t-24.5 2h-137zM134 275l-21 -150q-6 -44 30 -44h86l33 235h-86q-36 0 -42 -41zM266 696l27 -92h-64l-60 92h97z
" />
    <glyph glyph-name="aacute" unicode="&#xe1;" horiz-adv-x="378" 
d="M103 488l11 77q72 3 139 3q83 0 107 -28t14 -100l-62 -440q-107 -3 -164 -3h-30q-118 0 -102 113l23 166q16 112 134 112h99l7 53q3 22 -2 32.5t-12.5 12.5t-24.5 2h-137zM134 275l-21 -150q-6 -44 30 -44h86l33 235h-86q-36 0 -42 -41zM206 604l54 92h97l-87 -92h-64z
" />
    <glyph glyph-name="acircumflex" unicode="&#xe2;" horiz-adv-x="378" 
d="M103 488l11 77q72 3 139 3q83 0 107 -28t14 -100l-62 -440q-107 -3 -164 -3h-30q-118 0 -102 113l23 166q16 112 134 112h99l7 53q3 22 -2 32.5t-12.5 12.5t-24.5 2h-137zM134 275l-21 -150q-6 -44 30 -44h86l33 235h-86q-36 0 -42 -41zM136 604l78 92h92l52 -92h-64
l-40 52l-54 -52h-64z" />
    <glyph glyph-name="atilde" unicode="&#xe3;" horiz-adv-x="378" 
d="M103 488l11 77q72 3 139 3q83 0 107 -28t14 -100l-62 -440q-107 -3 -164 -3h-30q-118 0 -102 113l23 166q16 112 134 112h99l7 53q3 22 -2 32.5t-12.5 12.5t-24.5 2h-137zM134 275l-21 -150q-6 -44 30 -44h86l33 235h-86q-36 0 -42 -41zM296 609l-90 50l-10 -48h-43
l14 84h44l92 -35l8 34h43l-14 -85h-44z" />
    <glyph glyph-name="adieresis" unicode="&#xe4;" horiz-adv-x="378" 
d="M103 488l11 77q72 3 139 3q83 0 107 -28t14 -100l-62 -440q-107 -3 -164 -3h-30q-118 0 -102 113l23 166q16 112 134 112h99l7 53q3 22 -2 32.5t-12.5 12.5t-24.5 2h-137zM134 275l-21 -150q-6 -44 30 -44h86l33 235h-86q-36 0 -42 -41zM154 612l12 84h64l-12 -84h-64z
M274 612l12 84h64l-12 -84h-64z" />
    <glyph glyph-name="aring" unicode="&#xe5;" horiz-adv-x="378" 
d="M103 488l11 77q72 3 139 3q83 0 107 -28t14 -100l-62 -440q-107 -3 -164 -3h-30q-118 0 -102 113l23 166q16 112 134 112h99l7 53q3 22 -2 32.5t-12.5 12.5t-24.5 2h-137zM134 275l-21 -150q-6 -44 30 -44h86l33 235h-86q-36 0 -42 -41zM250 733h19q38 0 49 -13t6 -48
l-2 -14q-5 -35 -19 -48t-53 -13h-19q-38 0 -48.5 13t-5.5 48l2 14q5 35 19 48t52 13zM263 702h-15q-21 0 -26.5 -4.5t-8.5 -22.5l-3 -19q-3 -19 1.5 -23.5t25.5 -4.5h15q21 0 27 4.5t9 23.5l3 19q3 18 -1.5 22.5t-26.5 4.5z" />
    <glyph glyph-name="ae" unicode="&#xe6;" horiz-adv-x="600" 
d="M444 568h30q83 0 108.5 -28t15.5 -100l-29 -206l-220 -2l-15 -109q-4 -29 6.5 -39t34.5 -10h142l-11 -74q-61 -3 -142 -3q-58 0 -85 7.5t-35 34.5q-3 -2 -13.5 -9.5t-17 -11.5t-17.5 -10t-23 -8.5t-25 -2.5h-30q-118 0 -102 113l20 146q16 112 134 112h104l10 75
q3 28 -6.5 37t-30.5 9h-139l11 76q71 3 139 3q70 0 87 -33q28 33 99 33zM238 111l25 182h-87q-19 0 -31.5 -14.5t-15.5 -35.5l-16 -118q-6 -44 34 -44h24q22 0 67 30zM433 492q-47 0 -53 -44l-20 -139h124l19 134q4 29 -6 39t-34 10h-30z" />
    <glyph glyph-name="ccedilla" unicode="&#xe7;" horiz-adv-x="355" 
d="M227 568l152 -3l-11 -77h-153q-24 0 -36.5 -10t-16.5 -39l-44 -313q-4 -29 6 -39t34 -10h153l-11 -77q-56 -2 -114 -3l-40 -115h-72l58 115q-74 2 -96.5 31t-13.5 97l45 315q10 72 43 100t117 28z" />
    <glyph glyph-name="egrave" unicode="&#xe8;" horiz-adv-x="383" 
d="M227 568h30q83 0 108.5 -28t15.5 -100l-30 -216l-220 -2l-13 -96q-4 -29 6 -39t34 -10h152l-11 -77q-91 -3 -152 -3q-84 0 -109 28.5t-15 99.5l44 315q10 72 43 100t117 28zM216 488q-24 0 -37 -10t-17 -39l-19 -133h124l19 133q4 29 -6 39t-34 10h-30zM259 696l27 -92
h-64l-60 92h97z" />
    <glyph glyph-name="eacute" unicode="&#xe9;" horiz-adv-x="383" 
d="M213 604l54 92h97l-87 -92h-64zM227 568h30q83 0 108.5 -28t15.5 -100l-30 -216l-220 -2l-13 -96q-4 -29 6 -39t34 -10h152l-11 -77q-91 -3 -152 -3q-84 0 -109 28.5t-15 99.5l44 315q10 72 43 100t117 28zM216 488q-24 0 -37 -10t-17 -39l-19 -133h124l19 133
q4 29 -6 39t-34 10h-30z" />
    <glyph glyph-name="ecircumflex" unicode="&#xea;" horiz-adv-x="383" 
d="M136 604l78 92h92l52 -92h-64l-39 52l-55 -52h-64zM227 568h30q83 0 108.5 -28t15.5 -100l-30 -216l-220 -2l-13 -96q-4 -29 6 -39t34 -10h152l-11 -77q-91 -3 -152 -3q-84 0 -109 28.5t-15 99.5l44 315q10 72 43 100t117 28zM216 488q-24 0 -37 -10t-17 -39l-19 -133
h124l19 133q4 29 -6 39t-34 10h-30z" />
    <glyph glyph-name="edieresis" unicode="&#xeb;" horiz-adv-x="383" 
d="M156 612l12 84h64l-12 -84h-64zM276 612l12 84h64l-12 -84h-64zM227 568h30q83 0 108.5 -28t15.5 -100l-30 -216l-220 -2l-13 -96q-4 -29 6 -39t34 -10h152l-11 -77q-91 -3 -152 -3q-84 0 -109 28.5t-15 99.5l44 315q10 72 43 100t117 28zM216 488q-24 0 -37 -10t-17 -39
l-19 -133h124l19 133q4 29 -6 39t-34 10h-30z" />
    <glyph glyph-name="igrave" unicode="&#xec;" horiz-adv-x="168" 
d="M7 0l79 565h95l-79 -565h-95zM146 696l27 -92h-64l-60 92h97z" />
    <glyph glyph-name="iacute" unicode="&#xed;" horiz-adv-x="168" 
d="M105 604l54 92h97l-87 -92h-64zM7 0l79 565h95l-79 -565h-95z" />
    <glyph glyph-name="icircumflex" unicode="&#xee;" horiz-adv-x="168" 
d="M29 604l78 92h92l52 -92h-64l-40 52l-54 -52h-64zM7 0l79 565h95l-79 -565h-95z" />
    <glyph glyph-name="idieresis" unicode="&#xef;" horiz-adv-x="168" 
d="M49 612l12 84h64l-12 -84h-64zM169 612l12 84h64l-12 -84h-64zM7 0l79 565h95l-79 -565h-95z" />
    <glyph glyph-name="eth" unicode="&#xf0;" horiz-adv-x="387" 
d="M180 -3h-34q-84 0 -109 27t-15 98l47 334q16 112 134 112h32q9 0 72 -3l1 5q8 42 1 63l-70 -25l-11 38l67 24q-14 21 -44 53l66 22q43 -36 52 -46l62 22l12 -38l-53 -19q21 -37 14 -89l-64 -453q-10 -71 -43 -98t-117 -27zM157 76h34q24 0 37 10t17 39l51 360h-88
q-39 0 -46 -44l-45 -316q-4 -29 6 -39t34 -10z" />
    <glyph glyph-name="ntilde" unicode="&#xf1;" 
d="M228 0l62 441q3 20 -6 32t-28 12h-87l-68 -485h-95l79 565q96 3 169 3h31q58 0 84.5 -26t17.5 -86l-64 -456h-95zM297 609l-90 50l-10 -48h-43l14 84h44l92 -35l8 34h43l-14 -85h-44z" />
    <glyph glyph-name="ograve" unicode="&#xf2;" horiz-adv-x="387" 
d="M227 568h34q83 0 108.5 -28t15.5 -100l-44 -315q-10 -71 -43.5 -99.5t-116.5 -28.5h-34q-84 0 -109 28.5t-15 99.5l44 315q10 72 43 100t117 28zM158 77h34q24 0 37 10t17 39l45 314q4 29 -6 39t-34 10h-34q-24 0 -37 -10t-17 -39l-45 -314q-4 -29 6 -39t34 -10zM271 696
l27 -92h-64l-60 92h97z" />
    <glyph glyph-name="oacute" unicode="&#xf3;" horiz-adv-x="387" 
d="M211 604l54 92h97l-87 -92h-64zM227 568h34q83 0 108.5 -28t15.5 -100l-44 -315q-10 -71 -43.5 -99.5t-116.5 -28.5h-34q-84 0 -109 28.5t-15 99.5l44 315q10 72 43 100t117 28zM158 77h34q24 0 37 10t17 39l45 314q4 29 -6 39t-34 10h-34q-24 0 -37 -10t-17 -39
l-45 -314q-4 -29 6 -39t34 -10z" />
    <glyph glyph-name="ocircumflex" unicode="&#xf4;" horiz-adv-x="387" 
d="M138 604l78 92h92l52 -92h-64l-39 52l-55 -52h-64zM227 568h34q83 0 108.5 -28t15.5 -100l-44 -315q-10 -71 -43.5 -99.5t-116.5 -28.5h-34q-84 0 -109 28.5t-15 99.5l44 315q10 72 43 100t117 28zM158 77h34q24 0 37 10t17 39l45 314q4 29 -6 39t-34 10h-34
q-24 0 -37 -10t-17 -39l-45 -314q-4 -29 6 -39t34 -10z" />
    <glyph glyph-name="otilde" unicode="&#xf5;" horiz-adv-x="387" 
d="M227 568h34q83 0 108.5 -28t15.5 -100l-44 -315q-10 -71 -43.5 -99.5t-116.5 -28.5h-34q-84 0 -109 28.5t-15 99.5l44 315q10 72 43 100t117 28zM158 77h34q24 0 37 10t17 39l45 314q4 29 -6 39t-34 10h-34q-24 0 -37 -10t-17 -39l-45 -314q-4 -29 6 -39t34 -10zM299 609
l-90 50l-10 -48h-43l14 84h44l92 -35l8 34h43l-14 -85h-44z" />
    <glyph glyph-name="odieresis" unicode="&#xf6;" horiz-adv-x="387" 
d="M158 612l12 84h64l-12 -84h-64zM278 612l12 84h64l-12 -84h-64zM227 568h34q83 0 108.5 -28t15.5 -100l-44 -315q-10 -71 -43.5 -99.5t-116.5 -28.5h-34q-84 0 -109 28.5t-15 99.5l44 315q10 72 43 100t117 28zM158 77h34q24 0 37 10t17 39l45 314q4 29 -6 39t-34 10h-34
q-24 0 -37 -10t-17 -39l-45 -314q-4 -29 6 -39t34 -10z" />
    <glyph glyph-name="divide" unicode="&#xf7;" horiz-adv-x="331" 
d="M37 326l9 66h294l-9 -66h-294zM169 442l11 79h64l-11 -79h-64zM135 196l11 79h64l-11 -79h-64z" />
    <glyph glyph-name="oslash" unicode="&#xf8;" horiz-adv-x="387" 
d="M227 568h34q33 0 61 -5l24 45h50l-35 -60q36 -27 24 -108l-44 -315q-10 -71 -43.5 -99.5t-116.5 -28.5h-34q-45 0 -74 8l-23 -37h-49l35 59q-22 26 -13 98l44 315q10 72 43 100t117 28zM158 77h34q24 0 37 10t17 39l41 285l-165 -322q8 -12 36 -12zM163 440l-36 -248
l150 293q-9 4 -26 4h-34q-24 0 -37 -10t-17 -39z" />
    <glyph glyph-name="ugrave" unicode="&#xf9;" horiz-adv-x="387" 
d="M179 565l-62 -440q-6 -44 34 -44h87l68 484h95l-80 -565q-130 -3 -167 -3h-32q-118 0 -102 113l64 455h95zM271 696l27 -92h-64l-60 92h97z" />
    <glyph glyph-name="uacute" unicode="&#xfa;" horiz-adv-x="387" 
d="M179 565l-62 -440q-6 -44 34 -44h87l68 484h95l-80 -565q-130 -3 -167 -3h-32q-118 0 -102 113l64 455h95zM205 604l54 92h97l-87 -92h-64z" />
    <glyph glyph-name="ucircumflex" unicode="&#xfb;" horiz-adv-x="387" 
d="M179 565l-62 -440q-6 -44 34 -44h87l68 484h95l-80 -565q-130 -3 -167 -3h-32q-118 0 -102 113l64 455h95zM137 604l78 92h92l52 -92h-64l-40 52l-54 -52h-64z" />
    <glyph glyph-name="udieresis" unicode="&#xfc;" horiz-adv-x="387" 
d="M179 565l-62 -440q-6 -44 34 -44h87l68 484h95l-80 -565q-130 -3 -167 -3h-32q-118 0 -102 113l64 455h95zM158 612l12 84h64l-12 -84h-64zM278 612l12 84h64l-12 -84h-64z" />
    <glyph glyph-name="yacute" unicode="&#xfd;" horiz-adv-x="373" 
d="M74 5l-28 560h103l13 -471h8l150 471h95l-223 -691h-91l42 131h-69zM202 604l54 92h97l-87 -92h-64z" />
    <glyph glyph-name="thorn" unicode="&#xfe;" 
d="M-11 -120l115 821h95l-19 -136h115q55 0 77.5 -28.5t13.5 -90.5l-44 -316q-9 -64 -41 -98.5t-86 -34.5h-31l-83 3l-17 -120h-95zM257 485h-88l-57 -404h88q40 0 46 44l45 316q3 20 -6 32t-28 12z" />
    <glyph glyph-name="ydieresis" unicode="&#xff;" horiz-adv-x="373" 
d="M74 5l-28 560h103l13 -471h8l150 471h95l-223 -691h-91l42 131h-69zM147 612l11 84h64l-11 -84h-64zM267 612l11 84h64l-11 -84h-64z" />
    <glyph glyph-name="Amacron" unicode="&#x100;" horiz-adv-x="407" 
d="M352 700l37 -700h-100l-10 141h-171l-49 -141h-100l233 700h160zM255 621l-120 -385h143l-12 385h-11zM177 757l8 56h206l-8 -56h-206z" />
    <glyph glyph-name="amacron" unicode="&#x101;" horiz-adv-x="378" 
d="M103 488l11 77q72 3 139 3q83 0 107 -28t14 -100l-62 -440q-107 -3 -164 -3h-30q-118 0 -102 113l23 166q16 112 134 112h99l7 53q3 22 -2 32.5t-12.5 12.5t-24.5 2h-137zM134 275l-21 -150q-6 -44 30 -44h86l33 235h-86q-36 0 -42 -41zM150 622l7 56h206l-7 -56h-206z
" />
    <glyph glyph-name="Abreve" unicode="&#x102;" horiz-adv-x="407" 
d="M352 700l37 -700h-100l-10 141h-171l-49 -141h-100l233 700h160zM255 621l-120 -385h143l-12 385h-11zM297 737h-38q-51 0 -67 18.5t-8 67.5l2 11h57l-2 -17q-4 -32 26 -32h34q32 0 36 32l2 17h58l-2 -11q-8 -50 -28 -68t-70 -18z" />
    <glyph glyph-name="abreve" unicode="&#x103;" horiz-adv-x="378" 
d="M103 488l11 77q72 3 139 3q83 0 107 -28t14 -100l-62 -440q-107 -3 -164 -3h-30q-118 0 -102 113l23 166q16 112 134 112h99l7 53q3 22 -2 32.5t-12.5 12.5t-24.5 2h-137zM134 275l-21 -150q-6 -44 30 -44h86l33 235h-86q-36 0 -42 -41zM269 602h-38q-51 0 -67 18.5
t-8 67.5l2 11h57l-2 -17q-4 -32 27 -32h34q31 0 35 32l2 17h58l-2 -11q-8 -50 -28 -68t-70 -18z" />
    <glyph glyph-name="Aogonek" unicode="&#x104;" horiz-adv-x="407" 
d="M409 -61l-2 -15q-4 -33 -15.5 -48t-44.5 -15h-50q-34 0 -44 11.5t-5 41.5l2 12q3 22 11.5 31t32.5 22l44 21h-49l-10 141h-171l-49 -141h-100l233 700h160l37 -700l-1 -6l-54 -30q-4 -2 -9 -5.5t-7.5 -4.5t-5.5 -3.5t-4 -4t-2.5 -3.5t-2.5 -4.5t-1 -5.5l-1 -7
q-1 -7 -1 -12t3 -7t10 -2h29q10 0 12.5 3t3.5 11v4l2 16h49zM255 621l-120 -385h143l-12 385h-11z" />
    <glyph glyph-name="aogonek" unicode="&#x105;" horiz-adv-x="378" 
d="M306 -41l-2 -15q-4 -33 -15.5 -48t-44.5 -15h-50q-34 0 -44 11.5t-5 41.5l2 12q4 22 11.5 31.5t28.5 19.5h-39h-30q-118 0 -102 113l23 166q16 112 134 112h99l7 53q3 22 -2 32.5t-12.5 12.5t-24.5 2h-137l11 77q72 3 139 3q83 0 107 -28t14 -100l-62 -440q-25 -1 -55 -1
l-26 -15q-26 -15 -30 -22q-1 -3 -2 -9l-1 -7q-1 -7 -1 -12t3 -7t10 -2h29q10 0 12.5 3t3.5 11v4l2 16h49zM134 275l-21 -150q-6 -44 30 -44h86l33 235h-86q-36 0 -42 -41z" />
    <glyph glyph-name="Cacute" unicode="&#x106;" horiz-adv-x="388" 
d="M255 739l54 92h97l-87 -92h-64zM263 703l168 -3l-12 -84h-169q-31 0 -46.5 -10t-20.5 -46l-59 -420q-5 -36 8 -46t44 -10h169l-12 -84q-88 -3 -170 -3q-92 0 -121 29t-17 118l58 412q12 89 50 118t130 29z" />
    <glyph glyph-name="cacute" unicode="&#x107;" horiz-adv-x="355" 
d="M221 604l54 92h97l-87 -92h-64zM227 568l153 -3l-11 -77h-153q-24 0 -37 -10t-17 -39l-44 -313q-4 -29 6 -39t34 -10h153l-11 -77q-86 -3 -153 -3q-84 0 -109 28.5t-15 99.5l44 315q10 72 43 100t117 28z" />
    <glyph glyph-name="Cdotaccent" unicode="&#x10a;" horiz-adv-x="388" 
d="M263 703l168 -3l-12 -84h-169q-31 0 -46.5 -10t-20.5 -46l-59 -420q-5 -36 8 -46t44 -10h169l-12 -84q-88 -3 -170 -3q-92 0 -121 29t-17 118l58 412q12 89 50 118t130 29zM255 753l11 79h62l-11 -79h-62z" />
    <glyph glyph-name="cdotaccent" unicode="&#x10b;" horiz-adv-x="355" 
d="M227 568l153 -3l-11 -77h-153q-24 0 -37 -10t-17 -39l-44 -313q-4 -29 6 -39t34 -10h153l-11 -77q-86 -3 -153 -3q-84 0 -109 28.5t-15 99.5l44 315q10 72 43 100t117 28zM219 618l11 79h62l-11 -79h-62z" />
    <glyph glyph-name="Ccaron" unicode="&#x10c;" horiz-adv-x="388" 
d="M238 739l-52 92h64l39 -52l55 52h64l-78 -92h-92zM263 703l168 -3l-12 -84h-169q-31 0 -46.5 -10t-20.5 -46l-59 -420q-5 -36 8 -46t44 -10h169l-12 -84q-88 -3 -170 -3q-92 0 -121 29t-17 118l58 412q12 89 50 118t130 29z" />
    <glyph glyph-name="ccaron" unicode="&#x10d;" horiz-adv-x="355" 
d="M202 604l-52 92h64l40 -52l54 52h64l-78 -92h-92zM227 568l153 -3l-11 -77h-153q-24 0 -37 -10t-17 -39l-44 -313q-4 -29 6 -39t34 -10h153l-11 -77q-86 -3 -153 -3q-84 0 -109 28.5t-15 99.5l44 315q10 72 43 100t117 28z" />
    <glyph glyph-name="Dcaron" unicode="&#x10e;" horiz-adv-x="410" 
d="M233 739l-52 92h64l39 -52l55 52h64l-78 -92h-92zM7 0l98 700h186q90 0 118.5 -28t16.5 -113l-59 -417q-12 -85 -48.5 -113.5t-125.5 -28.5h-186zM279 615h-85l-75 -530h86q28 0 42 10t19 42l61 430q3 22 -3.5 33t-16 13t-28.5 2z" />
    <glyph glyph-name="dcaron" unicode="&#x10f;" horiz-adv-x="392" 
d="M21 110l48 346q9 59 42.5 84t91.5 25h105l21 155h95l-101 -720q-103 -3 -168 -3h-32q-118 0 -102 113zM240 81l56 404h-88q-39 0 -46 -44l-44 -316q-6 -44 34 -44h88zM441 638l11 82h54l-10 -73q-3 -19 -11 -35.5t-15 -25t-25 -28.5l-22 11q6 9 14 19.5t11 15.5t6 13.5
t5 20.5h-18z" />
    <glyph glyph-name="Dcroat" unicode="&#x110;" horiz-adv-x="424" 
d="M17 322l10 70h49l43 308h186q89 0 117.5 -28t16.5 -113l-58 -417q-12 -85 -48.5 -113.5t-125.5 -28.5h-186l45 322h-49zM293 615h-85l-32 -223h59l-10 -70h-59l-33 -237h86q28 0 42 10t19 42l60 430v27t-9 14.5t-16.5 5.5t-21.5 1z" />
    <glyph glyph-name="dcroat" unicode="&#x111;" horiz-adv-x="395" 
d="M236 629l6 45h81l6 46h95l-6 -46h33l-6 -45h-33l-89 -629q-103 -3 -168 -3h-32q-118 0 -102 113l48 346q9 59 42.5 84t91.5 25h105l9 64h-81zM240 81l56 404h-88q-39 0 -46 -44l-44 -316q-6 -44 34 -44h88z" />
    <glyph glyph-name="Emacron" unicode="&#x112;" horiz-adv-x="352" 
d="M156 757l8 56h206l-8 -56h-206zM153 316l-32 -231h191l-12 -85h-291l98 700h291l-12 -85h-191l-30 -214h176l-12 -85h-176z" />
    <glyph glyph-name="emacron" unicode="&#x113;" horiz-adv-x="383" 
d="M227 568h30q83 0 108.5 -28t15.5 -100l-30 -216l-220 -2l-13 -96q-4 -29 6 -39t34 -10h152l-11 -77q-91 -3 -152 -3q-84 0 -109 28.5t-15 99.5l44 315q10 72 43 100t117 28zM216 488q-24 0 -37 -10t-17 -39l-19 -133h124l19 133q4 29 -6 39t-34 10h-30zM147 622l8 56h206
l-8 -56h-206z" />
    <glyph glyph-name="Ebreve" unicode="&#x114;" horiz-adv-x="352" 
d="M153 316l-32 -231h191l-12 -85h-291l98 700h291l-12 -85h-191l-30 -214h176l-12 -85h-176zM278 737h-38q-51 0 -67 18.5t-8 67.5l2 11h57l-2 -17q-4 -32 26 -32h34q32 0 36 32l2 17h58l-2 -11q-8 -50 -28 -68t-70 -18z" />
    <glyph glyph-name="ebreve" unicode="&#x115;" horiz-adv-x="383" 
d="M227 568h30q83 0 108.5 -28t15.5 -100l-30 -216l-220 -2l-13 -96q-4 -29 6 -39t34 -10h152l-11 -77q-91 -3 -152 -3q-84 0 -109 28.5t-15 99.5l44 315q10 72 43 100t117 28zM216 488q-24 0 -37 -10t-17 -39l-19 -133h124l19 133q4 29 -6 39t-34 10h-30zM266 602h-38
q-51 0 -67 18.5t-8 67.5l2 11h57l-2 -17q-4 -32 27 -32h34q31 0 35 32l2 17h58l-2 -11q-8 -50 -28 -68t-70 -18z" />
    <glyph glyph-name="Edotaccent" unicode="&#x116;" horiz-adv-x="352" 
d="M153 316l-32 -231h191l-12 -85h-291l98 700h291l-12 -85h-191l-30 -214h176l-12 -85h-176zM231 753l11 79h62l-11 -79h-62z" />
    <glyph glyph-name="edotaccent" unicode="&#x117;" horiz-adv-x="383" 
d="M227 568h30q83 0 108.5 -28t15.5 -100l-30 -216l-220 -2l-13 -96q-4 -29 6 -39t34 -10h152l-11 -77q-91 -3 -152 -3q-84 0 -109 28.5t-15 99.5l44 315q10 72 43 100t117 28zM216 488q-24 0 -37 -10t-17 -39l-19 -133h124l19 133q4 29 -6 39t-34 10h-30zM218 618l11 79h62
l-11 -79h-62z" />
    <glyph glyph-name="Eogonek" unicode="&#x118;" horiz-adv-x="352" 
d="M153 316l-32 -231h191l-13 -91l-54 -30q-4 -2 -9 -5.5t-7.5 -4.5t-5.5 -3.5t-4 -4t-2.5 -3.5t-2.5 -4.5t-1 -5.5l-1 -7q-1 -7 -1 -12t3 -7t10 -2h29q10 0 12.5 3t3.5 11v4l2 16h49l-2 -15q-4 -33 -15.5 -48t-44.5 -15h-50q-34 0 -44 11.5t-5 41.5l2 12q3 22 11.5 31
t32.5 22l44 21h-240l98 700h291l-12 -85h-191l-30 -214h176l-12 -85h-176z" />
    <glyph glyph-name="eogonek" unicode="&#x119;" horiz-adv-x="383" 
d="M227 568h30q83 0 108.5 -28t15.5 -100l-30 -216l-220 -2l-13 -96q-4 -29 6 -39t34 -10h152l-11 -78l-54 -30q-4 -2 -9 -5.5t-7.5 -4.5t-5.5 -3.5t-4 -4t-2.5 -3.5t-2.5 -4.5t-1 -5.5l-1 -7q-1 -7 -1 -12t3 -7t10 -2h29q10 0 12.5 3t3.5 11v4l2 16h49l-2 -15
q-4 -34 -15.5 -48.5t-43.5 -14.5h-50q-34 0 -44.5 11.5t-5.5 41.5l2 12q3 22 11.5 31t32.5 22l30 14q-15 0 -44.5 -0.5t-43.5 -0.5q-84 0 -109 28.5t-15 99.5l44 315q10 72 43 100t117 28zM216 488q-24 0 -37 -10t-17 -39l-19 -133h124l19 133q4 29 -6 39t-34 10h-30z" />
    <glyph glyph-name="Ecaron" unicode="&#x11a;" horiz-adv-x="352" 
d="M215 739l-52 92h64l39 -52l55 52h64l-78 -92h-92zM153 316l-32 -231h191l-12 -85h-291l98 700h291l-12 -85h-191l-30 -214h176l-12 -85h-176z" />
    <glyph glyph-name="ecaron" unicode="&#x11b;" horiz-adv-x="383" 
d="M201 604l-52 92h64l40 -52l54 52h64l-78 -92h-92zM227 568h30q83 0 108.5 -28t15.5 -100l-30 -216l-220 -2l-13 -96q-4 -29 6 -39t34 -10h152l-11 -77q-91 -3 -152 -3q-84 0 -109 28.5t-15 99.5l44 315q10 72 43 100t117 28zM216 488q-24 0 -37 -10t-17 -39l-19 -133h124
l19 133q4 29 -6 39t-34 10h-30z" />
    <glyph glyph-name="gcircumflex" unicode="&#x11d;" 
d="M68 446q8 60 47.5 91t97.5 31h23l166 -3l-76 -545q-11 -79 -42 -103.5t-118 -24.5l-134 5l10 75h139q24 0 35 8.5t15 38.5l2 14h-105q-119 0 -103 112zM244 116l52 369h-88q-39 0 -46 -44l-40 -281q-6 -44 34 -44h88zM144 604l78 92h92l52 -92h-64l-40 52l-54 -52h-64z
" />
    <glyph glyph-name="Gbreve" unicode="&#x11e;" horiz-adv-x="412" 
d="M263 703l146 -3l-11 -82h-147q-30 0 -46 -10t-21 -46l-61 -429q-3 -19 -0.5 -30t11.5 -15t16.5 -5t24.5 -1h28q23 0 32.5 1.5t20 13t13.5 36.5l21 151h-76l12 85h177l-32 -225q-12 -89 -50 -118t-130 -29h-28q-92 0 -121 29t-17 118l58 412q12 89 50 118t130 29zM299 737
h-38q-51 0 -67 18.5t-8 67.5l2 11h58l-2 -17q-4 -32 26 -32h34q32 0 36 32l2 17h57l-2 -11q-8 -50 -28 -68t-70 -18z" />
    <glyph glyph-name="gbreve" unicode="&#x11f;" 
d="M68 446q8 60 47.5 91t97.5 31h23l166 -3l-76 -545q-11 -79 -42 -103.5t-118 -24.5l-134 5l10 75h139q24 0 35 8.5t15 38.5l2 14h-105q-119 0 -103 112zM244 116l52 369h-88q-39 0 -46 -44l-40 -281q-6 -44 34 -44h88zM269 602h-38q-51 0 -67 18.5t-8 67.5l2 11h57l-2 -17
q-4 -32 26 -32h34q32 0 36 32l2 17h58l-2 -11q-8 -50 -28 -68t-70 -18z" />
    <glyph glyph-name="Gdotaccent" unicode="&#x120;" horiz-adv-x="412" 
d="M263 703l146 -3l-11 -82h-147q-30 0 -46 -10t-21 -46l-61 -429q-3 -19 -0.5 -30t11.5 -15t16.5 -5t24.5 -1h28q23 0 32.5 1.5t20 13t13.5 36.5l21 151h-76l12 85h177l-32 -225q-12 -89 -50 -118t-130 -29h-28q-92 0 -121 29t-17 118l58 412q12 89 50 118t130 29zM252 753
l11 79h62l-11 -79h-62z" />
    <glyph glyph-name="gdotaccent" unicode="&#x121;" 
d="M68 446q8 60 47.5 91t97.5 31h23l166 -3l-76 -545q-11 -79 -42 -103.5t-118 -24.5l-134 5l10 75h139q24 0 35 8.5t15 38.5l2 14h-105q-119 0 -103 112zM244 116l52 369h-88q-39 0 -46 -44l-40 -281q-6 -44 34 -44h88zM221 618l11 79h62l-11 -79h-62z" />
    <glyph glyph-name="Gcommaaccent" unicode="&#x122;" horiz-adv-x="412" 
d="M127 -125l13 88h64l-11 -78q-4 -30 -15.5 -50t-37.5 -50l-25 14q5 9 12 19.5t9 14t5 10.5t4 13.5t3 18.5h-21zM263 703l146 -3l-11 -82h-147q-30 0 -46 -10t-21 -46l-61 -429q-3 -19 -0.5 -30t11.5 -15t16.5 -5t24.5 -1h28q23 0 32.5 1.5t20 13t13.5 36.5l21 151h-76
l12 85h177l-32 -225q-12 -89 -50 -118t-130 -29h-28q-92 0 -121 29t-17 118l58 412q12 89 50 118t130 29z" />
    <glyph glyph-name="gcommaaccent" unicode="&#x123;" 
d="M68 446q8 60 47.5 91t97.5 31h23l166 -3l-76 -545q-11 -79 -42 -103.5t-118 -24.5l-134 5l10 75h139q24 0 35 8.5t15 38.5l2 14h-105q-119 0 -103 112zM244 116l52 369h-88q-39 0 -46 -44l-40 -281q-6 -44 34 -44h88zM297 696l-13 -88h-64l11 78q4 30 15.5 50t37.5 50
l25 -14q-5 -9 -12 -19.5t-9 -14t-5 -10.5t-4 -13.5t-3 -18.5h21z" />
    <glyph glyph-name="Hbar" unicode="&#x126;" horiz-adv-x="434" 
d="M46 537l10 65h43l13 98h100l-13 -98h146l13 98h100l-13 -98h43l-10 -65h-43l-75 -537h-100l43 306h-146l-43 -306h-100l75 537h-43zM170 401h146l19 136h-146z" />
    <glyph glyph-name="hbar" unicode="&#x127;" horiz-adv-x="394" 
d="M56 602l7 55h40l9 63h95l-9 -63h88l-7 -55h-88l-6 -37h104q58 0 85 -25t18 -84l-64 -456h-95l62 441q3 20 -6 32t-28 12h-87l-68 -485h-95l85 602h-40z" />
    <glyph glyph-name="Imacron" unicode="&#x12a;" horiz-adv-x="178" 
d="M9 0l98 700h100l-98 -700h-100zM62 757l8 56h206l-8 -56h-206z" />
    <glyph glyph-name="imacron" unicode="&#x12b;" horiz-adv-x="168" 
d="M7 0l79 565h95l-79 -565h-95zM39 622l8 56h206l-8 -56h-206z" />
    <glyph glyph-name="Ibreve" unicode="&#x12c;" horiz-adv-x="178" 
d="M9 0l98 700h100l-98 -700h-100zM183 737h-38q-51 0 -67 18.5t-8 67.5l2 11h57l-2 -17q-4 -32 26 -32h34q32 0 36 32l2 17h58l-2 -11q-8 -50 -28 -68t-70 -18z" />
    <glyph glyph-name="ibreve" unicode="&#x12d;" horiz-adv-x="168" 
d="M7 0l79 565h95l-79 -565h-95zM159 602h-38q-51 0 -67 18.5t-8 67.5l2 11h57l-2 -17q-4 -32 26 -32h34q32 0 36 32l2 17h58l-2 -11q-8 -50 -28 -68t-70 -18z" />
    <glyph glyph-name="Iogonek" unicode="&#x12e;" horiz-adv-x="178" 
d="M9 0l98 700h100l-98 -700h-18l-54 -30q-4 -2 -9.5 -5.5t-7.5 -4.5t-5.5 -3.5t-4.5 -4t-2.5 -3.5t-2.5 -4.5t-1 -5.5l-1 -7q-1 -7 -1 -12t3 -7t10 -2h29q11 0 13 3t4 15l2 16h49l-2 -15q-4 -33 -15.5 -48t-44.5 -15h-50q-34 0 -44.5 11.5t-5.5 41.5l2 12q3 22 12 31t33 22
l32 15h-20z" />
    <glyph glyph-name="iogonek" unicode="&#x12f;" horiz-adv-x="168" 
d="M7 0l79 565h95l-79 -565h-11l-54 -30q-4 -2 -9.5 -5.5t-7.5 -4.5t-5.5 -3.5t-4.5 -4t-2.5 -3.5t-2.5 -4.5t-1 -5.5l-1 -7q-1 -7 -1 -12t3 -7t10 -2h29q11 0 13 3t4 15l2 16h49l-2 -15q-4 -33 -15.5 -48t-44.5 -15h-50q-34 0 -44.5 11.5t-5.5 41.5l2 12q3 22 12 31t33 22
l32 15h-22zM91 615l13 90h98l-13 -90h-98z" />
    <glyph glyph-name="Idotaccent" unicode="&#x130;" horiz-adv-x="178" 
d="M9 0l98 700h100l-98 -700h-100zM134 753l11 79h62l-11 -79h-62z" />
    <glyph glyph-name="dotlessi" unicode="&#x131;" horiz-adv-x="168" 
d="M7 0l79 565h95l-79 -565h-95z" />
    <glyph glyph-name="Kcommaaccent" unicode="&#x136;" horiz-adv-x="416" 
d="M127 -125l13 88h64l-11 -78q-4 -30 -15.5 -50t-37.5 -50l-25 14q5 9 12 19.5t9 14t5 10.5t4 13.5t3 18.5h-21zM150 293l-41 -293h-100l98 700h100l-43 -312h63l136 312h105l-159 -352l71 -348h-110l-51 293h-69z" />
    <glyph glyph-name="kcommaaccent" unicode="&#x137;" horiz-adv-x="384" 
d="M109 -125l13 88h64l-11 -78q-4 -30 -15.5 -50t-37.5 -50l-25 14q5 9 12 19.5t9 14t5 10.5t4 13.5t3 18.5h-21zM253 0l-52 256h-64l-36 -256h-95l101 720h95l-52 -372h63l112 217h96l-135 -262l63 -303h-96z" />
    <glyph glyph-name="Lacute" unicode="&#x139;" horiz-adv-x="323" 
d="M126 739l54 92h97l-87 -92h-64zM9 0l98 700h100l-86 -615h176l-12 -85h-276z" />
    <glyph glyph-name="lacute" unicode="&#x13a;" horiz-adv-x="167" 
d="M125 744l53 92h97l-86 -92h-64zM6 0l101 720h95l-101 -720h-95z" />
    <glyph glyph-name="Lcommaaccent" unicode="&#x13b;" horiz-adv-x="323" 
d="M92 -125l13 88h64l-11 -78q-4 -30 -15.5 -50t-37.5 -50l-25 14q5 9 12 19.5t9 14t5 10.5t4 13.5t3 18.5h-21zM9 0l98 700h100l-86 -615h176l-12 -85h-276z" />
    <glyph glyph-name="lcommaaccent" unicode="&#x13c;" horiz-adv-x="167" 
d="M5 -125l12 88h64l-11 -78q-4 -30 -15.5 -50t-37.5 -50l-25 14q5 7 12.5 19t9 14.5t5 10t4.5 14t3 18.5h-21zM6 0l101 720h95l-101 -720h-95z" />
    <glyph glyph-name="Lcaron" unicode="&#x13d;" horiz-adv-x="323" 
d="M283 618l11 82h54l-10 -73q-3 -19 -11 -35.5t-15 -25t-25 -28.5l-22 11q6 9 14 19.5t11 15.5t6 13.5t5 20.5h-18zM9 0l98 700h100l-86 -615h176l-12 -85h-276z" />
    <glyph glyph-name="lcaron" unicode="&#x13e;" horiz-adv-x="167" 
d="M238 638l11 82h54l-10 -73q-3 -19 -11 -35t-15.5 -25.5t-25.5 -28.5l-21 11q6 9 14 19.5t11 15.5t6 13.5t5 20.5h-18zM6 0l101 720h95l-101 -720h-95z" />
    <glyph glyph-name="Ldot" unicode="&#x13f;" horiz-adv-x="323" 
d="M9 0l98 700h100l-86 -615h176l-12 -85h-276zM215 321l11 79h62l-11 -79h-62z" />
    <glyph glyph-name="ldot" unicode="&#x140;" horiz-adv-x="231" 
d="M6 0l101 720h95l-101 -720h-95zM176 320l11 79h62l-11 -79h-62z" />
    <glyph glyph-name="Lslash" unicode="&#x141;" horiz-adv-x="335" 
d="M10 260l12 84l52 25l47 331h100l-40 -280l81 39l-12 -84l-80 -39l-36 -251h176l-12 -85h-276l41 285z" />
    <glyph glyph-name="lslash" unicode="&#x142;" horiz-adv-x="179" 
d="M9 280l12 84l44 22l47 334h95l-40 -284l46 23l-13 -94l-46 -21l-48 -344h-95l42 299z" />
    <glyph glyph-name="Nacute" unicode="&#x143;" horiz-adv-x="431" 
d="M261 739l54 92h97l-87 -92h-64zM107 700h106l86 -449h1l63 449h98l-98 -700h-109l-79 435h-5l-61 -435h-100z" />
    <glyph glyph-name="nacute" unicode="&#x144;" 
d="M228 0l62 441q3 20 -6 32t-28 12h-87l-68 -485h-95l79 565q96 3 169 3h31q58 0 84.5 -26t17.5 -86l-64 -456h-95zM201 604l54 92h97l-87 -92h-64z" />
    <glyph glyph-name="Ncommaaccent" unicode="&#x145;" horiz-adv-x="431" 
d="M129 -125l13 88h64l-11 -78q-4 -30 -15.5 -50t-37.5 -50l-25 14q5 9 12 19.5t9 14t5 10.5t4 13.5t3 18.5h-21zM107 700h106l86 -449h1l63 449h98l-98 -700h-109l-79 435h-5l-61 -435h-100z" />
    <glyph glyph-name="ncommaaccent" unicode="&#x146;" 
d="M228 0l62 441q3 20 -6 32t-28 12h-87l-68 -485h-95l79 565q96 3 169 3h31q58 0 84.5 -26t17.5 -86l-64 -456h-95zM115 -125l13 88h64l-11 -78q-4 -30 -15.5 -50t-37.5 -50l-25 14q5 9 12 19.5t9 14t5 10.5t4 13.5t3 18.5h-21z" />
    <glyph glyph-name="Ncaron" unicode="&#x147;" horiz-adv-x="431" 
d="M244 739l-52 92h64l39 -52l55 52h64l-78 -92h-92zM107 700h106l86 -449h1l63 449h98l-98 -700h-109l-79 435h-5l-61 -435h-100z" />
    <glyph glyph-name="ncaron" unicode="&#x148;" 
d="M228 0l62 441q3 20 -6 32t-28 12h-87l-68 -485h-95l79 565q96 3 169 3h31q58 0 84.5 -26t17.5 -86l-64 -456h-95zM204 604l-52 92h64l40 -52l54 52h64l-78 -92h-92z" />
    <glyph glyph-name="Omacron" unicode="&#x14c;" horiz-adv-x="421" 
d="M184 757l8 56h206l-8 -56h-206zM262 703h33q92 0 121.5 -29t17.5 -118l-58 -412q-12 -89 -50 -118t-130 -29h-33q-91 0 -120.5 29.5t-17.5 117.5l58 412q12 89 49.5 118t129.5 29zM177 82h29q21 0 32.5 3t22.5 15.5t14 37.5l60 424q5 35 -9 45.5t-45 10.5h-29
q-31 0 -47 -10t-21 -46l-60 -424q-5 -36 8.5 -46t44.5 -10z" />
    <glyph glyph-name="omacron" unicode="&#x14d;" horiz-adv-x="387" 
d="M149 622l8 56h206l-8 -56h-206zM227 568h34q83 0 108.5 -28t15.5 -100l-44 -315q-10 -71 -43.5 -99.5t-116.5 -28.5h-34q-84 0 -109 28.5t-15 99.5l44 315q10 72 43 100t117 28zM158 77h34q24 0 37 10t17 39l45 314q4 29 -6 39t-34 10h-34q-24 0 -37 -10t-17 -39
l-45 -314q-4 -29 6 -39t34 -10z" />
    <glyph glyph-name="Obreve" unicode="&#x14e;" horiz-adv-x="421" 
d="M262 703h33q92 0 121.5 -29t17.5 -118l-58 -412q-12 -89 -50 -118t-130 -29h-33q-91 0 -120.5 29.5t-17.5 117.5l58 412q12 89 49.5 118t129.5 29zM177 82h29q21 0 32.5 3t22.5 15.5t14 37.5l60 424q5 35 -9 45.5t-45 10.5h-29q-31 0 -47 -10t-21 -46l-60 -424
q-5 -36 8.5 -46t44.5 -10zM303 737h-38q-51 0 -67 18.5t-8 67.5l2 11h57l-2 -17q-4 -32 27 -32h34q31 0 35 32l2 17h58l-2 -11q-8 -50 -28 -68t-70 -18z" />
    <glyph glyph-name="obreve" unicode="&#x14f;" horiz-adv-x="387" 
d="M227 568h34q83 0 108.5 -28t15.5 -100l-44 -315q-10 -71 -43.5 -99.5t-116.5 -28.5h-34q-84 0 -109 28.5t-15 99.5l44 315q10 72 43 100t117 28zM158 77h34q24 0 37 10t17 39l45 314q4 29 -6 39t-34 10h-34q-24 0 -37 -10t-17 -39l-45 -314q-4 -29 6 -39t34 -10zM269 602
h-38q-51 0 -67 18.5t-8 67.5l2 11h57l-2 -17q-4 -32 27 -32h34q31 0 35 32l2 17h58l-2 -11q-8 -50 -28 -68t-70 -18z" />
    <glyph glyph-name="Ohungarumlaut" unicode="&#x150;" horiz-adv-x="421" 
d="M201 739l74 92h82l-92 -92h-64zM301 739l74 92h97l-107 -92h-64zM262 703h33q92 0 121.5 -29t17.5 -118l-58 -412q-12 -89 -50 -118t-130 -29h-33q-91 0 -120.5 29.5t-17.5 117.5l58 412q12 89 49.5 118t129.5 29zM177 82h29q21 0 32.5 3t22.5 15.5t14 37.5l60 424
q5 35 -9 45.5t-45 10.5h-29q-31 0 -47 -10t-21 -46l-60 -424q-5 -36 8.5 -46t44.5 -10z" />
    <glyph glyph-name="ohungarumlaut" unicode="&#x151;" horiz-adv-x="387" 
d="M168 604l74 92h82l-92 -92h-64zM268 604l74 92h97l-107 -92h-64zM227 568h34q83 0 108.5 -28t15.5 -100l-44 -315q-10 -71 -43.5 -99.5t-116.5 -28.5h-34q-84 0 -109 28.5t-15 99.5l44 315q10 72 43 100t117 28zM158 77h34q24 0 37 10t17 39l45 314q4 29 -6 39t-34 10
h-34q-24 0 -37 -10t-17 -39l-45 -314q-4 -29 6 -39t34 -10z" />
    <glyph glyph-name="OE" unicode="&#x152;" horiz-adv-x="584" 
d="M536 0h-372q-90 0 -120 34t-17 123l54 387q13 90 52 123t129 33h372l-12 -85h-191l-30 -214h176l-12 -85h-176l-32 -231h191zM251 620q-29 0 -45 -12t-21 -48l-59 -419q-6 -36 7 -48.5t42 -12.5h81l76 540h-81z" />
    <glyph glyph-name="oe" unicode="&#x153;" horiz-adv-x="606" 
d="M227 568h34q61 0 92 -16q32 16 97 16h30q83 0 108.5 -28t15.5 -100l-30 -216l-219 -2l-14 -96v-1l-1 -5q-4 -26 6.5 -34.5t34.5 -8.5h152l-11 -77q-91 -3 -152 -3q-66 0 -93 15q-31 -15 -96 -15h-34q-84 0 -109 28.5t-15 99.5l44 315q10 72 43 100t117 28zM158 77h34
q45 0 53 43l1 5v1l44 314l2 15q0 20 -10 27t-31 7h-34q-24 0 -37 -10t-17 -39l-45 -314q-4 -29 6 -39t34 -10zM439 488q-23 0 -35.5 -9t-17.5 -34l-1 -5l-19 -134h124l19 133q4 29 -6 39t-34 10h-30z" />
    <glyph glyph-name="Racute" unicode="&#x154;" horiz-adv-x="396" 
d="M229 739l54 92h97l-87 -92h-64zM7 0l98 700h189q87 0 114 -27t16 -109l-16 -118q-13 -99 -79 -109q32 -7 44 -33t3 -85l-31 -219h-100l33 234q8 56 -43 56h-87l-41 -290h-100zM193 615l-33 -240h89q17 0 26.5 2.5t17.5 13t11 30.5l21 150q3 20 -3.5 30.5t-15.5 12
t-27 1.5h-86z" />
    <glyph glyph-name="racute" unicode="&#x155;" horiz-adv-x="273" 
d="M158 604l54 92h97l-87 -92h-64zM6 0l66 467q6 44 36 72.5t83 28.5h10l118 -6l-10 -70q-71 -4 -100 -6q-26 -1 -34 -10t-12 -34l-62 -442h-95z" />
    <glyph glyph-name="Rcommaaccent" unicode="&#x156;" horiz-adv-x="396" 
d="M129 -125l13 88h64l-11 -78q-4 -30 -15.5 -50t-37.5 -50l-25 14q5 9 12 19.5t9 14t5 10.5t4 13.5t3 18.5h-21zM7 0l98 700h189q87 0 114 -27t16 -109l-16 -118q-13 -99 -79 -109q32 -7 44 -33t3 -85l-31 -219h-100l33 234q8 56 -43 56h-87l-41 -290h-100zM193 615
l-33 -240h89q17 0 26.5 2.5t17.5 13t11 30.5l21 150q3 20 -3.5 30.5t-15.5 12t-27 1.5h-86z" />
    <glyph glyph-name="rcommaaccent" unicode="&#x157;" horiz-adv-x="273" 
d="M5 -125l12 88h64l-11 -78q-4 -30 -15.5 -50t-37.5 -50l-25 14q5 7 12.5 19t9 14.5t5 10t4.5 14t3 18.5h-21zM6 0l66 467q6 44 36 72.5t83 28.5h10l118 -6l-10 -70q-70 -4 -99 -6q-26 -1 -34 -10t-13 -34l-62 -442h-95z" />
    <glyph glyph-name="Rcaron" unicode="&#x158;" horiz-adv-x="396" 
d="M227 739l-52 92h64l39 -52l55 52h64l-78 -92h-92zM7 0l98 700h189q87 0 114 -27t16 -109l-16 -118q-13 -99 -79 -109q32 -7 44 -33t3 -85l-31 -219h-100l33 234q8 56 -43 56h-87l-41 -290h-100zM193 615l-33 -240h89q17 0 26.5 2.5t17.5 13t11 30.5l21 150
q3 20 -3.5 30.5t-15.5 12t-27 1.5h-86z" />
    <glyph glyph-name="rcaron" unicode="&#x159;" horiz-adv-x="273" 
d="M146 604l-52 92h64l40 -52l54 52h64l-78 -92h-92zM6 0l66 467q6 44 36 72.5t83 28.5h10l118 -6l-10 -70q-71 -4 -100 -6q-26 -1 -34 -10t-12 -34l-62 -442h-95z" />
    <glyph glyph-name="Sacute" unicode="&#x15a;" horiz-adv-x="402" 
d="M242 739l54 92h97l-87 -92h-64zM258 703l159 -3l-11 -82h-160q-21 0 -32 -2.5t-21.5 -14.5t-13.5 -37l-9 -68q-5 -38 7.5 -51.5t54.5 -28.5l66 -24q33 -12 49.5 -23t27 -38.5t4.5 -71.5l-16 -115q-12 -89 -49.5 -118t-129.5 -29l-181 3l12 82h181q31 0 46 9.5t20 45.5
l15 103q3 8 1 16.5t-1.5 13t-4 10t-6.5 8t-9 6.5t-10.5 5.5t-12 5.5t-13.5 6l-70 25q-26 11 -39 18.5t-28 22.5t-19 38t1 56l12 85q12 89 50 118t130 29z" />
    <glyph glyph-name="sacute" unicode="&#x15b;" horiz-adv-x="345" 
d="M186 604l54 92h97l-87 -92h-64zM215 568l136 -3l-10 -77h-137q-17 0 -26 -2t-16.5 -11.5t-10.5 -29.5l-7 -45q-1 -5 -1 -9.5t1 -8t2 -6.5t4 -6t5 -4.5t7 -4t7.5 -4t9.5 -4.5t10 -5l63 -26q41 -17 59 -39.5t11 -71.5l-12 -81q-11 -73 -44 -102.5t-116 -29.5l-154 2l11 78
h154q24 0 37 9.5t17 38.5l9 69q-1 8 1 12.5t-1 10t-3 8.5t-4.5 6.5t-5.5 5t-6.5 4.5t-7.5 4t-8.5 4t-8.5 4l-62 27q-22 9 -31.5 14.5t-23 17.5t-16.5 31t1 47l7 49q10 72 43 100t117 28z" />
    <glyph glyph-name="Scedilla" unicode="&#x15e;" horiz-adv-x="402" 
d="M258 703l159 -3l-11 -82h-160q-21 0 -32 -2.5t-21.5 -14.5t-13.5 -37l-9 -68q-5 -37 7 -50t55 -30l66 -24q33 -12 49.5 -23t27 -38.5t4.5 -71.5l-16 -115q-12 -88 -49 -117t-127 -30l-41 -115h-72l59 115l-130 3l12 82h181q31 0 46 9.5t20 45.5l15 103q3 8 1 16.5
t-1.5 13t-4 10t-6.5 8t-9 6.5t-10.5 5.5t-12 5.5t-13.5 6l-70 25q-26 11 -39 18.5t-28 22.5t-19 38t1 56l12 85q12 89 50 118t130 29z" />
    <glyph glyph-name="scedilla" unicode="&#x15f;" horiz-adv-x="345" 
d="M215 568l136 -3l-10 -77h-137q-17 0 -26 -2t-16.5 -11.5t-10.5 -29.5l-7 -45q-1 -5 -1 -9.5t1 -8t2 -6.5t4 -6t5 -4.5t7 -4t7.5 -4t9.5 -4.5t10 -5l63 -26q41 -17 59 -39.5t11 -71.5l-12 -81q-10 -69 -38.5 -98t-98.5 -33l-41 -117h-72l59 116l-123 2l11 78h154
q24 0 37 9.5t17 38.5l9 69q-1 8 1 12.5t-1.5 10t-2.5 8t-4 7t-6 5.5t-7 4.5t-7.5 4t-8.5 3.5t-9 4l-62 27q-22 9 -31 14.5t-22.5 17.5t-16.5 31t1 47l7 49q10 72 43 100t117 28z" />
    <glyph glyph-name="Scaron" unicode="&#x160;" horiz-adv-x="402" 
d="M230 739l-52 92h64l39 -52l55 52h64l-78 -92h-92zM258 703l159 -3l-11 -82h-160q-21 0 -32 -2.5t-21.5 -14.5t-13.5 -37l-9 -68q-5 -38 7.5 -51.5t54.5 -28.5l66 -24q33 -12 49.5 -23t27 -38.5t4.5 -71.5l-16 -115q-12 -89 -49.5 -118t-129.5 -29l-181 3l12 82h181
q31 0 46 9.5t20 45.5l15 103q3 8 1 16.5t-1.5 13t-4 10t-6.5 8t-9 6.5t-10.5 5.5t-12 5.5t-13.5 6l-70 25q-26 11 -39 18.5t-28 22.5t-19 38t1 56l12 85q12 89 50 118t130 29z" />
    <glyph glyph-name="scaron" unicode="&#x161;" horiz-adv-x="345" 
d="M187 604l-52 92h64l40 -52l54 52h64l-78 -92h-92zM215 568l136 -3l-10 -77h-137q-17 0 -26 -2t-16.5 -11.5t-10.5 -29.5l-7 -45q-1 -5 -1 -9.5t1 -8t2 -6.5t4 -6t5 -4.5t7 -4t7.5 -4t9.5 -4.5t10 -5l63 -26q41 -17 59 -39.5t11 -71.5l-12 -81q-11 -73 -44 -102.5
t-116 -29.5l-154 2l11 78h154q24 0 37 9.5t17 38.5l9 69q-1 8 1 12.5t-1 10t-3 8.5t-4.5 6.5t-5.5 5t-6.5 4.5t-7.5 4t-8.5 4t-8.5 4l-62 27q-22 9 -31.5 14.5t-23 17.5t-16.5 31t1 47l7 49q10 72 43 100t117 28z" />
    <glyph glyph-name="Tcommaaccent" unicode="&#x162;" horiz-adv-x="376" 
d="M107 -125l12 88h64l-11 -78q-4 -30 -15.5 -50t-37.5 -50l-25 14q5 8 12.5 19t9.5 14.5t5 10.5t4 13.5t3 18.5h-21zM294 615l-86 -615h-100l86 615h-132l12 85h364l-12 -85h-132z" />
    <glyph glyph-name="tcommaaccent" unicode="&#x163;" horiz-adv-x="238" 
d="M56 -125l13 88h64l-11 -78q-4 -30 -15.5 -50t-37.5 -50l-25 14q5 9 12 19.5t9 14t5 10.5t4 13.5t3 18.5h-21zM275 565l-11 -80h-79l-52 -372q-5 -32 22 -32h60l-11 -81l-61 -3q-72 -2 -94 20.5t-12 90.5l53 377h-41l11 80h41l18 125h95l-18 -125h79z" />
    <glyph glyph-name="Tcaron" unicode="&#x164;" horiz-adv-x="376" 
d="M215 739l-52 92h64l40 -52l54 52h64l-78 -92h-92zM294 615l-86 -615h-100l86 615h-132l12 85h364l-12 -85h-132z" />
    <glyph glyph-name="tcaron" unicode="&#x165;" horiz-adv-x="243" 
d="M247 683l11 82h54l-10 -73q-3 -19 -11 -35t-15.5 -25.5t-25.5 -28.5l-21 11q6 9 14 19.5t11 15.5t6 13.5t5 20.5h-18zM275 565l-11 -80h-79l-52 -372q-5 -32 22 -32h60l-11 -81l-61 -3q-72 -2 -94 20.5t-12 90.5l53 377h-41l11 80h41l18 125h95l-18 -125h79z" />
    <glyph glyph-name="Umacron" unicode="&#x16a;" horiz-adv-x="421" 
d="M103 700h101l-79 -559q-5 -37 3.5 -48t36.5 -11h53q28 0 40.5 11t17.5 48l79 559h99l-78 -556q-12 -89 -50 -118t-130 -29h-33q-92 0 -121 29t-17 118zM184 757l8 56h206l-8 -56h-206z" />
    <glyph glyph-name="umacron" unicode="&#x16b;" horiz-adv-x="387" 
d="M179 565l-62 -440q-6 -44 34 -44h87l68 484h95l-80 -565q-130 -3 -167 -3h-32q-118 0 -102 113l64 455h95zM149 622l7 56h206l-7 -56h-206z" />
    <glyph glyph-name="Ubreve" unicode="&#x16c;" horiz-adv-x="421" 
d="M103 700h101l-79 -559q-5 -37 3.5 -48t36.5 -11h53q28 0 40.5 11t17.5 48l79 559h99l-78 -556q-12 -89 -50 -118t-130 -29h-33q-92 0 -121 29t-17 118zM303 737h-38q-51 0 -67 18.5t-8 67.5l2 11h58l-2 -17q-4 -32 26 -32h34q32 0 36 32l2 17h57l-2 -11q-8 -50 -28 -68
t-70 -18z" />
    <glyph glyph-name="ubreve" unicode="&#x16d;" horiz-adv-x="387" 
d="M179 565l-62 -440q-6 -44 34 -44h87l68 484h95l-80 -565q-130 -3 -167 -3h-32q-118 0 -102 113l64 455h95zM268 602h-38q-51 0 -67 18.5t-8 67.5l2 11h57l-2 -17q-4 -32 27 -32h34q31 0 35 32l2 17h58l-2 -11q-8 -50 -28 -68t-70 -18z" />
    <glyph glyph-name="Uring" unicode="&#x16e;" horiz-adv-x="421" 
d="M293 868h19q39 0 49 -13t5 -48l-2 -14q-5 -35 -19 -48t-52 -13h-19q-38 0 -49 13t-6 48l2 14q5 35 19.5 48t52.5 13zM305 837h-15q-21 0 -26.5 -4.5t-7.5 -22.5l-3 -19q-3 -19 2 -23.5t25 -4.5h15q21 0 27 4.5t9 23.5l3 19q2 18 -2.5 22.5t-26.5 4.5zM103 700h101
l-79 -559q-5 -37 3.5 -48t36.5 -11h53q28 0 40.5 11t17.5 48l79 559h99l-78 -556q-12 -89 -50 -118t-130 -29h-33q-92 0 -121 29t-17 118z" />
    <glyph glyph-name="uring" unicode="&#x16f;" horiz-adv-x="387" 
d="M179 565l-62 -440q-6 -44 34 -44h87l68 484h95l-80 -565q-130 -3 -167 -3h-32q-118 0 -102 113l64 455h95zM257 733h19q38 0 49 -13t6 -48l-2 -14q-5 -35 -19 -48t-53 -13h-19q-38 0 -48.5 13t-5.5 48l2 14q5 35 19 48t52 13zM270 702h-15q-21 0 -26.5 -4.5t-8.5 -22.5
l-3 -19q-3 -19 2 -23.5t25 -4.5h15q21 0 27 4.5t9 23.5l3 19q3 18 -1.5 22.5t-26.5 4.5z" />
    <glyph glyph-name="Uhungarumlaut" unicode="&#x170;" horiz-adv-x="421" 
d="M103 700h101l-79 -559q-5 -37 3.5 -48t36.5 -11h53q28 0 40.5 11t17.5 48l79 559h99l-78 -556q-12 -89 -50 -118t-130 -29h-33q-92 0 -121 29t-17 118zM200 739l74 92h82l-92 -92h-64zM300 739l74 92h97l-107 -92h-64z" />
    <glyph glyph-name="uhungarumlaut" unicode="&#x171;" horiz-adv-x="387" 
d="M179 565l-62 -440q-6 -44 34 -44h87l68 484h95l-80 -565q-130 -3 -167 -3h-32q-118 0 -102 113l64 455h95zM265 604l74 92h97l-107 -92h-64zM165 604l74 92h82l-92 -92h-64z" />
    <glyph glyph-name="Uogonek" unicode="&#x172;" horiz-adv-x="421" 
d="M103 700h101l-79 -559q-5 -37 3.5 -48t36.5 -11h53q28 0 40.5 11t17.5 48l79 559h99l-78 -556q-12 -83 -45 -113.5t-108 -32.5v-2l-54 -30q-4 -2 -9 -5.5t-7.5 -4.5t-5.5 -3.5t-4 -4t-2.5 -3.5t-2.5 -4.5t-1 -5.5l-1 -7q-1 -7 -1 -12t3 -7t10 -2h29q10 0 12.5 3t3.5 11v4
l2 16h49l-2 -15q-4 -34 -15.5 -48.5t-43.5 -14.5h-50q-34 0 -44.5 11.5t-5.5 41.5l2 12q3 22 11.5 31t32.5 22l34 16q-92 0 -121 29t-17 118z" />
    <glyph glyph-name="uogonek" unicode="&#x173;" horiz-adv-x="387" 
d="M179 565l-62 -440q-6 -44 34 -44h87l68 484h95l-80 -565l-54 -30q-4 -2 -9 -5.5t-7.5 -4.5t-5.5 -3.5t-4 -4t-2.5 -3.5t-2.5 -4.5t-1 -5.5l-1 -7q-1 -7 -1 -12t3 -7t10 -2h29q10 0 12.5 3t3.5 11v4l2 16h49l-2 -15q-4 -34 -15.5 -48.5t-43.5 -14.5h-50q-34 0 -44.5 11.5
t-5.5 41.5l2 12q3 22 11.5 31t32.5 22q3 1 29 14q-78 -2 -102 -2h-32q-118 0 -102 113l64 455h95z" />
    <glyph glyph-name="Wcircumflex" unicode="&#x174;" horiz-adv-x="606" 
d="M266 739l78 92h92l52 -92h-64l-40 52l-54 -52h-64zM77 700h103l-18 -574h4l141 574h129l-20 -574h4l143 574h103l-178 -700h-175l29 469h-6l-102 -469h-175z" />
    <glyph glyph-name="wcircumflex" unicode="&#x175;" horiz-adv-x="544" 
d="M215 604l78 92h92l52 -92h-64l-39 52l-55 -52h-64zM279 0l10 332h-3l-81 -332h-150l-2 565h100l-7 -440h5l115 440h110l-9 -440h4l118 440h100l-160 -565h-150z" />
    <glyph glyph-name="Ycircumflex" unicode="&#x176;" horiz-adv-x="412" 
d="M126 0l38 274l-89 426h100l55 -309l142 309h101l-209 -426l-38 -274h-100zM168 739l78 92h92l52 -92h-64l-39 52l-55 -52h-64z" />
    <glyph glyph-name="ycircumflex" unicode="&#x177;" horiz-adv-x="373" 
d="M74 5l-28 560h103l13 -471h8l150 471h95l-223 -691h-91l42 131h-69zM130 604l78 92h92l52 -92h-64l-39 52l-55 -52h-64z" />
    <glyph glyph-name="Ydieresis" unicode="&#x178;" horiz-adv-x="412" 
d="M126 0l38 274l-89 426h100l55 -309l142 309h101l-209 -426l-38 -274h-100zM189 747l11 84h64l-11 -84h-64zM309 747l11 84h64l-11 -84h-64z" />
    <glyph glyph-name="Zacute" unicode="&#x179;" horiz-adv-x="352" 
d="M204 739l54 92h97l-87 -92h-64zM83 614l12 86h305l-12 -85l-282 -530h208l-12 -85h-312l12 86l292 528h-211z" />
    <glyph glyph-name="zacute" unicode="&#x17a;" horiz-adv-x="334" 
d="M174 604l54 92h97l-87 -92h-64zM302 84l-12 -84h-306l11 81l255 400h-193l11 84h299l-11 -84l-252 -397h198z" />
    <glyph glyph-name="Zdotaccent" unicode="&#x17b;" horiz-adv-x="352" 
d="M83 614l12 86h305l-12 -85l-282 -530h208l-12 -85h-312l12 86l292 528h-211zM232 753l11 79h62l-11 -79h-62z" />
    <glyph glyph-name="zdotaccent" unicode="&#x17c;" horiz-adv-x="334" 
d="M302 84l-12 -84h-306l11 81l255 400h-193l11 84h299l-11 -84l-252 -397h198zM204 618l11 79h62l-11 -79h-62z" />
    <glyph glyph-name="Zcaron" unicode="&#x17d;" horiz-adv-x="352" 
d="M205 739l-52 92h64l39 -52l55 52h64l-78 -92h-92zM83 614l12 86h305l-12 -85l-282 -530h208l-12 -85h-312l12 86l292 528h-211z" />
    <glyph glyph-name="zcaron" unicode="&#x17e;" horiz-adv-x="334" 
d="M177 604l-52 92h64l40 -52l54 52h64l-78 -92h-92zM302 84l-12 -84h-306l11 81l255 400h-193l11 84h299l-11 -84l-252 -397h198z" />
    <glyph glyph-name="Aringacute" unicode="&#x1fa;" horiz-adv-x="407" 
d="M278 810h19q38 0 48.5 -13t5.5 -48l-2 -14q-3 -25 -10 -35h13l37 -700h-100l-10 141h-171l-49 -141h-100l233 700h11q-2 15 1 35l2 14q5 35 19.5 48t52.5 13zM255 621l-120 -385h143l-12 385h-11zM257 831l54 92h97l-87 -92h-64zM290 779h-15q-21 0 -26 -4.5t-8 -22.5
l-3 -19q-3 -19 1.5 -23.5t25.5 -4.5h15q21 0 27 4.5t9 23.5l3 19q3 18 -2 22.5t-27 4.5z" />
    <glyph glyph-name="aringacute" unicode="&#x1fb;" horiz-adv-x="378" 
d="M103 488l11 77q72 3 139 3q83 0 107 -28t14 -100l-62 -440q-107 -3 -164 -3h-30q-118 0 -102 113l23 166q16 112 134 112h99l7 53q3 22 -2 32.5t-12.5 12.5t-24.5 2h-137zM134 275l-21 -150q-6 -44 30 -44h86l33 235h-86q-36 0 -42 -41zM260 731h19q38 0 48.5 -13
t5.5 -48l-2 -14q-5 -35 -19 -48t-52 -13h-19q-38 0 -49 13t-6 48l2 14q5 35 19.5 48t52.5 13zM240 757l54 92h97l-87 -92h-64zM273 700h-15q-21 0 -26.5 -4.5t-8.5 -22.5l-3 -19q-3 -19 1.5 -23.5t25.5 -4.5h15q21 0 27 4.5t9 23.5l3 19q3 18 -1.5 22.5t-26.5 4.5z" />
    <glyph glyph-name="AEacute" unicode="&#x1fc;" horiz-adv-x="629" 
d="M425 739l54 92h97l-87 -92h-64zM286 0l21 151h-158l-69 -151h-99l329 700h365l-12 -85h-191l-30 -214h176l-12 -86h-176l-32 -229h191l-12 -86h-291zM357 615l-170 -379h132l53 379h-15z" />
    <glyph glyph-name="aeacute" unicode="&#x1fd;" horiz-adv-x="600" 
d="M444 568h30q83 0 108.5 -28t15.5 -100l-29 -206l-220 -2l-15 -109q-4 -29 6.5 -39t34.5 -10h142l-11 -74q-61 -3 -142 -3q-58 0 -85 7.5t-35 34.5q-3 -2 -13.5 -9.5t-17 -11.5t-17.5 -10t-23 -8.5t-25 -2.5h-30q-118 0 -102 113l20 146q16 112 134 112h104l10 75
q3 28 -6.5 37t-30.5 9h-139l11 76q71 3 139 3q70 0 87 -33q28 33 99 33zM238 111l25 182h-87q-19 0 -31.5 -14.5t-15.5 -35.5l-16 -118q-6 -44 34 -44h24q22 0 67 30zM433 492q-47 0 -53 -44l-20 -139h124l19 134q4 29 -6 39t-34 10h-30zM331 604l54 92h97l-87 -92h-64z" />
    <glyph glyph-name="Oslashacute" unicode="&#x1fe;" horiz-adv-x="421" 
d="M263 703h33q56 0 84 -8l23 45h54l-37 -70q26 -32 14 -114l-58 -412q-12 -89 -49.5 -118t-129.5 -29h-33q-54 0 -87 9l-22 -42h-53l36 67q-25 33 -13 113l58 412q12 89 50 118t130 29zM184 562l-53 -378l200 418q-10 16 -49 16h-29q-21 0 -32.5 -3t-22.5 -15.5t-14 -37.5z
M178 82h29q31 0 47 10t21 46l52 366l-196 -410q11 -12 47 -12zM244 739l54 92h97l-87 -92h-64z" />
    <glyph glyph-name="oslashacute" unicode="&#x1ff;" horiz-adv-x="387" 
d="M227 568h34q33 0 61 -5l24 45h50l-35 -60q36 -27 24 -108l-44 -315q-10 -71 -43.5 -99.5t-116.5 -28.5h-34q-45 0 -74 8l-23 -37h-49l35 59q-22 26 -13 98l44 315q10 72 43 100t117 28zM158 77h34q24 0 37 10t17 39l44 308l-168 -344q8 -13 36 -13zM163 440l-37 -259
l152 304q-11 4 -27 4h-34q-24 0 -37 -10t-17 -39zM215 604l54 92h97l-87 -92h-64z" />
    <glyph glyph-name="Scommaaccent" unicode="&#x218;" horiz-adv-x="402" 
d="M119 -125l13 88h64l-11 -78q-4 -30 -15.5 -50t-37.5 -50l-25 14q5 9 12 19.5t9 14t5 10.5t4 13.5t3 18.5h-21zM258 703l159 -3l-11 -82h-160q-21 0 -32 -2.5t-21.5 -14.5t-13.5 -37l-9 -68q-5 -38 7.5 -51.5t54.5 -28.5l66 -24q33 -12 49.5 -23t27 -38.5t4.5 -71.5
l-16 -115q-12 -89 -49.5 -118t-129.5 -29l-181 3l12 82h181q31 0 46 9.5t20 45.5l15 103q3 8 1 16.5t-1.5 13t-4 10t-6.5 8t-9 6.5t-10.5 5.5t-12 5.5t-13.5 6l-70 25q-26 11 -39 18.5t-28 22.5t-19 38t1 56l12 85q12 89 50 118t130 29z" />
    <glyph glyph-name="scommaaccent" unicode="&#x219;" horiz-adv-x="345" 
d="M89 -125l13 88h64l-11 -78q-4 -30 -15.5 -50t-37.5 -50l-25 14q5 9 12 19.5t9 14t5 10.5t4 13.5t3 18.5h-21zM215 568l136 -3l-10 -77h-137q-17 0 -26 -2t-16.5 -11.5t-10.5 -29.5l-7 -45q-1 -5 -1 -9.5t1 -8t2 -6.5t4 -6t5 -4.5t7 -4t7.5 -4t9.5 -4.5t10 -5l63 -26
q41 -17 59 -39.5t11 -71.5l-12 -81q-11 -73 -44 -102.5t-116 -29.5l-154 2l11 78h154q24 0 37 9.5t17 38.5l9 69q-1 8 1 12.5t-1 10t-3 8.5t-4.5 6.5t-5.5 5t-6.5 4.5t-7.5 4t-8.5 4t-8.5 4l-62 27q-22 9 -31.5 14.5t-23 17.5t-16.5 31t1 47l7 49q10 72 43 100t117 28z" />
    <glyph glyph-name="circumflex" unicode="&#x2c6;" horiz-adv-x="500" 
d="M194 604l78 92h92l52 -92h-64l-40 52l-54 -52h-64z" />
    <glyph glyph-name="caron" unicode="&#x2c7;" horiz-adv-x="500" 
d="M259 604l-52 92h64l40 -52l54 52h64l-78 -92h-92z" />
    <glyph glyph-name="breve" unicode="&#x2d8;" horiz-adv-x="500" 
d="M323 602h-38q-51 0 -67 18.5t-8 67.5l2 11h57l-2 -17q-4 -32 27 -32h34q31 0 35 32l2 17h58l-2 -11q-8 -50 -28 -68t-70 -18z" />
    <glyph glyph-name="dotaccent" unicode="&#x2d9;" horiz-adv-x="500" 
d="M276 618l11 79h62l-11 -79h-62z" />
    <glyph glyph-name="ring" unicode="&#x2da;" horiz-adv-x="500" 
d="M313 733h19q39 0 49 -13t5 -48l-2 -14q-5 -35 -19 -48t-52 -13h-19q-38 0 -49 13t-6 48l2 14q5 35 19.5 48t52.5 13zM326 702h-15q-21 0 -27 -4.5t-8 -22.5l-3 -19q-2 -19 2.5 -23.5t24.5 -4.5h15q21 0 27.5 5t8.5 23l3 19q2 18 -2 22.5t-26 4.5z" />
    <glyph glyph-name="ogonek" unicode="&#x2db;" horiz-adv-x="500" 
d="M292 -61l-2 -15q-4 -33 -15.5 -48t-44.5 -15h-50q-34 0 -43 11t-6 42l1 12q2 22 11 31t34 21l44 22h51l-1 -6l-54 -30q-4 -2 -9.5 -5.5t-7.5 -4.5t-5.5 -3.5t-4.5 -4t-2.5 -3.5t-2.5 -4.5t-1 -5.5l-1 -7q-1 -7 -1 -12t3 -7t10 -2h29q11 0 13 3t4 15l2 16h49z" />
    <glyph glyph-name="tilde" unicode="&#x2dc;" horiz-adv-x="500" 
d="M351 609l-90 50l-10 -48h-43l14 84h44l92 -35l8 34h43l-14 -85h-44z" />
    <glyph glyph-name="hungarumlaut" unicode="&#x2dd;" horiz-adv-x="500" 
d="M201 604l74 92h82l-92 -92h-64zM301 604l74 92h97l-107 -92h-64z" />
    <glyph glyph-name="Wgrave" unicode="&#x1e80;" horiz-adv-x="606" 
d="M77 700h103l-18 -574h4l141 574h129l-20 -574h4l143 574h103l-178 -700h-175l29 469h-6l-102 -469h-175zM383 831l27 -92h-64l-60 92h97z" />
    <glyph glyph-name="wgrave" unicode="&#x1e81;" horiz-adv-x="544" 
d="M279 0l10 332h-3l-81 -332h-150l-2 565h100l-7 -440h5l115 440h110l-9 -440h4l118 440h100l-160 -565h-150zM338 696l27 -92h-64l-60 92h97z" />
    <glyph glyph-name="Wacute" unicode="&#x1e82;" horiz-adv-x="606" 
d="M343 739l54 92h97l-87 -92h-64zM77 700h103l-18 -574h4l141 574h129l-20 -574h4l143 574h103l-178 -700h-175l29 469h-6l-102 -469h-175z" />
    <glyph glyph-name="wacute" unicode="&#x1e83;" horiz-adv-x="544" 
d="M292 604l54 92h97l-87 -92h-64zM279 0l10 332h-3l-81 -332h-150l-2 565h100l-7 -440h5l115 440h110l-9 -440h4l118 440h100l-160 -565h-150z" />
    <glyph glyph-name="Wdieresis" unicode="&#x1e84;" horiz-adv-x="606" 
d="M288 747l12 84h64l-12 -84h-64zM408 747l12 84h64l-12 -84h-64zM77 700h103l-18 -574h4l141 574h129l-20 -574h4l143 574h103l-178 -700h-175l29 469h-6l-102 -469h-175z" />
    <glyph glyph-name="wdieresis" unicode="&#x1e85;" horiz-adv-x="544" 
d="M238 612l11 84h64l-11 -84h-64zM358 612l11 84h64l-11 -84h-64zM279 0l10 332h-3l-81 -332h-150l-2 565h100l-7 -440h5l115 440h110l-9 -440h4l118 440h100l-160 -565h-150z" />
    <glyph glyph-name="Ygrave" unicode="&#x1ef2;" horiz-adv-x="412" 
d="M126 0l38 274l-89 426h100l55 -309l142 309h101l-209 -426l-38 -274h-100zM291 831l27 -92h-64l-60 92h97z" />
    <glyph glyph-name="ygrave" unicode="&#x1ef3;" horiz-adv-x="373" 
d="M74 5l-28 560h103l13 -471h8l150 471h95l-223 -691h-91l42 131h-69zM252 696l27 -92h-64l-60 92h97z" />
    <glyph glyph-name="endash" unicode="&#x2013;" horiz-adv-x="394" 
d="M22 266l10 68h364l-10 -68h-364z" />
    <glyph glyph-name="emdash" unicode="&#x2014;" horiz-adv-x="564" 
d="M22 266l10 68h534l-10 -68h-534z" />
    <glyph glyph-name="quoteleft" unicode="&#x2018;" horiz-adv-x="163" 
d="M177 589l-17 -122h-87l14 97q6 43 22 70t52 66l26 -21q-25 -33 -32 -48.5t-11 -41.5h33z" />
    <glyph glyph-name="quoteright" unicode="&#x2019;" horiz-adv-x="163" 
d="M91 579l17 122h87l-14 -97q-6 -43 -22 -70t-52 -66l-26 21q25 33 32 48.5t11 41.5h-33z" />
    <glyph glyph-name="quotesinglbase" unicode="&#x201a;" horiz-adv-x="163" 
d="M9 0l17 122h87l-14 -97q-6 -43 -22 -70t-52 -66l-26 21q25 33 32 48.5t11 41.5h-33z" />
    <glyph glyph-name="quotedblleft" unicode="&#x201c;" horiz-adv-x="291" 
d="M177 589l-17 -122h-87l14 97q6 43 22 70t52 66l26 -21q-25 -33 -32 -48.5t-11 -41.5h33zM304 589l-17 -122h-87l14 97q6 43 22 70t52 66l26 -21q-25 -33 -32 -48.5t-11 -41.5h33z" />
    <glyph glyph-name="quotedblright" unicode="&#x201d;" horiz-adv-x="291" 
d="M91 579l17 122h87l-14 -97q-6 -43 -22 -70t-52 -66l-26 21q25 33 32 48.5t11 41.5h-33zM218 579l17 122h87l-14 -97q-6 -43 -22 -70t-52 -66l-26 21q25 33 32 48.5t11 41.5h-33z" />
    <glyph glyph-name="quotedblbase" unicode="&#x201e;" horiz-adv-x="291" 
d="M9 0l17 122h87l-14 -97q-6 -43 -22 -70t-52 -66l-26 21q25 33 32 48.5t11 41.5h-33zM136 0l17 122h87l-14 -97q-6 -43 -22 -70t-52 -66l-26 21q25 33 32 48.5t11 41.5h-33z" />
    <glyph glyph-name="dagger" unicode="&#x2020;" horiz-adv-x="333" 
d="M208 566l-5 78l8 56h50l-8 -56l-27 -78h-18zM317 569h56l-7 -51h-56l-76 16l3 19zM189 534l-80 -16h-56l7 51h56l76 -16zM165 261l4 142l32 118h18v-118l-36 -142h-18z" />
    <glyph glyph-name="daggerdbl" unicode="&#x2021;" horiz-adv-x="333" 
d="M174 326l-3 97l30 98h18l3 -97l-30 -98h-18zM116 569l76 -16l-3 -19l-80 -16h-56l7 51h56zM132 146l8 56l27 78h18l5 -78l-8 -56h-50zM366 518h-56l-76 16l3 19l80 16h56zM82 328l76 -16l-3 -18l-80 -16h-56l7 50h56zM207 566l-5 78l8 56h50l-8 -56l-27 -78h-18zM203 312
l80 16h56l-7 -50h-56l-76 16z" />
    <glyph glyph-name="bullet" unicode="&#x2022;" horiz-adv-x="264" 
d="M158 467h22q48 0 58 -14.5t4 -61.5l-10 -74q-6 -46 -20.5 -60.5t-63.5 -14.5h-22q-50 0 -60 14.5t-4 60.5l10 74q6 46 21 61t65 15z" />
    <glyph glyph-name="ellipsis" unicode="&#x2026;" horiz-adv-x="488" 
d="M8 0l17 122h87l-17 -122h-87zM171 0l17 122h86l-17 -122h-86zM333 0l17 122h87l-17 -122h-87z" />
    <glyph glyph-name="perthousand" unicode="&#x2030;" horiz-adv-x="886" 
d="M118 0l369 700h60l-369 -700h-60zM199 702h38q51 0 68.5 -21t10.5 -71l-29 -203q-7 -51 -30.5 -72t-74.5 -21h-38q-51 0 -68.5 21t-10.5 72l29 203q7 50 30.5 71t74.5 21zM227 654h-32q-35 0 -40 -37l-31 -217q-3 -21 4.5 -29t25.5 -8h32q35 0 40 37l31 217q3 21 -4.5 29
t-25.5 8zM487 386h38q51 0 68.5 -21t10.5 -71l-28 -203q-7 -51 -30.5 -72.5t-74.5 -21.5h-38q-51 0 -69 21.5t-10 72.5l29 203q7 50 30 71t74 21zM516 338h-32q-36 0 -41 -37l-30 -217q-3 -21 4.5 -29t25.5 -8h32q35 0 40 37l31 217q3 21 -4.5 29t-25.5 8zM742 386h38
q51 0 68.5 -21t10.5 -71l-28 -203q-7 -51 -30.5 -72.5t-74.5 -21.5h-38q-51 0 -69 21.5t-10 72.5l29 203q7 50 30 71t74 21zM771 338h-32q-36 0 -41 -37l-30 -217q-3 -21 4.5 -29t25.5 -8h32q35 0 40 37l31 217q3 21 -4.5 29t-25.5 8z" />
    <glyph glyph-name="guilsinglleft" unicode="&#x2039;" horiz-adv-x="188" 
d="M91 111l-71 169l2 11l118 170h64l-101 -170l-2 -11l54 -169h-64z" />
    <glyph glyph-name="guilsinglright" unicode="&#x203a;" horiz-adv-x="188" 
d="M186 280l-119 -169h-64l102 169l1 11l-54 170h64l71 -170z" />
    <glyph glyph-name="fraction" unicode="&#x2044;" horiz-adv-x="231" 
d="M-59 0l326 700h60l-326 -700h-60z" />
    <glyph glyph-name="Euro" unicode="&#x20ac;" horiz-adv-x="391" 
d="M267 622q-30 0 -46.5 -12.5t-21.5 -48.5l-17 -122h189l-8 -58h-189l-6 -42h189l-8 -58h-189l-20 -142q-5 -36 8 -48.5t42 -12.5h149l-10 -78q-61 -3 -150 -3q-92 0 -121 29t-17 118l19 137h-40l8 58h40l6 42h-40l8 58h41l16 117q12 89 49.5 118t129.5 29l157 -3l-11 -78
h-157z" />
    <glyph glyph-name="afii61352" unicode="&#x2116;" horiz-adv-x="818" 
d="M677 703h34q83 0 108.5 -28t15.5 -100l-44 -312q-10 -72 -43.5 -100t-116.5 -28h-34q-84 0 -109 28t-15 100l44 312q10 72 43 100t117 28zM609 221h34q24 0 37 10t17 39l42 298q4 29 -6 39t-34 10h-34q-24 0 -37 -10t-17 -39l-42 -298q-4 -29 6 -39t34 -10zM436 0l12 85
h318l-12 -85h-318zM107 700h106l86 -449h1l63 449h98l-98 -700h-109l-79 435h-5l-61 -435h-100z" />
    <glyph glyph-name="trademark" unicode="&#x2122;" horiz-adv-x="486" 
d="M315 608l-34 -258h-49l49 350h78l7 -245h3l75 245h78l-49 -350h-49l39 258h-2l-86 -258h-45l-13 258h-2zM74 656l6 44h181l-6 -44h-65l-43 -306h-51l43 306h-65z" />
    <glyph glyph-name="arrowleft" unicode="&#x2190;" horiz-adv-x="400" 
d="M149 121l-106 169l2 11l153 170l37 -37l-98 -110h252l-8 -57h-252l67 -109z" />
    <glyph glyph-name="arrowup" unicode="&#x2191;" horiz-adv-x="400" 
d="M241 465l151 -130l-43 -42l-97 83l-36 -252h-57l36 252l-122 -83l-31 42l188 130h11z" />
    <glyph glyph-name="arrowright" unicode="&#x2192;" horiz-adv-x="400" 
d="M383 290l-154 -169l-36 37l98 109h-252l8 57h252l-68 110l48 37l106 -170z" />
    <glyph glyph-name="arrowdown" unicode="&#x2193;" horiz-adv-x="400" 
d="M381 253l-187 -130h-11l-152 130l43 42l98 -83l36 252h57l-36 -252l121 83z" />
    <glyph glyph-name="uni2196" unicode="&#x2196;" horiz-adv-x="400" 
d="M113 419l215 28l-4 -56l-139 -18l153 -179l-45 -40l-153 178l-39 -136l-55 3l58 213z" />
    <glyph glyph-name="uni2197" unicode="&#x2197;" horiz-adv-x="400" 
d="M135 447l207 -28l7 -7l-2 -213l-56 -3l-1 136l-203 -178l-34 40l203 179l-133 18z" />
    <glyph glyph-name="uni2198" unicode="&#x2198;" horiz-adv-x="400" 
d="M307 174l-215 -28l4 56l139 18l-153 179l46 40l153 -178l39 136l54 -3l-58 -213z" />
    <glyph glyph-name="uni2199" unicode="&#x2199;" horiz-adv-x="400" 
d="M285 146l-207 28l-7 7l2 213l55 3l1 -136l203 178l35 -40l-204 -179l134 -18z" />
    <glyph glyph-name="minus" unicode="&#x2212;" horiz-adv-x="335" 
d="M37 326l9 66h294l-9 -66h-294z" />
    <glyph glyph-name="commaaccent" unicode="&#xf6c3;" horiz-adv-x="500" 
d="M189 -15l12 88h64l-11 -78q-4 -30 -15.5 -50t-37.5 -50l-25 14q5 7 12.5 19t9 14.5t5 10t4.5 14t3 18.5h-21z" />
    <glyph glyph-name="abreve.alt" 
d="M203 568h33l167 -3l-80 -565q-118 -3 -170 -3h-30q-118 0 -102 113l48 346q16 112 134 112zM152 81h88l56 404h-88q-39 0 -46 -44l-44 -316q-6 -44 34 -44zM276 602h-38q-51 0 -67 18.5t-8 67.5l2 11h57l-2 -17q-4 -32 27 -32h34q31 0 35 32l2 17h58l-2 -11
q-8 -50 -28 -68t-70 -18z" />
    <glyph glyph-name="guilsinglleft.case" horiz-adv-x="188" 
d="M101 181l-71 169l2 11l118 170h64l-101 -170l-2 -11l54 -169h-64z" />
    <glyph glyph-name="gcommaaccent.alt" horiz-adv-x="398" 
d="M229 568h207l-7 -49l-52 -13q19 -23 13 -66l-23 -164q-10 -71 -43 -99t-117 -28h-37q-27 0 -41 5q-33 -3 -33 -32q0 -14 30 -14h103q86 0 118.5 -33t-4.5 -85l-4 -5q-4 -70 -39.5 -99t-120.5 -29h-98q-85 0 -106.5 26.5t10.5 91.5q20 42 54 72q-36 8 -36 48q0 57 57 82
q-26 27 -15 99l24 164q11 79 42 103.5t118 24.5zM182 234h37q24 0 36.5 10t16.5 39l22 151q4 29 -6 39t-34 10h-37q-24 0 -37 -10t-17 -39l-21 -151q-4 -29 6 -39t34 -10zM87 -61h108q24 0 36.5 10t17.5 39l2 12q3 22 -1.5 30.5t-25.5 8.5h-119q-18 -18 -28 -50
q-12 -40 -10 -44q3 -6 20 -6zM304 696l-13 -88h-64l11 78q4 30 15.5 50t37.5 50l25 -14q-5 -9 -12 -19.5t-9 -14t-5 -10.5t-4 -13.5t-3 -18.5h21z" />
    <glyph glyph-name="gdotaccent.alt" horiz-adv-x="398" 
d="M229 568h207l-7 -49l-52 -13q19 -23 13 -66l-23 -164q-10 -71 -43 -99t-117 -28h-37q-27 0 -41 5q-33 -3 -33 -32q0 -14 30 -14h103q86 0 118.5 -33t-4.5 -85l-4 -5q-4 -70 -39.5 -99t-120.5 -29h-98q-85 0 -106.5 26.5t10.5 91.5q20 42 54 72q-36 8 -36 48q0 57 57 82
q-26 27 -15 99l24 164q11 79 42 103.5t118 24.5zM182 234h37q24 0 36.5 10t16.5 39l22 151q4 29 -6 39t-34 10h-37q-24 0 -37 -10t-17 -39l-21 -151q-4 -29 6 -39t34 -10zM87 -61h108q24 0 36.5 10t17.5 39l2 12q3 22 -1.5 30.5t-25.5 8.5h-119q-18 -18 -28 -50
q-12 -40 -10 -44q3 -6 20 -6zM231 618l11 79h62l-11 -79h-62z" />
    <glyph glyph-name="g.alt" horiz-adv-x="398" 
d="M229 568h207l-7 -49l-52 -13q19 -23 13 -66l-23 -164q-10 -71 -43 -99t-117 -28h-37q-27 0 -41 5q-33 -3 -33 -32q0 -14 30 -14h103q86 0 118.5 -33t-4.5 -85l-4 -5q-4 -70 -39.5 -99t-120.5 -29h-98q-85 0 -106.5 26.5t10.5 91.5q20 42 54 72q-36 8 -36 48q0 57 57 82
q-26 27 -15 99l24 164q11 79 42 103.5t118 24.5zM182 234h37q24 0 36.5 10t16.5 39l22 151q4 29 -6 39t-34 10h-37q-24 0 -37 -10t-17 -39l-21 -151q-4 -29 6 -39t34 -10zM87 -61h108q24 0 36.5 10t17.5 39l2 12q3 22 -1.5 30.5t-25.5 8.5h-119q-18 -18 -28 -50
q-12 -40 -10 -44q3 -6 20 -6z" />
    <glyph glyph-name="yacute.alt" 
d="M22 -33h155q24 0 37.5 10t16.5 39l2 17h-105q-58 0 -84.5 26t-17.5 86l59 420h95l-57 -405q-6 -44 34 -44h88l63 449h95l-78 -555q-11 -79 -42 -103.5t-118 -24.5q-38 0 -76.5 2t-58.5 4l-19 3zM212 604l54 92h97l-87 -92h-64z" />
    <glyph glyph-name="gbreve.alt" horiz-adv-x="398" 
d="M229 568h207l-7 -49l-52 -13q19 -23 13 -66l-23 -164q-10 -71 -43 -99t-117 -28h-37q-27 0 -41 5q-33 -3 -33 -32q0 -14 30 -14h103q86 0 118.5 -33t-4.5 -85l-4 -5q-4 -70 -39.5 -99t-120.5 -29h-98q-85 0 -106.5 26.5t10.5 91.5q20 42 54 72q-36 8 -36 48q0 57 57 82
q-26 27 -15 99l24 164q11 79 42 103.5t118 24.5zM182 234h37q24 0 36.5 10t16.5 39l22 151q4 29 -6 39t-34 10h-37q-24 0 -37 -10t-17 -39l-21 -151q-4 -29 6 -39t34 -10zM87 -61h108q24 0 36.5 10t17.5 39l2 12q3 22 -1.5 30.5t-25.5 8.5h-119q-18 -18 -28 -50
q-12 -40 -10 -44q3 -6 20 -6zM280 602h-38q-51 0 -67 18.5t-8 67.5l2 11h58l-2 -17q-4 -32 26 -32h34q32 0 36 32l2 17h57l-2 -11q-8 -50 -28 -68t-70 -18z" />
    <glyph glyph-name="y.alt" 
d="M22 -33h155q24 0 37.5 10t16.5 39l2 17h-105q-58 0 -84.5 26t-17.5 86l59 420h95l-57 -405q-6 -44 34 -44h88l63 449h95l-78 -555q-11 -79 -42 -103.5t-118 -24.5q-38 0 -76.5 2t-58.5 4l-19 3z" />
    <glyph glyph-name="ydieresis.alt" 
d="M22 -33h155q24 0 37.5 10t16.5 39l2 17h-105q-58 0 -84.5 26t-17.5 86l59 420h95l-57 -405q-6 -44 34 -44h88l63 449h95l-78 -555q-11 -79 -42 -103.5t-118 -24.5q-38 0 -76.5 2t-58.5 4l-19 3zM159 612l12 84h64l-12 -84h-64zM279 612l12 84h64l-12 -84h-64z" />
    <glyph glyph-name="ycircumflex.alt" 
d="M22 -33h155q24 0 37.5 10t16.5 39l2 17h-105q-58 0 -84.5 26t-17.5 86l59 420h95l-57 -405q-6 -44 34 -44h88l63 449h95l-78 -555q-11 -79 -42 -103.5t-118 -24.5q-38 0 -76.5 2t-58.5 4l-19 3zM139 604l78 92h92l52 -92h-64l-39 52l-55 -52h-64z" />
    <glyph glyph-name="ygrave.alt" 
d="M22 -33h155q24 0 37.5 10t16.5 39l2 17h-105q-58 0 -84.5 26t-17.5 86l59 420h95l-57 -405q-6 -44 34 -44h88l63 449h95l-78 -555q-11 -79 -42 -103.5t-118 -24.5q-38 0 -76.5 2t-58.5 4l-19 3zM262 696l27 -92h-64l-60 92h97z" />
    <glyph glyph-name="RB" horiz-adv-x="900" 
d="M450 706q147 0 251.5 -104.5t104.5 -251.5t-104.5 -251.5t-251.5 -104.5t-251.5 104.5t-104.5 251.5t104.5 251.5t251.5 104.5zM420 241l-49 65q32 8 55.5 31.5t30.5 54.5q10 37 -9.5 63.5t-57.5 26.5h-90l-61 -241h181zM646 422q7 23 -7 40.5t-39 19.5h-108l-59 -241
h125q27 0 51.5 19t30.5 46q6 23 -6 40.5t-37 20.5q39 14 49 55z" />
    <glyph glyph-name="registered.alt" horiz-adv-x="524" 
d="M255 700h152q150 0 130 -141l-59 -417q-19 -142 -170 -142h-152q-70 0 -104.5 34.5t-24.5 107.5l59 417q20 141 169 141zM158 16h152q133 0 150 126l59 417q18 126 -114 126h-152q-131 0 -149 -126l-59 -417q-18 -126 113 -126zM126 90l73 518h139q66 0 85.5 -19.5
t10.5 -80.5l-14 -96q-6 -44 -19 -60.5t-46 -20.5q32 -5 40 -23t2 -63l-22 -155h-74l23 162q4 28 -5.5 38t-29.5 10h-60l-29 -210h-74zM264 543l-26 -181h65q36 0 41 37l15 107q3 22 -4.5 29.5t-25.5 7.5h-65z" />
    <glyph glyph-name="published" horiz-adv-x="524" 
d="M255 700h152q150 0 130 -141l-59 -417q-19 -142 -170 -142h-152q-70 0 -104.5 34.5t-24.5 107.5l59 417q20 141 169 141zM158 16h152q133 0 150 126l59 417q18 126 -114 126h-152q-131 0 -149 -126l-59 -417q-18 -126 113 -126zM132 90l73 518h139q65 0 85 -20t11 -80
l-19 -131q-9 -61 -34 -81t-90 -20h-65l-26 -186h-74zM270 543l-29 -203h65q17 0 27.5 7.5t13.5 30.5l18 128q3 22 -4.5 29.5t-25.5 7.5h-65z" />
    <glyph glyph-name="parenleft.case" horiz-adv-x="208" 
d="M182 628l-79 -560q-7 -44 2 -71q3 -9 18 -31.5l17 -25.5l-44 -37q-37 28 -61 66q-25 38 -17 99l79 560q8 60 45 98q36 39 79 66l33 -37q-1 -1 -23 -24.5t-27 -32.5q-15 -24 -22 -70z" />
    <glyph glyph-name="parenright.case" horiz-adv-x="208" 
d="M64 68l79 560q6 45 -2 70q-3 9 -17.5 31.5t-16.5 25.5l43 37q37 -28 61 -66q25 -38 17 -98l-79 -560q-8 -60 -45 -99q-36 -39 -79 -66l-34 37q2 2 24 25t27 32q15 24 22 71z" />
    <glyph glyph-name="hyphen.case" horiz-adv-x="286" 
d="M36 318l11 78h244l-11 -78h-244z" />
    <glyph glyph-name="bracketleft.case" horiz-adv-x="260" 
d="M194 695l-96 -681h125l-10 -72h-210l116 825h210l-10 -72h-125z" />
    <glyph glyph-name="bracketright.case" horiz-adv-x="260" 
d="M106 14l96 681h-125l10 72h210l-116 -825h-210l10 72h125z" />
    <glyph glyph-name="braceleft.case" horiz-adv-x="237" 
d="M24 326l7 51q1 1 9.5 5t17 9.5t18 14t16.5 22t9 29.5l24 171q8 57 45 98q29 32 79 66l31 -27q-3 -3 -21.5 -25.5t-24.5 -31.5q-15 -24 -24 -80l-24 -171q-9 -65 -72 -106q52 -40 43 -105l-25 -178q-8 -56 1 -81q3 -8 15 -30.5t14 -26.5l-37 -27q-35 27 -61 66
q-25 38 -17 99l25 178q0 10 1 17t-2.5 14t-5 12t-6.5 10.5t-7.5 8t-8 6.5t-7.5 5.5t-6.5 4t-5.5 2.5z" />
    <glyph glyph-name="bar.case" horiz-adv-x="236" 
d="M41 -70l117 830h75l-117 -830h-75z" />
    <glyph glyph-name="braceright.case" horiz-adv-x="237" 
d="M251 377l-7 -51q-1 0 -6 -2.5l-8 -4t-9 -5t-10 -7t-9.5 -8t-9.5 -10t-8 -12t-7 -14.5t-4 -17l-25 -178q-8 -58 -45 -99q-37 -38 -79 -66l-30 27q2 3 21.5 26t24.5 31q14 23 23 81l25 178q9 65 73 105q-52 40 -43 106l24 171q8 55 -1 80q-1 3 -30 57l38 27q39 -32 61 -66
q25 -40 17 -98l-24 -171q-2 -16 1 -29.5t10.5 -22t14 -14t14 -9.5t8.5 -5z" />
    <glyph glyph-name="gcircumflex.alt" horiz-adv-x="398" 
d="M229 568h207l-7 -49l-52 -13q19 -23 13 -66l-23 -164q-10 -71 -43 -99t-117 -28h-37q-27 0 -41 5q-33 -3 -33 -32q0 -14 30 -14h103q86 0 118.5 -33t-4.5 -85l-4 -5q-4 -70 -39.5 -99t-120.5 -29h-98q-85 0 -106.5 26.5t10.5 91.5q20 42 54 72q-36 8 -36 48q0 57 57 82
q-26 27 -15 99l24 164q11 79 42 103.5t118 24.5zM182 234h37q24 0 36.5 10t16.5 39l22 151q4 29 -6 39t-34 10h-37q-24 0 -37 -10t-17 -39l-21 -151q-4 -29 6 -39t34 -10zM87 -61h108q24 0 36.5 10t17.5 39l2 12q3 22 -1.5 30.5t-25.5 8.5h-119q-18 -18 -28 -50
q-12 -40 -10 -44q3 -6 20 -6zM152 604l78 92h92l52 -92h-64l-40 52l-54 -52h-64z" />
    <glyph glyph-name="guilsinglright.case" horiz-adv-x="188" 
d="M195 350l-119 -169h-64l102 169l1 11l-54 170h64l71 -170z" />
    <glyph glyph-name="guillemotleft.case" horiz-adv-x="306" 
d="M215 181l-61 169l2 11l108 170h68l-96 -170l-2 -11l49 -169h-68zM30 350l2 11l118 170h64l-101 -170l-2 -11l54 -169h-64z" />
    <glyph glyph-name="guillemotright.case" horiz-adv-x="306" 
d="M190 350l-109 -169h-68l97 169l1 11l-49 170h68l61 -170zM315 361l-1 -11l-119 -169h-64l102 169l1 11l-54 170h64z" />
    <glyph glyph-name="endash.case" horiz-adv-x="394" 
d="M30 321l10 68h364l-10 -68h-364z" />
    <glyph glyph-name="emdash.case" horiz-adv-x="564" 
d="M30 321l10 68h534l-10 -68h-534z" />
    <glyph glyph-name="bullet.case" horiz-adv-x="264" 
d="M158 467h22q48 0 58 -14.5t4 -61.5l-10 -74q-6 -46 -20.5 -60.5t-63.5 -14.5h-22q-50 0 -60 14.5t-4 60.5l10 74q6 46 21 61t65 15z" />
    <glyph glyph-name="periodcentered.case" horiz-adv-x="176" 
d="M57 296l17 122h86l-17 -122h-86z" />
    <glyph glyph-name="germandbls.case" horiz-adv-x="785" 
d="M258 703l159 -3l-11 -82h-160q-21 0 -32 -2.5t-21.5 -14.5t-13.5 -37l-9 -68q-5 -38 7.5 -51.5t54.5 -28.5l66 -24q33 -12 49.5 -23t27 -38.5t4.5 -71.5l-16 -115q-12 -89 -49.5 -118t-129.5 -29l-181 3l12 82h181q31 0 46 9.5t20 45.5l15 103q3 8 1 16.5t-1.5 13t-4 10
t-6.5 8t-9 6.5t-10.5 5.5t-12 5.5t-13.5 6l-70 25q-26 11 -39 18.5t-28 22.5t-19 38t1 56l12 85q12 89 50 118t130 29zM641 703l159 -3l-11 -82h-160q-21 0 -32 -2.5t-21.5 -14.5t-13.5 -37l-9 -68q-5 -38 7.5 -51.5t54.5 -28.5l66 -24q33 -12 49.5 -23t27 -38.5t4.5 -71.5
l-16 -115q-12 -89 -49.5 -118t-129.5 -29l-181 3l12 82h181q31 0 46 9.5t20 45.5l15 103q3 8 1 16.5t-1.5 13t-4 10t-6.5 8t-9 6.5t-10.5 5.5t-12 5.5t-13.5 6l-70 25q-26 11 -39 18.5t-28 22.5t-19 38t1 56l12 85q12 89 50 118t130 29z" />
    <glyph glyph-name="i.dot" horiz-adv-x="168" 
d="M7 0l79 565h95l-79 -565h-95zM99 618l11 79h84l-11 -79h-84z" />
    <glyph glyph-name="caron.alt" horiz-adv-x="500" 
d="M288 656l11 82h54l-10 -73q-3 -19 -11 -35t-15.5 -25.5t-25.5 -28.5l-21 11q6 9 14 19.5t11 15.5t6 13.5t5 20.5h-18z" />
    <glyph glyph-name="aring.alt" 
d="M203 568h33l167 -3l-80 -565q-118 -3 -170 -3h-30q-118 0 -102 113l48 346q16 112 134 112zM152 81h88l56 404h-88q-39 0 -46 -44l-44 -316q-6 -44 34 -44zM256 733h19q38 0 49 -13t6 -48l-2 -14q-5 -35 -19 -48t-53 -13h-19q-38 0 -48.5 13t-5.5 48l2 14q5 35 19 48
t52 13zM269 702h-15q-21 0 -26.5 -4.5t-8.5 -22.5l-3 -19q-3 -19 1.5 -23.5t25.5 -4.5h15q21 0 27 4.5t9 23.5l3 19q3 18 -1.5 22.5t-26.5 4.5z" />
    <glyph glyph-name="atilde.alt" 
d="M203 568h33l167 -3l-80 -565q-118 -3 -170 -3h-30q-118 0 -102 113l48 346q16 112 134 112zM152 81h88l56 404h-88q-39 0 -46 -44l-44 -316q-6 -44 34 -44zM296 609l-90 50l-10 -48h-43l14 84h44l92 -35l8 34h43l-14 -85h-44z" />
    <glyph glyph-name="aringacute.alt" 
d="M203 568h33l167 -3l-80 -565q-118 -3 -170 -3h-30q-118 0 -102 113l48 346q16 112 134 112zM152 81h88l56 404h-88q-39 0 -46 -44l-44 -316q-6 -44 34 -44zM260 733h19q38 0 49 -13t6 -48l-2 -14q-5 -35 -19 -48t-53 -13h-19q-38 0 -48.5 13t-5.5 48l2 14q5 35 19 48
t52 13zM239 764l54 92h97l-87 -92h-64zM273 702h-15q-21 0 -26.5 -4.5t-8.5 -22.5l-3 -19q-3 -19 1.5 -23.5t25.5 -4.5h15q21 0 27 4.5t9 23.5l3 19q3 18 -1.5 22.5t-26.5 4.5z" />
    <glyph glyph-name="aogonek.alt" 
d="M317 -41l-2 -15q-4 -33 -15.5 -48t-44.5 -15h-50q-34 0 -44 11.5t-5 41.5l2 12q4 22 11.5 31t28.5 20h-45h-30q-118 0 -102 113l48 346q16 112 134 112h33l167 -3l-80 -565q-26 -1 -55 -1l-26 -15q-26 -15 -30 -22q-1 -3 -2 -9l-1 -7q-1 -7 -1 -12t3 -7t10 -2h29
q10 0 12.5 3t3.5 11v4l2 16h49zM152 81h88l56 404h-88q-39 0 -46 -44l-44 -316q-6 -44 34 -44z" />
    <glyph glyph-name="idotaccent" horiz-adv-x="168" 
d="M7 0l79 565h95l-79 -565h-95zM92 616l10 75h98l-10 -75h-98z" />
    <glyph glyph-name="aacute.alt" 
d="M203 568h33l167 -3l-80 -565q-118 -3 -170 -3h-30q-118 0 -102 113l48 346q16 112 134 112zM152 81h88l56 404h-88q-39 0 -46 -44l-44 -316q-6 -44 34 -44zM211 604l54 92h97l-87 -92h-64z" />
    <glyph glyph-name="a.alt" 
d="M203 568h33l167 -3l-80 -565q-118 -3 -170 -3h-30q-118 0 -102 113l48 346q16 112 134 112zM152 81h88l56 404h-88q-39 0 -46 -44l-44 -316q-6 -44 34 -44z" />
    <glyph glyph-name="acircumflex.alt" 
d="M203 568h33l167 -3l-80 -565q-118 -3 -170 -3h-30q-118 0 -102 113l48 346q16 112 134 112zM152 81h88l56 404h-88q-39 0 -46 -44l-44 -316q-6 -44 34 -44zM139 604l78 92h92l52 -92h-64l-40 52l-54 -52h-64z" />
    <glyph glyph-name="adieresis.alt" 
d="M203 568h33l167 -3l-80 -565q-118 -3 -170 -3h-30q-118 0 -102 113l48 346q16 112 134 112zM152 81h88l56 404h-88q-39 0 -46 -44l-44 -316q-6 -44 34 -44zM163 612l12 84h64l-12 -84h-64zM283 612l12 84h64l-12 -84h-64z" />
    <glyph glyph-name="agrave.alt" 
d="M203 568h33l167 -3l-80 -565q-118 -3 -170 -3h-30q-118 0 -102 113l48 346q16 112 134 112zM152 81h88l56 404h-88q-39 0 -46 -44l-44 -316q-6 -44 34 -44zM280 696l27 -92h-64l-60 92h97z" />
    <glyph glyph-name="amacron.alt" 
d="M203 568h33l167 -3l-80 -565q-118 -3 -170 -3h-30q-118 0 -102 113l48 346q16 112 134 112zM152 81h88l56 404h-88q-39 0 -46 -44l-44 -316q-6 -44 34 -44zM151 622l7 56h206l-7 -56h-206z" />
    </font>
</defs>
</svg>
