<?xml version="1.0" standalone="no"?>
<!DOCTYPE svg PUBLIC "-//W3C//DTD SVG 1.1//EN" "http://www.w3.org/Graphics/SVG/1.1/DTD/svg11.dtd" >
<svg xmlns="http://www.w3.org/2000/svg" xmlns:xlink="http://www.w3.org/1999/xlink" version="1.1">
<metadata>
Created by FontForge 20170731 at Sun Sep 30 05:33:48 2012
 By Aleksey,,,
Copyright (c) 2012 by Rene Bieder. All rights reserved.
</metadata>
<defs>
<font id="RBNo2.1b-BoldItalic" horiz-adv-x="401" >
  <font-face 
    font-family="RBNo2.1b BoldItalic"
    font-weight="450"
    font-style="italic"
    font-stretch="normal"
    units-per-em="1000"
    panose-1="2 0 0 0 0 0 0 0 0 0"
    ascent="750"
    descent="-250"
    x-height="577"
    cap-height="700"
    bbox="-66 -233 896.415 938"
    underline-thickness="50"
    underline-position="-200"
    unicode-range="U+0020-FB02"
  />
<missing-glyph horiz-adv-x="467" 
d="M-30 0l98 700h467l-98 -700h-467zM272 350l138 -294l82 587zM232 350l-136 293l-82 -587zM249 319l-212 -284h343zM126 666l132 -285l211 285h-343z" />
    <glyph glyph-name="fi" unicode="fi" horiz-adv-x="434" 
d="M353 734l-15 -108h-85q-21 0 -25 -24l-4 -25h233l-81 -577h-125l66 471h-108l-66 -471h-125l66 471h-40l15 106h40l4 29q11 81 43.5 104.5t121.5 23.5h85z" />
    <glyph glyph-name="fl" unicode="fl" horiz-adv-x="434" 
d="M268 734h211l-103 -734h-125l89 633h-86q-22 0 -26 -25l-4 -31h62l-15 -106h-62l-66 -471h-125l66 471h-40l15 106h40l4 29q11 81 43.5 104.5t121.5 23.5z" />
    <glyph glyph-name=".notdef" horiz-adv-x="467" 
d="M-30 0l98 700h467l-98 -700h-467zM272 350l138 -294l82 587zM232 350l-136 293l-82 -587zM249 319l-212 -284h343zM126 666l132 -285l211 285h-343z" />
    <glyph glyph-name=".null" horiz-adv-x="0" 
 />
    <glyph glyph-name="nonmarkingreturn" horiz-adv-x="333" 
 />
    <glyph glyph-name="space" unicode=" " horiz-adv-x="140" 
 />
    <glyph glyph-name="exclam" unicode="!" horiz-adv-x="198" 
d="M67 213l11 295l27 192h125l-27 -192l-72 -295h-64zM13 0l20 143h112l-20 -143h-112z" />
    <glyph glyph-name="quotedbl" unicode="&#x22;" horiz-adv-x="325" 
d="M62 410l38 290h111l-16 -112l-56 -178h-77zM213 410l38 290h111l-16 -112l-56 -178h-77z" />
    <glyph glyph-name="numbersign" unicode="#" horiz-adv-x="594" 
d="M101 446l28 92h76l50 162h97l-49 -162h126l49 162h99l-50 -162h94l-28 -92h-95l-62 -208h93l-28 -91h-94l-45 -147h-97l44 147h-126l-44 -147h-97l44 147h-77l27 91h79l62 208h-76zM274 446l-62 -208h126l62 208h-126z" />
    <glyph glyph-name="dollar" unicode="$" horiz-adv-x="417" 
d="M125 -84l12 81l-138 3l15 109h189q24 0 35.5 7.5t14.5 34.5l11 78q1 8 1 14.5t-0.5 11t-3.5 9t-5 7t-8 5.5t-9.5 4.5t-11.5 5.5t-13 6l-67 25q-29 12 -42 19t-28.5 22t-19.5 39t1 59l12 88q13 90 47 123t119 36l10 70h92l-10 -70l110 -3l-15 -109h-170q-24 0 -35.5 -7.5
t-15.5 -34.5l-7 -49q-5 -34 6 -46t53 -29l63 -23q36 -13 52.5 -23t27.5 -38t4 -75l-15 -110q-12 -87 -45.5 -121t-111.5 -38l-12 -81h-92z" />
    <glyph glyph-name="percent" unicode="%" horiz-adv-x="649" 
d="M199 703h34q57 0 75.5 -23t10.5 -77l-28 -200q-8 -55 -32.5 -78.5t-81.5 -23.5h-34q-57 0 -75.5 24t-10.5 78l28 200q8 54 32.5 77t81.5 23zM511 398h34q57 0 75.5 -23t10.5 -77l-28 -200q-8 -55 -32.5 -78.5t-81.5 -23.5h-34q-57 0 -75.5 23.5t-10.5 78.5l28 200
q8 54 32.5 77t81.5 23zM532 336h-26q-26 0 -30 -29l-30 -218q-4 -28 22 -28h26q25 0 29 28l30 218q2 17 -3 23t-18 6zM220 640h-26q-25 0 -29 -28l-31 -219q-2 -16 3 -22t18 -6h26q26 0 30 28l31 219q4 28 -22 28zM125 0l357 700h78l-357 -700h-78z" />
    <glyph glyph-name="ampersand" unicode="&#x26;" horiz-adv-x="492" 
d="M394 680l-15 -109h-104q-41 0 -47 -43l-10 -71q-6 -44 32 -44h260l-12 -85l-92 -17l-43 -311h-189q-39 0 -61 1.5t-43.5 7t-30.5 15t-15.5 27.5t-6 43t5.5 62l12 88q9 67 35.5 92.5t75.5 28.5q-38 5 -50.5 31.5t-5.5 87.5l5 41q12 94 51 124.5t144 30.5h104zM250 106
l29 201h-61q-43 0 -49 -43l-17 -118q-3 -24 5.5 -32t30.5 -8h62z" />
    <glyph glyph-name="quotesingle" unicode="'" horiz-adv-x="173" 
d="M62 410l38 290h111l-16 -112l-56 -178h-77z" />
    <glyph glyph-name="parenleft" unicode="(" horiz-adv-x="218" 
d="M193 581l-76 -543q-7 -53 0 -78q2 -7 7.5 -17.5t13 -22.5t10.5 -18l-53 -41q-45 34 -69 69q-29 42 -20 108l76 543q9 63 51 106q38 38 88 70l41 -42q-5 -5 -16 -17.5t-19 -22.5t-12 -17q-14 -25 -22 -77z" />
    <glyph glyph-name="parenright" unicode=")" horiz-adv-x="218" 
d="M50 38l76 543q7 51 0 77q-3 10 -31 57l53 42q45 -35 69 -70q30 -42 20 -106l-76 -543q-9 -65 -51 -108q-36 -37 -88 -69l-41 41q4 5 23 27t24 31q14 24 22 78z" />
    <glyph glyph-name="asterisk" unicode="*" horiz-adv-x="347" 
d="M328 420l-46 30l-49 60l15 20l75 -24l46 -30zM191 537l-77 25l-45 30l40 57l46 -31l50 -60zM198 510l-67 -60l-54 -30l-24 56l53 30l84 24zM385 592l-54 -30l-82 -25l-9 21l66 60l54 31zM163 368l8 58l32 81h23l10 -81l-8 -58h-65zM211 561l-10 81l8 58h65l-8 -58
l-32 -81h-23z" />
    <glyph glyph-name="plus" unicode="+" horiz-adv-x="347" 
d="M31 316l12 86h113l16 111h86l-16 -111h114l-12 -86h-114l-16 -113h-86l16 113h-113z" />
    <glyph glyph-name="comma" unicode="," horiz-adv-x="173" 
d="M0 0l20 139h113l-16 -112q-6 -44 -24.5 -74.5t-60.5 -77.5l-39 25q3 5 8 13q30 46 34 66l4 21h-39z" />
    <glyph glyph-name="hyphen" unicode="-" horiz-adv-x="291" 
d="M22 249l14 103h257l-14 -103h-257z" />
    <glyph glyph-name="period" unicode="." horiz-adv-x="186" 
d="M7 0l20 139h112l-20 -139h-112z" />
    <glyph glyph-name="slash" unicode="/" horiz-adv-x="260" 
d="M-21 -34l256 773h79l-257 -773h-78z" />
    <glyph glyph-name="zero" unicode="0" horiz-adv-x="432" 
d="M272 704h25q104 0 135.5 -34t17.5 -132l-53 -375q-14 -98 -54.5 -132.5t-144.5 -34.5h-25q-104 0 -135.5 35t-17.5 132l53 375q14 98 54.5 132t144.5 34zM188 105h25q24 0 35.5 8t15.5 36l57 402q3 28 -6 36t-33 8h-25q-23 0 -34.5 -8t-15.5 -36l-57 -402q-3 -28 6 -36
t32 -8z" />
    <glyph glyph-name="one" unicode="1" horiz-adv-x="359" 
d="M51 632l161 68h112l-83 -594h98l-15 -106h-324l15 106h98l65 466l-113 -25z" />
    <glyph glyph-name="two" unicode="2" horiz-adv-x="386" 
d="M-9 0l25 176q12 84 82 140l110 93q39 29 56 55t22 62l3 21q4 27 -5 34.5t-33 7.5h-163l15 111q144 4 181 4q89 1 114.5 -35.5t12.5 -124.5l-5 -35q-8 -56 -31 -92t-67 -71l-89 -69q-4 -3 -17 -14t-16.5 -14t-12.5 -11.5t-12 -13t-8 -12.5t-7.5 -16t-3.5 -17l-10 -73h220
l-15 -106h-346z" />
    <glyph glyph-name="three" unicode="3" horiz-adv-x="366" 
d="M87 304l15 107h113q17 0 26 8t13 31l14 96q3 27 -6 35t-32 8h-159l15 111q139 4 170 4q93 2 123.5 -30.5t16.5 -129.5l-9 -64q-9 -63 -29 -88.5t-63 -30.5q42 -5 55 -28.5t4 -88.5l-12 -88q-8 -55 -22.5 -88.5t-41 -48.5t-52 -19.5t-70.5 -4.5l-174 5l15 105h165
q23 0 35 8.5t15 35.5l16 115q4 23 -3.5 31.5t-24.5 8.5h-113z" />
    <glyph glyph-name="four" unicode="4" horiz-adv-x="467" 
d="M4 237l237 463h194l-64 -456h89l-14 -99h-89l-20 -145h-128l20 145h-238zM291 592l-154 -348h106l49 348h-1z" />
    <glyph glyph-name="five" unicode="5" horiz-adv-x="386" 
d="M203 588l-21 -147h78q30 0 48.5 -1.5t35.5 -7t25.5 -15.5t13.5 -27t4.5 -41.5t-5.5 -59.5l-19 -133q-5 -38 -11.5 -64t-18.5 -44t-24 -28t-35.5 -15.5t-46.5 -7t-63 -1.5l-173 4l15 106h177h5q15 0 22 1t13.5 9.5t8.5 25.5l21 152q4 23 -4 31.5t-27 8.5h-178l57 366h316
l-15 -112h-199z" />
    <glyph glyph-name="six" unicode="6" horiz-adv-x="396" 
d="M231 443h30q33 0 53 -2t38 -8t26.5 -17t14 -31t4.5 -47.5t-7 -67.5l-16 -114q-14 -98 -52 -129t-143 -31h-18q-102 0 -132.5 35.5t-18.5 124.5l54 381q14 100 54 133.5t145 33.5l147 -4l-15 -112h-155q-23 0 -34 -8t-14 -35l-16 -115q20 13 55 13zM226 336h-30
q-35 0 -38 -27l-22 -163q-4 -27 5.5 -35.5t31.5 -8.5h20q23 0 35 8.5t16 35.5l20 144q4 28 -5.5 37t-32.5 9z" />
    <glyph glyph-name="seven" unicode="7" horiz-adv-x="359" 
d="M63 588l15 112h336l-16 -118l-237 -582h-136l236 569l3 19h-201z" />
    <glyph glyph-name="eight" unicode="8" horiz-adv-x="412" 
d="M170 -4q-108 0 -142.5 30t-21.5 127l12 89q9 69 32.5 93.5t76.5 29.5q-39 6 -53 29.5t-7 79.5l10 69q14 99 52 130t142 31h11q106 0 137 -31.5t17 -129.5l-8 -56q-9 -64 -30 -90t-67 -32q50 -5 65.5 -29.5t5.5 -93.5l-12 -89q-13 -97 -56.5 -127t-151.5 -30h-12zM207 105
q16 0 25 1.5t18 11t11 27.5l16 119q4 27 -5.5 34.5t-33.5 7.5h-41q-15 -1 -23 -3.5t-15 -11.5t-9 -27l-16 -119q-2 -14 0 -22.5t9 -12t13.5 -4.5t18.5 -1h32zM270 595h-19q-16 0 -24 -2t-15.5 -11.5t-10.5 -28.5l-14 -97q-3 -26 5 -33t30 -7h27q15 1 22.5 3t14.5 10.5
t9 26.5l14 97q4 27 -5 34.5t-34 7.5z" />
    <glyph glyph-name="nine" unicode="9" horiz-adv-x="405" 
d="M201 244h-27q-33 0 -53 2t-38.5 8t-27 17t-14 31t-4.5 47.5t6 67.5l17 127q13 98 53 129t146 31h15q102 0 132.5 -35.5t18.5 -124.5l-54 -381q-14 -101 -52 -134t-142 -33l-163 4l15 106h163q23 0 34.5 9.5t15.5 36.5l15 104q-20 -12 -56 -12zM200 351h36q20 0 27.5 6.5
t11.5 30.5l24 168q3 27 -6 34.5t-32 7.5h-26q-23 0 -34.5 -7.5t-15.5 -34.5l-23 -162q-3 -27 6 -35t32 -8z" />
    <glyph glyph-name="colon" unicode=":" horiz-adv-x="173" 
d="M2 0l20 139h112l-20 -139h-112zM63 437l20 139h112l-20 -139h-112z" />
    <glyph glyph-name="semicolon" unicode=";" horiz-adv-x="173" 
d="M0 0l20 139h113l-16 -112q-6 -44 -24.5 -74.5t-60.5 -77.5l-39 25q3 5 8 13q30 46 34 66l4 21h-39zM63 437l20 139h112l-20 -139h-112z" />
    <glyph glyph-name="less" unicode="&#x3c;" horiz-adv-x="334" 
d="M349 444l-189 -82l166 -81l-15 -104l-279 140l13 90l318 140z" />
    <glyph glyph-name="equal" unicode="=" horiz-adv-x="347" 
d="M42 394l12 83h313l-12 -83h-313zM20 234l12 83h313l-12 -83h-313z" />
    <glyph glyph-name="greater" unicode="&#x3e;" horiz-adv-x="334" 
d="M215 362l-165 82l14 103l279 -140l-12 -90l-319 -140l15 104z" />
    <glyph glyph-name="question" unicode="?" horiz-adv-x="367" 
d="M96 700q70 4 147 4q95 0 127 -32t19 -128l-8 -58q-6 -42 -25.5 -66.5t-65.5 -57.5q-14 -10 -32.5 -22.5t-25 -17.5t-16 -13t-12.5 -13.5t-5.5 -13.5t-4.5 -20l-7 -50h-101l13 89q1 9 3.5 17.5t7.5 16t8.5 12.5t11.5 12.5t12 11t15 12t15 11.5q8 7 24.5 20t22 17.5
t15.5 14t13.5 16t7.5 16.5t5 21l8 57q3 27 -6 34.5t-33 7.5h-147zM51 0l20 143h111l-20 -143h-111z" />
    <glyph glyph-name="at" unicode="@" horiz-adv-x="547" 
d="M325 533q84 0 106.5 -27t12.5 -97l-42 -295q-2 -16 -1.5 -26t6.5 -14.5t20 -4.5q28 0 37 11.5t13 40.5l51 361q8 62 -9.5 91.5t-83.5 29.5h-213q-65 0 -92 -30t-35 -91l-56 -401q-8 -61 10 -91t83 -30h283l-4 -27h-283q-78 0 -106 32.5t-16 115.5l56 401q12 83 49 116
t115 33h213q78 0 106 -32.5t16 -116.5l-52 -368q-8 -52 -29.5 -68.5t-58.5 -16.5q-62 0 -82.5 5t-36.5 25q-13 -10 -17.5 -13t-18.5 -7.5t-31 -4.5h-17q-59 0 -86 25t-18 86l16 117q9 62 37.5 86.5t85.5 24.5h80l5 35q3 23 -3.5 30t-23.5 7h-128l12 84q96 4 130 4zM248 127
h10q22 0 42 13l22 155h-50q-31 0 -36 -43l-13 -90q-5 -35 25 -35z" />
    <glyph glyph-name="A" unicode="A" horiz-adv-x="449" 
d="M394 700l21 -700h-131l-4 129h-135l-39 -129h-132l217 700h203zM274 592l-100 -344h110l-4 344h-6z" />
    <glyph glyph-name="B" unicode="B" horiz-adv-x="417" 
d="M-1 0l98 700h188q104 0 134 -30.5t17 -125.5l-9 -67q-9 -63 -29 -88.5t-62 -31.5q42 -5 55.5 -30t4.5 -89l-12 -82q-6 -45 -15.5 -72.5t-21.5 -45t-36.5 -25.5t-49.5 -10.5t-72 -2.5h-190zM173 304l-28 -195h59q22 0 33 7.5t14 32.5l16 115q3 24 -6 32t-31 8h-57z
M213 591l-26 -185h60q20 0 30.5 8t13.5 32l14 105q3 24 -5.5 32t-29.5 8h-57z" />
    <glyph glyph-name="C" unicode="C" 
d="M257 594q-23 0 -35 -8.5t-15 -35.5l-57 -400q-3 -27 6 -35.5t32 -8.5h179l-15 -106q-125 -3 -179 -3q-106 0 -136.5 31t-17.5 128l55 388q13 97 52.5 128t145.5 31l179 -3l-15 -107z" />
    <glyph glyph-name="D" unicode="D" horiz-adv-x="423" 
d="M-1 0l98 700h197q103 0 133.5 -31t17.5 -125l-55 -388q-13 -94 -52 -125t-142 -31h-197zM279 591h-65l-69 -482h66q21 0 32.5 8t14.5 33l57 403q3 24 -5.5 31t-30.5 7z" />
    <glyph glyph-name="E" unicode="E" horiz-adv-x="362" 
d="M174 302l-26 -190h182l-16 -112h-313l98 700h313l-15 -112h-182l-25 -174h165l-16 -112h-165z" />
    <glyph glyph-name="F" unicode="F" horiz-adv-x="349" 
d="M171 278l-39 -278h-131l98 700h308l-15 -112h-177l-27 -188h160l-17 -122h-160z" />
    <glyph glyph-name="G" unicode="G" horiz-adv-x="426" 
d="M272 704l158 -4l-15 -105h-158q-23 0 -34.5 -8t-15.5 -36l-57 -406q-3 -27 5.5 -33.5t32.5 -6.5h22q17 0 25 1.5t15.5 10.5t9.5 28l19 133h-61l16 109h191l-32 -231q-13 -97 -53 -128.5t-145 -31.5h-22q-105 0 -136 31.5t-18 128.5l55 388q13 98 53 129.5t145 30.5z" />
    <glyph glyph-name="H" unicode="H" horiz-adv-x="435" 
d="M1 0l98 700h131l-40 -286h111l40 286h132l-98 -700h-132l41 295h-111l-41 -295h-131z" />
    <glyph glyph-name="I" unicode="I" horiz-adv-x="193" 
d="M1 0l98 700h131l-98 -700h-131z" />
    <glyph glyph-name="J" unicode="J" horiz-adv-x="283" 
d="M-24 0l16 112h76q22 0 33 7.5t14 31.5l77 550h132l-74 -523q-9 -66 -21 -102.5t-36.5 -55.5t-54.5 -23t-87 -1z" />
    <glyph glyph-name="K" unicode="K" horiz-adv-x="432" 
d="M171 274l-39 -274h-131l98 700h131l-40 -288h42l115 288h141l-149 -354l58 -346h-145l-34 274h-47z" />
    <glyph glyph-name="L" unicode="L" horiz-adv-x="335" 
d="M1 0l98 700h131l-82 -588h167l-16 -112h-298z" />
    <glyph glyph-name="M" unicode="M" horiz-adv-x="571" 
d="M180 399l-50 -399h-129l98 700h162l36 -399h1l148 399h162l-98 -700h-130l63 399h-3l-136 -399h-96l-24 399h-4z" />
    <glyph glyph-name="N" unicode="N" horiz-adv-x="438" 
d="M99 700h132l67 -386h1l54 386h123l-98 -700h-137l-59 367h-1l-52 -367h-128z" />
    <glyph glyph-name="O" unicode="O" horiz-adv-x="432" 
d="M272 704h25q105 0 136 -31.5t18 -128.5l-55 -388q-13 -97 -53 -128.5t-145 -31.5h-25q-105 0 -136 32t-18 128l55 388q13 97 53 128.5t145 31.5zM190 105h22q24 0 36 8t16 36l57 402q3 28 -6.5 36t-33.5 8h-22q-24 0 -36.5 -8t-16.5 -36l-56 -402q-4 -28 6 -36t34 -8z
" />
    <glyph glyph-name="P" unicode="P" horiz-adv-x="407" 
d="M-1 0l98 700h195q102 0 132 -30.5t17 -121.5l-24 -169q-13 -93 -51 -122.5t-140 -29.5h-64l-32 -227h-131zM275 591h-62l-36 -255h62q20 0 31 6.5t14 29.5l26 182q3 23 -5.5 30t-29.5 7z" />
    <glyph glyph-name="Q" unicode="Q" horiz-adv-x="432" 
d="M272 704h25q105 0 136 -31.5t18 -128.5l-55 -388q-8 -61 -25.5 -94t-50.5 -48l25 -99h-98l-35 81h-14h-25q-105 0 -136 32t-18 128l55 388q13 97 53 128.5t145 31.5zM190 105h22q24 0 36 8t16 36l57 402q3 28 -6.5 36t-33.5 8h-22q-24 0 -36.5 -8t-16.5 -36l-56 -402
q-4 -28 6 -36t34 -8z" />
    <glyph glyph-name="R" unicode="R" horiz-adv-x="413" 
d="M-1 0l98 700h199q102 0 131.5 -30t16.5 -122l-14 -98q-9 -64 -30.5 -88.5t-62.5 -28.5q42 -7 55.5 -33.5t3.5 -92.5l-29 -207h-132l31 224q7 50 -31 50h-66l-39 -274h-131zM213 591l-30 -211h68q13 0 20.5 2t14 10.5t8.5 24.5l19 139q3 23 -5 29t-29 6h-66z" />
    <glyph glyph-name="S" unicode="S" horiz-adv-x="413" 
d="M267 704l169 -4l-15 -109h-170q-24 0 -35.5 -7.5t-15.5 -34.5l-7 -49q-5 -35 6 -47.5t53 -27.5l63 -23q36 -13 52.5 -23t27.5 -38t4 -75l-15 -110q-13 -97 -53.5 -128.5t-145.5 -31.5l-188 4l15 109h189q24 0 35.5 7.5t14.5 34.5l11 78q1 8 1 14.5t-0.5 11t-3.5 9t-5 7
t-8 5.5t-9.5 4.5t-11.5 5.5t-13 6l-67 25q-29 12 -42 19t-28.5 22t-19.5 39t1 59l12 88q13 98 53 129.5t146 30.5z" />
    <glyph glyph-name="T" unicode="T" horiz-adv-x="390" 
d="M314 588l-83 -588h-132l83 588h-124l16 112h380l-16 -112h-124z" />
    <glyph glyph-name="U" unicode="U" horiz-adv-x="432" 
d="M95 700h133l-77 -549q-4 -29 2.5 -37.5t28.5 -8.5h38q22 0 31.5 8.5t13.5 37.5l77 549h130l-76 -544q-13 -97 -53 -128.5t-145 -31.5h-25q-105 0 -136 31.5t-18 128.5z" />
    <glyph glyph-name="V" unicode="V" horiz-adv-x="471" 
d="M531 700l-218 -700h-215l-22 700h132l17 -544h3l171 544h132z" />
    <glyph glyph-name="W" unicode="W" horiz-adv-x="631" 
d="M75 700h133l-29 -526h1l135 526h138l-14 -526h1l119 526h134l-171 -700h-204l23 393h-1l-87 -393h-203z" />
    <glyph glyph-name="X" unicode="X" horiz-adv-x="420" 
d="M479 700l-167 -348l73 -352h-132l-41 234l-105 -234h-132l171 352l-70 348h132l37 -228l103 228h131z" />
    <glyph glyph-name="Y" unicode="Y" horiz-adv-x="432" 
d="M120 0l37 265l-84 435h132l39 -281l119 281h132l-206 -435l-37 -265h-132z" />
    <glyph glyph-name="Z" unicode="Z" horiz-adv-x="363" 
d="M72 587l16 113h327l-15 -112l-254 -476h187l-16 -112h-331l16 113l263 474h-193z" />
    <glyph glyph-name="bracketleft" unicode="[" horiz-adv-x="276" 
d="M206 645l-90 -640h122l-13 -92h-233l116 824h233l-13 -92h-122z" />
    <glyph glyph-name="backslash" unicode="\" horiz-adv-x="260" 
d="M173 739l39 -773h-78l-40 773h79z" />
    <glyph glyph-name="bracketright" unicode="]" horiz-adv-x="276" 
d="M102 5l90 640h-122l13 92h233l-116 -824h-233l13 92h122z" />
    <glyph glyph-name="asciicircum" unicode="^" horiz-adv-x="434" 
d="M326 458l-53 153l-97 -153h-97l161 242h90l92 -242h-96z" />
    <glyph glyph-name="underscore" unicode="_" horiz-adv-x="442" 
d="M-51 -123l12 86h451l-12 -86h-451z" />
    <glyph glyph-name="grave" unicode="`" horiz-adv-x="500" 
d="M345 712l34 -102h-83l-77 102h126z" />
    <glyph glyph-name="a" unicode="a" horiz-adv-x="392" 
d="M96 476l15 101q86 3 149 4q67 0 99 -14.5t38 -46t-1 -80.5l-62 -440q-115 -4 -185 -4h-24q-67 0 -95 28.5t-18 99.5l20 143q10 71 43.5 99t99.5 28h90l6 44q3 25 -3.5 31.5t-25.5 6.5h-146zM156 263l-16 -119q-3 -20 2 -29t22 -9h19q39 0 42 1l27 196h-60q-30 0 -36 -40z
" />
    <glyph glyph-name="b" unicode="b" 
d="M-2 0l102 723h125l-21 -146h96q66 0 91.5 -26t15.5 -97l-47 -330q-10 -71 -46 -99.5t-103 -28.5h-25zM252 471h-63l-51 -365h63q31 0 37 38l41 290q4 37 -27 37z" />
    <glyph glyph-name="c" unicode="c" horiz-adv-x="362" 
d="M224 476q-19 0 -28 -7.5t-12 -29.5l-42 -301q-3 -22 4 -30t25 -8h157l-15 -100q-112 -4 -156 -4q-97 -1 -124 31t-16 110l42 303q11 79 46.5 110t133.5 31l156 -4l-14 -101h-157z" />
    <glyph glyph-name="d" unicode="d" 
d="M16 124l46 330q10 71 42.5 97t99.5 26h96l20 146h125l-102 -723q-114 -4 -189 -4h-25q-67 0 -95 28.5t-18 99.5zM233 106l52 365h-63q-34 0 -38 -37l-41 -290q-6 -38 27 -38h63z" />
    <glyph glyph-name="e" unicode="e" horiz-adv-x="395" 
d="M239 581h22q97 0 124 -31.5t16 -109.5l-32 -226l-217 -3l-11 -75q-3 -22 4 -29.5t26 -7.5h162l-14 -99q-93 -3 -162 -4q-97 -1 -124 31t-16 110l42 303q11 78 47 109.5t133 31.5zM225 478q-19 0 -28.5 -8t-12.5 -29l-18 -126h95l18 126q3 22 -4 29.5t-25 7.5h-25z" />
    <glyph glyph-name="f" unicode="f" horiz-adv-x="253" 
d="M299 577l-15 -106h-75l-66 -471h-125l66 471h-40l15 106h40l4 26q12 81 44 104t121 23l54 -5l-14 -99h-55q-21 0 -25 -24l-4 -25h75z" />
    <glyph glyph-name="g" unicode="g" 
d="M61 447q19 134 156 134h20l187 -4l-78 -557q-12 -88 -46 -115.5t-134 -25.5l-147 7l14 97h150q19 0 26.5 7t11.5 29l3 18h-90q-67 0 -95 28t-18 99zM239 146l45 325h-63q-32 0 -38 -37l-35 -250q-6 -38 28 -38h63z" />
    <glyph glyph-name="h" unicode="h" 
d="M217 0l61 434q6 37 -27 37h-62l-66 -471h-125l102 723h125l-21 -146h98q66 0 90 -26t14 -97l-64 -454h-125z" />
    <glyph glyph-name="i" unicode="i" horiz-adv-x="181" 
d="M-1 0l81 577h124l-81 -577h-124zM84 617l13 97h128l-13 -97h-128z" />
    <glyph glyph-name="j" unicode="j" horiz-adv-x="181" 
d="M-2 -126l-64 64q4 4 15 16t14 15.5t11 13.5t10.5 15t7.5 15.5t7.5 20t5.5 23.5t5 30l69 490h125l-71 -503q-10 -74 -41.5 -115t-93.5 -85zM83 617l14 97h128l-14 -97h-128z" />
    <glyph glyph-name="k" unicode="k" horiz-adv-x="411" 
d="M241 0l-38 246h-45l-35 -246h-125l102 723h125l-51 -358h44l99 212h136l-129 -272l53 -305h-136z" />
    <glyph glyph-name="l" unicode="l" horiz-adv-x="181" 
d="M-2 0l102 723h125l-102 -723h-125z" />
    <glyph glyph-name="m" unicode="m" horiz-adv-x="613" 
d="M-2 0l81 577q339 4 405 4h22q67 0 95 -28t18 -99l-64 -454h-125l61 434q6 37 -27 37h-59l-66 -471h-125l63 447q2 17 0 20.5t-16 3.5h-72l-66 -471h-125z" />
    <glyph glyph-name="n" unicode="n" 
d="M217 0l61 434q6 37 -27 37h-62l-66 -471h-125l81 577q117 4 190 4h24q67 0 95 -28t18 -99l-64 -454h-125z" />
    <glyph glyph-name="o" unicode="o" horiz-adv-x="399" 
d="M239 581h25q97 0 124 -31.5t16 -109.5l-42 -303q-11 -78 -47 -109.5t-133 -31.5h-25q-97 0 -124 31.5t-16 109.5l42 303q11 78 47 109.5t133 31.5zM171 100h25q19 0 28.5 8t12.5 30l43 302q4 22 -3.5 29.5t-26.5 7.5h-25q-19 0 -28 -7.5t-12 -29.5l-43 -302
q-4 -22 3.5 -30t25.5 -8z" />
    <glyph glyph-name="p" unicode="p" 
d="M-19 -123l98 700q103 4 190 4h25q66 0 94 -31t18 -103l-45 -323q-10 -72 -43 -99t-99 -27h-25l-71 2l-17 -123h-125zM252 471h-63l-51 -365h63q33 0 37 38l41 290q4 37 -27 37z" />
    <glyph glyph-name="q" unicode="q" 
d="M16 124l45 323q19 134 156 134h20l188 -4l-99 -700h-125l17 123q-43 -2 -67 -2h-26q-67 0 -93 27t-16 99zM233 106l52 365h-63q-33 0 -39 -37l-40 -290q-6 -38 27 -38h63z" />
    <glyph glyph-name="r" unicode="r" horiz-adv-x="288" 
d="M-2 0l67 478q7 49 42 76t83 27h12l134 -6l-14 -97q-85 -9 -104 -10t-25.5 -8t-8.5 -25l-61 -435h-125z" />
    <glyph glyph-name="s" unicode="s" horiz-adv-x="369" 
d="M231 581l146 -4l-14 -101h-147q-19 0 -28 -6t-12 -27l-5 -34q-3 -20 4 -27t35 -20l69 -26q44 -17 61.5 -41t10.5 -75l-11 -77q-11 -80 -47.5 -113.5t-132.5 -32.5l-165 3l14 101h165q35 0 41 40l8 55q3 5 1 11t-1.5 9t-3 6.5l-5 5t-6.5 4.5t-7.5 4t-9 4t-9.5 4l-67 29
q-13 5 -19 8t-17 9t-14.5 11t-11.5 14t-8 18.5t-3 24.5t2 31l7 51q11 79 46 110.5t134 30.5z" />
    <glyph glyph-name="t" unicode="t" horiz-adv-x="262" 
d="M300 577l-15 -106h-75l-48 -340q-4 -24 19 -24h62l-15 -107l-63 -4q-87 -3 -113.5 22t-15.5 106l49 347h-40l15 106h40l18 127h125l-18 -127h75z" />
    <glyph glyph-name="u" unicode="u" horiz-adv-x="399" 
d="M204 577l-61 -433q-6 -38 26 -38h62l67 471h125l-82 -577q-127 -4 -188 -4h-25q-67 0 -95 28.5t-18 99.5l64 453h125z" />
    <glyph glyph-name="v" unicode="v" horiz-adv-x="404" 
d="M452 577l-186 -577h-188l-24 577h131l5 -426h6l124 426h132z" />
    <glyph glyph-name="w" unicode="w" horiz-adv-x="584" 
d="M291 0l11 280h-3l-66 -280h-181l2 577h131l-16 -421h2l108 421h128l-10 -421h1l103 421h132l-160 -577h-182z" />
    <glyph glyph-name="x" unicode="x" horiz-adv-x="391" 
d="M436 577l-130 -286l49 -291h-132l-28 204l-87 -204h-131l131 291l-50 286h131l31 -196l84 196h132z" />
    <glyph glyph-name="y" unicode="y" horiz-adv-x="405" 
d="M75 7l-26 570h131l10 -426h3l138 426h120l-230 -704h-118l44 134h-72z" />
    <glyph glyph-name="z" unicode="z" horiz-adv-x="352" 
d="M326 108l-15 -108h-331l15 106l235 362h-177l15 109h322l-15 -108l-233 -361h184z" />
    <glyph glyph-name="braceleft" unicode="{" horiz-adv-x="256" 
d="M16 279l9 66l7 3q7 2 13 5t15.5 10t16.5 14.5t13.5 20t8.5 27.5l21 156q9 63 51 106q30 29 88 70l39 -35q-43 -56 -44 -58q-13 -22 -22 -83l-22 -156q-10 -73 -76 -114q54 -43 44 -112l-23 -161q-9 -62 -1 -85q2 -8 14 -31t14 -26l-49 -35q-46 37 -68 69q-30 43 -21 108
l23 161q-1 13 0 22t-4.5 18t-8.5 13.5t-11 10.5t-11 7.5t-10 5.5z" />
    <glyph glyph-name="bar" unicode="|" horiz-adv-x="232" 
d="M27 -73l117 833h98l-117 -833h-98z" />
    <glyph glyph-name="braceright" unicode="}" horiz-adv-x="256" 
d="M266 345l-9 -66l-6 -3q-6 -2 -9.5 -4t-11 -6t-12 -8t-11 -10.5t-10.5 -13t-8 -16t-5 -19.5l-23 -161q-9 -66 -51 -108q-29 -31 -88 -69l-39 35q4 6 14 18.5l18 22.5t12 16q14 25 23 85l23 161q10 71 74 112q-53 42 -43 114l22 156q8 58 1 83q-4 12 -28 58l49 35
q48 -41 68 -70q30 -43 21 -106l-22 -156q-2 -15 0.5 -27.5t7.5 -20.5t12.5 -14.5t13.5 -9.5t11 -5z" />
    <glyph glyph-name="asciitilde" unicode="~" horiz-adv-x="400" 
d="M265 305l-96 62l-10 -61h-69l17 116h70l100 -37l6 36h68l-17 -116h-69z" />
    <glyph glyph-name="uni00A0" unicode="&#xa0;" horiz-adv-x="130" 
 />
    <glyph glyph-name="exclamdown" unicode="&#xa1;" horiz-adv-x="187" 
d="M29 192l71 295h64l-10 -295l-27 -192h-125zM86 557l20 143h112l-20 -143h-112z" />
    <glyph glyph-name="cent" unicode="&#xa2;" horiz-adv-x="362" 
d="M120 -66l10 72q-79 3 -101 35.5t-11 105.5l42 303q11 74 41 105t111 35l9 68h92l-9 -68l92 -3l-14 -101h-157q-19 0 -28 -7.5t-12 -29.5l-42 -301q-3 -22 4 -30t25 -8h157l-15 -100q-48 -2 -92 -3l-10 -73h-92z" />
    <glyph glyph-name="sterling" unicode="&#xa3;" horiz-adv-x="450" 
d="M284 597q-23 0 -34.5 -8t-15.5 -36l-25 -181h174l-14 -104h-175l-23 -162h249l-15 -106h-427l15 106h46l23 162h-46l14 104h47l23 166q14 98 54.5 132t144.5 34l162 -4l-14 -103h-163z" />
    <glyph glyph-name="yen" unicode="&#xa5;" horiz-adv-x="432" 
d="M47 286l9 62h85l-68 352h132l39 -281l119 281h132l-167 -352h84l-9 -62h-104l-10 -21l-3 -24h111l-9 -62h-111l-25 -179h-132l25 179h-113l9 62h113l3 24l-4 21h-106z" />
    <glyph glyph-name="section" unicode="&#xa7;" horiz-adv-x="450" 
d="M429 614h-169q-22 0 -32.5 -7t-14.5 -33l-1 -6q-5 -33 26 -43q8 -2 30 -6q8 -2 13 -3l86 -14q55 -9 74 -34.5t11 -80.5l-11 -80q-7 -49 -55 -78q16 -32 7 -85l-1 -6q-8 -48 -21.5 -77t-39.5 -43t-55 -18t-80 -4l-163 4l12 86h174q14 0 21 0.5t16 4t14.5 12t8.5 22.5l2 9
q4 7 1 13.5t-3.5 10.5t-7 8t-9.5 5.5t-12 4t-14 3.5l-15 3t-16 3l-86 15q-55 10 -74 35.5t-12 79.5l10 71q8 58 55 85q-15 36 -7 84l1 6q13 82 57.5 112.5t138.5 30.5l153 -4zM292 403l-73 16q-53 10 -62 19q-6 -8 -9 -26l-9 -63q-4 -27 3.5 -32.5t46.5 -14.5l75 -17
q57 -13 65 -21q6 6 8 22l10 67q4 27 -6 35t-49 15z" />
    <glyph glyph-name="dieresis" unicode="&#xa8;" horiz-adv-x="500" 
d="M202 616l13 96h83l-13 -96h-83zM329 616l13 96h83l-13 -96h-83z" />
    <glyph glyph-name="copyright" unicode="&#xa9;" horiz-adv-x="529" 
d="M300 529q-11 0 -17.5 -1.5t-12.5 -8.5t-8 -22l-42 -297q-3 -20 4.5 -27t24.5 -7h134l-11 -77q-91 -3 -139 -3q-76 -1 -97.5 26.5t-10.5 102.5l38 265q11 75 39.5 102t104.5 27l137 -4l-10 -76h-134zM255 700h152q150 0 130 -141l-59 -417q-19 -142 -170 -142h-152
q-70 0 -104.5 34.5t-24.5 107.5l59 417q20 141 169 141zM158 16h152q133 0 150 126l59 417q18 126 -114 126h-152q-131 0 -149 -126l-59 -417q-18 -126 113 -126z" />
    <glyph glyph-name="ordfeminine" unicode="&#xaa;" horiz-adv-x="262" 
d="M122 700q61 4 88 4q58 1 73 -18t9 -67l-37 -264q-51 -1 -103 -1h-15q-41 0 -61.5 16.5t-14.5 58.5l13 91q6 44 26.5 60t60.5 16h52l3 21q2 15 -2 19t-15 4h-85zM246 309l-10 -72h-204l10 72h204zM154 420h34l17 121h-34q-19 0 -22 -27l-10 -73q-3 -21 15 -21z" />
    <glyph glyph-name="guillemotleft" unicode="&#xab;" horiz-adv-x="332" 
d="M215 106l-58 176l2 13l108 176h89l-93 -176l-2 -13l43 -176h-89zM18 282l2 13l122 176h83l-100 -176l-2 -13l50 -176h-83z" />
    <glyph glyph-name="registered" unicode="&#xae;" horiz-adv-x="346" 
d="M192 465l-15 -102h-53l38 270h78q42 0 54 -12t7 -50l-5 -37q-4 -26 -12.5 -35.5t-28.5 -11.5q20 -3 26 -13.5t2 -36.5l-10 -74h-55l11 80q4 22 -10 22h-27zM234 588h-25l-11 -80h27q14 0 16 16l7 48q2 16 -14 16zM224 300h-72q-53 0 -75 21t-14 78l29 203q8 57 36 77.5
t81 20.5h72q53 0 75.5 -20.5t14.5 -77.5l-29 -203q-8 -57 -36.5 -78t-81.5 -21zM154 311h72q49 0 73 18.5t31 69.5l29 203q7 51 -12.5 69t-67.5 18h-72q-47 0 -71.5 -18t-31.5 -69l-29 -203q-7 -50 12 -69t67 -19z" />
    <glyph glyph-name="macron" unicode="&#xaf;" horiz-adv-x="500" 
d="M196 624l10 72h224l-10 -72h-224z" />
    <glyph glyph-name="degree" unicode="&#xb0;" horiz-adv-x="263" 
d="M183 704h37q61 0 74.5 -22t5.5 -82l-20 -146q-8 -59 -28.5 -81.5t-81.5 -22.5h-37q-62 0 -75.5 22.5t-5.5 81.5l20 146q8 59 28.5 81.5t82.5 22.5zM208 639h-32q-15 0 -19 -5.5t-7 -21.5l-23 -168q-3 -15 -0.5 -22t17.5 -7h32q15 0 20.5 6.5t7.5 22.5l23 168q2 9 1.5 15
t-5.5 9t-15 3z" />
    <glyph glyph-name="plusminus" unicode="&#xb1;" horiz-adv-x="347" 
d="M42 392l12 86h113l15 111h86l-15 -111h114l-12 -86h-114l-16 -113h-86l16 113h-113zM7 145l12 86h313l-12 -86h-313z" />
    <glyph glyph-name="acute" unicode="&#xb4;" horiz-adv-x="500" 
d="M232 610l63 102h126l-106 -102h-83z" />
    <glyph glyph-name="paragraph" unicode="&#xb6;" horiz-adv-x="443" 
d="M165 0l43 308h-71q-44 0 -63.5 31.5t-13.5 71.5l26 187q6 41 32.5 71.5t73.5 30.5h288l-98 -700h-75l86 613h-67l-86 -613h-75z" />
    <glyph glyph-name="periodcentered" unicode="&#xb7;" horiz-adv-x="178" 
d="M41 268l20 139h112l-20 -139h-112z" />
    <glyph glyph-name="cedilla" unicode="&#xb8;" horiz-adv-x="500" 
d="M260 0l-42 -122h-92l64 122h70z" />
    <glyph glyph-name="ordmasculine" unicode="&#xba;" horiz-adv-x="268" 
d="M195 704h17q58 0 74 -20t9 -68l-24 -175q-6 -47 -28.5 -67t-80.5 -20h-17q-57 0 -73 20t-10 67l24 175q6 47 28.5 67.5t80.5 20.5zM154 418h17q21 0 23 22l25 177q1 13 -2.5 17t-14.5 4h-17q-19 0 -23 -21l-24 -177q-4 -22 16 -22zM33 237l10 72h209l-10 -72h-209z" />
    <glyph glyph-name="guillemotright" unicode="&#xbb;" horiz-adv-x="332" 
d="M196 282l-108 -176h-90l93 176l2 13l-44 176h90l59 -176zM336 295l-2 -13l-121 -176h-83l99 176l2 13l-50 176h83z" />
    <glyph glyph-name="questiondown" unicode="&#xbf;" horiz-adv-x="367" 
d="M315 0q-69 -4 -146 -4q-96 0 -129 32.5t-18 127.5l9 58q6 42 25.5 66.5t65.5 57.5q14 10 32.5 22.5t25 17.5t16 13t12.5 13.5t5.5 13.5t4.5 20l7 50h101l-13 -89q-1 -9 -3.5 -17.5t-7.5 -16t-8.5 -12.5t-11.5 -12.5t-12 -11t-15 -12t-15 -11.5q-8 -7 -24.5 -20t-22 -17.5
t-15.5 -14t-13.5 -16t-7.5 -16.5t-5 -21l-8 -57q-3 -27 6 -34.5t33 -7.5h147zM361 700l-20 -143h-111l20 143h111z" />
    <glyph glyph-name="Agrave" unicode="&#xc0;" horiz-adv-x="427" 
d="M384 700l21 -700h-131l-4 129h-135l-39 -129h-132l217 700h203zM264 592l-100 -344h110l-4 344h-6zM296 835l34 -102h-83l-77 102h126z" />
    <glyph glyph-name="Aacute" unicode="&#xc1;" horiz-adv-x="427" 
d="M384 700l21 -700h-131l-4 129h-135l-39 -129h-132l217 700h203zM264 592l-100 -344h110l-4 344h-6zM237 733l63 102h126l-106 -102h-83z" />
    <glyph glyph-name="Acircumflex" unicode="&#xc2;" horiz-adv-x="427" 
d="M384 700l21 -700h-131l-4 129h-135l-39 -129h-132l217 700h203zM264 592l-100 -344h110l-4 344h-6zM164 733l79 102h118l51 -102h-84l-33 49l-47 -49h-84z" />
    <glyph glyph-name="Atilde" unicode="&#xc3;" horiz-adv-x="427" 
d="M384 700l21 -700h-131l-4 129h-135l-39 -129h-132l217 700h203zM264 592l-100 -344h110l-4 344h-6zM332 737l-80 51l-9 -50h-56l14 96h57l83 -31l6 30h57l-15 -96h-57z" />
    <glyph glyph-name="Adieresis" unicode="&#xc4;" horiz-adv-x="427" 
d="M384 700l21 -700h-131l-4 129h-135l-39 -129h-132l217 700h203zM264 592l-100 -344h110l-4 344h-6zM182 739l13 96h83l-13 -96h-83zM309 739l13 96h83l-13 -96h-83z" />
    <glyph glyph-name="Aring" unicode="&#xc5;" horiz-adv-x="427" 
d="M384 700l21 -700h-131l-4 129h-135l-39 -129h-132l217 700h203zM264 592l-100 -344h110l-4 344h-6zM296 874h22q44 0 55 -14t5 -54l-2 -15q-6 -40 -20.5 -54t-58.5 -14h-22q-43 0 -54.5 14.5t-5.5 53.5l2 15q5 40 20.5 54t58.5 14zM312 838h-19q-21 0 -27 -5t-8 -24
l-3 -21q-3 -18 1.5 -23.5t25.5 -5.5h19q21 0 27 5.5t9 23.5l3 21q2 19 -2.5 24t-25.5 5z" />
    <glyph glyph-name="AE" unicode="&#xc6;" horiz-adv-x="649" 
d="M288 0l19 135h-140l-59 -135h-130l319 700h402l-15 -112h-181l-25 -174h164l-16 -113h-164l-26 -188h181l-16 -113h-313zM359 588l-146 -340h110l48 340h-12z" />
    <glyph glyph-name="Ccedilla" unicode="&#xc7;" 
d="M256 594q-23 0 -35 -8.5t-15 -35.5l-56 -400q-4 -27 5 -35.5t32 -8.5h179l-14 -106q-72 -2 -130 -3l-41 -119h-92l63 119q-92 2 -119.5 34t-14.5 125l55 388q13 97 52.5 128t145.5 31l179 -3l-15 -107z" />
    <glyph glyph-name="Egrave" unicode="&#xc8;" horiz-adv-x="362" 
d="M174 302l-26 -190h182l-16 -112h-313l98 700h313l-15 -112h-182l-25 -174h165l-16 -112h-165zM289 835l34 -102h-83l-77 102h126z" />
    <glyph glyph-name="Eacute" unicode="&#xc9;" horiz-adv-x="362" 
d="M203 733l63 102h126l-106 -102h-83zM174 302l-26 -190h182l-16 -112h-313l98 700h313l-15 -112h-182l-25 -174h165l-16 -112h-165z" />
    <glyph glyph-name="Ecircumflex" unicode="&#xca;" horiz-adv-x="362" 
d="M136 733l79 102h118l51 -102h-84l-33 49l-47 -49h-84zM174 302l-26 -190h182l-16 -112h-313l98 700h313l-15 -112h-182l-25 -174h165l-16 -112h-165z" />
    <glyph glyph-name="Edieresis" unicode="&#xcb;" horiz-adv-x="362" 
d="M159 739l13 96h83l-13 -96h-83zM286 739l13 96h83l-13 -96h-83zM174 302l-26 -190h182l-16 -112h-313l98 700h313l-15 -112h-182l-25 -174h165l-16 -112h-165z" />
    <glyph glyph-name="Igrave" unicode="&#xcc;" horiz-adv-x="193" 
d="M1 0l98 700h131l-98 -700h-131zM187 835l34 -102h-83l-77 102h126z" />
    <glyph glyph-name="Iacute" unicode="&#xcd;" horiz-adv-x="193" 
d="M1 0l98 700h131l-98 -700h-131zM118 733l63 102h126l-106 -102h-83z" />
    <glyph glyph-name="Icircumflex" unicode="&#xce;" horiz-adv-x="193" 
d="M1 0l98 700h131l-98 -700h-131zM46 733l79 102h118l51 -102h-84l-33 49l-47 -49h-84z" />
    <glyph glyph-name="Idieresis" unicode="&#xcf;" horiz-adv-x="193" 
d="M1 0l98 700h131l-98 -700h-131zM66 739l13 96h83l-13 -96h-83zM193 739l13 96h83l-13 -96h-83z" />
    <glyph glyph-name="Eth" unicode="&#xd0;" horiz-adv-x="441" 
d="M16 310l13 92h45l42 298h197q103 0 133 -31t17 -125l-55 -388q-13 -94 -52 -125t-142 -31h-197l44 310h-45zM297 591h-65l-27 -189h49l-13 -92h-49l-28 -201h66q21 0 32 8t14 33l57 403q3 24 -5.5 31t-30.5 7z" />
    <glyph glyph-name="Ntilde" unicode="&#xd1;" horiz-adv-x="438" 
d="M99 700h132l67 -386h1l54 386h123l-98 -700h-137l-59 367h-1l-52 -367h-128zM336 737l-80 51l-9 -50h-56l14 96h57l83 -31l6 30h57l-15 -96h-57z" />
    <glyph glyph-name="Ograve" unicode="&#xd2;" horiz-adv-x="432" 
d="M272 704h25q105 0 136 -31.5t18 -128.5l-55 -388q-13 -97 -53 -128.5t-145 -31.5h-25q-105 0 -136 32t-18 128l55 388q13 97 53 128.5t145 31.5zM190 105h22q24 0 36 8t16 36l57 402q3 28 -6.5 36t-33.5 8h-22q-24 0 -36.5 -8t-16.5 -36l-56 -402q-4 -28 6 -36t34 -8z
M303 835l34 -102h-83l-77 102h126z" />
    <glyph glyph-name="Oacute" unicode="&#xd3;" horiz-adv-x="432" 
d="M236 733l63 102h126l-106 -102h-83zM272 704h25q105 0 136 -31.5t18 -128.5l-55 -388q-13 -97 -53 -128.5t-145 -31.5h-25q-105 0 -136 32t-18 128l55 388q13 97 53 128.5t145 31.5zM190 105h22q24 0 36 8t16 36l57 402q3 28 -6.5 36t-33.5 8h-22q-24 0 -36.5 -8
t-16.5 -36l-56 -402q-4 -28 6 -36t34 -8z" />
    <glyph glyph-name="Ocircumflex" unicode="&#xd4;" horiz-adv-x="432" 
d="M166 733l79 102h118l51 -102h-84l-33 49l-47 -49h-84zM272 704h25q105 0 136 -31.5t18 -128.5l-55 -388q-13 -97 -53 -128.5t-145 -31.5h-25q-105 0 -136 32t-18 128l55 388q13 97 53 128.5t145 31.5zM190 105h22q24 0 36 8t16 36l57 402q3 28 -6.5 36t-33.5 8h-22
q-24 0 -36.5 -8t-16.5 -36l-56 -402q-4 -28 6 -36t34 -8z" />
    <glyph glyph-name="Otilde" unicode="&#xd5;" horiz-adv-x="432" 
d="M272 704h25q105 0 136 -31.5t18 -128.5l-55 -388q-13 -97 -53 -128.5t-145 -31.5h-25q-105 0 -136 32t-18 128l55 388q13 97 53 128.5t145 31.5zM190 105h22q24 0 36 8t16 36l57 402q3 28 -6.5 36t-33.5 8h-22q-24 0 -36.5 -8t-16.5 -36l-56 -402q-4 -28 6 -36t34 -8z
M334 737l-80 51l-9 -50h-56l14 96h57l83 -31l6 30h57l-15 -96h-57z" />
    <glyph glyph-name="Odieresis" unicode="&#xd6;" horiz-adv-x="432" 
d="M186 739l13 96h83l-13 -96h-83zM313 739l13 96h83l-13 -96h-83zM272 704h25q105 0 136 -31.5t18 -128.5l-55 -388q-13 -97 -53 -128.5t-145 -31.5h-25q-105 0 -136 32t-18 128l55 388q13 97 53 128.5t145 31.5zM190 105h22q24 0 36 8t16 36l57 402q3 28 -6.5 36t-33.5 8
h-22q-24 0 -36.5 -8t-16.5 -36l-56 -402q-4 -28 6 -36t34 -8z" />
    <glyph glyph-name="multiply" unicode="&#xd7;" horiz-adv-x="340" 
d="M297 505l53 -60l-99 -87l71 -84l-68 -61l-74 84l-98 -86l-51 62l98 85l-71 84l69 61l71 -84z" />
    <glyph glyph-name="Oslash" unicode="&#xd8;" horiz-adv-x="432" 
d="M272 704h25q53 0 87 -7l19 39h70l-35 -69q24 -32 12 -123l-54 -388q-13 -97 -53.5 -128.5t-145.5 -31.5h-25q-59 0 -90 8l-20 -38h-69l38 68q-24 33 -12 122l54 388q13 97 53 128.5t146 31.5zM206 551l-41 -295l156 315q-3 24 -41 24h-22q-24 0 -36 -8t-16 -36zM190 105
h22q24 0 36 8t16 36l41 290l-156 -313q4 -21 41 -21z" />
    <glyph glyph-name="Ugrave" unicode="&#xd9;" horiz-adv-x="432" 
d="M95 700h133l-77 -549q-4 -29 2.5 -37.5t28.5 -8.5h38q22 0 31.5 8.5t13.5 37.5l77 549h130l-76 -544q-13 -97 -53 -128.5t-145 -31.5h-25q-105 0 -136 31.5t-18 128.5zM317 835l33 -102h-83l-76 102h126z" />
    <glyph glyph-name="Uacute" unicode="&#xda;" horiz-adv-x="432" 
d="M238 733l64 102h126l-107 -102h-83zM95 700h133l-77 -549q-4 -29 2.5 -37.5t28.5 -8.5h38q22 0 31.5 8.5t13.5 37.5l77 549h130l-76 -544q-13 -97 -53 -128.5t-145 -31.5h-25q-105 0 -136 31.5t-18 128.5z" />
    <glyph glyph-name="Ucircumflex" unicode="&#xdb;" horiz-adv-x="432" 
d="M166 733l80 102h118l50 -102h-84l-33 49l-47 -49h-84zM95 700h133l-77 -549q-4 -29 2.5 -37.5t28.5 -8.5h38q22 0 31.5 8.5t13.5 37.5l77 549h130l-76 -544q-13 -97 -53 -128.5t-145 -31.5h-25q-105 0 -136 31.5t-18 128.5z" />
    <glyph glyph-name="Udieresis" unicode="&#xdc;" horiz-adv-x="432" 
d="M186 739l14 96h83l-14 -96h-83zM313 739l14 96h83l-14 -96h-83zM95 700h133l-77 -549q-4 -29 2.5 -37.5t28.5 -8.5h38q22 0 31.5 8.5t13.5 37.5l77 549h130l-76 -544q-13 -97 -53 -128.5t-145 -31.5h-25q-105 0 -136 31.5t-18 128.5z" />
    <glyph glyph-name="Yacute" unicode="&#xdd;" horiz-adv-x="432" 
d="M120 0l37 265l-84 435h132l39 -281l119 281h132l-206 -435l-37 -265h-132zM243 733l63 102h126l-106 -102h-83z" />
    <glyph glyph-name="Thorn" unicode="&#xde;" horiz-adv-x="407" 
d="M-1 0l98 700h131l-15 -112h64q102 0 131.5 -30.5t16.5 -122.5l-23 -165q-13 -92 -50.5 -122t-140.5 -30h-64l-17 -118h-131zM261 480h-64l-35 -254h64q19 0 29 8.5t14 31.5l25 174q4 23 -4.5 31.5t-28.5 8.5z" />
    <glyph glyph-name="germandbls" unicode="&#xdf;" horiz-adv-x="438" 
d="M269 598q-22 0 -33 -7.5t-14 -32.5l-78 -558h-125l68 486l-44 10l11 81h50l3 19q6 49 47.5 76.5t95.5 27.5h51q104 0 133.5 -30.5t16.5 -125.5l-8 -57q-9 -64 -30 -89t-71 -30q53 -5 69.5 -29.5t6.5 -91.5l-13 -91q-6 -45 -15.5 -72.5t-21.5 -45t-36.5 -25.5t-49.5 -10.5
t-72 -2.5h-36l14 99h43q21 0 32 9t15 34l18 129q6 43 -36 43h-42l14 102h35q21 0 32 9t15 34l14 99q3 25 -5.5 32.5t-29.5 7.5h-24z" />
    <glyph glyph-name="agrave" unicode="&#xe0;" horiz-adv-x="392" 
d="M96 476l15 101q86 3 149 4q67 0 99 -14.5t38 -46t-1 -80.5l-62 -440q-115 -4 -185 -4h-24q-67 0 -95 28.5t-18 99.5l20 143q10 71 43.5 99t99.5 28h90l6 44q3 25 -3.5 31.5t-25.5 6.5h-146zM156 263l-16 -119q-3 -20 2 -29t22 -9h19q39 0 42 1l27 196h-60q-30 0 -36 -40z
M287 712l33 -102h-83l-76 102h126z" />
    <glyph glyph-name="aacute" unicode="&#xe1;" horiz-adv-x="392" 
d="M96 476l15 101q86 3 149 4q67 0 99 -14.5t38 -46t-1 -80.5l-62 -440q-115 -4 -185 -4h-24q-67 0 -95 28.5t-18 99.5l20 143q10 71 43.5 99t99.5 28h90l6 44q3 25 -3.5 31.5t-25.5 6.5h-146zM156 263l-16 -119q-3 -20 2 -29t22 -9h19q39 0 42 1l27 196h-60q-30 0 -36 -40z
M203 610l64 102h126l-107 -102h-83z" />
    <glyph glyph-name="acircumflex" unicode="&#xe2;" horiz-adv-x="392" 
d="M96 476l15 101q86 3 149 4q67 0 99 -14.5t38 -46t-1 -80.5l-62 -440q-115 -4 -185 -4h-24q-67 0 -95 28.5t-18 99.5l20 143q10 71 43.5 99t99.5 28h90l6 44q3 25 -3.5 31.5t-25.5 6.5h-146zM156 263l-16 -119q-3 -20 2 -29t22 -9h19q39 0 42 1l27 196h-60q-30 0 -36 -40z
M132 610l80 102h118l50 -102h-84l-33 49l-47 -49h-84z" />
    <glyph glyph-name="atilde" unicode="&#xe3;" horiz-adv-x="392" 
d="M96 476l15 101q86 3 149 4q67 0 99 -14.5t38 -46t-1 -80.5l-62 -440q-115 -4 -185 -4h-24q-67 0 -95 28.5t-18 99.5l20 143q10 71 43.5 99t99.5 28h90l6 44q3 25 -3.5 31.5t-25.5 6.5h-146zM156 263l-16 -119q-3 -20 2 -29t22 -9h19q39 0 42 1l27 196h-60q-30 0 -36 -40z
M300 614l-80 51l-9 -50h-56l14 96h57l83 -31l6 30h57l-15 -96h-57z" />
    <glyph glyph-name="adieresis" unicode="&#xe4;" horiz-adv-x="392" 
d="M96 476l15 101q86 3 149 4q67 0 99 -14.5t38 -46t-1 -80.5l-62 -440q-115 -4 -185 -4h-24q-67 0 -95 28.5t-18 99.5l20 143q10 71 43.5 99t99.5 28h90l6 44q3 25 -3.5 31.5t-25.5 6.5h-146zM156 263l-16 -119q-3 -20 2 -29t22 -9h19q39 0 42 1l27 196h-60q-30 0 -36 -40z
M149 616l14 96h83l-14 -96h-83zM276 616l14 96h83l-14 -96h-83z" />
    <glyph glyph-name="aring" unicode="&#xe5;" horiz-adv-x="392" 
d="M96 476l15 101q86 3 149 4q67 0 99 -14.5t38 -46t-1 -80.5l-62 -440q-115 -4 -185 -4h-24q-67 0 -95 28.5t-18 99.5l20 143q10 71 43.5 99t99.5 28h90l6 44q3 25 -3.5 31.5t-25.5 6.5h-146zM260 755h22q44 0 55 -14t5 -54l-2 -15q-6 -39 -21 -53.5t-59 -14.5h-22
q-43 0 -54 14t-5 54l2 15q5 40 20.5 54t58.5 14zM156 263l-16 -119q-3 -20 2 -29t22 -9h19q39 0 42 1l27 196h-60q-30 0 -36 -40zM276 719h-19q-21 0 -27.5 -5.5t-8.5 -23.5l-2 -21q-2 -19 2 -24t24 -5h19q21 0 27.5 5.5t8.5 23.5l3 21q2 19 -2 24t-25 5z" />
    <glyph glyph-name="ae" unicode="&#xe6;" horiz-adv-x="614" 
d="M458 581h21q97 0 124 -31.5t16 -109.5l-30 -216l-218 -3l-12 -87q-3 -22 4.5 -29.5t26.5 -7.5h154l-14 -97q-101 -4 -154 -4q-61 -1 -89 6.5t-39 32.5q-49 -39 -99 -39h-24q-67 0 -95 28.5t-18 99.5l18 130q10 71 43.5 99t99.5 28h97l9 61q2 21 -4.5 28t-22.5 7h-155
l14 100q111 4 155 4q69 0 91 -26q31 26 101 26zM234 127l23 161h-64q-33 0 -40 -46l-13 -98q-6 -38 27 -38h16q15 0 51 21zM444 481q-35 0 -40 -32l-18 -129h96l17 123q3 22 -4.5 30t-26.5 8h-24z" />
    <glyph glyph-name="ccedilla" unicode="&#xe7;" horiz-adv-x="362" 
d="M223 476q-19 0 -28 -7.5t-12 -29.5l-42 -301q-3 -22 4.5 -30t25.5 -8h157l-15 -100q-62 -2 -112 -3l-41 -119h-92l62 118q-80 3 -102 35.5t-12 105.5l42 303q11 79 46.5 110t133.5 31l157 -4l-15 -101h-157z" />
    <glyph glyph-name="egrave" unicode="&#xe8;" horiz-adv-x="395" 
d="M239 581h22q97 0 124 -31.5t16 -109.5l-32 -226l-217 -3l-11 -75q-3 -22 4 -29.5t26 -7.5h162l-14 -99q-93 -3 -162 -4q-97 -1 -124 31t-16 110l42 303q11 78 47 109.5t133 31.5zM225 478q-19 0 -28.5 -8t-12.5 -29l-18 -126h95l18 126q3 22 -4 29.5t-25 7.5h-25z
M271 712l34 -102h-83l-77 102h126z" />
    <glyph glyph-name="eacute" unicode="&#xe9;" horiz-adv-x="395" 
d="M204 610l63 102h126l-106 -102h-83zM239 581h22q97 0 124 -31.5t16 -109.5l-32 -226l-217 -3l-11 -75q-3 -22 4 -29.5t26 -7.5h162l-14 -99q-93 -3 -162 -4q-97 -1 -124 31t-16 110l42 303q11 78 47 109.5t133 31.5zM225 478q-19 0 -28.5 -8t-12.5 -29l-18 -126h95
l18 126q3 22 -4 29.5t-25 7.5h-25z" />
    <glyph glyph-name="ecircumflex" unicode="&#xea;" horiz-adv-x="395" 
d="M131 610l79 102h118l51 -102h-84l-33 49l-47 -49h-84zM239 581h22q97 0 124 -31.5t16 -109.5l-32 -226l-217 -3l-11 -75q-3 -22 4 -29.5t26 -7.5h162l-14 -99q-93 -3 -162 -4q-97 -1 -124 31t-16 110l42 303q11 78 47 109.5t133 31.5zM225 478q-19 0 -28.5 -8t-12.5 -29
l-18 -126h95l18 126q3 22 -4 29.5t-25 7.5h-25z" />
    <glyph glyph-name="edieresis" unicode="&#xeb;" horiz-adv-x="395" 
d="M151 616l13 96h83l-13 -96h-83zM278 616l13 96h83l-13 -96h-83zM239 581h22q97 0 124 -31.5t16 -109.5l-32 -226l-217 -3l-11 -75q-3 -22 4 -29.5t26 -7.5h162l-14 -99q-93 -3 -162 -4q-97 -1 -124 31t-16 110l42 303q11 78 47 109.5t133 31.5zM225 478q-19 0 -28.5 -8
t-12.5 -29l-18 -126h95l18 126q3 22 -4 29.5t-25 7.5h-25z" />
    <glyph glyph-name="igrave" unicode="&#xec;" horiz-adv-x="181" 
d="M-1 0l81 577h124l-81 -577h-124zM157 712l34 -102h-83l-77 102h126z" />
    <glyph glyph-name="iacute" unicode="&#xed;" horiz-adv-x="181" 
d="M103 610l63 102h126l-106 -102h-83zM-1 0l81 577h124l-81 -577h-124z" />
    <glyph glyph-name="icircumflex" unicode="&#xee;" horiz-adv-x="181" 
d="M24 610l79 102h118l51 -102h-84l-33 49l-47 -49h-84zM-1 0l81 577h124l-81 -577h-124z" />
    <glyph glyph-name="idieresis" unicode="&#xef;" horiz-adv-x="181" 
d="M44 616l13 96h83l-13 -96h-83zM171 616l13 96h83l-13 -96h-83zM-1 0l81 577h124l-81 -577h-124z" />
    <glyph glyph-name="eth" unicode="&#xf0;" horiz-adv-x="399" 
d="M181 -4h-25q-97 0 -124 31t-16 108l43 312q10 73 43 103.5t97 30.5q86 -3 99 -4l1 6q6 38 1 49l-68 -25l-14 49l71 26q-10 18 -40 53l87 28q34 -26 50 -43l64 23l14 -49l-51 -19q18 -38 11 -88l-63 -452q-11 -77 -47 -108t-133 -31zM171 100h25q19 0 28 7.5t12 29.5
l47 334h-62q-34 0 -38 -37l-42 -297q-3 -21 4.5 -29t25.5 -8z" />
    <glyph glyph-name="ntilde" unicode="&#xf1;" 
d="M217 0l61 434q6 37 -27 37h-62l-66 -471h-125l81 577q117 4 190 4h24q67 0 95 -28t18 -99l-64 -454h-125zM299 614l-80 51l-9 -50h-56l15 96h57l83 -31l6 30h57l-16 -96h-57z" />
    <glyph glyph-name="ograve" unicode="&#xf2;" horiz-adv-x="399" 
d="M239 581h25q97 0 124 -31.5t16 -109.5l-42 -303q-11 -78 -47 -109.5t-133 -31.5h-25q-97 0 -124 31.5t-16 109.5l42 303q11 78 47 109.5t133 31.5zM171 100h25q19 0 28.5 8t12.5 30l43 302q4 22 -3.5 29.5t-26.5 7.5h-25q-19 0 -28 -7.5t-12 -29.5l-43 -302
q-4 -22 3.5 -30t25.5 -8zM279 712l34 -102h-83l-77 102h126z" />
    <glyph glyph-name="oacute" unicode="&#xf3;" horiz-adv-x="399" 
d="M207 610l63 102h126l-106 -102h-83zM239 581h25q97 0 124 -31.5t16 -109.5l-42 -303q-11 -78 -47 -109.5t-133 -31.5h-25q-97 0 -124 31.5t-16 109.5l42 303q11 78 47 109.5t133 31.5zM171 100h25q19 0 28.5 8t12.5 30l43 302q4 22 -3.5 29.5t-26.5 7.5h-25
q-19 0 -28 -7.5t-12 -29.5l-43 -302q-4 -22 3.5 -30t25.5 -8z" />
    <glyph glyph-name="ocircumflex" unicode="&#xf4;" horiz-adv-x="399" 
d="M133 610l79 102h118l51 -102h-84l-33 49l-47 -49h-84zM239 581h25q97 0 124 -31.5t16 -109.5l-42 -303q-11 -78 -47 -109.5t-133 -31.5h-25q-97 0 -124 31.5t-16 109.5l42 303q11 78 47 109.5t133 31.5zM171 100h25q19 0 28.5 8t12.5 30l43 302q4 22 -3.5 29.5t-26.5 7.5
h-25q-19 0 -28 -7.5t-12 -29.5l-43 -302q-4 -22 3.5 -30t25.5 -8z" />
    <glyph glyph-name="otilde" unicode="&#xf5;" horiz-adv-x="399" 
d="M239 581h25q97 0 124 -31.5t16 -109.5l-42 -303q-11 -78 -47 -109.5t-133 -31.5h-25q-97 0 -124 31.5t-16 109.5l42 303q11 78 47 109.5t133 31.5zM171 100h25q19 0 28.5 8t12.5 30l43 302q4 22 -3.5 29.5t-26.5 7.5h-25q-19 0 -28 -7.5t-12 -29.5l-43 -302
q-4 -22 3.5 -30t25.5 -8zM301 614l-80 51l-9 -50h-56l14 96h57l83 -31l6 30h57l-15 -96h-57z" />
    <glyph glyph-name="odieresis" unicode="&#xf6;" horiz-adv-x="399" 
d="M153 616l13 96h83l-13 -96h-83zM280 616l13 96h83l-13 -96h-83zM239 581h25q97 0 124 -31.5t16 -109.5l-42 -303q-11 -78 -47 -109.5t-133 -31.5h-25q-97 0 -124 31.5t-16 109.5l42 303q11 78 47 109.5t133 31.5zM171 100h25q19 0 28.5 8t12.5 30l43 302q4 22 -3.5 29.5
t-26.5 7.5h-25q-19 0 -28 -7.5t-12 -29.5l-43 -302q-4 -22 3.5 -30t25.5 -8z" />
    <glyph glyph-name="divide" unicode="&#xf7;" horiz-adv-x="341" 
d="M31 316l12 86h313l-12 -86h-313zM166 445l13 93h83l-13 -93h-83zM129 179l13 93h83l-13 -93h-83z" />
    <glyph glyph-name="oslash" unicode="&#xf8;" horiz-adv-x="399" 
d="M239 581h25q35 0 67 -5l23 41h64l-38 -61q37 -29 24 -116l-43 -303q-11 -78 -46.5 -109.5t-132.5 -31.5h-25q-49 0 -81 8l-22 -33h-63l37 60q-23 30 -12 106l43 303q11 78 47 109.5t133 31.5zM171 100h25q19 0 28.5 8t12.5 30l35 242l-132 -254q0 -26 31 -26zM185 440
l-29 -202l120 231q-7 8 -26 8h-25q-18 0 -27 -7.5t-13 -29.5z" />
    <glyph glyph-name="ugrave" unicode="&#xf9;" horiz-adv-x="399" 
d="M204 577l-61 -433q-6 -38 26 -38h62l67 471h125l-82 -577q-127 -4 -188 -4h-25q-67 0 -95 28.5t-18 99.5l64 453h125zM280 712l33 -102h-83l-76 102h126z" />
    <glyph glyph-name="uacute" unicode="&#xfa;" horiz-adv-x="399" 
d="M204 577l-61 -433q-6 -38 26 -38h62l67 471h125l-82 -577q-127 -4 -188 -4h-25q-67 0 -95 28.5t-18 99.5l64 453h125zM203 610l64 102h126l-107 -102h-83z" />
    <glyph glyph-name="ucircumflex" unicode="&#xfb;" horiz-adv-x="399" 
d="M204 577l-61 -433q-6 -38 26 -38h62l67 471h125l-82 -577q-127 -4 -188 -4h-25q-67 0 -95 28.5t-18 99.5l64 453h125zM132 610l80 102h118l50 -102h-84l-33 49l-47 -49h-84z" />
    <glyph glyph-name="udieresis" unicode="&#xfc;" horiz-adv-x="399" 
d="M204 577l-61 -433q-6 -38 26 -38h62l67 471h125l-82 -577q-127 -4 -188 -4h-25q-67 0 -95 28.5t-18 99.5l64 453h125zM153 616l14 96h83l-14 -96h-83zM280 616l14 96h83l-14 -96h-83z" />
    <glyph glyph-name="yacute" unicode="&#xfd;" horiz-adv-x="405" 
d="M75 7l-26 570h131l10 -426h3l138 426h120l-230 -704h-118l44 134h-72zM212 610l63 102h126l-106 -102h-83z" />
    <glyph glyph-name="thorn" unicode="&#xfe;" 
d="M-19 -123l116 824h125l-18 -124h106q63 0 84.5 -31t10.5 -105l-41 -297q-11 -76 -42 -111t-93 -35h-25l-81 2l-17 -123h-125zM252 471h-63l-51 -365h63q33 0 37 38l41 290q4 37 -27 37z" />
    <glyph glyph-name="ydieresis" unicode="&#xff;" horiz-adv-x="405" 
d="M75 7l-26 570h131l10 -426h3l138 426h120l-230 -704h-118l44 134h-72zM152 616l14 96h83l-14 -96h-83zM279 616l14 96h83l-14 -96h-83z" />
    <glyph glyph-name="Amacron" unicode="&#x100;" horiz-adv-x="427" 
d="M384 700l21 -700h-131l-4 129h-135l-39 -129h-132l217 700h203zM264 592l-100 -344h110l-4 344h-6zM178 747l10 72h224l-10 -72h-224z" />
    <glyph glyph-name="amacron" unicode="&#x101;" horiz-adv-x="392" 
d="M96 476l15 101q86 3 149 4q67 0 99 -14.5t38 -46t-1 -80.5l-62 -440q-115 -4 -185 -4h-24q-67 0 -95 28.5t-18 99.5l20 143q10 71 43.5 99t99.5 28h90l6 44q3 25 -3.5 31.5t-25.5 6.5h-146zM156 263l-16 -119q-3 -20 2 -29t22 -9h19q39 0 42 1l27 196h-60q-30 0 -36 -40z
M150 624l10 72h224l-10 -72h-224z" />
    <glyph glyph-name="Abreve" unicode="&#x102;" horiz-adv-x="427" 
d="M384 700l21 -700h-131l-4 129h-135l-39 -129h-132l217 700h203zM264 592l-100 -344h110l-4 344h-6zM307 730h-38q-60 0 -76 20t-7 75l2 12h76l-3 -20q-4 -25 19 -25h32q24 0 28 25l3 20h74l-2 -12q-9 -56 -29.5 -75.5t-78.5 -19.5z" />
    <glyph glyph-name="abreve" unicode="&#x103;" horiz-adv-x="392" 
d="M96 476l15 101q86 3 149 4q67 0 99 -14.5t38 -46t-1 -80.5l-62 -440q-115 -4 -185 -4h-24q-67 0 -95 28.5t-18 99.5l20 143q10 71 43.5 99t99.5 28h90l6 44q3 25 -3.5 31.5t-25.5 6.5h-146zM279 607h-38q-60 0 -76 20t-7 75l2 12h76l-3 -20q-4 -25 20 -25h32q23 0 27 25
l3 20h74l-2 -12q-9 -56 -29.5 -75.5t-78.5 -19.5zM156 263l-16 -119q-3 -20 2 -29t22 -9h19q39 0 42 1l27 196h-60q-30 0 -36 -40z" />
    <glyph glyph-name="Aogonek" unicode="&#x104;" horiz-adv-x="427" 
d="M374 -48l-2 -16q-4 -37 -17 -54t-49 -17h-58q-38 0 -48 12t-4 46l2 12q2 16 9.5 26t14 14.5t23.5 12.5l30 12h-1l-4 129h-135l-39 -129h-132l217 700h203l21 -700h-57l-55 -30q-3 -2 -8 -5t-7 -4t-5 -3t-4 -3t-2.5 -3t-2 -3.5t-0.5 -4.5l-1 -5q-2 -9 -0.5 -12.5
t10.5 -3.5h22q8 0 9.5 1.5t2.5 9.5q1 2 1 3l2 15h64zM264 592l-100 -344h110l-4 344h-6z" />
    <glyph glyph-name="aogonek" unicode="&#x105;" horiz-adv-x="392" 
d="M328 -35l-2 -16q-4 -37 -17 -54t-49 -17h-58q-38 0 -48 12t-4 46l2 12q5 32 38 48h-41h-24q-67 0 -95 28.5t-18 99.5l20 143q10 71 43.5 99t99.5 28h90l6 44q3 25 -3.5 31.5t-25.5 6.5h-146l15 101q86 3 149 4q67 0 99 -14.5t38 -46t-1 -80.5l-62 -440q-27 -1 -60 -2
l-27 -15q-18 -10 -22.5 -13.5t-5.5 -12.5l-1 -5q-1 -5 -1 -6.5v-4t1 -3.5t3 -1.5t6 -0.5h22q8 0 9.5 1.5t2.5 9.5q1 2 1 3l2 15h64zM156 263l-16 -119q-3 -20 2 -29t22 -9h19q39 0 42 1l27 196h-60q-30 0 -36 -40z" />
    <glyph glyph-name="Cacute" unicode="&#x106;" 
d="M245 733l64 102h126l-107 -102h-83zM257 594q-23 0 -35 -8.5t-15 -35.5l-57 -400q-3 -27 6 -35.5t32 -8.5h179l-15 -106q-125 -3 -179 -3q-106 0 -136.5 31t-17.5 128l55 388q13 97 52.5 128t145.5 31l179 -3l-15 -107z" />
    <glyph glyph-name="cacute" unicode="&#x107;" horiz-adv-x="368" 
d="M215 610l63 102h126l-106 -102h-83zM224 476q-19 0 -28 -7.5t-12 -29.5l-42 -301q-3 -22 4 -30t25 -8h157l-15 -100q-112 -4 -156 -4q-97 -1 -124 31t-16 110l42 303q11 79 46.5 110t133.5 31l156 -4l-14 -101h-157z" />
    <glyph glyph-name="Cdotaccent" unicode="&#x10a;" 
d="M257 594q-23 0 -35 -8.5t-15 -35.5l-57 -400q-3 -27 6 -35.5t32 -8.5h179l-15 -106q-125 -3 -179 -3q-106 0 -136.5 31t-17.5 128l55 388q13 97 52.5 128t145.5 31l179 -3l-15 -107zM251 743l13 92h80l-13 -92h-80z" />
    <glyph glyph-name="cdotaccent" unicode="&#x10b;" horiz-adv-x="362" 
d="M224 476q-19 0 -28 -7.5t-12 -29.5l-42 -301q-3 -22 4 -30t25 -8h157l-15 -100q-112 -4 -156 -4q-97 -1 -124 31t-16 110l42 303q11 79 46.5 110t133.5 31l156 -4l-14 -101h-157zM218 620l12 92h80l-12 -92h-80z" />
    <glyph glyph-name="Ccaron" unicode="&#x10c;" 
d="M230 733l-50 102h84l33 -49l47 49h84l-80 -102h-118zM257 594q-23 0 -35 -8.5t-15 -35.5l-57 -400q-3 -27 6 -35.5t32 -8.5h179l-15 -106q-125 -3 -179 -3q-106 0 -136.5 31t-17.5 128l55 388q13 97 52.5 128t145.5 31l179 -3l-15 -107z" />
    <glyph glyph-name="ccaron" unicode="&#x10d;" horiz-adv-x="362" 
d="M197 610l-51 102h84l34 -49l46 49h84l-79 -102h-118zM224 476q-19 0 -28 -7.5t-12 -29.5l-42 -301q-3 -22 4 -30t25 -8h157l-15 -100q-112 -4 -156 -4q-97 -1 -124 31t-16 110l42 303q11 79 46.5 110t133.5 31l156 -4l-14 -101h-157z" />
    <glyph glyph-name="Dcaron" unicode="&#x10e;" horiz-adv-x="423" 
d="M226 733l-51 102h84l33 -49l47 49h84l-79 -102h-118zM-1 0l98 700h197q103 0 133.5 -31t17.5 -125l-55 -388q-13 -94 -52 -125t-142 -31h-197zM279 591h-65l-69 -482h66q21 0 32.5 8t14.5 33l57 403q3 24 -5.5 31t-30.5 7z" />
    <glyph glyph-name="dcaron" unicode="&#x10f;" horiz-adv-x="404" 
d="M16 124l46 330q10 71 42.5 97t99.5 26h96l20 146h125l-102 -723q-114 -4 -189 -4h-25q-67 0 -95 28.5t-18 99.5zM233 106l52 365h-63q-34 0 -38 -37l-41 -290q-6 -38 27 -38h63zM456 635l12 89h68l-11 -77q-3 -27 -15.5 -46.5t-39.5 -49.5l-27 14q6 10 12 19l9 13.5t6 10
t5 11.5t3 16h-22z" />
    <glyph glyph-name="Dcroat" unicode="&#x110;" horiz-adv-x="441" 
d="M16 310l13 92h45l42 298h197q103 0 133 -31t17 -125l-55 -388q-13 -94 -52 -125t-142 -31h-197l44 310h-45zM297 591h-65l-27 -189h49l-13 -92h-49l-28 -201h66q21 0 32 8t14 33l57 403q3 24 -5.5 31t-30.5 7z" />
    <glyph glyph-name="dcroat" unicode="&#x111;" horiz-adv-x="409" 
d="M234 625l9 59h72l5 39h125l-5 -39h29l-9 -59h-29l-88 -625q-114 -4 -189 -4h-25q-67 0 -95 28.5t-18 99.5l46 330q10 71 42.5 97t99.5 26h96l6 48h-72zM233 106l52 365h-63q-34 0 -38 -37l-41 -290q-6 -38 27 -38h63z" />
    <glyph glyph-name="Emacron" unicode="&#x112;" horiz-adv-x="362" 
d="M149 747l10 72h224l-10 -72h-224zM174 302l-26 -190h182l-16 -112h-313l98 700h313l-15 -112h-182l-25 -174h165l-16 -112h-165z" />
    <glyph glyph-name="emacron" unicode="&#x113;" horiz-adv-x="395" 
d="M239 581h22q97 0 124 -31.5t16 -109.5l-32 -226l-217 -3l-11 -75q-3 -22 4 -29.5t26 -7.5h162l-14 -99q-93 -3 -162 -4q-97 -1 -124 31t-16 110l42 303q11 78 47 109.5t133 31.5zM225 478q-19 0 -28.5 -8t-12.5 -29l-18 -126h95l18 126q3 22 -4 29.5t-25 7.5h-25z
M145 624l10 72h224l-10 -72h-224z" />
    <glyph glyph-name="Ebreve" unicode="&#x114;" horiz-adv-x="362" 
d="M174 302l-26 -190h182l-16 -112h-313l98 700h313l-15 -112h-182l-25 -174h165l-16 -112h-165zM280 730h-38q-60 0 -76 20t-7 75l2 12h76l-3 -20q-4 -25 19 -25h32q24 0 28 25l3 20h74l-2 -12q-9 -56 -29.5 -75.5t-78.5 -19.5z" />
    <glyph glyph-name="ebreve" unicode="&#x115;" horiz-adv-x="395" 
d="M239 581h22q97 0 124 -31.5t16 -109.5l-32 -226l-217 -3l-11 -75q-3 -22 4 -29.5t26 -7.5h162l-14 -99q-93 -3 -162 -4q-97 -1 -124 31t-16 110l42 303q11 78 47 109.5t133 31.5zM225 478q-19 0 -28.5 -8t-12.5 -29l-18 -126h95l18 126q3 22 -4 29.5t-25 7.5h-25z
M274 607h-38q-60 0 -76 20t-7 75l2 12h76l-3 -20q-4 -25 19 -25h32q24 0 28 25l3 20h74l-2 -12q-9 -56 -29.5 -75.5t-78.5 -19.5z" />
    <glyph glyph-name="Edotaccent" unicode="&#x116;" horiz-adv-x="362" 
d="M174 302l-26 -190h182l-16 -112h-313l98 700h313l-15 -112h-182l-25 -174h165l-16 -112h-165zM222 743l13 92h80l-13 -92h-80z" />
    <glyph glyph-name="edotaccent" unicode="&#x117;" horiz-adv-x="395" 
d="M239 581h22q97 0 124 -31.5t16 -109.5l-32 -226l-217 -3l-11 -75q-3 -22 4 -29.5t26 -7.5h162l-14 -99q-93 -3 -162 -4q-97 -1 -124 31t-16 110l42 303q11 78 47 109.5t133 31.5zM225 478q-19 0 -28.5 -8t-12.5 -29l-18 -126h95l18 126q3 22 -4 29.5t-25 7.5h-25z
M217 620l12 92h80l-12 -92h-80z" />
    <glyph glyph-name="Eogonek" unicode="&#x118;" horiz-adv-x="362" 
d="M174 302l-26 -190h182l-16 -112l-55 -30q-3 -2 -8 -5t-7 -4t-5 -3t-4 -3t-2.5 -3t-2 -3.5t-0.5 -4.5l-1 -5q-2 -9 -0.5 -12.5t10.5 -3.5h22q8 0 9.5 1.5t2.5 9.5q1 2 1 3l2 15h64l-2 -16q-4 -37 -17 -54t-49 -17h-58q-38 0 -48 12t-4 46l2 12q2 16 9.5 26t14 14.5
t23.5 12.5l30 12h-240l98 700h313l-15 -112h-182l-25 -174h165l-16 -112h-165z" />
    <glyph glyph-name="eogonek" unicode="&#x119;" horiz-adv-x="395" 
d="M239 581h22q97 0 124 -31.5t16 -109.5l-32 -226l-217 -3l-11 -75q-3 -22 4 -29.5t26 -7.5h162l-14 -99l-55 -30q-2 -1 -7 -4q-18 -11 -20 -18q-1 -2 -1 -4l-1 -5q-2 -9 -0.5 -12.5t10.5 -3.5h22q8 0 9.5 1.5t2.5 9.5q1 2 1 3l2 15h63l-2 -16q-4 -37 -17 -54t-49 -17h-58
q-38 0 -46 11.5t-5 46.5l1 12q1 16 9 26.5t14 14t25 12.5q12 4 24 10l-84 -2q-97 -2 -124 30.5t-16 110.5l42 303q11 78 47 109.5t133 31.5zM225 478q-19 0 -28.5 -8t-12.5 -29l-18 -126h95l18 126q3 22 -4 29.5t-25 7.5h-25z" />
    <glyph glyph-name="Ecaron" unicode="&#x11a;" horiz-adv-x="362" 
d="M203 733l-51 102h84l33 -49l47 49h84l-79 -102h-118zM174 302l-26 -190h182l-16 -112h-313l98 700h313l-15 -112h-182l-25 -174h165l-16 -112h-165z" />
    <glyph glyph-name="ecaron" unicode="&#x11b;" horiz-adv-x="395" 
d="M196 610l-51 102h84l34 -49l46 49h84l-79 -102h-118zM239 581h22q97 0 124 -31.5t16 -109.5l-32 -226l-217 -3l-11 -75q-3 -22 4 -29.5t26 -7.5h162l-14 -99q-93 -3 -162 -4q-97 -1 -124 31t-16 110l42 303q11 78 47 109.5t133 31.5zM225 478q-19 0 -28.5 -8t-12.5 -29
l-18 -126h95l18 126q3 22 -4 29.5t-25 7.5h-25z" />
    <glyph glyph-name="gcircumflex" unicode="&#x11d;" 
d="M61 447q19 134 156 134h20l187 -4l-78 -557q-12 -88 -46 -115.5t-134 -25.5l-147 7l14 97h150q19 0 26.5 7t11.5 29l3 18h-90q-67 0 -95 28t-18 99zM239 146l45 325h-63q-32 0 -38 -37l-35 -250q-6 -38 28 -38h63zM137 610l79 102h118l51 -102h-84l-33 49l-47 -49h-84z
" />
    <glyph glyph-name="Gbreve" unicode="&#x11e;" horiz-adv-x="426" 
d="M272 704l158 -4l-15 -105h-158q-23 0 -34.5 -8t-15.5 -36l-57 -406q-3 -27 5.5 -33.5t32.5 -6.5h22q17 0 25 1.5t15.5 10.5t9.5 28l19 133h-61l16 109h191l-32 -231q-13 -97 -53 -128.5t-145 -31.5h-22q-105 0 -136 31.5t-18 128.5l55 388q13 98 53 129.5t145 30.5z
M306 730h-38q-60 0 -76 20t-7 75l2 12h76l-3 -20q-4 -25 20 -25h32q23 0 27 25l3 20h74l-2 -12q-9 -56 -29.5 -75.5t-78.5 -19.5z" />
    <glyph glyph-name="gbreve" unicode="&#x11f;" 
d="M61 447q19 134 156 134h20l187 -4l-78 -557q-12 -88 -46 -115.5t-134 -25.5l-147 7l14 97h150q19 0 26.5 7t11.5 29l3 18h-90q-67 0 -95 28t-18 99zM239 146l45 325h-63q-32 0 -38 -37l-35 -250q-6 -38 28 -38h63zM275 607h-38q-59 0 -75 20t-7 75l2 12h76l-3 -20
q-4 -25 19 -25h32q24 0 28 25l3 20h74l-2 -12q-9 -56 -30 -75.5t-79 -19.5z" />
    <glyph glyph-name="Gdotaccent" unicode="&#x120;" horiz-adv-x="426" 
d="M272 704l158 -4l-15 -105h-158q-23 0 -34.5 -8t-15.5 -36l-57 -406q-3 -27 5.5 -33.5t32.5 -6.5h22q17 0 25 1.5t15.5 10.5t9.5 28l19 133h-61l16 109h191l-32 -231q-13 -97 -53 -128.5t-145 -31.5h-22q-105 0 -136 31.5t-18 128.5l55 388q13 98 53 129.5t145 30.5z
M249 743l13 92h80l-13 -92h-80z" />
    <glyph glyph-name="gdotaccent" unicode="&#x121;" 
d="M61 447q19 134 156 134h20l187 -4l-78 -557q-12 -88 -46 -115.5t-134 -25.5l-147 7l14 97h150q19 0 26.5 7t11.5 29l3 18h-90q-67 0 -95 28t-18 99zM239 146l45 325h-63q-32 0 -38 -37l-35 -250q-6 -38 28 -38h63zM218 620l13 92h80l-13 -92h-80z" />
    <glyph glyph-name="Gcommaaccent" unicode="&#x122;" horiz-adv-x="426" 
d="M127 -136l14 100h82l-12 -86q-4 -30 -17.5 -53t-43.5 -58l-32 18q6 10 13.5 22t9.5 15.5t5 11t4 13t3 17.5h-26zM272 704l158 -4l-15 -105h-158q-23 0 -34.5 -8t-15.5 -36l-57 -406q-3 -27 5.5 -33.5t32.5 -6.5h22q17 0 25 1.5t15.5 10.5t9.5 28l19 133h-61l16 109h191
l-32 -231q-13 -97 -53 -128.5t-145 -31.5h-22q-105 0 -136 31.5t-18 128.5l55 388q13 98 53 129.5t145 30.5z" />
    <glyph glyph-name="gcommaaccent" unicode="&#x123;" 
d="M61 447q19 134 156 134h20l187 -4l-78 -557q-12 -88 -46 -115.5t-134 -25.5l-147 7l14 97h150q19 0 26.5 7t11.5 29l3 18h-90q-67 0 -95 28t-18 99zM239 146l45 325h-63q-32 0 -38 -37l-35 -250q-6 -38 28 -38h63zM317 718l-14 -100h-82l12 86q4 30 17.5 53t44.5 58
l31 -18q-6 -10 -13.5 -22t-9.5 -15.5t-5 -11t-4 -13t-3 -17.5h26z" />
    <glyph glyph-name="Hbar" unicode="&#x126;" horiz-adv-x="449" 
d="M45 523l12 86h36l12 91h131l-12 -91h111l12 91h132l-12 -91h38l-12 -86h-38l-74 -523h-132l41 295h-111l-41 -295h-131l74 523h-36zM196 414h111l16 109h-111z" />
    <glyph glyph-name="hbar" unicode="&#x127;" horiz-adv-x="407" 
d="M56 607l9 59h33l8 57h125l-8 -57h87l-9 -59h-87l-4 -30h98q66 0 90 -26t14 -97l-64 -454h-125l61 434q6 37 -27 37h-62l-66 -471h-125l85 607h-33z" />
    <glyph glyph-name="Imacron" unicode="&#x12a;" horiz-adv-x="193" 
d="M1 0l98 700h131l-98 -700h-131zM60 747l10 72h224l-10 -72h-224z" />
    <glyph glyph-name="imacron" unicode="&#x12b;" horiz-adv-x="181" 
d="M-1 0l81 577h124l-81 -577h-124zM38 624l10 72h224l-10 -72h-224z" />
    <glyph glyph-name="Ibreve" unicode="&#x12c;" horiz-adv-x="193" 
d="M1 0l98 700h131l-98 -700h-131zM190 730h-38q-60 0 -76 20t-7 75l2 12h76l-3 -20q-4 -25 19 -25h32q24 0 28 25l3 20h74l-2 -12q-9 -56 -29.5 -75.5t-78.5 -19.5z" />
    <glyph glyph-name="ibreve" unicode="&#x12d;" horiz-adv-x="181" 
d="M-1 0l81 577h124l-81 -577h-124zM166 607h-38q-59 0 -75 20t-7 75l2 12h76l-3 -20q-4 -25 19 -25h32q24 0 28 25l3 20h74l-2 -12q-9 -56 -30 -75.5t-79 -19.5z" />
    <glyph glyph-name="Iogonek" unicode="&#x12e;" horiz-adv-x="193" 
d="M1 0l98 700h131l-98 -700h-28l-55 -30q-3 -2 -8 -5t-7 -4t-5 -3t-4 -3t-2.5 -3t-2 -3.5t-0.5 -4.5l-1 -5q-2 -9 -0.5 -12.5t10.5 -3.5h22q8 0 9.5 1.5t2.5 9.5q1 2 1 3l2 15h64l-2 -16q-4 -37 -17 -54t-49 -17h-58q-38 0 -48 12t-4 46l2 12q2 16 9.5 26t14 14.5
t23.5 12.5l30 12h-30z" />
    <glyph glyph-name="iogonek" unicode="&#x12f;" horiz-adv-x="181" 
d="M-1 0l81 577h124l-81 -577h-23l-55 -30q-3 -2 -8 -5t-7 -4t-5 -3t-4 -3t-2.5 -3t-2 -3.5t-0.5 -4.5l-1 -5q-2 -9 -0.5 -12.5t10.5 -3.5h22q8 0 9.5 1.5t2.5 9.5q1 2 1 3l2 15h64l-2 -16q-4 -37 -17 -54t-49 -17h-58q-38 0 -48 12t-4 46l2 12q2 16 9.5 26t14 14.5
t23.5 12.5l30 12h-28zM84 617l13 97h128l-13 -97h-128z" />
    <glyph glyph-name="Idotaccent" unicode="&#x130;" horiz-adv-x="193" 
d="M1 0l98 700h131l-98 -700h-131zM131 743l13 92h80l-13 -92h-80z" />
    <glyph glyph-name="dotlessi" unicode="&#x131;" horiz-adv-x="181" 
d="M-1 0l81 577h124l-81 -577h-124z" />
    <glyph glyph-name="Kcommaaccent" unicode="&#x136;" horiz-adv-x="432" 
d="M122 -136l14 100h82l-12 -86q-4 -30 -17.5 -52.5t-44.5 -58.5l-31 18q7 12 15.5 26t10.5 18t4.5 12.5t4.5 22.5h-26zM171 274l-39 -274h-131l98 700h131l-40 -288h42l115 288h141l-149 -354l58 -346h-145l-34 274h-47z" />
    <glyph glyph-name="kcommaaccent" unicode="&#x137;" horiz-adv-x="411" 
d="M107 -136l14 100h82l-12 -86q-4 -30 -17.5 -52.5t-44.5 -58.5l-31 18q7 12 15.5 26t10.5 18t4.5 12.5t4.5 22.5h-26zM241 0l-38 246h-45l-35 -246h-125l102 723h125l-51 -358h44l99 212h136l-129 -272l53 -305h-136z" />
    <glyph glyph-name="Lacute" unicode="&#x139;" horiz-adv-x="335" 
d="M123 733l63 102h126l-106 -102h-83zM1 0l98 700h131l-82 -588h167l-16 -112h-298z" />
    <glyph glyph-name="lacute" unicode="&#x13a;" horiz-adv-x="181" 
d="M122 746l63 102h126l-106 -102h-83zM-2 0l102 723h125l-102 -723h-125z" />
    <glyph glyph-name="Lcommaaccent" unicode="&#x13b;" horiz-adv-x="335" 
d="M84 -136l14 100h82l-12 -86q-4 -30 -17.5 -52.5t-44.5 -58.5l-31 18q7 12 15.5 26t10.5 18t4.5 12.5t4.5 22.5h-26zM1 0l98 700h131l-82 -588h167l-16 -112h-298z" />
    <glyph glyph-name="lcommaaccent" unicode="&#x13c;" horiz-adv-x="181" 
d="M2 -136l14 100h82l-12 -86q-4 -30 -17.5 -53t-44.5 -58l-31 18q6 10 13.5 22t9.5 15.5t5 11t4 13t3 17.5h-26zM-2 0l102 723h125l-102 -723h-125z" />
    <glyph glyph-name="Lcaron" unicode="&#x13d;" horiz-adv-x="335" 
d="M294 611l12 89h69l-11 -77q-3 -27 -15.5 -46t-40.5 -50l-27 14q6 10 12 19l9 13.5t6 10t5 11.5t3 16h-22zM1 0l98 700h131l-82 -588h167l-16 -112h-298z" />
    <glyph glyph-name="lcaron" unicode="&#x13e;" horiz-adv-x="180" 
d="M256 635l13 89h68l-11 -77q-3 -27 -15.5 -46t-40.5 -50l-27 14q6 10 12.5 19t9.5 13.5t6 10t4.5 11.5t2.5 16h-22zM-2 0l102 723h125l-102 -723h-125z" />
    <glyph glyph-name="Ldot" unicode="&#x13f;" horiz-adv-x="335" 
d="M1 0l98 700h131l-82 -588h167l-16 -112h-298zM225 312l13 92h80l-13 -92h-80z" />
    <glyph glyph-name="ldot" unicode="&#x140;" horiz-adv-x="267" 
d="M-2 0l102 723h125l-102 -723h-125zM194 312l13 92h80l-13 -92h-80z" />
    <glyph glyph-name="Lslash" unicode="&#x141;" horiz-adv-x="351" 
d="M6 242l15 109l50 23l45 326h131l-36 -261l78 36l-16 -110l-78 -36l-30 -217h167l-16 -112h-298l37 264z" />
    <glyph glyph-name="lslash" unicode="&#x142;" horiz-adv-x="196" 
d="M6 258l16 110l36 18l48 337h125l-38 -271l39 20l-16 -117l-40 -19l-47 -336h-125l39 275z" />
    <glyph glyph-name="Nacute" unicode="&#x143;" horiz-adv-x="438" 
d="M246 733l63 102h126l-106 -102h-83zM99 700h132l67 -386h1l54 386h123l-98 -700h-137l-59 367h-1l-52 -367h-128z" />
    <glyph glyph-name="nacute" unicode="&#x144;" 
d="M217 0l61 434q6 37 -27 37h-62l-66 -471h-125l81 577q117 4 190 4h24q67 0 95 -28t18 -99l-64 -454h-125zM200 610l63 102h126l-106 -102h-83z" />
    <glyph glyph-name="Ncommaaccent" unicode="&#x145;" horiz-adv-x="438" 
d="M123 -136l14 100h82l-12 -86q-4 -30 -17.5 -52.5t-44.5 -58.5l-31 18q7 12 15.5 26t10.5 18t4.5 12.5t4.5 22.5h-26zM99 700h132l67 -386h1l54 386h123l-98 -700h-137l-59 367h-1l-52 -367h-128z" />
    <glyph glyph-name="ncommaaccent" unicode="&#x146;" 
d="M217 0l61 434q6 37 -27 37h-62l-66 -471h-125l81 577q117 4 190 4h24q67 0 95 -28t18 -99l-64 -454h-125zM111 -136l14 100h82l-12 -86q-4 -30 -17.5 -52.5t-44.5 -58.5l-31 18q7 12 15.5 26t10.5 18t4.5 12.5t4.5 22.5h-26z" />
    <glyph glyph-name="Ncaron" unicode="&#x147;" horiz-adv-x="438" 
d="M234 733l-51 102h84l33 -49l47 49h84l-79 -102h-118zM99 700h132l67 -386h1l54 386h123l-98 -700h-137l-59 367h-1l-52 -367h-128z" />
    <glyph glyph-name="ncaron" unicode="&#x148;" 
d="M217 0l61 434q6 37 -27 37h-62l-66 -471h-125l81 577q117 4 190 4h24q67 0 95 -28t18 -99l-64 -454h-125zM198 610l-51 102h84l33 -49l47 49h84l-79 -102h-118z" />
    <glyph glyph-name="Omacron" unicode="&#x14c;" horiz-adv-x="432" 
d="M180 747l10 72h224l-10 -72h-224zM272 704h25q105 0 136 -31.5t18 -128.5l-55 -388q-13 -97 -53 -128.5t-145 -31.5h-25q-105 0 -136 32t-18 128l55 388q13 97 53 128.5t145 31.5zM190 105h22q24 0 36 8t16 36l57 402q3 28 -6.5 36t-33.5 8h-22q-24 0 -36.5 -8t-16.5 -36
l-56 -402q-4 -28 6 -36t34 -8z" />
    <glyph glyph-name="omacron" unicode="&#x14d;" horiz-adv-x="399" 
d="M147 624l10 72h224l-10 -72h-224zM239 581h25q97 0 124 -31.5t16 -109.5l-42 -303q-11 -78 -47 -109.5t-133 -31.5h-25q-97 0 -124 31.5t-16 109.5l42 303q11 78 47 109.5t133 31.5zM171 100h25q19 0 28.5 8t12.5 30l43 302q4 22 -3.5 29.5t-26.5 7.5h-25q-19 0 -28 -7.5
t-12 -29.5l-43 -302q-4 -22 3.5 -30t25.5 -8z" />
    <glyph glyph-name="Obreve" unicode="&#x14e;" horiz-adv-x="432" 
d="M272 704h25q105 0 136 -31.5t18 -128.5l-55 -388q-13 -97 -53 -128.5t-145 -31.5h-25q-105 0 -136 32t-18 128l55 388q13 97 53 128.5t145 31.5zM190 105h22q24 0 36 8t16 36l57 402q3 28 -6.5 36t-33.5 8h-22q-24 0 -36.5 -8t-16.5 -36l-56 -402q-4 -28 6 -36t34 -8z
M309 730h-38q-60 0 -76 20t-7 75l2 12h76l-3 -20q-4 -25 19 -25h32q24 0 28 25l3 20h74l-2 -12q-9 -56 -29.5 -75.5t-78.5 -19.5z" />
    <glyph glyph-name="obreve" unicode="&#x14f;" horiz-adv-x="399" 
d="M239 581h25q97 0 124 -31.5t16 -109.5l-42 -303q-11 -78 -47 -109.5t-133 -31.5h-25q-97 0 -124 31.5t-16 109.5l42 303q11 78 47 109.5t133 31.5zM171 100h25q19 0 28.5 8t12.5 30l43 302q4 22 -3.5 29.5t-26.5 7.5h-25q-19 0 -28 -7.5t-12 -29.5l-43 -302
q-4 -22 3.5 -30t25.5 -8zM276 607h-38q-60 0 -76 20t-7 75l2 12h76l-3 -20q-4 -25 19 -25h32q24 0 28 25l3 20h74l-2 -12q-9 -56 -29.5 -75.5t-78.5 -19.5z" />
    <glyph glyph-name="Ohungarumlaut" unicode="&#x150;" horiz-adv-x="432" 
d="M186 733l76 102h106l-99 -102h-83zM309 733l77 102h126l-119 -102h-84zM272 704h25q105 0 136 -31.5t18 -128.5l-55 -388q-13 -97 -53 -128.5t-145 -31.5h-25q-105 0 -136 32t-18 128l55 388q13 97 53 128.5t145 31.5zM190 105h22q24 0 36 8t16 36l57 402q3 28 -6.5 36
t-33.5 8h-22q-24 0 -36.5 -8t-16.5 -36l-56 -402q-4 -28 6 -36t34 -8z" />
    <glyph glyph-name="ohungarumlaut" unicode="&#x151;" horiz-adv-x="399" 
d="M155 610l76 102h106l-99 -102h-83zM278 610l77 102h126l-119 -102h-84zM239 581h25q97 0 124 -31.5t16 -109.5l-42 -303q-11 -78 -47 -109.5t-133 -31.5h-25q-97 0 -124 31.5t-16 109.5l42 303q11 78 47 109.5t133 31.5zM171 100h25q19 0 28.5 8t12.5 30l43 302
q4 22 -3.5 29.5t-26.5 7.5h-25q-19 0 -28 -7.5t-12 -29.5l-43 -302q-4 -22 3.5 -30t25.5 -8z" />
    <glyph glyph-name="OE" unicode="&#x152;" horiz-adv-x="601" 
d="M555 0h-382q-104 0 -135.5 34.5t-17.5 131.5l52 368q14 98 54.5 132t144.5 34h382l-16 -112h-181l-24 -174h165l-16 -112h-165l-27 -190h181zM256 595q-22 0 -34 -9.5t-16 -37.5l-56 -396q-3 -27 6.5 -36.5t31.5 -9.5h69l68 489h-69z" />
    <glyph glyph-name="oe" unicode="&#x153;" horiz-adv-x="616" 
d="M239 581h25q63 0 95 -13q36 13 100 13h22q97 0 124 -31.5t16 -109.5l-32 -226l-217 -3l-10 -74l-1 -8q-2 -18 5 -24t25 -6h162l-14 -99q-93 -4 -162 -4q-64 0 -97 12q-37 -12 -98 -12h-25q-97 0 -124 31.5t-16 109.5l42 303q11 78 47 109.5t133 31.5zM171 100h25
q35 0 40 31l1 6v1l42 302l2 14q-1 23 -31 23h-25q-19 0 -28 -7.5t-12 -29.5l-43 -302q-4 -22 3.5 -30t25.5 -8zM445 478q-35 0 -40 -31l-1 -7l-17 -125h94l18 126q3 22 -4 29.5t-25 7.5h-25z" />
    <glyph glyph-name="Racute" unicode="&#x154;" horiz-adv-x="413" 
d="M224 733l63 102h126l-106 -102h-83zM-1 0l98 700h199q102 0 131.5 -30t16.5 -122l-14 -98q-9 -64 -30.5 -88.5t-62.5 -28.5q42 -7 55.5 -33.5t3.5 -92.5l-29 -207h-132l31 224q7 50 -31 50h-66l-39 -274h-131zM213 591l-30 -211h68q13 0 20.5 2t14 10.5t8.5 24.5l19 139
q3 23 -5 29t-29 6h-66z" />
    <glyph glyph-name="racute" unicode="&#x155;" horiz-adv-x="288" 
d="M147 610l63 102h126l-106 -102h-83zM-2 0l67 478q7 49 42 76t83 27h12l134 -6l-14 -97q-85 -9 -104 -10t-25.5 -8t-8.5 -25l-61 -435h-125z" />
    <glyph glyph-name="Rcommaaccent" unicode="&#x156;" horiz-adv-x="413" 
d="M126 -136l14 100h82l-12 -86q-4 -30 -17.5 -52.5t-44.5 -58.5l-31 18q7 12 15.5 26t10.5 18t4.5 12.5t4.5 22.5h-26zM-1 0l98 700h199q102 0 131.5 -30t16.5 -122l-14 -98q-9 -64 -30.5 -88.5t-62.5 -28.5q42 -7 55.5 -33.5t3.5 -92.5l-29 -207h-132l31 224q7 50 -31 50
h-66l-39 -274h-131zM213 591l-30 -211h68q13 0 20.5 2t14 10.5t8.5 24.5l19 139q3 23 -5 29t-29 6h-66z" />
    <glyph glyph-name="rcommaaccent" unicode="&#x157;" horiz-adv-x="288" 
d="M1 -136l14 100h82l-12 -86q-4 -30 -17.5 -53t-44.5 -58l-31 18q6 10 13.5 22t9.5 15.5t5 11t4 13t3 17.5h-26zM-2 0l67 478q7 49 42 76t83 27h12l134 -6l-14 -97q-85 -9 -104 -10t-25 -7.5t-9 -25.5l-61 -435h-125z" />
    <glyph glyph-name="Rcaron" unicode="&#x158;" horiz-adv-x="413" 
d="M222 733l-51 102h84l33 -49l47 49h84l-79 -102h-118zM-1 0l98 700h199q102 0 131.5 -30t16.5 -122l-14 -98q-9 -64 -30.5 -88.5t-62.5 -28.5q42 -7 55.5 -33.5t3.5 -92.5l-29 -207h-132l31 224q7 50 -31 50h-66l-39 -274h-131zM213 591l-30 -211h68q13 0 20.5 2t14 10.5
t8.5 24.5l19 139q3 23 -5 29t-29 6h-66z" />
    <glyph glyph-name="rcaron" unicode="&#x159;" horiz-adv-x="288" 
d="M142 610l-51 102h84l33 -49l47 49h84l-79 -102h-118zM-2 0l67 478q7 49 42 76t83 27h12l134 -6l-14 -97q-85 -9 -104 -10t-25.5 -8t-8.5 -25l-61 -435h-125z" />
    <glyph glyph-name="Sacute" unicode="&#x15a;" horiz-adv-x="413" 
d="M230 733l63 102h126l-106 -102h-83zM267 704l169 -4l-15 -109h-170q-24 0 -35.5 -7.5t-15.5 -34.5l-7 -49q-5 -35 6 -47.5t53 -27.5l63 -23q36 -13 52.5 -23t27.5 -38t4 -75l-15 -110q-13 -97 -53.5 -128.5t-145.5 -31.5l-188 4l15 109h189q24 0 35.5 7.5t14.5 34.5
l11 78q1 8 1 14.5t-0.5 11t-3.5 9t-5 7t-8 5.5t-9.5 4.5t-11.5 5.5t-13 6l-67 25q-29 12 -42 19t-28.5 22t-19.5 39t1 59l12 88q13 98 53 129.5t146 30.5z" />
    <glyph glyph-name="sacute" unicode="&#x15b;" horiz-adv-x="369" 
d="M186 610l63 102h126l-106 -102h-83zM231 581l146 -4l-14 -101h-147q-19 0 -28 -6t-12 -27l-5 -34q-3 -20 4 -27t35 -20l69 -26q44 -17 61.5 -41t10.5 -75l-11 -77q-11 -80 -47.5 -113.5t-132.5 -32.5l-165 3l14 101h165q35 0 41 40l8 55q3 5 1 11t-1.5 9t-3 6.5l-5 5
t-6.5 4.5t-7.5 4t-9 4t-9.5 4l-67 29q-13 5 -19 8t-17 9t-14.5 11t-11.5 14t-8 18.5t-3 24.5t2 31l7 51q11 79 46 110.5t134 30.5z" />
    <glyph glyph-name="Scedilla" unicode="&#x15e;" horiz-adv-x="413" 
d="M267 704l169 -4l-15 -109h-170q-24 0 -35.5 -7.5t-15.5 -34.5l-7 -49q-5 -34 6 -46t53 -29l63 -23q36 -13 52.5 -23t27.5 -38t4 -75l-15 -110q-13 -93 -50 -125.5t-132 -34.5l-40 -118h-92l62 119l-135 3l15 109h189q24 0 35.5 7.5t14.5 34.5l11 78q1 8 1 14.5t-0.5 11
t-3.5 9t-5 7t-8 5.5t-9.5 4.5t-11.5 5.5t-13 6l-67 25q-29 12 -42 19t-28.5 22t-19.5 39t1 59l12 88q13 97 53 128.5t146 31.5z" />
    <glyph glyph-name="scedilla" unicode="&#x15f;" horiz-adv-x="369" 
d="M231 581l146 -4l-14 -101h-147q-19 0 -28 -6t-12 -27l-5 -34q-3 -20 4 -27t35 -20l69 -26q44 -17 61.5 -41t10.5 -75l-11 -77q-11 -74 -41 -107.5t-108 -37.5l-41 -120h-92l63 119l-126 3l14 101h165q35 0 41 40l8 55q1 5 1 9.5t-1 8.5t-2 6.5t-4 5t-5 4t-6 4t-6.5 3.5
t-8.5 3.5t-9 3.5l-67 29q-30 13 -43 21t-23 32t-5 63l7 51q11 79 46 110t134 31z" />
    <glyph glyph-name="Scaron" unicode="&#x160;" horiz-adv-x="413" 
d="M222 733l-51 102h84l33 -49l47 49h84l-79 -102h-118zM267 704l169 -4l-15 -109h-170q-24 0 -35.5 -7.5t-15.5 -34.5l-7 -49q-5 -35 6 -47.5t53 -27.5l63 -23q36 -13 52.5 -23t27.5 -38t4 -75l-15 -110q-13 -97 -53.5 -128.5t-145.5 -31.5l-188 4l15 109h189
q24 0 35.5 7.5t14.5 34.5l11 78q1 8 1 14.5t-0.5 11t-3.5 9t-5 7t-8 5.5t-9.5 4.5t-11.5 5.5t-13 6l-67 25q-29 12 -42 19t-28.5 22t-19.5 39t1 59l12 88q13 98 53 129.5t146 30.5z" />
    <glyph glyph-name="scaron" unicode="&#x161;" horiz-adv-x="369" 
d="M186 610l-51 102h84l33 -49l47 49h84l-79 -102h-118zM231 581l146 -4l-14 -101h-147q-19 0 -28 -6t-12 -27l-5 -34q-3 -20 4 -27t35 -20l69 -26q44 -17 61.5 -41t10.5 -75l-11 -77q-11 -80 -47.5 -113.5t-132.5 -32.5l-165 3l14 101h165q35 0 41 40l8 55q3 5 1 11t-1.5 9
t-3 6.5l-5 5t-6.5 4.5t-7.5 4t-9 4t-9.5 4l-67 29q-13 5 -19 8t-17 9t-14.5 11t-11.5 14t-8 18.5t-3 24.5t2 31l7 51q11 79 46 110.5t134 30.5z" />
    <glyph glyph-name="Tcommaaccent" unicode="&#x162;" horiz-adv-x="390" 
d="M104 -136l14 100h82l-12 -86q-4 -30 -17.5 -53t-43.5 -58l-32 18q6 10 13.5 22t9.5 15.5t5 11t4 13t3 17.5h-26zM314 588l-83 -588h-132l83 588h-124l16 112h380l-16 -112h-124z" />
    <glyph glyph-name="tcommaaccent" unicode="&#x163;" horiz-adv-x="262" 
d="M55 -136l14 100h82l-12 -86q-4 -30 -17.5 -52.5t-44.5 -58.5l-31 18q7 12 15.5 26t10.5 18t4.5 12.5t4.5 22.5h-26zM300 577l-15 -106h-75l-48 -340q-4 -24 19 -24h62l-15 -107l-63 -4q-87 -3 -113.5 22t-15.5 106l49 347h-40l15 106h40l18 127h125l-18 -127h75z" />
    <glyph glyph-name="Tcaron" unicode="&#x164;" horiz-adv-x="390" 
d="M210 733l-50 102h84l33 -49l47 49h84l-80 -102h-118zM314 588l-83 -588h-132l83 588h-124l16 112h380l-16 -112h-124z" />
    <glyph glyph-name="tcaron" unicode="&#x165;" horiz-adv-x="269" 
d="M292 665l13 89h68l-11 -77q-3 -27 -15.5 -46.5t-39.5 -49.5l-27 14q6 10 12 19l9 13.5t6 10t4.5 11.5t2.5 16h-22zM300 577l-15 -106h-75l-48 -340q-4 -24 19 -24h62l-15 -107l-63 -4q-87 -3 -113.5 22t-15.5 106l49 347h-40l15 106h40l18 127h125l-18 -127h75z" />
    <glyph glyph-name="Umacron" unicode="&#x16a;" horiz-adv-x="432" 
d="M95 700h133l-77 -549q-4 -29 2.5 -37.5t28.5 -8.5h38q22 0 31.5 8.5t13.5 37.5l77 549h130l-76 -544q-13 -97 -53 -128.5t-145 -31.5h-25q-105 0 -136 31.5t-18 128.5zM180 747l10 72h224l-10 -72h-224z" />
    <glyph glyph-name="umacron" unicode="&#x16b;" horiz-adv-x="399" 
d="M204 577l-61 -433q-6 -38 26 -38h62l67 471h125l-82 -577q-127 -4 -188 -4h-25q-67 0 -95 28.5t-18 99.5l64 453h125zM147 624l10 72h224l-10 -72h-224z" />
    <glyph glyph-name="Ubreve" unicode="&#x16c;" horiz-adv-x="432" 
d="M95 700h133l-77 -549q-4 -29 2.5 -37.5t28.5 -8.5h38q22 0 31.5 8.5t13.5 37.5l77 549h130l-76 -544q-13 -97 -53 -128.5t-145 -31.5h-25q-105 0 -136 31.5t-18 128.5zM309 730h-38q-60 0 -76 20t-7 75l2 12h76l-3 -20q-4 -25 20 -25h32q23 0 27 25l3 20h74l-2 -12
q-9 -56 -29.5 -75.5t-78.5 -19.5z" />
    <glyph glyph-name="ubreve" unicode="&#x16d;" horiz-adv-x="399" 
d="M204 577l-61 -433q-6 -38 26 -38h62l67 471h125l-82 -577q-127 -4 -188 -4h-25q-67 0 -95 28.5t-18 99.5l64 453h125zM276 607h-38q-60 0 -76 20t-7 75l2 12h76l-3 -20q-4 -25 20 -25h32q23 0 27 25l3 20h74l-2 -12q-9 -56 -29.5 -75.5t-78.5 -19.5z" />
    <glyph glyph-name="Uring" unicode="&#x16e;" horiz-adv-x="432" 
d="M299 878h22q44 0 55 -14t5 -54l-2 -15q-6 -40 -20.5 -54t-58.5 -14h-22q-43 0 -54.5 14.5t-5.5 53.5l2 15q5 40 20.5 54t58.5 14zM315 842h-19q-21 0 -27 -5t-8 -24l-3 -21q-3 -18 1.5 -23.5t25.5 -5.5h19q21 0 27 5.5t9 23.5l3 21q2 19 -2.5 24t-25.5 5zM95 700h133
l-77 -549q-4 -29 2.5 -37.5t28.5 -8.5h38q22 0 31.5 8.5t13.5 37.5l77 549h130l-76 -544q-13 -97 -53 -128.5t-145 -31.5h-25q-105 0 -136 31.5t-18 128.5z" />
    <glyph glyph-name="uring" unicode="&#x16f;" horiz-adv-x="399" 
d="M204 577l-61 -433q-6 -38 26 -38h62l67 471h125l-82 -577q-127 -4 -188 -4h-25q-67 0 -95 28.5t-18 99.5l64 453h125zM266 755h22q44 0 55 -14t5 -54l-2 -15q-6 -39 -21 -53.5t-59 -14.5h-22q-43 0 -54 14t-5 54l2 15q5 40 20.5 54t58.5 14zM282 719h-19q-21 0 -27 -5
t-8 -24l-3 -21q-2 -19 2 -24t24 -5h19q21 0 27.5 5.5t8.5 23.5l3 21q2 19 -2 24t-25 5z" />
    <glyph glyph-name="Uhungarumlaut" unicode="&#x170;" horiz-adv-x="432" 
d="M95 700h133l-77 -549q-4 -29 2.5 -37.5t28.5 -8.5h38q22 0 31.5 8.5t13.5 37.5l77 549h130l-76 -544q-13 -97 -53 -128.5t-145 -31.5h-25q-105 0 -136 31.5t-18 128.5zM183 733l77 102h106l-100 -102h-83zM306 733l78 102h126l-120 -102h-84z" />
    <glyph glyph-name="uhungarumlaut" unicode="&#x171;" horiz-adv-x="399" 
d="M204 577l-61 -433q-6 -38 26 -38h62l67 471h125l-82 -577q-127 -4 -188 -4h-25q-67 0 -95 28.5t-18 99.5l64 453h125zM274 610l78 102h126l-120 -102h-84zM151 610l77 102h106l-100 -102h-83z" />
    <glyph glyph-name="Uogonek" unicode="&#x172;" horiz-adv-x="432" 
d="M94 700h133l-77 -549q-4 -29 2.5 -37.5t28.5 -8.5h38q22 0 31.5 8.5t13.5 37.5l77 549h130l-76 -544q-13 -90 -47 -123t-119 -36l-41 -23q-3 -2 -8 -5t-7 -4t-5 -3t-4 -3t-2.5 -3t-2 -3.5t-0.5 -4.5l-1 -5q-2 -9 0 -12.5t10 -3.5h22q8 0 9.5 1.5t2.5 9.5q1 2 1 3l2 15h64
l-2 -16q-4 -37 -17 -54t-49 -17h-58q-38 0 -48 12t-4 46l2 12q2 16 10 26.5t14 14t23 12.5l11 4q-92 2 -119 34.5t-14 125.5z" />
    <glyph glyph-name="uogonek" unicode="&#x173;" horiz-adv-x="399" 
d="M204 577l-61 -433q-6 -38 26 -38h62l67 471h125l-82 -577q-19 -1 -41 -1l-46 -26q-3 -2 -8 -5t-7 -4t-5 -3t-4 -3t-2.5 -3t-2 -3.5t-0.5 -4.5l-1 -5q-2 -9 0 -12.5t10 -3.5h22q8 0 9.5 1.5t2.5 9.5q1 2 1 3l2 15h64l-2 -16q-4 -37 -17 -54t-49 -17h-58q-38 0 -48 12
t-4 46l2 12q2 16 9.5 26t14 14.5t23.5 12.5q2 1 7.5 2.5t8.5 3.5q-26 -1 -69 -1h-25q-67 0 -95 28.5t-18 99.5l64 453h125z" />
    <glyph glyph-name="Wcircumflex" unicode="&#x174;" horiz-adv-x="631" 
d="M264 733l79 102h118l51 -102h-84l-33 49l-47 -49h-84zM75 700h133l-29 -526h1l135 526h138l-14 -526h1l119 526h134l-171 -700h-204l23 393h-1l-87 -393h-203z" />
    <glyph glyph-name="wcircumflex" unicode="&#x175;" horiz-adv-x="584" 
d="M224 610l79 102h118l51 -102h-84l-33 49l-47 -49h-84zM291 0l11 280h-3l-66 -280h-181l2 577h131l-16 -421h2l108 421h128l-10 -421h1l103 421h132l-160 -577h-182z" />
    <glyph glyph-name="Ycircumflex" unicode="&#x176;" horiz-adv-x="432" 
d="M120 0l37 265l-84 435h132l39 -281l119 281h132l-206 -435l-37 -265h-132zM166 733l79 102h118l51 -102h-84l-33 49l-47 -49h-84z" />
    <glyph glyph-name="ycircumflex" unicode="&#x177;" horiz-adv-x="405" 
d="M75 7l-26 570h131l10 -426h3l138 426h120l-230 -704h-118l44 134h-72zM135 610l79 102h118l51 -102h-84l-33 49l-47 -49h-84z" />
    <glyph glyph-name="Ydieresis" unicode="&#x178;" horiz-adv-x="432" 
d="M120 0l37 265l-84 435h132l39 -281l119 281h132l-206 -435l-37 -265h-132zM185 739l14 96h83l-14 -96h-83zM312 739l14 96h83l-14 -96h-83z" />
    <glyph glyph-name="Zacute" unicode="&#x179;" horiz-adv-x="363" 
d="M202 733l63 102h126l-106 -102h-83zM72 587l16 113h327l-15 -112l-254 -476h187l-16 -112h-331l16 113l263 474h-193z" />
    <glyph glyph-name="zacute" unicode="&#x17a;" horiz-adv-x="352" 
d="M176 610l63 102h126l-106 -102h-83zM326 108l-15 -108h-331l15 106l235 362h-177l15 109h322l-15 -108l-233 -361h184z" />
    <glyph glyph-name="Zdotaccent" unicode="&#x17b;" horiz-adv-x="363" 
d="M72 587l16 113h327l-15 -112l-254 -476h187l-16 -112h-331l16 113l263 474h-193zM230 743l13 92h80l-13 -92h-80z" />
    <glyph glyph-name="zdotaccent" unicode="&#x17c;" horiz-adv-x="352" 
d="M326 108l-15 -108h-331l15 106l235 362h-177l15 109h322l-15 -108l-233 -361h184zM208 620l13 92h80l-13 -92h-80z" />
    <glyph glyph-name="Zcaron" unicode="&#x17d;" horiz-adv-x="363" 
d="M197 733l-51 102h84l33 -49l47 49h84l-79 -102h-118zM72 587l16 113h327l-15 -112l-254 -476h187l-16 -112h-331l16 113l263 474h-193z" />
    <glyph glyph-name="zcaron" unicode="&#x17e;" horiz-adv-x="352" 
d="M174 610l-51 102h84l33 -49l47 49h84l-79 -102h-118zM326 108l-15 -108h-331l15 106l235 362h-177l15 109h322l-15 -108l-233 -361h184z" />
    <glyph glyph-name="Aringacute" unicode="&#x1fa;" horiz-adv-x="427" 
d="M288 818h22q44 0 55 -14t5 -54l-2 -15q-4 -25 -8 -35h24l21 -700h-131l-4 129h-135l-39 -129h-132l217 700h24q-1 12 2 35l2 15q5 40 20.5 54t58.5 14zM264 592l-100 -344h110l-4 344h-6zM254 836l64 102h126l-107 -102h-83zM304 782h-19q-21 0 -27 -5t-8 -24l-3 -21
q-2 -19 2.5 -24t24.5 -5h19q21 0 27.5 5.5t8.5 23.5l3 21q2 19 -2.5 24t-25.5 5z" />
    <glyph glyph-name="aringacute" unicode="&#x1fb;" horiz-adv-x="392" 
d="M96 476l15 101q86 3 149 4q67 0 99 -14.5t38 -46t-1 -80.5l-62 -440q-115 -4 -185 -4h-24q-67 0 -95 28.5t-18 99.5l20 143q10 71 43.5 99t99.5 28h90l6 44q3 25 -3.5 31.5t-25.5 6.5h-146zM272 755h22q44 0 55 -14t5 -54l-2 -15q-6 -39 -21 -53.5t-59 -14.5h-22
q-43 0 -54 14t-5 54l2 15q5 40 20.5 54t58.5 14zM156 263l-16 -119q-3 -20 2 -29t22 -9h19q39 0 42 1l27 196h-60q-30 0 -36 -40zM243 777l63 102h126l-106 -102h-83zM288 719h-19q-21 0 -27 -5t-8 -24l-3 -21q-2 -19 2 -24t24 -5h19q21 0 27.5 5.5t8.5 23.5l3 21
q2 19 -2 24t-25 5z" />
    <glyph glyph-name="AEacute" unicode="&#x1fc;" horiz-adv-x="649" 
d="M424 733l63 102h126l-106 -102h-83zM288 0l19 135h-140l-59 -135h-130l319 700h402l-15 -112h-181l-25 -174h164l-16 -113h-164l-26 -188h181l-16 -113h-313zM359 588l-146 -340h110l48 340h-12z" />
    <glyph glyph-name="aeacute" unicode="&#x1fd;" horiz-adv-x="614" 
d="M458 581h21q97 0 124 -31.5t16 -109.5l-30 -216l-218 -3l-12 -87q-3 -22 4.5 -29.5t26.5 -7.5h154l-14 -97q-101 -4 -154 -4q-61 -1 -89 6.5t-39 32.5q-49 -39 -99 -39h-24q-67 0 -95 28.5t-18 99.5l18 130q10 71 43.5 99t99.5 28h97l9 61q2 21 -4.5 28t-22.5 7h-155
l14 100q111 4 155 4q69 0 91 -26q31 26 101 26zM234 127l23 161h-64q-33 0 -40 -46l-13 -98q-6 -38 27 -38h16q15 0 51 21zM444 481q-35 0 -40 -32l-18 -129h96l17 123q3 22 -4.5 30t-26.5 8h-24zM322 610l64 102h126l-107 -102h-83z" />
    <glyph glyph-name="Oslashacute" unicode="&#x1fe;" horiz-adv-x="432" 
d="M272 704h25q53 0 87 -7l19 39h70l-35 -69q24 -32 12 -123l-54 -388q-13 -97 -53.5 -128.5t-145.5 -31.5h-25q-59 0 -90 8l-20 -38h-69l38 68q-24 33 -12 122l54 388q13 97 53 128.5t146 31.5zM206 551l-43 -306l158 326q-3 24 -41 24h-22q-24 0 -36 -8t-16 -36zM190 105
h22q24 0 36 8t16 36l43 305l-158 -327q3 -22 41 -22zM240 733l63 102h126l-106 -102h-83z" />
    <glyph glyph-name="oslashacute" unicode="&#x1ff;" horiz-adv-x="399" 
d="M239 581h25q35 0 67 -5l23 41h64l-38 -61q37 -29 24 -116l-43 -303q-11 -78 -46.5 -109.5t-132.5 -31.5h-25q-49 0 -81 8l-22 -33h-63l37 60q-23 30 -12 106l43 303q11 78 47 109.5t133 31.5zM171 100h25q19 0 28 8t13 30l36 254l-133 -264q0 -16 7 -22t24 -6zM185 440
l-30 -209l121 238q-7 8 -26 8h-25q-18 0 -27 -7.5t-13 -29.5zM209 610l63 102h126l-106 -102h-83z" />
    <glyph glyph-name="Scommaaccent" unicode="&#x218;" horiz-adv-x="413" 
d="M114 -136l14 100h82l-12 -86q-4 -30 -17.5 -52.5t-44.5 -58.5l-31 18q7 12 15.5 26t10.5 18t4.5 12.5t4.5 22.5h-26zM267 704l169 -4l-15 -109h-170q-24 0 -35.5 -7.5t-15.5 -34.5l-7 -49q-5 -35 6 -47.5t53 -27.5l63 -23q36 -13 52.5 -23t27.5 -38t4 -75l-15 -110
q-13 -97 -53.5 -128.5t-145.5 -31.5l-188 4l15 109h189q24 0 35.5 7.5t14.5 34.5l11 78q1 8 1 14.5t-0.5 11t-3.5 9t-5 7t-8 5.5t-9.5 4.5t-11.5 5.5t-13 6l-67 25q-29 12 -42 19t-28.5 22t-19.5 39t1 59l12 88q13 98 53 129.5t146 30.5z" />
    <glyph glyph-name="scommaaccent" unicode="&#x219;" horiz-adv-x="369" 
d="M92 -136l14 100h82l-12 -86q-4 -30 -17.5 -52.5t-44.5 -58.5l-31 18q7 12 15.5 26t10.5 18t4.5 12.5t4.5 22.5h-26zM231 581l146 -4l-14 -101h-147q-19 0 -28 -6t-12 -27l-5 -34q-3 -20 4 -27t35 -20l69 -26q44 -17 61.5 -41t10.5 -75l-11 -77q-11 -80 -47.5 -113.5
t-132.5 -32.5l-165 3l14 101h165q35 0 41 40l8 55q3 5 1 11t-1.5 9t-3 6.5l-5 5t-6.5 4.5t-7.5 4t-9 4t-9.5 4l-67 29q-13 5 -19 8t-17 9t-14.5 11t-11.5 14t-8 18.5t-3 24.5t2 31l7 51q11 79 46 110.5t134 30.5z" />
    <glyph glyph-name="circumflex" unicode="&#x2c6;" horiz-adv-x="500" 
d="M182 610l79 102h118l51 -102h-84l-33 49l-47 -49h-84z" />
    <glyph glyph-name="caron" unicode="&#x2c7;" horiz-adv-x="500" 
d="M247 610l-51 102h84l33 -49l47 49h84l-79 -102h-118z" />
    <glyph glyph-name="breve" unicode="&#x2d8;" horiz-adv-x="500" 
d="M325 607h-38q-60 0 -76 20t-7 75l2 12h76l-3 -20q-4 -25 19 -25h32q24 0 28 25l3 20h74l-2 -12q-9 -56 -29.5 -75.5t-78.5 -19.5z" />
    <glyph glyph-name="dotaccent" unicode="&#x2d9;" horiz-adv-x="500" 
d="M267 620l13 92h80l-13 -92h-80z" />
    <glyph glyph-name="ring" unicode="&#x2da;" horiz-adv-x="500" 
d="M314 755h22q44 0 55 -14t5 -54l-2 -15q-6 -39 -21 -53.5t-59 -14.5h-22q-43 0 -54 14t-5 54l2 15q5 40 20.5 54t58.5 14zM330 719h-19q-21 0 -27 -5t-8 -24l-3 -21q-3 -18 1.5 -23.5t25.5 -5.5h19q21 0 27 5.5t9 23.5l3 21q2 19 -2.5 24t-25.5 5z" />
    <glyph glyph-name="ogonek" unicode="&#x2db;" horiz-adv-x="500" 
d="M302 -55l-2 -16q-4 -37 -17 -54t-49 -17h-58q-38 0 -48 12t-4 46l2 12q3 23 13.5 32.5t33.5 19.5l45 20h59l-1 -7l-55 -30q-3 -2 -8 -5t-7 -4t-5 -3t-4 -3t-2.5 -3t-2 -3.5t-0.5 -4.5l-1 -5q-1 -6 -0.5 -9.5t2.5 -5t8 -1.5h22q8 0 9.5 1.5t2.5 9.5q1 2 1 3l2 15h64z" />
    <glyph glyph-name="tilde" unicode="&#x2dc;" horiz-adv-x="500" 
d="M347 614l-80 51l-9 -50h-56l14 96h57l83 -31l6 30h57l-15 -96h-57z" />
    <glyph glyph-name="hungarumlaut" unicode="&#x2dd;" horiz-adv-x="500" 
d="M177 610l76 102h106l-99 -102h-83zM300 610l77 102h126l-119 -102h-84z" />
    <glyph glyph-name="Wgrave" unicode="&#x1e80;" horiz-adv-x="631" 
d="M75 700h133l-29 -526h1l135 526h138l-14 -526h1l119 526h134l-171 -700h-204l23 393h-1l-87 -393h-203zM404 835l34 -102h-83l-77 102h126z" />
    <glyph glyph-name="wgrave" unicode="&#x1e81;" horiz-adv-x="584" 
d="M291 0l11 280h-3l-66 -280h-181l2 577h131l-16 -421h2l108 421h128l-10 -421h1l103 421h132l-160 -577h-182zM364 712l34 -102h-83l-77 102h126z" />
    <glyph glyph-name="Wacute" unicode="&#x1e82;" horiz-adv-x="631" 
d="M344 733l63 102h126l-106 -102h-83zM75 700h133l-29 -526h1l135 526h138l-14 -526h1l119 526h134l-171 -700h-204l23 393h-1l-87 -393h-203z" />
    <glyph glyph-name="wacute" unicode="&#x1e83;" horiz-adv-x="584" 
d="M304 610l63 102h126l-106 -102h-83zM291 0l11 280h-3l-66 -280h-181l2 577h131l-16 -421h2l108 421h128l-10 -421h1l103 421h132l-160 -577h-182z" />
    <glyph glyph-name="Wdieresis" unicode="&#x1e84;" horiz-adv-x="631" 
d="M287 739l13 96h83l-13 -96h-83zM414 739l13 96h83l-13 -96h-83zM75 700h133l-29 -526h1l135 526h138l-14 -526h1l119 526h134l-171 -700h-204l23 393h-1l-87 -393h-203z" />
    <glyph glyph-name="wdieresis" unicode="&#x1e85;" horiz-adv-x="584" 
d="M247 616l13 96h83l-13 -96h-83zM374 616l13 96h83l-13 -96h-83zM291 0l11 280h-3l-66 -280h-181l2 577h131l-16 -421h2l108 421h128l-10 -421h1l103 421h132l-160 -577h-182z" />
    <glyph glyph-name="Ygrave" unicode="&#x1ef2;" horiz-adv-x="432" 
d="M120 0l37 265l-84 435h132l39 -281l119 281h132l-206 -435l-37 -265h-132zM306 835l34 -102h-83l-77 102h126z" />
    <glyph glyph-name="ygrave" unicode="&#x1ef3;" horiz-adv-x="405" 
d="M75 7l-26 570h131l10 -426h3l138 426h120l-230 -704h-118l44 134h-72zM275 712l34 -102h-83l-77 102h126z" />
    <glyph glyph-name="endash" unicode="&#x2013;" horiz-adv-x="399" 
d="M19 256l13 89h373l-13 -89h-373z" />
    <glyph glyph-name="emdash" unicode="&#x2014;" horiz-adv-x="576" 
d="M19 256l13 89h550l-13 -89h-550z" />
    <glyph glyph-name="quoteleft" unicode="&#x2018;" horiz-adv-x="173" 
d="M194 578l-20 -139h-113l16 112q6 44 24 74.5t60 77.5l40 -25q-30 -46 -36 -58.5t-10 -41.5h39z" />
    <glyph glyph-name="quoteright" unicode="&#x2019;" horiz-adv-x="173" 
d="M79 561l20 139h113l-16 -112q-6 -44 -24.5 -74.5t-60.5 -77.5l-39 25q3 5 8 13q30 46 34 66q2 7 4 21h-39z" />
    <glyph glyph-name="quotesinglbase" unicode="&#x201a;" horiz-adv-x="173" 
d="M0 0l20 139h113l-16 -112q-6 -44 -24.5 -74.5t-60.5 -77.5l-39 25q3 5 8 13q30 46 34 66l4 21h-39z" />
    <glyph glyph-name="quotedblleft" unicode="&#x201c;" horiz-adv-x="317" 
d="M194 578l-20 -139h-113l16 112q6 44 24 74.5t60 77.5l40 -25q-30 -46 -36 -58.5t-10 -41.5h39zM337 578l-20 -139h-113l16 112q6 44 24 74.5t60 77.5l40 -25q-30 -46 -36 -58.5t-10 -41.5h39z" />
    <glyph glyph-name="quotedblright" unicode="&#x201d;" horiz-adv-x="317" 
d="M79 561l20 139h113l-16 -112q-6 -44 -24.5 -74.5t-60.5 -77.5l-39 25q3 5 8 13q30 46 34 66q2 7 4 21h-39zM222 561l20 139h113l-16 -112q-6 -44 -24.5 -74.5t-60.5 -77.5l-39 25q3 5 8 13q30 46 34 66q2 7 4 21h-39z" />
    <glyph glyph-name="quotedblbase" unicode="&#x201e;" horiz-adv-x="317" 
d="M0 0l20 139h113l-16 -112q-6 -44 -24.5 -74.5t-60.5 -77.5l-39 25q3 5 8 13q30 46 34 66l4 21h-39zM143 0l20 139h113l-16 -112q-6 -44 -24.5 -74.5t-60.5 -77.5l-39 25q3 5 8 13q30 46 34 66q2 7 4 21h-39z" />
    <glyph glyph-name="dagger" unicode="&#x2020;" horiz-adv-x="346" 
d="M210 561l-9 81l8 58h65l-8 -58l-33 -81h-23zM330 566h58l-9 -65h-58l-78 21l3 24zM189 522l-84 -21h-58l9 65h58l78 -20zM164 232v151l39 124h23l3 -124l-42 -151h-23z" />
    <glyph glyph-name="daggerdbl" unicode="&#x2021;" horiz-adv-x="346" 
d="M176 313l-7 96l35 98h23l7 -97l-35 -97h-23zM115 566l78 -20l-3 -24l-84 -21h-58l9 65h58zM128 119l8 58l33 81h23l9 -81l-8 -58h-65zM380 501h-58l-78 21l3 24l84 20h58zM80 318l78 -21l-3 -23l-84 -21h-58l9 65h58zM211 561l-9 81l8 58h65l-8 -58l-33 -81h-23zM212 297
l84 21h58l-9 -65h-58l-78 21z" />
    <glyph glyph-name="bullet" unicode="&#x2022;" horiz-adv-x="281" 
d="M166 483h24q57 0 69.5 -17t4.5 -71l-12 -84q-7 -53 -24 -70t-74 -17h-24q-58 0 -70.5 17t-5.5 70l12 84q8 55 25 71.5t75 16.5z" />
    <glyph glyph-name="ellipsis" unicode="&#x2026;" horiz-adv-x="519" 
d="M0 0l20 139h113l-20 -139h-113zM173 0l20 139h113l-20 -139h-113zM346 0l20 139h113l-20 -139h-113z" />
    <glyph glyph-name="perthousand" unicode="&#x2030;" horiz-adv-x="913" 
d="M199 703h34q57 0 75.5 -23t10.5 -77l-28 -200q-8 -55 -32.5 -78.5t-81.5 -23.5h-34q-57 0 -75.5 24t-10.5 78l28 200q8 54 32.5 77t81.5 23zM511 398h34q57 0 75.5 -23t10.5 -77l-28 -200q-8 -55 -32.5 -78.5t-81.5 -23.5h-34q-57 0 -75.5 23.5t-10.5 78.5l28 200
q8 54 32.5 77t81.5 23zM774 398h34q57 0 75.5 -23t10.5 -77l-28 -200q-8 -55 -32.5 -78.5t-81.5 -23.5h-34q-57 0 -75.5 24t-10.5 78l28 200q8 54 32.5 77t81.5 23zM532 336h-26q-26 0 -30 -29l-30 -218q-4 -28 22 -28h26q25 0 29 28l30 218q2 17 -3 23t-18 6zM220 640h-26
q-25 0 -29 -28l-31 -219q-2 -16 3 -22t18 -6h26q26 0 30 28l31 219q4 28 -22 28zM795 336h-26q-26 0 -30 -29l-30 -218q-4 -28 22 -28h26q26 0 30 28l30 218q4 29 -22 29zM125 0l357 700h78l-357 -700h-78z" />
    <glyph glyph-name="guilsinglleft" unicode="&#x2039;" horiz-adv-x="201" 
d="M90 106l-72 176l2 13l122 176h83l-100 -176l-2 -13l50 -176h-83z" />
    <glyph glyph-name="guilsinglright" unicode="&#x203a;" horiz-adv-x="201" 
d="M202 282l-122 -176h-83l100 176l2 13l-51 176h83l73 -176z" />
    <glyph glyph-name="fraction" unicode="&#x2044;" horiz-adv-x="220" 
d="M-62 0l304 700h78l-304 -700h-78z" />
    <glyph glyph-name="Euro" unicode="&#x20ac;" horiz-adv-x="417" 
d="M279 598q-23 0 -35.5 -10t-16.5 -37l-15 -108h188l-10 -69h-188l-4 -34h188l-10 -69h-188l-17 -122q-4 -28 5.5 -37.5t32.5 -9.5h166l-14 -102q-109 -4 -167 -4q-105 -2 -135.5 30.5t-17.5 129.5l16 115h-41l10 69h41l4 34h-41l10 69h41l14 101q13 97 53 128.5t146 31.5
l168 -4l-14 -102h-169z" />
    <glyph glyph-name="afii61352" unicode="&#x2116;" horiz-adv-x="837" 
d="M695 704h25q97 0 124 -31.5t16 -109.5l-39 -275q-11 -78 -46.5 -109.5t-132.5 -31.5h-25q-98 0 -125 31.5t-16 109.5l39 275q11 78 46.5 109.5t133.5 31.5zM632 255h25q19 0 28 7.5t12 29.5l37 266q3 22 -4 30t-25 8h-25q-19 0 -28.5 -8t-12.5 -30l-37 -266
q-3 -22 4 -29.5t26 -7.5zM436 0l15 107h345l-15 -107h-345zM99 700h132l67 -386h1l54 386h123l-98 -700h-137l-59 367h-1l-52 -367h-128z" />
    <glyph glyph-name="trademark" unicode="&#x2122;" horiz-adv-x="496" 
d="M325 578l-29 -228h-64l49 350h91l7 -211h1l66 211h92l-49 -350h-64l36 228h-3l-71 -228h-53l-7 228h-2zM68 643l8 57h190l-8 -57h-62l-41 -293h-66l41 293h-62z" />
    <glyph glyph-name="arrowleft" unicode="&#x2190;" horiz-adv-x="400" 
d="M141 113l-102 175l2 14l152 176l55 -42l-81 -98h224l-12 -86h-224l53 -98z" />
    <glyph glyph-name="arrowup" unicode="&#x2191;" horiz-adv-x="400" 
d="M230 467h13l157 -127l-50 -62l-88 68l-32 -224h-85l32 224l-109 -68l-32 62z" />
    <glyph glyph-name="arrowright" unicode="&#x2192;" horiz-adv-x="400" 
d="M383 288l-152 -175l-55 41l81 98h-224l12 86h224l-53 98l67 42l102 -176z" />
    <glyph glyph-name="arrowdown" unicode="&#x2193;" horiz-adv-x="400" 
d="M194 120h-13l-158 127l50 62l89 -68l32 224h85l-32 -224l108 68l32 -62z" />
    <glyph glyph-name="uni2196" unicode="&#x2196;" horiz-adv-x="400" 
d="M36 198l65 214l11 9l218 35l5 -73l-120 -22l136 -158l-69 -61l-136 159l-39 -118z" />
    <glyph glyph-name="uni2197" unicode="&#x2197;" horiz-adv-x="400" 
d="M350 412l5 -214l-75 -15l-6 118l-181 -159l-51 61l180 158l-114 22l26 73l208 -35z" />
    <glyph glyph-name="uni2198" unicode="&#x2198;" horiz-adv-x="400" 
d="M383 395l-65 -214l-12 -9l-218 -35l-4 73l120 22l-136 158l69 61l135 -159l40 118z" />
    <glyph glyph-name="uni2199" unicode="&#x2199;" horiz-adv-x="400" 
d="M69 181l-5 214l75 15l7 -118l180 159l51 -61l-180 -158l114 -22l-25 -73l-208 35z" />
    <glyph glyph-name="minus" unicode="&#x2212;" horiz-adv-x="347" 
d="M31 316l12 86h313l-12 -86h-313z" />
    <glyph glyph-name="commaaccent" unicode="&#xf6c3;" horiz-adv-x="500" 
d="M178 -20l14 100h82l-12 -86q-4 -30 -17.5 -53t-44.5 -58l-31 18q6 10 13.5 22t9.5 15.5t5 11t4 13t3 17.5h-26z" />
    <glyph glyph-name="abreve.alt" 
d="M211 581h26l188 -4l-82 -577q-116 -4 -190 -4h-24q-67 0 -95 28.5t-18 99.5l46 330q10 71 46 99t103 28zM170 106h63l52 365h-63q-34 0 -38 -37l-41 -290q-6 -38 27 -38zM281 607h-38q-60 0 -76 20t-7 75l2 12h76l-3 -20q-4 -25 20 -25h32q23 0 27 25l3 20h74l-2 -12
q-9 -56 -29.5 -75.5t-78.5 -19.5z" />
    <glyph glyph-name="guilsinglleft.case" horiz-adv-x="201" 
d="M99 172l-72 176l2 13l122 176h83l-100 -176l-2 -13l50 -176h-83z" />
    <glyph glyph-name="gcommaaccent.alt" horiz-adv-x="414" 
d="M242 581h216l-10 -70l-43 -11q11 -23 6 -60l-20 -143q-11 -78 -46.5 -109.5t-133.5 -31.5h-29q-21 0 -34 4q-27 -2 -27 -21q0 -8 5.5 -10.5t21.5 -2.5h83q103 0 125.5 -20t7.5 -104l-1 -5q-7 -40 -16.5 -63.5t-29 -42.5t-52 -27t-82.5 -8h-90q-98 0 -119 29t10 99
q14 31 48 65q-34 9 -34 51q0 63 58 89q-25 29 -14 108l20 143q12 88 45 114.5t135 26.5zM198 264h29q19 0 28.5 8t12.5 29l19 135q3 22 -4.5 29.5t-26.5 7.5h-29q-19 0 -28 -7.5t-12 -29.5l-19 -135q-3 -21 4.5 -29t25.5 -8zM317 718l-14 -100h-82l12 86q4 30 17.5 52.5
t44.5 58.5l31 -18q-6 -11 -13 -22.5t-9.5 -15t-5.5 -10.5t-4 -13l-3 -18h26zM120 -38h81q19 0 27.5 7.5t12.5 29.5l2 10q3 17 -0.5 23.5t-20.5 6.5h-91q-13 -10 -21 -39q-8 -23 -7 -30.5t17 -7.5z" />
    <glyph glyph-name="gdotaccent.alt" horiz-adv-x="414" 
d="M242 581h216l-10 -70l-43 -11q11 -23 6 -60l-20 -143q-11 -78 -46.5 -109.5t-133.5 -31.5h-29q-21 0 -34 4q-27 -2 -27 -21q0 -8 5.5 -10.5t21.5 -2.5h83q103 0 125.5 -20t7.5 -104l-1 -5q-7 -40 -16.5 -63.5t-29 -42.5t-52 -27t-82.5 -8h-90q-98 0 -119 29t10 99
q14 31 48 65q-34 9 -34 51q0 63 58 89q-25 29 -14 108l20 143q12 88 45 114.5t135 26.5zM198 264h29q19 0 28.5 8t12.5 29l19 135q3 22 -4.5 29.5t-26.5 7.5h-29q-19 0 -28 -7.5t-12 -29.5l-19 -135q-3 -21 4.5 -29t25.5 -8zM120 -38h81q19 0 27.5 7.5t12.5 29.5l2 10
q3 17 -0.5 23.5t-20.5 6.5h-91q-13 -10 -21 -39q-8 -23 -7 -30.5t17 -7.5zM223 620l13 92h80l-13 -92h-80z" />
    <glyph glyph-name="g.alt" horiz-adv-x="414" 
d="M242 581h216l-10 -70l-43 -11q11 -23 6 -60l-20 -143q-11 -78 -46.5 -109.5t-133.5 -31.5h-29q-21 0 -34 4q-27 -2 -27 -21q0 -8 5.5 -10.5t21.5 -2.5h83q103 0 125.5 -20t7.5 -104l-1 -5q-7 -40 -16.5 -63.5t-29 -42.5t-52 -27t-82.5 -8h-90q-98 0 -119 29t10 99
q14 31 48 65q-34 9 -34 51q0 63 58 89q-25 29 -14 108l20 143q12 88 45 114.5t135 26.5zM198 264h29q19 0 28.5 8t12.5 29l19 135q3 22 -4.5 29.5t-26.5 7.5h-29q-19 0 -28 -7.5t-12 -29.5l-19 -135q-3 -21 4.5 -29t25.5 -8zM120 -38h81q19 0 27.5 7.5t12.5 29.5l2 10
q3 17 -0.5 23.5t-20.5 6.5h-91q-13 -10 -21 -39q-8 -23 -7 -30.5t17 -7.5z" />
    <glyph glyph-name="yacute.alt" 
d="M19 -20h161q19 0 28 7.5t12 29.5l2 17h-95q-66 0 -91.5 27.5t-15.5 98.5l59 417h124l-56 -397q-4 -37 28 -37h63l61 434h125l-79 -564q-12 -88 -46 -115.5t-134 -25.5l-160 9zM206 610l64 102h126l-107 -102h-83z" />
    <glyph glyph-name="gbreve.alt" horiz-adv-x="414" 
d="M242 581h216l-10 -70l-43 -11q11 -23 6 -60l-20 -143q-11 -78 -46.5 -109.5t-133.5 -31.5h-29q-21 0 -34 4q-27 -2 -27 -21q0 -8 5.5 -10.5t21.5 -2.5h83q103 0 125.5 -20t7.5 -104l-1 -5q-7 -40 -16.5 -63.5t-29 -42.5t-52 -27t-82.5 -8h-90q-98 0 -119 29t10 99
q14 31 48 65q-34 9 -34 51q0 63 58 89q-25 29 -14 108l20 143q12 88 45 114.5t135 26.5zM198 264h29q19 0 28.5 8t12.5 29l19 135q3 22 -4.5 29.5t-26.5 7.5h-29q-19 0 -28 -7.5t-12 -29.5l-19 -135q-3 -21 4.5 -29t25.5 -8zM281 607h-38q-60 0 -76 20t-7 75l2 12h76l-3 -20
q-4 -25 19 -25h32q24 0 28 25l3 20h74l-2 -12q-9 -56 -29.5 -75.5t-78.5 -19.5zM120 -38h81q19 0 27.5 7.5t12.5 29.5l2 10q3 17 -0.5 23.5t-20.5 6.5h-91q-13 -10 -21 -39q-8 -23 -7 -30.5t17 -7.5z" />
    <glyph glyph-name="y.alt" 
d="M19 -20h161q19 0 28 7.5t12 29.5l2 17h-95q-66 0 -91.5 27.5t-15.5 98.5l59 417h124l-56 -397q-4 -37 28 -37h63l61 434h125l-79 -564q-12 -88 -46 -115.5t-134 -25.5l-160 9z" />
    <glyph glyph-name="ydieresis.alt" 
d="M19 -20h161q19 0 28 7.5t12 29.5l2 17h-95q-66 0 -91.5 27.5t-15.5 98.5l59 417h124l-56 -397q-4 -37 28 -37h63l61 434h125l-79 -564q-12 -88 -46 -115.5t-134 -25.5l-160 9zM152 616l14 96h83l-14 -96h-83zM279 616l14 96h83l-14 -96h-83z" />
    <glyph glyph-name="ycircumflex.alt" 
d="M19 -20h161q19 0 28 7.5t12 29.5l2 17h-95q-66 0 -91.5 27.5t-15.5 98.5l59 417h124l-56 -397q-4 -37 28 -37h63l61 434h125l-79 -564q-12 -88 -46 -115.5t-134 -25.5l-160 9zM132 610l80 102h118l50 -102h-84l-33 49l-47 -49h-84z" />
    <glyph glyph-name="ygrave.alt" 
d="M19 -20h161q19 0 28 7.5t12 29.5l2 17h-95q-66 0 -91.5 27.5t-15.5 98.5l59 417h124l-56 -397q-4 -37 28 -37h63l61 434h125l-79 -564q-12 -88 -46 -115.5t-134 -25.5l-160 9zM273 712l33 -102h-83l-76 102h126z" />
    <glyph glyph-name="RB" horiz-adv-x="900" 
d="M450 706q147 0 251.5 -104.5t104.5 -251.5t-104.5 -251.5t-251.5 -104.5t-251.5 104.5t-104.5 251.5t104.5 251.5t251.5 104.5zM420 241l-49 65q32 8 55.5 31.5t30.5 54.5q10 37 -9.5 63.5t-57.5 26.5h-90l-61 -241h181zM646 422q7 23 -7 40.5t-39 19.5h-108l-59 -241
h125q27 0 51.5 19t30.5 46q6 23 -6 40.5t-37 20.5q39 14 49 55z" />
    <glyph glyph-name="registered.alt" horiz-adv-x="529" 
d="M117 91l72 515h146q76 0 98 -22t12 -89l-11 -78q-7 -49 -21.5 -66t-52.5 -20q37 -5 46.5 -24t2.5 -68l-21 -148h-97l22 158q6 41 -25 41h-46l-28 -199h-97zM275 525l-22 -158h49q27 0 32 29l14 100q2 17 -3.5 23t-20.5 6h-49zM255 700h152q150 0 130 -141l-59 -417
q-19 -142 -170 -142h-152q-70 0 -104.5 34.5t-24.5 107.5l59 417q20 141 169 141zM158 16h152q133 0 150 126l59 417q18 126 -114 126h-152q-131 0 -149 -126l-59 -417q-18 -126 113 -126z" />
    <glyph glyph-name="published" horiz-adv-x="529" 
d="M125 91l72 515h146q76 0 97.5 -22t11.5 -89l-17 -118q-10 -68 -37.5 -90.5t-102.5 -22.5h-49l-24 -173h-97zM283 525l-25 -180h49q14 0 21.5 6t10.5 24l17 121q4 29 -24 29h-49zM255 700h152q150 0 130 -141l-59 -417q-19 -142 -170 -142h-152q-70 0 -104.5 34.5
t-24.5 107.5l59 417q20 141 169 141zM158 16h152q133 0 150 126l59 417q18 126 -114 126h-152q-131 0 -149 -126l-59 -417q-18 -126 113 -126z" />
    <glyph glyph-name="parenleft.case" horiz-adv-x="218" 
d="M199 620l-76 -543q-7 -53 0 -78q2 -7 7.5 -17.5t13 -22.5t10.5 -18l-53 -41q-45 34 -69 69q-29 42 -20 108l76 543q9 63 51 106q38 38 88 70l41 -42q-5 -5 -16 -17.5t-19 -22.5t-12 -17q-14 -25 -22 -77z" />
    <glyph glyph-name="parenright.case" horiz-adv-x="218" 
d="M56 77l76 543q7 51 0 77q-3 10 -31 57l53 42q45 -35 69 -70q30 -42 20 -106l-76 -543q-9 -65 -51 -108q-36 -37 -88 -69l-41 41q4 5 23 27t24 31q14 24 22 78z" />
    <glyph glyph-name="hyphen.case" horiz-adv-x="291" 
d="M30 304l14 103h257l-14 -103h-257z" />
    <glyph glyph-name="bracketleft.case" horiz-adv-x="276" 
d="M210 676l-90 -640h122l-13 -92h-233l116 824h233l-13 -92h-122z" />
    <glyph glyph-name="bracketright.case" horiz-adv-x="276" 
d="M106 36l90 640h-122l13 92h233l-116 -824h-233l13 92h122z" />
    <glyph glyph-name="braceleft.case" horiz-adv-x="256" 
d="M22 318l9 66l5 2q5 2 10.5 4.5t13 6.5t14 10.5t13 14t11 18.5t6.5 24l22 156q9 63 51 106q30 30 88 70l39 -35q-43 -56 -44 -58q-14 -24 -23 -83l-21 -156q-10 -73 -76 -114q54 -43 44 -112l-23 -161q-9 -62 -1 -85q2 -8 14 -31t14 -26l-49 -35q-46 37 -68 69
q-30 43 -21 108l23 161q-1 13 0 22t-4.5 18t-8.5 13.5t-11 10.5t-11 7.5t-10 4.5z" />
    <glyph glyph-name="bar.case" horiz-adv-x="232" 
d="M27 -73l117 833h98l-117 -833h-98z" />
    <glyph glyph-name="braceright.case" horiz-adv-x="256" 
d="M272 384l-9 -66l-6 -2q-6 -3 -9.5 -5t-11 -6t-12 -8t-11 -10.5t-10.5 -13t-8 -16t-5 -19.5l-23 -161q-9 -67 -51 -108q-29 -31 -88 -69l-39 35q4 6 14 18.5l18 22.5t12 16q14 25 23 85l23 161q10 71 74 112q-53 42 -43 114l22 156q8 58 1 83q-4 12 -28 58l49 35
q48 -41 68 -70q30 -43 21 -106l-22 -156q-2 -15 0.5 -27.5t7.5 -20.5t12.5 -14.5t13.5 -9.5t11 -6z" />
    <glyph glyph-name="gcircumflex.alt" horiz-adv-x="414" 
d="M242 581h216l-10 -70l-43 -11q11 -23 6 -60l-20 -143q-11 -78 -46.5 -109.5t-133.5 -31.5h-29q-21 0 -34 4q-27 -2 -27 -21q0 -8 5.5 -10.5t21.5 -2.5h83q103 0 125.5 -20t7.5 -104l-1 -5q-7 -40 -16.5 -63.5t-29 -42.5t-52 -27t-82.5 -8h-90q-98 0 -119 29t10 99
q14 31 48 65q-34 9 -34 51q0 63 58 89q-25 29 -14 108l20 143q12 88 45 114.5t135 26.5zM198 264h29q19 0 28.5 8t12.5 29l19 135q3 22 -4.5 29.5t-26.5 7.5h-29q-19 0 -28 -7.5t-12 -29.5l-19 -135q-3 -21 4.5 -29t25.5 -8zM139 610l80 102h118l50 -102h-84l-33 49l-47 -49
h-84zM120 -38h81q19 0 27.5 7.5t12.5 29.5l2 10q3 17 -0.5 23.5t-20.5 6.5h-91q-13 -10 -21 -39q-8 -23 -7 -30.5t17 -7.5z" />
    <glyph glyph-name="guilsinglright.case" horiz-adv-x="201" 
d="M211 348l-122 -176h-83l100 176l2 13l-51 176h83l73 -176z" />
    <glyph glyph-name="guillemotleft.case" horiz-adv-x="332" 
d="M224 172l-58 176l2 13l108 176h89l-93 -176l-2 -13l43 -176h-89zM27 348l2 13l122 176h83l-100 -176l-2 -13l50 -176h-83z" />
    <glyph glyph-name="guillemotright.case" horiz-adv-x="332" 
d="M204 348l-108 -176h-89l93 176l2 13l-44 176h89l59 -176zM345 361l-2 -13l-122 -176h-83l100 176l2 13l-51 176h83z" />
    <glyph glyph-name="endash.case" horiz-adv-x="399" 
d="M26 309l13 89h373l-13 -89h-373z" />
    <glyph glyph-name="emdash.case" horiz-adv-x="576" 
d="M26 309l13 89h550l-13 -89h-550z" />
    <glyph glyph-name="bullet.case" horiz-adv-x="281" 
d="M166 483h24q57 0 69.5 -17t4.5 -71l-12 -84q-7 -53 -24 -70t-74 -17h-24q-58 0 -70.5 17t-5.5 70l12 84q8 55 25 71.5t75 16.5z" />
    <glyph glyph-name="periodcentered.case" horiz-adv-x="178" 
d="M43 287l20 139h112l-20 -139h-112z" />
    <glyph glyph-name="germandbls.case" horiz-adv-x="818" 
d="M269 704l169 -4l-15 -109h-170q-24 0 -35.5 -7.5t-15.5 -34.5l-7 -49q-5 -35 6 -47.5t53 -27.5l63 -23q36 -13 52.5 -23t27.5 -38t4 -75l-15 -110q-13 -97 -53.5 -128.5t-145.5 -31.5l-188 4l15 109h189q24 0 35.5 7.5t14.5 34.5l11 78q1 8 1 14.5t-0.5 11t-3.5 9t-5 7
t-8 5.5t-9.5 4.5t-11.5 5.5t-13 6l-67 25q-29 12 -42 19t-28.5 22t-19.5 39t1 59l12 88q13 98 53 129.5t146 30.5zM670 704l169 -4l-15 -109h-170q-24 0 -35.5 -7.5t-15.5 -34.5l-7 -49q-5 -35 6 -47.5t53 -27.5l63 -23q36 -13 52.5 -23t27.5 -38t4 -75l-15 -110
q-13 -97 -53.5 -128.5t-145.5 -31.5l-188 4l15 109h189q24 0 35.5 7.5t14.5 34.5l11 78q1 8 1 14.5t-0.5 11t-3.5 9t-5 7t-8 5.5t-9.5 4.5t-11.5 5.5t-13 6l-67 25q-29 12 -42 19t-28.5 22t-19.5 39t1 59l12 88q13 98 53 129.5t146 30.5z" />
    <glyph glyph-name="i.dot" horiz-adv-x="181" 
d="M-1 0l81 577h124l-81 -577h-124zM90 620l13 92h116l-13 -92h-116z" />
    <glyph glyph-name="caron.alt" horiz-adv-x="500" 
d="M282 670l12 89h69l-11 -77q-3 -27 -15.5 -46t-40.5 -50l-27 14q6 10 12 19l9 13.5t6 10t5 11.5t3 16h-22z" />
    <glyph glyph-name="aring.alt" 
d="M211 581h26l188 -4l-82 -577q-116 -4 -190 -4h-24q-67 0 -95 28.5t-18 99.5l46 330q10 71 46 99t103 28zM170 106h63l52 365h-63q-34 0 -38 -37l-41 -290q-6 -38 27 -38zM265 755h22q44 0 55 -14t5 -54l-2 -15q-6 -39 -21 -53.5t-59 -14.5h-22q-43 0 -54 14t-5 54l2 15
q5 40 20.5 54t58.5 14zM281 719h-19q-21 0 -27.5 -5.5t-8.5 -23.5l-2 -21q-2 -19 2 -24t24 -5h19q21 0 27.5 5.5t8.5 23.5l3 21q2 19 -2 24t-25 5z" />
    <glyph glyph-name="atilde.alt" 
d="M211 581h26l188 -4l-82 -577q-116 -4 -190 -4h-24q-67 0 -95 28.5t-18 99.5l46 330q10 71 46 99t103 28zM170 106h63l52 365h-63q-34 0 -38 -37l-41 -290q-6 -38 27 -38zM299 614l-80 51l-9 -50h-56l14 96h57l83 -31l6 30h57l-15 -96h-57z" />
    <glyph glyph-name="aringacute.alt" 
d="M211 581h26l188 -4l-82 -577q-116 -4 -190 -4h-24q-67 0 -95 28.5t-18 99.5l46 330q10 71 46 99t103 28zM170 106h63l52 365h-63q-34 0 -38 -37l-41 -290q-6 -38 27 -38zM268 755h22q44 0 55 -14t5 -54l-2 -15q-6 -39 -21 -53.5t-59 -14.5h-22q-43 0 -54 14t-5 54l2 15
q5 40 20.5 54t58.5 14zM238 783l63 102h126l-106 -102h-83zM284 719h-19q-21 0 -27 -5t-8 -24l-3 -21q-2 -19 2 -24t24 -5h19q21 0 27.5 5.5t8.5 23.5l3 21q2 19 -2 24t-25 5z" />
    <glyph glyph-name="aogonek.alt" 
d="M337 -35l-2 -16q-4 -37 -17 -54t-49 -17h-58q-38 0 -48 12t-4 46l2 12q5 32 38 48h-46h-24q-67 0 -95 28.5t-18 99.5l46 330q10 71 46 99t103 28h26l188 -4l-82 -577q-27 -1 -60 -2l-27 -15q-18 -10 -22.5 -13.5t-5.5 -12.5l-1 -5q0 -14 3 -15q2 -1 6 -1h22q8 0 9.5 1.5
t2.5 9.5q1 2 1 3l2 15h64zM170 106h63l52 365h-63q-34 0 -38 -37l-41 -290q-6 -38 27 -38z" />
    <glyph glyph-name="idotaccent" horiz-adv-x="181" 
d="M-1 0l81 577h124l-81 -577h-124zM84 617l12 87h128l-12 -87h-128z" />
    <glyph glyph-name="aacute.alt" 
d="M211 581h26l188 -4l-82 -577q-116 -4 -190 -4h-24q-67 0 -95 28.5t-18 99.5l46 330q10 71 46 99t103 28zM170 106h63l52 365h-63q-34 0 -38 -37l-41 -290q-6 -38 27 -38zM206 610l64 102h126l-107 -102h-83z" />
    <glyph glyph-name="a.alt" 
d="M211 581h26l188 -4l-82 -577q-116 -4 -190 -4h-24q-67 0 -95 28.5t-18 99.5l46 330q10 71 46 99t103 28zM170 106h63l52 365h-63q-34 0 -38 -37l-41 -290q-6 -38 27 -38z" />
    <glyph glyph-name="acircumflex.alt" 
d="M211 581h26l188 -4l-82 -577q-116 -4 -190 -4h-24q-67 0 -95 28.5t-18 99.5l46 330q10 71 46 99t103 28zM170 106h63l52 365h-63q-34 0 -38 -37l-41 -290q-6 -38 27 -38zM134 610l80 102h118l50 -102h-84l-33 49l-47 -49h-84z" />
    <glyph glyph-name="adieresis.alt" 
d="M211 581h26l188 -4l-82 -577q-116 -4 -190 -4h-24q-67 0 -95 28.5t-18 99.5l46 330q10 71 46 99t103 28zM170 106h63l52 365h-63q-34 0 -38 -37l-41 -290q-6 -38 27 -38zM159 616l14 96h83l-14 -96h-83zM286 616l14 96h83l-14 -96h-83z" />
    <glyph glyph-name="agrave.alt" 
d="M211 581h26l188 -4l-82 -577q-116 -4 -190 -4h-24q-67 0 -95 28.5t-18 99.5l46 330q10 71 46 99t103 28zM170 106h63l52 365h-63q-34 0 -38 -37l-41 -290q-6 -38 27 -38zM296 712l33 -102h-83l-76 102h126z" />
    <glyph glyph-name="amacron.alt" 
d="M211 581h26l188 -4l-82 -577q-116 -4 -190 -4h-24q-67 0 -95 28.5t-18 99.5l46 330q10 71 46 99t103 28zM170 106h63l52 365h-63q-34 0 -38 -37l-41 -290q-6 -38 27 -38zM149 624l10 72h224l-10 -72h-224z" />
    </font>
</defs>
</svg>
