<?xml version="1.0" standalone="no"?>
<!DOCTYPE svg PUBLIC "-//W3C//DTD SVG 1.1//EN" "http://www.w3.org/Graphics/SVG/1.1/DTD/svg11.dtd" >
<svg xmlns="http://www.w3.org/2000/svg" xmlns:xlink="http://www.w3.org/1999/xlink" version="1.1">
<metadata>
Created by FontForge 20170731 at Sun Sep 30 05:19:11 2012
 By Aleksey,,,
Copyright (c) 2012 by Rene Bieder. All rights reserved.
</metadata>
<defs>
<font id="RBNo2.1b-Hairline" horiz-adv-x="355" >
  <font-face 
    font-family="RBNo2.1b Hairline"
    font-weight="450"
    font-stretch="normal"
    units-per-em="1000"
    panose-1="2 0 0 0 0 0 0 0 0 0"
    ascent="750"
    descent="-250"
    x-height="530"
    cap-height="700"
    bbox="-24 -159 806 879"
    underline-thickness="50"
    underline-position="-200"
    unicode-range="U+0020-FB02"
  />
<missing-glyph horiz-adv-x="400" 
d="M0 0v700h400v-700h-400zM204 350l189 -338v675zM196 350l-189 337v-675zM200 343l-189 -337h377zM11 694l189 -337l188 337h-377z" />
    <glyph glyph-name="fi" unicode="fi" horiz-adv-x="294" 
d="M162 700v-6h-53q-24 0 -33 -13t-9 -40v-111h166v-530h-7v524h-159v-524h-7v524h-44v6h44v111q0 30 11 44.5t38 14.5h53z" />
    <glyph glyph-name="fl" unicode="fl" horiz-adv-x="292" 
d="M109 700h123v-700h-7v694h-116q-24 0 -33 -13t-9 -40v-111h70v-6h-70v-524h-7v524h-44v6h44v111q0 30 11 44.5t38 14.5z" />
    <glyph glyph-name=".notdef" horiz-adv-x="400" 
d="M0 0v700h400v-700h-400zM204 350l189 -338v675zM196 350l-189 337v-675zM200 343l-189 -337h377zM11 694l189 -337l188 337h-377z" />
    <glyph glyph-name=".null" horiz-adv-x="0" 
 />
    <glyph glyph-name="nonmarkingreturn" horiz-adv-x="333" 
 />
    <glyph glyph-name="space" unicode=" " horiz-adv-x="180" 
 />
    <glyph glyph-name="exclam" unicode="!" horiz-adv-x="168" 
d="M82 230l-2 300v170h8v-170l-2 -300h-4zM80 0v80h8v-80h-8z" />
    <glyph glyph-name="quotedbl" unicode="&#x22;" horiz-adv-x="222" 
d="M62 430v270h8v-110l-6 -160h-2zM152 430v270h8v-110l-6 -160h-2z" />
    <glyph glyph-name="numbersign" unicode="#" horiz-adv-x="525" 
d="M83 504l1 6h94l27 190h6l-27 -190h185l27 190h6l-27 -190h107l-1 -6h-107l-44 -313h107l-1 -6h-107l-25 -185h-6l26 185h-186l-25 -185h-6l26 185h-95l1 6h95l43 313h-94zM183 504l-44 -313h186l43 313h-185z" />
    <glyph glyph-name="dollar" unicode="$" horiz-adv-x="357" 
d="M157 700h14v70h8v-70h127v-6h-149q-51 0 -76.5 -20.5t-25.5 -82.5v-96q0 -13 2 -23.5t4.5 -18t9.5 -14.5t10 -11t13.5 -9t13.5 -6.5t16 -7t16 -6.5l80 -27q3 -1 16 -6t17 -6.5t14.5 -7t14.5 -9.5t11 -11.5t9.5 -15.5t5 -19.5t2.5 -25.5v-162q0 -66 -27.5 -87.5
t-81.5 -21.5h-22v-90h-8v90h-124v6h154q51 0 76.5 20.5t25.5 82.5v162q0 14 -2 25.5t-8 20.5t-9 14.5t-14.5 11.5t-14.5 8t-19 8t-18 7l-80 27q-3 1 -14.5 5.5t-15 6t-13 6t-13 7.5t-11 9t-10.5 12t-6.5 14.5t-5 19t-1.5 22.5v96q0 66 27.5 87.5t81.5 21.5z" />
    <glyph glyph-name="percent" unicode="%" horiz-adv-x="578" 
d="M129 700h50q34 0 51.5 -14.5t17.5 -54.5v-212q0 -40 -17.5 -54.5t-51.5 -14.5h-50q-34 0 -51.5 14.5t-17.5 54.5v212q0 40 17.5 54.5t51.5 14.5zM399 350h50q34 0 51.5 -14.5t17.5 -54.5v-212q0 -40 -17.5 -54.5t-51.5 -14.5h-50q-34 0 -51.5 14.5t-17.5 54.5v212
q0 40 17.5 54.5t51.5 14.5zM449 344h-50q-30 0 -46 -13t-16 -50v-212q0 -37 16 -50t46 -13h50q30 0 46 13t16 50v212q0 37 -16 50t-46 13zM179 694h-50q-30 0 -46 -13t-16 -50v-212q0 -37 16 -50t46 -13h50q30 0 46 13t16 50v212q0 37 -16 50t-46 13zM125 0l308 700h8
l-308 -700h-8z" />
    <glyph glyph-name="ampersand" unicode="&#x26;" horiz-adv-x="446" 
d="M281 650v-6h-95q-44 0 -68 -19t-24 -74v-97q0 -55 24 -74t68 -19h255v-3l-133 -3v-355h-147q-48 0 -73.5 20.5t-25.5 78.5v164q0 88 79 97q-54 15 -54 94v97q0 58 25.5 78.5t73.5 20.5h95zM301 6v349h-135q-45 0 -71 -19t-26 -73v-164q0 -55 24 -74t68 -19h140z" />
    <glyph glyph-name="quotesingle" unicode="'" horiz-adv-x="132" 
d="M62 430v270h8v-110l-6 -160h-2z" />
    <glyph glyph-name="parenleft" unicode="(" horiz-adv-x="179" 
d="M69 601v-610q0 -46 16 -70l44 -55l-5 -4q-36 40 -46 56q-16 26 -16 73v610q0 47 16 73l46 56l5 -4q-35 -42 -44 -55q-16 -24 -16 -70z" />
    <glyph glyph-name="parenright" unicode=")" horiz-adv-x="179" 
d="M110 -9v610q0 46 -16 70l-44 55l5 4q36 -40 46 -56q16 -26 16 -73v-610q0 -47 -16 -73l-46 -56l-5 4q35 42 44 55q16 24 16 70z" />
    <glyph glyph-name="asterisk" unicode="*" horiz-adv-x="294" 
d="M250 495l-41 28l-55 42l2 3l58 -38l40 -28zM138 576l-58 38l-40 28l4 7l41 -28l55 -42zM140 565l-55 -42l-41 -28l-4 7l40 28l58 38zM254 642l-40 -28l-58 -38l-2 3l55 42l41 28zM143 444v49l2 69h4l2 -69v-49h-8zM145 582l-2 69v49h8v-49l-2 -69h-4z" />
    <glyph glyph-name="plus" unicode="+" horiz-adv-x="300" 
d="M31 355v7h115v120h7v-120h116v-7h-116v-121h-7v121h-115z" />
    <glyph glyph-name="comma" unicode="," horiz-adv-x="133" 
d="M61 0v70h10v-70q0 -69 -30 -109l-3 2q28 41 28 107h-5z" />
    <glyph glyph-name="hyphen" unicode="-" horiz-adv-x="272" 
d="M32 295v7h208v-7h-208z" />
    <glyph glyph-name="period" unicode="." horiz-adv-x="170" 
d="M80 0v70h10v-70h-10z" />
    <glyph glyph-name="slash" unicode="/" horiz-adv-x="230" 
d="M42 -42l118 780h8l-118 -780h-8z" />
    <glyph glyph-name="zero" unicode="0" horiz-adv-x="389" 
d="M167 700h55q54 0 81.5 -21.5t27.5 -87.5v-482q0 -66 -27.5 -87.5t-81.5 -21.5h-55q-54 0 -81.5 21.5t-27.5 87.5v482q0 66 27.5 87.5t81.5 21.5zM167 6h55q51 0 76.5 20.5t25.5 82.5v482q0 62 -25.5 82.5t-76.5 20.5h-55q-51 0 -76.5 -20.5t-25.5 -82.5v-482
q0 -62 25.5 -82.5t76.5 -20.5z" />
    <glyph glyph-name="one" unicode="1" horiz-adv-x="257" 
d="M6 635l126 65h8v-694h103v-6h-213v6h103v687l-125 -63z" />
    <glyph glyph-name="two" unicode="2" horiz-adv-x="331" 
d="M41 0v177q0 16 1.5 29.5t5 25t6.5 20t10 17.5t10.5 14t13 12.5t13 10.5t15 11t14.5 10l73 51q83 56 83 142v71q0 62 -25.5 82.5t-76.5 20.5h-139v6h139q54 0 81.5 -21.5t27.5 -87.5v-71q0 -32 -7.5 -57t-23.5 -43.5t-26.5 -27t-30.5 -22.5l-73 -50q-2 -2 -17 -12.5
t-18.5 -13.5t-14.5 -13.5t-14.5 -18.5t-9.5 -21t-8 -29t-2 -35v-171h251v-6h-258z" />
    <glyph glyph-name="three" unicode="3" horiz-adv-x="323" 
d="M95 362v6h109q35 1 53.5 18t18.5 64v141q0 62 -25.5 82.5t-76.5 20.5h-149v6h149q54 0 81.5 -21.5t27.5 -87.5v-141q0 -75 -54 -85q54 -12 54 -86v-170q0 -66 -27.5 -87.5t-81.5 -21.5h-149v6h149q51 0 76.5 20.5t25.5 82.5v170q0 46 -18.5 63.5t-53.5 19.5h-109z" />
    <glyph glyph-name="four" unicode="4" horiz-adv-x="360" 
d="M2 180l200 520h47v-520h97v-6h-97v-174h-7v174h-240v6zM207 694l-197 -514h232v514h-35z" />
    <glyph glyph-name="five" unicode="5" horiz-adv-x="339" 
d="M58 700h224v-6h-217v-296h149q44 0 66.5 -18t22.5 -71v-200q0 -66 -27.5 -87.5t-81.5 -21.5h-149v6h149q51 0 76.5 20.5t25.5 82.5v200q0 50 -21 66.5t-61 16.5h-156v308z" />
    <glyph glyph-name="six" unicode="6" horiz-adv-x="336" 
d="M134 388h60q54 0 81.5 -21.5t27.5 -87.5v-170q0 -66 -27.5 -87.5t-81.5 -21.5h-40q-54 0 -81.5 21.5t-27.5 87.5v482q0 66 27.5 87.5t81.5 21.5h100v-6h-100q-49 0 -75.5 -20.5t-26.5 -82.5v-245q16 42 82 42zM194 382h-60q-39 0 -60 -15.5t-22 -62.5v-195
q0 -62 26.5 -82.5t75.5 -20.5h40q49 0 75.5 20.5t26.5 82.5v170q0 63 -26 83t-76 20z" />
    <glyph glyph-name="seven" unicode="7" horiz-adv-x="305" 
d="M30 694v6h248v-13l-228 -687h-9l229 687v7h-240z" />
    <glyph glyph-name="eight" unicode="8" horiz-adv-x="324" 
d="M152 0q-29 0 -45.5 2t-36 11t-28.5 30.5t-9 55.5v176q0 52 18 75.5t52 29.5q-32 7 -48.5 31t-16.5 75v100q0 66 28.5 90t80.5 24h30q52 0 80.5 -24t28.5 -90v-100q0 -91 -66 -106q34 -6 52.5 -29.5t18.5 -75.5v-176q0 -34 -9 -55.5t-28.5 -30.5t-36 -11t-45.5 -2h-20z
M172 6q27 0 42.5 2t34 10.5t27 28.5t8.5 52v176q0 62 -25.5 82t-76.5 20h-40q-51 0 -76.5 -20t-25.5 -82v-176q0 -32 8.5 -52t27 -28.5t34 -10.5t42.5 -2h20zM177 694h-30q-50 0 -76 -22.5t-26 -85.5v-100q0 -58 22.5 -79.5t66.5 -23.5h48q48 1 72.5 21.5t24.5 81.5v100
q0 63 -26 85.5t-76 22.5z" />
    <glyph glyph-name="nine" unicode="9" horiz-adv-x="336" 
d="M202 292h-60q-54 0 -81.5 21.5t-27.5 87.5v190q0 66 27.5 87.5t81.5 21.5h40q54 0 81.5 -21.5t27.5 -87.5v-482q0 -66 -27.5 -87.5t-81.5 -21.5h-110v6h110q51 0 76.5 20.5t25.5 82.5v224q-16 -41 -82 -41zM142 298h60q40 0 61 16.5t21 66.5v210q0 62 -26.5 82.5
t-75.5 20.5h-40q-49 0 -75.5 -20.5t-26.5 -82.5v-190q0 -62 26.5 -82.5t75.5 -20.5z" />
    <glyph glyph-name="colon" unicode=":" horiz-adv-x="132" 
d="M61 0v70h10v-70h-10zM61 460v70h10v-70h-10z" />
    <glyph glyph-name="semicolon" unicode=";" horiz-adv-x="133" 
d="M61 460v70h10v-70h-10zM61 0v70h10v-70q0 -69 -30 -109l-3 2q28 41 28 107h-5z" />
    <glyph glyph-name="less" unicode="&#x3c;" horiz-adv-x="300" 
d="M268 494l-230 -136l230 -136v-8l-236 140v8l236 140v-8z" />
    <glyph glyph-name="equal" unicode="=" horiz-adv-x="300" 
d="M32 431v7h238v-7h-238zM32 271v7h238v-7h-238z" />
    <glyph glyph-name="greater" unicode="&#x3e;" horiz-adv-x="300" 
d="M262 358l-230 136v8l236 -140v-8l-236 -140v8z" />
    <glyph glyph-name="question" unicode="?" horiz-adv-x="343" 
d="M45 700h149q54 0 81.5 -21.5t27.5 -87.5v-71q0 -21 -4.5 -38t-10.5 -28t-17 -22t-18 -16.5t-20 -14t-18 -11.5q-20 -14 -27 -20t-19.5 -19.5t-16.5 -31t-4 -42.5v-78h-7v78q0 26 4.5 44.5t17.5 33t21 21t29 20.5q32 22 45.5 33.5t25.5 35t12 55.5v71q0 62 -25.5 82.5
t-76.5 20.5h-149v6zM140 0v70h10v-70h-10z" />
    <glyph glyph-name="at" unicode="@" horiz-adv-x="511" 
d="M268 500q44 0 66.5 -18t22.5 -71v-298q0 -35 9.5 -49t42.5 -14t42.5 14t9.5 49v367q0 72 -25.5 92.5t-86.5 20.5h-187q-61 0 -86.5 -20.5t-25.5 -92.5v-427q0 -72 25.5 -92.5t86.5 -20.5h237v-6h-237q-67 0 -93 22t-26 97v427q0 75 26 97t93 22h187q67 0 93 -22t26 -97
v-367q0 -38 -11.5 -53.5t-47.5 -15.5q-33 0 -45 12t-14 41q-65 -57 -107 -57h-27q-28 0 -48.5 20t-20.5 49v172q0 29 20.5 49t48.5 20h134v61q0 50 -21 66.5t-61 16.5h-91v6h91zM216 46h27q36 0 107 59v239h-134q-25 0 -43.5 -18.5t-18.5 -44.5v-172q0 -26 18.5 -44.5
t43.5 -18.5z" />
    <glyph glyph-name="A" unicode="A" horiz-adv-x="347" 
d="M202 700l140 -700h-7l-39 196h-245l-39 -196h-7l140 700h57zM151 694l-99 -492h243l-99 492h-45z" />
    <glyph glyph-name="B" unicode="B" horiz-adv-x="364" 
d="M62 0v700h143q48 0 73.5 -20.5t25.5 -78.5v-138q0 -82 -63 -96q68 -14 68 -95v-173q0 -58 -25.5 -78.5t-73.5 -20.5h-148zM69 364v-358h141q44 0 68 19t24 74v173q0 54 -26 73t-71 19h-136zM69 694v-324h143q41 1 63 21t22 72v138q0 55 -24 74t-68 19h-136z" />
    <glyph glyph-name="C" unicode="C" horiz-adv-x="373" 
d="M167 700h159v-6h-159q-51 0 -76.5 -20.5t-25.5 -82.5v-482q0 -62 25.5 -82.5t76.5 -20.5h159v-6h-159q-54 0 -81.5 21.5t-27.5 87.5v482q0 66 27.5 87.5t81.5 21.5z" />
    <glyph glyph-name="D" unicode="D" horiz-adv-x="372" 
d="M62 0v700h153q48 0 73.5 -20.5t25.5 -78.5v-502q0 -58 -25.5 -78.5t-73.5 -20.5h-153zM215 694h-145l-1 -688h146q44 0 68 19t24 74v502q0 55 -24 74t-68 19z" />
    <glyph glyph-name="E" unicode="E" horiz-adv-x="323" 
d="M69 355v-349h219v-6h-226v700h226v-6h-219v-333h209v-6h-209z" />
    <glyph glyph-name="F" unicode="F" horiz-adv-x="303" 
d="M69 351v-351h-7v700h221v-6h-214v-337h204v-6h-204z" />
    <glyph glyph-name="G" unicode="G" horiz-adv-x="371" 
d="M167 700h134v-6h-134q-49 0 -75.5 -20.5t-26.5 -82.5v-482q0 -62 25.5 -82.5t76.5 -20.5h45q51 0 76.5 20.5t25.5 82.5v222h-126v6h133v-228q0 -66 -27.5 -87.5t-81.5 -21.5h-45q-54 0 -81.5 21.5t-27.5 87.5v482q0 66 27.5 87.5t81.5 21.5z" />
    <glyph glyph-name="H" unicode="H" horiz-adv-x="388" 
d="M62 0v700h7v-338h250v338h7v-700h-7v356h-250v-356h-7z" />
    <glyph glyph-name="I" unicode="I" horiz-adv-x="132" 
d="M62 0v700h7v-700h-7z" />
    <glyph glyph-name="J" unicode="J" horiz-adv-x="219" 
d="M10 0v6h50q44 0 68 19t24 74v602h7v-602q0 -58 -25.5 -78.5t-73.5 -20.5h-50z" />
    <glyph glyph-name="K" unicode="K" horiz-adv-x="370" 
d="M69 349v-349h-7v700h7v-345h125l138 345h8l-139 -348l159 -352h-8l-157 349h-126z" />
    <glyph glyph-name="L" unicode="L" horiz-adv-x="288" 
d="M62 0v700h7v-694h204v-6h-211z" />
    <glyph glyph-name="M" unicode="M" horiz-adv-x="506" 
d="M62 700h30l155 -694h12l156 694h29v-700h-7v694h-17l-155 -694h-23l-156 693h-17v-693h-7v700z" />
    <glyph glyph-name="N" unicode="N" horiz-adv-x="409" 
d="M62 700h30l234 -693h14v693h7v-700h-25l-235 694h-18v-694h-7v700z" />
    <glyph glyph-name="O" unicode="O" horiz-adv-x="389" 
d="M167 700h55q54 0 81.5 -21.5t27.5 -87.5v-482q0 -66 -27.5 -87.5t-81.5 -21.5h-55q-54 0 -81.5 21.5t-27.5 87.5v482q0 66 27.5 87.5t81.5 21.5zM167 6h55q51 0 76.5 20.5t25.5 82.5v482q0 62 -25.5 82.5t-76.5 20.5h-55q-51 0 -76.5 -20.5t-25.5 -82.5v-482
q0 -62 25.5 -82.5t76.5 -20.5z" />
    <glyph glyph-name="P" unicode="P" horiz-adv-x="324" 
d="M62 0v700h148q44 0 66.5 -18t22.5 -71v-252q0 -53 -22.5 -71t-66.5 -18h-141v-270h-7zM210 694h-141v-418h141q40 0 61 16.5t21 66.5v252q0 50 -21 66.5t-61 16.5z" />
    <glyph glyph-name="Q" unicode="Q" horiz-adv-x="389" 
d="M167 700h55q54 0 81.5 -21.5t27.5 -87.5v-482q0 -82 -52 -102l52 -84h-8l-51 82q-19 -5 -50 -5h-55q-54 0 -81.5 21.5t-27.5 87.5v482q0 66 27.5 87.5t81.5 21.5zM167 6h55q51 0 76.5 20.5t25.5 82.5v482q0 62 -25.5 82.5t-76.5 20.5h-55q-51 0 -76.5 -20.5t-25.5 -82.5
v-482q0 -62 25.5 -82.5t76.5 -20.5z" />
    <glyph glyph-name="R" unicode="R" horiz-adv-x="345" 
d="M62 0v700h158q44 0 66.5 -18t22.5 -71v-177q0 -44 -16 -63.5t-46 -23.5q62 -15 62 -94v-253h-7v253q0 50 -23 70t-63 22h-147v-345h-7zM69 694v-343h151q40 0 61 16.5t21 66.5v177q0 50 -21 66.5t-61 16.5h-151z" />
    <glyph glyph-name="S" unicode="S" horiz-adv-x="357" 
d="M157 700h149v-6h-149q-51 0 -76.5 -20.5t-25.5 -82.5v-96q0 -13 2 -23.5t4.5 -18t9.5 -14.5t10 -11t13.5 -9t13.5 -6.5t16 -7t16 -6.5l80 -27q3 -1 16 -6t17 -6.5t14.5 -7t14.5 -9.5t11 -11.5t9.5 -15.5t5 -19.5t2.5 -25.5v-162q0 -66 -27.5 -87.5t-81.5 -21.5h-154v6
h154q51 0 76.5 20.5t25.5 82.5v162q0 14 -2 25.5t-8 20.5t-9 14.5t-14.5 11.5t-14.5 8t-19 8t-18 7l-80 27q-3 1 -14.5 5.5t-15 6t-13 6t-13 7.5t-11 9t-10.5 12t-6.5 14.5t-5 19t-1.5 22.5v96q0 66 27.5 87.5t81.5 21.5z" />
    <glyph glyph-name="T" unicode="T" horiz-adv-x="334" 
d="M170 694v-694h-7v694h-153v6h314v-6h-154z" />
    <glyph glyph-name="U" unicode="U" horiz-adv-x="389" 
d="M58 700h7v-591q0 -62 25.5 -82.5t76.5 -20.5h55q51 0 76.5 20.5t25.5 82.5v591h7v-591q0 -66 -27.5 -87.5t-81.5 -21.5h-55q-54 0 -81.5 21.5t-27.5 87.5v591z" />
    <glyph glyph-name="V" unicode="V" horiz-adv-x="407" 
d="M382 700l-150 -700h-57l-150 700h7l149 -694h45l149 694h7z" />
    <glyph glyph-name="W" unicode="W" horiz-adv-x="533" 
d="M15 700h7l99 -694h44l90 694h23l89 -694h44l100 694h7l-100 -700h-57l-90 693h-10l-89 -693h-57z" />
    <glyph glyph-name="X" unicode="X" horiz-adv-x="314" 
d="M292 700l-130 -339l140 -361h-7l-138 356l-138 -356h-7l140 361l-130 339h7l128 -334l128 334h7z" />
    <glyph glyph-name="Y" unicode="Y" horiz-adv-x="352" 
d="M172 0v300l-160 400h8l155 -391l156 391h8l-160 -400v-300h-7z" />
    <glyph glyph-name="Z" unicode="Z" horiz-adv-x="304" 
d="M25 694v6h254v-6l-247 -688h247v-6h-254v6l246 688h-246z" />
    <glyph glyph-name="bracketleft" unicode="[" horiz-adv-x="212" 
d="M69 724v-818h134v-6h-141v830h141v-6h-134z" />
    <glyph glyph-name="backslash" unicode="\" horiz-adv-x="230" 
d="M70 738l118 -780h-8l-118 780h8z" />
    <glyph glyph-name="bracketright" unicode="]" horiz-adv-x="212" 
d="M143 -94v818h-134v6h141v-830h-141v6h134z" />
    <glyph glyph-name="asciicircum" unicode="^" horiz-adv-x="400" 
d="M316 494l-116 199l-116 -199h-8l120 206h8l120 -206h-8z" />
    <glyph glyph-name="underscore" unicode="_" horiz-adv-x="366" 
d="M-2 -66v6h370v-6h-370z" />
    <glyph glyph-name="grave" unicode="`" horiz-adv-x="500" 
d="M227 650l56 -65h-6l-62 65h12z" />
    <glyph glyph-name="a" unicode="a" horiz-adv-x="337" 
d="M77 530h111q44 0 66.5 -18t22.5 -71v-441h-161q-28 0 -48.5 20t-20.5 49v212q0 29 20.5 49t48.5 20h154v91q0 50 -21 66.5t-61 16.5h-111v6zM54 281v-212q0 -26 18.5 -44.5t43.5 -18.5h154v338h-154q-25 0 -43.5 -18.5t-18.5 -44.5z" />
    <glyph glyph-name="b" unicode="b" 
d="M60 0v710h7v-180h162q29 0 49 -20t20 -49v-392q0 -29 -20 -49t-49 -20h-169zM229 524h-162v-518h162q25 0 43.5 18.5t18.5 44.5v392q0 26 -18.5 44.5t-43.5 18.5z" />
    <glyph glyph-name="c" unicode="c" horiz-adv-x="337" 
d="M146 530h144v-6h-144q-40 0 -61 -16.5t-21 -66.5v-352q0 -50 21 -66.5t61 -16.5h144v-6h-144q-44 0 -66.5 18t-22.5 71v352q0 53 22.5 71t66.5 18z" />
    <glyph glyph-name="d" unicode="d" 
d="M57 69v392q0 29 20.5 49t48.5 20h162v180h7v-710h-169q-28 0 -48.5 20t-20.5 49zM288 6v518h-162q-25 0 -43.5 -18.5t-18.5 -44.5v-392q0 -26 18.5 -44.5t43.5 -18.5h162z" />
    <glyph glyph-name="e" unicode="e" horiz-adv-x="347" 
d="M146 530h55q44 0 66.5 -18t22.5 -71v-187h-226v-165q0 -50 21 -66.5t61 -16.5h115v-6h-115q-44 0 -66.5 18t-22.5 71v352q0 53 22.5 71t66.5 18zM146 524q-40 0 -61 -16.5t-21 -66.5v-181h219v181q0 50 -21 66.5t-61 16.5h-55z" />
    <glyph glyph-name="f" unicode="f" horiz-adv-x="165" 
d="M157 530v-6h-90v-524h-7v524h-44v6h44v111q0 30 11 44.5t38 14.5h53v-6h-53q-24 0 -33 -13t-9 -40v-111h90z" />
    <glyph glyph-name="g" unicode="g" 
d="M57 461q0 29 20.5 49t48.5 20h169v-550q0 -53 -22.5 -71t-66.5 -18h-119v6h119q40 0 61 16.5t21 66.5v50h-162q-28 0 -48.5 20t-20.5 49v362zM288 36v488h-162q-25 0 -43.5 -18.5t-18.5 -44.5v-362q0 -26 18.5 -44.5t43.5 -18.5h162z" />
    <glyph glyph-name="h" unicode="h" horiz-adv-x="354" 
d="M289 0v461q0 26 -18.5 44.5t-43.5 18.5h-160v-524h-7v710h7v-180h160q29 0 49 -20t20 -49v-461h-7z" />
    <glyph glyph-name="i" unicode="i" horiz-adv-x="129" 
d="M61 0v530h7v-530h-7zM60 610v70h9v-70h-9z" />
    <glyph glyph-name="j" unicode="j" horiz-adv-x="127" 
d="M1 -97l-4 4q63 61 63 133v490h7v-490q0 -73 -66 -137zM59 610v70h9v-70h-9z" />
    <glyph glyph-name="k" unicode="k" horiz-adv-x="305" 
d="M289 0l-133 293h-89v-293h-7v710h7v-411h89l119 231h8l-121 -234l135 -296h-8z" />
    <glyph glyph-name="l" unicode="l" horiz-adv-x="127" 
d="M60 0v710h7v-710h-7z" />
    <glyph glyph-name="m" unicode="m" horiz-adv-x="563" 
d="M60 0v530h376q28 0 48.5 -20t20.5 -49v-461h-7v461q0 26 -18.5 44.5t-43.5 18.5h-150v-524h-7v515q0 7 -1 8t-6 1h-205v-524h-7z" />
    <glyph glyph-name="n" unicode="n" horiz-adv-x="354" 
d="M289 0v461q0 26 -18.5 44.5t-43.5 18.5h-160v-524h-7v530h167q29 0 49 -20t20 -49v-461h-7z" />
    <glyph glyph-name="o" unicode="o" horiz-adv-x="352" 
d="M146 530h60q44 0 66.5 -18t22.5 -71v-352q0 -53 -22.5 -71t-66.5 -18h-60q-44 0 -66.5 18t-22.5 71v352q0 53 22.5 71t66.5 18zM146 6h60q40 0 61 16.5t21 66.5v352q0 50 -21 66.5t-61 16.5h-60q-40 0 -61 -16.5t-21 -66.5v-352q0 -50 21 -66.5t61 -16.5z" />
    <glyph glyph-name="p" unicode="p" 
d="M60 -110v640h169q29 0 49 -20t20 -49v-392q0 -29 -20 -49t-49 -20h-51l-111 -1v-109h-7zM229 524h-162v-518h162q25 0 43.5 18.5t18.5 44.5v392q0 26 -18.5 44.5t-43.5 18.5z" />
    <glyph glyph-name="q" unicode="q" 
d="M57 69v392q0 29 20.5 49t48.5 20h169v-640h-7v110h-162q-28 0 -48.5 20t-20.5 49zM288 6v518h-162q-25 0 -43.5 -18.5t-18.5 -44.5v-392q0 -26 18.5 -44.5t43.5 -18.5h162z" />
    <glyph glyph-name="r" unicode="r" horiz-adv-x="227" 
d="M60 0v454q0 24 1 34.5t6 22t16 15.5t30 4h114v-6h-114q-32 0 -39 -13t-7 -57v-454h-7z" />
    <glyph glyph-name="s" unicode="s" horiz-adv-x="308" 
d="M129 530h124v-6h-124q-40 0 -61 -16.5t-21 -66.5v-68q0 -26 15.5 -38t48.5 -25q5 -2 8 -3l72 -28q50 -19 63 -35q14 -17 14 -39v-116q0 -53 -22.5 -71t-66.5 -18h-139v5l139 1q40 0 61 16.5t21 66.5v116q0 6 -1.5 12t-2.5 10.5t-5 9t-6 7t-8.5 6.5t-8.5 5.5t-10 4.5
t-9.5 4t-10.5 4.5t-10 3.5l-72 28q-2 1 -10.5 4t-11 4t-10 4.5t-10.5 5t-9 5.5t-9 7.5t-7 8t-5.5 9.5t-3 11.5t-1.5 13.5v68q0 53 22.5 71t66.5 18z" />
    <glyph glyph-name="t" unicode="t" horiz-adv-x="165" 
d="M157 530v-6h-90v-465q0 -27 9 -40t33 -13h53v-6h-53q-27 0 -38 14.5t-11 44.5v465h-44v6h44v120h7v-120h90z" />
    <glyph glyph-name="u" unicode="u" horiz-adv-x="351" 
d="M62 530v-461q0 -26 18.5 -44.5t43.5 -18.5h160v524h7v-530h-167q-28 0 -48.5 20t-20.5 49v461h7z" />
    <glyph glyph-name="v" unicode="v" horiz-adv-x="316" 
d="M301 530l-119 -530h-48l-119 530h7l118 -524h36l118 524h7z" />
    <glyph glyph-name="w" unicode="w" horiz-adv-x="484" 
d="M342 0l-99 524h-3l-98 -524h-48l-79 530h7l78 -524h35l99 524h16l98 -524h35l79 524h7l-79 -530h-48z" />
    <glyph glyph-name="x" unicode="x" horiz-adv-x="281" 
d="M263 530l-117 -249l117 -281h-7l-115 275l-114 -275h-7l116 281l-116 249h7l114 -243l115 243h7z" />
    <glyph glyph-name="y" unicode="y" horiz-adv-x="279" 
d="M102 0l-107 530h7l106 -524h61l88 524h7l-109 -652h-7l20 122h-66z" />
    <glyph glyph-name="z" unicode="z" horiz-adv-x="281" 
d="M256 6v-6h-231v6l224 518h-224v6h231v-6l-224 -518h224z" />
    <glyph glyph-name="braceleft" unicode="{" horiz-adv-x="179" 
d="M10 300v6q16 12 22.5 17.5t18 24t11.5 38.5v215q0 47 16 73l46 56l5 -4q-35 -42 -44 -55q-16 -24 -16 -70v-215q0 -49 -54 -83q54 -37 54 -83v-229q0 -46 16 -70l44 -55l-5 -4q-36 40 -46 56q-16 26 -16 73v229q0 20 -11.5 38.5t-18 24t-22.5 17.5z" />
    <glyph glyph-name="bar" unicode="|" horiz-adv-x="248" 
d="M121 -60v820h7v-820h-7z" />
    <glyph glyph-name="braceright" unicode="}" horiz-adv-x="179" 
d="M169 306v-6q-16 -12 -22.5 -17.5t-18 -24t-11.5 -38.5v-229q0 -47 -16 -73l-46 -56l-5 4q35 42 44 55q16 24 16 70v229q0 46 54 83q-54 34 -54 83v215q0 46 -16 70l-44 55l5 4q36 -40 46 -56q16 -26 16 -73v-215q0 -20 11.5 -38.5t18 -24t22.5 -17.5z" />
    <glyph glyph-name="asciitilde" unicode="~" horiz-adv-x="400" 
d="M274 334l-152 57l-1 -50h-6l2 56h7l152 -56l2 49h5l-2 -56h-7z" />
    <glyph glyph-name="uni00A0" unicode="&#xa0;" horiz-adv-x="150" 
 />
    <glyph glyph-name="exclamdown" unicode="&#xa1;" horiz-adv-x="132" 
d="M62 170l2 300h4l2 -300v-170h-8v170zM62 620v80h8v-80h-8z" />
    <glyph glyph-name="cent" unicode="&#xa2;" horiz-adv-x="337" 
d="M146 530h36v72h8v-72h100v-6h-144q-40 0 -61 -16.5t-21 -66.5v-352q0 -50 21 -66.5t61 -16.5h144v-6h-100v-80h-8v80h-36q-44 0 -66.5 18t-22.5 71v352q0 53 22.5 71t66.5 18z" />
    <glyph glyph-name="sterling" unicode="&#xa3;" horiz-adv-x="370" 
d="M167 694q-51 0 -76.5 -20.5t-25.5 -82.5v-269h173v-6h-173v-310h236v-6h-281v6h38v310h-38v6h38v269q0 66 27.5 87.5t81.5 21.5h109v-6h-109z" />
    <glyph glyph-name="yen" unicode="&#xa5;" horiz-adv-x="352" 
d="M50 286v6h122v8l-160 400h8l155 -391l156 391h8l-160 -400v-8h119v-6h-119v-75h119v-6h-119v-205h-7v205h-122v6h122v75h-122z" />
    <glyph glyph-name="section" unicode="&#xa7;" horiz-adv-x="358" 
d="M276 694h-119q-51 0 -76.5 -20.5t-25.5 -82.5v-11q0 -14 2 -25.5t8 -20.5t9 -14.5t14.5 -11.5t14.5 -8t19 -8t18 -7l80 -27q3 -1 14.5 -5.5t15 -6t13 -6t13 -7.5t11 -9t10.5 -12t6.5 -14.5t5 -19t1.5 -22.5v-110q0 -25 -21 -51q21 -23 21 -65v-21q0 -66 -27.5 -87.5
t-81.5 -21.5h-149v6h149q51 0 76.5 20.5t25.5 82.5v21q0 14 -2 25.5t-8 20.5t-9 14.5t-14.5 11.5t-14.5 8t-19 8t-18 7l-80 27q-3 1 -14.5 5.5t-15 6t-13 6t-13 7.5t-11 9t-10.5 12t-6.5 14.5t-5 19t-1.5 22.5v110q0 25 20 51q-20 23 -20 65v11q0 66 27.5 87.5t81.5 21.5
h119v-6zM218 451l-80 27q-52 19 -66 33q-16 -25 -16 -47v-110q0 -13 2 -23.5t4.5 -18t9 -14.5t10 -10.5t13 -8.5t13.5 -7t16 -7t16 -6l80 -27l17.5 -7t18.5 -7.5t15 -7.5t15 -11q16 23 16 47v110q0 13 -2 23.5t-4.5 18t-9 14.5t-10 10.5t-13 8.5t-13.5 7t-16 7t-16 6z" />
    <glyph glyph-name="dieresis" unicode="&#xa8;" horiz-adv-x="500" 
d="M175 600v50h9v-50h-9zM316 600v50h9v-50h-9z" />
    <glyph glyph-name="copyright" unicode="&#xa9;" horiz-adv-x="509" 
d="M177 700h155q119 0 119 -119v-462q0 -119 -119 -119h-155q-119 0 -119 119v462q0 119 119 119zM177 5h155q113 0 113 114v462q0 114 -113 114h-155q-113 0 -113 -114v-462q0 -114 113 -114zM235 613h107v-6h-107q-18 0 -29.5 -2.5t-24.5 -10t-19.5 -24.5t-6.5 -44v-357
q0 -48 20 -64.5t60 -16.5h107v-6h-107q-43 0 -65 17t-22 70v357q0 53 22 70t65 17z" />
    <glyph glyph-name="ordfeminine" unicode="&#xaa;" horiz-adv-x="233" 
d="M71 700h59q18 0 28 -2.5t18 -15t8 -35.5v-265h-98q-17 0 -29 11.5t-12 29.5v130q0 41 41 41h91v53q0 29 -11.5 38t-35.5 9h-59v6zM86 388h91v200h-91q-34 0 -34 -35v-130q0 -15 9.5 -25t24.5 -10zM184 328v-6h-139v6h139z" />
    <glyph glyph-name="guillemotleft" unicode="&#xab;" horiz-adv-x="229" 
d="M190 124l-90 151v4l90 151h7l-89 -151v-4l89 -151h-7zM20 275v4l90 151h7l-89 -151v-4l89 -151h-7z" />
    <glyph glyph-name="registered" unicode="&#xae;" horiz-adv-x="369" 
d="M212 320h-55q-28 0 -42 2t-29.5 11t-21.5 30t-6 56v182q0 66 22.5 82.5t76.5 16.5h55q28 0 42 -2t29.5 -11t21.5 -30t6 -56v-182q0 -66 -22.5 -82.5t-76.5 -16.5zM157 325h55q27 0 41 2t28 11t19 28.5t5 52.5v182q0 62 -20 78t-73 16h-55q-26 0 -40 -2t-28 -11
t-19.5 -28.5t-5.5 -52.5v-182q0 -62 21 -78t72 -16zM142 493v-108h-7v250h62q41 0 41 -39v-64q0 -28 -21 -37q21 -7 21 -35v-75h-7v75q0 33 -28 33h-61zM197 629h-55v-130h61q28 0 28 33v64q0 33 -34 33z" />
    <glyph glyph-name="macron" unicode="&#xaf;" horiz-adv-x="500" 
d="M174 617v6h152v-6h-152z" />
    <glyph glyph-name="degree" unicode="&#xb0;" horiz-adv-x="235" 
d="M99 700h37q36 0 47.5 -15.5t11.5 -53.5v-126q0 -38 -11.5 -53.5t-47.5 -15.5h-37q-36 0 -47.5 15.5t-11.5 53.5v126q0 38 11.5 53.5t47.5 15.5zM136 694h-37q-33 0 -42.5 -14t-9.5 -49v-126q0 -35 9.5 -49t42.5 -14h37q33 0 42.5 14t9.5 49v126q0 35 -9.5 49t-42.5 14z
" />
    <glyph glyph-name="plusminus" unicode="&#xb1;" horiz-adv-x="300" 
d="M31 403v7h115v120h7v-120h116v-7h-116v-121h-7v121h-115zM31 203v7h238v-7h-238z" />
    <glyph glyph-name="acute" unicode="&#xb4;" horiz-adv-x="500" 
d="M216 585l56 65h12l-62 -65h-6z" />
    <glyph glyph-name="paragraph" unicode="&#xb6;" horiz-adv-x="411" 
d="M192 0v355h-77q-37 0 -58 26t-21 63v167q0 37 21 63t58 26h234v-700h-8v693h-141v-693h-8z" />
    <glyph glyph-name="periodcentered" unicode="&#xb7;" horiz-adv-x="170" 
d="M80 265v70h10v-70h-10z" />
    <glyph glyph-name="cedilla" unicode="&#xb8;" horiz-adv-x="500" 
d="M254 0l-26 -106h-12l32 106h6z" />
    <glyph glyph-name="ordmasculine" unicode="&#xba;" horiz-adv-x="247" 
d="M103 700h41q26 0 39.5 -10.5t13.5 -42.5v-212q0 -32 -13.5 -42.5t-39.5 -10.5h-41q-26 0 -39.5 10.5t-13.5 42.5v212q0 32 13.5 42.5t39.5 10.5zM103 388h41q14 0 23 2.5t16 13.5t7 31v212q0 30 -11 38.5t-35 8.5h-41q-14 0 -23 -2.5t-16 -13.5t-7 -31v-212q0 -29 12 -38
t34 -9zM49 322v6h148v-6h-148z" />
    <glyph glyph-name="guillemotright" unicode="&#xbb;" horiz-adv-x="229" 
d="M129 275l-90 -151h-7l89 151v4l-89 151h7l90 -151v-4zM209 279v-4l-90 -151h-7l89 151v4l-89 151h7z" />
    <glyph glyph-name="questiondown" unicode="&#xbf;" horiz-adv-x="343" 
d="M303 0h-149q-54 0 -81.5 21.5t-27.5 87.5v71q0 21 4.5 38t10.5 28t17 22t18 16.5t20 14t18 11.5q20 14 27 20t19.5 19.5t16.5 31t4 42.5v78h7v-78q0 -26 -4.5 -44.5t-17.5 -33t-21 -21t-29 -20.5q-32 -22 -45.5 -33.5t-25.5 -35t-12 -55.5v-71q0 -62 25.5 -82.5
t76.5 -20.5h149v-6zM208 700v-70h-10v70h10z" />
    <glyph glyph-name="Agrave" unicode="&#xc0;" horiz-adv-x="347" 
d="M202 700l140 -700h-7l-39 196h-245l-39 -196h-7l140 700h57zM151 694l-99 -492h243l-99 492h-45zM131 820l56 -65h-6l-62 65h12z" />
    <glyph glyph-name="Aacute" unicode="&#xc1;" horiz-adv-x="347" 
d="M202 700l140 -700h-7l-39 196h-245l-39 -196h-7l140 700h57zM151 694l-99 -492h243l-99 492h-45zM160 755l56 65h12l-62 -65h-6z" />
    <glyph glyph-name="Acircumflex" unicode="&#xc2;" horiz-adv-x="347" 
d="M202 700l140 -700h-7l-39 196h-245l-39 -196h-7l140 700h57zM151 694l-99 -492h243l-99 492h-45zM100 755l66 65h16l66 -65h-6l-68 61l-68 -61h-6z" />
    <glyph glyph-name="Atilde" unicode="&#xc3;" horiz-adv-x="347" 
d="M202 700l140 -700h-7l-39 196h-245l-39 -196h-7l140 700h57zM151 694l-99 -492h243l-99 492h-45zM236 764l-126 48l-2 -44h-5l2 50h6l125 -48l3 46h5l-2 -52h-6z" />
    <glyph glyph-name="Adieresis" unicode="&#xc4;" horiz-adv-x="347" 
d="M202 700l140 -700h-7l-39 196h-245l-39 -196h-7l140 700h57zM151 694l-99 -492h243l-99 492h-45zM99 770v50h9v-50h-9zM240 770v50h9v-50h-9z" />
    <glyph glyph-name="Aring" unicode="&#xc5;" horiz-adv-x="347" 
d="M202 700l140 -700h-7l-39 196h-245l-39 -196h-7l140 700h57zM151 694l-99 -492h243l-99 492h-45zM170 839h9q45 0 45 -41v-12q0 -41 -45 -41h-9q-45 0 -45 41v12q0 41 45 41zM179 833h-9q-38 0 -38 -35v-12q0 -35 38 -35h9q38 0 38 35v12q0 35 -38 35z" />
    <glyph glyph-name="AE" unicode="&#xc6;" horiz-adv-x="570" 
d="M309 0v196h-214l-68 -196h-7l240 700h275v-6h-219v-333h209v-6h-209v-349h219v-6h-226zM265 694l-168 -492h212v492h-44z" />
    <glyph glyph-name="Ccedilla" unicode="&#xc7;" horiz-adv-x="373" 
d="M167 700h159v-6h-159q-51 0 -76.5 -20.5t-25.5 -82.5v-482q0 -62 25.5 -82.5t76.5 -20.5h159v-6h-115l-26 -106h-12l32 106h-38q-54 0 -81.5 21.5t-27.5 87.5v482q0 66 27.5 87.5t81.5 21.5z" />
    <glyph glyph-name="Egrave" unicode="&#xc8;" horiz-adv-x="323" 
d="M69 355v-349h219v-6h-226v700h226v-6h-219v-333h209v-6h-209zM145 820l56 -65h-6l-62 65h12z" />
    <glyph glyph-name="Eacute" unicode="&#xc9;" horiz-adv-x="323" 
d="M69 355v-349h219v-6h-226v700h226v-6h-219v-333h209v-6h-209zM153 755l56 65h12l-62 -65h-6z" />
    <glyph glyph-name="Ecircumflex" unicode="&#xca;" horiz-adv-x="323" 
d="M69 355v-349h219v-6h-226v700h226v-6h-219v-333h209v-6h-209zM102 755l66 65h16l66 -65h-6l-68 61l-68 -61h-6z" />
    <glyph glyph-name="Edieresis" unicode="&#xcb;" horiz-adv-x="323" 
d="M69 355v-349h219v-6h-226v700h226v-6h-219v-333h209v-6h-209zM99 770v50h9v-50h-9zM240 770v50h9v-50h-9z" />
    <glyph glyph-name="Igrave" unicode="&#xcc;" horiz-adv-x="132" 
d="M62 0v700h7v-700h-7zM14 820l56 -65h-6l-62 65h12z" />
    <glyph glyph-name="Iacute" unicode="&#xcd;" horiz-adv-x="132" 
d="M62 0v700h7v-700h-7zM62 755l56 65h12l-62 -65h-6z" />
    <glyph glyph-name="Icircumflex" unicode="&#xce;" horiz-adv-x="132" 
d="M62 0v700h7v-700h-7zM-8 755l66 65h16l66 -65h-6l-68 61l-68 -61h-6z" />
    <glyph glyph-name="Idieresis" unicode="&#xcf;" horiz-adv-x="132" 
d="M62 0v700h7v-700h-7zM-9 770v50h9v-50h-9zM132 770v50h9v-50h-9z" />
    <glyph glyph-name="Eth" unicode="&#xd0;" horiz-adv-x="372" 
d="M1 356v6h61v338h153q48 0 73.5 -20.5t25.5 -78.5v-502q0 -58 -25.5 -78.5t-73.5 -20.5h-153v356h-61zM215 694h-145l-1 -332h90v-6h-90v-350h146q44 0 68 19t24 74v502q0 55 -24 74t-68 19z" />
    <glyph glyph-name="Ntilde" unicode="&#xd1;" horiz-adv-x="409" 
d="M62 700h30l234 -693h14v693h7v-700h-25l-235 694h-18v-694h-7v700zM267 764l-126 48l-2 -44h-5l2 50h6l125 -48l3 46h5l-2 -52h-6z" />
    <glyph glyph-name="Ograve" unicode="&#xd2;" horiz-adv-x="389" 
d="M167 700h55q54 0 81.5 -21.5t27.5 -87.5v-482q0 -66 -27.5 -87.5t-81.5 -21.5h-55q-54 0 -81.5 21.5t-27.5 87.5v482q0 66 27.5 87.5t81.5 21.5zM167 6h55q51 0 76.5 20.5t25.5 82.5v482q0 62 -25.5 82.5t-76.5 20.5h-55q-51 0 -76.5 -20.5t-25.5 -82.5v-482
q0 -62 25.5 -82.5t76.5 -20.5zM153 820l56 -65h-6l-62 65h12z" />
    <glyph glyph-name="Oacute" unicode="&#xd3;" horiz-adv-x="389" 
d="M167 700h55q54 0 81.5 -21.5t27.5 -87.5v-482q0 -66 -27.5 -87.5t-81.5 -21.5h-55q-54 0 -81.5 21.5t-27.5 87.5v482q0 66 27.5 87.5t81.5 21.5zM167 6h55q51 0 76.5 20.5t25.5 82.5v482q0 62 -25.5 82.5t-76.5 20.5h-55q-51 0 -76.5 -20.5t-25.5 -82.5v-482
q0 -62 25.5 -82.5t76.5 -20.5zM181 755l56 65h12l-62 -65h-6z" />
    <glyph glyph-name="Ocircumflex" unicode="&#xd4;" horiz-adv-x="389" 
d="M167 700h55q54 0 81.5 -21.5t27.5 -87.5v-482q0 -66 -27.5 -87.5t-81.5 -21.5h-55q-54 0 -81.5 21.5t-27.5 87.5v482q0 66 27.5 87.5t81.5 21.5zM167 6h55q51 0 76.5 20.5t25.5 82.5v482q0 62 -25.5 82.5t-76.5 20.5h-55q-51 0 -76.5 -20.5t-25.5 -82.5v-482
q0 -62 25.5 -82.5t76.5 -20.5zM121 755l66 65h16l66 -65h-6l-68 61l-68 -61h-6z" />
    <glyph glyph-name="Otilde" unicode="&#xd5;" horiz-adv-x="389" 
d="M167 700h55q54 0 81.5 -21.5t27.5 -87.5v-482q0 -66 -27.5 -87.5t-81.5 -21.5h-55q-54 0 -81.5 21.5t-27.5 87.5v482q0 66 27.5 87.5t81.5 21.5zM167 6h55q51 0 76.5 20.5t25.5 82.5v482q0 62 -25.5 82.5t-76.5 20.5h-55q-51 0 -76.5 -20.5t-25.5 -82.5v-482
q0 -62 25.5 -82.5t76.5 -20.5zM257 764l-126 48l-2 -44h-5l2 50h6l125 -48l3 46h5l-2 -52h-6z" />
    <glyph glyph-name="Odieresis" unicode="&#xd6;" horiz-adv-x="389" 
d="M167 700h55q54 0 81.5 -21.5t27.5 -87.5v-482q0 -66 -27.5 -87.5t-81.5 -21.5h-55q-54 0 -81.5 21.5t-27.5 87.5v482q0 66 27.5 87.5t81.5 21.5zM167 6h55q51 0 76.5 20.5t25.5 82.5v482q0 62 -25.5 82.5t-76.5 20.5h-55q-51 0 -76.5 -20.5t-25.5 -82.5v-482
q0 -62 25.5 -82.5t76.5 -20.5zM120 770v50h9v-50h-9zM261 770v50h9v-50h-9z" />
    <glyph glyph-name="multiply" unicode="&#xd7;" horiz-adv-x="280" 
d="M226 449l5 -5l-86 -86l85 -85l-5 -5l-85 85l-86 -85l-5 5l86 85l-85 86l5 5l85 -86z" />
    <glyph glyph-name="Oslash" unicode="&#xd8;" horiz-adv-x="389" 
d="M167 700h55q53 0 77 -18l18 56h8l-20 -62q26 -26 26 -85v-482q0 -66 -27.5 -87.5t-81.5 -21.5h-55q-54 0 -77 18l-20 -60h-8l21 66q-25 25 -25 85v482q0 66 27.5 87.5t81.5 21.5zM65 109q0 -55 21 -79l211 644q-23 20 -75 20h-55q-51 0 -76.5 -20.5t-25.5 -82.5v-482z
M167 6h55q51 0 76.5 20.5t25.5 82.5v482q0 54 -22 78l-210 -644q21 -19 75 -19z" />
    <glyph glyph-name="Ugrave" unicode="&#xd9;" horiz-adv-x="389" 
d="M58 700h7v-591q0 -62 25.5 -82.5t76.5 -20.5h55q51 0 76.5 20.5t25.5 82.5v591h7v-591q0 -66 -27.5 -87.5t-81.5 -21.5h-55q-54 0 -81.5 21.5t-27.5 87.5v591zM153 820l56 -65h-6l-62 65h12z" />
    <glyph glyph-name="Uacute" unicode="&#xda;" horiz-adv-x="389" 
d="M58 700h7v-591q0 -62 25.5 -82.5t76.5 -20.5h55q51 0 76.5 20.5t25.5 82.5v591h7v-591q0 -66 -27.5 -87.5t-81.5 -21.5h-55q-54 0 -81.5 21.5t-27.5 87.5v591zM186 755l56 65h12l-62 -65h-6z" />
    <glyph glyph-name="Ucircumflex" unicode="&#xdb;" horiz-adv-x="389" 
d="M58 700h7v-591q0 -62 25.5 -82.5t76.5 -20.5h55q51 0 76.5 20.5t25.5 82.5v591h7v-591q0 -66 -27.5 -87.5t-81.5 -21.5h-55q-54 0 -81.5 21.5t-27.5 87.5v591zM121 755l66 65h16l66 -65h-6l-68 61l-68 -61h-6z" />
    <glyph glyph-name="Udieresis" unicode="&#xdc;" horiz-adv-x="389" 
d="M58 700h7v-591q0 -62 25.5 -82.5t76.5 -20.5h55q51 0 76.5 20.5t25.5 82.5v591h7v-591q0 -66 -27.5 -87.5t-81.5 -21.5h-55q-54 0 -81.5 21.5t-27.5 87.5v591zM120 770v50h9v-50h-9zM261 770v50h9v-50h-9z" />
    <glyph glyph-name="Yacute" unicode="&#xdd;" horiz-adv-x="352" 
d="M172 0v300l-160 400h8l155 -391l156 391h8l-160 -400v-300h-7zM162 755l56 65h12l-62 -65h-6z" />
    <glyph glyph-name="Thorn" unicode="&#xde;" horiz-adv-x="324" 
d="M62 0v700h7v-135h141q44 0 66.5 -18t22.5 -71v-242q0 -53 -22.5 -71t-66.5 -18h-141v-145h-7zM210 559h-141v-408h141q40 0 61 16.5t21 66.5v242q0 50 -21 66.5t-61 16.5z" />
    <glyph glyph-name="germandbls" unicode="&#xdf;" horiz-adv-x="359" 
d="M162 694q-44 0 -68 -19t-24 -74v-601h-7v524l-53 3v3h53v71q0 58 25.5 78.5t73.5 20.5h29q48 0 73.5 -20.5t25.5 -78.5v-118q0 -79 -55 -94q79 -9 79 -97v-193q0 -58 -25.5 -78.5t-73.5 -20.5h-95v6h95q44 0 68 19t24 74v193q0 54 -26 73t-71 19h-90v6h71q44 0 68 19
t24 74v118q0 55 -24 74t-68 19h-29z" />
    <glyph glyph-name="agrave" unicode="&#xe0;" horiz-adv-x="337" 
d="M77 530h111q44 0 66.5 -18t22.5 -71v-441h-161q-28 0 -48.5 20t-20.5 49v212q0 29 20.5 49t48.5 20h154v91q0 50 -21 66.5t-61 16.5h-111v6zM54 281v-212q0 -26 18.5 -44.5t43.5 -18.5h154v338h-154q-25 0 -43.5 -18.5t-18.5 -44.5zM147 650l56 -65h-6l-62 65h12z" />
    <glyph glyph-name="aacute" unicode="&#xe1;" horiz-adv-x="337" 
d="M77 530h111q44 0 66.5 -18t22.5 -71v-441h-161q-28 0 -48.5 20t-20.5 49v212q0 29 20.5 49t48.5 20h154v91q0 50 -21 66.5t-61 16.5h-111v6zM54 281v-212q0 -26 18.5 -44.5t43.5 -18.5h154v338h-154q-25 0 -43.5 -18.5t-18.5 -44.5zM145 585l56 65h12l-62 -65h-6z" />
    <glyph glyph-name="acircumflex" unicode="&#xe2;" horiz-adv-x="337" 
d="M77 530h111q44 0 66.5 -18t22.5 -71v-441h-161q-28 0 -48.5 20t-20.5 49v212q0 29 20.5 49t48.5 20h154v91q0 50 -21 66.5t-61 16.5h-111v6zM54 281v-212q0 -26 18.5 -44.5t43.5 -18.5h154v338h-154q-25 0 -43.5 -18.5t-18.5 -44.5zM95 585l66 65h16l66 -65h-6l-68 61
l-68 -61h-6z" />
    <glyph glyph-name="atilde" unicode="&#xe3;" horiz-adv-x="337" 
d="M77 530h111q44 0 66.5 -18t22.5 -71v-441h-161q-28 0 -48.5 20t-20.5 49v212q0 29 20.5 49t48.5 20h154v91q0 50 -21 66.5t-61 16.5h-111v6zM54 281v-212q0 -26 18.5 -44.5t43.5 -18.5h154v338h-154q-25 0 -43.5 -18.5t-18.5 -44.5zM231 594l-126 48l-2 -44h-5l2 50h6
l125 -48l3 46h5l-2 -52h-6z" />
    <glyph glyph-name="adieresis" unicode="&#xe4;" horiz-adv-x="337" 
d="M77 530h111q44 0 66.5 -18t22.5 -71v-441h-161q-28 0 -48.5 20t-20.5 49v212q0 29 20.5 49t48.5 20h154v91q0 50 -21 66.5t-61 16.5h-111v6zM54 281v-212q0 -26 18.5 -44.5t43.5 -18.5h154v338h-154q-25 0 -43.5 -18.5t-18.5 -44.5zM94 600v50h9v-50h-9zM235 600v50h9
v-50h-9z" />
    <glyph glyph-name="aring" unicode="&#xe5;" horiz-adv-x="337" 
d="M77 530h111q44 0 66.5 -18t22.5 -71v-441h-161q-28 0 -48.5 20t-20.5 49v212q0 29 20.5 49t48.5 20h154v91q0 50 -21 66.5t-61 16.5h-111v6zM54 281v-212q0 -26 18.5 -44.5t43.5 -18.5h154v338h-154q-25 0 -43.5 -18.5t-18.5 -44.5zM159 669h9q45 0 45 -41v-12
q0 -41 -45 -41h-9q-45 0 -45 41v12q0 41 45 41zM168 663h-9q-38 0 -38 -35v-12q0 -35 38 -35h9q38 0 38 35v12q0 35 -38 35z" />
    <glyph glyph-name="ae" unicode="&#xe6;" horiz-adv-x="560" 
d="M359 530h55q44 0 66.5 -18t22.5 -71v-187h-226v-165q0 -50 21 -66.5t61 -16.5h115v-6h-115q-37 0 -59 12t-28 47q-65 -59 -109 -59h-47q-28 0 -48.5 20t-20.5 49v212q0 29 20.5 49t48.5 20h154v96q0 47 -21 62.5t-61 15.5h-111v6h111q36 0 57 -11t28 -44q8 33 29 44
t57 11zM271 66q-1 7 -1 23v255h-154q-25 0 -43.5 -18.5t-18.5 -44.5v-212q0 -26 18.5 -44.5t43.5 -18.5h47q39 0 108 60zM359 524q-39 0 -60 -15.5t-22 -62.5v-186h219v181q0 50 -21 66.5t-61 16.5h-55z" />
    <glyph glyph-name="ccedilla" unicode="&#xe7;" horiz-adv-x="337" 
d="M146 530h144v-6h-144q-40 0 -61 -16.5t-21 -66.5v-352q0 -50 21 -66.5t61 -16.5h144v-6h-105l-26 -106h-12l32 106h-33q-44 0 -66.5 18t-22.5 71v352q0 53 22.5 71t66.5 18z" />
    <glyph glyph-name="egrave" unicode="&#xe8;" horiz-adv-x="347" 
d="M146 530h55q44 0 66.5 -18t22.5 -71v-187h-226v-165q0 -50 21 -66.5t61 -16.5h115v-6h-115q-44 0 -66.5 18t-22.5 71v352q0 53 22.5 71t66.5 18zM146 524q-40 0 -61 -16.5t-21 -66.5v-181h219v181q0 50 -21 66.5t-61 16.5h-55zM142 650l56 -65h-6l-62 65h12z" />
    <glyph glyph-name="eacute" unicode="&#xe9;" horiz-adv-x="347" 
d="M146 530h55q44 0 66.5 -18t22.5 -71v-187h-226v-165q0 -50 21 -66.5t61 -16.5h115v-6h-115q-44 0 -66.5 18t-22.5 71v352q0 53 22.5 71t66.5 18zM146 524q-40 0 -61 -16.5t-21 -66.5v-181h219v181q0 50 -21 66.5t-61 16.5h-55zM150 585l56 65h12l-62 -65h-6z" />
    <glyph glyph-name="ecircumflex" unicode="&#xea;" horiz-adv-x="347" 
d="M146 530h55q44 0 66.5 -18t22.5 -71v-187h-226v-165q0 -50 21 -66.5t61 -16.5h115v-6h-115q-44 0 -66.5 18t-22.5 71v352q0 53 22.5 71t66.5 18zM146 524q-40 0 -61 -16.5t-21 -66.5v-181h219v181q0 50 -21 66.5t-61 16.5h-55zM100 585l66 65h16l66 -65h-6l-68 61
l-68 -61h-6z" />
    <glyph glyph-name="edieresis" unicode="&#xeb;" horiz-adv-x="347" 
d="M146 530h55q44 0 66.5 -18t22.5 -71v-187h-226v-165q0 -50 21 -66.5t61 -16.5h115v-6h-115q-44 0 -66.5 18t-22.5 71v352q0 53 22.5 71t66.5 18zM146 524q-40 0 -61 -16.5t-21 -66.5v-181h219v181q0 50 -21 66.5t-61 16.5h-55zM99 600v50h9v-50h-9zM240 600v50h9v-50h-9z
" />
    <glyph glyph-name="igrave" unicode="&#xec;" horiz-adv-x="129" 
d="M61 0v530h7v-530h-7zM13 650l56 -65h-6l-62 65h12z" />
    <glyph glyph-name="iacute" unicode="&#xed;" horiz-adv-x="129" 
d="M61 0v530h7v-530h-7zM61 585l56 65h12l-62 -65h-6z" />
    <glyph glyph-name="icircumflex" unicode="&#xee;" horiz-adv-x="129" 
d="M61 0v530h7v-530h-7zM-9 585l66 65h16l66 -65h-6l-68 61l-68 -61h-6z" />
    <glyph glyph-name="idieresis" unicode="&#xef;" horiz-adv-x="129" 
d="M61 0v530h7v-530h-7zM-10 600v50h9v-50h-9zM131 600v50h9v-50h-9z" />
    <glyph glyph-name="eth" unicode="&#xf0;" horiz-adv-x="352" 
d="M206 0h-60q-44 0 -66.5 18t-22.5 71v372q0 29 20.5 49t48.5 20h162v11q0 50 -29 88l-56 -20l-3 6l54 19q-10 12 -62 52l3 4q7 -5 22 -16t25 -19.5t19 -17.5l53 19l3 -6l-52 -19q30 -35 30 -90v-452q0 -53 -22.5 -71t-66.5 -18zM146 6h60q40 0 61 16.5t21 66.5v433l-162 2
q-25 0 -43.5 -18.5t-18.5 -44.5v-372q0 -50 21 -66.5t61 -16.5z" />
    <glyph glyph-name="ntilde" unicode="&#xf1;" horiz-adv-x="354" 
d="M289 0v461q0 26 -18.5 44.5t-43.5 18.5h-160v-524h-7v530h167q29 0 49 -20t20 -49v-461h-7zM239 594l-126 48l-2 -44h-5l2 50h6l125 -48l3 46h5l-2 -52h-6z" />
    <glyph glyph-name="ograve" unicode="&#xf2;" horiz-adv-x="352" 
d="M146 530h60q44 0 66.5 -18t22.5 -71v-352q0 -53 -22.5 -71t-66.5 -18h-60q-44 0 -66.5 18t-22.5 71v352q0 53 22.5 71t66.5 18zM146 6h60q40 0 61 16.5t21 66.5v352q0 50 -21 66.5t-61 16.5h-60q-40 0 -61 -16.5t-21 -66.5v-352q0 -50 21 -66.5t61 -16.5zM144 650l56 -65
h-6l-62 65h12z" />
    <glyph glyph-name="oacute" unicode="&#xf3;" horiz-adv-x="352" 
d="M146 530h60q44 0 66.5 -18t22.5 -71v-352q0 -53 -22.5 -71t-66.5 -18h-60q-44 0 -66.5 18t-22.5 71v352q0 53 22.5 71t66.5 18zM146 6h60q40 0 61 16.5t21 66.5v352q0 50 -21 66.5t-61 16.5h-60q-40 0 -61 -16.5t-21 -66.5v-352q0 -50 21 -66.5t61 -16.5zM162 585l56 65
h12l-62 -65h-6z" />
    <glyph glyph-name="ocircumflex" unicode="&#xf4;" horiz-adv-x="352" 
d="M146 530h60q44 0 66.5 -18t22.5 -71v-352q0 -53 -22.5 -71t-66.5 -18h-60q-44 0 -66.5 18t-22.5 71v352q0 53 22.5 71t66.5 18zM146 6h60q40 0 61 16.5t21 66.5v352q0 50 -21 66.5t-61 16.5h-60q-40 0 -61 -16.5t-21 -66.5v-352q0 -50 21 -66.5t61 -16.5zM102 585l66 65
h16l66 -65h-6l-68 61l-68 -61h-6z" />
    <glyph glyph-name="otilde" unicode="&#xf5;" horiz-adv-x="352" 
d="M146 530h60q44 0 66.5 -18t22.5 -71v-352q0 -53 -22.5 -71t-66.5 -18h-60q-44 0 -66.5 18t-22.5 71v352q0 53 22.5 71t66.5 18zM146 6h60q40 0 61 16.5t21 66.5v352q0 50 -21 66.5t-61 16.5h-60q-40 0 -61 -16.5t-21 -66.5v-352q0 -50 21 -66.5t61 -16.5zM239 594
l-126 48l-2 -44h-5l2 50h6l125 -48l3 46h5l-2 -52h-6z" />
    <glyph glyph-name="odieresis" unicode="&#xf6;" horiz-adv-x="352" 
d="M146 530h60q44 0 66.5 -18t22.5 -71v-352q0 -53 -22.5 -71t-66.5 -18h-60q-44 0 -66.5 18t-22.5 71v352q0 53 22.5 71t66.5 18zM146 6h60q40 0 61 16.5t21 66.5v352q0 50 -21 66.5t-61 16.5h-60q-40 0 -61 -16.5t-21 -66.5v-352q0 -50 21 -66.5t61 -16.5zM101 600v50h9
v-50h-9zM242 600v50h9v-50h-9z" />
    <glyph glyph-name="divide" unicode="&#xf7;" horiz-adv-x="300" 
d="M31 355v7h238v-7h-238zM144 432v40h10v-40h-10zM144 244v40h10v-40h-10z" />
    <glyph glyph-name="oslash" unicode="&#xf8;" horiz-adv-x="352" 
d="M146 530h60q25 0 44 -6l19 58h8l-20 -60q38 -18 38 -81v-352q0 -53 -22.5 -71t-66.5 -18h-60q-37 0 -56 10l-18 -52h-8l20 56q-27 21 -27 75v352q0 53 22.5 71t66.5 18zM146 6h60q40 0 61 16.5t21 66.5v352q0 57 -33 74l-162 -498q17 -11 53 -11zM64 89q0 -49 22 -68
l162 497q-18 6 -42 6h-60q-40 0 -61 -16.5t-21 -66.5v-352z" />
    <glyph glyph-name="ugrave" unicode="&#xf9;" horiz-adv-x="351" 
d="M62 530v-461q0 -26 18.5 -44.5t43.5 -18.5h160v524h7v-530h-167q-28 0 -48.5 20t-20.5 49v461h7zM144 650l56 -65h-6l-62 65h12z" />
    <glyph glyph-name="uacute" unicode="&#xfa;" horiz-adv-x="351" 
d="M62 530v-461q0 -26 18.5 -44.5t43.5 -18.5h160v524h7v-530h-167q-28 0 -48.5 20t-20.5 49v461h7zM162 585l56 65h12l-62 -65h-6z" />
    <glyph glyph-name="ucircumflex" unicode="&#xfb;" horiz-adv-x="351" 
d="M62 530v-461q0 -26 18.5 -44.5t43.5 -18.5h160v524h7v-530h-167q-28 0 -48.5 20t-20.5 49v461h7zM99 585l66 65h16l66 -65h-6l-68 61l-68 -61h-6z" />
    <glyph glyph-name="udieresis" unicode="&#xfc;" horiz-adv-x="351" 
d="M62 530v-461q0 -26 18.5 -44.5t43.5 -18.5h160v524h7v-530h-167q-28 0 -48.5 20t-20.5 49v461h7zM242 600v50h9v-50h-9zM101 600v50h9v-50h-9z" />
    <glyph glyph-name="yacute" unicode="&#xfd;" horiz-adv-x="279" 
d="M102 0l-107 530h7l106 -524h61l88 524h7l-109 -652h-7l20 122h-66zM126 585l56 65h12l-62 -65h-6z" />
    <glyph glyph-name="thorn" unicode="&#xfe;" 
d="M60 -110v810h7v-170h162q29 0 49 -20t20 -49v-392q0 -29 -20 -49t-49 -20h-162v-110h-7zM229 524h-162v-518h162q25 0 43.5 18.5t18.5 44.5v392q0 26 -18.5 44.5t-43.5 18.5z" />
    <glyph glyph-name="ydieresis" unicode="&#xff;" horiz-adv-x="279" 
d="M102 0l-107 530h7l106 -524h61l88 524h7l-109 -652h-7l20 122h-66zM57 600v50h9v-50h-9zM198 600v50h9v-50h-9z" />
    <glyph glyph-name="Amacron" unicode="&#x100;" horiz-adv-x="347" 
d="M202 700l140 -700h-7l-39 196h-245l-39 -196h-7l140 700h57zM151 694l-99 -492h243l-99 492h-45zM98 787v6h152v-6h-152z" />
    <glyph glyph-name="amacron" unicode="&#x101;" horiz-adv-x="337" 
d="M77 530h111q44 0 66.5 -18t22.5 -71v-441h-161q-28 0 -48.5 20t-20.5 49v212q0 29 20.5 49t48.5 20h154v91q0 50 -21 66.5t-61 16.5h-111v6zM54 281v-212q0 -26 18.5 -44.5t43.5 -18.5h154v338h-154q-25 0 -43.5 -18.5t-18.5 -44.5zM93 617v6h152v-6h-152z" />
    <glyph glyph-name="Abreve" unicode="&#x102;" horiz-adv-x="347" 
d="M202 700l140 -700h-7l-39 196h-245l-39 -196h-7l140 700h57zM151 694l-99 -492h243l-99 492h-45zM193 755h-39q-60 0 -60 61v9h7v-9q0 -54 53 -54h39q53 0 53 54v9h7v-9q0 -61 -60 -61z" />
    <glyph glyph-name="abreve" unicode="&#x103;" horiz-adv-x="337" 
d="M77 530h111q44 0 66.5 -18t22.5 -71v-441h-161q-28 0 -48.5 20t-20.5 49v212q0 29 20.5 49t48.5 20h154v91q0 50 -21 66.5t-61 16.5h-111v6zM54 281v-212q0 -26 18.5 -44.5t43.5 -18.5h154v338h-154q-25 0 -43.5 -18.5t-18.5 -44.5zM188 585h-39q-60 0 -60 61v9h7v-9
q0 -54 53 -54h39q53 0 53 54v9h7v-9q0 -61 -60 -61z" />
    <glyph glyph-name="Aogonek" unicode="&#x104;" horiz-adv-x="347" 
d="M359 -78v-12q0 -41 -45 -41h-19q-45 0 -45 41v12q0 8 1 13.5t6.5 11.5t8 8t14 9t15.5 10l40 26l-39 196h-245l-39 -196h-7l140 700h57l140 -700v-3l-47 -30q-5 -3 -12.5 -8.5t-10 -7.5t-6.5 -5.5t-5.5 -6.5t-2.5 -7t-1 -10v-12q0 -35 38 -35h19q38 0 38 35v12h7zM151 694
l-99 -492h243l-99 492h-45z" />
    <glyph glyph-name="aogonek" unicode="&#x105;" horiz-adv-x="337" 
d="M294 -75v-12q0 -41 -45 -41h-19q-45 0 -45 41v12q0 8 1 13.5t6.5 11.5t8 8t14 9t15.5 10l35 23h-149q-28 0 -48.5 20t-20.5 49v212q0 29 20.5 49t48.5 20h154v91q0 50 -21 66.5t-61 16.5h-111v6h111q44 0 66.5 -18t22.5 -71v-441l-47 -30q-5 -3 -12.5 -8.5t-10 -7.5
t-6.5 -5.5t-5.5 -6.5t-2.5 -7t-1 -10v-12q0 -35 38 -35h19q38 0 38 35v12h7zM54 281v-212q0 -26 18.5 -44.5t43.5 -18.5h154v338h-154q-25 0 -43.5 -18.5t-18.5 -44.5z" />
    <glyph glyph-name="Cacute" unicode="&#x106;" horiz-adv-x="373" 
d="M167 700h159v-6h-159q-51 0 -76.5 -20.5t-25.5 -82.5v-482q0 -62 25.5 -82.5t76.5 -20.5h159v-6h-159q-54 0 -81.5 21.5t-27.5 87.5v482q0 66 27.5 87.5t81.5 21.5zM178 755l56 65h12l-62 -65h-6z" />
    <glyph glyph-name="cacute" unicode="&#x107;" horiz-adv-x="337" 
d="M146 530h144v-6h-144q-40 0 -61 -16.5t-21 -66.5v-352q0 -50 21 -66.5t61 -16.5h144v-6h-144q-44 0 -66.5 18t-22.5 71v352q0 53 22.5 71t66.5 18zM163 585l56 65h12l-62 -65h-6z" />
    <glyph glyph-name="Cdotaccent" unicode="&#x10a;" horiz-adv-x="373" 
d="M167 700h159v-6h-159q-51 0 -76.5 -20.5t-25.5 -82.5v-482q0 -62 25.5 -82.5t76.5 -20.5h159v-6h-159q-54 0 -81.5 21.5t-27.5 87.5v482q0 66 27.5 87.5t81.5 21.5zM207 782v40h10v-40h-10z" />
    <glyph glyph-name="cdotaccent" unicode="&#x10b;" horiz-adv-x="337" 
d="M146 530h144v-6h-144q-40 0 -61 -16.5t-21 -66.5v-352q0 -50 21 -66.5t61 -16.5h144v-6h-144q-44 0 -66.5 18t-22.5 71v352q0 53 22.5 71t66.5 18zM179 612v40h10v-40h-10z" />
    <glyph glyph-name="Ccaron" unicode="&#x10c;" horiz-adv-x="373" 
d="M167 700h159v-6h-159q-51 0 -76.5 -20.5t-25.5 -82.5v-482q0 -62 25.5 -82.5t76.5 -20.5h159v-6h-159q-54 0 -81.5 21.5t-27.5 87.5v482q0 66 27.5 87.5t81.5 21.5zM199 755l-66 65h6l68 -62l68 62h6l-66 -65h-16z" />
    <glyph glyph-name="ccaron" unicode="&#x10d;" horiz-adv-x="337" 
d="M146 530h144v-6h-144q-40 0 -61 -16.5t-21 -66.5v-352q0 -50 21 -66.5t61 -16.5h144v-6h-144q-44 0 -66.5 18t-22.5 71v352q0 53 22.5 71t66.5 18zM181 585l-66 65h6l68 -62l68 62h6l-66 -65h-16z" />
    <glyph glyph-name="Dcaron" unicode="&#x10e;" horiz-adv-x="372" 
d="M62 0v700h153q48 0 73.5 -20.5t25.5 -78.5v-502q0 -58 -25.5 -78.5t-73.5 -20.5h-153zM215 694h-145l-1 -688h146q44 0 68 19t24 74v502q0 55 -24 74t-68 19zM168 755l-66 65h6l68 -62l68 62h6l-66 -65h-16z" />
    <glyph glyph-name="dcaron" unicode="&#x10f;" horiz-adv-x="357" 
d="M57 69v392q0 29 20.5 49t48.5 20h162v180h7v-710h-169q-28 0 -48.5 20t-20.5 49zM288 6v518h-162q-25 0 -43.5 -18.5t-18.5 -44.5v-392q0 -26 18.5 -44.5t43.5 -18.5h162zM339 650v60h10v-60q0 -11 -1.5 -20t-3.5 -14.5t-6 -12t-6 -8.5t-7 -7.5t-6 -6.5l-3 2q2 2 6.5 7.5
t6.5 8t5.5 8.5t5 11.5t3 13.5t1.5 18h-5z" />
    <glyph glyph-name="Dcroat" unicode="&#x110;" horiz-adv-x="372" 
d="M1 356v6h61v338h153q48 0 73.5 -20.5t25.5 -78.5v-502q0 -58 -25.5 -78.5t-73.5 -20.5h-153v356h-61zM215 694h-145l-1 -332h90v-6h-90v-350h146q44 0 68 19t24 74v502q0 55 -24 74t-68 19z" />
    <glyph glyph-name="dcroat" unicode="&#x111;" 
d="M180 639v6h108v65h7v-65h43v-6h-43v-639h-169q-28 0 -48.5 20t-20.5 49v392q0 29 20.5 49t48.5 20h162v109h-108zM288 6v518h-162q-25 0 -43.5 -18.5t-18.5 -44.5v-392q0 -26 18.5 -44.5t43.5 -18.5h162z" />
    <glyph glyph-name="Emacron" unicode="&#x112;" horiz-adv-x="323" 
d="M98 787v6h152v-6h-152zM69 355v-349h219v-6h-226v700h226v-6h-219v-333h209v-6h-209z" />
    <glyph glyph-name="emacron" unicode="&#x113;" horiz-adv-x="347" 
d="M146 530h55q44 0 66.5 -18t22.5 -71v-187h-226v-165q0 -50 21 -66.5t61 -16.5h115v-6h-115q-44 0 -66.5 18t-22.5 71v352q0 53 22.5 71t66.5 18zM146 524q-40 0 -61 -16.5t-21 -66.5v-181h219v181q0 50 -21 66.5t-61 16.5h-55zM98 617v6h152v-6h-152z" />
    <glyph glyph-name="Ebreve" unicode="&#x114;" horiz-adv-x="323" 
d="M69 355v-349h219v-6h-226v700h226v-6h-219v-333h209v-6h-209zM197 755h-39q-60 0 -60 61v9h7v-9q0 -54 53 -54h39q53 0 53 54v9h7v-9q0 -61 -60 -61z" />
    <glyph glyph-name="ebreve" unicode="&#x115;" horiz-adv-x="347" 
d="M146 530h55q44 0 66.5 -18t22.5 -71v-187h-226v-165q0 -50 21 -66.5t61 -16.5h115v-6h-115q-44 0 -66.5 18t-22.5 71v352q0 53 22.5 71t66.5 18zM146 524q-40 0 -61 -16.5t-21 -66.5v-181h219v181q0 50 -21 66.5t-61 16.5h-55zM193 585h-39q-60 0 -60 61v9h7v-9
q0 -54 53 -54h39q53 0 53 54v9h7v-9q0 -61 -60 -61z" />
    <glyph glyph-name="Edotaccent" unicode="&#x116;" horiz-adv-x="323" 
d="M69 355v-349h219v-6h-226v700h226v-6h-219v-333h209v-6h-209zM176 782v40h10v-40h-10z" />
    <glyph glyph-name="edotaccent" unicode="&#x117;" horiz-adv-x="347" 
d="M146 530h55q44 0 66.5 -18t22.5 -71v-187h-226v-165q0 -50 21 -66.5t61 -16.5h115v-6h-115q-44 0 -66.5 18t-22.5 71v352q0 53 22.5 71t66.5 18zM146 524q-40 0 -61 -16.5t-21 -66.5v-181h219v181q0 50 -21 66.5t-61 16.5h-55zM169 612v40h10v-40h-10z" />
    <glyph glyph-name="Eogonek" unicode="&#x118;" horiz-adv-x="323" 
d="M305 -75v-12q0 -41 -45 -41h-19q-45 0 -45 41v12q0 8 1 13.5t6.5 11.5t8 8t14 9t15.5 10l35 23h-214v700h226v-6h-219v-333h209v-6h-209v-349h219v-6l-47 -30q-5 -3 -12.5 -8.5t-10 -7.5t-6.5 -5.5t-5.5 -6.5t-2.5 -7t-1 -10v-12q0 -35 38 -35h19q38 0 38 35v12h7z" />
    <glyph glyph-name="eogonek" unicode="&#x119;" horiz-adv-x="347" 
d="M278 -75v-12q0 -41 -45 -41h-19q-45 0 -45 41v12q0 8 1 13.5t6.5 11.5t8 8t14 9t15.5 10l35 23h-103q-44 0 -66.5 18t-22.5 71v352q0 53 22.5 71t66.5 18h55q44 0 66.5 -18t22.5 -71v-187h-226v-165q0 -50 21 -66.5t61 -16.5h115v-6l-47 -30q-5 -3 -12.5 -8.5t-10 -7.5
t-6.5 -5.5t-5.5 -6.5t-2.5 -7t-1 -10v-12q0 -35 38 -35h19q38 0 38 35v12h7zM146 524q-40 0 -61 -16.5t-21 -66.5v-181h219v181q0 50 -21 66.5t-61 16.5h-55z" />
    <glyph glyph-name="Ecaron" unicode="&#x11a;" horiz-adv-x="323" 
d="M69 355v-349h219v-6h-226v700h226v-6h-219v-333h209v-6h-209zM174 755l-66 65h6l68 -62l68 62h6l-66 -65h-16z" />
    <glyph glyph-name="ecaron" unicode="&#x11b;" horiz-adv-x="347" 
d="M146 530h55q44 0 66.5 -18t22.5 -71v-187h-226v-165q0 -50 21 -66.5t61 -16.5h115v-6h-115q-44 0 -66.5 18t-22.5 71v352q0 53 22.5 71t66.5 18zM146 524q-40 0 -61 -16.5t-21 -66.5v-181h219v181q0 50 -21 66.5t-61 16.5h-55zM166 585l-66 65h6l68 -62l68 62h6l-66 -65
h-16z" />
    <glyph glyph-name="gcircumflex" unicode="&#x11d;" 
d="M57 461q0 29 20.5 49t48.5 20h169v-550q0 -53 -22.5 -71t-66.5 -18h-119v6h119q40 0 61 16.5t21 66.5v50h-162q-28 0 -48.5 20t-20.5 49v362zM288 36v488h-162q-25 0 -43.5 -18.5t-18.5 -44.5v-362q0 -26 18.5 -44.5t43.5 -18.5h162zM108 585l66 65h16l66 -65h-6l-68 61
l-68 -61h-6z" />
    <glyph glyph-name="Gbreve" unicode="&#x11e;" horiz-adv-x="371" 
d="M167 700h134v-6h-134q-49 0 -75.5 -20.5t-26.5 -82.5v-482q0 -62 25.5 -82.5t76.5 -20.5h45q51 0 76.5 20.5t25.5 82.5v222h-126v6h133v-228q0 -66 -27.5 -87.5t-81.5 -21.5h-45q-54 0 -81.5 21.5t-27.5 87.5v482q0 66 27.5 87.5t81.5 21.5zM205 755h-39q-60 0 -60 61v9
h7v-9q0 -54 53 -54h39q53 0 53 54v9h7v-9q0 -61 -60 -61z" />
    <glyph glyph-name="gbreve" unicode="&#x11f;" 
d="M57 461q0 29 20.5 49t48.5 20h169v-550q0 -53 -22.5 -71t-66.5 -18h-119v6h119q40 0 61 16.5t21 66.5v50h-162q-28 0 -48.5 20t-20.5 49v362zM288 36v488h-162q-25 0 -43.5 -18.5t-18.5 -44.5v-362q0 -26 18.5 -44.5t43.5 -18.5h162zM197 585h-39q-60 0 -60 61v9h7v-9
q0 -54 53 -54h39q53 0 53 54v9h7v-9q0 -61 -60 -61z" />
    <glyph glyph-name="Gdotaccent" unicode="&#x120;" horiz-adv-x="371" 
d="M167 700h134v-6h-134q-49 0 -75.5 -20.5t-26.5 -82.5v-482q0 -62 25.5 -82.5t76.5 -20.5h45q51 0 76.5 20.5t25.5 82.5v222h-126v6h133v-228q0 -66 -27.5 -87.5t-81.5 -21.5h-45q-54 0 -81.5 21.5t-27.5 87.5v482q0 66 27.5 87.5t81.5 21.5zM181 782v40h10v-40h-10z" />
    <glyph glyph-name="gdotaccent" unicode="&#x121;" 
d="M57 461q0 29 20.5 49t48.5 20h169v-550q0 -53 -22.5 -71t-66.5 -18h-119v6h119q40 0 61 16.5t21 66.5v50h-162q-28 0 -48.5 20t-20.5 49v362zM288 36v488h-162q-25 0 -43.5 -18.5t-18.5 -44.5v-362q0 -26 18.5 -44.5t43.5 -18.5h162zM173 612v40h10v-40h-10z" />
    <glyph glyph-name="Gcommaaccent" unicode="&#x122;" horiz-adv-x="371" 
d="M167 700h134v-6h-134q-49 0 -75.5 -20.5t-26.5 -82.5v-482q0 -62 25.5 -82.5t76.5 -20.5h45q51 0 76.5 20.5t25.5 82.5v222h-126v6h133v-228q0 -66 -27.5 -87.5t-81.5 -21.5h-45q-54 0 -81.5 21.5t-27.5 87.5v482q0 66 27.5 87.5t81.5 21.5zM188 -90v50h10v-50
q0 -21 -3 -34.5t-6 -18.5t-11 -16l-3 2q11 16 14.5 27.5t3.5 39.5h-5z" />
    <glyph glyph-name="gcommaaccent" unicode="&#x123;" 
d="M57 461q0 29 20.5 49t48.5 20h169v-550q0 -53 -22.5 -71t-66.5 -18h-119v6h119q40 0 61 16.5t21 66.5v50h-162q-28 0 -48.5 20t-20.5 49v362zM288 36v488h-162q-25 0 -43.5 -18.5t-18.5 -44.5v-362q0 -26 18.5 -44.5t43.5 -18.5h162zM179 631v-50h-10v50q0 21 3 34.5
t6 18.5t11 16l3 -2q-11 -16 -14.5 -27.5t-3.5 -39.5h5z" />
    <glyph glyph-name="Hbar" unicode="&#x126;" horiz-adv-x="388" 
d="M1 576v6h61v118h7v-118h250v118h7v-118h61v-6h-61v-576h-7v356h-250v-356h-7v576h-61zM69 362h250v214h-250v-214z" />
    <glyph glyph-name="hbar" unicode="&#x127;" horiz-adv-x="354" 
d="M1 626v6h59v78h7v-78h92v-6h-92v-96h160q29 0 49 -20t20 -49v-461h-7v461q0 26 -18.5 44.5t-43.5 18.5h-160v-524h-7v626h-59z" />
    <glyph glyph-name="Imacron" unicode="&#x12a;" horiz-adv-x="132" 
d="M62 0v700h7v-700h-7zM-10 787v6h152v-6h-152z" />
    <glyph glyph-name="imacron" unicode="&#x12b;" horiz-adv-x="129" 
d="M61 0v530h7v-530h-7zM-11 617v6h152v-6h-152z" />
    <glyph glyph-name="Ibreve" unicode="&#x12c;" horiz-adv-x="132" 
d="M62 0v700h7v-700h-7zM86 755h-39q-60 0 -60 61v9h7v-9q0 -54 53 -54h39q53 0 53 54v9h7v-9q0 -61 -60 -61z" />
    <glyph glyph-name="ibreve" unicode="&#x12d;" horiz-adv-x="129" 
d="M61 0v530h7v-530h-7zM84 585h-39q-60 0 -60 61v9h7v-9q0 -54 53 -54h39q53 0 53 54v9h7v-9q0 -61 -60 -61z" />
    <glyph glyph-name="Iogonek" unicode="&#x12e;" horiz-adv-x="132" 
d="M86 -78v-12q0 -41 -45 -41h-19q-45 0 -45 41v12q0 8 1 13.5t6.5 11.5t8 8t14 9t15.5 10l40 26v700h7v-703l-47 -30q-5 -3 -12.5 -8.5t-10 -7.5t-6.5 -5.5t-5.5 -6.5t-2.5 -7t-1 -10v-12q0 -35 38 -35h19q38 0 38 35v12h7z" />
    <glyph glyph-name="iogonek" unicode="&#x12f;" horiz-adv-x="129" 
d="M85 -78v-12q0 -41 -45 -41h-19q-45 0 -45 41v12q0 8 1 13.5t6.5 11.5t8 8t14 9t15.5 10l40 26v530h7v-533l-47 -30q-5 -3 -12.5 -8.5t-10 -7.5t-6.5 -5.5t-5.5 -6.5t-2.5 -7t-1 -10v-12q0 -35 38 -35h19q38 0 38 35v12h7zM60 610v70h9v-70h-9z" />
    <glyph glyph-name="Idotaccent" unicode="&#x130;" horiz-adv-x="132" 
d="M62 0v700h7v-700h-7zM61 782v40h10v-40h-10z" />
    <glyph glyph-name="dotlessi" unicode="&#x131;" horiz-adv-x="129" 
d="M61 0v530h7v-530h-7z" />
    <glyph glyph-name="Kcommaaccent" unicode="&#x136;" horiz-adv-x="370" 
d="M69 349v-349h-7v700h7v-345h125l138 345h8l-139 -348l159 -352h-8l-157 349h-126zM188 -90v50h10v-50q0 -21 -3 -34.5t-6 -18.5t-11 -16l-3 2q11 16 14.5 27.5t3.5 39.5h-5z" />
    <glyph glyph-name="kcommaaccent" unicode="&#x137;" horiz-adv-x="305" 
d="M289 0l-133 293h-89v-293h-7v710h7v-411h89l119 231h8l-121 -234l135 -296h-8zM162 -90v50h10v-50q0 -21 -3 -34.5t-6 -18.5t-11 -16l-3 2q11 16 14.5 27.5t3.5 39.5h-5z" />
    <glyph glyph-name="Lacute" unicode="&#x139;" horiz-adv-x="288" 
d="M62 0v700h7v-694h204v-6h-211zM60 755l56 65h12l-62 -65h-6z" />
    <glyph glyph-name="lacute" unicode="&#x13a;" horiz-adv-x="127" 
d="M60 0v710h7v-710h-7zM61 735l56 65h12l-62 -65h-6z" />
    <glyph glyph-name="Lcommaaccent" unicode="&#x13b;" horiz-adv-x="288" 
d="M62 0v700h7v-694h204v-6h-211zM163 -90v50h10v-50q0 -21 -3 -34.5t-6 -18.5t-11 -16l-3 2q11 16 14.5 27.5t3.5 39.5h-5z" />
    <glyph glyph-name="lcommaaccent" unicode="&#x13c;" horiz-adv-x="127" 
d="M60 0v710h7v-710h-7zM58 -90v50h10v-50q0 -21 -3 -34.5t-6 -18.5t-11 -16l-3 2q11 16 14.5 27.5t3.5 39.5h-5z" />
    <glyph glyph-name="Lcaron" unicode="&#x13d;" horiz-adv-x="288" 
d="M62 0v700h7v-694h204v-6h-211zM190 640v60h10v-60q0 -11 -1.5 -20t-3.5 -14.5t-6 -12t-6 -8.5t-7 -7.5t-6 -6.5l-3 2q2 2 6.5 7.5t6.5 8t5.5 8.5t5 11.5t3 13.5t1.5 18h-5z" />
    <glyph glyph-name="lcaron" unicode="&#x13e;" horiz-adv-x="127" 
d="M60 0v710h7v-710h-7zM125 650v60h10v-60q0 -11 -1.5 -20t-3.5 -14.5t-6 -12t-6 -8.5t-7 -7.5t-6 -6.5l-3 2q2 2 6.5 7.5t6.5 8t5.5 8.5t5 11.5t3 13.5t1.5 18h-5z" />
    <glyph glyph-name="Ldot" unicode="&#x13f;" horiz-adv-x="288" 
d="M62 0v700h7v-694h204v-6h-211zM164 347v40h10v-40h-10z" />
    <glyph glyph-name="ldot" unicode="&#x140;" horiz-adv-x="125" 
d="M60 0v710h7v-710h-7zM107 346v40h10v-40h-10z" />
    <glyph glyph-name="Lslash" unicode="&#x141;" horiz-adv-x="288" 
d="M5 314v8l57 34v344h7v-339l84 51v-8l-84 -51v-347h204v-6h-211v348z" />
    <glyph glyph-name="lslash" unicode="&#x142;" horiz-adv-x="127" 
d="M0 303v9l60 51v347h7v-341l61 53v-9l-61 -53v-360h-7v354z" />
    <glyph glyph-name="Nacute" unicode="&#x143;" horiz-adv-x="409" 
d="M62 700h30l234 -693h14v693h7v-700h-25l-235 694h-18v-694h-7v700zM191 755l56 65h12l-62 -65h-6z" />
    <glyph glyph-name="nacute" unicode="&#x144;" horiz-adv-x="354" 
d="M289 0v461q0 26 -18.5 44.5t-43.5 18.5h-160v-524h-7v530h167q29 0 49 -20t20 -49v-461h-7zM153 585l56 65h12l-62 -65h-6z" />
    <glyph glyph-name="Ncommaaccent" unicode="&#x145;" horiz-adv-x="409" 
d="M62 700h30l234 -693h14v693h7v-700h-25l-235 694h-18v-694h-7v700zM193 -90v50h10v-50q0 -21 -3 -34.5t-6 -18.5t-11 -16l-3 2q11 16 14.5 27.5t3.5 39.5h-5z" />
    <glyph glyph-name="ncommaaccent" unicode="&#x146;" horiz-adv-x="354" 
d="M289 0v461q0 26 -18.5 44.5t-43.5 18.5h-160v-524h-7v530h167q29 0 49 -20t20 -49v-461h-7zM174 -90v50h10v-50q0 -21 -3 -34.5t-6 -18.5t-11 -16l-3 2q11 16 14.5 27.5t3.5 39.5h-5z" />
    <glyph glyph-name="Ncaron" unicode="&#x147;" horiz-adv-x="409" 
d="M62 700h30l234 -693h14v693h7v-700h-25l-235 694h-18v-694h-7v700zM197 755l-66 65h6l68 -62l68 62h6l-66 -65h-16z" />
    <glyph glyph-name="ncaron" unicode="&#x148;" horiz-adv-x="354" 
d="M289 0v461q0 26 -18.5 44.5t-43.5 18.5h-160v-524h-7v530h167q29 0 49 -20t20 -49v-461h-7zM169 585l-66 65h6l68 -62l68 62h6l-66 -65h-16z" />
    <glyph glyph-name="Omacron" unicode="&#x14c;" horiz-adv-x="389" 
d="M167 700h55q54 0 81.5 -21.5t27.5 -87.5v-482q0 -66 -27.5 -87.5t-81.5 -21.5h-55q-54 0 -81.5 21.5t-27.5 87.5v482q0 66 27.5 87.5t81.5 21.5zM167 6h55q51 0 76.5 20.5t25.5 82.5v482q0 62 -25.5 82.5t-76.5 20.5h-55q-51 0 -76.5 -20.5t-25.5 -82.5v-482
q0 -62 25.5 -82.5t76.5 -20.5zM119 787v6h152v-6h-152z" />
    <glyph glyph-name="omacron" unicode="&#x14d;" horiz-adv-x="352" 
d="M146 530h60q44 0 66.5 -18t22.5 -71v-352q0 -53 -22.5 -71t-66.5 -18h-60q-44 0 -66.5 18t-22.5 71v352q0 53 22.5 71t66.5 18zM146 6h60q40 0 61 16.5t21 66.5v352q0 50 -21 66.5t-61 16.5h-60q-40 0 -61 -16.5t-21 -66.5v-352q0 -50 21 -66.5t61 -16.5zM100 617v6h152
v-6h-152z" />
    <glyph glyph-name="Obreve" unicode="&#x14e;" horiz-adv-x="389" 
d="M167 700h55q54 0 81.5 -21.5t27.5 -87.5v-482q0 -66 -27.5 -87.5t-81.5 -21.5h-55q-54 0 -81.5 21.5t-27.5 87.5v482q0 66 27.5 87.5t81.5 21.5zM167 6h55q51 0 76.5 20.5t25.5 82.5v482q0 62 -25.5 82.5t-76.5 20.5h-55q-51 0 -76.5 -20.5t-25.5 -82.5v-482
q0 -62 25.5 -82.5t76.5 -20.5zM214 755h-39q-60 0 -60 61v9h7v-9q0 -54 53 -54h39q53 0 53 54v9h7v-9q0 -61 -60 -61z" />
    <glyph glyph-name="obreve" unicode="&#x14f;" horiz-adv-x="352" 
d="M146 530h60q44 0 66.5 -18t22.5 -71v-352q0 -53 -22.5 -71t-66.5 -18h-60q-44 0 -66.5 18t-22.5 71v352q0 53 22.5 71t66.5 18zM146 6h60q40 0 61 16.5t21 66.5v352q0 50 -21 66.5t-61 16.5h-60q-40 0 -61 -16.5t-21 -66.5v-352q0 -50 21 -66.5t61 -16.5zM196 585h-39
q-60 0 -60 61v9h7v-9q0 -54 53 -54h39q53 0 53 54v9h7v-9q0 -61 -60 -61z" />
    <glyph glyph-name="Ohungarumlaut" unicode="&#x150;" horiz-adv-x="389" 
d="M167 700h55q54 0 81.5 -21.5t27.5 -87.5v-482q0 -66 -27.5 -87.5t-81.5 -21.5h-55q-54 0 -81.5 21.5t-27.5 87.5v482q0 66 27.5 87.5t81.5 21.5zM167 6h55q51 0 76.5 20.5t25.5 82.5v482q0 62 -25.5 82.5t-76.5 20.5h-55q-51 0 -76.5 -20.5t-25.5 -82.5v-482
q0 -62 25.5 -82.5t76.5 -20.5zM156 755l56 65h12l-62 -65h-6zM226 755l56 65h12l-62 -65h-6z" />
    <glyph glyph-name="ohungarumlaut" unicode="&#x151;" horiz-adv-x="352" 
d="M146 530h60q44 0 66.5 -18t22.5 -71v-352q0 -53 -22.5 -71t-66.5 -18h-60q-44 0 -66.5 18t-22.5 71v352q0 53 22.5 71t66.5 18zM146 6h60q40 0 61 16.5t21 66.5v352q0 50 -21 66.5t-61 16.5h-60q-40 0 -61 -16.5t-21 -66.5v-352q0 -50 21 -66.5t61 -16.5zM137 585l56 65
h12l-62 -65h-6zM207 585l56 65h12l-62 -65h-6z" />
    <glyph glyph-name="OE" unicode="&#x152;" horiz-adv-x="534" 
d="M509 0h-342q-54 0 -81.5 21.5t-27.5 87.5v482q0 66 27.5 87.5t81.5 21.5h342v-7h-219v-332h209v-6h-209v-348l219 -1v-6zM167 693q-49 0 -75 -20t-26 -82v-482q0 -62 26 -82t75 -20h116v686h-116z" />
    <glyph glyph-name="oe" unicode="&#x153;" horiz-adv-x="578" 
d="M377 530h55q44 0 66.5 -18t22.5 -71v-187h-226v-165q0 -50 21 -66.5t61 -16.5h115v-6h-115q-36 0 -57 11t-29 43q-7 -32 -28 -43t-57 -11h-60q-44 0 -66.5 18t-22.5 71v352q0 53 22.5 71t66.5 18h60q36 0 57 -11t28 -44q8 33 29 44t57 11zM146 6h60q40 0 61 16.5t21 66.5
v352q0 50 -21 66.5t-61 16.5h-60q-40 0 -61 -16.5t-21 -66.5v-352q0 -50 21 -66.5t61 -16.5zM377 524q-40 0 -61 -16.5t-21 -66.5v-181h219v181q0 50 -21 66.5t-61 16.5h-55z" />
    <glyph glyph-name="Racute" unicode="&#x154;" horiz-adv-x="345" 
d="M62 0v700h158q44 0 66.5 -18t22.5 -71v-177q0 -44 -16 -63.5t-46 -23.5q62 -15 62 -94v-253h-7v253q0 50 -23 70t-63 22h-147v-345h-7zM69 694v-343h151q40 0 61 16.5t21 66.5v177q0 50 -21 66.5t-61 16.5h-151zM159 755l56 65h12l-62 -65h-6z" />
    <glyph glyph-name="racute" unicode="&#x155;" horiz-adv-x="227" 
d="M60 0v454q0 24 1 34.5t6 22t16 15.5t30 4h114v-6h-114q-32 0 -39 -13t-7 -57v-454h-7zM100 585l56 65h12l-62 -65h-6z" />
    <glyph glyph-name="Rcommaaccent" unicode="&#x156;" horiz-adv-x="345" 
d="M62 0v700h158q44 0 66.5 -18t22.5 -71v-177q0 -44 -16 -63.5t-46 -23.5q62 -15 62 -94v-253h-7v253q0 50 -23 70t-63 22h-147v-345h-7zM69 694v-343h151q40 0 61 16.5t21 66.5v177q0 50 -21 66.5t-61 16.5h-151zM186 -90v50h10v-50q0 -21 -3 -34.5t-6 -18.5t-11 -16l-3 2
q11 16 14.5 27.5t3.5 39.5h-5z" />
    <glyph glyph-name="rcommaaccent" unicode="&#x157;" horiz-adv-x="227" 
d="M60 0v454q0 24 1 34.5t6 22t16 15.5t30 4h114v-6h-114q-32 0 -39 -13t-7 -57v-454h-7zM60 -90v50h10v-50q0 -21 -3 -34.5t-6 -18.5t-11 -16l-3 2q11 16 14.5 27.5t3.5 39.5h-5z" />
    <glyph glyph-name="Rcaron" unicode="&#x158;" horiz-adv-x="345" 
d="M62 0v700h158q44 0 66.5 -18t22.5 -71v-177q0 -44 -16 -63.5t-46 -23.5q62 -15 62 -94v-253h-7v253q0 50 -23 70t-63 22h-147v-345h-7zM69 694v-343h151q40 0 61 16.5t21 66.5v177q0 50 -21 66.5t-61 16.5h-151zM165 755l-66 65h6l68 -62l68 62h6l-66 -65h-16z" />
    <glyph glyph-name="rcaron" unicode="&#x159;" horiz-adv-x="227" 
d="M60 0v454q0 24 1 34.5t6 22t16 15.5t30 4h114v-6h-114q-32 0 -39 -13t-7 -57v-454h-7zM126 585l-66 65h6l68 -62l68 62h6l-66 -65h-16z" />
    <glyph glyph-name="Sacute" unicode="&#x15a;" horiz-adv-x="357" 
d="M157 700h149v-6h-149q-51 0 -76.5 -20.5t-25.5 -82.5v-96q0 -13 2 -23.5t4.5 -18t9.5 -14.5t10 -11t13.5 -9t13.5 -6.5t16 -7t16 -6.5l80 -27q3 -1 16 -6t17 -6.5t14.5 -7t14.5 -9.5t11 -11.5t9.5 -15.5t5 -19.5t2.5 -25.5v-162q0 -66 -27.5 -87.5t-81.5 -21.5h-154v6
h154q51 0 76.5 20.5t25.5 82.5v162q0 14 -2 25.5t-8 20.5t-9 14.5t-14.5 11.5t-14.5 8t-19 8t-18 7l-80 27q-3 1 -14.5 5.5t-15 6t-13 6t-13 7.5t-11 9t-10.5 12t-6.5 14.5t-5 19t-1.5 22.5v96q0 66 27.5 87.5t81.5 21.5zM155 755l56 65h12l-62 -65h-6z" />
    <glyph glyph-name="sacute" unicode="&#x15b;" horiz-adv-x="308" 
d="M129 530h124v-6h-124q-40 0 -61 -16.5t-21 -66.5v-68q0 -26 15.5 -38t48.5 -25q5 -2 8 -3l72 -28q50 -19 63 -35q14 -17 14 -39v-116q0 -53 -22.5 -71t-66.5 -18h-139v5l139 1q40 0 61 16.5t21 66.5v116q0 6 -1.5 12t-2.5 10.5t-5 9t-6 7t-8.5 6.5t-8.5 5.5t-10 4.5
t-9.5 4t-10.5 4.5t-10 3.5l-72 28q-2 1 -10.5 4t-11 4t-10 4.5t-10.5 5t-9 5.5t-9 7.5t-7 8t-5.5 9.5t-3 11.5t-1.5 13.5v68q0 53 22.5 71t66.5 18zM130 585l56 65h12l-62 -65h-6z" />
    <glyph glyph-name="Scedilla" unicode="&#x15e;" horiz-adv-x="357" 
d="M157 700h149v-6h-149q-51 0 -76.5 -20.5t-25.5 -82.5v-96q0 -13 2 -23.5t4.5 -18t9.5 -14.5t10 -11t13.5 -9t13.5 -6.5t16 -7t16 -6.5l80 -27q3 -1 16 -6t17 -6.5t14.5 -7t14.5 -9.5t11 -11.5t9.5 -15.5t5 -19.5t2.5 -25.5v-162q0 -66 -27.5 -87.5t-81.5 -21.5h-18
l-26 -106h-12l32 106h-130v6h154q51 0 76.5 20.5t25.5 82.5v162q0 14 -2 25.5t-8 20.5t-9 14.5t-14.5 11.5t-14.5 8t-19 8t-18 7l-80 27q-3 1 -14.5 5.5t-15 6t-13 6t-13 7.5t-11 9t-10.5 12t-6.5 14.5t-5 19t-1.5 22.5v96q0 66 27.5 87.5t81.5 21.5z" />
    <glyph glyph-name="scedilla" unicode="&#x15f;" horiz-adv-x="308" 
d="M129 530h124v-6h-124q-40 0 -61 -16.5t-21 -66.5v-68q0 -26 15.5 -38t48.5 -25q5 -2 8 -3l72 -28q50 -19 63 -35q14 -17 14 -39v-116q0 -53 -22.5 -71t-66.5 -18h-22l-26 -106h-12l32 106h-111v5l139 1q40 0 61 16.5t21 66.5v116q0 6 -1.5 12t-2.5 10.5t-5 9t-6 7
t-8.5 6.5t-8.5 5.5t-10 4.5t-9.5 4t-10.5 4.5t-10 3.5l-72 28q-2 1 -10.5 4t-11 4t-10 4.5t-10.5 5t-9 5.5t-9 7.5t-7 8t-5.5 9.5t-3 11.5t-1.5 13.5v68q0 53 22.5 71t66.5 18z" />
    <glyph glyph-name="Scaron" unicode="&#x160;" horiz-adv-x="357" 
d="M157 700h149v-6h-149q-51 0 -76.5 -20.5t-25.5 -82.5v-96q0 -13 2 -23.5t4.5 -18t9.5 -14.5t10 -11t13.5 -9t13.5 -6.5t16 -7t16 -6.5l80 -27q3 -1 16 -6t17 -6.5t14.5 -7t14.5 -9.5t11 -11.5t9.5 -15.5t5 -19.5t2.5 -25.5v-162q0 -66 -27.5 -87.5t-81.5 -21.5h-154v6
h154q51 0 76.5 20.5t25.5 82.5v162q0 14 -2 25.5t-8 20.5t-9 14.5t-14.5 11.5t-14.5 8t-19 8t-18 7l-80 27q-3 1 -14.5 5.5t-15 6t-13 6t-13 7.5t-11 9t-10.5 12t-6.5 14.5t-5 19t-1.5 22.5v96q0 66 27.5 87.5t81.5 21.5zM171 755l-66 65h6l68 -62l68 62h6l-66 -65h-16z" />
    <glyph glyph-name="scaron" unicode="&#x161;" horiz-adv-x="308" 
d="M129 530h124v-6h-124q-40 0 -61 -16.5t-21 -66.5v-68q0 -26 15.5 -38t48.5 -25q5 -2 8 -3l72 -28q50 -19 63 -35q14 -17 14 -39v-116q0 -53 -22.5 -71t-66.5 -18h-139v5l139 1q40 0 61 16.5t21 66.5v116q0 6 -1.5 12t-2.5 10.5t-5 9t-6 7t-8.5 6.5t-8.5 5.5t-10 4.5
t-9.5 4t-10.5 4.5t-10 3.5l-72 28q-2 1 -10.5 4t-11 4t-10 4.5t-10.5 5t-9 5.5t-9 7.5t-7 8t-5.5 9.5t-3 11.5t-1.5 13.5v68q0 53 22.5 71t66.5 18zM146 585l-66 65h6l68 -62l68 62h6l-66 -65h-16z" />
    <glyph glyph-name="Tcommaaccent" unicode="&#x162;" horiz-adv-x="334" 
d="M170 694v-694h-7v694h-153v6h314v-6h-154zM162 -90v50h10v-50q0 -21 -3 -34.5t-6 -18.5t-11 -16l-3 2q11 16 14.5 27.5t3.5 39.5h-5z" />
    <glyph glyph-name="tcommaaccent" unicode="&#x163;" horiz-adv-x="165" 
d="M157 530v-6h-90v-465q0 -27 9 -40t33 -13h53v-6h-53q-27 0 -38 14.5t-11 44.5v465h-44v6h44v120h7v-120h90zM106 -90v50h10v-50q0 -21 -3 -34.5t-6 -18.5t-11 -16l-3 2q11 16 14.5 27.5t3.5 39.5h-5z" />
    <glyph glyph-name="Tcaron" unicode="&#x164;" horiz-adv-x="334" 
d="M170 694v-694h-7v694h-153v6h314v-6h-154zM159 755l-66 65h6l68 -62l68 62h6l-66 -65h-16z" />
    <glyph glyph-name="tcaron" unicode="&#x165;" horiz-adv-x="165" 
d="M157 530v-6h-90v-465q0 -27 9 -40t33 -13h53v-6h-53q-27 0 -38 14.5t-11 44.5v465h-44v6h44v120h7v-120h90zM121 640v60h10v-60q0 -11 -1.5 -20t-3.5 -14.5t-6 -12t-6 -8.5t-7 -7.5t-6 -6.5l-3 2q2 2 6.5 7.5t6.5 8t5.5 8.5t5 11.5t3 13.5t1.5 18h-5z" />
    <glyph glyph-name="Umacron" unicode="&#x16a;" horiz-adv-x="389" 
d="M58 700h7v-591q0 -62 25.5 -82.5t76.5 -20.5h55q51 0 76.5 20.5t25.5 82.5v591h7v-591q0 -66 -27.5 -87.5t-81.5 -21.5h-55q-54 0 -81.5 21.5t-27.5 87.5v591zM119 787v6h152v-6h-152z" />
    <glyph glyph-name="umacron" unicode="&#x16b;" horiz-adv-x="351" 
d="M62 530v-461q0 -26 18.5 -44.5t43.5 -18.5h160v524h7v-530h-167q-28 0 -48.5 20t-20.5 49v461h7zM100 617v6h152v-6h-152z" />
    <glyph glyph-name="Ubreve" unicode="&#x16c;" horiz-adv-x="389" 
d="M58 700h7v-591q0 -62 25.5 -82.5t76.5 -20.5h55q51 0 76.5 20.5t25.5 82.5v591h7v-591q0 -66 -27.5 -87.5t-81.5 -21.5h-55q-54 0 -81.5 21.5t-27.5 87.5v591zM214 755h-39q-60 0 -60 61v9h7v-9q0 -54 53 -54h39q53 0 53 54v9h7v-9q0 -61 -60 -61z" />
    <glyph glyph-name="ubreve" unicode="&#x16d;" horiz-adv-x="351" 
d="M62 530v-461q0 -26 18.5 -44.5t43.5 -18.5h160v524h7v-530h-167q-28 0 -48.5 20t-20.5 49v461h7zM195 585h-39q-60 0 -60 61v9h7v-9q0 -54 53 -54h39q53 0 53 54v9h7v-9q0 -61 -60 -61z" />
    <glyph glyph-name="Uring" unicode="&#x16e;" horiz-adv-x="389" 
d="M58 700h7v-591q0 -62 25.5 -82.5t76.5 -20.5h55q51 0 76.5 20.5t25.5 82.5v591h7v-591q0 -66 -27.5 -87.5t-81.5 -21.5h-55q-54 0 -81.5 21.5t-27.5 87.5v591zM190 839h9q45 0 45 -41v-12q0 -41 -45 -41h-9q-45 0 -45 41v12q0 41 45 41zM199 833h-9q-38 0 -38 -35v-12
q0 -35 38 -35h9q38 0 38 35v12q0 35 -38 35z" />
    <glyph glyph-name="uring" unicode="&#x16f;" horiz-adv-x="351" 
d="M62 530v-461q0 -26 18.5 -44.5t43.5 -18.5h160v524h7v-530h-167q-28 0 -48.5 20t-20.5 49v461h7zM171 669h9q45 0 45 -41v-12q0 -41 -45 -41h-9q-45 0 -45 41v12q0 41 45 41zM180 663h-9q-38 0 -38 -35v-12q0 -35 38 -35h9q38 0 38 35v12q0 35 -38 35z" />
    <glyph glyph-name="Uhungarumlaut" unicode="&#x170;" horiz-adv-x="389" 
d="M58 700h7v-591q0 -62 25.5 -82.5t76.5 -20.5h55q51 0 76.5 20.5t25.5 82.5v591h7v-591q0 -66 -27.5 -87.5t-81.5 -21.5h-55q-54 0 -81.5 21.5t-27.5 87.5v591zM146 755l56 65h12l-62 -65h-6zM216 755l56 65h12l-62 -65h-6z" />
    <glyph glyph-name="uhungarumlaut" unicode="&#x171;" horiz-adv-x="351" 
d="M62 530v-461q0 -26 18.5 -44.5t43.5 -18.5h160v524h7v-530h-167q-28 0 -48.5 20t-20.5 49v461h7zM202 585l56 65h12l-62 -65h-6zM132 585l56 65h12l-62 -65h-6z" />
    <glyph glyph-name="Uogonek" unicode="&#x172;" horiz-adv-x="389" 
d="M255 -74v-12q0 -41 -45 -41h-19q-45 0 -45 41v12q0 8 1 13.5t6.5 11.5t8 8t14 9t15.5 10l34 22h-3h-55q-54 0 -81.5 21.5t-27.5 87.5v591h7v-591q0 -62 25.5 -82.5t76.5 -20.5h55q51 0 76.5 20.5t25.5 82.5v591h7v-591q0 -61 -24.5 -84t-70.5 -25l-45 -29
q-5 -3 -12.5 -8.5t-10 -7.5t-6.5 -5.5t-5.5 -6.5t-2.5 -7t-1 -10v-12q0 -35 38 -35h19q38 0 38 35v12h7z" />
    <glyph glyph-name="uogonek" unicode="&#x173;" horiz-adv-x="351" 
d="M308 -75v-12q0 -41 -45 -41h-19q-45 0 -45 41v12q0 8 1 13.5t6.5 11.5t8 8t14 9t15.5 10l35 23h-155q-28 0 -48.5 20t-20.5 49v461h7v-461q0 -26 18.5 -44.5t43.5 -18.5h160v524h7v-530l-47 -30q-5 -3 -12.5 -8.5t-10 -7.5t-6.5 -5.5t-5.5 -6.5t-2.5 -7t-1 -10v-12
q0 -35 38 -35h19q38 0 38 35v12h7z" />
    <glyph glyph-name="Wcircumflex" unicode="&#x174;" horiz-adv-x="533" 
d="M15 700h7l99 -694h44l90 694h23l89 -694h44l100 694h7l-100 -700h-57l-90 693h-10l-89 -693h-57zM192 755l66 65h16l66 -65h-6l-68 61l-68 -61h-6z" />
    <glyph glyph-name="wcircumflex" unicode="&#x175;" horiz-adv-x="484" 
d="M342 0l-99 524h-3l-98 -524h-48l-79 530h7l78 -524h35l99 524h16l98 -524h35l79 524h7l-79 -530h-48zM168 585l66 65h16l66 -65h-6l-68 61l-68 -61h-6z" />
    <glyph glyph-name="Ycircumflex" unicode="&#x176;" horiz-adv-x="352" 
d="M172 0v300l-160 400h8l155 -391l156 391h8l-160 -400v-300h-7zM102 755l66 65h16l66 -65h-6l-68 61l-68 -61h-6z" />
    <glyph glyph-name="ycircumflex" unicode="&#x177;" horiz-adv-x="279" 
d="M102 0l-107 530h7l106 -524h61l88 524h7l-109 -652h-7l20 122h-66zM66 585l66 65h16l66 -65h-6l-68 61l-68 -61h-6z" />
    <glyph glyph-name="Ydieresis" unicode="&#x178;" horiz-adv-x="352" 
d="M172 0v300l-160 400h8l155 -391l156 391h8l-160 -400v-300h-7zM101 770v50h9v-50h-9zM242 770v50h9v-50h-9z" />
    <glyph glyph-name="Zacute" unicode="&#x179;" horiz-adv-x="304" 
d="M25 694v6h254v-6l-247 -688h247v-6h-254v6l246 688h-246zM128 755l56 65h12l-62 -65h-6z" />
    <glyph glyph-name="zacute" unicode="&#x17a;" horiz-adv-x="281" 
d="M256 6v-6h-231v6l224 518h-224v6h231v-6l-224 -518h224zM117 585l56 65h12l-62 -65h-6z" />
    <glyph glyph-name="Zdotaccent" unicode="&#x17b;" horiz-adv-x="304" 
d="M25 694v6h254v-6l-247 -688h247v-6h-254v6l246 688h-246zM147 782v40h10v-40h-10z" />
    <glyph glyph-name="zdotaccent" unicode="&#x17c;" horiz-adv-x="281" 
d="M256 6v-6h-231v6l224 518h-224v6h231v-6l-224 -518h224zM136 612v40h10v-40h-10z" />
    <glyph glyph-name="Zcaron" unicode="&#x17d;" horiz-adv-x="304" 
d="M25 694v6h254v-6l-247 -688h247v-6h-254v6l246 688h-246zM144 755l-66 65h6l68 -62l68 62h6l-66 -65h-16z" />
    <glyph glyph-name="zcaron" unicode="&#x17e;" horiz-adv-x="281" 
d="M256 6v-6h-231v6l224 518h-224v6h231v-6l-224 -518h224zM133 585l-66 65h6l68 -62l68 62h6l-66 -65h-16z" />
    <glyph glyph-name="Aringacute" unicode="&#x1fa;" horiz-adv-x="347" 
d="M169 788h9q45 0 45 -41v-12q0 -28 -21 -37l140 -698h-7l-39 196h-245l-39 -196h-7l139 698q-20 9 -20 37v12q0 41 45 41zM151 694l-99 -492h243l-99 492h-45zM178 782h-9q-38 0 -38 -35v-12q0 -33 32 -35h20q33 2 33 35v12q0 35 -38 35zM160 814l56 65h12l-62 -65h-6z
" />
    <glyph glyph-name="aringacute" unicode="&#x1fb;" horiz-adv-x="337" 
d="M77 530h111q44 0 66.5 -18t22.5 -71v-441h-161q-28 0 -48.5 20t-20.5 49v212q0 29 20.5 49t48.5 20h154v91q0 50 -21 66.5t-61 16.5h-111v6zM54 281v-212q0 -26 18.5 -44.5t43.5 -18.5h154v338h-154q-25 0 -43.5 -18.5t-18.5 -44.5zM164 669h9q45 0 45 -41v-12
q0 -41 -45 -41h-9q-45 0 -45 41v12q0 41 45 41zM173 663h-9q-38 0 -38 -35v-12q0 -35 38 -35h9q38 0 38 35v12q0 35 -38 35zM135 705l56 65h12l-62 -65h-6z" />
    <glyph glyph-name="AEacute" unicode="&#x1fc;" horiz-adv-x="570" 
d="M341 755l56 65h12l-62 -65h-6zM309 0v196h-214l-68 -196h-7l240 700h275v-6h-219v-333h209v-6h-209v-349h219v-6h-226zM265 694l-168 -492h212v492h-44z" />
    <glyph glyph-name="aeacute" unicode="&#x1fd;" horiz-adv-x="560" 
d="M359 530h55q44 0 66.5 -18t22.5 -71v-187h-226v-165q0 -50 21 -66.5t61 -16.5h115v-6h-115q-37 0 -59 12t-28 47q-65 -59 -109 -59h-47q-28 0 -48.5 20t-20.5 49v212q0 29 20.5 49t48.5 20h154v96q0 47 -21 62.5t-61 15.5h-111v6h111q36 0 57 -11t28 -44q8 33 29 44
t57 11zM271 66q-1 7 -1 23v255h-154q-25 0 -43.5 -18.5t-18.5 -44.5v-212q0 -26 18.5 -44.5t43.5 -18.5h47q39 0 108 60zM359 524q-39 0 -60 -15.5t-22 -62.5v-186h219v181q0 50 -21 66.5t-61 16.5h-55zM266 585l56 65h12l-62 -65h-6z" />
    <glyph glyph-name="Oslashacute" unicode="&#x1fe;" horiz-adv-x="389" 
d="M167 700h55q53 0 77 -18l18 56h8l-20 -62q26 -26 26 -85v-482q0 -66 -27.5 -87.5t-81.5 -21.5h-55q-54 0 -77 18l-20 -60h-8l21 66q-25 25 -25 85v482q0 66 27.5 87.5t81.5 21.5zM65 109q0 -55 21 -79l211 644q-23 20 -75 20h-55q-51 0 -76.5 -20.5t-25.5 -82.5v-482z
M167 6h55q51 0 76.5 20.5t25.5 82.5v482q0 54 -22 78l-210 -644q21 -19 75 -19zM181 755l56 65h12l-62 -65h-6z" />
    <glyph glyph-name="oslashacute" unicode="&#x1ff;" horiz-adv-x="352" 
d="M146 530h60q25 0 44 -6l19 58h8l-20 -60q38 -18 38 -81v-352q0 -53 -22.5 -71t-66.5 -18h-60q-37 0 -56 10l-18 -52h-8l20 56q-27 21 -27 75v352q0 53 22.5 71t66.5 18zM146 6h60q40 0 61 16.5t21 66.5v352q0 57 -33 74l-162 -498q17 -11 53 -11zM64 89q0 -49 22 -68
l162 497q-18 6 -42 6h-60q-40 0 -61 -16.5t-21 -66.5v-352zM162 585l56 65h12l-62 -65h-6z" />
    <glyph glyph-name="Scommaaccent" unicode="&#x218;" horiz-adv-x="357" 
d="M157 700h149v-6h-149q-51 0 -76.5 -20.5t-25.5 -82.5v-96q0 -13 2 -23.5t4.5 -18t9.5 -14.5t10 -11t13.5 -9t13.5 -6.5t16 -7t16 -6.5l80 -27q3 -1 16 -6t17 -6.5t14.5 -7t14.5 -9.5t11 -11.5t9.5 -15.5t5 -19.5t2.5 -25.5v-162q0 -66 -27.5 -87.5t-81.5 -21.5h-154v6
h154q51 0 76.5 20.5t25.5 82.5v162q0 14 -2 25.5t-8 20.5t-9 14.5t-14.5 11.5t-14.5 8t-19 8t-18 7l-80 27q-3 1 -14.5 5.5t-15 6t-13 6t-13 7.5t-11 9t-10.5 12t-6.5 14.5t-5 19t-1.5 22.5v96q0 66 27.5 87.5t81.5 21.5zM172 -90v50h10v-50q0 -21 -3 -34.5t-6 -18.5
t-11 -16l-3 2q11 16 14.5 27.5t3.5 39.5h-5z" />
    <glyph glyph-name="scommaaccent" unicode="&#x219;" horiz-adv-x="308" 
d="M129 530h124v-6h-124q-40 0 -61 -16.5t-21 -66.5v-68q0 -26 15.5 -38t48.5 -25q5 -2 8 -3l72 -28q50 -19 63 -35q14 -17 14 -39v-116q0 -53 -22.5 -71t-66.5 -18h-139v5l139 1q40 0 61 16.5t21 66.5v116q0 6 -1.5 12t-2.5 10.5t-5 9t-6 7t-8.5 6.5t-8.5 5.5t-10 4.5
t-9.5 4t-10.5 4.5t-10 3.5l-72 28q-2 1 -10.5 4t-11 4t-10 4.5t-10.5 5t-9 5.5t-9 7.5t-7 8t-5.5 9.5t-3 11.5t-1.5 13.5v68q0 53 22.5 71t66.5 18zM152 -90v50h10v-50q0 -21 -3 -34.5t-6 -18.5t-11 -16l-3 2q11 16 14.5 27.5t3.5 39.5h-5z" />
    <glyph glyph-name="circumflex" unicode="&#x2c6;" horiz-adv-x="500" 
d="M176 585l66 65h16l66 -65h-6l-68 61l-68 -61h-6z" />
    <glyph glyph-name="caron" unicode="&#x2c7;" horiz-adv-x="500" 
d="M242 585l-66 65h6l68 -62l68 62h6l-66 -65h-16z" />
    <glyph glyph-name="breve" unicode="&#x2d8;" horiz-adv-x="500" 
d="M269 585h-39q-60 0 -60 61v9h7v-9q0 -54 53 -54h39q53 0 53 54v9h7v-9q0 -61 -60 -61z" />
    <glyph glyph-name="dotaccent" unicode="&#x2d9;" horiz-adv-x="500" 
d="M245 612v40h10v-40h-10z" />
    <glyph glyph-name="ring" unicode="&#x2da;" horiz-adv-x="500" 
d="M245 669h9q45 0 45 -41v-12q0 -41 -45 -41h-9q-45 0 -45 41v12q0 41 45 41zM254 663h-9q-38 0 -38 -35v-12q0 -35 38 -35h9q38 0 38 35v12q0 35 -38 35z" />
    <glyph glyph-name="ogonek" unicode="&#x2db;" horiz-adv-x="500" 
d="M304 -78v-12q0 -41 -45 -41h-19q-45 0 -45 41v12q0 8 1 13.5t6.5 11.5t8 8t14 9t15.5 10l40 26h7v-3l-47 -30q-5 -3 -12.5 -8.5t-10 -7.5t-6.5 -5.5t-5.5 -6.5t-2.5 -7t-1 -10v-12q0 -35 38 -35h19q38 0 38 35v12h7z" />
    <glyph glyph-name="tilde" unicode="&#x2dc;" horiz-adv-x="500" 
d="M305 594l-126 48l-2 -44h-5l2 50h6l125 -48l3 46h5l-2 -52h-6z" />
    <glyph glyph-name="hungarumlaut" unicode="&#x2dd;" horiz-adv-x="500" 
d="M201 585l56 65h12l-62 -65h-6zM271 585l56 65h12l-62 -65h-6z" />
    <glyph glyph-name="Wgrave" unicode="&#x1e80;" horiz-adv-x="533" 
d="M15 700h7l99 -694h44l90 694h23l89 -694h44l100 694h7l-100 -700h-57l-90 693h-10l-89 -693h-57zM234 820l56 -65h-6l-62 65h12z" />
    <glyph glyph-name="wgrave" unicode="&#x1e81;" horiz-adv-x="484" 
d="M342 0l-99 524h-3l-98 -524h-48l-79 530h7l78 -524h35l99 524h16l98 -524h35l79 524h7l-79 -530h-48zM200 650l56 -65h-6l-62 65h12z" />
    <glyph glyph-name="Wacute" unicode="&#x1e82;" horiz-adv-x="533" 
d="M15 700h7l99 -694h44l90 694h23l89 -694h44l100 694h7l-100 -700h-57l-90 693h-10l-89 -693h-57zM242 755l56 65h12l-62 -65h-6z" />
    <glyph glyph-name="wacute" unicode="&#x1e83;" horiz-adv-x="484" 
d="M342 0l-99 524h-3l-98 -524h-48l-79 530h7l78 -524h35l99 524h16l98 -524h35l79 524h7l-79 -530h-48zM228 585l56 65h12l-62 -65h-6z" />
    <glyph glyph-name="Wdieresis" unicode="&#x1e84;" horiz-adv-x="533" 
d="M15 700h7l99 -694h44l90 694h23l89 -694h44l100 694h7l-100 -700h-57l-90 693h-10l-89 -693h-57zM191 770v50h9v-50h-9zM332 770v50h9v-50h-9z" />
    <glyph glyph-name="wdieresis" unicode="&#x1e85;" horiz-adv-x="484" 
d="M342 0l-99 524h-3l-98 -524h-48l-79 530h7l78 -524h35l99 524h16l98 -524h35l79 524h7l-79 -530h-48zM167 600v50h9v-50h-9zM308 600v50h9v-50h-9z" />
    <glyph glyph-name="Ygrave" unicode="&#x1ef2;" horiz-adv-x="352" 
d="M172 0v300l-160 400h8l155 -391l156 391h8l-160 -400v-300h-7zM144 820l56 -65h-6l-62 65h12z" />
    <glyph glyph-name="ygrave" unicode="&#x1ef3;" horiz-adv-x="279" 
d="M102 0l-107 530h7l106 -524h61l88 524h7l-109 -652h-7l20 122h-66zM98 650l56 -65h-6l-62 65h12z" />
    <glyph glyph-name="endash" unicode="&#x2013;" horiz-adv-x="378" 
d="M20 295v7h338v-7h-338z" />
    <glyph glyph-name="emdash" unicode="&#x2014;" horiz-adv-x="528" 
d="M20 295v7h488v-7h-488z" />
    <glyph glyph-name="quoteleft" unicode="&#x2018;" horiz-adv-x="133" 
d="M70 593v-70h-10v70q0 69 30 109l3 -2q-28 -41 -28 -107h5z" />
    <glyph glyph-name="quoteright" unicode="&#x2019;" horiz-adv-x="133" 
d="M63 632v70h10v-70q0 -69 -30 -109l-3 2q28 41 28 107h-5z" />
    <glyph glyph-name="quotesinglbase" unicode="&#x201a;" horiz-adv-x="133" 
d="M63 0v70h10v-70q0 -69 -30 -109l-3 2q28 41 28 107h-5z" />
    <glyph glyph-name="quotedblleft" unicode="&#x201c;" horiz-adv-x="213" 
d="M70 593v-70h-10v70q0 69 30 109l3 -2q-28 -41 -28 -107h5zM150 593v-70h-10v70q0 69 30 109l3 -2q-28 -41 -28 -107h5z" />
    <glyph glyph-name="quotedblright" unicode="&#x201d;" horiz-adv-x="213" 
d="M63 632v70h10v-70q0 -69 -30 -109l-3 2q28 41 28 107h-5zM143 632v70h10v-70q0 -69 -30 -109l-3 2q28 41 28 107h-5z" />
    <glyph glyph-name="quotedblbase" unicode="&#x201e;" horiz-adv-x="213" 
d="M63 0v70h10v-70q0 -69 -30 -109l-3 2q28 41 28 107h-5zM143 0v70h10v-70q0 -69 -30 -109l-3 2q28 41 28 107h-5z" />
    <glyph glyph-name="dagger" unicode="&#x2020;" horiz-adv-x="294" 
d="M145 582l-2 69v49h8v-49l-2 -69h-4zM226 576h49v-8h-49l-69 2v4zM137 570l-69 -2h-49v8h49l69 -2v-4zM145 345l-2 118l2 99h4l2 -99l-2 -118h-4z" />
    <glyph glyph-name="daggerdbl" unicode="&#x2021;" horiz-adv-x="294" 
d="M145 364l-2 99l2 99h4l2 -99l-2 -99h-4zM68 576l69 -2v-4l-69 -2h-49v8h49zM143 226v49l2 69h4l2 -69v-49h-8zM275 568h-49l-69 2v4l69 2h49v-8zM68 358l69 -2v-4l-69 -2h-49v8h49zM145 582l-2 69v49h8v-49l-2 -69h-4zM157 356l69 2h49v-8h-49l-69 2v4z" />
    <glyph glyph-name="bullet" unicode="&#x2022;" horiz-adv-x="214" 
d="M99 419h17q23 0 28.5 -8t5.5 -33v-43q0 -25 -5.5 -32.5t-28.5 -7.5h-17q-23 0 -29 8t-6 32v43q0 25 6 33t29 8z" />
    <glyph glyph-name="ellipsis" unicode="&#x2026;" horiz-adv-x="396" 
d="M61 0v70h10v-70h-10zM193 0v70h10v-70h-10zM325 0v70h10v-70h-10z" />
    <glyph glyph-name="perthousand" unicode="&#x2030;" horiz-adv-x="808" 
d="M129 700h50q34 0 51.5 -14.5t17.5 -54.5v-212q0 -40 -17.5 -54.5t-51.5 -14.5h-50q-34 0 -51.5 14.5t-17.5 54.5v212q0 40 17.5 54.5t51.5 14.5zM399 350h50q34 0 51.5 -14.5t17.5 -54.5v-212q0 -40 -17.5 -54.5t-51.5 -14.5h-50q-34 0 -51.5 14.5t-17.5 54.5v212
q0 40 17.5 54.5t51.5 14.5zM629 350h50q34 0 51.5 -14.5t17.5 -54.5v-212q0 -40 -17.5 -54.5t-51.5 -14.5h-50q-34 0 -51.5 14.5t-17.5 54.5v212q0 40 17.5 54.5t51.5 14.5zM449 344h-50q-30 0 -46 -13t-16 -50v-212q0 -37 16 -50t46 -13h50q30 0 46 13t16 50v212
q0 37 -16 50t-46 13zM179 694h-50q-30 0 -46 -13t-16 -50v-212q0 -37 16 -50t46 -13h50q30 0 46 13t16 50v212q0 37 -16 50t-46 13zM679 344h-50q-30 0 -46 -13t-16 -50v-212q0 -37 16 -50t46 -13h50q30 0 46 13t16 50v212q0 37 -16 50t-46 13zM125 0l308 700h8l-308 -700
h-8z" />
    <glyph glyph-name="guilsinglleft" unicode="&#x2039;" horiz-adv-x="149" 
d="M110 124l-90 151v4l90 151h7l-89 -151v-4l89 -151h-7z" />
    <glyph glyph-name="guilsinglright" unicode="&#x203a;" horiz-adv-x="149" 
d="M129 275l-90 -151h-7l89 151v4l-89 151h7l90 -151v-4z" />
    <glyph glyph-name="fraction" unicode="&#x2044;" horiz-adv-x="261" 
d="M-20 0l293 700h7l-293 -700h-7z" />
    <glyph glyph-name="Euro" unicode="&#x20ac;" horiz-adv-x="379" 
d="M167 694q-51 0 -76.5 -20.5t-25.5 -82.5v-179h213v-6h-213v-104h213v-6h-213v-187q0 -62 25.5 -82.5t76.5 -20.5h159v-6h-159q-54 0 -81.5 21.5t-27.5 87.5v187h-38v6h38v104h-38v6h38v179q0 66 27.5 87.5t81.5 21.5h159v-6h-159z" />
    <glyph glyph-name="afii61352" unicode="&#x2116;" horiz-adv-x="761" 
d="M555 700h60q44 0 66.5 -18t22.5 -71v-422q0 -53 -22.5 -71t-66.5 -18h-60q-44 0 -66.5 18t-22.5 71v422q0 53 22.5 71t66.5 18zM555 106h60q40 0 61 16.5t21 66.5v422q0 50 -21 66.5t-61 16.5h-60q-40 0 -61 -16.5t-21 -66.5v-422q0 -50 21 -66.5t61 -16.5zM466 0v6h238
v-6h-238zM62 700h30l234 -693h14v693h7v-700h-25l-235 694h-18v-694h-7v700z" />
    <glyph glyph-name="trademark" unicode="&#x2122;" horiz-adv-x="456" 
d="M219 695v-345h-6v350h19l77 -345h2l78 345h19v-350h-6v345h-8l-78 -345h-12l-77 345h-8zM22 695v5h157v-5h-76v-345h-6v345h-75z" />
    <glyph glyph-name="arrowleft" unicode="&#x2190;" horiz-adv-x="400" 
d="M180 144l-140 151v4l140 151l5 -4l-136 -146h321v-6h-321l136 -146z" />
    <glyph glyph-name="arrowup" unicode="&#x2191;" horiz-adv-x="400" 
d="M197 460h6l150 -140l-4 -4l-146 136v-322h-6v322l-147 -136l-4 4z" />
    <glyph glyph-name="arrowright" unicode="&#x2192;" horiz-adv-x="400" 
d="M370 295l-140 -151l-5 4l136 146h-321v6h321l-136 146l5 4l140 -151v-4z" />
    <glyph glyph-name="arrowdown" unicode="&#x2193;" horiz-adv-x="400" 
d="M203 130h-6l-151 140l4 4l147 -136v322h6v-322l146 136l4 -4z" />
    <glyph glyph-name="uni2196" unicode="&#x2196;" horiz-adv-x="400" 
d="M90 415h206v-5h-200l228 -228l-4 -4l-228 228v-200h-5v206z" />
    <glyph glyph-name="uni2197" unicode="&#x2197;" horiz-adv-x="400" 
d="M104 415h206l3 -3v-206h-5v200l-228 -228l-4 4l228 228h-200v5z" />
    <glyph glyph-name="uni2198" unicode="&#x2198;" horiz-adv-x="400" 
d="M310 178h-206v5h200l-228 228l4 4l228 -228v200h5v-206z" />
    <glyph glyph-name="uni2199" unicode="&#x2199;" horiz-adv-x="400" 
d="M296 178h-206l-3 3v206h5v-200l228 228l4 -4l-228 -228h200v-5z" />
    <glyph glyph-name="minus" unicode="&#x2212;" horiz-adv-x="300" 
d="M31 355v7h238v-7h-238z" />
    <glyph glyph-name="commaaccent" unicode="&#xf6c3;" horiz-adv-x="500" 
d="M251 0v50h10v-50q0 -21 -3 -34.5t-6 -18.5t-11 -16l-3 2q11 16 14.5 27.5t3.5 39.5h-5z" />
    <glyph glyph-name="abreve.alt" 
d="M126 530h169v-530h-169q-28 0 -48.5 20t-20.5 49v392q0 29 20.5 49t48.5 20zM126 6h162v518h-162q-25 0 -43.5 -18.5t-18.5 -44.5v-392q0 -26 18.5 -44.5t43.5 -18.5zM201 585h-39q-60 0 -60 61v9h7v-9q0 -54 53 -54h39q53 0 53 54v9h7v-9q0 -61 -60 -61z" />
    <glyph glyph-name="guilsinglleft.case" horiz-adv-x="149" 
d="M110 204l-90 151v4l90 151h7l-89 -151v-4l89 -151h-7z" />
    <glyph glyph-name="gcommaaccent.alt" horiz-adv-x="349" 
d="M146 530h180v-6h-76q45 -14 45 -83v-232q0 -53 -22.5 -71t-66.5 -18h-60q-42 0 -57 10q-46 -10 -46 -49v-6v-5.5v-5t1 -4.5t2.5 -3.5t3.5 -3.5t5 -2t7.5 -1.5t10 -1t12.5 -0.5h161q36 0 47.5 -15.5t11.5 -53.5v-30q0 -53 -22.5 -71t-66.5 -18h-110q-42 0 -55.5 11
t-13.5 58q0 21 5 41t10.5 31t13 24t9.5 17q-20 0 -28.5 5.5t-9.5 11.5t-1 22q0 18 10.5 31t19.5 16.5t17 5.5q-26 21 -26 75v232q0 53 22.5 71t66.5 18zM146 126h60q40 0 61 16.5t21 66.5v232q0 50 -21 66.5t-61 16.5h-60q-40 0 -61 -16.5t-21 -66.5v-232q0 -50 21 -66.5
t61 -16.5zM106 -134h110q40 0 61 16.5t21 66.5v30q0 35 -9.5 49t-42.5 14h-165q0 -1 -11 -19.5t-18.5 -42t-7.5 -51.5q0 -43 12 -53t50 -10zM184 631v-50h-10v50q0 21 3 34.5t6 18.5t11 16l3 -2q-11 -16 -14.5 -27.5t-3.5 -39.5h5z" />
    <glyph glyph-name="gdotaccent.alt" horiz-adv-x="349" 
d="M146 530h180v-6h-76q45 -14 45 -83v-232q0 -53 -22.5 -71t-66.5 -18h-60q-42 0 -57 10q-46 -10 -46 -49v-6v-5.5v-5t1 -4.5t2.5 -3.5t3.5 -3.5t5 -2t7.5 -1.5t10 -1t12.5 -0.5h161q36 0 47.5 -15.5t11.5 -53.5v-30q0 -53 -22.5 -71t-66.5 -18h-110q-42 0 -55.5 11
t-13.5 58q0 21 5 41t10.5 31t13 24t9.5 17q-20 0 -28.5 5.5t-9.5 11.5t-1 22q0 18 10.5 31t19.5 16.5t17 5.5q-26 21 -26 75v232q0 53 22.5 71t66.5 18zM146 126h60q40 0 61 16.5t21 66.5v232q0 50 -21 66.5t-61 16.5h-60q-40 0 -61 -16.5t-21 -66.5v-232q0 -50 21 -66.5
t61 -16.5zM106 -134h110q40 0 61 16.5t21 66.5v30q0 35 -9.5 49t-42.5 14h-165q0 -1 -11 -19.5t-18.5 -42t-7.5 -51.5q0 -43 12 -53t50 -10zM172 612v40h10v-40h-10z" />
    <glyph glyph-name="g.alt" horiz-adv-x="349" 
d="M146 530h180v-6h-76q45 -14 45 -83v-232q0 -53 -22.5 -71t-66.5 -18h-60q-42 0 -57 10q-46 -10 -46 -49v-6v-5.5v-5t1 -4.5t2.5 -3.5t3.5 -3.5t5 -2t7.5 -1.5t10 -1t12.5 -0.5h161q36 0 47.5 -15.5t11.5 -53.5v-30q0 -53 -22.5 -71t-66.5 -18h-110q-42 0 -55.5 11
t-13.5 58q0 21 5 41t10.5 31t13 24t9.5 17q-20 0 -28.5 5.5t-9.5 11.5t-1 22q0 18 10.5 31t19.5 16.5t17 5.5q-26 21 -26 75v232q0 53 22.5 71t66.5 18zM146 126h60q40 0 61 16.5t21 66.5v232q0 50 -21 66.5t-61 16.5h-60q-40 0 -61 -16.5t-21 -66.5v-232q0 -50 21 -66.5
t61 -16.5zM106 -134h110q40 0 61 16.5t21 66.5v30q0 35 -9.5 49t-42.5 14h-165q0 -1 -11 -19.5t-18.5 -42t-7.5 -51.5q0 -43 12 -53t50 -10z" />
    <glyph glyph-name="yacute.alt" 
d="M87 -83h119q40 0 61 16.5t21 66.5v30h-162q-28 0 -48.5 20t-20.5 49v431h7v-431q0 -26 18.5 -44.5t43.5 -18.5h162v494h7v-530q0 -53 -22.5 -71t-66.5 -18h-119v6zM156 585l56 65h12l-62 -65h-6z" />
    <glyph glyph-name="gbreve.alt" horiz-adv-x="349" 
d="M146 530h180v-6h-76q45 -14 45 -83v-232q0 -53 -22.5 -71t-66.5 -18h-60q-42 0 -57 10q-46 -10 -46 -49v-6v-5.5v-5t1 -4.5t2.5 -3.5t3.5 -3.5t5 -2t7.5 -1.5t10 -1t12.5 -0.5h161q36 0 47.5 -15.5t11.5 -53.5v-30q0 -53 -22.5 -71t-66.5 -18h-110q-42 0 -55.5 11
t-13.5 58q0 21 5 41t10.5 31t13 24t9.5 17q-20 0 -28.5 5.5t-9.5 11.5t-1 22q0 18 10.5 31t19.5 16.5t17 5.5q-26 21 -26 75v232q0 53 22.5 71t66.5 18zM146 126h60q40 0 61 16.5t21 66.5v232q0 50 -21 66.5t-61 16.5h-60q-40 0 -61 -16.5t-21 -66.5v-232q0 -50 21 -66.5
t61 -16.5zM106 -134h110q40 0 61 16.5t21 66.5v30q0 35 -9.5 49t-42.5 14h-165q0 -1 -11 -19.5t-18.5 -42t-7.5 -51.5q0 -43 12 -53t50 -10zM199 585h-39q-60 0 -60 61v9h7v-9q0 -54 53 -54h39q53 0 53 54v9h7v-9q0 -61 -60 -61z" />
    <glyph glyph-name="y.alt" 
d="M87 -83h119q40 0 61 16.5t21 66.5v30h-162q-28 0 -48.5 20t-20.5 49v431h7v-431q0 -26 18.5 -44.5t43.5 -18.5h162v494h7v-530q0 -53 -22.5 -71t-66.5 -18h-119v6z" />
    <glyph glyph-name="ydieresis.alt" 
d="M87 -83h119q40 0 61 16.5t21 66.5v30h-162q-28 0 -48.5 20t-20.5 49v431h7v-431q0 -26 18.5 -44.5t43.5 -18.5h162v494h7v-530q0 -53 -22.5 -71t-66.5 -18h-119v6zM243 600v50h9v-50h-9zM102 600v50h9v-50h-9z" />
    <glyph glyph-name="ycircumflex.alt" 
d="M87 -83h119q40 0 61 16.5t21 66.5v30h-162q-28 0 -48.5 20t-20.5 49v431h7v-431q0 -26 18.5 -44.5t43.5 -18.5h162v494h7v-530q0 -53 -22.5 -71t-66.5 -18h-119v6zM104 585l66 65h16l66 -65h-6l-68 61l-68 -61h-6z" />
    <glyph glyph-name="ygrave.alt" 
d="M87 -83h119q40 0 61 16.5t21 66.5v30h-162q-28 0 -48.5 20t-20.5 49v431h7v-431q0 -26 18.5 -44.5t43.5 -18.5h162v494h7v-530q0 -53 -22.5 -71t-66.5 -18h-119v6zM147 650l56 -65h-6l-62 65h12z" />
    <glyph glyph-name="RB" horiz-adv-x="900" 
d="M450 706q147 0 251.5 -104.5t104.5 -251.5t-104.5 -251.5t-251.5 -104.5t-251.5 104.5t-104.5 251.5t104.5 251.5t251.5 104.5zM420 241l-49 65q32 8 55.5 31.5t30.5 54.5q10 37 -9.5 63.5t-57.5 26.5h-90l-61 -241h181zM646 422q7 23 -7 40.5t-39 19.5h-108l-59 -241
h125q27 0 51.5 19t30.5 46q6 23 -6 40.5t-37 20.5q39 14 49 55z" />
    <glyph glyph-name="registered.alt" horiz-adv-x="509" 
d="M177 700h155q119 0 119 -119v-462q0 -119 -119 -119h-155q-119 0 -119 119v462q0 119 119 119zM177 5h155q113 0 113 114v462q0 114 -113 114h-155q-113 0 -113 -114v-462q0 -114 113 -114zM169 87v525h118q35 0 51 -13t16 -53v-148q0 -56 -41 -66q41 -13 41 -70v-175h-7
v175q0 40 -18.5 54t-52.5 14h-100v-243h-7zM176 606v-269h111q29 0 44.5 12t15.5 49v148q0 37 -14.5 48.5t-45.5 11.5h-111z" />
    <glyph glyph-name="published" horiz-adv-x="509" 
d="M177 700h155q119 0 119 -119v-462q0 -119 -119 -119h-155q-119 0 -119 119v462q0 119 119 119zM177 5h155q113 0 113 114v462q0 114 -113 114h-155q-113 0 -113 -114v-462q0 -114 113 -114zM170 87v525h118q35 0 51 -13t16 -53v-168q0 -40 -17 -54t-50 -14h-111v-223h-7z
M177 606v-289h111q29 0 44.5 12t15.5 49v168q0 37 -14.5 48.5t-45.5 11.5h-111z" />
    <glyph glyph-name="parenleft.case" horiz-adv-x="179" 
d="M69 651v-610q0 -46 16 -70l44 -55l-5 -4q-36 40 -46 56q-16 26 -16 73v610q0 47 16 73l46 56l5 -4q-35 -42 -44 -55q-16 -24 -16 -70z" />
    <glyph glyph-name="parenright.case" horiz-adv-x="179" 
d="M110 41v610q0 46 -16 70l-44 55l5 4q36 -40 46 -56q16 -26 16 -73v-610q0 -47 -16 -73l-46 -56l-5 4q35 42 44 55q16 24 16 70z" />
    <glyph glyph-name="hyphen.case" horiz-adv-x="272" 
d="M32 355v7h208v-7h-208z" />
    <glyph glyph-name="bracketleft.case" horiz-adv-x="212" 
d="M69 759v-818h134v-6h-141v830h141v-6h-134z" />
    <glyph glyph-name="bracketright.case" horiz-adv-x="212" 
d="M143 -59v818h-134v6h141v-830h-141v6h134z" />
    <glyph glyph-name="braceleft.case" horiz-adv-x="179" 
d="M10 350v6q16 12 22.5 17.5t18 24t11.5 38.5v215q0 47 16 73l46 56l5 -4q-35 -42 -44 -55q-16 -24 -16 -70v-215q0 -49 -54 -83q54 -37 54 -83v-229q0 -46 16 -70l44 -55l-5 -4q-36 40 -46 56q-16 26 -16 73v229q0 20 -11.5 38.5t-18 24t-22.5 17.5z" />
    <glyph glyph-name="bar.case" horiz-adv-x="248" 
d="M121 -60v820h7v-820h-7z" />
    <glyph glyph-name="braceright.case" horiz-adv-x="179" 
d="M169 356v-6q-16 -12 -22.5 -17.5t-18 -24t-11.5 -38.5v-229q0 -47 -16 -73l-46 -56l-5 4q35 42 44 55q16 24 16 70v229q0 46 54 83q-54 34 -54 83v215q0 46 -16 70l-44 55l5 4q36 -40 46 -56q16 -26 16 -73v-215q0 -20 11.5 -38.5t18 -24t22.5 -17.5z" />
    <glyph glyph-name="gcircumflex.alt" horiz-adv-x="349" 
d="M146 530h180v-6h-76q45 -14 45 -83v-232q0 -53 -22.5 -71t-66.5 -18h-60q-42 0 -57 10q-46 -10 -46 -49v-6v-5.5v-5t1 -4.5t2.5 -3.5t3.5 -3.5t5 -2t7.5 -1.5t10 -1t12.5 -0.5h161q36 0 47.5 -15.5t11.5 -53.5v-30q0 -53 -22.5 -71t-66.5 -18h-110q-42 0 -55.5 11
t-13.5 58q0 21 5 41t10.5 31t13 24t9.5 17q-20 0 -28.5 5.5t-9.5 11.5t-1 22q0 18 10.5 31t19.5 16.5t17 5.5q-26 21 -26 75v232q0 53 22.5 71t66.5 18zM146 126h60q40 0 61 16.5t21 66.5v232q0 50 -21 66.5t-61 16.5h-60q-40 0 -61 -16.5t-21 -66.5v-232q0 -50 21 -66.5
t61 -16.5zM106 -134h110q40 0 61 16.5t21 66.5v30q0 35 -9.5 49t-42.5 14h-165q0 -1 -11 -19.5t-18.5 -42t-7.5 -51.5q0 -43 12 -53t50 -10zM108 585l66 65h16l66 -65h-6l-68 61l-68 -61h-6z" />
    <glyph glyph-name="guilsinglright.case" horiz-adv-x="149" 
d="M129 355l-90 -151h-7l89 151v4l-89 151h7l90 -151v-4z" />
    <glyph glyph-name="guillemotleft.case" horiz-adv-x="229" 
d="M190 204l-90 151v4l90 151h7l-89 -151v-4l89 -151h-7zM20 355v4l90 151h7l-89 -151v-4l89 -151h-7z" />
    <glyph glyph-name="guillemotright.case" horiz-adv-x="229" 
d="M129 355l-90 -151h-7l89 151v4l-89 151h7l90 -151v-4zM209 359v-4l-90 -151h-7l89 151v4l-89 151h7z" />
    <glyph glyph-name="endash.case" horiz-adv-x="378" 
d="M20 355v7h338v-7h-338z" />
    <glyph glyph-name="emdash.case" horiz-adv-x="528" 
d="M20 355v7h488v-7h-488z" />
    <glyph glyph-name="bullet.case" horiz-adv-x="214" 
d="M99 419h17q23 0 28.5 -8t5.5 -33v-43q0 -25 -5.5 -32.5t-28.5 -7.5h-17q-23 0 -29 8t-6 32v43q0 25 6 33t29 8z" />
    <glyph glyph-name="periodcentered.case" horiz-adv-x="170" 
d="M80 322v70h10v-70h-10z" />
    <glyph glyph-name="germandbls.case" horiz-adv-x="667" 
d="M157 700h149v-6h-149q-51 0 -76.5 -20.5t-25.5 -82.5v-96q0 -13 2 -23.5t4.5 -18t9.5 -14.5t10 -11t13.5 -9t13.5 -6.5t16 -7t16 -6.5l80 -27q3 -1 16 -6t17 -6.5t14.5 -7t14.5 -9.5t11 -11.5t9.5 -15.5t5 -19.5t2.5 -25.5v-162q0 -66 -27.5 -87.5t-81.5 -21.5h-154v6
h154q51 0 76.5 20.5t25.5 82.5v162q0 14 -2 25.5t-8 20.5t-9 14.5t-14.5 11.5t-14.5 8t-19 8t-18 7l-80 27q-3 1 -14.5 5.5t-15 6t-13 6t-13 7.5t-11 9t-10.5 12t-6.5 14.5t-5 19t-1.5 22.5v96q0 66 27.5 87.5t81.5 21.5zM467 700h149v-6h-149q-51 0 -76.5 -20.5
t-25.5 -82.5v-96q0 -13 2 -23.5t4.5 -18t9.5 -14.5t10 -11t13.5 -9t13.5 -6.5t16 -7t16 -6.5l80 -27q3 -1 16 -6t17 -6.5t14.5 -7t14.5 -9.5t11 -11.5t9.5 -15.5t5 -19.5t2.5 -25.5v-162q0 -66 -27.5 -87.5t-81.5 -21.5h-154v6h154q51 0 76.5 20.5t25.5 82.5v162
q0 14 -2 25.5t-8 20.5t-9 14.5t-14.5 11.5t-14.5 8t-19 8t-18 7l-80 27q-3 1 -14.5 5.5t-15 6t-13 6t-13 7.5t-11 9t-10.5 12t-6.5 14.5t-5 19t-1.5 22.5v96q0 66 27.5 87.5t81.5 21.5z" />
    <glyph glyph-name="i.dot" horiz-adv-x="129" 
d="M61 0v530h7v-530h-7zM59 612v40h10v-40h-10z" />
    <glyph glyph-name="caron.alt" horiz-adv-x="500" 
d="M251 616v60h10v-60q0 -11 -1.5 -20t-3.5 -14.5t-6 -12t-6 -8.5t-7 -7.5t-6 -6.5l-3 2q2 2 6.5 7.5t6.5 8t5.5 8.5t5 11.5t3 13.5t1.5 18h-5z" />
    <glyph glyph-name="aring.alt" 
d="M126 530h169v-530h-169q-28 0 -48.5 20t-20.5 49v392q0 29 20.5 49t48.5 20zM126 6h162v518h-162q-25 0 -43.5 -18.5t-18.5 -44.5v-392q0 -26 18.5 -44.5t43.5 -18.5zM179 669h9q45 0 45 -41v-12q0 -41 -45 -41h-9q-45 0 -45 41v12q0 41 45 41zM188 663h-9q-38 0 -38 -35
v-12q0 -35 38 -35h9q38 0 38 35v12q0 35 -38 35z" />
    <glyph glyph-name="atilde.alt" 
d="M126 530h169v-530h-169q-28 0 -48.5 20t-20.5 49v392q0 29 20.5 49t48.5 20zM126 6h162v518h-162q-25 0 -43.5 -18.5t-18.5 -44.5v-392q0 -26 18.5 -44.5t43.5 -18.5zM245 594l-126 48l-2 -44h-5l2 50h6l125 -48l3 46h5l-2 -52h-6z" />
    <glyph glyph-name="aringacute.alt" 
d="M126 530h169v-530h-169q-28 0 -48.5 20t-20.5 49v392q0 29 20.5 49t48.5 20zM126 6h162v518h-162q-25 0 -43.5 -18.5t-18.5 -44.5v-392q0 -26 18.5 -44.5t43.5 -18.5zM179 669h9q45 0 45 -41v-12q0 -41 -45 -41h-9q-45 0 -45 41v12q0 41 45 41zM188 663h-9q-38 0 -38 -35
v-12q0 -35 38 -35h9q38 0 38 35v12q0 35 -38 35zM158 705l56 65h12l-62 -65h-6z" />
    <glyph glyph-name="aogonek.alt" 
d="M312 -75v-12q0 -41 -45 -41h-19q-45 0 -45 41v12q0 8 1 13.5t6.5 11.5t8 8t14 9t15.5 10l35 23h-157q-28 0 -48.5 20t-20.5 49v392q0 29 20.5 49t48.5 20h169v-530l-47 -30q-5 -3 -12.5 -8.5t-10 -7.5t-6.5 -5.5t-5.5 -6.5t-2.5 -7t-1 -10v-12q0 -35 38 -35h19
q38 0 38 35v12h7zM126 6h162v518h-162q-25 0 -43.5 -18.5t-18.5 -44.5v-392q0 -26 18.5 -44.5t43.5 -18.5z" />
    <glyph glyph-name="idotaccent" horiz-adv-x="129" 
d="M61 0v530h7v-530h-7zM59 612v40h10v-40h-10z" />
    <glyph glyph-name="aacute.alt" 
d="M126 530h169v-530h-169q-28 0 -48.5 20t-20.5 49v392q0 29 20.5 49t48.5 20zM126 6h162v518h-162q-25 0 -43.5 -18.5t-18.5 -44.5v-392q0 -26 18.5 -44.5t43.5 -18.5zM166 585l56 65h12l-62 -65h-6z" />
    <glyph glyph-name="a.alt" 
d="M126 530h169v-530h-169q-28 0 -48.5 20t-20.5 49v392q0 29 20.5 49t48.5 20zM126 6h162v518h-162q-25 0 -43.5 -18.5t-18.5 -44.5v-392q0 -26 18.5 -44.5t43.5 -18.5z" />
    <glyph glyph-name="acircumflex.alt" 
d="M126 530h169v-530h-169q-28 0 -48.5 20t-20.5 49v392q0 29 20.5 49t48.5 20zM126 6h162v518h-162q-25 0 -43.5 -18.5t-18.5 -44.5v-392q0 -26 18.5 -44.5t43.5 -18.5zM110 585l66 65h16l66 -65h-6l-68 61l-68 -61h-6z" />
    <glyph glyph-name="adieresis.alt" 
d="M126 530h169v-530h-169q-28 0 -48.5 20t-20.5 49v392q0 29 20.5 49t48.5 20zM126 6h162v518h-162q-25 0 -43.5 -18.5t-18.5 -44.5v-392q0 -26 18.5 -44.5t43.5 -18.5zM112 600v50h9v-50h-9zM253 600v50h9v-50h-9z" />
    <glyph glyph-name="agrave.alt" 
d="M126 530h169v-530h-169q-28 0 -48.5 20t-20.5 49v392q0 29 20.5 49t48.5 20zM126 6h162v518h-162q-25 0 -43.5 -18.5t-18.5 -44.5v-392q0 -26 18.5 -44.5t43.5 -18.5zM155 650l56 -65h-6l-62 65h12z" />
    <glyph glyph-name="amacron.alt" 
d="M126 530h169v-530h-169q-28 0 -48.5 20t-20.5 49v392q0 29 20.5 49t48.5 20zM126 6h162v518h-162q-25 0 -43.5 -18.5t-18.5 -44.5v-392q0 -26 18.5 -44.5t43.5 -18.5zM101 617v6h152v-6h-152z" />
    </font>
</defs>
</svg>
