<?xml version="1.0" standalone="no"?>
<!DOCTYPE svg PUBLIC "-//W3C//DTD SVG 1.1//EN" "http://www.w3.org/Graphics/SVG/1.1/DTD/svg11.dtd" >
<svg xmlns="http://www.w3.org/2000/svg" xmlns:xlink="http://www.w3.org/1999/xlink" version="1.1">
<metadata>
Created by FontForge 20170731 at Sun Sep 30 05:34:06 2012
 By Aleksey,,,
Copyright (c) 2012 by Rene Bieder. All rights reserved.
</metadata>
<defs>
<font id="RBNo2.1b-BookItalic" horiz-adv-x="377" >
  <font-face 
    font-family="RBNo2.1b BookItalic"
    font-weight="450"
    font-style="italic"
    font-stretch="normal"
    units-per-em="1000"
    panose-1="2 0 0 0 0 0 0 0 0 0"
    ascent="750"
    descent="-250"
    x-height="552"
    cap-height="700"
    bbox="-56 -194 825.042 906"
    underline-thickness="50"
    underline-position="-200"
    unicode-range="U+0020-FB02"
  />
<missing-glyph horiz-adv-x="432" 
d="M-30 0l98 700h432l-98 -700h-432zM247 350l140 -317l89 633zM223 350l-138 316l-89 -633zM233 331l-225 -311h361zM101 681l137 -312l224 312h-361z" />
    <glyph glyph-name="fi" unicode="fi" horiz-adv-x="361" 
d="M288 710l-8 -57h-68q-33 0 -38 -40l-9 -61h199l-78 -552h-64l70 499h-134l-70 -499h-64l70 499h-42l8 53h42l9 66q7 54 29.5 73t79.5 19h68z" />
    <glyph glyph-name="fl" unicode="fl" horiz-adv-x="360" 
d="M220 710h165l-100 -710h-63l93 659h-102q-19 0 -27.5 -9.5t-10.5 -29.5l-10 -68h67l-8 -53h-66l-70 -499h-64l70 499h-42l8 53h42l9 66q7 54 29.5 73t79.5 19z" />
    <glyph glyph-name=".notdef" horiz-adv-x="432" 
d="M-30 0l98 700h432l-98 -700h-432zM247 350l140 -317l89 633zM223 350l-138 316l-89 -633zM233 331l-225 -311h361zM101 681l137 -312l224 312h-361z" />
    <glyph glyph-name=".null" horiz-adv-x="0" 
 />
    <glyph glyph-name="nonmarkingreturn" horiz-adv-x="333" 
 />
    <glyph glyph-name="space" unicode=" " horiz-adv-x="161" 
 />
    <glyph glyph-name="exclam" unicode="!" horiz-adv-x="183" 
d="M75 217l28 303l25 180h63l-25 -180l-58 -303h-33zM33 0l15 110h57l-15 -110h-57z" />
    <glyph glyph-name="quotedbl" unicode="&#x22;" horiz-adv-x="271" 
d="M78 420l37 280h58l-15 -111l-43 -169h-37zM197 420l37 280h58l-15 -111l-43 -169h-37z" />
    <glyph glyph-name="numbersign" unicode="#" horiz-adv-x="558" 
d="M112 476l14 47h86l52 177h50l-52 -177h157l51 177h51l-52 -177h101l-15 -47h-101l-76 -263h100l-14 -46h-100l-48 -167h-49l47 167h-157l-47 -167h-50l48 167h-87l14 46h87l75 263h-85zM247 476l-76 -263h157l75 263h-156z" />
    <glyph glyph-name="dollar" unicode="$" horiz-adv-x="386" 
d="M127 -87l12 85l-131 2l8 55h171q39 0 59 13.5t26 58.5l17 124q-1 10 1 17t-1 14t-3.5 11t-6 9t-7.5 7t-9 6t-10.5 5.5t-11.5 5t-13 5.5l-73 26q-27 11 -37 16t-26 18.5t-19.5 34t0.5 50.5l13 93q11 78 44.5 105t107.5 28l9 69h55l-9 -69l109 -2l-7 -55h-157
q-38 0 -58 -13t-26 -58l-11 -78q-3 -22 -1 -35.5t15 -23.5t19.5 -13.5t32.5 -13.5l69 -25q49 -20 62 -33q25 -28 17 -85l-19 -136q-11 -76 -43.5 -103.5t-100.5 -29.5l-12 -85h-55z" />
    <glyph glyph-name="percent" unicode="%" horiz-adv-x="612" 
d="M199 701h42q45 0 62 -18.5t10 -64.5l-29 -207q-7 -46 -29 -65t-67 -19h-42q-45 0 -62 19t-10 65l29 207q7 46 29 64.5t67 18.5zM463 373h42q45 0 62 -19t10 -65l-29 -206q-7 -47 -29 -66t-67 -19h-42q-45 0 -62 19t-10 66l29 206q7 46 29 65t67 19zM498 340h-38
q-46 0 -52 -46l-30 -215q-4 -27 6 -37t33 -10h38q22 0 34.5 10t16.5 37l30 215q4 27 -6 36.5t-32 9.5zM234 668h-38q-46 0 -52 -46l-30 -215q-4 -27 6.5 -37t32.5 -10h38q45 0 51 47l31 215q4 27 -6.5 36.5t-32.5 9.5zM110 0l381 700h42l-382 -700h-41z" />
    <glyph glyph-name="ampersand" unicode="&#x26;" horiz-adv-x="468" 
d="M367 663l-8 -57h-99q-33 0 -52 -14.5t-25 -54.5l-12 -82q-6 -40 9 -54.5t47 -14.5h258l-6 -43l-114 -14l-46 -329h-168q-77 0 -102 23t-14 104l17 124q14 100 99 108q-58 12 -45 106l10 72q10 75 43.5 100.5t108.5 25.5h99zM265 54l38 272h-102q-34 0 -54.5 -14.5
t-26.5 -54.5l-19 -137q-6 -40 9.5 -53t48.5 -13h106z" />
    <glyph glyph-name="quotesingle" unicode="'" horiz-adv-x="152" 
d="M78 420l37 280h58l-15 -111l-43 -169h-37z" />
    <glyph glyph-name="parenleft" unicode="(" horiz-adv-x="198" 
d="M157 591l-81 -578q-6 -45 4 -70q4 -9 19.5 -32.5t15.5 -24.5l-31 -25q-28 25 -52 63q-21 35 -13 89l81 578q8 54 38 89q34 38 70 63l23 -25q-2 -4 -23 -26.5t-27 -30.5q-18 -25 -24 -70z" />
    <glyph glyph-name="parenright" unicode=")" horiz-adv-x="198" 
d="M65 13l81 578q6 45 -4 70q-3 8 -18 31t-16 26l29 25q27 -22 53 -63q21 -35 13 -89l-81 -578q-8 -54 -38 -89q-37 -41 -71 -63l-23 25q2 2 23.5 25t27.5 32q18 25 24 70z" />
    <glyph glyph-name="asterisk" unicode="*" horiz-adv-x="320" 
d="M309 459l-42 29l-49 51l7 11l65 -32l40 -28zM189 557l-63 32l-41 29l22 31l41 -29l50 -51zM194 539l-64 -51l-49 -29l-14 31l49 28l72 32zM348 618l-48 -29l-74 -32l-4 12l63 51l50 29zM169 408l8 53l21 75h13l1 -75l-8 -53h-35zM204 572l-1 75l8 53h35l-8 -53l-21 -75
h-13z" />
    <glyph glyph-name="plus" unicode="+" horiz-adv-x="322" 
d="M42 336l6 45h113l17 116h45l-17 -116h115l-6 -45h-115l-16 -117h-45l16 117h-113z" />
    <glyph glyph-name="comma" unicode="," horiz-adv-x="152" 
d="M16 0l14 103h60l-11 -77q-4 -30 -13.5 -52t-19.5 -33.5t-29 -30.5l-18 14q3 3 9.5 11.5t8 10.5t5.5 8t5 8.5t4 7.5t3.5 9t2 9.5t2.5 11.5h-23z" />
    <glyph glyph-name="hyphen" unicode="-" horiz-adv-x="281" 
d="M33 273l7 53h231l-7 -53h-231z" />
    <glyph glyph-name="period" unicode="." horiz-adv-x="178" 
d="M30 0l14 103h58l-14 -103h-58z" />
    <glyph glyph-name="slash" unicode="/" horiz-adv-x="245" 
d="M-6 -38l241 777h42l-242 -777h-41z" />
    <glyph glyph-name="zero" unicode="0" horiz-adv-x="409" 
d="M253 702h41q77 0 105 -29t16 -111l-59 -424q-12 -81 -48 -110.5t-113 -29.5h-41q-77 0 -105 29.5t-16 110.5l59 424q12 82 48 111t113 29zM162 55h41q38 0 58.5 14t26.5 59l63 444q6 45 -10.5 59t-54.5 14h-41q-38 0 -58 -14t-26 -59l-63 -444q-6 -45 10 -59t54 -14z" />
    <glyph glyph-name="one" unicode="1" horiz-adv-x="302" 
d="M58 643l141 57h65l-90 -646h99l-8 -54h-265l8 54h102l82 583l-121 -35z" />
    <glyph glyph-name="two" unicode="2" horiz-adv-x="359" 
d="M3 0l26 183q14 100 99 159l93 62q43 30 63.5 57t26.5 68l6 43q6 46 -9.5 59.5t-53.5 13.5h-145l7 55q117 2 153 2q69 0 94.5 -29t14.5 -104l-7 -49q-8 -58 -34 -91.5t-69 -62.5l-87 -59q-24 -17 -33.5 -25t-23.5 -23t-20.5 -33t-10.5 -43l-18 -129h236l-8 -54h-300z" />
    <glyph glyph-name="three" unicode="3" horiz-adv-x="340" 
d="M99 335l8 54h112q27 0 42 13t20 49l17 121q6 45 -9.5 59t-53.5 14h-149l7 55q123 2 153 2q73 0 100 -26.5t16 -106.5l-15 -104q-7 -51 -24.5 -73.5t-47.5 -27.5q29 -6 40 -28t4 -73l-19 -132q-6 -44 -19 -71.5t-34.5 -40.5t-43 -17t-56.5 -4l-158 2l7 53h155
q38 0 58.5 14t26.5 59l20 147q5 35 -7 48.5t-38 13.5h-112z" />
    <glyph glyph-name="four" unicode="4" horiz-adv-x="411" 
d="M0 208l269 492h104l-68 -486h93l-8 -54h-93l-22 -160h-63l22 160h-241zM300 645l-231 -431h173l60 431h-2z" />
    <glyph glyph-name="five" unicode="5" horiz-adv-x="363" 
d="M170 643l-33 -234h119q57 0 80.5 -21.5t13.5 -90.5l-24 -166q-6 -45 -17.5 -72t-32.5 -40t-44.5 -17t-64.5 -4l-165 2l7 53h168q20 0 30.5 1.5t23.5 7.5t20 20t10 38l24 172q5 37 -8.5 47.5t-44.5 10.5h-168l52 350h268l-8 -57h-206z" />
    <glyph glyph-name="six" unicode="6" horiz-adv-x="365" 
d="M192 414h49q73 0 97.5 -25t11.5 -114l-20 -144q-11 -81 -45 -107t-112 -26h-31q-76 0 -104 28.5t-17 104.5l61 434q11 82 46.5 109.5t113.5 27.5l128 -2l-8 -57h-132q-37 0 -57.5 -13.5t-26.5 -58.5l-25 -181q21 24 71 24zM224 360h-49q-28 0 -45 -10.5t-21 -42.5
l-25 -182q-6 -45 10.5 -59t53.5 -14h33q37 0 57.5 14t26.5 59l22 159q7 47 -9.5 61.5t-53.5 14.5z" />
    <glyph glyph-name="seven" unicode="7" horiz-adv-x="331" 
d="M80 643l8 57h291l-8 -63l-284 -637h-66l283 631l1 12h-225z" />
    <glyph glyph-name="eight" unicode="8" horiz-adv-x="366" 
d="M145 -2q-82 0 -113 23.5t-20 103.5l19 134q9 60 30.5 84.5t62.5 29.5q-33 6 -45.5 30t-6.5 77l12 86q12 81 46.5 108.5t111.5 27.5h21q78 0 106 -27.5t16 -108.5l-11 -79q-8 -57 -28.5 -82.5t-56.5 -31.5q39 -5 54 -29.5t6 -84.5l-19 -134q-11 -80 -49 -103.5t-120 -23.5
h-16zM176 55q17 0 25 0.5t21.5 3.5t20.5 9.5t13.5 19.5t9.5 32l21 145q6 45 -10 58t-55 13h-43q-38 0 -58 -13t-26 -58l-21 -145q-3 -24 1 -38t17.5 -19.5t23 -6.5t31.5 -1h29zM258 645h-25q-38 0 -58.5 -13.5t-26.5 -58.5l-14 -98q-6 -42 8.5 -55.5t48.5 -13.5h39
q24 1 37.5 4.5t25.5 19t16 45.5l14 98q6 45 -10 58.5t-55 13.5z" />
    <glyph glyph-name="nine" unicode="9" horiz-adv-x="365" 
d="M209 268h-46q-24 0 -40 1.5t-32 6.5t-23.5 14.5t-15 24.5t-5.5 38t4 54l23 162q11 81 46.5 107t113.5 26h28q77 0 104.5 -28t16.5 -105l-61 -434q-12 -82 -46 -109.5t-111 -27.5l-138 2l7 53h138q37 0 58 15.5t27 60.5l23 162q-22 -23 -71 -23zM177 322h48q30 0 46 11.5
t22 49.5l27 194q6 45 -10 58t-54 13h-33q-38 0 -58.5 -13t-26.5 -58l-25 -182q-6 -45 10.5 -59t53.5 -14z" />
    <glyph glyph-name="colon" unicode=":" horiz-adv-x="152" 
d="M18 0l14 103h58l-14 -103h-58zM81 449l15 103h58l-15 -103h-58z" />
    <glyph glyph-name="semicolon" unicode=";" horiz-adv-x="152" 
d="M16 0l14 103h60l-11 -77q-4 -30 -13.5 -52t-19.5 -33.5t-29 -30.5l-18 14q3 3 9.5 11.5t8 10.5t5.5 8t5 8.5t4 7.5t3.5 9t2 9.5t2.5 11.5h-23zM81 449l14 103h58l-14 -103h-58z" />
    <glyph glyph-name="less" unicode="&#x3c;" horiz-adv-x="316" 
d="M327 470l-221 -110l190 -110l-8 -53l-246 140l7 47l285 140z" />
    <glyph glyph-name="equal" unicode="=" horiz-adv-x="322" 
d="M53 414l7 43h274l-7 -43h-274zM31 254l6 43h274l-6 -43h-274z" />
    <glyph glyph-name="greater" unicode="&#x3e;" horiz-adv-x="316" 
d="M251 360l-190 110l8 54l246 -140l-6 -47l-286 -140l7 53z" />
    <glyph glyph-name="question" unicode="?" horiz-adv-x="351" 
d="M107 700q93 2 143 2q73 0 101.5 -27t17.5 -106l-9 -65q-2 -18 -8 -33t-11.5 -24.5t-17.5 -21t-18.5 -16.5t-22.5 -16.5t-22 -15.5q-7 -5 -23.5 -16.5t-20 -14.5t-13.5 -11.5t-12.5 -13t-7.5 -13t-6.5 -17.5l-3.5 -21l-9 -65h-53l12 88q1 11 4 20.5t8.5 18t9.5 14t13 13.5
t13 11.5t16 12.5l16 12q5 4 21.5 17t20.5 16t15.5 13t14.5 15.5t9.5 15.5t9 20t4.5 22l9 63q6 45 -10 58t-55 13h-142zM79 0l15 106h58l-15 -106h-58z" />
    <glyph glyph-name="at" unicode="@" horiz-adv-x="528" 
d="M317 516q63 0 83.5 -22.5t12.5 -83.5l-42 -296q-4 -32 1.5 -43.5t32.5 -11.5q31 0 41.5 13t14.5 45l52 364q9 66 -11.5 91.5t-83.5 25.5h-199q-63 0 -91 -25.5t-37 -91.5l-59 -415q-9 -66 12 -91t84 -25h258l-2 -17h-258q-72 0 -98 27t-15 106l59 415q11 79 44 106
t105 27h199q72 0 97.5 -27t14.5 -106l-52 -367q-6 -44 -23.5 -60.5t-54.5 -16.5q-45 0 -60.5 6.5t-27.5 28.5q-48 -35 -86 -35h-22q-43 0 -66 22.5t-17 66.5l20 146q6 44 33 66.5t69 22.5h107l7 51q5 37 -8 48t-42 11h-112l6 43q81 2 114 2zM219 85h19q32 0 80 33l28 201
h-94q-24 0 -38 -15t-17 -38l-18 -131q-3 -22 8.5 -36t31.5 -14z" />
    <glyph glyph-name="A" unicode="A" horiz-adv-x="407" 
d="M332 700l40 -700h-67l-10 161h-198l-55 -161h-67l237 700h120zM259 647l-139 -423h167l-18 423h-10z" />
    <glyph glyph-name="B" unicode="B" horiz-adv-x="391" 
d="M16 0l98 700h165q75 0 101.5 -25.5t15.5 -100.5l-15 -106q-7 -53 -26 -77t-51 -30q33 -7 46 -30t5 -77l-18 -127q-11 -81 -43 -104t-110 -23h-168zM129 329l-38 -272h101q34 0 53 12.5t24 53.5l21 144q5 39 -11 50.5t-52 11.5h-98zM173 643l-35 -251h103q31 0 48 12
t23 51l17 122q6 40 -9 53t-49 13h-98z" />
    <glyph glyph-name="C" unicode="C" horiz-adv-x="383" 
d="M245 644q-20 0 -30.5 -1.5t-23 -8t-19.5 -22t-11 -41.5l-63 -442q-4 -15 -1.5 -26.5t2.5 -19.5t6.5 -13t10 -8t13 -4t15.5 -1.5t18 -0.5h166l-8 -56q-113 -2 -166 -2q-78 0 -105.5 26.5t-16.5 106.5l61 438q11 80 46.5 106.5t113.5 26.5l166 -2l-8 -56h-166z" />
    <glyph glyph-name="D" unicode="D" horiz-adv-x="396" 
d="M16 0l98 700h174q75 0 101.5 -25.5t15.5 -100.5l-63 -447q-11 -75 -44.5 -101t-107.5 -26h-174zM280 643h-106l-83 -586h107q34 0 52.5 13t24.5 53l64 456q5 40 -10 52t-49 12z" />
    <glyph glyph-name="E" unicode="E" horiz-adv-x="342" 
d="M130 330l-38 -273h201l-8 -57h-268l98 700h268l-8 -57h-201l-36 -256h188l-8 -57h-188z" />
    <glyph glyph-name="F" unicode="F" horiz-adv-x="325" 
d="M129 317l-45 -317h-67l98 700h263l-8 -57h-196l-37 -266h183l-8 -60h-183z" />
    <glyph glyph-name="G" unicode="G" horiz-adv-x="397" 
d="M253 702l143 -2l-8 -55h-143q-22 0 -30.5 -1t-22.5 -7t-20.5 -22t-10.5 -43l-63 -448q-6 -44 10 -56.5t54 -12.5h34q26 0 40.5 3.5t27.5 19t17 46.5l24 174h-105l9 59h171l-32 -226q-11 -80 -46 -106.5t-114 -26.5h-34q-78 0 -105.5 26.5t-16.5 106.5l61 438
q11 80 46.5 106.5t113.5 26.5z" />
    <glyph glyph-name="H" unicode="H" horiz-adv-x="410" 
d="M17 0l98 700h67l-44 -313h183l44 313h67l-98 -700h-67l46 324h-183l-46 -324h-67z" />
    <glyph glyph-name="I" unicode="I" horiz-adv-x="161" 
d="M17 0l98 700h67l-98 -700h-67z" />
    <glyph glyph-name="J" unicode="J" horiz-adv-x="250" 
d="M-22 0l8 55h63q34 0 53 12.5t24 52.5l82 581h65l-79 -564q-9 -62 -27.5 -92.5t-46 -39.5t-79.5 -7z" />
    <glyph glyph-name="K" unicode="K" horiz-adv-x="399" 
d="M128 313l-44 -313h-67l98 700h67l-45 -324h85l154 324h70l-169 -351l85 -349h-73l-72 313h-89z" />
    <glyph glyph-name="L" unicode="L" horiz-adv-x="310" 
d="M17 0l98 700h67l-90 -643h186l-8 -57h-253z" />
    <glyph glyph-name="M" unicode="M" horiz-adv-x="537" 
d="M163 579l-78 -579h-68l98 700h107l34 -570h1l194 570h107l-98 -700h-68l86 589h-1l-205 -589h-65l-41 579h-3z" />
    <glyph glyph-name="N" unicode="N" horiz-adv-x="423" 
d="M115 700h79l108 -541h1l76 541h65l-98 -700h-78l-108 530h-2l-74 -530h-67z" />
    <glyph glyph-name="O" unicode="O" horiz-adv-x="409" 
d="M253 702h41q78 0 105.5 -26.5t16.5 -106.5l-61 -438q-11 -80 -46.5 -106.5t-113.5 -26.5h-41q-78 0 -105.5 26.5t-16.5 106.5l61 438q11 80 46.5 106.5t113.5 26.5zM164 55h38q39 0 59.5 14t26.5 59l63 444q6 45 -10.5 59t-55.5 14h-38q-39 0 -59.5 -14t-26.5 -59
l-63 -444q-6 -45 10.5 -59t55.5 -14z" />
    <glyph glyph-name="P" unicode="P" horiz-adv-x="364" 
d="M16 0l98 700h171q71 0 96 -24t15 -95l-30 -212q-10 -72 -41 -95.5t-103 -23.5h-104l-35 -250h-67zM274 643h-101l-47 -337h101q32 0 49.5 11.5t22.5 47.5l31 219q5 37 -9.5 48t-46.5 11z" />
    <glyph glyph-name="Q" unicode="Q" horiz-adv-x="409" 
d="M253 702h41q78 0 105.5 -26.5t16.5 -106.5l-61 -438q-14 -95 -68 -120l30 -92h-51l-37 80q-11 -1 -34 -1h-41q-78 0 -105.5 26.5t-16.5 106.5l61 438q11 80 46.5 106.5t113.5 26.5zM164 55h38q39 0 59.5 14t26.5 59l63 444q6 45 -10.5 59t-55.5 14h-38q-39 0 -59.5 -14
t-26.5 -59l-63 -444q-6 -45 10.5 -59t55.5 -14z" />
    <glyph glyph-name="R" unicode="R" horiz-adv-x="378" 
d="M16 0l98 700h178q72 0 96.5 -24t14.5 -95l-20 -139q-13 -92 -76 -101q30 -7 42 -31.5t4 -78.5l-32 -231h-66l34 241q10 68 -54 68l-108 1l-44 -310h-67zM173 643l-39 -277h111q31 0 48 11.5t22 48.5l22 159q5 37 -9 47.5t-46 10.5h-109z" />
    <glyph glyph-name="S" unicode="S" horiz-adv-x="386" 
d="M246 702l156 -2l-7 -55h-157q-38 0 -58 -13t-26 -58l-11 -78q-4 -29 4.5 -46t19.5 -22.5t41 -17.5l70 -26q26 -9 36.5 -14t25.5 -18t18 -33.5t-1 -51.5l-19 -136q-11 -80 -46 -106.5t-113 -26.5l-171 2l8 55h171q39 0 59 13.5t26 58.5l17 124q-1 10 1 17t-1 14t-3.5 11
t-6 9t-7.5 7t-9 6t-10.5 5.5t-11.5 5t-13 5.5l-73 26q-27 11 -37 16t-26 18.5t-19.5 34t0.5 50.5l13 93q11 80 46.5 106.5t113.5 26.5z" />
    <glyph glyph-name="T" unicode="T" horiz-adv-x="361" 
d="M274 643l-90 -643h-67l90 643h-140l8 57h346l-8 -57h-139z" />
    <glyph glyph-name="U" unicode="U" horiz-adv-x="409" 
d="M112 700h66l-80 -571q-6 -46 7.5 -60t50.5 -14h54q36 0 54 14.5t24 59.5l80 571h67l-80 -569q-11 -80 -46.5 -106.5t-113.5 -26.5h-41q-78 0 -105.5 26.5t-16.5 106.5z" />
    <glyph glyph-name="V" unicode="V" horiz-adv-x="439" 
d="M491 700l-235 -700h-133l-39 700h67l32 -638h28l213 638h67z" />
    <glyph glyph-name="W" unicode="W" horiz-adv-x="580" 
d="M79 700h69l-10 -637h8l167 637h91l-13 -637h9l169 637h68l-185 -700h-133l23 574h-2l-139 -574h-133z" />
    <glyph glyph-name="X" unicode="X" horiz-adv-x="365" 
d="M417 700l-172 -343l81 -357h-67l-65 298l-149 -298h-66l181 357l-76 343h66l61 -283l139 283h67z" />
    <glyph glyph-name="Y" unicode="Y" horiz-adv-x="390" 
d="M132 0l39 283l-94 417h67l70 -339l168 339h67l-212 -417l-39 -283h-66z" />
    <glyph glyph-name="Z" unicode="Z" horiz-adv-x="335" 
d="M86 643l8 57h287l-8 -57l-304 -586h222l-8 -57h-291l8 57l310 586h-224z" />
    <glyph glyph-name="bracketleft" unicode="[" horiz-adv-x="243" 
d="M171 685l-102 -730h129l-7 -49h-185l116 827h185l-7 -48h-129z" />
    <glyph glyph-name="backslash" unicode="\" horiz-adv-x="245" 
d="M158 739l23 -777h-41l-24 777h42z" />
    <glyph glyph-name="bracketright" unicode="]" horiz-adv-x="243" 
d="M101 -45l102 730h-129l7 48h185l-116 -827h-185l7 49h129z" />
    <glyph glyph-name="asciicircum" unicode="^" horiz-adv-x="416" 
d="M341 477l-71 177l-121 -177h-51l154 223h48l92 -223h-51z" />
    <glyph glyph-name="underscore" unicode="_" horiz-adv-x="402" 
d="M-46 -94l6 45h409l-6 -45h-409z" />
    <glyph glyph-name="grave" unicode="`" horiz-adv-x="500" 
d="M315 679l34 -82h-43l-57 82h66z" />
    <glyph glyph-name="a" unicode="a" horiz-adv-x="363" 
d="M109 501l8 51q86 2 129 2q69 0 91.5 -24t13.5 -90l-62 -440q-110 -2 -146 -2h-37q-47 0 -70.5 24t-16.5 73l26 183q13 96 114 96h119l9 67q5 38 -7.5 49t-43.5 11h-127zM108 277l-24 -172q-3 -23 7.5 -37t31.5 -14h110l38 272h-110q-21 0 -35.5 -13.5t-17.5 -35.5z" />
    <glyph glyph-name="b" unicode="b" 
d="M15 0l101 716h63l-23 -164h125q101 0 87 -94l-51 -363q-13 -97 -114 -97h-38zM263 499h-115l-62 -445h115q21 0 36.5 14.5t18.5 36.5l48 343q3 22 -8.5 36.5t-32.5 14.5z" />
    <glyph glyph-name="c" unicode="c" horiz-adv-x="349" 
d="M207 501q-30 0 -46.5 -12t-22.5 -49l-46 -327q-5 -37 8.5 -49.5t43.5 -12.5h150l-8 -51q-107 -2 -150 -2q-69 0 -92.5 24.5t-14.5 89.5l46 328q9 65 39 89.5t100 24.5l150 -2l-7 -51h-150z" />
    <glyph glyph-name="d" unicode="d" 
d="M26 95l51 363q14 94 114 94h126l23 164h63l-101 -716q-108 -2 -150 -2h-39q-47 0 -70.5 24t-16.5 73zM247 54l62 445h-115q-22 0 -37 -14t-18 -37l-48 -343q-3 -23 8 -37t33 -14h115z" />
    <glyph glyph-name="e" unicode="e" horiz-adv-x="370" 
d="M214 554h39q69 0 92.5 -24.5t14.5 -89.5l-29 -205l-222 -1l-17 -121q-5 -37 8.5 -49.5t43.5 -12.5h139l-8 -51q-100 -2 -139 -2q-69 0 -92.5 24.5t-14.5 89.5l46 328q9 65 39 89.5t100 24.5zM207 501q-30 0 -47 -12.5t-22 -48.5l-21 -151h158l21 151q5 36 -8 48.5
t-42 12.5h-39z" />
    <glyph glyph-name="f" unicode="f" horiz-adv-x="207" 
d="M249 552l-8 -53h-83l-70 -499h-64l70 499h-42l8 53h41l9 63q7 54 29.5 72.5t79.5 18.5l54 -3l-7 -50h-54q-33 0 -38 -40l-9 -61h84z" />
    <glyph glyph-name="g" unicode="g" 
d="M76 451q7 49 41 76t81 27h33l149 -2l-77 -546q-9 -70 -38 -92t-101 -22l-129 3l7 50h132q30 0 45 11.5t21 48.5l4 27h-127q-47 0 -70 24t-16 72zM251 87l58 412h-115q-22 0 -37 -14t-18 -37l-44 -310q-3 -23 8 -37t33 -14h115z" />
    <glyph glyph-name="h" unicode="h" horiz-adv-x="376" 
d="M239 0l63 448q3 23 -8 37t-33 14h-113l-70 -499h-63l101 716h63l-23 -164h124q100 0 86 -94l-64 -458h-63z" />
    <glyph glyph-name="i" unicode="i" horiz-adv-x="154" 
d="M16 0l78 552h63l-78 -552h-63zM100 613l12 83h66l-12 -83h-66z" />
    <glyph glyph-name="j" unicode="j" horiz-adv-x="153" 
d="M-26 -111l-30 33q26 26 37.5 39t24.5 40t18 61l69 490h63l-70 -496q-15 -105 -112 -167zM100 613l12 83h66l-12 -83h-66z" />
    <glyph glyph-name="k" unicode="k" horiz-adv-x="356" 
d="M255 0l-66 269h-73l-38 -269h-63l101 716h63l-55 -386h72l128 222h64l-143 -252l74 -300h-64z" />
    <glyph glyph-name="l" unicode="l" horiz-adv-x="153" 
d="M15 0l101 716h63l-101 -716h-63z" />
    <glyph glyph-name="m" unicode="m" horiz-adv-x="587" 
d="M15 0l78 552l366 2h32q100 0 86 -96l-64 -458h-63l63 448q3 23 -8 37t-33 14h-106l-70 -499h-64l67 480q3 9 2 13.5t-3.5 5t-10.5 0.5h-139l-70 -499h-63z" />
    <glyph glyph-name="n" unicode="n" horiz-adv-x="376" 
d="M239 0l63 448q3 23 -8 37t-33 14h-113l-70 -499h-63l78 552q91 2 149 2h38q100 0 86 -96l-64 -458h-63z" />
    <glyph glyph-name="o" unicode="o" horiz-adv-x="374" 
d="M214 554h43q70 0 93 -24t14 -90l-46 -328q-9 -65 -39.5 -89.5t-99.5 -24.5h-43q-69 0 -92.5 24.5t-14.5 89.5l46 328q9 65 39 89.5t100 24.5zM144 51h43q30 0 46.5 12.5t21.5 49.5l46 327q6 37 -7 49.5t-43 12.5h-44q-30 0 -46 -12.5t-22 -49.5l-47 -327q-6 -37 8 -49.5
t44 -12.5z" />
    <glyph glyph-name="p" unicode="p" 
d="M-1 -116l94 668q92 2 149 2h39q47 0 70.5 -27t16.5 -76l-50 -356q-13 -97 -115 -97h-38l-87 2l-16 -116h-63zM263 499h-115l-62 -445h115q21 0 36.5 14.5t18.5 36.5l48 343q3 22 -8.5 36.5t-32.5 14.5z" />
    <glyph glyph-name="q" unicode="q" 
d="M26 95l50 356q7 49 41 76t81 27h33l149 -2l-94 -668h-63l16 116q-73 -2 -87 -2h-39q-47 0 -70.5 24t-16.5 73zM247 54l62 445h-115q-22 0 -37 -14t-18 -37l-48 -343q-3 -23 8 -37t33 -14h115z" />
    <glyph glyph-name="r" unicode="r" horiz-adv-x="256" 
d="M15 0l65 462q14 92 99 92h29l94 -4l-6 -46q-87 -3 -106 -4q-28 -1 -36 -11.5t-13 -42.5l-63 -446h-63z" />
    <glyph glyph-name="s" unicode="s" horiz-adv-x="332" 
d="M200 554l132 -2l-8 -51h-132q-31 0 -47 -10.5t-21 -46.5l-7 -54q1 -7 -0.5 -11t1.5 -8.5t3 -7t4.5 -6.5t6 -5.5t7.5 -4.5l9 -4.5t9.5 -4.5t10.5 -5l65 -26q26 -10 39.5 -19t23.5 -29t6 -50l-13 -94q-9 -65 -39.5 -90.5t-99.5 -25.5l-149 1l7 52h149q30 0 46.5 12t21.5 49
l12 86q5 35 -29 52q-3 1 -22 9l-65 28q-44 19 -56 34q-18 22 -12 63l8 55q10 66 40 90t99 24z" />
    <glyph glyph-name="t" unicode="t" horiz-adv-x="212" 
d="M249 552l-7 -53h-83l-57 -405q-3 -20 2.5 -30t24.5 -10h57l-8 -54l-57 -2q-56 -1 -73.5 18.5t-9.5 73.5l57 409h-41l7 53h42l17 124h63l-17 -124h83z" />
    <glyph glyph-name="u" unicode="u" horiz-adv-x="374" 
d="M153 552l-63 -447q-3 -23 8 -37t33 -14h113l70 498h63l-78 -552q-125 -2 -148 -2h-39q-47 0 -70.5 24t-16.5 73l64 457h64z" />
    <glyph glyph-name="v" unicode="v" horiz-adv-x="354" 
d="M394 552l-191 -552h-112l-35 552h66l32 -487h7l167 487h66z" />
    <glyph glyph-name="w" unicode="w" horiz-adv-x="522" 
d="M291 0l-2 410h-1l-116 -410h-114l-2 552h67l-2 -492h9l141 492h76l4 -492h8l136 492h67l-158 -552h-113z" />
    <glyph glyph-name="x" unicode="x" horiz-adv-x="333" 
d="M369 552l-142 -266l64 -286h-66l-54 241l-121 -241h-66l143 286l-65 266h66l56 -220l119 220h66z" />
    <glyph glyph-name="y" unicode="y" horiz-adv-x="339" 
d="M74 3l-30 549h68l23 -486h22l153 486h67l-215 -677h-60l40 128h-68z" />
    <glyph glyph-name="z" unicode="z" horiz-adv-x="315" 
d="M275 56l-8 -56h-279l8 54l269 442h-204l8 56h275l-8 -56l-268 -440h207z" />
    <glyph glyph-name="braceleft" unicode="{" horiz-adv-x="216" 
d="M20 290l5 35q1 1 10.5 6t16.5 10.5t16.5 14.5t15.5 21.5t8 27.5l26 186q8 55 39 89q30 35 70 63l21 -19q-2 -3 -22 -25.5t-26 -30.5q-18 -25 -25 -77l-26 -186q-8 -60 -70 -98q51 -39 43 -97l-28 -197q-7 -54 3 -77q3 -7 17 -29.5t15 -26.5l-26 -19q-31 28 -53 63
q-21 34 -13 89l28 197q0 9 1 15.5t-2.5 14t-4.5 11.5t-5.5 10t-7 8.5t-7.5 7t-7 5.5t-6.5 4.5t-5.5 3.5z" />
    <glyph glyph-name="bar" unicode="|" horiz-adv-x="240" 
d="M56 -66l116 826h51l-116 -826h-51z" />
    <glyph glyph-name="braceright" unicode="}" horiz-adv-x="216" 
d="M222 325l-5 -35q-1 0 -5.5 -3t-7 -4t-8 -4.5t-8.5 -6t-8 -7t-8.5 -8.5t-7.5 -9.5t-6.5 -11t-5 -12.5t-3.5 -14l-27 -197q-8 -55 -39 -89q-34 -38 -70 -63l-21 19q3 4 23 26.5t25 29.5q18 25 25 77l27 197q8 59 70 97q-50 39 -42 98l26 186q7 54 -3 77q-3 7 -17 29.5
t-15 26.5l26 19q33 -30 53 -63q21 -34 13 -89l-26 -186q-2 -15 0.5 -27.5t9.5 -21.5t12.5 -14t14.5 -11z" />
    <glyph glyph-name="asciitilde" unicode="~" horiz-adv-x="400" 
d="M279 320l-121 59l-9 -55h-36l13 85h38l122 -47l7 43h36l-14 -85h-36z" />
    <glyph glyph-name="uni00A0" unicode="&#xa0;" horiz-adv-x="140" 
 />
    <glyph glyph-name="exclamdown" unicode="&#xa1;" horiz-adv-x="158" 
d="M43 180l58 303h33l-28 -303l-25 -180h-63zM104 590l15 110h57l-15 -110h-57z" />
    <glyph glyph-name="cent" unicode="&#xa2;" horiz-adv-x="349" 
d="M129 -78l10 76h-3q-69 0 -92.5 24.5t-14.5 89.5l46 328q9 65 39 89.5t100 24.5h3l10 70h54l-10 -71l93 -1l-7 -51h-150q-30 0 -46.5 -12t-22.5 -49l-46 -327q-5 -37 8.5 -49.5t43.5 -12.5h150l-8 -51q-49 -1 -93 -1l-10 -77h-54z" />
    <glyph glyph-name="sterling" unicode="&#xa3;" horiz-adv-x="399" 
d="M258 647q-38 0 -58 -14t-26 -59l-32 -228h174l-8 -54h-174l-34 -239h242l-7 -53h-351l7 53h42l34 239h-42l8 54h42l30 216q12 82 48 111t113 29l130 -2l-7 -53h-131z" />
    <glyph glyph-name="yen" unicode="&#xa5;" horiz-adv-x="390" 
d="M54 286l5 33h105l-87 381h67l71 -339l167 339h67l-193 -381h102l-5 -33h-114l-1 -3l-8 -57h115l-5 -33h-115l-27 -193h-66l27 193h-118l5 33h118l8 57l-1 3h-117z" />
    <glyph glyph-name="section" unicode="&#xa7;" horiz-adv-x="400" 
d="M383 654h-142q-37 0 -56.5 -14t-28.5 -59l-2 -9q-2 -9 -2 -17t2 -14t4 -10.5t7 -8.5t9 -6.5t11.5 -5.5t12.5 -4.5t13.5 -4t13.5 -4.5l81 -21q48 -13 68 -35t13 -73l-13 -94q-4 -33 -41 -64q17 -29 9 -77l-2 -11q-13 -77 -50.5 -100.5t-107.5 -23.5l-156 2l6 46h156
q20 0 32.5 2t27 8.5t23 22t12.5 40.5l2 14q-1 10 1 17t-2 14t-5 11t-7.5 8t-9.5 6.5t-11.5 5.5t-12.5 4t-13 4t-14 4l-81 21q-47 12 -67 34t-13 74l13 92q6 39 40 66q-17 33 -9 78l1 6q12 72 51.5 98t107.5 26l135 -2zM272 427l-78 20q-46 10 -62 26q-13 -18 -15 -32
l-13 -92q-6 -43 16 -55q8 -4 40 -13l82 -23q56 -22 61 -28q13 14 16 33l13 92q1 10 1.5 18t-1.5 14.5t-3.5 11t-6.5 8.5t-8.5 6.5t-12 5t-13 4t-16.5 4.5z" />
    <glyph glyph-name="dieresis" unicode="&#xa8;" horiz-adv-x="500" 
d="M219 608l10 71h44l-10 -71h-44zM347 608l10 71h44l-10 -71h-44z" />
    <glyph glyph-name="copyright" unicode="&#xa9;" horiz-adv-x="519" 
d="M295 569q-18 0 -29 -2.5t-22 -15.5t-15 -38l-46 -329q-5 -34 7.5 -46t42.5 -12h117l-6 -40q-75 -2 -121 -2q-57 0 -77 24t-11 88l42 303q9 64 35.5 88t84.5 24l121 -2l-6 -40h-117zM255 700h152q150 0 130 -141l-59 -417q-19 -142 -170 -142h-152q-70 0 -104.5 34.5
t-24.5 107.5l59 417q20 141 169 141zM158 16h152q133 0 150 126l59 417q18 126 -114 126h-152q-131 0 -149 -126l-59 -417q-18 -126 113 -126z" />
    <glyph glyph-name="ordfeminine" unicode="&#xaa;" horiz-adv-x="247" 
d="M129 700q50 2 75 2q42 0 55.5 -14t7.5 -54l-37 -265h-102q-29 0 -46 14t-13 43l16 115q7 57 68 57h70l5 35q3 22 -4.5 28.5t-25.5 6.5h-73zM132 403h64l23 165h-64q-28 0 -32 -31l-14 -105q-5 -29 23 -29zM223 319l-5 -37h-171l5 37h171z" />
    <glyph glyph-name="guillemotleft" unicode="&#xab;" horiz-adv-x="278" 
d="M195 116l-64 162l1 9l110 163h46l-102 -163l-1 -9l56 -162h-46zM23 278l1 9l116 163h44l-105 -163l-1 -9l59 -162h-44z" />
    <glyph glyph-name="registered" unicode="&#xae;" horiz-adv-x="358" 
d="M187 480l-15 -105h-29l36 259h69q30 0 41 -10t7 -40l-7 -51q-5 -37 -34 -42q15 -3 20 -12t2 -30l-10 -74h-29l11 77q5 28 -18 28h-44zM245 609h-40l-15 -104h44q21 0 25 24l8 55q4 25 -22 25zM224 300h-72q-53 0 -75 21t-14 78l29 203q8 57 36 77.5t81 20.5h72
q53 0 75.5 -20.5t14.5 -77.5l-29 -203q-8 -57 -36.5 -78t-81.5 -21zM154 311h72q49 0 73 18.5t31 69.5l29 203q7 51 -12.5 69t-67.5 18h-72q-47 0 -71.5 -18t-31.5 -69l-29 -203q-7 -50 12 -69t67 -19z" />
    <glyph glyph-name="macron" unicode="&#xaf;" horiz-adv-x="500" 
d="M214 620l5 38h186l-5 -38h-186z" />
    <glyph glyph-name="degree" unicode="&#xb0;" horiz-adv-x="248" 
d="M175 702h37q48 0 59 -20t4 -69l-18 -129q-7 -49 -23.5 -69t-64.5 -20h-37q-48 0 -59.5 20t-4.5 69l18 129q7 49 24 69t65 20zM206 666h-35q-25 0 -33 -10t-12 -36l-20 -143q-4 -26 1.5 -36t30.5 -10h35q25 0 33 10t11 36l20 143q4 26 -1 36t-30 10z" />
    <glyph glyph-name="plusminus" unicode="&#xb1;" horiz-adv-x="322" 
d="M51 398l7 45h113l16 115h45l-16 -115h115l-7 -45h-115l-16 -117h-45l16 117h-113zM20 175l6 45h273l-6 -45h-273z" />
    <glyph glyph-name="acute" unicode="&#xb4;" horiz-adv-x="500" 
d="M257 597l59 82h66l-82 -82h-43z" />
    <glyph glyph-name="paragraph" unicode="&#xb6;" horiz-adv-x="426" 
d="M163 0l47 333h-74q-40 0 -58.5 28.5t-12.5 66.5l24 177q6 39 32 67t67 28h260l-99 -700h-40l93 655h-106l-93 -655h-40z" />
    <glyph glyph-name="periodcentered" unicode="&#xb7;" horiz-adv-x="174" 
d="M66 266l14 103h58l-14 -103h-58z" />
    <glyph glyph-name="cedilla" unicode="&#xb8;" horiz-adv-x="500" 
d="M241 0l-41 -114h-50l55 114h36z" />
    <glyph glyph-name="ordmasculine" unicode="&#xba;" horiz-adv-x="257" 
d="M183 702h29q41 0 55 -16t9 -56l-27 -191q-5 -38 -24 -54t-60 -16h-29q-40 0 -54.5 16t-9.5 54l27 191q5 40 24 56t60 16zM141 403h29q17 0 26.5 7t12.5 28l27 194q3 21 -4 27.5t-25 6.5h-29q-34 0 -38 -34l-27 -194q-3 -21 4.5 -28t23.5 -7zM50 282l5 37h177l-5 -37h-177
z" />
    <glyph glyph-name="guillemotright" unicode="&#xbb;" horiz-adv-x="278" 
d="M166 278l-110 -162h-47l102 162l1 9l-56 163h47l64 -163zM274 287l-1 -9l-116 -162h-43l105 162l1 9l-59 163h43z" />
    <glyph glyph-name="questiondown" unicode="&#xbf;" horiz-adv-x="351" 
d="M290 0q-92 -2 -142 -2q-73 0 -101.5 27t-17.5 106l9 65q2 18 8 33t11.5 24.5t17.5 21t18.5 16.5t22.5 16.5t22 15.5q7 5 23.5 16.5t20 14.5t13.5 11.5t12.5 13t7.5 13t6.5 17.5l3.5 21l9 65h53l-12 -88q-2 -13 -6.5 -24.5t-8.5 -18.5t-14.5 -17t-14.5 -13.5t-18.5 -14.5
t-18.5 -14q-5 -4 -21.5 -17t-20.5 -16t-15.5 -13t-14.5 -15.5t-9.5 -15.5t-9 -20t-4.5 -22l-8 -63q-6 -45 10 -58t55 -13h142zM319 700l-15 -106h-58l15 106h58z" />
    <glyph glyph-name="Agrave" unicode="&#xc0;" horiz-adv-x="385" 
d="M322 700l40 -700h-67l-10 161h-198l-55 -161h-67l237 700h120zM249 647l-139 -423h167l-18 423h-10zM260 826l35 -82h-43l-58 82h66z" />
    <glyph glyph-name="Aacute" unicode="&#xc1;" horiz-adv-x="385" 
d="M322 700l40 -700h-67l-10 161h-198l-55 -161h-67l237 700h120zM249 647l-139 -423h167l-18 423h-10zM238 744l58 82h66l-81 -82h-43z" />
    <glyph glyph-name="Acircumflex" unicode="&#xc2;" horiz-adv-x="385" 
d="M322 700l40 -700h-67l-10 161h-198l-55 -161h-67l237 700h120zM249 647l-139 -423h167l-18 423h-10zM171 744l77 82h64l55 -82h-43l-48 55l-62 -55h-43z" />
    <glyph glyph-name="Atilde" unicode="&#xc3;" horiz-adv-x="385" 
d="M322 700l40 -700h-67l-10 161h-198l-55 -161h-67l237 700h120zM249 647l-139 -423h167l-18 423h-10zM324 751l-102 49l-8 -47h-30l12 72h31l101 -40l9 39h29l-12 -73h-30z" />
    <glyph glyph-name="Adieresis" unicode="&#xc4;" horiz-adv-x="385" 
d="M322 700l40 -700h-67l-10 161h-198l-55 -161h-67l237 700h120zM249 647l-139 -423h167l-18 423h-10zM184 755l10 71h44l-10 -71h-44zM312 755l10 71h44l-10 -71h-44z" />
    <glyph glyph-name="Aring" unicode="&#xc5;" horiz-adv-x="385" 
d="M322 700l40 -700h-67l-10 161h-198l-55 -161h-67l237 700h120zM249 647l-139 -423h167l-18 423h-10zM276 852h15q33 0 43.5 -12t5.5 -42l-2 -13q-4 -30 -17.5 -42t-46.5 -12h-15q-32 0 -43 12t-7 42l2 13q5 30 19 42t46 12zM287 830h-13q-21 0 -28 -6t-10 -24l-2 -16
q-2 -19 3.5 -25t25.5 -6h13q20 0 28 6t10 25l2 16q3 18 -2.5 24t-26.5 6z" />
    <glyph glyph-name="AE" unicode="&#xc6;" horiz-adv-x="608" 
d="M283 0l23 167h-176l-80 -167h-66l338 700h327l-8 -57h-201l-36 -256h188l-8 -58h-188l-38 -272h201l-8 -57h-268zM354 643l-196 -419h156l59 419h-19z" />
    <glyph glyph-name="Ccedilla" unicode="&#xc7;" horiz-adv-x="383" 
d="M245 644q-20 0 -30.5 -1.5t-23 -8t-19.5 -22t-11 -41.5l-63 -442q-4 -15 -1.5 -26.5t2.5 -19.5t6.5 -13t10 -8t13 -4t15.5 -1.5t18 -0.5h166l-8 -56q-68 -1 -123 -2l-40 -112h-50l54 112h-7q-78 0 -105.5 26.5t-16.5 106.5l61 438q11 80 46.5 106.5t113.5 26.5l166 -2
l-8 -56h-166z" />
    <glyph glyph-name="Egrave" unicode="&#xc8;" horiz-adv-x="342" 
d="M130 330l-38 -273h201l-8 -57h-268l98 700h268l-8 -57h-201l-36 -256h188l-8 -57h-188zM265 826l35 -82h-43l-58 82h66z" />
    <glyph glyph-name="Eacute" unicode="&#xc9;" horiz-adv-x="342" 
d="M217 744l58 82h66l-81 -82h-43zM130 330l-38 -273h201l-8 -57h-268l98 700h268l-8 -57h-201l-36 -256h188l-8 -57h-188z" />
    <glyph glyph-name="Ecircumflex" unicode="&#xca;" horiz-adv-x="342" 
d="M159 744l77 82h64l55 -82h-43l-48 55l-62 -55h-43zM130 330l-38 -273h201l-8 -57h-268l98 700h268l-8 -57h-201l-36 -256h188l-8 -57h-188z" />
    <glyph glyph-name="Edieresis" unicode="&#xcb;" horiz-adv-x="342" 
d="M174 755l10 71h44l-10 -71h-44zM302 755l10 71h44l-10 -71h-44zM130 330l-38 -273h201l-8 -57h-268l98 700h268l-8 -57h-201l-36 -256h188l-8 -57h-188z" />
    <glyph glyph-name="Igrave" unicode="&#xcc;" horiz-adv-x="161" 
d="M17 0l98 700h67l-98 -700h-67zM146 826l35 -82h-43l-58 82h66z" />
    <glyph glyph-name="Iacute" unicode="&#xcd;" horiz-adv-x="161" 
d="M17 0l98 700h67l-98 -700h-67zM132 744l58 82h66l-81 -82h-43z" />
    <glyph glyph-name="Icircumflex" unicode="&#xce;" horiz-adv-x="161" 
d="M17 0l98 700h67l-98 -700h-67zM58 744l77 82h64l55 -82h-43l-48 55l-62 -55h-43z" />
    <glyph glyph-name="Idieresis" unicode="&#xcf;" horiz-adv-x="161" 
d="M17 0l98 700h67l-98 -700h-67zM71 755l10 71h44l-10 -71h-44zM199 755l10 71h44l-10 -71h-44z" />
    <glyph glyph-name="Eth" unicode="&#xd0;" horiz-adv-x="405" 
d="M19 334l7 47h52l44 319h174q75 0 101.5 -25.5t15.5 -100.5l-63 -447q-11 -75 -44.5 -101t-107.5 -26h-174l47 334h-52zM288 643h-106l-37 -262h71l-7 -47h-71l-39 -277h107q34 0 52.5 13t24.5 53l64 456q5 40 -10 52t-49 12z" />
    <glyph glyph-name="Ntilde" unicode="&#xd1;" horiz-adv-x="423" 
d="M115 700h79l108 -541h1l76 541h65l-98 -700h-78l-108 530h-2l-74 -530h-67zM341 751l-102 49l-8 -47h-30l12 72h31l101 -40l9 39h29l-12 -73h-30z" />
    <glyph glyph-name="Ograve" unicode="&#xd2;" horiz-adv-x="409" 
d="M253 702h41q78 0 105.5 -26.5t16.5 -106.5l-61 -438q-11 -80 -46.5 -106.5t-113.5 -26.5h-41q-78 0 -105.5 26.5t-16.5 106.5l61 438q11 80 46.5 106.5t113.5 26.5zM164 55h38q39 0 59.5 14t26.5 59l63 444q6 45 -10.5 59t-55.5 14h-38q-39 0 -59.5 -14t-26.5 -59
l-63 -444q-6 -45 10.5 -59t55.5 -14zM276 826l35 -82h-43l-58 82h66z" />
    <glyph glyph-name="Oacute" unicode="&#xd3;" horiz-adv-x="409" 
d="M247 744l58 82h66l-81 -82h-43zM253 702h41q78 0 105.5 -26.5t16.5 -106.5l-61 -438q-11 -80 -46.5 -106.5t-113.5 -26.5h-41q-78 0 -105.5 26.5t-16.5 106.5l61 438q11 80 46.5 106.5t113.5 26.5zM164 55h38q39 0 59.5 14t26.5 59l63 444q6 45 -10.5 59t-55.5 14h-38
q-39 0 -59.5 -14t-26.5 -59l-63 -444q-6 -45 10.5 -59t55.5 -14z" />
    <glyph glyph-name="Ocircumflex" unicode="&#xd4;" horiz-adv-x="409" 
d="M183 744l77 82h64l55 -82h-43l-48 55l-62 -55h-43zM253 702h41q78 0 105.5 -26.5t16.5 -106.5l-61 -438q-11 -80 -46.5 -106.5t-113.5 -26.5h-41q-78 0 -105.5 26.5t-16.5 106.5l61 438q11 80 46.5 106.5t113.5 26.5zM164 55h38q39 0 59.5 14t26.5 59l63 444
q6 45 -10.5 59t-55.5 14h-38q-39 0 -59.5 -14t-26.5 -59l-63 -444q-6 -45 10.5 -59t55.5 -14z" />
    <glyph glyph-name="Otilde" unicode="&#xd5;" horiz-adv-x="409" 
d="M253 702h41q78 0 105.5 -26.5t16.5 -106.5l-61 -438q-11 -80 -46.5 -106.5t-113.5 -26.5h-41q-78 0 -105.5 26.5t-16.5 106.5l61 438q11 80 46.5 106.5t113.5 26.5zM164 55h38q39 0 59.5 14t26.5 59l63 444q6 45 -10.5 59t-55.5 14h-38q-39 0 -59.5 -14t-26.5 -59
l-63 -444q-6 -45 10.5 -59t55.5 -14zM335 751l-101 49l-9 -47h-30l12 72h31l102 -40l8 39h29l-12 -73h-30z" />
    <glyph glyph-name="Odieresis" unicode="&#xd6;" horiz-adv-x="409" 
d="M196 755l10 71h44l-10 -71h-44zM324 755l10 71h44l-10 -71h-44zM253 702h41q78 0 105.5 -26.5t16.5 -106.5l-61 -438q-11 -80 -46.5 -106.5t-113.5 -26.5h-41q-78 0 -105.5 26.5t-16.5 106.5l61 438q11 80 46.5 106.5t113.5 26.5zM164 55h38q39 0 59.5 14t26.5 59l63 444
q6 45 -10.5 59t-55.5 14h-38q-39 0 -59.5 -14t-26.5 -59l-63 -444q-6 -45 10.5 -59t55.5 -14z" />
    <glyph glyph-name="multiply" unicode="&#xd7;" horiz-adv-x="309" 
d="M278 476l27 -31l-99 -87l72 -84l-35 -32l-74 84l-97 -85l-27 32l98 85l-73 85l36 32l72 -85z" />
    <glyph glyph-name="Oslash" unicode="&#xd8;" horiz-adv-x="409" 
d="M253 702h41q54 0 81 -11l24 48h37l-33 -67q23 -29 13 -103l-61 -438q-11 -80 -46.5 -106.5t-113.5 -26.5h-41q-56 0 -82 11l-24 -47h-37l33 67q-22 28 -12 102l61 438q11 80 46.5 106.5t113.5 26.5zM164 55h38q39 0 59.5 14t26.5 59l62 438l-246 -491q13 -20 60 -20z
M161 572l-61 -432l243 487q-13 18 -58 18h-38q-39 0 -59.5 -14t-26.5 -59z" />
    <glyph glyph-name="Ugrave" unicode="&#xd9;" horiz-adv-x="409" 
d="M112 700h66l-80 -571q-6 -46 7.5 -60t50.5 -14h54q36 0 54 14.5t24 59.5l80 571h67l-80 -569q-11 -80 -46.5 -106.5t-113.5 -26.5h-41q-78 0 -105.5 26.5t-16.5 106.5zM282 826l35 -82h-43l-58 82h66z" />
    <glyph glyph-name="Uacute" unicode="&#xda;" horiz-adv-x="409" 
d="M251 744l58 82h66l-81 -82h-43zM112 700h66l-80 -571q-6 -46 7.5 -60t50.5 -14h54q36 0 54 14.5t24 59.5l80 571h67l-80 -569q-11 -80 -46.5 -106.5t-113.5 -26.5h-41q-78 0 -105.5 26.5t-16.5 106.5z" />
    <glyph glyph-name="Ucircumflex" unicode="&#xdb;" horiz-adv-x="409" 
d="M183 744l77 82h64l55 -82h-43l-47 55l-63 -55h-43zM112 700h66l-80 -571q-6 -46 7.5 -60t50.5 -14h54q36 0 54 14.5t24 59.5l80 571h67l-80 -569q-11 -80 -46.5 -106.5t-113.5 -26.5h-41q-78 0 -105.5 26.5t-16.5 106.5z" />
    <glyph glyph-name="Udieresis" unicode="&#xdc;" horiz-adv-x="409" 
d="M196 755l10 71h44l-10 -71h-44zM324 755l10 71h44l-10 -71h-44zM112 700h66l-80 -571q-6 -46 7.5 -60t50.5 -14h54q36 0 54 14.5t24 59.5l80 571h67l-80 -569q-11 -80 -46.5 -106.5t-113.5 -26.5h-41q-78 0 -105.5 26.5t-16.5 106.5z" />
    <glyph glyph-name="Yacute" unicode="&#xdd;" horiz-adv-x="390" 
d="M132 0l39 283l-94 417h67l70 -339l168 339h67l-212 -417l-39 -283h-66zM239 744l59 82h66l-82 -82h-43z" />
    <glyph glyph-name="Thorn" unicode="&#xde;" horiz-adv-x="364" 
d="M16 0l98 700h67l-17 -124h104q71 0 95.5 -24t14.5 -95l-29 -206q-10 -72 -41 -95.5t-102 -23.5h-104l-19 -132h-67zM260 520h-104l-47 -332h104q30 0 47 13t23 50l29 206q6 37 -8 50t-44 13z" />
    <glyph glyph-name="germandbls" unicode="&#xdf;" horiz-adv-x="397" 
d="M249 647q-34 0 -52.5 -13t-24.5 -53l-82 -581h-63l71 506l-49 8l6 38h52l6 43q7 54 42 79.5t85 25.5h39q75 0 101.5 -25.5t15.5 -100.5l-13 -89q-7 -53 -26.5 -76.5t-57.5 -29.5q44 -4 61 -27.5t9 -80.5l-20 -144q-11 -81 -43 -104t-109 -23h-67l7 50h70q33 0 52.5 14.5
t25.5 54.5l22 161q6 40 -11 54.5t-50 14.5h-67l8 56h54q33 0 52.5 14.5t25.5 55.5l15 106q6 40 -9.5 53t-49.5 13h-26z" />
    <glyph glyph-name="agrave" unicode="&#xe0;" horiz-adv-x="363" 
d="M109 501l8 51q86 2 129 2q69 0 91.5 -24t13.5 -90l-62 -440q-110 -2 -146 -2h-37q-47 0 -70.5 24t-16.5 73l26 183q13 96 114 96h119l9 67q5 38 -7.5 49t-43.5 11h-127zM108 277l-24 -172q-3 -23 7.5 -37t31.5 -14h110l38 272h-110q-21 0 -35.5 -13.5t-17.5 -35.5z
M245 679l35 -82h-43l-58 82h66z" />
    <glyph glyph-name="aacute" unicode="&#xe1;" horiz-adv-x="363" 
d="M109 501l8 51q86 2 129 2q69 0 91.5 -24t13.5 -90l-62 -440q-110 -2 -146 -2h-37q-47 0 -70.5 24t-16.5 73l26 183q13 96 114 96h119l9 67q5 38 -7.5 49t-43.5 11h-127zM108 277l-24 -172q-3 -23 7.5 -37t31.5 -14h110l38 272h-110q-21 0 -35.5 -13.5t-17.5 -35.5z
M203 597l58 82h66l-81 -82h-43z" />
    <glyph glyph-name="acircumflex" unicode="&#xe2;" horiz-adv-x="363" 
d="M109 501l8 51q86 2 129 2q69 0 91.5 -24t13.5 -90l-62 -440q-110 -2 -146 -2h-37q-47 0 -70.5 24t-16.5 73l26 183q13 96 114 96h119l9 67q5 38 -7.5 49t-43.5 11h-127zM108 277l-24 -172q-3 -23 7.5 -37t31.5 -14h110l38 272h-110q-21 0 -35.5 -13.5t-17.5 -35.5z
M140 597l77 82h64l55 -82h-43l-47 55l-63 -55h-43z" />
    <glyph glyph-name="atilde" unicode="&#xe3;" horiz-adv-x="363" 
d="M109 501l8 51q86 2 129 2q69 0 91.5 -24t13.5 -90l-62 -440q-110 -2 -146 -2h-37q-47 0 -70.5 24t-16.5 73l26 183q13 96 114 96h119l9 67q5 38 -7.5 49t-43.5 11h-127zM108 277l-24 -172q-3 -23 7.5 -37t31.5 -14h110l38 272h-110q-21 0 -35.5 -13.5t-17.5 -35.5z
M293 604l-101 49l-9 -47h-30l12 72h31l102 -40l8 39h29l-12 -73h-30z" />
    <glyph glyph-name="adieresis" unicode="&#xe4;" horiz-adv-x="363" 
d="M109 501l8 51q86 2 129 2q69 0 91.5 -24t13.5 -90l-62 -440q-110 -2 -146 -2h-37q-47 0 -70.5 24t-16.5 73l26 183q13 96 114 96h119l9 67q5 38 -7.5 49t-43.5 11h-127zM108 277l-24 -172q-3 -23 7.5 -37t31.5 -14h110l38 272h-110q-21 0 -35.5 -13.5t-17.5 -35.5z
M153 608l9 71h44l-9 -71h-44zM281 608l9 71h44l-9 -71h-44z" />
    <glyph glyph-name="aring" unicode="&#xe5;" horiz-adv-x="363" 
d="M109 501l8 51q86 2 129 2q69 0 91.5 -24t13.5 -90l-62 -440q-110 -2 -146 -2h-37q-47 0 -70.5 24t-16.5 73l26 183q13 96 114 96h119l9 67q5 38 -7.5 49t-43.5 11h-127zM108 277l-24 -172q-3 -23 7.5 -37t31.5 -14h110l38 272h-110q-21 0 -35.5 -13.5t-17.5 -35.5z
M241 710h15q33 0 43.5 -12t5.5 -42l-2 -13q-5 -30 -18 -42t-46 -12h-15q-33 0 -44 12t-6 42l2 13q5 30 19 42t46 12zM252 688h-13q-21 0 -28.5 -6t-9.5 -24l-2 -16q-2 -19 3.5 -25t25.5 -6h13q20 0 27 6t11 25l3 16q3 18 -2.5 24t-27.5 6z" />
    <glyph glyph-name="ae" unicode="&#xe6;" horiz-adv-x="586" 
d="M429 554h39q70 0 93 -24t14 -90l-28 -199l-221 -1l-18 -129q-5 -37 7.5 -49t42.5 -12h133l-7 -50q-81 -2 -133 -2q-50 0 -74.5 9t-30.5 39q-1 -1 -14.5 -11t-20 -13.5l-19.5 -10.5t-25 -10t-24 -3h-37q-47 0 -70.5 24t-16.5 73l24 170q7 49 37 73t77 24h121l12 82
q5 35 -7.5 46.5t-40.5 11.5h-129l7 50q85 2 129 2q36 0 56 -8.5t27 -32.5q25 41 97 41zM242 95q0 5 2 17l28 199h-111q-21 0 -37 -16t-19 -38l-21 -152q-3 -23 8 -37t33 -14h33q30 0 84 41zM422 504q-59 0 -67 -57l-22 -156h158l21 151q5 37 -8 49.5t-43 12.5h-39z" />
    <glyph glyph-name="ccedilla" unicode="&#xe7;" horiz-adv-x="349" 
d="M207 501q-30 0 -46.5 -12t-22.5 -49l-46 -327q-5 -37 8.5 -49.5t43.5 -12.5h150l-8 -51q-62 -1 -111 -2l-40 -112h-50l54 112h-3q-69 0 -92.5 24.5t-14.5 89.5l46 328q9 65 39 89.5t100 24.5l150 -2l-7 -51h-150z" />
    <glyph glyph-name="egrave" unicode="&#xe8;" horiz-adv-x="370" 
d="M214 554h39q69 0 92.5 -24.5t14.5 -89.5l-29 -205l-222 -1l-17 -121q-5 -37 8.5 -49.5t43.5 -12.5h139l-8 -51q-100 -2 -139 -2q-69 0 -92.5 24.5t-14.5 89.5l46 328q9 65 39 89.5t100 24.5zM207 501q-30 0 -47 -12.5t-22 -48.5l-21 -151h158l21 151q5 36 -8 48.5
t-42 12.5h-39zM240 679l34 -82h-43l-57 82h66z" />
    <glyph glyph-name="eacute" unicode="&#xe9;" horiz-adv-x="370" 
d="M209 597l59 82h66l-82 -82h-43zM214 554h39q69 0 92.5 -24.5t14.5 -89.5l-29 -205l-222 -1l-17 -121q-5 -37 8.5 -49.5t43.5 -12.5h139l-8 -51q-100 -2 -139 -2q-69 0 -92.5 24.5t-14.5 89.5l46 328q9 65 39 89.5t100 24.5zM207 501q-30 0 -47 -12.5t-22 -48.5l-21 -151
h158l21 151q5 36 -8 48.5t-42 12.5h-39z" />
    <glyph glyph-name="ecircumflex" unicode="&#xea;" horiz-adv-x="370" 
d="M142 597l78 82h64l54 -82h-43l-47 55l-63 -55h-43zM214 554h39q69 0 92.5 -24.5t14.5 -89.5l-29 -205l-222 -1l-17 -121q-5 -37 8.5 -49.5t43.5 -12.5h139l-8 -51q-100 -2 -139 -2q-69 0 -92.5 24.5t-14.5 89.5l46 328q9 65 39 89.5t100 24.5zM207 501q-30 0 -47 -12.5
t-22 -48.5l-21 -151h158l21 151q5 36 -8 48.5t-42 12.5h-39z" />
    <glyph glyph-name="edieresis" unicode="&#xeb;" horiz-adv-x="370" 
d="M156 608l10 71h44l-10 -71h-44zM284 608l10 71h44l-10 -71h-44zM214 554h39q69 0 92.5 -24.5t14.5 -89.5l-29 -205l-222 -1l-17 -121q-5 -37 8.5 -49.5t43.5 -12.5h139l-8 -51q-100 -2 -139 -2q-69 0 -92.5 24.5t-14.5 89.5l46 328q9 65 39 89.5t100 24.5zM207 501
q-30 0 -47 -12.5t-22 -48.5l-21 -151h158l21 151q5 36 -8 48.5t-42 12.5h-39z" />
    <glyph glyph-name="igrave" unicode="&#xec;" horiz-adv-x="154" 
d="M16 0l78 552h63l-78 -552h-63zM120 679l35 -82h-43l-58 82h66z" />
    <glyph glyph-name="iacute" unicode="&#xed;" horiz-adv-x="154" 
d="M108 597l58 82h66l-81 -82h-43zM16 0l78 552h63l-78 -552h-63z" />
    <glyph glyph-name="icircumflex" unicode="&#xee;" horiz-adv-x="154" 
d="M34 597l77 82h64l55 -82h-43l-47 55l-63 -55h-43zM16 0l78 552h63l-78 -552h-63z" />
    <glyph glyph-name="idieresis" unicode="&#xef;" horiz-adv-x="154" 
d="M47 608l10 71h44l-10 -71h-44zM175 608l10 71h44l-10 -71h-44zM16 0l78 552h63l-78 -552h-63z" />
    <glyph glyph-name="eth" unicode="&#xf0;" horiz-adv-x="374" 
d="M178 -2h-43q-69 0 -92.5 24t-14.5 88l49 348q13 96 113 96q112 -1 126 -2l1 8q7 48 -6 72l-65 -24l-8 27l63 22q-10 15 -48 53l45 15q6 -5 17.5 -14.5t20.5 -17.5t16 -16l59 21l8 -27l-53 -19q22 -37 15 -89l-64 -453q-9 -64 -39 -88t-100 -24zM143 51h43q30 0 46.5 12.5
t21.5 48.5l54 386l-114 1q-22 0 -37 -14t-18 -37l-48 -336q-5 -36 8.5 -48.5t43.5 -12.5z" />
    <glyph glyph-name="ntilde" unicode="&#xf1;" horiz-adv-x="376" 
d="M239 0l63 448q3 23 -8 37t-33 14h-113l-70 -499h-63l78 552q91 2 149 2h38q100 0 86 -96l-64 -458h-63zM296 604l-101 49l-9 -47h-30l12 72h31l102 -40l8 39h29l-12 -73h-30z" />
    <glyph glyph-name="ograve" unicode="&#xf2;" horiz-adv-x="374" 
d="M214 554h43q70 0 93 -24t14 -90l-46 -328q-9 -65 -39.5 -89.5t-99.5 -24.5h-43q-69 0 -92.5 24.5t-14.5 89.5l46 328q9 65 39 89.5t100 24.5zM144 51h43q30 0 46.5 12.5t21.5 49.5l46 327q6 37 -7 49.5t-43 12.5h-44q-30 0 -46 -12.5t-22 -49.5l-47 -327q-6 -37 8 -49.5
t44 -12.5zM248 679l34 -82h-43l-57 82h66z" />
    <glyph glyph-name="oacute" unicode="&#xf3;" horiz-adv-x="374" 
d="M212 597l59 82h66l-82 -82h-43zM214 554h43q70 0 93 -24t14 -90l-46 -328q-9 -65 -39.5 -89.5t-99.5 -24.5h-43q-69 0 -92.5 24.5t-14.5 89.5l46 328q9 65 39 89.5t100 24.5zM144 51h43q30 0 46.5 12.5t21.5 49.5l46 327q6 37 -7 49.5t-43 12.5h-44q-30 0 -46 -12.5
t-22 -49.5l-47 -327q-6 -37 8 -49.5t44 -12.5z" />
    <glyph glyph-name="ocircumflex" unicode="&#xf4;" horiz-adv-x="374" 
d="M144 597l78 82h64l54 -82h-43l-47 55l-63 -55h-43zM214 554h43q70 0 93 -24t14 -90l-46 -328q-9 -65 -39.5 -89.5t-99.5 -24.5h-43q-69 0 -92.5 24.5t-14.5 89.5l46 328q9 65 39 89.5t100 24.5zM144 51h43q30 0 46.5 12.5t21.5 49.5l46 327q6 37 -7 49.5t-43 12.5h-44
q-30 0 -46 -12.5t-22 -49.5l-47 -327q-6 -37 8 -49.5t44 -12.5z" />
    <glyph glyph-name="otilde" unicode="&#xf5;" horiz-adv-x="374" 
d="M214 554h43q70 0 93 -24t14 -90l-46 -328q-9 -65 -39.5 -89.5t-99.5 -24.5h-43q-69 0 -92.5 24.5t-14.5 89.5l46 328q9 65 39 89.5t100 24.5zM144 51h43q30 0 46.5 12.5t21.5 49.5l46 327q6 37 -7 49.5t-43 12.5h-44q-30 0 -46 -12.5t-22 -49.5l-47 -327q-6 -37 8 -49.5
t44 -12.5zM297 604l-101 49l-8 -47h-30l12 72h31l101 -40l9 39h29l-13 -73h-30z" />
    <glyph glyph-name="odieresis" unicode="&#xf6;" horiz-adv-x="374" 
d="M158 608l10 71h44l-10 -71h-44zM286 608l10 71h44l-10 -71h-44zM214 554h43q70 0 93 -24t14 -90l-46 -328q-9 -65 -39.5 -89.5t-99.5 -24.5h-43q-69 0 -92.5 24.5t-14.5 89.5l46 328q9 65 39 89.5t100 24.5zM144 51h43q30 0 46.5 12.5t21.5 49.5l46 327q6 37 -7 49.5
t-43 12.5h-44q-30 0 -46 -12.5t-22 -49.5l-47 -327q-6 -37 8 -49.5t44 -12.5z" />
    <glyph glyph-name="divide" unicode="&#xf7;" horiz-adv-x="320" 
d="M42 336l6 45h273l-6 -45h-273zM171 438l9 65h44l-9 -65h-44zM140 213l9 65h44l-9 -65h-44z" />
    <glyph glyph-name="oslash" unicode="&#xf8;" horiz-adv-x="374" 
d="M214 554h43q30 0 53 -5l26 50h35l-31 -61q34 -23 24 -98l-46 -328q-9 -65 -39.5 -89.5t-99.5 -24.5h-43q-47 0 -69 9l-22 -43h-35l30 60q-20 26 -11 88l46 328q9 65 39 89.5t100 24.5zM143 51h43q30 0 47 12.5t22 49.5l46 327q1 9 1 25l-205 -398v-1q12 -15 46 -15z
M139 440l-45 -313l190 369q-12 6 -33 6h-44q-30 0 -46 -12.5t-22 -49.5z" />
    <glyph glyph-name="ugrave" unicode="&#xf9;" horiz-adv-x="374" 
d="M153 552l-63 -447q-3 -23 8 -37t33 -14h113l70 498h63l-78 -552q-125 -2 -148 -2h-39q-47 0 -70.5 24t-16.5 73l64 457h64zM247 679l35 -82h-43l-58 82h66z" />
    <glyph glyph-name="uacute" unicode="&#xfa;" horiz-adv-x="374" 
d="M153 552l-63 -447q-3 -23 8 -37t33 -14h113l70 498h63l-78 -552q-125 -2 -148 -2h-39q-47 0 -70.5 24t-16.5 73l64 457h64zM209 597l58 82h66l-81 -82h-43z" />
    <glyph glyph-name="ucircumflex" unicode="&#xfb;" horiz-adv-x="374" 
d="M153 552l-63 -447q-3 -23 8 -37t33 -14h113l70 498h63l-78 -552q-125 -2 -148 -2h-39q-47 0 -70.5 24t-16.5 73l64 457h64zM142 597l77 82h64l55 -82h-43l-47 55l-63 -55h-43z" />
    <glyph glyph-name="udieresis" unicode="&#xfc;" horiz-adv-x="374" 
d="M153 552l-63 -447q-3 -23 8 -37t33 -14h113l70 498h63l-78 -552q-125 -2 -148 -2h-39q-47 0 -70.5 24t-16.5 73l64 457h64zM158 608l9 71h44l-9 -71h-44zM286 608l9 71h44l-9 -71h-44z" />
    <glyph glyph-name="yacute" unicode="&#xfd;" horiz-adv-x="339" 
d="M74 3l-30 549h68l23 -486h22l153 486h67l-215 -677h-60l40 128h-68zM194 597l59 82h66l-82 -82h-43z" />
    <glyph glyph-name="thorn" unicode="&#xfe;" 
d="M-1 -116l115 817h63l-21 -149h132q94 0 80 -101l-49 -343q-7 -51 -35.5 -80.5t-73.5 -29.5h-38l-94 2l-16 -116h-63zM263 499h-115l-62 -445h115q21 0 36.5 14.5t18.5 36.5l48 343q3 22 -8.5 36.5t-32.5 14.5z" />
    <glyph glyph-name="ydieresis" unicode="&#xff;" horiz-adv-x="339" 
d="M74 3l-30 549h68l23 -486h22l153 486h67l-215 -677h-60l40 128h-68zM135 608l10 71h44l-10 -71h-44zM263 608l10 71h44l-10 -71h-44z" />
    <glyph glyph-name="Amacron" unicode="&#x100;" horiz-adv-x="385" 
d="M322 700l40 -700h-67l-10 161h-198l-55 -161h-67l237 700h120zM249 647l-139 -423h167l-18 423h-10zM179 767l5 38h186l-5 -38h-186z" />
    <glyph glyph-name="amacron" unicode="&#x101;" horiz-adv-x="363" 
d="M109 501l8 51q86 2 129 2q69 0 91.5 -24t13.5 -90l-62 -440q-110 -2 -146 -2h-37q-47 0 -70.5 24t-16.5 73l26 183q13 96 114 96h119l9 67q5 38 -7.5 49t-43.5 11h-127zM108 277l-24 -172q-3 -23 7.5 -37t31.5 -14h110l38 272h-110q-21 0 -35.5 -13.5t-17.5 -35.5z
M150 620l6 38h186l-6 -38h-186z" />
    <glyph glyph-name="Abreve" unicode="&#x102;" horiz-adv-x="385" 
d="M322 700l40 -700h-67l-10 161h-198l-55 -161h-67l237 700h120zM249 647l-139 -423h167l-18 423h-10zM287 743h-38q-42 0 -57 16.5t-10 60.5l1 10h41l-2 -14q-6 -40 33 -40h36q39 0 45 40l2 14h38l-1 -10q-5 -44 -25.5 -60.5t-62.5 -16.5z" />
    <glyph glyph-name="abreve" unicode="&#x103;" horiz-adv-x="363" 
d="M109 501l8 51q86 2 129 2q69 0 91.5 -24t13.5 -90l-62 -440q-110 -2 -146 -2h-37q-47 0 -70.5 24t-16.5 73l26 183q13 96 114 96h119l9 67q5 38 -7.5 49t-43.5 11h-127zM108 277l-24 -172q-3 -23 7.5 -37t31.5 -14h110l38 272h-110q-21 0 -35.5 -13.5t-17.5 -35.5z
M259 596h-38q-42 0 -57 16.5t-10 60.5l1 10h40l-2 -14q-6 -40 33 -40h36q39 0 45 40l2 14h39l-1 -10q-5 -44 -25.5 -60.5t-62.5 -16.5z" />
    <glyph glyph-name="Aogonek" unicode="&#x104;" horiz-adv-x="385" 
d="M347 -62l-2 -14q-4 -29 -15.5 -42t-40.5 -13h-38q-30 0 -39 11t-7 38l1 12q0 4 1 8t2 7t3 6t3 5t4.5 5t5 4t6.5 4t6.5 4t8 4.5t8.5 4.5l41 22l-10 157h-198l-55 -161h-67l237 700h120l40 -700h-30l-53 -30q-4 -2 -10 -6t-8.5 -5.5t-6 -4t-5 -4t-3 -4.5t-2.5 -5.5t-2 -6.5
l-2 -9q-5 -26 20 -26h26q13 0 18 4.5t7 19.5l2 15h34zM249 647l-139 -423h167l-18 423h-10z" />
    <glyph glyph-name="aogonek" unicode="&#x105;" horiz-adv-x="363" 
d="M287 -54l-2 -14q-4 -29 -16 -42t-41 -13h-38q-30 0 -39 11t-7 38l1 12q1 6 2 10.5t2 8t4.5 7t5 5.5t7 5.5t7.5 4.5t9.5 5t10.5 6l16 9q-27 -1 -66 -1h-37q-47 0 -70.5 24t-16.5 73l26 183q13 96 114 96h119l9 67q5 38 -7.5 49t-43.5 11h-127l8 51q86 2 129 2
q69 0 91.5 -24t13.5 -90l-62 -440q-16 0 -34 -1l-37 -21q-5 -4 -13 -8.5t-11 -6.5t-6.5 -5.5t-4.5 -7t-2 -8.5l-1 -9q-2 -15 2 -20.5t17 -5.5h26q13 0 18 4.5t7 19.5l2 15h35zM108 277l-24 -172q-3 -23 7.5 -37t31.5 -14h110l38 272h-110q-21 0 -35.5 -13.5t-17.5 -35.5z
" />
    <glyph glyph-name="Cacute" unicode="&#x106;" horiz-adv-x="383" 
d="M255 744l58 82h66l-81 -82h-43zM245 644q-20 0 -30.5 -1.5t-23 -8t-19.5 -22t-11 -41.5l-63 -442q-4 -15 -1.5 -26.5t2.5 -19.5t6.5 -13t10 -8t13 -4t15.5 -1.5t18 -0.5h166l-8 -56q-113 -2 -166 -2q-78 0 -105.5 26.5t-16.5 106.5l61 438q11 80 46.5 106.5t113.5 26.5
l166 -2l-8 -56h-166z" />
    <glyph glyph-name="cacute" unicode="&#x107;" horiz-adv-x="349" 
d="M219 597l59 82h66l-82 -82h-43zM207 501q-30 0 -46.5 -12t-22.5 -49l-46 -327q-5 -37 8.5 -49.5t43.5 -12.5h150l-8 -51q-107 -2 -150 -2q-69 0 -92.5 24.5t-14.5 89.5l46 328q9 65 39 89.5t100 24.5l150 -2l-7 -51h-150z" />
    <glyph glyph-name="Cdotaccent" unicode="&#x10a;" horiz-adv-x="383" 
d="M245 644q-20 0 -30.5 -1.5t-23 -8t-19.5 -22t-11 -41.5l-63 -442q-4 -15 -1.5 -26.5t2.5 -19.5t6.5 -13t10 -8t13 -4t15.5 -1.5t18 -0.5h166l-8 -56q-113 -2 -166 -2q-78 0 -105.5 26.5t-16.5 106.5l61 438q11 80 46.5 106.5t113.5 26.5l166 -2l-8 -56h-166zM267 763
l9 65h44l-9 -65h-44z" />
    <glyph glyph-name="cdotaccent" unicode="&#x10b;" horiz-adv-x="349" 
d="M207 501q-30 0 -46.5 -12t-22.5 -49l-46 -327q-5 -37 8.5 -49.5t43.5 -12.5h150l-8 -51q-107 -2 -150 -2q-69 0 -92.5 24.5t-14.5 89.5l46 328q9 65 39 89.5t100 24.5l150 -2l-7 -51h-150zM225 616l9 65h44l-9 -65h-44z" />
    <glyph glyph-name="Ccaron" unicode="&#x10c;" horiz-adv-x="383" 
d="M252 744l-55 82h43l48 -55l62 55h43l-77 -82h-64zM245 644q-20 0 -30.5 -1.5t-23 -8t-19.5 -22t-11 -41.5l-63 -442q-4 -15 -1.5 -26.5t2.5 -19.5t6.5 -13t10 -8t13 -4t15.5 -1.5t18 -0.5h166l-8 -56q-113 -2 -166 -2q-78 0 -105.5 26.5t-16.5 106.5l61 438
q11 80 46.5 106.5t113.5 26.5l166 -2l-8 -56h-166z" />
    <glyph glyph-name="ccaron" unicode="&#x10d;" horiz-adv-x="349" 
d="M214 597l-54 82h43l47 -55l63 55h43l-78 -82h-64zM207 501q-30 0 -46.5 -12t-22.5 -49l-46 -327q-5 -37 8.5 -49.5t43.5 -12.5h150l-8 -51q-107 -2 -150 -2q-69 0 -92.5 24.5t-14.5 89.5l46 328q9 65 39 89.5t100 24.5l150 -2l-7 -51h-150z" />
    <glyph glyph-name="Dcaron" unicode="&#x10e;" horiz-adv-x="396" 
d="M238 744l-55 82h43l47 -55l63 55h43l-77 -82h-64zM16 0l98 700h174q75 0 101.5 -25.5t15.5 -100.5l-63 -447q-11 -75 -44.5 -101t-107.5 -26h-174zM280 643h-106l-83 -586h107q34 0 52.5 13t24.5 53l64 456q5 40 -10 52t-49 12z" />
    <glyph glyph-name="dcaron" unicode="&#x10f;" horiz-adv-x="379" 
d="M26 95l51 363q14 94 114 94h126l23 164h63l-101 -716q-108 -2 -150 -2h-39q-47 0 -70.5 24t-16.5 73zM247 54l62 445h-115q-22 0 -37 -14t-18 -37l-48 -343q-3 -23 8 -37t33 -14h115zM423 642l11 74h40l-10 -69q-3 -19 -10 -34t-13 -22.5t-20 -22.5l-12 10q2 3 6 7.5
t5 6.5t4 5t3.5 5t2 4.5t2.5 5t2 5.5t1.5 7l1 8t1.5 10h-15z" />
    <glyph glyph-name="Dcroat" unicode="&#x110;" horiz-adv-x="405" 
d="M19 334l7 47h52l44 319h174q75 0 101.5 -25.5t15.5 -100.5l-63 -447q-11 -75 -44.5 -101t-107.5 -26h-174l47 334h-52zM288 643h-106l-37 -262h71l-7 -47h-71l-39 -277h107q34 0 52.5 13t24.5 53l64 456q5 40 -10 52t-49 12z" />
    <glyph glyph-name="dcroat" unicode="&#x111;" horiz-adv-x="381" 
d="M237 633l4 31h91l8 52h63l-8 -52h37l-4 -31h-37l-89 -633q-108 -2 -150 -2h-39q-47 0 -70.5 24t-16.5 73l51 363q13 94 114 94h126l11 81h-91zM247 54l62 445h-115q-22 0 -37 -14t-18 -37l-48 -343q-3 -23 8 -37t33 -14h115z" />
    <glyph glyph-name="Emacron" unicode="&#x112;" horiz-adv-x="342" 
d="M165 767l5 38h186l-5 -38h-186zM130 330l-38 -273h201l-8 -57h-268l98 700h268l-8 -57h-201l-36 -256h188l-8 -57h-188z" />
    <glyph glyph-name="emacron" unicode="&#x113;" horiz-adv-x="370" 
d="M214 554h39q69 0 92.5 -24.5t14.5 -89.5l-29 -205l-222 -1l-17 -121q-5 -37 8.5 -49.5t43.5 -12.5h139l-8 -51q-100 -2 -139 -2q-69 0 -92.5 24.5t-14.5 89.5l46 328q9 65 39 89.5t100 24.5zM207 501q-30 0 -47 -12.5t-22 -48.5l-21 -151h158l21 151q5 36 -8 48.5
t-42 12.5h-39zM151 620l5 38h186l-5 -38h-186z" />
    <glyph glyph-name="Ebreve" unicode="&#x114;" horiz-adv-x="342" 
d="M130 330l-38 -273h201l-8 -57h-268l98 700h268l-8 -57h-201l-36 -256h188l-8 -57h-188zM276 743h-38q-42 0 -57 16.5t-10 60.5l1 10h41l-2 -14q-6 -40 33 -40h36q39 0 45 40l2 14h38l-1 -10q-5 -44 -25.5 -60.5t-62.5 -16.5z" />
    <glyph glyph-name="ebreve" unicode="&#x115;" horiz-adv-x="370" 
d="M214 554h39q69 0 92.5 -24.5t14.5 -89.5l-29 -205l-222 -1l-17 -121q-5 -37 8.5 -49.5t43.5 -12.5h139l-8 -51q-100 -2 -139 -2q-69 0 -92.5 24.5t-14.5 89.5l46 328q9 65 39 89.5t100 24.5zM207 501q-30 0 -47 -12.5t-22 -48.5l-21 -151h158l21 151q5 36 -8 48.5
t-42 12.5h-39zM259 596h-38q-42 0 -57 16.5t-10 60.5l1 10h41l-2 -14q-6 -40 33 -40h36q39 0 45 40l2 14h38l-1 -10q-5 -44 -25.5 -60.5t-62.5 -16.5z" />
    <glyph glyph-name="Edotaccent" unicode="&#x116;" horiz-adv-x="342" 
d="M130 330l-38 -273h201l-8 -57h-268l98 700h268l-8 -57h-201l-36 -256h188l-8 -57h-188zM240 763l9 65h44l-9 -65h-44z" />
    <glyph glyph-name="edotaccent" unicode="&#x117;" horiz-adv-x="370" 
d="M214 554h39q69 0 92.5 -24.5t14.5 -89.5l-29 -205l-222 -1l-17 -121q-5 -37 8.5 -49.5t43.5 -12.5h139l-8 -51q-100 -2 -139 -2q-69 0 -92.5 24.5t-14.5 89.5l46 328q9 65 39 89.5t100 24.5zM207 501q-30 0 -47 -12.5t-22 -48.5l-21 -151h158l21 151q5 36 -8 48.5
t-42 12.5h-39zM221 616l9 65h44l-9 -65h-44z" />
    <glyph glyph-name="Eogonek" unicode="&#x118;" horiz-adv-x="342" 
d="M130 330l-38 -273h201l-8 -57l-53 -30q-4 -2 -10 -6t-8.5 -5.5t-6 -4t-5 -4t-3 -4.5t-2.5 -5.5t-2 -6.5l-2 -9q-5 -26 20 -26h26q13 0 18 4.5t7 19.5l2 15h34l-2 -14q-4 -29 -15.5 -42t-40.5 -13h-38q-30 0 -39 11t-7 38l1 12q0 5 1 9t3 8l3 6t4.5 5.5t4.5 5t6 4.5t7 4
t9 5t9 5q5 2 35 18h-224l98 700h268l-8 -57h-201l-36 -256h188l-8 -57h-188z" />
    <glyph glyph-name="eogonek" unicode="&#x119;" horiz-adv-x="370" 
d="M214 554h39q69 0 92.5 -24.5t14.5 -89.5l-29 -205l-222 -1l-17 -121q-5 -37 8.5 -49.5t43.5 -12.5h139l-8 -51h-1v-1l-53 -30q-5 -4 -13 -8.5t-11 -6.5t-6.5 -5.5t-4.5 -7t-2 -8.5l-1 -9q-2 -15 2 -20.5t17 -5.5h26q13 0 18.5 5t7.5 19l2 15h34l-2 -14q-4 -29 -16 -42
t-41 -13h-38q-30 0 -40.5 11t-5.5 38l2 12q3 21 11.5 29t35.5 23q12 5 34 18q-17 0 -50.5 -0.5t-43.5 -0.5q-69 0 -92.5 24.5t-14.5 89.5l46 328q9 65 39 89.5t100 24.5zM207 501q-30 0 -47 -12.5t-22 -48.5l-21 -151h158l21 151q5 36 -8 48.5t-42 12.5h-39z" />
    <glyph glyph-name="Ecaron" unicode="&#x11a;" horiz-adv-x="342" 
d="M229 744l-55 82h43l47 -55l63 55h43l-77 -82h-64zM130 330l-38 -273h201l-8 -57h-268l98 700h268l-8 -57h-201l-36 -256h188l-8 -57h-188z" />
    <glyph glyph-name="ecaron" unicode="&#x11b;" horiz-adv-x="370" 
d="M208 597l-54 82h43l47 -55l63 55h43l-78 -82h-64zM214 554h39q69 0 92.5 -24.5t14.5 -89.5l-29 -205l-222 -1l-17 -121q-5 -37 8.5 -49.5t43.5 -12.5h139l-8 -51q-100 -2 -139 -2q-69 0 -92.5 24.5t-14.5 89.5l46 328q9 65 39 89.5t100 24.5zM207 501q-30 0 -47 -12.5
t-22 -48.5l-21 -151h158l21 151q5 36 -8 48.5t-42 12.5h-39z" />
    <glyph glyph-name="gcircumflex" unicode="&#x11d;" 
d="M76 451q7 49 41 76t81 27h33l149 -2l-77 -546q-9 -70 -38 -92t-101 -22l-129 3l7 50h132q30 0 45 11.5t21 48.5l4 27h-127q-47 0 -70 24t-16 72zM251 87l58 412h-115q-22 0 -37 -14t-18 -37l-44 -310q-3 -23 8 -37t33 -14h115zM150 597l77 82h64l55 -82h-43l-47 55
l-63 -55h-43z" />
    <glyph glyph-name="Gbreve" unicode="&#x11e;" horiz-adv-x="397" 
d="M253 702l143 -2l-8 -55h-143q-22 0 -30.5 -1t-22.5 -7t-20.5 -22t-10.5 -43l-63 -448q-6 -44 10 -56.5t54 -12.5h34q26 0 40.5 3.5t27.5 19t17 46.5l24 174h-105l9 59h171l-32 -226q-11 -80 -46 -106.5t-114 -26.5h-34q-78 0 -105.5 26.5t-16.5 106.5l61 438
q11 80 46.5 106.5t113.5 26.5zM294 743h-38q-42 0 -57 16.5t-10 60.5l1 10h40l-2 -14q-6 -40 33 -40h36q39 0 45 40l2 14h39l-1 -10q-5 -44 -25.5 -60.5t-62.5 -16.5z" />
    <glyph glyph-name="gbreve" unicode="&#x11f;" 
d="M76 451q7 49 41 76t81 27h33l149 -2l-77 -546q-9 -70 -38 -92t-101 -22l-129 3l7 50h132q30 0 45 11.5t21 48.5l4 27h-127q-47 0 -70 24t-16 72zM251 87l58 412h-115q-22 0 -37 -14t-18 -37l-44 -310q-3 -23 8 -37t33 -14h115zM262 596h-38q-42 0 -57 16.5t-10 60.5l1 10
h40l-2 -14q-6 -40 33 -40h36q39 0 45 40l2 14h39l-1 -10q-5 -44 -25.5 -60.5t-62.5 -16.5z" />
    <glyph glyph-name="Gdotaccent" unicode="&#x120;" horiz-adv-x="397" 
d="M253 702l143 -2l-8 -55h-143q-22 0 -30.5 -1t-22.5 -7t-20.5 -22t-10.5 -43l-63 -448q-6 -44 10 -56.5t54 -12.5h34q26 0 40.5 3.5t27.5 19t17 46.5l24 174h-105l9 59h171l-32 -226q-11 -80 -46 -106.5t-114 -26.5h-34q-78 0 -105.5 26.5t-16.5 106.5l61 438
q11 80 46.5 106.5t113.5 26.5zM256 763l9 65h44l-9 -65h-44z" />
    <glyph glyph-name="gdotaccent" unicode="&#x121;" 
d="M76 451q7 49 41 76t81 27h33l149 -2l-77 -546q-9 -70 -38 -92t-101 -22l-129 3l7 50h132q30 0 45 11.5t21 48.5l4 27h-127q-47 0 -70 24t-16 72zM251 87l58 412h-115q-22 0 -37 -14t-18 -37l-44 -310q-3 -23 8 -37t33 -14h115zM224 616l9 65h44l-9 -65h-44z" />
    <glyph glyph-name="Gcommaaccent" unicode="&#x122;" horiz-adv-x="397" 
d="M135 -112l10 75h45l-10 -68q-3 -21 -9.5 -37t-13 -25t-22.5 -27l-17 10q2 4 6.5 9.5t6 8t4.5 7t3.5 6.5t2.5 6t3 7t2 7.5l2 9t2 11.5h-15zM253 702l143 -2l-8 -55h-143q-22 0 -30.5 -1t-22.5 -7t-20.5 -22t-10.5 -43l-63 -448q-6 -44 10 -56.5t54 -12.5h34q26 0 40.5 3.5
t27.5 19t17 46.5l24 174h-105l9 59h171l-32 -226q-11 -80 -46 -106.5t-114 -26.5h-34q-78 0 -105.5 26.5t-16.5 106.5l61 438q11 80 46.5 106.5t113.5 26.5z" />
    <glyph glyph-name="gcommaaccent" unicode="&#x123;" 
d="M76 451q7 49 41 76t81 27h33l149 -2l-77 -546q-9 -70 -38 -92t-101 -22l-129 3l7 50h132q30 0 45 11.5t21 48.5l4 27h-127q-47 0 -70 24t-16 72zM251 87l58 412h-115q-22 0 -37 -14t-18 -37l-44 -310q-3 -23 8 -37t33 -14h115zM275 673l-11 -75h-44l10 68q4 30 13 47
t31 42l17 -10l-7 -10.5t-6.5 -9t-4.5 -7t-4 -7.5t-3 -6.5t-2.5 -9t-1.5 -10t-2 -12.5h15z" />
    <glyph glyph-name="Hbar" unicode="&#x126;" horiz-adv-x="417" 
d="M48 551l7 44h49l14 105h67l-14 -105h183l14 105h67l-14 -105h49l-7 -44h-49l-77 -551h-67l46 324h-183l-46 -324h-67l77 551h-49zM141 387h183l23 164h-183z" />
    <glyph glyph-name="hbar" unicode="&#x127;" horiz-adv-x="380" 
d="M57 611l5 37h47l10 68h63l-10 -68h90l-5 -37h-90l-8 -59h124q100 0 86 -94l-64 -458h-63l63 448q3 23 -8 37t-33 14h-113l-70 -499h-63l86 611h-47z" />
    <glyph glyph-name="Imacron" unicode="&#x12a;" horiz-adv-x="161" 
d="M17 0l98 700h67l-98 -700h-67zM66 767l5 38h186l-5 -38h-186z" />
    <glyph glyph-name="imacron" unicode="&#x12b;" horiz-adv-x="154" 
d="M16 0l78 552h63l-78 -552h-63zM42 620l5 38h186l-5 -38h-186z" />
    <glyph glyph-name="Ibreve" unicode="&#x12c;" horiz-adv-x="161" 
d="M17 0l98 700h67l-98 -700h-67zM175 743h-38q-42 0 -57 16.5t-10 60.5l1 10h41l-2 -14q-6 -40 33 -40h36q39 0 45 40l2 14h38l-1 -10q-5 -44 -25.5 -60.5t-62.5 -16.5z" />
    <glyph glyph-name="ibreve" unicode="&#x12d;" horiz-adv-x="154" 
d="M16 0l78 552h63l-78 -552h-63zM151 596h-38q-42 0 -57 16.5t-10 60.5l1 10h40l-2 -14q-6 -40 33 -40h36q39 0 45 40l2 14h39l-1 -10q-5 -44 -25.5 -60.5t-62.5 -16.5z" />
    <glyph glyph-name="Iogonek" unicode="&#x12e;" horiz-adv-x="161" 
d="M17 0l99 700h67l-99 -700h-11l-53 -30q-5 -4 -13 -8.5t-11 -6.5t-6.5 -5.5t-4.5 -7t-2 -8.5l-1 -9q-2 -15 2 -20.5t17 -5.5h26q13 0 18.5 5t7.5 19l2 15h34l-2 -14q-4 -29 -16 -42t-41 -13h-38q-30 0 -40.5 11t-5.5 38l2 12q3 21 11.5 29t35.5 23q12 5 34 18h-12z" />
    <glyph glyph-name="iogonek" unicode="&#x12f;" horiz-adv-x="154" 
d="M16 0l78 552h63l-78 -552h-6l-53 -30q-5 -4 -13 -8.5t-11 -6.5t-6.5 -5.5t-4.5 -7t-2 -8.5l-1 -9q-2 -15 2 -20.5t17 -5.5h26q13 0 18.5 5t7.5 19l2 15h34l-2 -14q-4 -29 -16 -42t-41 -13h-38q-30 0 -40.5 11t-5.5 38l2 12q3 21 11.5 29t35.5 23q12 5 34 18h-13zM101 613
l11 83h66l-11 -83h-66z" />
    <glyph glyph-name="Idotaccent" unicode="&#x130;" horiz-adv-x="161" 
d="M17 0l98 700h67l-98 -700h-67zM136 763l9 65h44l-9 -65h-44z" />
    <glyph glyph-name="dotlessi" unicode="&#x131;" horiz-adv-x="154" 
d="M16 0l78 552h63l-78 -552h-63z" />
    <glyph glyph-name="Kcommaaccent" unicode="&#x136;" horiz-adv-x="399" 
d="M134 -112l11 75h44l-10 -68q-4 -30 -13 -47t-31 -42l-17 10l7 10.5t6.5 9t4.5 7t4 7.5t3 6.5t2.5 9t1.5 10t2 12.5h-15zM128 313l-44 -313h-67l98 700h67l-45 -324h85l154 324h70l-169 -351l85 -349h-73l-72 313h-89z" />
    <glyph glyph-name="kcommaaccent" unicode="&#x137;" horiz-adv-x="356" 
d="M113 -112l11 75h44l-10 -68q-4 -30 -13 -47t-31 -42l-17 10l7 10.5t6.5 9t4.5 7t4 7.5t3 6.5t2.5 9t1.5 10t2 12.5h-15zM255 0l-66 269h-73l-38 -269h-63l101 716h63l-55 -386h72l128 222h64l-143 -252l74 -300h-64z" />
    <glyph glyph-name="Lacute" unicode="&#x139;" horiz-adv-x="310" 
d="M130 744l58 82h66l-81 -82h-43zM17 0l98 700h67l-90 -643h186l-8 -57h-253z" />
    <glyph glyph-name="lacute" unicode="&#x13a;" horiz-adv-x="153" 
d="M128 740l59 82h66l-82 -82h-43zM15 0l101 716h63l-101 -716h-63z" />
    <glyph glyph-name="Lcommaaccent" unicode="&#x13b;" horiz-adv-x="310" 
d="M103 -112l11 75h44l-10 -68q-4 -30 -13 -47t-31 -42l-17 10l7 10.5t6.5 9t4.5 7t4 7.5t3 6.5t2.5 9t1.5 10t2 12.5h-15zM17 0l98 700h67l-90 -643h186l-8 -57h-253z" />
    <glyph glyph-name="lcommaaccent" unicode="&#x13c;" horiz-adv-x="153" 
d="M9 -112l11 75h44l-10 -68q-4 -30 -13 -47t-31 -42l-17 10q3 5 9 13.5t7.5 11t5 8.5t4.5 10.5t2.5 11.5t2.5 17h-15zM15 0l100 716h63l-100 -716h-63z" />
    <glyph glyph-name="Lcaron" unicode="&#x13d;" horiz-adv-x="310" 
d="M270 627l11 74h40l-10 -69q-3 -19 -10 -34t-13 -22.5t-20 -22.5l-12 10q2 3 6 7.5t5 6.5t4 5t3.5 5t2 4.5t2.5 5t2 5.5t1.5 7l1 8t1.5 10h-15zM17 0l98 700h67l-90 -643h186l-8 -57h-253z" />
    <glyph glyph-name="lcaron" unicode="&#x13e;" horiz-adv-x="153" 
d="M217 642l11 74h40l-10 -69q-3 -19 -10 -34t-13 -22.5t-20 -22.5l-12 10q2 3 6 7.5t5 6.5t4 5t3.5 5t2 4.5t2.5 5t2 5.5t1.5 7l1 8t1.5 10h-15zM15 0l101 716h63l-101 -716h-63z" />
    <glyph glyph-name="Ldot" unicode="&#x13f;" horiz-adv-x="310" 
d="M17 0l98 700h67l-90 -643h186l-8 -57h-253zM204 331l9 65h44l-9 -65h-44z" />
    <glyph glyph-name="ldot" unicode="&#x140;" horiz-adv-x="193" 
d="M15 0l101 716h63l-101 -716h-63zM158 330l10 65h44l-10 -65h-44z" />
    <glyph glyph-name="Lslash" unicode="&#x141;" horiz-adv-x="318" 
d="M13 279l8 57l55 27l47 337h67l-42 -300l84 42l-8 -57l-84 -42l-40 -286h186l-8 -57h-253l43 306z" />
    <glyph glyph-name="lslash" unicode="&#x142;" horiz-adv-x="160" 
d="M10 288l8 57l52 30l48 341h63l-42 -302l54 32l-9 -64l-54 -29l-49 -353h-63l44 316z" />
    <glyph glyph-name="Nacute" unicode="&#x143;" horiz-adv-x="423" 
d="M264 744l58 82h66l-81 -82h-43zM115 700h79l108 -541h1l76 541h65l-98 -700h-78l-108 530h-2l-74 -530h-67z" />
    <glyph glyph-name="nacute" unicode="&#x144;" horiz-adv-x="376" 
d="M239 0l63 448q3 23 -8 37t-33 14h-113l-70 -499h-63l78 552q91 2 149 2h38q100 0 86 -96l-64 -458h-63zM203 597l58 82h66l-81 -82h-43z" />
    <glyph glyph-name="Ncommaaccent" unicode="&#x145;" horiz-adv-x="423" 
d="M137 -112l11 75h44l-10 -68q-4 -30 -13 -47t-31 -42l-17 10l7 10.5t6.5 9t4.5 7t4 7.5t3 6.5t2.5 9t1.5 10t2 12.5h-15zM115 700h79l108 -541h1l76 541h65l-98 -700h-78l-108 530h-2l-74 -530h-67z" />
    <glyph glyph-name="ncommaaccent" unicode="&#x146;" horiz-adv-x="376" 
d="M239 0l63 448q3 23 -8 37t-33 14h-113l-70 -499h-63l78 552q91 2 149 2h38q100 0 86 -96l-64 -458h-63zM122 -112l11 75h44l-10 -68q-4 -30 -13 -47t-31 -42l-17 10l7 10.5t6.5 9t4.5 7t4 7.5t3 6.5t2.5 9t1.5 10t2 12.5h-15z" />
    <glyph glyph-name="Ncaron" unicode="&#x147;" horiz-adv-x="423" 
d="M256 744l-55 82h43l47 -55l63 55h43l-77 -82h-64zM115 700h79l108 -541h1l76 541h65l-98 -700h-78l-108 530h-2l-74 -530h-67z" />
    <glyph glyph-name="ncaron" unicode="&#x148;" horiz-adv-x="376" 
d="M239 0l63 448q3 23 -8 37t-33 14h-113l-70 -499h-63l78 552q91 2 149 2h38q100 0 86 -96l-64 -458h-63zM211 597l-55 82h43l48 -55l62 55h43l-77 -82h-64z" />
    <glyph glyph-name="Omacron" unicode="&#x14c;" horiz-adv-x="409" 
d="M191 767l5 38h186l-5 -38h-186zM253 702h41q78 0 105.5 -26.5t16.5 -106.5l-61 -438q-11 -80 -46.5 -106.5t-113.5 -26.5h-41q-78 0 -105.5 26.5t-16.5 106.5l61 438q11 80 46.5 106.5t113.5 26.5zM164 55h38q39 0 59.5 14t26.5 59l63 444q6 45 -10.5 59t-55.5 14h-38
q-39 0 -59.5 -14t-26.5 -59l-63 -444q-6 -45 10.5 -59t55.5 -14z" />
    <glyph glyph-name="omacron" unicode="&#x14d;" horiz-adv-x="374" 
d="M153 620l5 38h186l-5 -38h-186zM214 554h43q70 0 93 -24t14 -90l-46 -328q-9 -65 -39.5 -89.5t-99.5 -24.5h-43q-69 0 -92.5 24.5t-14.5 89.5l46 328q9 65 39 89.5t100 24.5zM144 51h43q30 0 46.5 12.5t21.5 49.5l46 327q6 37 -7 49.5t-43 12.5h-44q-30 0 -46 -12.5
t-22 -49.5l-47 -327q-6 -37 8 -49.5t44 -12.5z" />
    <glyph glyph-name="Obreve" unicode="&#x14e;" horiz-adv-x="409" 
d="M253 702h41q78 0 105.5 -26.5t16.5 -106.5l-61 -438q-11 -80 -46.5 -106.5t-113.5 -26.5h-41q-78 0 -105.5 26.5t-16.5 106.5l61 438q11 80 46.5 106.5t113.5 26.5zM164 55h38q39 0 59.5 14t26.5 59l63 444q6 45 -10.5 59t-55.5 14h-38q-39 0 -59.5 -14t-26.5 -59
l-63 -444q-6 -45 10.5 -59t55.5 -14zM300 743h-38q-42 0 -57.5 16.5t-10.5 60.5l1 10h41l-2 -14q-6 -40 33 -40h36q39 0 45 40l2 14h38l-1 -10q-5 -44 -25 -60.5t-62 -16.5z" />
    <glyph glyph-name="obreve" unicode="&#x14f;" horiz-adv-x="374" 
d="M214 554h43q70 0 93 -24t14 -90l-46 -328q-9 -65 -39.5 -89.5t-99.5 -24.5h-43q-69 0 -92.5 24.5t-14.5 89.5l46 328q9 65 39 89.5t100 24.5zM144 51h43q30 0 46.5 12.5t21.5 49.5l46 327q6 37 -7 49.5t-43 12.5h-44q-30 0 -46 -12.5t-22 -49.5l-47 -327q-6 -37 8 -49.5
t44 -12.5zM262 596h-38q-42 0 -57 16.5t-10 60.5l1 10h41l-2 -14q-6 -40 33 -40h36q39 0 45 40l2 14h38l-1 -10q-5 -44 -25.5 -60.5t-62.5 -16.5z" />
    <glyph glyph-name="Ohungarumlaut" unicode="&#x150;" horiz-adv-x="409" 
d="M214 744l70 82h57l-84 -82h-43zM303 744l70 82h67l-94 -82h-43zM253 702h41q78 0 105.5 -26.5t16.5 -106.5l-61 -438q-11 -80 -46.5 -106.5t-113.5 -26.5h-41q-78 0 -105.5 26.5t-16.5 106.5l61 438q11 80 46.5 106.5t113.5 26.5zM164 55h38q39 0 59.5 14t26.5 59l63 444
q6 45 -10.5 59t-55.5 14h-38q-39 0 -59.5 -14t-26.5 -59l-63 -444q-6 -45 10.5 -59t55.5 -14z" />
    <glyph glyph-name="ohungarumlaut" unicode="&#x151;" horiz-adv-x="374" 
d="M176 597l71 82h57l-85 -82h-43zM265 597l71 82h67l-95 -82h-43zM214 554h43q70 0 93 -24t14 -90l-46 -328q-9 -65 -39.5 -89.5t-99.5 -24.5h-43q-69 0 -92.5 24.5t-14.5 89.5l46 328q9 65 39 89.5t100 24.5zM144 51h43q30 0 46.5 12.5t21.5 49.5l46 327q6 37 -7 49.5
t-43 12.5h-44q-30 0 -46 -12.5t-22 -49.5l-47 -327q-6 -37 8 -49.5t44 -12.5z" />
    <glyph glyph-name="OE" unicode="&#x152;" horiz-adv-x="566" 
d="M515 0h-361q-77 0 -105 29.5t-16 110.5l59 421q12 81 47.5 110t112.5 29h361l-8 -57h-201l-36 -256h188l-8 -57h-188l-38 -273h201zM245 646q-37 0 -57.5 -15t-26.5 -60l-62 -442q-6 -45 10.5 -60t52.5 -15h94l83 592h-94z" />
    <glyph glyph-name="oe" unicode="&#x153;" horiz-adv-x="596" 
d="M214 554h43q63 0 89 -20q30 20 93 20h39q69 0 92.5 -24.5t14.5 -89.5l-29 -205l-221 -1l-17 -122l-2 -16q0 -26 13.5 -35.5t39.5 -9.5h139l-8 -51q-100 -2 -139 -2q-64 0 -88 20q-31 -20 -94 -20h-43q-69 0 -92.5 24.5t-14.5 89.5l46 328q9 65 39 89.5t100 24.5zM144 51
h43q26 0 42 9.5t23 35.5l2 16l46 328l3 16q1 28 -12 37t-40 9h-44q-30 0 -46 -12.5t-22 -49.5l-47 -327q-6 -37 8 -49.5t44 -12.5zM432 501q-54 0 -66 -45q0 -6 -2 -16l-21 -151h157l21 151q5 36 -8 48.5t-42 12.5h-39z" />
    <glyph glyph-name="Racute" unicode="&#x154;" horiz-adv-x="378" 
d="M232 744l58 82h66l-81 -82h-43zM16 0l98 700h178q72 0 96.5 -24t14.5 -95l-20 -139q-13 -92 -76 -101q30 -7 42 -31.5t4 -78.5l-32 -231h-66l34 241q10 68 -54 68l-108 1l-44 -310h-67zM173 643l-39 -277h111q31 0 48 11.5t22 48.5l22 159q5 37 -9 47.5t-46 10.5h-109z
" />
    <glyph glyph-name="racute" unicode="&#x155;" horiz-adv-x="256" 
d="M156 597l58 82h66l-81 -82h-43zM15 0l65 462q14 92 99 92h29l94 -4l-6 -46q-87 -3 -106 -4q-28 -1 -36 -11.5t-13 -42.5l-63 -446h-63z" />
    <glyph glyph-name="Rcommaaccent" unicode="&#x156;" horiz-adv-x="378" 
d="M129 -112l11 75h44l-10 -68q-4 -30 -13 -47t-31 -42l-17 10l7 10.5t6.5 9t4.5 7t4 7.5t3 6.5t2.5 9t1.5 10t2 12.5h-15zM16 0l98 700h178q72 0 96.5 -24t14.5 -95l-20 -139q-13 -92 -76 -101q30 -7 42 -31.5t4 -78.5l-32 -231h-66l34 241q10 68 -54 68l-108 1l-44 -310
h-67zM173 643l-39 -277h111q31 0 48 11.5t22 48.5l22 159q5 37 -9 47.5t-46 10.5h-109z" />
    <glyph glyph-name="rcommaaccent" unicode="&#x157;" horiz-adv-x="256" 
d="M10 -112l11 75h44l-10 -68q-4 -30 -13 -47t-31 -42l-17 10q3 5 9 13.5t7.5 11t5 8.5t4.5 10.5t2.5 11.5t2.5 17h-15zM15 0l65 462q12 92 99 92h29l94 -4l-6 -46q-87 -3 -106 -4q-28 -1 -36 -11.5t-13 -42.5l-63 -446h-63z" />
    <glyph glyph-name="Rcaron" unicode="&#x158;" horiz-adv-x="378" 
d="M233 744l-55 82h43l47 -55l63 55h43l-77 -82h-64zM16 0l98 700h178q72 0 96.5 -24t14.5 -95l-20 -139q-13 -92 -76 -101q30 -7 42 -31.5t4 -78.5l-32 -231h-66l34 241q10 68 -54 68l-108 1l-44 -310h-67zM173 643l-39 -277h111q31 0 48 11.5t22 48.5l22 159q5 37 -9 47.5
t-46 10.5h-109z" />
    <glyph glyph-name="rcaron" unicode="&#x159;" horiz-adv-x="256" 
d="M158 597l-55 82h43l48 -55l62 55h43l-77 -82h-64zM15 0l65 462q14 92 99 92h29l94 -4l-6 -46q-87 -3 -106 -4q-28 -1 -36 -11.5t-13 -42.5l-63 -446h-63z" />
    <glyph glyph-name="Sacute" unicode="&#x15a;" horiz-adv-x="386" 
d="M239 744l58 82h66l-81 -82h-43zM246 702l156 -2l-7 -55h-157q-38 0 -58 -13t-26 -58l-11 -78q-4 -29 4.5 -46t19.5 -22.5t41 -17.5l70 -26q26 -9 36.5 -14t25.5 -18t18 -33.5t-1 -51.5l-19 -136q-11 -80 -46 -106.5t-113 -26.5l-171 2l8 55h171q39 0 59 13.5t26 58.5
l17 124q-1 10 1 17t-1 14t-3.5 11t-6 9t-7.5 7t-9 6t-10.5 5.5t-11.5 5t-13 5.5l-73 26q-27 11 -37 16t-26 18.5t-19.5 34t0.5 50.5l13 93q11 80 46.5 106.5t113.5 26.5z" />
    <glyph glyph-name="sacute" unicode="&#x15b;" horiz-adv-x="332" 
d="M185 597l58 82h66l-81 -82h-43zM200 554l132 -2l-8 -51h-132q-31 0 -47 -10.5t-21 -46.5l-7 -54q1 -7 -0.5 -11t1.5 -8.5t3 -7t4.5 -6.5t6 -5.5t7.5 -4.5l9 -4.5t9.5 -4.5t10.5 -5l65 -26q26 -10 39.5 -19t23.5 -29t6 -50l-13 -94q-9 -65 -39.5 -90.5t-99.5 -25.5l-149 1
l7 52h149q30 0 46.5 12t21.5 49l12 86q5 35 -29 52q-3 1 -22 9l-65 28q-44 19 -56 34q-18 22 -12 63l8 55q10 66 40 90t99 24z" />
    <glyph glyph-name="Scedilla" unicode="&#x15e;" horiz-adv-x="386" 
d="M246 702l156 -2l-7 -55h-157q-38 0 -58 -13t-26 -58l-11 -78q-3 -22 -1 -35.5t15 -23.5t19.5 -13.5t32.5 -13.5l69 -25q49 -20 62 -33q25 -28 17 -85l-19 -136q-11 -80 -46 -106.5t-113 -26.5h-4l-40 -112h-50l54 112l-131 2l8 55h171q39 0 59 13.5t26 58.5l17 124
q-1 10 1 17t-1 14t-3.5 11t-6 9t-7.5 7t-9 6t-10.5 5.5t-11.5 5t-13 5.5l-73 26q-27 11 -37 16t-26 18.5t-19.5 34t0.5 50.5l13 93q11 80 46.5 106.5t113.5 26.5z" />
    <glyph glyph-name="scedilla" unicode="&#x15f;" horiz-adv-x="332" 
d="M200 554l132 -2l-8 -51h-132q-31 0 -47 -10.5t-21 -46.5l-7 -54q1 -7 -0.5 -11t1.5 -8.5t3 -7t4.5 -6.5t6 -5.5t7.5 -4.5l9 -4.5t9.5 -4.5t10.5 -5l65 -26q26 -10 39.5 -19t23.5 -29t6 -50l-13 -94q-9 -64 -38.5 -89.5t-93.5 -26.5l-41 -113h-50l54 113l-119 1l7 52h149
q30 0 46.5 12t21.5 49l12 86q5 35 -29 52q-3 1 -22 9l-65 28q-2 1 -7 3q-24 10 -35.5 17.5t-20.5 27t-5 49.5l8 55q10 66 40 90t99 24z" />
    <glyph glyph-name="Scaron" unicode="&#x160;" horiz-adv-x="386" 
d="M237 744l-55 82h43l47 -55l63 55h43l-77 -82h-64zM246 702l156 -2l-7 -55h-157q-38 0 -58 -13t-26 -58l-11 -78q-4 -29 4.5 -46t19.5 -22.5t41 -17.5l70 -26q26 -9 36.5 -14t25.5 -18t18 -33.5t-1 -51.5l-19 -136q-11 -80 -46 -106.5t-113 -26.5l-171 2l8 55h171
q39 0 59 13.5t26 58.5l17 124q-1 10 1 17t-1 14t-3.5 11t-6 9t-7.5 7t-9 6t-10.5 5.5t-11.5 5t-13 5.5l-73 26q-27 11 -37 16t-26 18.5t-19.5 34t0.5 50.5l13 93q11 80 46.5 106.5t113.5 26.5z" />
    <glyph glyph-name="scaron" unicode="&#x161;" horiz-adv-x="332" 
d="M192 597l-55 82h43l48 -55l62 55h43l-77 -82h-64zM200 554l132 -2l-8 -51h-132q-31 0 -47 -10.5t-21 -46.5l-7 -54q1 -7 -0.5 -11t1.5 -8.5t3 -7t4.5 -6.5t6 -5.5t7.5 -4.5l9 -4.5t9.5 -4.5t10.5 -5l65 -26q26 -10 39.5 -19t23.5 -29t6 -50l-13 -94q-9 -65 -39.5 -90.5
t-99.5 -25.5l-149 1l7 52h149q30 0 46.5 12t21.5 49l12 86q5 35 -29 52q-3 1 -22 9l-65 28q-44 19 -56 34q-18 22 -12 63l8 55q10 66 40 90t99 24z" />
    <glyph glyph-name="Tcommaaccent" unicode="&#x162;" horiz-adv-x="361" 
d="M112 -112l10 75h45l-10 -68q-3 -21 -9.5 -37t-13 -25t-22.5 -27l-16 10q3 5 9 13.5t7.5 11t5 8.5t4.5 10.5t2.5 11.5t2.5 17h-15zM274 643l-90 -643h-67l90 643h-140l8 57h346l-8 -57h-139z" />
    <glyph glyph-name="tcommaaccent" unicode="&#x163;" horiz-adv-x="212" 
d="M60 -112l10 75h45l-10 -68q-3 -21 -9.5 -37t-13 -25t-22.5 -27l-16 10q3 4 7 10.5t5.5 9t4.5 7t4 7t3 7t3 9t2 10t2 12.5h-15zM249 552l-7 -53h-83l-57 -405q-3 -20 2.5 -30t24.5 -10h57l-8 -54l-57 -2q-56 -1 -73.5 18.5t-9.5 73.5l57 409h-41l7 53h42l17 124h63
l-17 -124h83z" />
    <glyph glyph-name="Tcaron" unicode="&#x164;" horiz-adv-x="361" 
d="M223 744l-54 82h43l47 -55l63 55h43l-78 -82h-64zM274 643l-90 -643h-67l90 643h-140l8 57h346l-8 -57h-139z" />
    <glyph glyph-name="tcaron" unicode="&#x165;" horiz-adv-x="215" 
d="M222 667l11 74h40l-10 -69q-3 -19 -10 -34t-13 -22.5t-20 -22.5l-12 10q2 3 6 7.5t5 6.5t4 5t3.5 5t2 4.5t2.5 5t2 5.5t1.5 7l1 8t1.5 10h-15zM249 552l-7 -53h-83l-57 -405q-3 -20 2.5 -30t24.5 -10h57l-8 -54l-57 -2q-56 -1 -73.5 18.5t-9.5 73.5l57 409h-41l7 53h42
l17 124h63l-17 -124h83z" />
    <glyph glyph-name="Umacron" unicode="&#x16a;" horiz-adv-x="409" 
d="M112 700h66l-80 -571q-6 -46 7.5 -60t50.5 -14h54q36 0 54 14.5t24 59.5l80 571h67l-80 -569q-11 -80 -46.5 -106.5t-113.5 -26.5h-41q-78 0 -105.5 26.5t-16.5 106.5zM191 767l5 38h186l-5 -38h-186z" />
    <glyph glyph-name="umacron" unicode="&#x16b;" horiz-adv-x="374" 
d="M153 552l-63 -447q-3 -23 8 -37t33 -14h113l70 498h63l-78 -552q-125 -2 -148 -2h-39q-47 0 -70.5 24t-16.5 73l64 457h64zM152 620l6 38h186l-6 -38h-186z" />
    <glyph glyph-name="Ubreve" unicode="&#x16c;" horiz-adv-x="409" 
d="M112 700h66l-80 -571q-6 -46 7.5 -60t50.5 -14h54q36 0 54 14.5t24 59.5l80 571h67l-80 -569q-11 -80 -46.5 -106.5t-113.5 -26.5h-41q-78 0 -105.5 26.5t-16.5 106.5zM300 743h-38q-42 0 -57 16.5t-10 60.5l1 10h40l-2 -14q-6 -40 33 -40h36q39 0 45 40l2 14h39l-1 -10
q-5 -44 -25.5 -60.5t-62.5 -16.5z" />
    <glyph glyph-name="ubreve" unicode="&#x16d;" horiz-adv-x="374" 
d="M153 552l-63 -447q-3 -23 8 -37t33 -14h113l70 498h63l-78 -552q-125 -2 -148 -2h-39q-47 0 -70.5 24t-16.5 73l64 457h64zM261 596h-38q-42 0 -57 16.5t-10 60.5l1 10h40l-2 -14q-6 -40 33 -40h36q39 0 45 40l2 14h39l-1 -10q-5 -44 -25.5 -60.5t-62.5 -16.5z" />
    <glyph glyph-name="Uring" unicode="&#x16e;" horiz-adv-x="409" 
d="M289 857h15q33 0 43.5 -12t5.5 -42l-2 -13q-4 -30 -17.5 -42t-46.5 -12h-15q-32 0 -43 12t-7 42l2 13q5 30 19 42t46 12zM300 835h-13q-21 0 -28 -6t-10 -24l-2 -16q-2 -19 3.5 -25t25.5 -6h13q20 0 28 6t10 25l2 16q3 18 -2.5 24t-26.5 6zM112 700h66l-80 -571
q-6 -46 7.5 -60t50.5 -14h54q36 0 54 14.5t24 59.5l80 571h67l-80 -569q-11 -80 -46.5 -106.5t-113.5 -26.5h-41q-78 0 -105.5 26.5t-16.5 106.5z" />
    <glyph glyph-name="uring" unicode="&#x16f;" horiz-adv-x="374" 
d="M153 552l-63 -447q-3 -23 8 -37t33 -14h113l70 498h63l-78 -552q-125 -2 -148 -2h-39q-47 0 -70.5 24t-16.5 73l64 457h64zM250 710h15q33 0 43.5 -12t5.5 -42l-2 -13q-5 -30 -18 -42t-46 -12h-15q-33 0 -44 12t-6 42l2 13q5 30 19 42t46 12zM261 688h-13q-21 0 -28.5 -6
t-9.5 -24l-2 -16q-2 -19 3.5 -25t25.5 -6h13q20 0 27 6t11 25l3 16q3 18 -2.5 24t-27.5 6z" />
    <glyph glyph-name="Uhungarumlaut" unicode="&#x170;" horiz-adv-x="409" 
d="M112 700h66l-80 -571q-6 -46 7.5 -60t50.5 -14h54q36 0 54 14.5t24 59.5l80 571h67l-80 -569q-11 -80 -46.5 -106.5t-113.5 -26.5h-41q-78 0 -105.5 26.5t-16.5 106.5zM209 744l70 82h57l-84 -82h-43zM298 744l70 82h67l-94 -82h-43z" />
    <glyph glyph-name="uhungarumlaut" unicode="&#x171;" horiz-adv-x="374" 
d="M153 552l-63 -447q-3 -23 8 -37t33 -14h113l70 498h63l-78 -552q-125 -2 -148 -2h-39q-47 0 -70.5 24t-16.5 73l64 457h64zM262 597l70 82h67l-94 -82h-43zM173 597l70 82h57l-84 -82h-43z" />
    <glyph glyph-name="Uogonek" unicode="&#x172;" horiz-adv-x="409" 
d="M112 700h66l-80 -571q-6 -46 7.5 -60t50.5 -14h54q36 0 54 14.5t24 59.5l80 571h67l-80 -569q-10 -74 -41 -102t-95 -30v-2l-53 -30q-4 -2 -10 -6t-8.5 -5.5t-6 -4t-5 -4t-3 -4.5t-2.5 -5.5t-2 -6.5l-2 -9q-5 -26 20 -26h26q13 0 18 4.5t7 19.5l2 15h34l-2 -14
q-4 -29 -16 -42t-41 -13h-38q-30 0 -40.5 11t-5.5 38l2 12q3 21 11.5 29t35.5 23q3 1 36 19h-22q-78 0 -105.5 26.5t-16.5 106.5z" />
    <glyph glyph-name="uogonek" unicode="&#x173;" horiz-adv-x="374" 
d="M153 552l-63 -447q-3 -23 8 -37t33 -14h113l70 498h63l-78 -553l-53 -30q-4 -2 -10 -6t-8.5 -5.5t-6 -4t-5 -4t-3 -4.5t-2.5 -5.5t-2 -6.5l-2 -9q-5 -26 20 -26h26q13 0 18 4.5t7 19.5l2 15h34l-2 -14q-4 -29 -15.5 -42t-40.5 -13h-38q-30 0 -41 11t-6 38l2 12
q3 21 11.5 29t35.5 23q5 2 35 18q-23 0 -61.5 -0.5t-42.5 -0.5h-39q-47 0 -70.5 24t-16.5 73l64 457h64z" />
    <glyph glyph-name="Wcircumflex" unicode="&#x174;" horiz-adv-x="580" 
d="M266 744l77 82h64l55 -82h-43l-48 55l-62 -55h-43zM79 700h69l-10 -637h8l167 637h91l-13 -637h9l169 637h68l-185 -700h-133l23 574h-2l-139 -574h-133z" />
    <glyph glyph-name="wcircumflex" unicode="&#x175;" horiz-adv-x="522" 
d="M217 597l78 82h64l54 -82h-43l-47 55l-63 -55h-43zM291 0l-2 410h-1l-116 -410h-114l-2 552h67l-2 -492h9l141 492h76l4 -492h8l136 492h67l-158 -552h-113z" />
    <glyph glyph-name="Ycircumflex" unicode="&#x176;" horiz-adv-x="390" 
d="M132 0l39 283l-94 417h67l70 -339l168 339h67l-212 -417l-39 -283h-66zM172 744l78 82h64l54 -82h-43l-47 55l-63 -55h-43z" />
    <glyph glyph-name="ycircumflex" unicode="&#x177;" horiz-adv-x="339" 
d="M74 3l-30 549h68l23 -486h22l153 486h67l-215 -677h-60l40 128h-68zM127 597l78 82h64l54 -82h-43l-47 55l-63 -55h-43z" />
    <glyph glyph-name="Ydieresis" unicode="&#x178;" horiz-adv-x="390" 
d="M132 0l39 283l-94 417h67l70 -339l168 339h67l-212 -417l-39 -283h-66zM186 755l10 71h44l-10 -71h-44zM314 755l10 71h44l-10 -71h-44z" />
    <glyph glyph-name="Zacute" unicode="&#x179;" horiz-adv-x="335" 
d="M205 744l58 82h66l-81 -82h-43zM86 643l8 57h287l-8 -57l-304 -586h222l-8 -57h-291l8 57l310 586h-224z" />
    <glyph glyph-name="zacute" unicode="&#x17a;" horiz-adv-x="315" 
d="M173 597l58 82h66l-81 -82h-43zM275 56l-8 -56h-279l8 54l269 442h-204l8 56h275l-8 -56l-268 -440h207z" />
    <glyph glyph-name="Zdotaccent" unicode="&#x17b;" horiz-adv-x="335" 
d="M86 643l8 57h287l-8 -57l-304 -586h222l-8 -57h-291l8 57l310 586h-224zM230 763l9 65h44l-9 -65h-44z" />
    <glyph glyph-name="zdotaccent" unicode="&#x17c;" horiz-adv-x="315" 
d="M275 56l-8 -56h-279l8 54l269 442h-204l8 56h275l-8 -56l-268 -440h207zM200 616l9 65h44l-9 -65h-44z" />
    <glyph glyph-name="Zcaron" unicode="&#x17d;" horiz-adv-x="335" 
d="M211 744l-55 82h43l47 -55l63 55h43l-77 -82h-64zM86 643l8 57h287l-8 -57l-304 -586h222l-8 -57h-291l8 57l310 586h-224z" />
    <glyph glyph-name="zcaron" unicode="&#x17e;" horiz-adv-x="315" 
d="M181 597l-55 82h43l48 -55l62 55h43l-77 -82h-64zM275 56l-8 -56h-279l8 54l269 442h-204l8 56h275l-8 -56l-268 -440h207z" />
    <glyph glyph-name="Aringacute" unicode="&#x1fa;" horiz-adv-x="385" 
d="M269 802h15q33 0 43.5 -12t5.5 -42l-2 -13q-3 -25 -12 -35h3l40 -700h-67l-10 161h-198l-55 -161h-67l237 700h2q-5 13 -2 35l2 13q5 30 19 42t46 12zM249 647l-139 -423h167l-18 423h-10zM280 780h-13q-21 0 -28.5 -6t-9.5 -24l-2 -16q-2 -19 3.5 -25t25.5 -6h13
q20 0 28 6t10 25l2 16q2 19 -3 24.5t-26 5.5zM253 824l58 82h66l-81 -82h-43z" />
    <glyph glyph-name="aringacute" unicode="&#x1fb;" horiz-adv-x="363" 
d="M109 501l8 51q86 2 129 2q69 0 91.5 -24t13.5 -90l-62 -440q-110 -2 -146 -2h-37q-47 0 -70.5 24t-16.5 73l26 183q13 96 114 96h119l9 67q5 38 -7.5 49t-43.5 11h-127zM108 277l-24 -172q-3 -23 7.5 -37t31.5 -14h110l38 272h-110q-21 0 -35.5 -13.5t-17.5 -35.5z
M249 709h15q33 0 43.5 -12t5.5 -42l-2 -13q-5 -30 -18 -42t-46 -12h-15q-33 0 -44 12t-6 42l2 13q5 30 19 42t46 12zM260 687h-13q-21 0 -28.5 -6t-9.5 -24l-2 -16q-2 -19 3.5 -25t25.5 -6h13q20 0 28 6t10 25l2 16q2 19 -3 24.5t-26 5.5zM237 738l58 82h66l-81 -82h-43z
" />
    <glyph glyph-name="AEacute" unicode="&#x1fc;" horiz-adv-x="608" 
d="M422 744l58 82h66l-81 -82h-43zM283 0l23 167h-176l-80 -167h-66l338 700h327l-8 -57h-201l-36 -256h188l-8 -58h-188l-38 -272h201l-8 -57h-268zM354 643l-196 -419h156l59 419h-19z" />
    <glyph glyph-name="aeacute" unicode="&#x1fd;" horiz-adv-x="586" 
d="M429 554h39q70 0 93 -24t14 -90l-28 -199l-221 -1l-18 -129q-5 -37 7.5 -49t42.5 -12h133l-7 -50q-81 -2 -133 -2q-50 0 -74.5 9t-30.5 39q-1 -1 -14.5 -11t-20 -13.5l-19.5 -10.5t-25 -10t-24 -3h-37q-47 0 -70.5 24t-16.5 73l24 170q7 49 37 73t77 24h121l12 82
q5 35 -7.5 46.5t-40.5 11.5h-129l7 50q85 2 129 2q36 0 56 -8.5t27 -32.5q25 41 97 41zM242 95q0 5 2 17l28 199h-111q-21 0 -37 -16t-19 -38l-21 -152q-3 -23 8 -37t33 -14h33q30 0 84 41zM422 504q-59 0 -67 -57l-22 -156h158l21 151q5 37 -8 49.5t-43 12.5h-39zM326 597
l58 82h66l-81 -82h-43z" />
    <glyph glyph-name="Oslashacute" unicode="&#x1fe;" horiz-adv-x="409" 
d="M253 702h41q54 0 81 -11l24 48h37l-33 -67q23 -29 13 -103l-61 -438q-11 -80 -46.5 -106.5t-113.5 -26.5h-41q-56 0 -82 11l-24 -47h-37l33 67q-22 28 -12 102l61 438q11 80 46.5 106.5t113.5 26.5zM164 55h38q39 0 59.5 14t26.5 59l62 438l-246 -491q13 -20 60 -20z
M161 572l-61 -432l243 487q-13 18 -58 18h-38q-39 0 -59.5 -14t-26.5 -59zM249 744l58 82h66l-81 -82h-43z" />
    <glyph glyph-name="oslashacute" unicode="&#x1ff;" horiz-adv-x="374" 
d="M214 554h43q30 0 53 -5l26 50h35l-31 -61q34 -23 24 -98l-46 -328q-9 -65 -39.5 -89.5t-99.5 -24.5h-43q-47 0 -69 9l-22 -43h-35l30 60q-20 26 -11 88l46 328q9 65 39 89.5t100 24.5zM143 51h43q30 0 47 12.5t22 49.5l46 327q1 9 1 25l-205 -398v-1q12 -15 46 -15z
M139 440l-45 -313l190 369q-12 6 -33 6h-44q-30 0 -46 -12.5t-22 -49.5zM215 597l58 82h66l-81 -82h-43z" />
    <glyph glyph-name="Scommaaccent" unicode="&#x218;" horiz-adv-x="386" 
d="M123 -112l11 75h44l-10 -68q-4 -30 -13 -47t-31 -42l-17 10l7 10.5t6.5 9t4.5 7t4 7.5t3 6.5t2.5 9t1.5 10t2 12.5h-15zM246 702l156 -2l-7 -55h-157q-38 0 -58 -13t-26 -58l-11 -78q-4 -29 4.5 -46t19.5 -22.5t41 -17.5l70 -26q26 -9 36.5 -14t25.5 -18t18 -33.5
t-1 -51.5l-19 -136q-11 -80 -46 -106.5t-113 -26.5l-171 2l8 55h171q39 0 59 13.5t26 58.5l17 124q-1 10 1 17t-1 14t-3.5 11t-6 9t-7.5 7t-9 6t-10.5 5.5t-11.5 5t-13 5.5l-73 26q-27 11 -37 16t-26 18.5t-19.5 34t0.5 50.5l13 93q11 80 46.5 106.5t113.5 26.5z" />
    <glyph glyph-name="scommaaccent" unicode="&#x219;" horiz-adv-x="332" 
d="M97 -112l11 75h44l-10 -68q-4 -30 -13 -47t-31 -42l-17 10l7 10.5t6.5 9t4.5 7t4 7.5t3 6.5t2.5 9t1.5 10t2 12.5h-15zM200 554l132 -2l-8 -51h-132q-31 0 -47 -10.5t-21 -46.5l-7 -54q1 -7 -0.5 -11t1.5 -8.5t3 -7t4.5 -6.5t6 -5.5t7.5 -4.5l9 -4.5t9.5 -4.5t10.5 -5
l65 -26q26 -10 39.5 -19t23.5 -29t6 -50l-13 -94q-9 -65 -39.5 -90.5t-99.5 -25.5l-149 1l7 52h149q30 0 46.5 12t21.5 49l12 86q5 35 -29 52q-3 1 -22 9l-65 28q-44 19 -56 34q-18 22 -12 63l8 55q10 66 40 90t99 24z" />
    <glyph glyph-name="circumflex" unicode="&#x2c6;" horiz-adv-x="500" 
d="M206 597l78 82h64l54 -82h-43l-47 55l-63 -55h-43z" />
    <glyph glyph-name="caron" unicode="&#x2c7;" horiz-adv-x="500" 
d="M271 597l-54 82h43l47 -55l63 55h43l-78 -82h-64z" />
    <glyph glyph-name="breve" unicode="&#x2d8;" horiz-adv-x="500" 
d="M323 596h-38q-42 0 -57.5 16.5t-10.5 60.5l1 10h41l-2 -14q-6 -40 33 -40h36q39 0 45 40l2 14h38l-1 -10q-5 -44 -25 -60.5t-62 -16.5z" />
    <glyph glyph-name="dotaccent" unicode="&#x2d9;" horiz-adv-x="500" 
d="M285 616l9 65h44l-9 -65h-44z" />
    <glyph glyph-name="ring" unicode="&#x2da;" horiz-adv-x="500" 
d="M312 710h15q33 0 43.5 -12t5.5 -42l-2 -13q-4 -30 -17.5 -42t-46.5 -12h-15q-32 0 -43 12t-7 42l2 13q5 30 19 42t46 12zM323 688h-13q-21 0 -28 -6t-9 -24l-3 -16q-2 -19 3.5 -25t25.5 -6h13q20 0 28 6t10 25l3 16q2 18 -3.5 24t-26.5 6z" />
    <glyph glyph-name="ogonek" unicode="&#x2db;" horiz-adv-x="500" 
d="M282 -67l-2 -14q-4 -29 -16 -42t-41 -13h-38q-30 0 -40.5 11t-5.5 38l2 12q3 21 12 30t35 22l43 23h36l-1 -5l-53 -30q-5 -3 -13 -8t-10.5 -7t-6.5 -5.5t-5 -7t-2 -8.5l-1 -9q-2 -15 2 -20.5t17 -5.5h26q13 0 18.5 5t7.5 19l2 15h34z" />
    <glyph glyph-name="tilde" unicode="&#x2dc;" horiz-adv-x="500" 
d="M354 604l-101 49l-9 -47h-30l12 72h31l101 -40l9 39h29l-12 -73h-30z" />
    <glyph glyph-name="hungarumlaut" unicode="&#x2dd;" horiz-adv-x="500" 
d="M220 597l71 82h57l-85 -82h-43zM309 597l71 82h67l-95 -82h-43z" />
    <glyph glyph-name="Wgrave" unicode="&#x1e80;" horiz-adv-x="580" 
d="M79 700h69l-10 -637h8l167 637h91l-13 -637h9l169 637h68l-185 -700h-133l23 574h-2l-139 -574h-133zM359 826l35 -82h-43l-58 82h66z" />
    <glyph glyph-name="wgrave" unicode="&#x1e81;" horiz-adv-x="522" 
d="M291 0l-2 410h-1l-116 -410h-114l-2 552h67l-2 -492h9l141 492h76l4 -492h8l136 492h67l-158 -552h-113zM312 679l34 -82h-43l-57 82h66z" />
    <glyph glyph-name="Wacute" unicode="&#x1e82;" horiz-adv-x="580" 
d="M334 744l58 82h66l-81 -82h-43zM79 700h69l-10 -637h8l167 637h91l-13 -637h9l169 637h68l-185 -700h-133l23 574h-2l-139 -574h-133z" />
    <glyph glyph-name="wacute" unicode="&#x1e83;" horiz-adv-x="522" 
d="M288 597l59 82h66l-82 -82h-43zM291 0l-2 410h-1l-116 -410h-114l-2 552h67l-2 -492h9l141 492h76l4 -492h8l136 492h67l-158 -552h-113z" />
    <glyph glyph-name="Wdieresis" unicode="&#x1e84;" horiz-adv-x="580" 
d="M280 755l10 71h44l-10 -71h-44zM408 755l10 71h44l-10 -71h-44zM79 700h69l-10 -637h8l167 637h91l-13 -637h9l169 637h68l-185 -700h-133l23 574h-2l-139 -574h-133z" />
    <glyph glyph-name="wdieresis" unicode="&#x1e85;" horiz-adv-x="522" 
d="M232 608l10 71h44l-10 -71h-44zM360 608l10 71h44l-10 -71h-44zM291 0l-2 410h-1l-116 -410h-114l-2 552h67l-2 -492h9l141 492h76l4 -492h8l136 492h67l-158 -552h-113z" />
    <glyph glyph-name="Ygrave" unicode="&#x1ef2;" horiz-adv-x="390" 
d="M132 0l39 283l-94 417h67l70 -339l168 339h67l-212 -417l-39 -283h-66zM269 826l34 -82h-43l-57 82h66z" />
    <glyph glyph-name="ygrave" unicode="&#x1ef3;" horiz-adv-x="339" 
d="M74 3l-30 549h68l23 -486h22l153 486h67l-215 -677h-60l40 128h-68zM220 679l34 -82h-43l-57 82h66z" />
    <glyph glyph-name="endash" unicode="&#x2013;" horiz-adv-x="388" 
d="M26 276l6 46h354l-6 -46h-354z" />
    <glyph glyph-name="emdash" unicode="&#x2014;" horiz-adv-x="551" 
d="M26 276l6 46h517l-6 -46h-517z" />
    <glyph glyph-name="quoteleft" unicode="&#x2018;" horiz-adv-x="152" 
d="M159 610l-14 -103h-60l11 77q4 30 13.5 52t19.5 33.5t29 30.5l18 -14q-3 -3 -9.5 -11.5t-8 -10.5t-5.5 -8t-5 -8.5t-4 -7.5t-3.5 -9t-2 -9.5t-2.5 -11.5h23z" />
    <glyph glyph-name="quoteright" unicode="&#x2019;" horiz-adv-x="152" 
d="M101 598l14 103h60l-11 -77q-4 -30 -13.5 -52t-19.5 -33.5t-29 -30.5l-18 14q3 3 9.5 11.5t8 10.5t5.5 8t5 8.5t4 7.5t3.5 9t2 9.5t2.5 11.5h-23z" />
    <glyph glyph-name="quotesinglbase" unicode="&#x201a;" horiz-adv-x="152" 
d="M17 0l14 103h60l-11 -77q-4 -30 -13.5 -52t-19.5 -33.5t-29 -30.5l-18 14q3 3 9.5 11.5t8 10.5t5.5 8t5 8.5t4 7.5t3.5 9t2 9.5t2.5 11.5h-23z" />
    <glyph glyph-name="quotedblleft" unicode="&#x201c;" horiz-adv-x="263" 
d="M159 610l-14 -103h-60l11 77q4 30 13.5 52t19.5 33.5t29 30.5l18 -14q-3 -3 -9.5 -11.5t-8 -10.5t-5.5 -8t-5 -8.5t-4 -7.5t-3.5 -9t-2 -9.5t-2.5 -11.5h23zM269 610l-14 -103h-60l11 77q4 30 13.5 52t19.5 33.5t29 30.5l18 -14q-3 -3 -9.5 -11.5t-8 -10.5t-5.5 -8
t-5 -8.5t-4 -7.5t-3.5 -9t-2 -9.5t-2.5 -11.5h23z" />
    <glyph glyph-name="quotedblright" unicode="&#x201d;" horiz-adv-x="263" 
d="M101 598l14 103h60l-11 -77q-4 -30 -13.5 -52t-19.5 -33.5t-29 -30.5l-18 14q3 3 9.5 11.5t8 10.5t5.5 8t5 8.5t4 7.5t3.5 9t2 9.5t2.5 11.5h-23zM211 598l14 103h60l-11 -77q-4 -30 -13.5 -52t-19.5 -33.5t-29 -30.5l-18 14q3 3 9.5 11.5t8 10.5t5.5 8t5 8.5t4 7.5
t3.5 9t2 9.5t2.5 11.5h-23z" />
    <glyph glyph-name="quotedblbase" unicode="&#x201e;" horiz-adv-x="263" 
d="M17 0l14 103h60l-11 -77q-4 -30 -13.5 -52t-19.5 -33.5t-29 -30.5l-18 14q3 3 9.5 11.5t8 10.5t5.5 8t5 8.5t4 7.5t3.5 9t2 9.5t2.5 11.5h-23zM127 0l14 103h60l-11 -77q-4 -30 -13.5 -52t-19.5 -33.5t-29 -30.5l-18 14q3 3 9.5 11.5t8 10.5t5.5 8t5 8.5t4 7.5t3.5 9
t2 9.5t2.5 11.5h-23z" />
    <glyph glyph-name="dagger" unicode="&#x2020;" horiz-adv-x="319" 
d="M203 572v75l7 53h35l-7 -53l-22 -75h-13zM302 572h54l-5 -36h-54l-73 11l2 14zM188 547l-76 -11h-54l5 36h54l73 -11zM164 291l7 134l27 111h13l-5 -111l-29 -134h-13z" />
    <glyph glyph-name="daggerdbl" unicode="&#x2021;" horiz-adv-x="319" 
d="M171 340l3 97l25 99h13l-3 -98l-25 -98h-13zM118 572l72 -11l-2 -14l-75 -11h-54l5 36h54zM137 175l7 53l22 75h13v-75l-7 -53h-35zM352 536h-54l-74 11l2 14l77 11h54zM85 339l72 -11l-1 -13l-76 -11h-54l5 35h54zM204 572l-1 75l8 53h35l-8 -53l-21 -75h-13zM193 328
l77 11h54l-5 -35h-54l-73 11z" />
    <glyph glyph-name="bullet" unicode="&#x2022;" horiz-adv-x="246" 
d="M147 450h20q39 0 47 -12.5t3 -51.5l-8 -63q-5 -37 -17 -49.5t-51 -12.5h-20q-40 0 -48.5 12t-3.5 50l8 63q5 39 17 51.5t53 12.5z" />
    <glyph glyph-name="ellipsis" unicode="&#x2026;" horiz-adv-x="455" 
d="M16 0l14 103h60l-14 -103h-60zM168 0l14 103h59l-14 -103h-59zM319 0l14 103h60l-14 -103h-60z" />
    <glyph glyph-name="perthousand" unicode="&#x2030;" horiz-adv-x="858" 
d="M199 701h42q45 0 62 -18.5t10 -64.5l-29 -207q-7 -46 -29 -65t-67 -19h-42q-45 0 -62 19t-10 65l29 207q7 46 29 64.5t67 18.5zM463 373h42q45 0 62 -19t10 -65l-29 -206q-7 -47 -29 -66t-67 -19h-42q-45 0 -62 19t-10 66l29 206q7 46 29 65t67 19zM709 373h42
q45 0 62 -19t10 -65l-29 -206q-7 -47 -29 -66t-67 -19h-42q-45 0 -62 19t-10 66l29 206q7 46 29 65t67 19zM498 340h-38q-46 0 -52 -46l-30 -215q-4 -27 6 -37t33 -10h38q22 0 34.5 10t16.5 37l30 215q4 27 -6 36.5t-32 9.5zM234 668h-38q-46 0 -52 -46l-30 -215
q-4 -27 6.5 -37t32.5 -10h38q45 0 51 47l31 215q4 27 -6.5 36.5t-32.5 9.5zM744 340h-38q-46 0 -52 -46l-30 -215q-4 -27 6 -37t33 -10h38q22 0 34.5 10t16.5 37l30 215q4 27 -6 36.5t-32 9.5zM110 0l381 700h42l-382 -700h-41z" />
    <glyph glyph-name="guilsinglleft" unicode="&#x2039;" horiz-adv-x="174" 
d="M93 116l-70 162l1 9l116 163h44l-105 -163l-1 -9l59 -162h-44z" />
    <glyph glyph-name="guilsinglright" unicode="&#x203a;" horiz-adv-x="174" 
d="M168 278l-116 -162h-44l105 162l1 9l-59 163h44l70 -163z" />
    <glyph glyph-name="fraction" unicode="&#x2044;" horiz-adv-x="242" 
d="M-56 0l350 700h41l-350 -700h-41z" />
    <glyph glyph-name="Euro" unicode="&#x20ac;" horiz-adv-x="387" 
d="M256 648q-37 0 -58.5 -15.5t-27.5 -60.5l-20 -143h198l-5 -39h-198l-9 -64h198l-6 -40h-198l-22 -158q-6 -45 10.5 -60.5t53.5 -15.5h152l-7 -52q-96 -2 -152 -2q-79 0 -106.5 26.5t-16.5 106.5l22 155h-40l6 40h40l9 64h-40l5 39h40l20 140q12 81 46.5 107t112.5 26
l157 -2l-7 -52h-157z" />
    <glyph glyph-name="afii61352" unicode="&#x2116;" horiz-adv-x="797" 
d="M658 702h43q69 0 92.5 -24.5t14.5 -89.5l-50 -352q-9 -65 -39.5 -89.5t-99.5 -24.5h-43q-69 0 -92.5 24.5t-14.5 89.5l50 352q9 65 39.5 89.5t99.5 24.5zM584 180h43q30 0 47 12t22 49l48 342q6 37 -7.5 49.5t-43.5 12.5h-43q-30 0 -46.5 -12.5t-22.5 -49.5l-48 -342
q-5 -37 8 -49t43 -12zM436 0l8 57h289l-8 -57h-289zM115 700h79l108 -541h1l76 541h65l-98 -700h-78l-108 530h-2l-74 -530h-67z" />
    <glyph glyph-name="trademark" unicode="&#x2122;" horiz-adv-x="475" 
d="M307 659l-41 -309h-34l49 350h57l15 -281h2l94 281h56l-49 -350h-33l45 309h-1l-106 -309h-34l-19 309h-1zM80 670l4 30h172l-4 -30h-69l-45 -320h-35l45 320h-68z" />
    <glyph glyph-name="arrowleft" unicode="&#x2190;" horiz-adv-x="400" 
d="M156 129l-110 163l1 8l156 163l26 -25l-120 -123h277l-5 -38h-277l85 -123z" />
    <glyph glyph-name="arrowup" unicode="&#x2191;" horiz-adv-x="400" 
d="M231 463h9l143 -133l-29 -29l-108 102l-39 -277h-39l39 277l-137 -102l-21 29z" />
    <glyph glyph-name="arrowright" unicode="&#x2192;" horiz-adv-x="400" 
d="M382 292l-156 -163l-25 25l119 123h-277l5 38h277l-84 123l32 25l110 -163z" />
    <glyph glyph-name="arrowdown" unicode="&#x2193;" horiz-adv-x="400" 
d="M192 125h-9l-144 133l29 29l109 -102l39 277h39l-39 -277l136 102l21 -29z" />
    <glyph glyph-name="uni2196" unicode="&#x2196;" horiz-adv-x="400" 
d="M60 202l48 210l6 6l212 17l-2 -37l-161 -12l168 -196l-30 -27l-169 196l-35 -159z" />
    <glyph glyph-name="uni2197" unicode="&#x2197;" horiz-adv-x="400" 
d="M346 412l-11 -210l-38 -2l10 159l-224 -196l-23 27l224 196l-158 12l8 37l207 -17z" />
    <glyph glyph-name="uni2198" unicode="&#x2198;" horiz-adv-x="400" 
d="M361 391l-47 -210l-7 -6l-211 -17l2 37l160 12l-168 196l31 27l168 -196l36 159z" />
    <glyph glyph-name="uni2199" unicode="&#x2199;" horiz-adv-x="400" 
d="M75 181l12 210l37 2l-10 -159l224 196l23 -27l-223 -196l157 -12l-8 -37l-207 17z" />
    <glyph glyph-name="minus" unicode="&#x2212;" horiz-adv-x="322" 
d="M42 336l6 45h273l-6 -45h-273z" />
    <glyph glyph-name="commaaccent" unicode="&#xf6c3;" horiz-adv-x="500" 
d="M200 -10l11 75h44l-10 -68q-4 -30 -13 -47t-31 -42l-17 10q3 5 9 13.5t7.5 11t5 8.5t4.5 10.5t2.5 11.5t2.5 17h-15z" />
    <glyph glyph-name="abreve.alt" 
d="M191 554h40l149 -2l-78 -552q-119 -2 -153 -2h-36q-47 0 -70.5 24t-16.5 73l51 363q13 96 114 96zM132 54h115l62 445h-115q-22 0 -37 -14t-18 -37l-48 -343q-3 -23 8 -37t33 -14zM268 596h-38q-42 0 -57 16.5t-10 60.5l1 10h40l-2 -14q-6 -40 33 -40h36q39 0 45 40l2 14
h39l-1 -10q-5 -44 -25.5 -60.5t-62.5 -16.5z" />
    <glyph glyph-name="guilsinglleft.case" horiz-adv-x="174" 
d="M103 189l-70 162l1 9l116 163h44l-105 -163l-1 -9l59 -162h-44z" />
    <glyph glyph-name="gcommaaccent.alt" horiz-adv-x="380" 
d="M215 554h197l-5 -33l-60 -9q28 -19 20 -72l-27 -188q-9 -65 -39 -89t-99 -24h-45q-33 0 -47 6q-14 -1 -27 -11t-13 -31q0 -17 33 -17h124q67 0 82 -18t6 -82l-2 -14q-9 -65 -39.5 -89.5t-99.5 -24.5h-102q-69 0 -87 20.5t4 79.5q11 38 54 87q-36 5 -36 39q0 55 57 78
q-24 24 -15 90l27 188q10 70 39 92t100 22zM164 195h45q30 0 47 12.5t22 48.5l25 181q5 37 -8 49t-43 12h-45q-30 0 -46.5 -12t-21.5 -49l-25 -181q-5 -36 8 -48.5t42 -12.5zM77 -87h109q29 0 45 12t22 49l3 18q4 27 -1.5 37.5t-30.5 10.5h-136q-29 -36 -37 -73
q-9 -37 -4.5 -45.5t30.5 -8.5zM282 673l-11 -75h-44l10 68q4 30 13 47t31 42l17 -10l-7 -10.5t-6.5 -9t-4.5 -7t-4 -7.5t-3 -6.5t-2.5 -9t-1.5 -10t-2 -12.5h15z" />
    <glyph glyph-name="gdotaccent.alt" horiz-adv-x="380" 
d="M215 554h197l-5 -33l-60 -9q28 -19 20 -72l-27 -188q-9 -65 -39 -89t-99 -24h-45q-33 0 -47 6q-14 -1 -27 -11t-13 -31q0 -17 33 -17h124q67 0 82 -18t6 -82l-2 -14q-9 -65 -39.5 -89.5t-99.5 -24.5h-102q-69 0 -87 20.5t4 79.5q11 38 54 87q-36 5 -36 39q0 55 57 78
q-24 24 -15 90l27 188q10 70 39 92t100 22zM164 195h45q30 0 47 12.5t22 48.5l25 181q5 37 -8 49t-43 12h-45q-30 0 -46.5 -12t-21.5 -49l-25 -181q-5 -36 8 -48.5t42 -12.5zM77 -87h109q29 0 45 12t22 49l3 18q4 27 -1.5 37.5t-30.5 10.5h-136q-29 -36 -37 -73
q-9 -37 -4.5 -45.5t30.5 -8.5zM224 616l9 65h44l-9 -65h-44z" />
    <glyph glyph-name="g.alt" horiz-adv-x="380" 
d="M215 554h197l-5 -33l-60 -9q28 -19 20 -72l-27 -188q-9 -65 -39 -89t-99 -24h-45q-33 0 -47 6q-14 -1 -27 -11t-13 -31q0 -17 33 -17h124q67 0 82 -18t6 -82l-2 -14q-9 -65 -39.5 -89.5t-99.5 -24.5h-102q-69 0 -87 20.5t4 79.5q11 38 54 87q-36 5 -36 39q0 55 57 78
q-24 24 -15 90l27 188q10 70 39 92t100 22zM164 195h45q30 0 47 12.5t22 48.5l25 181q5 37 -8 49t-43 12h-45q-30 0 -46.5 -12t-21.5 -49l-25 -181q-5 -36 8 -48.5t42 -12.5zM77 -87h109q29 0 45 12t22 49l3 18q4 27 -1.5 37.5t-30.5 10.5h-136q-29 -36 -37 -73
q-9 -37 -4.5 -45.5t30.5 -8.5z" />
    <glyph glyph-name="yacute.alt" 
d="M30 -51h142q30 0 47 12t22 49l3 22h-126q-47 0 -70.5 24t-16.5 72l60 424h63l-58 -414q-3 -23 8 -37t33 -14h115l65 465h63l-77 -546q-9 -69 -38.5 -91.5t-100.5 -22.5l-141 6zM211 597l59 82h66l-82 -82h-43z" />
    <glyph glyph-name="gbreve.alt" horiz-adv-x="380" 
d="M215 554h197l-5 -33l-60 -9q28 -19 20 -72l-27 -188q-9 -65 -39 -89t-99 -24h-45q-33 0 -47 6q-14 -1 -27 -11t-13 -31q0 -17 33 -17h124q67 0 82 -18t6 -82l-2 -14q-9 -65 -39.5 -89.5t-99.5 -24.5h-102q-69 0 -87 20.5t4 79.5q11 38 54 87q-36 5 -36 39q0 55 57 78
q-24 24 -15 90l27 188q10 70 39 92t100 22zM164 195h45q30 0 47 12.5t22 48.5l25 181q5 37 -8 49t-43 12h-45q-30 0 -46.5 -12t-21.5 -49l-25 -181q-5 -36 8 -48.5t42 -12.5zM77 -87h109q29 0 45 12t22 49l3 18q4 27 -1.5 37.5t-30.5 10.5h-136q-29 -36 -37 -73
q-9 -37 -4.5 -45.5t30.5 -8.5zM261 596h-38q-42 0 -57 16.5t-10 60.5l1 10h40l-2 -14q-6 -40 33 -40h36q39 0 45 40l2 14h39l-1 -10q-5 -44 -25.5 -60.5t-62.5 -16.5z" />
    <glyph glyph-name="y.alt" 
d="M30 -51h142q30 0 47 12t22 49l3 22h-126q-47 0 -70.5 24t-16.5 72l60 424h63l-58 -414q-3 -23 8 -37t33 -14h115l65 465h63l-77 -546q-9 -69 -38.5 -91.5t-100.5 -22.5l-141 6z" />
    <glyph glyph-name="ydieresis.alt" 
d="M30 -51h142q30 0 47 12t22 49l3 22h-126q-47 0 -70.5 24t-16.5 72l60 424h63l-58 -414q-3 -23 8 -37t33 -14h115l65 465h63l-77 -546q-9 -69 -38.5 -91.5t-100.5 -22.5l-141 6zM159 608l10 71h44l-10 -71h-44zM287 608l10 71h44l-10 -71h-44z" />
    <glyph glyph-name="ycircumflex.alt" 
d="M30 -51h142q30 0 47 12t22 49l3 22h-126q-47 0 -70.5 24t-16.5 72l60 424h63l-58 -414q-3 -23 8 -37t33 -14h115l65 465h63l-77 -546q-9 -69 -38.5 -91.5t-100.5 -22.5l-141 6zM145 597l78 82h64l54 -82h-43l-47 55l-63 -55h-43z" />
    <glyph glyph-name="ygrave.alt" 
d="M30 -51h142q30 0 47 12t22 49l3 22h-126q-47 0 -70.5 24t-16.5 72l60 424h63l-58 -414q-3 -23 8 -37t33 -14h115l65 465h63l-77 -546q-9 -69 -38.5 -91.5t-100.5 -22.5l-141 6zM244 679l34 -82h-43l-57 82h66z" />
    <glyph glyph-name="RB" horiz-adv-x="900" 
d="M450 706q147 0 251.5 -104.5t104.5 -251.5t-104.5 -251.5t-251.5 -104.5t-251.5 104.5t-104.5 251.5t104.5 251.5t251.5 104.5zM420 241l-49 65q32 8 55.5 31.5t30.5 54.5q10 37 -9.5 63.5t-57.5 26.5h-90l-61 -241h181zM646 422q7 23 -7 40.5t-39 19.5h-108l-59 -241
h125q27 0 51.5 19t30.5 46q6 23 -6 40.5t-37 20.5q39 14 49 55z" />
    <glyph glyph-name="registered.alt" horiz-adv-x="519" 
d="M135 89l73 520h132q55 0 72.5 -17t9.5 -70l-17 -115q-6 -40 -18 -55.5t-41 -20.5q27 -5 35 -22.5t3 -57.5l-23 -162h-50l23 167q5 32 -7 43.5t-36 11.5h-75l-31 -222h-50zM252 566l-30 -213h82q21 0 33.5 9t16.5 37l17 121q4 28 -5.5 37t-31.5 9h-82zM255 700h152
q150 0 130 -141l-59 -417q-19 -142 -170 -142h-152q-70 0 -104.5 34.5t-24.5 107.5l59 417q20 141 169 141zM158 16h152q133 0 150 126l59 417q18 126 -114 126h-152q-131 0 -149 -126l-59 -417q-18 -126 113 -126z" />
    <glyph glyph-name="published" horiz-adv-x="519" 
d="M140 89l73 520h131q54 0 72 -17.5t11 -69.5l-21 -145q-7 -53 -30.5 -71t-76.5 -18h-82l-28 -199h-49zM256 566l-33 -234h82q21 0 34 9t17 37l20 142q4 28 -5.5 37t-32.5 9h-82zM255 700h152q150 0 130 -141l-59 -417q-19 -142 -170 -142h-152q-70 0 -104.5 34.5
t-24.5 107.5l59 417q20 141 169 141zM158 16h152q133 0 150 126l59 417q18 126 -114 126h-152q-131 0 -149 -126l-59 -417q-18 -126 113 -126z" />
    <glyph glyph-name="parenleft.case" horiz-adv-x="198" 
d="M163 635l-81 -578q-6 -45 4 -70q4 -9 19.5 -32.5t15.5 -24.5l-31 -25q-28 25 -52 63q-21 35 -13 89l81 578q8 54 38 89q34 38 70 63l23 -25q-3 -4 -24 -26.5t-26 -30.5q-18 -25 -24 -70z" />
    <glyph glyph-name="parenright.case" horiz-adv-x="198" 
d="M71 57l81 578q6 45 -4 70q-3 8 -18 31t-16 26l29 25q27 -22 53 -63q21 -35 13 -89l-81 -578q-8 -54 -38 -89q-37 -41 -71 -63l-23 25q2 2 23.5 25t27.5 32q18 25 24 70z" />
    <glyph glyph-name="hyphen.case" horiz-adv-x="281" 
d="M42 331l7 53h231l-7 -53h-231z" />
    <glyph glyph-name="bracketleft.case" horiz-adv-x="243" 
d="M175 718l-102 -730h129l-7 -49h-185l116 827h185l-7 -48h-129z" />
    <glyph glyph-name="bracketright.case" horiz-adv-x="243" 
d="M105 -12l102 730h-129l7 48h185l-116 -827h-185l7 49h129z" />
    <glyph glyph-name="braceleft.case" horiz-adv-x="216" 
d="M26 334l5 35q1 1 10.5 6t16.5 10.5t16.5 14.5t15.5 21.5t8 27.5l26 186q8 55 39 89q30 35 70 63l21 -19q-2 -3 -22 -25.5t-26 -30.5q-18 -25 -25 -77l-26 -186q-8 -60 -70 -98q51 -39 43 -97l-28 -197q-7 -54 3 -77q3 -7 17 -29.5t15 -26.5l-26 -19q-31 28 -53 63
q-21 34 -13 89l28 197q0 9 1 15.5t-2.5 14t-4.5 11.5t-5.5 10t-7 8.5t-7.5 7t-7 5.5t-6.5 4.5t-5.5 3.5z" />
    <glyph glyph-name="bar.case" horiz-adv-x="240" 
d="M56 -66l116 826h51l-116 -826h-51z" />
    <glyph glyph-name="braceright.case" horiz-adv-x="216" 
d="M228 369l-5 -35q-1 0 -5.5 -3t-7 -4t-8 -4.5t-8.5 -6t-8 -7t-8.5 -8.5t-7.5 -9.5t-6.5 -11t-5 -12.5t-3.5 -14l-27 -197q-8 -55 -39 -89q-34 -38 -70 -63l-21 19q3 4 23 26.5t25 29.5q18 25 25 77l27 197q8 59 70 97q-50 39 -42 98l26 186q7 54 -3 77q-3 7 -17 29.5
t-15 26.5l26 19q33 -30 53 -63q21 -34 13 -89l-26 -186q-2 -15 0.5 -27.5t9.5 -21.5t12.5 -14t14.5 -11z" />
    <glyph glyph-name="gcircumflex.alt" horiz-adv-x="380" 
d="M215 554h197l-5 -33l-60 -9q28 -19 20 -72l-27 -188q-9 -65 -39 -89t-99 -24h-45q-33 0 -47 6q-14 -1 -27 -11t-13 -31q0 -17 33 -17h124q67 0 82 -18t6 -82l-2 -14q-9 -65 -39.5 -89.5t-99.5 -24.5h-102q-69 0 -87 20.5t4 79.5q11 38 54 87q-36 5 -36 39q0 55 57 78
q-24 24 -15 90l27 188q10 70 39 92t100 22zM164 195h45q30 0 47 12.5t22 48.5l25 181q5 37 -8 49t-43 12h-45q-30 0 -46.5 -12t-21.5 -49l-25 -181q-5 -36 8 -48.5t42 -12.5zM77 -87h109q29 0 45 12t22 49l3 18q4 27 -1.5 37.5t-30.5 10.5h-136q-29 -36 -37 -73
q-9 -37 -4.5 -45.5t30.5 -8.5zM147 597l77 82h64l55 -82h-43l-47 55l-63 -55h-43z" />
    <glyph glyph-name="guilsinglright.case" horiz-adv-x="174" 
d="M179 351l-116 -162h-44l105 162l1 9l-59 163h44l70 -163z" />
    <glyph glyph-name="guillemotleft.case" horiz-adv-x="278" 
d="M205 189l-64 162l1 9l110 163h46l-102 -163l-1 -9l56 -162h-46zM33 351l1 9l116 163h44l-105 -163l-1 -9l59 -162h-44z" />
    <glyph glyph-name="guillemotright.case" horiz-adv-x="278" 
d="M176 351l-110 -162h-46l102 162l1 9l-56 163h46l64 -163zM285 360l-1 -9l-116 -162h-44l105 162l1 9l-59 163h44z" />
    <glyph glyph-name="endash.case" horiz-adv-x="388" 
d="M34 332l6 46h354l-6 -46h-354z" />
    <glyph glyph-name="emdash.case" horiz-adv-x="551" 
d="M34 332l6 46h517l-6 -46h-517z" />
    <glyph glyph-name="bullet.case" horiz-adv-x="246" 
d="M147 450h20q39 0 47 -12.5t3 -51.5l-8 -63q-5 -37 -17 -49.5t-51 -12.5h-20q-40 0 -48.5 12t-3.5 50l8 63q5 39 17 51.5t53 12.5z" />
    <glyph glyph-name="periodcentered.case" horiz-adv-x="174" 
d="M72 305l14 103h58l-14 -103h-58z" />
    <glyph glyph-name="germandbls.case" horiz-adv-x="743" 
d="M246 702l156 -2l-7 -55h-157q-38 0 -58 -13t-26 -58l-11 -78q-4 -29 4.5 -46t19.5 -22.5t41 -17.5l70 -26q26 -9 36.5 -14t25.5 -18t18 -33.5t-1 -51.5l-19 -136q-11 -80 -46 -106.5t-113 -26.5l-171 2l8 55h171q39 0 59 13.5t26 58.5l17 124q-1 10 1 17t-1 14t-3.5 11
t-6 9t-7.5 7t-9 6t-10.5 5.5t-11.5 5t-13 5.5l-73 26q-27 11 -37 16t-26 18.5t-19.5 34t0.5 50.5l13 93q11 80 46.5 106.5t113.5 26.5zM602 702l156 -2l-7 -55h-157q-38 0 -58 -13t-26 -58l-11 -78q-4 -29 4.5 -46t19.5 -22.5t41 -17.5l70 -26q26 -9 36.5 -14t25.5 -18
t18 -33.5t-1 -51.5l-19 -136q-11 -80 -46 -106.5t-113 -26.5l-171 2l8 55h171q39 0 59 13.5t26 58.5l17 124q-1 10 1 17t-1 14t-3.5 11t-6 9t-7.5 7t-9 6t-10.5 5.5t-11.5 5t-13 5.5l-73 26q-27 11 -37 16t-26 18.5t-19.5 34t0.5 50.5l13 93q11 80 46.5 106.5t113.5 26.5z
" />
    <glyph glyph-name="i.dot" horiz-adv-x="154" 
d="M16 0l78 552h63l-78 -552h-63zM108 616l9 65h53l-9 -65h-53z" />
    <glyph glyph-name="caron.alt" horiz-adv-x="500" 
d="M293 642l10 74h41l-10 -69q-3 -19 -10 -34t-13 -22.5t-20 -22.5l-12 10q2 3 6 7.5t5 6.5t4 5t3.5 5t2 4.5t2.5 5t2 5.5t1.5 7l1 8t1.5 10h-15z" />
    <glyph glyph-name="aring.alt" 
d="M191 554h40l149 -2l-78 -552q-119 -2 -153 -2h-36q-47 0 -70.5 24t-16.5 73l51 363q13 96 114 96zM132 54h115l62 445h-115q-22 0 -37 -14t-18 -37l-48 -343q-3 -23 8 -37t33 -14zM252 710h15q33 0 43.5 -12t5.5 -42l-2 -13q-5 -30 -18 -42t-46 -12h-15q-33 0 -44 12
t-6 42l2 13q5 30 19 42t46 12zM263 688h-13q-21 0 -28.5 -6t-9.5 -24l-2 -16q-2 -19 3.5 -25t25.5 -6h13q20 0 27 6t11 25l3 16q3 18 -2.5 24t-27.5 6z" />
    <glyph glyph-name="atilde.alt" 
d="M191 554h40l149 -2l-78 -552q-119 -2 -153 -2h-36q-47 0 -70.5 24t-16.5 73l51 363q13 96 114 96zM132 54h115l62 445h-115q-22 0 -37 -14t-18 -37l-48 -343q-3 -23 8 -37t33 -14zM298 604l-101 49l-9 -47h-30l12 72h31l102 -40l8 39h29l-12 -73h-30z" />
    <glyph glyph-name="aringacute.alt" 
d="M191 554h40l149 -2l-78 -552q-119 -2 -153 -2h-36q-47 0 -70.5 24t-16.5 73l51 363q13 96 114 96zM132 54h115l62 445h-115q-22 0 -37 -14t-18 -37l-48 -343q-3 -23 8 -37t33 -14zM255 710h15q33 0 43.5 -12t5.5 -42l-2 -13q-5 -30 -18 -42t-46 -12h-15q-33 0 -44 12
t-6 42l2 13q5 30 19 42t46 12zM266 688h-13q-21 0 -28.5 -6t-9.5 -24l-2 -16q-2 -19 3.5 -25t25.5 -6h13q20 0 27 6t11 25l3 16q3 18 -2.5 24t-27.5 6zM234 742l59 82h66l-82 -82h-43z" />
    <glyph glyph-name="aogonek.alt" 
d="M300 -54l-2 -14q-4 -29 -16 -42t-41 -13h-38q-30 0 -39 11t-7 38l1 12q1 6 2 10.5t2 8t4.5 7t5 5.5t7 5.5t7.5 4.5t9.5 5t10.5 6l16 9q-30 -1 -73 -1h-36q-47 0 -70.5 24t-16.5 73l51 363q13 96 114 96h40l149 -2l-78 -552q-16 0 -34 -1l-37 -21q-5 -4 -13 -8.5t-11 -6.5
t-6.5 -5.5t-4.5 -7t-2 -8.5l-1 -9q-2 -15 2 -20.5t17 -5.5h26q13 0 18 4.5t7 19.5l2 15h35zM132 54h115l62 445h-115q-22 0 -37 -14t-18 -37l-48 -343q-3 -23 8 -37t33 -14z" />
    <glyph glyph-name="idotaccent" horiz-adv-x="154" 
d="M16 0l78 552h63l-78 -552h-63zM100 615l9 62h66l-9 -62h-66z" />
    <glyph glyph-name="aacute.alt" 
d="M191 554h40l149 -2l-78 -552q-119 -2 -153 -2h-36q-47 0 -70.5 24t-16.5 73l51 363q13 96 114 96zM132 54h115l62 445h-115q-22 0 -37 -14t-18 -37l-48 -343q-3 -23 8 -37t33 -14zM214 597l58 82h66l-81 -82h-43z" />
    <glyph glyph-name="a.alt" 
d="M191 554h40l149 -2l-78 -552q-119 -2 -153 -2h-36q-47 0 -70.5 24t-16.5 73l51 363q13 96 114 96zM132 54h115l62 445h-115q-22 0 -37 -14t-18 -37l-48 -343q-3 -23 8 -37t33 -14z" />
    <glyph glyph-name="acircumflex.alt" 
d="M191 554h40l149 -2l-78 -552q-119 -2 -153 -2h-36q-47 0 -70.5 24t-16.5 73l51 363q13 96 114 96zM132 54h115l62 445h-115q-22 0 -37 -14t-18 -37l-48 -343q-3 -23 8 -37t33 -14zM148 597l77 82h64l55 -82h-43l-47 55l-63 -55h-43z" />
    <glyph glyph-name="adieresis.alt" 
d="M191 554h40l149 -2l-78 -552q-119 -2 -153 -2h-36q-47 0 -70.5 24t-16.5 73l51 363q13 96 114 96zM132 54h115l62 445h-115q-22 0 -37 -14t-18 -37l-48 -343q-3 -23 8 -37t33 -14zM165 608l9 71h44l-9 -71h-44zM293 608l9 71h44l-9 -71h-44z" />
    <glyph glyph-name="agrave.alt" 
d="M191 554h40l149 -2l-78 -552q-119 -2 -153 -2h-36q-47 0 -70.5 24t-16.5 73l51 363q13 96 114 96zM132 54h115l62 445h-115q-22 0 -37 -14t-18 -37l-48 -343q-3 -23 8 -37t33 -14zM257 679l35 -82h-43l-58 82h66z" />
    <glyph glyph-name="amacron.alt" 
d="M191 554h40l149 -2l-78 -552q-119 -2 -153 -2h-36q-47 0 -70.5 24t-16.5 73l51 363q13 96 114 96zM132 54h115l62 445h-115q-22 0 -37 -14t-18 -37l-48 -343q-3 -23 8 -37t33 -14zM154 620l6 38h186l-6 -38h-186z" />
    </font>
</defs>
</svg>
