<?xml version="1.0" standalone="no"?>
<!DOCTYPE svg PUBLIC "-//W3C//DTD SVG 1.1//EN" "http://www.w3.org/Graphics/SVG/1.1/DTD/svg11.dtd" >
<svg xmlns="http://www.w3.org/2000/svg" xmlns:xlink="http://www.w3.org/1999/xlink" version="1.1">
<metadata>
Created by FontForge 20170731 at Sun Sep 30 05:16:27 2012
 By Aleksey,,,
Copyright (c) 2012 by Rene Bieder. All rights reserved.
</metadata>
<defs>
<font id="RBNo2.1a-Ultra" horiz-adv-x="423" >
  <font-face 
    font-family="RBNo2.1a Ultra"
    font-weight="450"
    font-stretch="normal"
    units-per-em="1000"
    panose-1="2 0 0 0 0 0 0 0 0 0"
    ascent="750"
    descent="-250"
    x-height="600"
    cap-height="700"
    bbox="-80 -271 949 968"
    underline-thickness="50"
    underline-position="-200"
    unicode-range="U+0020-FB02"
  />
<missing-glyph horiz-adv-x="500" 
d="M0 0v700h500v-700h-500zM277 350l173 -272v543zM222 350l-172 271v-543zM250 306l-163 -256h326zM86 651l164 -258l164 258h-328z" />
    <glyph glyph-name="fi" unicode="fi" horiz-adv-x="503" 
d="M338 770v-151h-101q-12 0 -12 -10v-9h266v-600h-183v445h-83v-445h-183v445h-39v155h39v9q0 56 8 87t33.5 48t58 21.5t95.5 4.5h101z" />
    <glyph glyph-name="fl" unicode="fl" horiz-adv-x="503" 
d="M237 770h254v-770h-183v619h-71q-12 0 -12 -10v-9h58v-155h-58v-445h-183v445h-39v155h39v9q0 56 8 87t33.5 48t58 21.5t95.5 4.5z" />
    <glyph glyph-name=".notdef" horiz-adv-x="500" 
d="M0 0v700h500v-700h-500zM277 350l173 -272v543zM222 350l-172 271v-543zM250 306l-163 -256h326zM86 651l164 -258l164 258h-328z" />
    <glyph glyph-name=".null" horiz-adv-x="0" 
 />
    <glyph glyph-name="nonmarkingreturn" horiz-adv-x="333" 
 />
    <glyph glyph-name="space" unicode=" " horiz-adv-x="120" 
 />
    <glyph glyph-name="exclam" unicode="!" horiz-adv-x="213" 
d="M60 220l-45 277v203h183v-203l-45 -277h-93zM25 0v173h163v-173h-163z" />
    <glyph glyph-name="quotedbl" unicode="&#x22;" horiz-adv-x="375" 
d="M20 400l-5 300h163v-113l-45 -187h-113zM202 400l-5 300h163v-113l-45 -187h-113z" />
    <glyph glyph-name="numbersign" unicode="#" horiz-adv-x="628" 
d="M60 418l22 133h68l26 149h143l-26 -149h97l26 149h143l-26 -149h88l-22 -133h-90l-27 -157h86l-22 -133h-88l-22 -128h-143l22 128h-97l-22 -128h-142l22 128h-69l22 133h70l28 157h-67zM269 418l-27 -157h97l27 157h-97z" />
    <glyph glyph-name="dollar" unicode="$" horiz-adv-x="447" 
d="M165 -81v75q-93 3 -123 43t-30 142v62h193v-72q0 -19 16 -19h5q16 0 16 19v44q0 8 -1 13.5t-2 9t-6.5 7t-8 5t-13 5.5t-16.5 7l-66 24q-33 13 -49.5 22t-34.5 26t-25.5 43.5t-7.5 66.5v79q0 101 29.5 138.5t123.5 43.5v71h114v-71q93 -6 123 -43.5t30 -138.5v-60h-193v70
q0 19 -16 19h-2q-16 0 -16 -19v-29q0 -30 9 -39.5t54 -25.5l58 -21q32 -11 47.5 -19t32.5 -24.5t23 -42.5t6 -67v-84q0 -100 -29.5 -135t-126.5 -45v-80h-114z" />
    <glyph glyph-name="percent" unicode="%" horiz-adv-x="684" 
d="M131 704h26q69 0 92.5 -27t23.5 -89v-194q0 -62 -23.5 -89.5t-92.5 -27.5h-26q-69 0 -92.5 27.5t-23.5 89.5v194q0 62 23.5 89t92.5 27zM527 422h26q69 0 92.5 -27t23.5 -89v-194q0 -62 -23.5 -89.5t-92.5 -27.5h-26q-69 0 -92.5 27.5t-23.5 89.5v194q0 62 23.5 89
t92.5 27zM547 331h-14q-8 0 -8 -11v-222q0 -11 8 -11h14q8 0 8 11v222q0 11 -8 11zM151 613h-14q-8 0 -8 -11v-222q0 -11 8 -11h14q8 0 8 11v222q0 11 -8 11zM170 0l232 700h113l-233 -700h-112z" />
    <glyph glyph-name="ampersand" unicode="&#x26;" horiz-adv-x="514" 
d="M352 700v-155h-108q-16 0 -16 -19v-68q0 -18 12 -19h262v-125l-67 -10v-304h-211q-52 0 -78 1t-54.5 7.5t-39.5 17t-21.5 32.5t-13 51t-2.5 75v61q0 79 21 103.5t91 28.5q-56 7 -74 33.5t-18 97.5v8q0 79 15.5 116t59 52.5t134.5 15.5h108zM242 155v149h-18
q-16 0 -16 -19v-111q0 -19 16 -19h18z" />
    <glyph glyph-name="quotesingle" unicode="'" horiz-adv-x="193" 
d="M20 400l-5 300h163v-113l-45 -187h-113z" />
    <glyph glyph-name="parenleft" unicode="(" horiz-adv-x="237" 
d="M178 570v-510q0 -68 8 -91q9 -24 32 -59l-63 -50q-70 50 -94 76q-46 51 -46 124v510q0 73 46 124q24 26 94 76l63 -50q-23 -35 -32 -59q-8 -23 -8 -91z" />
    <glyph glyph-name="parenright" unicode=")" horiz-adv-x="237" 
d="M59 60v510q0 68 -8 91q-9 24 -32 59l63 50q70 -50 94 -76q46 -51 46 -124v-510q0 -73 -46 -124q-24 -26 -94 -76l-63 50q23 35 32 59q8 23 8 91z" />
    <glyph glyph-name="asterisk" unicode="*" horiz-adv-x="373" 
d="M323 382l-54 32l-60 69l16 29l90 -18l55 -31zM148 518l-90 18l-55 31l47 81l54 -32l60 -69zM164 483l-60 -69l-54 -32l-47 81l55 31l90 18zM370 567l-55 -31l-90 -18l-16 29l60 69l54 32zM140 330v63l30 87h33l30 -87v-63h-93zM170 550l-30 87v63h93v-63l-30 -87h-33z
" />
    <glyph glyph-name="plus" unicode="+" horiz-adv-x="370" 
d="M10 296v125h112v107h125v-107h113v-125h-113v-108h-125v108h-112z" />
    <glyph glyph-name="comma" unicode="," horiz-adv-x="193" 
d="M15 0v173h163v-143q0 -43 -18 -82t-62 -101l-70 34q9 21 17.5 40.5t11 25t5 15t3 16t0.5 22.5h-50z" />
    <glyph glyph-name="hyphen" unicode="-" horiz-adv-x="300" 
d="M10 226v150h280v-150h-280z" />
    <glyph glyph-name="period" unicode="." horiz-adv-x="193" 
d="M15 0v173h163v-173h-163z" />
    <glyph glyph-name="slash" unicode="/" horiz-adv-x="275" 
d="M0 -30l162 770h113l-163 -770h-112z" />
    <glyph glyph-name="zero" unicode="0" horiz-adv-x="452" 
d="M221 705h10q91 0 134.5 -16.5t59 -53.5t15.5 -114v-342q0 -77 -15.5 -114t-59 -53.5t-134.5 -16.5h-10q-131 0 -170 36.5t-39 147.5v342q0 77 15.5 114t59 53.5t134.5 16.5zM221 150h10q16 0 16 19v362q0 19 -16 19h-10q-16 0 -16 -19v-362q0 -19 16 -19z" />
    <glyph glyph-name="one" unicode="1" horiz-adv-x="420" 
d="M-20 625l190 75h143v-545h100v-155h-383v155h90v354l-107 -19z" />
    <glyph glyph-name="two" unicode="2" horiz-adv-x="409" 
d="M7 0v157q0 78 50 130l110 115q31 29 40 52t9 55v22q0 19 -16 19h-4q-16 0 -16 -19v-82h-173v72q0 109 42 146.5t157 37.5h20q56 0 90 -11t51 -37t22.5 -56t5.5 -80v-32q0 -55 -14.5 -88t-53.5 -73l-77 -82q-60 -56 -60 -81v-10h207v-155h-390z" />
    <glyph glyph-name="three" unicode="3" horiz-adv-x="417" 
d="M93 274v155h110q16 0 16 19v83q0 19 -16 19h-4q-16 0 -16 -19v-58h-178v48q0 60 6.5 92.5t29 55t61 29.5t107.5 7h14q114 0 151.5 -36t37.5 -148v-28q0 -75 -20.5 -102.5t-84.5 -33.5q65 -4 85 -29.5t20 -102.5v-46q0 -29 -3 -52.5t-6.5 -41.5t-12.5 -31.5t-15.5 -22.5
t-22 -15.5t-25 -10t-31 -5.5t-34 -3t-39.5 -2q-97 -4 -143 12.5t-60.5 53.5t-14.5 118v48h178v-58q0 -19 16 -19h4q16 0 16 19v86q0 19 -16 19h-110z" />
    <glyph glyph-name="four" unicode="4" horiz-adv-x="520" 
d="M0 265l150 435h275v-435h85v-135h-85v-130h-193v130h-232v135zM230 541l-37 -276h39v276h-2z" />
    <glyph glyph-name="five" unicode="5" horiz-adv-x="415" 
d="M28 700h360v-165h-197v-76h10q115 0 145 -10q43 -15 55 -70q9 -39 9 -124v-76q0 -46 -2.5 -75t-13 -51t-21.5 -32.5t-39.5 -17t-54.5 -7.5t-78 -1q-122 0 -159 35.5t-37 148.5v73h178v-83q0 -19 16 -19h2q16 0 16 19v116q0 19 -16 19h-183z" />
    <glyph glyph-name="six" unicode="6" horiz-adv-x="432" 
d="M240 429h8q41 0 65 -2t47 -9.5t33.5 -19.5t19.5 -36t11.5 -56t2.5 -81v-46q0 -60 -7.5 -93t-31 -55t-63 -29t-109.5 -7q-66 0 -107 10.5t-62 36t-28 56.5t-7 81v332q0 60 7.5 94.5t30.5 58.5t63 32.5t108 8.5h12q97 0 135.5 -37.5t38.5 -146.5v-53h-178v63q0 17 -5 18
q-2 1 -6 1h-5q-9 0 -11 -4t-2 -15v-110q12 8 40 8zM218 274h-8q-10 0 -10 -3v-102q0 -19 16 -19h2q16 0 16 19v86q0 19 -16 19z" />
    <glyph glyph-name="seven" unicode="7" horiz-adv-x="385" 
d="M0 535v165h380v-170l-120 -530h-208l120 510v25h-172z" />
    <glyph glyph-name="eight" unicode="8" horiz-adv-x="455" 
d="M224 -5q-134 0 -176.5 36t-42.5 148v46q0 79 21 103.5t91 28.5q-52 6 -71 29t-21 82v53q0 60 6.5 92.5t29 55t61 29.5t107.5 7h2q91 0 134.5 -15.5t59 -52.5t15.5 -116v-33q0 -72 -19 -98.5t-77 -32.5q66 -4 86 -29t20 -103v-46q0 -112 -42.5 -148t-176.5 -36h-7z
M241 150q16 0 16 19v86q0 19 -16 19h-31q-12 -1 -12 -19v-86q0 -19 16 -19h27zM231 550h-12q-16 0 -16 -19v-83q0 -19 16 -19h15q13 1 13 19v83q0 19 -16 19z" />
    <glyph glyph-name="nine" unicode="9" horiz-adv-x="432" 
d="M192 256h-8q-41 0 -65 2t-47 9.5t-33.5 19.5t-19.5 36t-11.5 56t-2.5 81v61q0 79 15.5 116t59 52.5t134.5 15.5h2q66 0 107 -10.5t62 -36t28 -56.5t7 -81v-332q0 -41 -2.5 -67t-10 -50t-21.5 -37t-38 -23t-57.5 -13.5t-81.5 -3.5q-46 0 -76.5 3t-53 12t-34.5 20.5
t-19 34.5t-9 48t-2 66v28h178v-38q0 -19 16 -19h7q16 0 16 19v94q-11 -7 -40 -7zM214 411h8q8 0 9 1.5t1 8.5v5v105q0 19 -16 19h-2q-16 0 -16 -19v-101q0 -19 16 -19z" />
    <glyph glyph-name="colon" unicode=":" horiz-adv-x="193" 
d="M15 0v173h163v-173h-163zM15 427v173h163v-173h-163z" />
    <glyph glyph-name="semicolon" unicode=";" horiz-adv-x="193" 
d="M15 0v173h163v-143q0 -43 -18 -82t-62 -101l-70 34q9 21 17.5 40.5t11 25t5 15t3 16t0.5 22.5h-50zM15 427v173h163v-173h-163z" />
    <glyph glyph-name="less" unicode="&#x3c;" horiz-adv-x="350" 
d="M340 419l-152 -55l152 -55v-150l-330 140v130l330 140v-150z" />
    <glyph glyph-name="equal" unicode="=" horiz-adv-x="370" 
d="M10 376v120h350v-120h-350zM10 216v120h350v-120h-350z" />
    <glyph glyph-name="greater" unicode="&#x3e;" horiz-adv-x="350" 
d="M162 364l-152 55v150l330 -140v-130l-330 -140v150z" />
    <glyph glyph-name="question" unicode="?" horiz-adv-x="418" 
d="M204 705q122 0 165.5 -37.5t43.5 -146.5v-52q0 -38 -13.5 -64.5t-54.5 -56.5q-11 -8 -26.5 -19t-22 -16t-16 -12.5t-13 -12t-8 -10.5t-5.5 -11.5t-1 -12.5v-35h-143v79q0 25 8.5 43t16 25t30.5 27q9 8 24 20.5t20.5 17.5t13 13.5t9.5 16t2 18.5v52q0 19 -16 19h-24
q-16 0 -16 -19v-82h-173v72q0 109 42 146.5t157 37.5zM101 0v173h163v-173h-163z" />
    <glyph glyph-name="at" unicode="@" horiz-adv-x="565" 
d="M285 549q55 0 88.5 -8t48.5 -29t19 -42.5t4 -61.5v-293q0 -17 1 -23t5 -10t14 -4q27 0 33.5 10.5t6.5 36.5v358q0 27 -3 45t-13 38.5t-33.5 31t-60.5 10.5h-225q-37 0 -60.5 -10.5t-33.5 -31t-13 -38.5t-3 -45v-388q0 -27 3 -45t13 -38.5t33.5 -31t60.5 -10.5h305v-38
h-305q-85 0 -120 38t-35 125v388q0 87 35 125t120 38h225q85 0 120 -38t35 -125v-368q0 -32 -7 -52.5t-22 -28.5t-26 -10t-30 -2q-77 0 -104 6.5t-41 33.5q-1 -1 -4.5 -5.5t-5 -6l-5.5 -5.5t-7.5 -5.5t-9 -4t-12 -3.5t-13.5 -1h-11q-74 0 -107.5 27t-33.5 104v90
q0 80 25.5 106t95.5 26h58v16q0 21 -7 21h-137v123zM282 167h1q4 0 7 1v108h-8q-15 0 -15 -33v-55q0 -14 2 -17.5t13 -3.5z" />
    <glyph glyph-name="A" unicode="A" horiz-adv-x="467" 
d="M385 700l80 -700h-193l-6 105h-65l-6 -105h-193l80 700h303zM230 535l-20 -265h46l-20 265h-6z" />
    <glyph glyph-name="B" unicode="B" horiz-adv-x="439" 
d="M12 0v700h211q91 0 134.5 -15.5t59 -52.5t15.5 -116v-28q0 -73 -19.5 -99.5t-80.5 -31.5q62 -4 81 -30t19 -102v-41q0 -46 -2.5 -75t-13 -51t-21.5 -32.5t-39.5 -17t-54.5 -7.5t-78 -1h-211zM205 284v-129h18q16 0 16 19v91q0 19 -16 19h-18zM205 545v-126h18q16 0 16 19
v88q0 19 -16 19h-18z" />
    <glyph glyph-name="C" unicode="C" horiz-adv-x="452" 
d="M221 705h10q91 0 134.5 -16.5t59 -53.5t15.5 -114v-132h-193v142q0 19 -16 19h-10q-16 0 -16 -19v-362q0 -19 16 -19h10q16 0 16 19v162h193v-152q0 -78 -16 -114.5t-61.5 -52.5t-141.5 -17q-131 -1 -170 35t-39 149v342q0 77 15.5 114t59 53.5t134.5 16.5z" />
    <glyph glyph-name="D" unicode="D" horiz-adv-x="447" 
d="M12 0v700h219q91 0 134.5 -16.5t59 -53.5t15.5 -114v-332q0 -77 -15.5 -114t-59 -53.5t-134.5 -16.5h-219zM231 545h-26v-390h26q16 0 16 19v352q0 19 -16 19z" />
    <glyph glyph-name="E" unicode="E" horiz-adv-x="381" 
d="M208 275v-110h163v-165h-356v700h356v-165h-163v-95h143v-165h-143z" />
    <glyph glyph-name="F" unicode="F" horiz-adv-x="371" 
d="M208 255v-255h-193v700h351v-165h-158v-115h138v-165h-138z" />
    <glyph glyph-name="G" unicode="G" horiz-adv-x="452" 
d="M221 705h10q91 0 134.5 -16.5t59 -53.5t15.5 -114v-72h-193v82q0 19 -16 19h-10q-16 0 -16 -19v-362q0 -19 16 -19h10q16 0 16 19v77h-27v155h220v-222q0 -78 -16 -114.5t-61.5 -52.5t-141.5 -17q-131 -1 -170 35t-39 149v342q0 77 15.5 114t59 53.5t134.5 16.5z" />
    <glyph glyph-name="H" unicode="H" horiz-adv-x="458" 
d="M15 0v700h193v-260h42v260h193v-700h-193v275h-42v-275h-193z" />
    <glyph glyph-name="I" unicode="I" horiz-adv-x="223" 
d="M15 0v700h193v-700h-193z" />
    <glyph glyph-name="J" unicode="J" horiz-adv-x="314" 
d="M3 0v170h90q16 0 16 19v511h193v-483q0 -42 -1.5 -72t-6.5 -55t-11 -41t-19 -28t-26 -17.5t-37 -8.5t-47.5 -2.5t-60.5 2.5z" />
    <glyph glyph-name="K" unicode="K" horiz-adv-x="462" 
d="M208 236v-236h-193v700h193v-240h1l38 240h213l-82 -357l82 -343h-213l-36 236h-3z" />
    <glyph glyph-name="L" unicode="L" horiz-adv-x="358" 
d="M15 0v700h193v-535h148v-165h-341z" />
    <glyph glyph-name="M" unicode="M" horiz-adv-x="603" 
d="M15 700h233l49 -289h8l50 289h233v-700h-183l9 343h-7l-39 -343h-133l-39 343h-8l10 -343h-183v700z" />
    <glyph glyph-name="N" unicode="N" horiz-adv-x="453" 
d="M15 700h183l64 -265h3v265h173v-700h-193l-45 236h-2v-236h-183v700z" />
    <glyph glyph-name="O" unicode="O" horiz-adv-x="452" 
d="M221 705h10q91 0 134.5 -16.5t59 -53.5t15.5 -114v-342q0 -77 -15.5 -114t-59 -53.5t-134.5 -16.5h-10q-131 0 -170 36.5t-39 147.5v342q0 77 15.5 114t59 53.5t134.5 16.5zM221 150h10q16 0 16 19v362q0 19 -16 19h-10q-16 0 -16 -19v-362q0 -19 16 -19z" />
    <glyph glyph-name="P" unicode="P" horiz-adv-x="447" 
d="M12 0v700h219q131 0 170 -36.5t39 -147.5v-127q0 -77 -15.5 -114t-59 -53.5t-134.5 -16.5h-26v-205h-193zM231 545h-26v-185h26q16 0 16 19v147q0 19 -16 19z" />
    <glyph glyph-name="Q" unicode="Q" horiz-adv-x="452" 
d="M221 705h10q91 0 134.5 -16.5t59 -53.5t15.5 -114v-342q0 -71 -13 -108.5t-49 -54.5l37 -105h-143l-49 84h-2q-131 0 -170 36.5t-39 147.5v342q0 77 15.5 114t59 53.5t134.5 16.5zM221 150h10q16 0 16 19v362q0 19 -16 19h-10q-16 0 -16 -19v-362q0 -19 16 -19z" />
    <glyph glyph-name="R" unicode="R" horiz-adv-x="447" 
d="M12 0v700h219q91 0 134.5 -16.5t59 -53.5t15.5 -114v-58q0 -77 -20 -102.5t-84 -29.5q64 -7 84 -35t20 -106v-185h-193v205q0 39 -16 39h-26v-244h-193zM205 545v-156h26q16 0 16 19v118q0 19 -16 19h-26z" />
    <glyph glyph-name="S" unicode="S" horiz-adv-x="433" 
d="M214 705h2q91 0 134.5 -16.5t59 -53.5t15.5 -114v-60h-193v70q0 19 -16 19h-2q-16 0 -16 -19v-29q0 -30 9 -39.5t54 -25.5l58 -21q32 -11 47.5 -19t32.5 -24.5t23 -42.5t6 -67v-84q0 -58 -7 -90t-31.5 -53t-62.5 -29t-108 -12q-69 -4 -110.5 3t-65 30.5t-31 57.5t-7.5 93
v62h193v-72q0 -19 16 -19h5q16 0 16 19v44q0 8 -1 13.5t-2 9t-6.5 7t-8 5t-13 5.5t-16.5 7l-66 24q-33 13 -49.5 22t-34.5 26t-25.5 43.5t-7.5 66.5v79q0 77 15.5 114t59 53.5t134.5 16.5z" />
    <glyph glyph-name="T" unicode="T" horiz-adv-x="417" 
d="M305 535v-535h-193v535h-110v165h413v-165h-110z" />
    <glyph glyph-name="U" unicode="U" horiz-adv-x="452" 
d="M12 700h193v-531q0 -19 16 -19h10q16 0 16 19v531h193v-521q0 -77 -15.5 -114t-59 -53.5t-134.5 -16.5h-10q-91 0 -134.5 16.5t-59 53.5t-15.5 114v521z" />
    <glyph glyph-name="V" unicode="V" horiz-adv-x="497" 
d="M495 700l-100 -700h-293l-100 700h193l51 -454h4l52 454h193z" />
    <glyph glyph-name="W" unicode="W" horiz-adv-x="679" 
d="M2 700h193l31 -434h5l31 434h155l31 -434h5l31 434h193l-60 -700h-253l-24 244h-2l-23 -244h-253z" />
    <glyph glyph-name="X" unicode="X" horiz-adv-x="471" 
d="M470 700l-113 -353l113 -347h-193l-42 173l-41 -173h-193l113 347l-113 353h193l41 -177l42 177h193z" />
    <glyph glyph-name="Y" unicode="Y" horiz-adv-x="471" 
d="M139 0v247l-138 453h193l41 -227l42 227h193l-138 -453v-247h-193z" />
    <glyph glyph-name="Z" unicode="Z" horiz-adv-x="384" 
d="M7 535v165h370v-165l-147 -370h147v-165h-370v165l157 370h-157z" />
    <glyph glyph-name="bracketleft" unicode="[" horiz-adv-x="308" 
d="M183 611v-562h115v-129h-278v820h278v-129h-115z" />
    <glyph glyph-name="backslash" unicode="\" horiz-adv-x="275" 
d="M113 740l162 -770h-112l-163 770h113z" />
    <glyph glyph-name="bracketright" unicode="]" horiz-adv-x="308" 
d="M125 49v562h-115v129h278v-820h-278v129h115z" />
    <glyph glyph-name="asciicircum" unicode="^" horiz-adv-x="450" 
d="M280 440l-55 130l-55 -130h-140l130 260h130l130 -260h-140z" />
    <glyph glyph-name="underscore" unicode="_" horiz-adv-x="480" 
d="M-5 -151v125h490v-125h-490z" />
    <glyph glyph-name="grave" unicode="`" horiz-adv-x="500" 
d="M298 742l65 -119h-122l-125 119h182z" />
    <glyph glyph-name="a" unicode="a" horiz-adv-x="418" 
d="M214 454h-5q-9 0 -9 -15v-45h-170v45q0 48 3.5 72t19.5 49t52.5 35t97.5 10h14q44 0 76 -4.5t52.5 -15t33 -22.5t18.5 -33.5t7.5 -40.5t1.5 -50v-432q-129 -12 -224 -12h-12q-86 0 -121.5 31.5t-35.5 123.5v70q0 95 27.5 125t109.5 30h73v58q0 14 -1.5 17.5t-7.5 3.5z
M196 210v-30q0 -17 2.5 -21t15.5 -4h1q4 0 8 1v93h-9q-18 0 -18 -39z" />
    <glyph glyph-name="b" unicode="b" 
d="M12 0v730h183v-130h78q83 0 110 -28t27 -122v-300q0 -92 -35.5 -123.5t-121.5 -31.5h-12zM209 445h-14v-290h14q13 0 15.5 4t2.5 21v240q0 17 -2.5 21t-15.5 4z" />
    <glyph glyph-name="c" unicode="c" horiz-adv-x="422" 
d="M207 605h8q65 0 105 -10t59.5 -33.5t25 -50t5.5 -72.5v-108h-183v108q0 6 -0.5 8.5t-3 4.5t-8.5 2h-8q-8 0 -10 -3t-2 -12v-278q0 -6 0.5 -8.5t3 -4.5t8.5 -2h8q8 0 10 3t2 12v98h183v-98q0 -46 -6 -72.5t-25.5 -50t-61.5 -33.5t-110 -10q-65 0 -105 10t-59.5 33.5
t-25 50t-5.5 72.5v278q0 46 5.5 72.5t25 50t59.5 33.5t105 10z" />
    <glyph glyph-name="d" unicode="d" 
d="M13 150v300q0 94 27 122t110 28h78v130h183v-730q-136 -5 -229 -5h-12q-86 0 -121.5 31.5t-35.5 123.5zM228 155v290h-14q-13 0 -15.5 -4t-2.5 -21v-240q0 -17 2.5 -21t15.5 -4h14z" />
    <glyph glyph-name="e" unicode="e" horiz-adv-x="419" 
d="M207 -5q-65 0 -104.5 10t-59 33.5t-25.5 50.5t-6 72v278q0 46 5.5 72.5t25 50t59.5 33.5t105 10h5q65 0 105 -10t59.5 -33.5t25 -50t5.5 -72.5v-205l-212 -5v-73q0 -6 0.5 -8.5t3 -4.5t8.5 -2h10q8 0 10 3t2 12v48h178v-43q0 -47 -5 -72.5t-24 -49.5t-60.5 -34
t-110.5 -10zM207 459q-8 0 -10 -3t-2 -12v-93h38v93q0 6 -0.5 8.5t-3 4.5t-8.5 2h-14z" />
    <glyph glyph-name="f" unicode="f" horiz-adv-x="296" 
d="M293 600v-155h-68v-445h-183v445h-39v155h39v9q0 56 8 87t33.5 48t58 21.5t95.5 4.5q17 0 31 -1t20 -3l5 -1v-146h-56q-12 0 -12 -10v-9h68z" />
    <glyph glyph-name="g" unicode="g" 
d="M13 450q0 92 35.5 123.5t121.5 31.5h12l229 -5v-580q0 -56 -5.5 -85t-26.5 -51t-61.5 -27.5t-112.5 -1.5q-47 4 -74.5 7t-50 12.5t-32 17t-15.5 29t-7 40.5t-1 59v28h163v-28q0 -14 8 -15h20q8 0 10 3t2 12v45h-58q-86 0 -121.5 31.5t-35.5 123.5v230zM228 225v220h-14
q-13 0 -15.5 -4t-2.5 -21v-170q0 -17 2.5 -21t15.5 -4h14z" />
    <glyph glyph-name="h" unicode="h" 
d="M227 0v420q0 17 -2.5 21t-15.5 4h-14v-445h-183v730h183v-130h88q81 0 104 -27t23 -123v-450h-183z" />
    <glyph glyph-name="i" unicode="i" horiz-adv-x="207" 
d="M12 0v600h183v-600h-183zM10 620v110h187v-110h-187z" />
    <glyph glyph-name="j" unicode="j" horiz-adv-x="207" 
d="M78 -141l-116 94q6 8 16.5 23.5t13.5 20.5t9 17.5t7 23.5t2.5 29t1.5 43v490h183v-510q0 -27 -1.5 -48t-9 -41t-10 -30t-18.5 -29.5t-19.5 -24t-28 -28.5t-30.5 -30zM10 620v110h187v-110h-187z" />
    <glyph glyph-name="k" unicode="k" horiz-adv-x="463" 
d="M247 0l-44 226h-8v-226h-183v730h183v-333h7l45 203h213l-76 -291l76 -309h-213z" />
    <glyph glyph-name="l" unicode="l" horiz-adv-x="207" 
d="M12 0v730h183v-730h-183z" />
    <glyph glyph-name="m" unicode="m" horiz-adv-x="637" 
d="M12 0v600q249 5 443 5h12q86 0 121.5 -31.5t35.5 -123.5v-450h-183v420q0 17 -2.5 21t-15.5 4h-13v-445h-183v420q0 17 -2.5 21t-15.5 4h-14v-445h-183z" />
    <glyph glyph-name="n" unicode="n" 
d="M227 0v420q0 17 -2.5 21t-15.5 4h-14v-445h-183v600q158 5 229 5h12q86 0 121.5 -31.5t35.5 -123.5v-450h-183z" />
    <glyph glyph-name="o" unicode="o" horiz-adv-x="422" 
d="M207 605h8q65 0 105 -10t59.5 -33.5t25 -50t5.5 -72.5v-278q0 -46 -5.5 -72.5t-25 -50t-59.5 -33.5t-105 -10h-8q-65 0 -105 10t-59.5 33.5t-25 50t-5.5 72.5v278q0 46 5.5 72.5t25 50t59.5 33.5t105 10zM207 146h8q8 0 10 3t2 12v278q0 6 -0.5 8.5t-3 4.5t-8.5 2h-8
q-8 0 -10 -3t-2 -12v-278q0 -6 0.5 -8.5t3 -4.5t8.5 -2z" />
    <glyph glyph-name="p" unicode="p" 
d="M12 -130v730q146 5 229 5h12q86 0 121.5 -31.5t35.5 -123.5v-300q0 -94 -27 -122t-110 -28h-78v-130h-183zM209 445h-14v-290h14q13 0 15.5 4t2.5 21v240q0 17 -2.5 21t-15.5 4z" />
    <glyph glyph-name="q" unicode="q" 
d="M13 150v300q0 92 35.5 123.5t121.5 31.5h12l229 -5v-730h-183v130h-68q-85 0 -116 29t-31 121zM228 155v290h-14q-13 0 -15.5 -4t-2.5 -21v-240q0 -17 2.5 -21t15.5 -4h14z" />
    <glyph glyph-name="r" unicode="r" horiz-adv-x="318" 
d="M12 0v500q0 33 13 55.5t34.5 32.5t38.5 13.5t34 3.5h15l166 -5v-150l-111 -17q-7 -1 -7 -11v-422h-183z" />
    <glyph glyph-name="s" unicode="s" horiz-adv-x="415" 
d="M209 605h1q65 0 103.5 -9.5t56 -34.5t21.5 -49.5t4 -72.5v-39h-173v44q0 6 -0.5 8.5t-3 4.5t-8.5 2h-1q-8 0 -10 -3t-2 -12v-18q0 -17 4.5 -22.5t28.5 -14.5l82 -27q53 -17 73 -44t20 -81v-68q0 -46 -5.5 -73.5t-25 -53t-60 -36.5t-105.5 -11t-105 10t-59.5 33.5t-25 50
t-5.5 72.5v53h183v-58q0 -6 0.5 -8.5t3 -4.5t8.5 -2h1q12 0 12 23v40v5t-1 3.5t-1.5 2.5t-2 2.5t-3 2.5t-5 2.5t-5.5 2t-7.5 2.5t-9.5 4l-80 30q-34 14 -50.5 24.5t-29.5 36t-13 67.5v50q0 46 5.5 72.5t25 50t59.5 33.5t105 10z" />
    <glyph glyph-name="t" unicode="t" horiz-adv-x="310" 
d="M295 600v-155h-68v-279q0 -10 12 -10h66v-156l-66 -5q-117 -6 -156 24t-39 137v289h-39v155h39v130h183v-130h68z" />
    <glyph glyph-name="u" unicode="u" 
d="M196 600v-420q0 -17 2.5 -21t15.5 -4h14v445h183v-600q-123 -5 -229 -5h-12q-86 0 -121.5 31.5t-35.5 123.5v450h183z" />
    <glyph glyph-name="v" unicode="v" horiz-adv-x="457" 
d="M457 600l-95 -600h-267l-95 600h193l32 -385h7l32 385h193z" />
    <glyph glyph-name="w" unicode="w" horiz-adv-x="663" 
d="M345 0l-13 180h-2l-12 -180h-243l-75 600h193l19 -385h6l32 385h163l32 -385h5l20 385h193l-75 -600h-243z" />
    <glyph glyph-name="x" unicode="x" horiz-adv-x="445" 
d="M445 600l-77 -304l77 -296h-193l-30 168l-29 -168h-193l77 296l-77 304h193l29 -173l30 173h193z" />
    <glyph glyph-name="y" unicode="y" horiz-adv-x="467" 
d="M105 10l-105 590h186l40 -338h6l66 338h169l-143 -730h-168l27 140h-78z" />
    <glyph glyph-name="z" unicode="z" horiz-adv-x="386" 
d="M383 155v-155h-380v155l157 290h-147v155h367v-155l-154 -290h157z" />
    <glyph glyph-name="braceleft" unicode="{" horiz-adv-x="294" 
d="M5 268v95q3 0 7.5 1.5t16 7t20.5 13.5t16 23.5t7 34.5v127q0 73 46 124q24 26 94 76l63 -50q-23 -35 -32 -59q-8 -23 -8 -91v-127q0 -82 -62 -128q62 -46 62 -127v-127q0 -68 8 -91q9 -24 32 -59l-63 -50q-70 50 -94 76q-46 51 -46 124v127q0 22 -8.5 38.5t-22 25
t-21.5 11.5t-15 5z" />
    <glyph glyph-name="bar" unicode="|" horiz-adv-x="223" 
d="M40 -80v840h143v-840h-143z" />
    <glyph glyph-name="braceright" unicode="}" horiz-adv-x="294" 
d="M289 363v-95q-7 -2 -15 -5t-21.5 -11.5t-22 -25t-8.5 -38.5v-127q0 -73 -46 -124q-24 -26 -94 -76l-63 50q23 35 32 59q8 23 8 91v127q0 81 62 127q-62 46 -62 128v127q0 68 -8 91q-9 24 -32 59l63 50q70 -50 94 -76q46 -51 46 -124v-127q0 -31 17 -51t33 -24z" />
    <glyph glyph-name="asciitilde" unicode="~" horiz-adv-x="400" 
d="M241 290l-82 65v-66h-100v146h100l82 -28v29h100v-146h-100z" />
    <glyph glyph-name="uni00A0" unicode="&#xa0;" horiz-adv-x="120" 
 />
    <glyph glyph-name="exclamdown" unicode="&#xa1;" horiz-adv-x="213" 
d="M15 203l45 277h93l45 -277v-203h-183v203zM25 527v173h163v-173h-163z" />
    <glyph glyph-name="cent" unicode="&#xa2;" horiz-adv-x="422" 
d="M155 -45v72q-48 4 -77 16t-43.5 35t-18.5 47.5t-4 65.5v278q0 41 4.5 65.5t18.5 47.5t43 35t77 16v67h114v-67q88 -8 114.5 -45.5t26.5 -118.5v-108h-183v108q0 6 -0.5 8.5t-3 4.5t-8.5 2h-8q-8 0 -10 -3t-2 -12v-278q0 -6 0.5 -8.5t3 -4.5t8.5 -2h8q8 0 10 3t2 12v98
h183v-98q0 -81 -26 -118t-115 -46v-72h-114z" />
    <glyph glyph-name="sterling" unicode="&#xa3;" horiz-adv-x="516" 
d="M261 550q-16 0 -16 -19v-135h177v-150h-177v-91h256v-155h-500v155h51v91h-50v150h50v125q0 77 15.5 114t59 53.5t134.5 16.5h10q91 0 134.5 -16.5t59 -53.5t15.5 -114v-72h-193v82q0 19 -16 19h-10z" />
    <glyph glyph-name="yen" unicode="&#xa5;" horiz-adv-x="471" 
d="M30 286v90h70l-99 324h193l41 -227l42 227h193l-99 -324h69v-90h-97l-9 -30h106v-90h-108v-166h-193v166h-109v90h106l-9 30h-97z" />
    <glyph glyph-name="section" unicode="&#xa7;" horiz-adv-x="500" 
d="M426 580h-198q-9 0 -9 -9v-2q0 -4 1 -7.5t3 -6t4.5 -4t7 -3t8 -2.5t10 -2t11 -1.5t13 -1t14.5 -1.5l92 -7q64 -5 85.5 -33.5t22.5 -88.5v-70q0 -65 -56 -92q19 -35 19 -85v-8q0 -109 -37 -137t-172 -24l-171 5v120h200h3q14 0 14 8v6q0 13 -17 18t-54 9q-7 1 -11 1
l-92 11q-64 8 -85.5 35.5t-22.5 86.5v47q0 42 16.5 70t38.5 37q-18 35 -18 84v8q0 64 15 98t60.5 51t133.5 15l171 -5v-120zM284 384l-128 28v-57q0 -5 0.5 -8t1.5 -5.5t3.5 -4.5t5 -3t8 -2.5t10.5 -2.5t14 -3t17 -4l60 -13l68 -15v57q0 5 -0.5 8t-1.5 5.5t-3.5 4.5t-5 3
t-8 2.5t-10.5 2.5t-14 3t-17 4z" />
    <glyph glyph-name="dieresis" unicode="&#xa8;" horiz-adv-x="500" 
d="M120 623v119h119v-119h-119zM260 623v119h119v-119h-119z" />
    <glyph glyph-name="copyright" unicode="&#xa9;" horiz-adv-x="539" 
d="M195 700h149q88 0 134 -42t46 -122v-372q0 -80 -46 -122t-134 -42h-149q-88 0 -134 42.5t-46 121.5v372q0 80 46 122t134 42zM195 26h149q76 0 113 36.5t37 101.5v372q0 138 -150 138h-149q-150 0 -150 -138v-372q0 -64 37 -101t113 -37zM265 607h8q96 0 124 -26t28 -109
v-96h-141v104q0 13 -11 13h-8q-11 0 -11 -13v-265q0 -14 11 -14h8q11 0 11 14v119h141v-111q0 -83 -29.5 -109t-130.5 -26q-96 0 -124 26t-28 109v249q0 83 28 109t124 26z" />
    <glyph glyph-name="ordfeminine" unicode="&#xaa;" horiz-adv-x="277" 
d="M144 705h2q75 0 94 -22t19 -78v-256q-80 -10 -134 -10h-7q-51 0 -72.5 19t-21.5 74v42q0 57 17 75t67 18h42v35q0 12 -6 12h-3q-5 0 -5 -9v-27h-102v27q0 29 2.5 43.5t12.5 30t33 21t62 5.5zM257 299v-104h-236v104h236zM144 435h6v56h-6q-11 0 -11 -23v-18
q0 -10 1.5 -12.5t9.5 -2.5z" />
    <glyph glyph-name="guillemotleft" unicode="&#xab;" horiz-adv-x="383" 
d="M249 97l-80 188v18l80 188h130l-57 -188v-18l57 -188h-130zM2 285v18l100 188h120l-67 -188v-18l67 -188h-120z" />
    <glyph glyph-name="registered" unicode="&#xae;" horiz-adv-x="335" 
d="M212 280h-89q-108 0 -108 98v224q0 98 108 98h89q108 0 108 -98v-224q0 -98 -108 -98zM123 297h89q90 0 90 81v224q0 81 -90 81h-89q-90 0 -90 -81v-224q0 -81 90 -81zM163 450v-98h-77v280h87q53 0 68.5 -14.5t15.5 -59.5v-23q0 -30 -8 -41t-32 -12q24 -3 32 -14.5
t8 -41.5v-74h-77v82q0 16 -7 16h-10zM173 570h-10v-62h10q7 0 7 7v47q0 8 -7 8z" />
    <glyph glyph-name="macron" unicode="&#xaf;" horiz-adv-x="500" 
d="M120 627v105h259v-105h-259z" />
    <glyph glyph-name="degree" unicode="&#xb0;" horiz-adv-x="277" 
d="M121 705h37q74 0 93 -21.5t19 -89.5v-175q0 -67 -19 -89t-93 -22h-37q-76 0 -95 22t-19 89v175q0 68 19 89.5t95 21.5zM153 617h-28q-9 0 -9 -10v-199q0 -5 0.5 -6.5t2.5 -3t6 -1.5h28q6 0 7.5 2t1.5 9v199q0 10 -9 10z" />
    <glyph glyph-name="plusminus" unicode="&#xb1;" horiz-adv-x="370" 
d="M10 386v125h112v107h125v-107h113v-125h-113v-108h-125v108h-112zM10 116v125h350v-125h-350z" />
    <glyph glyph-name="acute" unicode="&#xb4;" horiz-adv-x="500" 
d="M136 623l65 119h182l-125 -119h-122z" />
    <glyph glyph-name="paragraph" unicode="&#xb6;" horiz-adv-x="458" 
d="M196 0v285h-67q-49 0 -74 34t-25 75v197q0 43 23 76t76 33h314v-700h-108v573h-31v-573h-108z" />
    <glyph glyph-name="periodcentered" unicode="&#xb7;" horiz-adv-x="181" 
d="M9 270v173h163v-173h-163z" />
    <glyph glyph-name="cedilla" unicode="&#xb8;" horiz-adv-x="500" 
d="M308 0l-25 -129h-132l55 129h102z" />
    <glyph glyph-name="ordmasculine" unicode="&#xba;" horiz-adv-x="279" 
d="M137 705h5q75 0 96 -22.5t21 -77.5v-166q0 -55 -21 -77.5t-96 -22.5h-5q-75 0 -96 22.5t-21 77.5v166q0 55 21 77.5t96 22.5zM137 430h5q7 0 7 9v166q0 9 -7 9h-5q-7 0 -7 -9v-166q0 -9 7 -9zM20 195v104h239v-104h-239z" />
    <glyph glyph-name="guillemotright" unicode="&#xbb;" horiz-adv-x="383" 
d="M214 285l-80 -188h-130l57 188v18l-57 188h130l80 -188v-18zM381 303v-18l-100 -188h-120l67 188v18l-67 188h120z" />
    <glyph glyph-name="questiondown" unicode="&#xbf;" horiz-adv-x="418" 
d="M214 -5q-122 0 -165.5 37.5t-43.5 146.5v52q0 38 13.5 64.5t54.5 56.5q11 8 26.5 19t22 16t16 12.5t13 12t8 10.5t5.5 11.5t1 12.5v35h143v-79q0 -25 -8.5 -43t-16 -25t-30.5 -27q-9 -8 -24 -20.5t-20.5 -17.5t-13 -13.5t-9.5 -16t-2 -18.5v-52q0 -19 16 -19h24
q16 0 16 19v82h173v-72q0 -109 -42 -146.5t-157 -37.5zM317 700v-173h-163v173h163z" />
    <glyph glyph-name="Agrave" unicode="&#xc0;" horiz-adv-x="467" 
d="M385 700l80 -700h-193l-6 105h-65l-6 -105h-193l80 700h303zM230 535l-20 -265h46l-20 265h-6zM232 842l65 -119h-122l-125 119h182z" />
    <glyph glyph-name="Aacute" unicode="&#xc1;" horiz-adv-x="467" 
d="M385 700l80 -700h-193l-6 105h-65l-6 -105h-193l80 700h303zM230 535l-20 -265h46l-20 265h-6zM160 723l65 119h182l-125 -119h-122z" />
    <glyph glyph-name="Acircumflex" unicode="&#xc2;" horiz-adv-x="467" 
d="M385 700l80 -700h-193l-6 105h-65l-6 -105h-193l80 700h303zM230 535l-20 -265h46l-20 265h-6zM85 723l65 119h167l65 -119h-122l-27 42l-26 -42h-122z" />
    <glyph glyph-name="Atilde" unicode="&#xc3;" horiz-adv-x="467" 
d="M385 700l80 -700h-193l-6 105h-65l-6 -105h-193l80 700h303zM230 535l-20 -265h46l-20 265h-6zM268 723l-68 53v-53h-82v119h82l68 -23v23h82v-119h-82z" />
    <glyph glyph-name="Adieresis" unicode="&#xc4;" horiz-adv-x="467" 
d="M385 700l80 -700h-193l-6 105h-65l-6 -105h-193l80 700h303zM230 535l-20 -265h46l-20 265h-6zM104 723v119h119v-119h-119zM244 723v119h119v-119h-119z" />
    <glyph glyph-name="Aring" unicode="&#xc5;" horiz-adv-x="467" 
d="M385 700l80 -700h-193l-6 105h-65l-6 -105h-193l80 700h303zM230 535l-20 -265h46l-20 265h-6zM219 903h28q54 0 68 -15.5t14 -65.5v-17q0 -49 -14 -65t-68 -16h-28q-53 0 -67 16t-14 65v17q0 50 13.5 65.5t67.5 15.5zM247 857h-28q-21 0 -26 -6t-5 -25v-25q0 -19 5 -25
t26 -6h28q21 0 26.5 6t5.5 25v25q0 19 -5.5 25t-26.5 6z" />
    <glyph glyph-name="AE" unicode="&#xc6;" horiz-adv-x="688" 
d="M322 0v105h-105l-24 -105h-192l202 700h475v-165h-163v-95h143v-165h-143v-110h163v-165h-356zM317 535l-61 -265h66v265h-5z" />
    <glyph glyph-name="Ccedilla" unicode="&#xc7;" horiz-adv-x="452" 
d="M221 705h10q91 0 134.5 -16.5t59 -53.5t15.5 -114v-132h-193v142q0 19 -16 19h-10q-16 0 -16 -19v-362q0 -19 16 -19h10q16 0 16 19v162h193v-152q0 -100 -30 -137.5t-127 -44.5l-24 -126h-132l53 125q-104 4 -136 41.5t-32 141.5v342q0 77 15.5 114t59 53.5t134.5 16.5z
" />
    <glyph glyph-name="Egrave" unicode="&#xc8;" horiz-adv-x="381" 
d="M208 275v-110h163v-165h-356v700h356v-165h-163v-95h143v-165h-143zM209 842l65 -119h-122l-125 119h182z" />
    <glyph glyph-name="Eacute" unicode="&#xc9;" horiz-adv-x="381" 
d="M208 275v-110h163v-165h-356v700h356v-165h-163v-95h143v-165h-143zM117 723l65 119h182l-125 -119h-122z" />
    <glyph glyph-name="Ecircumflex" unicode="&#xca;" horiz-adv-x="381" 
d="M208 275v-110h163v-165h-356v700h356v-165h-163v-95h143v-165h-143zM42 723l65 119h167l65 -119h-122l-27 42l-26 -42h-122z" />
    <glyph glyph-name="Edieresis" unicode="&#xcb;" horiz-adv-x="381" 
d="M208 275v-110h163v-165h-356v700h356v-165h-163v-95h143v-165h-143zM61 723v119h119v-119h-119zM201 723v119h119v-119h-119z" />
    <glyph glyph-name="Igrave" unicode="&#xcc;" horiz-adv-x="223" 
d="M15 0v700h193v-700h-193zM126 842l65 -119h-122l-125 119h182z" />
    <glyph glyph-name="Iacute" unicode="&#xcd;" horiz-adv-x="223" 
d="M15 0v700h193v-700h-193zM25 723l65 119h182l-125 -119h-122z" />
    <glyph glyph-name="Icircumflex" unicode="&#xce;" horiz-adv-x="223" 
d="M15 0v700h193v-700h-193zM-37 723l65 119h167l65 -119h-122l-27 42l-26 -42h-122z" />
    <glyph glyph-name="Idieresis" unicode="&#xcf;" horiz-adv-x="223" 
d="M15 0v700h193v-700h-193zM-18 723v119h119v-119h-119zM122 723v119h119v-119h-119z" />
    <glyph glyph-name="Eth" unicode="&#xd0;" horiz-adv-x="475" 
d="M2 287v135h38v278h219q91 0 134.5 -16.5t59 -53.5t15.5 -114v-332q0 -77 -15.5 -114t-59 -53.5t-134.5 -16.5h-219v287h-38zM259 545h-26v-123h28v-135h-28v-132h26q16 0 16 19v352q0 19 -16 19z" />
    <glyph glyph-name="Ntilde" unicode="&#xd1;" horiz-adv-x="453" 
d="M15 700h183l64 -265h3v265h173v-700h-193l-45 236h-2v-236h-183v700zM258 723l-68 53v-53h-82v119h82l68 -23v23h82v-119h-82z" />
    <glyph glyph-name="Ograve" unicode="&#xd2;" horiz-adv-x="452" 
d="M221 705h10q91 0 134.5 -16.5t59 -53.5t15.5 -114v-342q0 -77 -15.5 -114t-59 -53.5t-134.5 -16.5h-10q-131 0 -170 36.5t-39 147.5v342q0 77 15.5 114t59 53.5t134.5 16.5zM221 150h10q16 0 16 19v362q0 19 -16 19h-10q-16 0 -16 -19v-362q0 -19 16 -19zM225 842
l65 -119h-122l-125 119h182z" />
    <glyph glyph-name="Oacute" unicode="&#xd3;" horiz-adv-x="452" 
d="M221 705h10q91 0 134.5 -16.5t59 -53.5t15.5 -114v-342q0 -77 -15.5 -114t-59 -53.5t-134.5 -16.5h-10q-131 0 -170 36.5t-39 147.5v342q0 77 15.5 114t59 53.5t134.5 16.5zM221 150h10q16 0 16 19v362q0 19 -16 19h-10q-16 0 -16 -19v-362q0 -19 16 -19zM153 723l65 119
h182l-125 -119h-122z" />
    <glyph glyph-name="Ocircumflex" unicode="&#xd4;" horiz-adv-x="452" 
d="M221 705h10q91 0 134.5 -16.5t59 -53.5t15.5 -114v-342q0 -77 -15.5 -114t-59 -53.5t-134.5 -16.5h-10q-131 0 -170 36.5t-39 147.5v342q0 77 15.5 114t59 53.5t134.5 16.5zM221 150h10q16 0 16 19v362q0 19 -16 19h-10q-16 0 -16 -19v-362q0 -19 16 -19zM78 723l65 119
h167l65 -119h-122l-27 42l-26 -42h-122z" />
    <glyph glyph-name="Otilde" unicode="&#xd5;" horiz-adv-x="452" 
d="M221 705h10q91 0 134.5 -16.5t59 -53.5t15.5 -114v-342q0 -77 -15.5 -114t-59 -53.5t-134.5 -16.5h-10q-131 0 -170 36.5t-39 147.5v342q0 77 15.5 114t59 53.5t134.5 16.5zM221 150h10q16 0 16 19v362q0 19 -16 19h-10q-16 0 -16 -19v-362q0 -19 16 -19zM260 723l-68 53
v-53h-82v119h82l68 -23v23h82v-119h-82z" />
    <glyph glyph-name="Odieresis" unicode="&#xd6;" horiz-adv-x="452" 
d="M221 705h10q91 0 134.5 -16.5t59 -53.5t15.5 -114v-342q0 -77 -15.5 -114t-59 -53.5t-134.5 -16.5h-10q-131 0 -170 36.5t-39 147.5v342q0 77 15.5 114t59 53.5t134.5 16.5zM221 150h10q16 0 16 19v362q0 19 -16 19h-10q-16 0 -16 -19v-362q0 -19 16 -19zM97 723v119h119
v-119h-119zM237 723v119h119v-119h-119z" />
    <glyph glyph-name="multiply" unicode="&#xd7;" horiz-adv-x="370" 
d="M271 533l89 -88l-87 -87l83 -83l-88 -89l-84 83l-86 -86l-88 89l86 86l-83 83l89 88l82 -83z" />
    <glyph glyph-name="Oslash" unicode="&#xd8;" horiz-adv-x="452" 
d="M221 705h10q53 0 91 -6l11 29h99l-25 -65q33 -36 33 -142v-342q0 -77 -15.5 -114t-59 -53.5t-134.5 -16.5h-10q-59 0 -98 6l-13 -30h-99l31 70q-30 36 -30 138v342q0 77 15.5 114t59 53.5t134.5 16.5zM221 150h10q16 0 16 19v190l-42 -119v-71q0 -19 16 -19zM205 531
v-176l42 119v57q0 19 -16 19h-10q-16 0 -16 -19z" />
    <glyph glyph-name="Ugrave" unicode="&#xd9;" horiz-adv-x="452" 
d="M12 700h193v-531q0 -19 16 -19h10q16 0 16 19v531h193v-521q0 -77 -15.5 -114t-59 -53.5t-134.5 -16.5h-10q-91 0 -134.5 16.5t-59 53.5t-15.5 114v521zM245 842l65 -119h-122l-125 119h182z" />
    <glyph glyph-name="Uacute" unicode="&#xda;" horiz-adv-x="452" 
d="M12 700h193v-531q0 -19 16 -19h10q16 0 16 19v531h193v-521q0 -77 -15.5 -114t-59 -53.5t-134.5 -16.5h-10q-91 0 -134.5 16.5t-59 53.5t-15.5 114v521zM153 723l65 119h182l-125 -119h-122z" />
    <glyph glyph-name="Ucircumflex" unicode="&#xdb;" horiz-adv-x="452" 
d="M12 700h193v-531q0 -19 16 -19h10q16 0 16 19v531h193v-521q0 -77 -15.5 -114t-59 -53.5t-134.5 -16.5h-10q-91 0 -134.5 16.5t-59 53.5t-15.5 114v521zM78 723l65 119h167l65 -119h-122l-27 42l-26 -42h-122z" />
    <glyph glyph-name="Udieresis" unicode="&#xdc;" horiz-adv-x="452" 
d="M12 700h193v-531q0 -19 16 -19h10q16 0 16 19v531h193v-521q0 -77 -15.5 -114t-59 -53.5t-134.5 -16.5h-10q-91 0 -134.5 16.5t-59 53.5t-15.5 114v521zM97 723v119h119v-119h-119zM237 723v119h119v-119h-119z" />
    <glyph glyph-name="Yacute" unicode="&#xdd;" horiz-adv-x="471" 
d="M139 0v247l-138 453h193l41 -227l42 227h193l-138 -453v-247h-193zM172 723l65 119h182l-125 -119h-122z" />
    <glyph glyph-name="Thorn" unicode="&#xde;" horiz-adv-x="447" 
d="M12 0v700h193v-101h26q131 0 170 -36.5t39 -147.5v-127q0 -77 -15.5 -114t-59 -53.5t-134.5 -16.5h-26v-104h-193zM231 444h-26v-185h26q16 0 16 19v147q0 19 -16 19z" />
    <glyph glyph-name="germandbls" unicode="&#xdf;" horiz-adv-x="477" 
d="M241 555q-16 0 -16 -19v-536h-183v468l-42 10v122h48v3q0 43 42.5 70t100.5 27h62q91 0 134.5 -15.5t59 -52.5t15.5 -116v-28q0 -73 -19.5 -99.5t-80.5 -31.5q62 -4 81 -30t19 -102v-41q0 -46 -2.5 -75t-13 -51t-21.5 -32.5t-39.5 -17t-54.5 -7.5t-78 -1h-8v145h18
q16 0 16 19v101q0 19 -16 19h-18v135h18q16 0 16 19v98q0 19 -16 19h-22z" />
    <glyph glyph-name="agrave" unicode="&#xe0;" horiz-adv-x="418" 
d="M214 454h-5q-9 0 -9 -15v-45h-170v45q0 48 3.5 72t19.5 49t52.5 35t97.5 10h14q44 0 76 -4.5t52.5 -15t33 -22.5t18.5 -33.5t7.5 -40.5t1.5 -50v-432q-129 -12 -224 -12h-12q-86 0 -121.5 31.5t-35.5 123.5v70q0 95 27.5 125t109.5 30h73v58q0 14 -1.5 17.5t-7.5 3.5z
M196 210v-30q0 -17 2.5 -21t15.5 -4h1q4 0 8 1v93h-9q-18 0 -18 -39zM248 742l65 -119h-122l-125 119h182z" />
    <glyph glyph-name="aacute" unicode="&#xe1;" horiz-adv-x="418" 
d="M214 454h-5q-9 0 -9 -15v-45h-170v45q0 48 3.5 72t19.5 49t52.5 35t97.5 10h14q44 0 76 -4.5t52.5 -15t33 -22.5t18.5 -33.5t7.5 -40.5t1.5 -50v-432q-129 -12 -224 -12h-12q-86 0 -121.5 31.5t-35.5 123.5v70q0 95 27.5 125t109.5 30h73v58q0 14 -1.5 17.5t-7.5 3.5z
M196 210v-30q0 -17 2.5 -21t15.5 -4h1q4 0 8 1v93h-9q-18 0 -18 -39zM136 623l65 119h182l-125 -119h-122z" />
    <glyph glyph-name="acircumflex" unicode="&#xe2;" horiz-adv-x="418" 
d="M214 454h-5q-9 0 -9 -15v-45h-170v45q0 48 3.5 72t19.5 49t52.5 35t97.5 10h14q44 0 76 -4.5t52.5 -15t33 -22.5t18.5 -33.5t7.5 -40.5t1.5 -50v-432q-129 -12 -224 -12h-12q-86 0 -121.5 31.5t-35.5 123.5v70q0 95 27.5 125t109.5 30h73v58q0 14 -1.5 17.5t-7.5 3.5z
M196 210v-30q0 -17 2.5 -21t15.5 -4h1q4 0 8 1v93h-9q-18 0 -18 -39zM66 623l65 119h167l65 -119h-122l-27 42l-26 -42h-122z" />
    <glyph glyph-name="atilde" unicode="&#xe3;" horiz-adv-x="418" 
d="M214 454h-5q-9 0 -9 -15v-45h-170v45q0 48 3.5 72t19.5 49t52.5 35t97.5 10h14q44 0 76 -4.5t52.5 -15t33 -22.5t18.5 -33.5t7.5 -40.5t1.5 -50v-432q-129 -12 -224 -12h-12q-86 0 -121.5 31.5t-35.5 123.5v70q0 95 27.5 125t109.5 30h73v58q0 14 -1.5 17.5t-7.5 3.5z
M196 210v-30q0 -17 2.5 -21t15.5 -4h1q4 0 8 1v93h-9q-18 0 -18 -39zM248 623l-68 53v-53h-82v119h82l68 -23v23h82v-119h-82z" />
    <glyph glyph-name="adieresis" unicode="&#xe4;" horiz-adv-x="418" 
d="M214 454h-5q-9 0 -9 -15v-45h-170v45q0 48 3.5 72t19.5 49t52.5 35t97.5 10h14q44 0 76 -4.5t52.5 -15t33 -22.5t18.5 -33.5t7.5 -40.5t1.5 -50v-432q-129 -12 -224 -12h-12q-86 0 -121.5 31.5t-35.5 123.5v70q0 95 27.5 125t109.5 30h73v58q0 14 -1.5 17.5t-7.5 3.5z
M196 210v-30q0 -17 2.5 -21t15.5 -4h1q4 0 8 1v93h-9q-18 0 -18 -39zM86 623v119h119v-119h-119zM226 623v119h119v-119h-119z" />
    <glyph glyph-name="aring" unicode="&#xe5;" horiz-adv-x="418" 
d="M214 454h-5q-9 0 -9 -15v-45h-170v45q0 48 3.5 72t19.5 49t52.5 35t97.5 10h14q44 0 76 -4.5t52.5 -15t33 -22.5t18.5 -33.5t7.5 -40.5t1.5 -50v-432q-129 -12 -224 -12h-12q-86 0 -121.5 31.5t-35.5 123.5v70q0 95 27.5 125t109.5 30h73v58q0 14 -1.5 17.5t-7.5 3.5z
M196 210v-30q0 -17 2.5 -21t15.5 -4h1q4 0 8 1v93h-9q-18 0 -18 -39zM198 797h28q54 0 68 -15.5t14 -65.5v-17q0 -49 -14 -65t-68 -16h-28q-53 0 -67 16t-14 65v17q0 50 13.5 65.5t67.5 15.5zM226 751h-28q-21 0 -26 -6t-5 -25v-25q0 -19 5 -25t26 -6h28q21 0 26.5 6t5.5 25
v25q0 19 -5.5 25t-26.5 6z" />
    <glyph glyph-name="ae" unicode="&#xe6;" horiz-adv-x="630" 
d="M418 -5q-68 0 -91.5 6t-43.5 27q-4 -8 -35.5 -20.5t-65.5 -12.5h-12q-86 0 -121.5 31.5t-35.5 123.5v70q0 95 27.5 125t109.5 30h83v64q0 15 -6 15h-18q-9 0 -9 -15v-45h-170v45q0 48 3.5 72t19.5 49t52.5 35t97.5 10h24q63 0 100 -10q37 10 91 10h5q65 0 105 -10
t59.5 -33.5t25 -50t5.5 -72.5v-205l-212 -5v-73q0 -6 0.5 -8.5t3 -4.5t8.5 -2h10q8 0 10 3t2 12v48h178v-43q0 -29 -0.5 -43.5t-4.5 -35.5t-11.5 -31.5t-21.5 -23.5t-35.5 -18.5t-53 -9.5t-73.5 -4zM418 459q-12 0 -12 -9v-99h39v93q0 6 -0.5 8.5t-3 4.5t-8.5 2h-15z
M233 157v91h-19q-12 0 -15 -9t-3 -29v-30q0 -17 2.5 -21t15.5 -4h1q8 0 18 2z" />
    <glyph glyph-name="ccedilla" unicode="&#xe7;" horiz-adv-x="422" 
d="M207 605h8q65 0 105 -10t59.5 -33.5t25 -50t5.5 -72.5v-108h-183v108q0 6 -0.5 8.5t-3 4.5t-8.5 2h-8q-8 0 -10 -3t-2 -12v-278q0 -6 0.5 -8.5t3 -4.5t8.5 -2h8q8 0 10 3t2 12v98h183v-98q0 -41 -4.5 -66t-19.5 -48t-46 -34.5t-81 -15.5l-24 -126h-132l53 126
q-48 4 -77.5 15.5t-43.5 34.5t-18.5 48t-4.5 66v278q0 46 5.5 72.5t25 50t59.5 33.5t105 10z" />
    <glyph glyph-name="egrave" unicode="&#xe8;" horiz-adv-x="419" 
d="M207 -5q-65 0 -104.5 10t-59 33.5t-25.5 50.5t-6 72v278q0 46 5.5 72.5t25 50t59.5 33.5t105 10h5q65 0 105 -10t59.5 -33.5t25 -50t5.5 -72.5v-205l-212 -5v-73q0 -6 0.5 -8.5t3 -4.5t8.5 -2h10q8 0 10 3t2 12v48h178v-43q0 -47 -5 -72.5t-24 -49.5t-60.5 -34
t-110.5 -10zM207 459q-8 0 -10 -3t-2 -12v-93h38v93q0 6 -0.5 8.5t-3 4.5t-8.5 2h-14zM218 742l65 -119h-122l-125 119h182z" />
    <glyph glyph-name="eacute" unicode="&#xe9;" horiz-adv-x="419" 
d="M207 -5q-65 0 -104.5 10t-59 33.5t-25.5 50.5t-6 72v278q0 46 5.5 72.5t25 50t59.5 33.5t105 10h5q65 0 105 -10t59.5 -33.5t25 -50t5.5 -72.5v-205l-212 -5v-73q0 -6 0.5 -8.5t3 -4.5t8.5 -2h10q8 0 10 3t2 12v48h178v-43q0 -47 -5 -72.5t-24 -49.5t-60.5 -34
t-110.5 -10zM207 459q-8 0 -10 -3t-2 -12v-93h38v93q0 6 -0.5 8.5t-3 4.5t-8.5 2h-14zM126 623l65 119h182l-125 -119h-122z" />
    <glyph glyph-name="ecircumflex" unicode="&#xea;" horiz-adv-x="419" 
d="M207 -5q-65 0 -104.5 10t-59 33.5t-25.5 50.5t-6 72v278q0 46 5.5 72.5t25 50t59.5 33.5t105 10h5q65 0 105 -10t59.5 -33.5t25 -50t5.5 -72.5v-205l-212 -5v-73q0 -6 0.5 -8.5t3 -4.5t8.5 -2h10q8 0 10 3t2 12v48h178v-43q0 -47 -5 -72.5t-24 -49.5t-60.5 -34
t-110.5 -10zM207 459q-8 0 -10 -3t-2 -12v-93h38v93q0 6 -0.5 8.5t-3 4.5t-8.5 2h-14zM61 623l65 119h167l65 -119h-122l-27 42l-26 -42h-122z" />
    <glyph glyph-name="edieresis" unicode="&#xeb;" horiz-adv-x="419" 
d="M207 -5q-65 0 -104.5 10t-59 33.5t-25.5 50.5t-6 72v278q0 46 5.5 72.5t25 50t59.5 33.5t105 10h5q65 0 105 -10t59.5 -33.5t25 -50t5.5 -72.5v-205l-212 -5v-73q0 -6 0.5 -8.5t3 -4.5t8.5 -2h10q8 0 10 3t2 12v48h178v-43q0 -47 -5 -72.5t-24 -49.5t-60.5 -34
t-110.5 -10zM207 459q-8 0 -10 -3t-2 -12v-93h38v93q0 6 -0.5 8.5t-3 4.5t-8.5 2h-14zM80 623v119h119v-119h-119zM220 623v119h119v-119h-119z" />
    <glyph glyph-name="igrave" unicode="&#xec;" horiz-adv-x="207" 
d="M12 0v600h183v-600h-183zM102 742l65 -119h-122l-125 119h182z" />
    <glyph glyph-name="iacute" unicode="&#xed;" horiz-adv-x="207" 
d="M12 0v600h183v-600h-183zM38 623l65 119h182l-125 -119h-122z" />
    <glyph glyph-name="icircumflex" unicode="&#xee;" horiz-adv-x="207" 
d="M12 0v600h183v-600h-183zM-45 623l65 119h167l65 -119h-122l-27 42l-26 -42h-122z" />
    <glyph glyph-name="idieresis" unicode="&#xef;" horiz-adv-x="207" 
d="M12 0v600h183v-600h-183zM-26 623v119h119v-119h-119zM114 623v119h119v-119h-119z" />
    <glyph glyph-name="eth" unicode="&#xf0;" horiz-adv-x="422" 
d="M215 -5h-8q-65 0 -105 10t-59.5 33.5t-25 50t-5.5 72.5v269q0 101 24.5 138t102.5 37h12l76 -5v31l-63 -25l-30 70l74 30q-14 22 -41 53l123 40q30 -20 51 -39l65 26l30 -70l-47 -19q21 -40 21 -88v-448q0 -46 -5.5 -72.5t-25 -50t-59.5 -33.5t-105 -10zM207 146h8
q8 0 10 3t2 12v282q-12 2 -13 2h-1q-13 0 -15.5 -4t-2.5 -21v-259q0 -6 0.5 -8.5t3 -4.5t8.5 -2z" />
    <glyph glyph-name="ntilde" unicode="&#xf1;" 
d="M227 0v420q0 17 -2.5 21t-15.5 4h-14v-445h-183v600q158 5 229 5h12q86 0 121.5 -31.5t35.5 -123.5v-450h-183zM246 623l-68 53v-53h-82v119h82l68 -23v23h82v-119h-82z" />
    <glyph glyph-name="ograve" unicode="&#xf2;" horiz-adv-x="422" 
d="M207 605h8q65 0 105 -10t59.5 -33.5t25 -50t5.5 -72.5v-278q0 -46 -5.5 -72.5t-25 -50t-59.5 -33.5t-105 -10h-8q-65 0 -105 10t-59.5 33.5t-25 50t-5.5 72.5v278q0 46 5.5 72.5t25 50t59.5 33.5t105 10zM207 146h8q8 0 10 3t2 12v278q0 6 -0.5 8.5t-3 4.5t-8.5 2h-8
q-8 0 -10 -3t-2 -12v-278q0 -6 0.5 -8.5t3 -4.5t8.5 -2zM220 742l65 -119h-122l-125 119h182z" />
    <glyph glyph-name="oacute" unicode="&#xf3;" horiz-adv-x="422" 
d="M207 605h8q65 0 105 -10t59.5 -33.5t25 -50t5.5 -72.5v-278q0 -46 -5.5 -72.5t-25 -50t-59.5 -33.5t-105 -10h-8q-65 0 -105 10t-59.5 33.5t-25 50t-5.5 72.5v278q0 46 5.5 72.5t25 50t59.5 33.5t105 10zM207 146h8q8 0 10 3t2 12v278q0 6 -0.5 8.5t-3 4.5t-8.5 2h-8
q-8 0 -10 -3t-2 -12v-278q0 -6 0.5 -8.5t3 -4.5t8.5 -2zM138 623l65 119h182l-125 -119h-122z" />
    <glyph glyph-name="ocircumflex" unicode="&#xf4;" horiz-adv-x="422" 
d="M207 605h8q65 0 105 -10t59.5 -33.5t25 -50t5.5 -72.5v-278q0 -46 -5.5 -72.5t-25 -50t-59.5 -33.5t-105 -10h-8q-65 0 -105 10t-59.5 33.5t-25 50t-5.5 72.5v278q0 46 5.5 72.5t25 50t59.5 33.5t105 10zM207 146h8q8 0 10 3t2 12v278q0 6 -0.5 8.5t-3 4.5t-8.5 2h-8
q-8 0 -10 -3t-2 -12v-278q0 -6 0.5 -8.5t3 -4.5t8.5 -2zM63 623l65 119h167l65 -119h-122l-27 42l-26 -42h-122z" />
    <glyph glyph-name="otilde" unicode="&#xf5;" horiz-adv-x="422" 
d="M207 605h8q65 0 105 -10t59.5 -33.5t25 -50t5.5 -72.5v-278q0 -46 -5.5 -72.5t-25 -50t-59.5 -33.5t-105 -10h-8q-65 0 -105 10t-59.5 33.5t-25 50t-5.5 72.5v278q0 46 5.5 72.5t25 50t59.5 33.5t105 10zM207 146h8q8 0 10 3t2 12v278q0 6 -0.5 8.5t-3 4.5t-8.5 2h-8
q-8 0 -10 -3t-2 -12v-278q0 -6 0.5 -8.5t3 -4.5t8.5 -2zM245 623l-68 53v-53h-82v119h82l68 -23v23h82v-119h-82z" />
    <glyph glyph-name="odieresis" unicode="&#xf6;" horiz-adv-x="422" 
d="M207 605h8q65 0 105 -10t59.5 -33.5t25 -50t5.5 -72.5v-278q0 -46 -5.5 -72.5t-25 -50t-59.5 -33.5t-105 -10h-8q-65 0 -105 10t-59.5 33.5t-25 50t-5.5 72.5v278q0 46 5.5 72.5t25 50t59.5 33.5t105 10zM207 146h8q8 0 10 3t2 12v278q0 6 -0.5 8.5t-3 4.5t-8.5 2h-8
q-8 0 -10 -3t-2 -12v-278q0 -6 0.5 -8.5t3 -4.5t8.5 -2zM82 623v119h119v-119h-119zM222 623v119h119v-119h-119z" />
    <glyph glyph-name="divide" unicode="&#xf7;" horiz-adv-x="361" 
d="M10 296v125h350v-125h-350zM129 452v118h119v-118h-119zM129 147v118h119v-118h-119z" />
    <glyph glyph-name="oslash" unicode="&#xf8;" horiz-adv-x="422" 
d="M207 605h8q47 0 80 -6l16 35h91l-32 -64q40 -33 40 -131v-278q0 -46 -5.5 -72.5t-25 -50t-59.5 -33.5t-105 -10h-8q-57 0 -97 8l-14 -25h-91l33 65q-26 33 -26 118v278q0 46 5.5 72.5t25 50t59.5 33.5t105 10zM207 146h8q8 0 10 3t2 12v161l-32 -84v-77q0 -6 0.5 -8.5
t3 -4.5t8.5 -2zM195 439v-119l32 80v39q0 6 -0.5 8.5t-3 4.5t-8.5 2h-8q-8 0 -10 -3t-2 -12z" />
    <glyph glyph-name="ugrave" unicode="&#xf9;" 
d="M196 600v-420q0 -17 2.5 -21t15.5 -4h14v445h183v-600q-123 -5 -229 -5h-12q-86 0 -121.5 31.5t-35.5 123.5v450h183zM220 742l65 -119h-122l-125 119h182z" />
    <glyph glyph-name="uacute" unicode="&#xfa;" 
d="M196 600v-420q0 -17 2.5 -21t15.5 -4h14v445h183v-600q-123 -5 -229 -5h-12q-86 0 -121.5 31.5t-35.5 123.5v450h183zM138 623l65 119h182l-125 -119h-122z" />
    <glyph glyph-name="ucircumflex" unicode="&#xfb;" 
d="M196 600v-420q0 -17 2.5 -21t15.5 -4h14v445h183v-600q-123 -5 -229 -5h-12q-86 0 -121.5 31.5t-35.5 123.5v450h183zM63 623l65 119h167l65 -119h-122l-27 42l-26 -42h-122z" />
    <glyph glyph-name="udieresis" unicode="&#xfc;" 
d="M196 600v-420q0 -17 2.5 -21t15.5 -4h14v445h183v-600q-123 -5 -229 -5h-12q-86 0 -121.5 31.5t-35.5 123.5v450h183zM82 623v119h119v-119h-119zM222 623v119h119v-119h-119z" />
    <glyph glyph-name="yacute" unicode="&#xfd;" horiz-adv-x="467" 
d="M105 10l-105 590h186l40 -338h6l66 338h169l-143 -730h-168l27 140h-78zM170 623l65 119h182l-125 -119h-122z" />
    <glyph glyph-name="thorn" unicode="&#xfe;" 
d="M12 -130v831h183v-101h88q79 0 103 -35t24 -135v-260q0 -100 -24 -135t-103 -35h-88v-130h-183zM209 445h-14v-290h14q13 0 15.5 4t2.5 21v240q0 17 -2.5 21t-15.5 4z" />
    <glyph glyph-name="ydieresis" unicode="&#xff;" horiz-adv-x="467" 
d="M105 10l-105 590h186l40 -338h6l66 338h169l-143 -730h-168l27 140h-78zM104 623v119h119v-119h-119zM244 623v119h119v-119h-119z" />
    <glyph glyph-name="Amacron" unicode="&#x100;" horiz-adv-x="467" 
d="M385 700l80 -700h-193l-6 105h-65l-6 -105h-193l80 700h303zM230 535l-20 -265h46l-20 265h-6zM104 727v105h259v-105h-259z" />
    <glyph glyph-name="amacron" unicode="&#x101;" horiz-adv-x="418" 
d="M214 454h-5q-9 0 -9 -15v-45h-170v45q0 48 3.5 72t19.5 49t52.5 35t97.5 10h14q44 0 76 -4.5t52.5 -15t33 -22.5t18.5 -33.5t7.5 -40.5t1.5 -50v-432q-129 -12 -224 -12h-12q-86 0 -121.5 31.5t-35.5 123.5v70q0 95 27.5 125t109.5 30h73v58q0 14 -1.5 17.5t-7.5 3.5z
M196 210v-30q0 -17 2.5 -21t15.5 -4h1q4 0 8 1v93h-9q-18 0 -18 -39zM90 627v105h259v-105h-259z" />
    <glyph glyph-name="Abreve" unicode="&#x102;" horiz-adv-x="467" 
d="M385 700l80 -700h-193l-6 105h-65l-6 -105h-193l80 700h303zM230 535l-20 -265h46l-20 265h-6zM253 718h-37q-76 0 -95 22t-19 89v13h109v-24q0 -5 0.5 -6.5t2.5 -3t6 -1.5h28q6 0 7.5 2t1.5 9v24h108v-13q0 -67 -19 -89t-93 -22z" />
    <glyph glyph-name="abreve" unicode="&#x103;" horiz-adv-x="418" 
d="M214 454h-5q-9 0 -9 -15v-45h-170v45q0 48 3.5 72t19.5 49t52.5 35t97.5 10h14q44 0 76 -4.5t52.5 -15t33 -22.5t18.5 -33.5t7.5 -40.5t1.5 -50v-432q-129 -12 -224 -12h-12q-86 0 -121.5 31.5t-35.5 123.5v70q0 95 27.5 125t109.5 30h73v58q0 14 -1.5 17.5t-7.5 3.5z
M196 210v-30q0 -17 2.5 -21t15.5 -4h1q4 0 8 1v93h-9q-18 0 -18 -39zM239 618h-37q-76 0 -95 22t-19 89v13h109v-24q0 -5 0.5 -6.5t2.5 -3t6 -1.5h28q6 0 7.5 2t1.5 9v24h108v-13q0 -67 -19 -89t-93 -22z" />
    <glyph glyph-name="Aogonek" unicode="&#x104;" horiz-adv-x="467" 
d="M506 -43v-18q0 -22 -1.5 -35t-8 -26t-20.5 -19t-37 -6h-72q-45 0 -56.5 13t-11.5 53v12q0 17 9 28.5t15.5 14.5t23.5 10q9 4 18.5 7.5t15.5 6t7 2.5h-116l-6 105h-65l-6 -105h-193l80 700h303l80 -700v-9l-53 -30q-13 -7 -15.5 -9.5t-2.5 -7.5v-1q0 -7 5 -7h7q6 0 6 7v14
h94zM230 535l-20 -265h46l-20 265h-6z" />
    <glyph glyph-name="aogonek" unicode="&#x105;" horiz-adv-x="418" 
d="M406 -23v-18q0 -22 -1.5 -35t-8 -26t-20.5 -19t-37 -6h-72q-45 0 -56.5 13t-11.5 53v12q0 30 28 45q-16 -1 -45 -1h-12q-86 0 -121.5 31.5t-35.5 123.5v70q0 95 27.5 125t109.5 30h73v58q0 14 -1.5 17.5t-7.5 3.5h-5q-9 0 -9 -15v-45h-170v45q0 48 3.5 72t19.5 49
t52.5 35t97.5 10h14q44 0 76 -4.5t52.5 -15t33 -22.5t18.5 -33.5t7.5 -40.5t1.5 -50v-432q-25 -2 -56 -5l-38 -21q-13 -7 -15.5 -9.5t-2.5 -7.5v-1q0 -7 5 -7h7q6 0 6 7v14h94zM196 210v-30q0 -17 2.5 -21t15.5 -4h1q4 0 8 1v93h-9q-18 0 -18 -39z" />
    <glyph glyph-name="Cacute" unicode="&#x106;" horiz-adv-x="452" 
d="M221 705h10q91 0 134.5 -16.5t59 -53.5t15.5 -114v-132h-193v142q0 19 -16 19h-10q-16 0 -16 -19v-362q0 -19 16 -19h10q16 0 16 19v162h193v-152q0 -78 -16 -114.5t-61.5 -52.5t-141.5 -17q-131 -1 -170 35t-39 149v342q0 77 15.5 114t59 53.5t134.5 16.5zM153 723
l65 119h182l-125 -119h-122z" />
    <glyph glyph-name="cacute" unicode="&#x107;" horiz-adv-x="422" 
d="M207 605h8q65 0 105 -10t59.5 -33.5t25 -50t5.5 -72.5v-108h-183v108q0 6 -0.5 8.5t-3 4.5t-8.5 2h-8q-8 0 -10 -3t-2 -12v-278q0 -6 0.5 -8.5t3 -4.5t8.5 -2h8q8 0 10 3t2 12v98h183v-98q0 -46 -6 -72.5t-25.5 -50t-61.5 -33.5t-110 -10q-65 0 -105 10t-59.5 33.5
t-25 50t-5.5 72.5v278q0 46 5.5 72.5t25 50t59.5 33.5t105 10zM142 623l65 119h182l-125 -119h-122z" />
    <glyph glyph-name="Cdotaccent" unicode="&#x10a;" horiz-adv-x="452" 
d="M221 705h10q91 0 134.5 -16.5t59 -53.5t15.5 -114v-132h-193v142q0 19 -16 19h-10q-16 0 -16 -19v-362q0 -19 16 -19h10q16 0 16 19v162h193v-152q0 -78 -16 -114.5t-61.5 -52.5t-141.5 -17q-131 -1 -170 35t-39 149v342q0 77 15.5 114t59 53.5t134.5 16.5zM170 723v119
h113v-119h-113z" />
    <glyph glyph-name="cdotaccent" unicode="&#x10b;" horiz-adv-x="422" 
d="M207 605h8q65 0 105 -10t59.5 -33.5t25 -50t5.5 -72.5v-108h-183v108q0 6 -0.5 8.5t-3 4.5t-8.5 2h-8q-8 0 -10 -3t-2 -12v-278q0 -6 0.5 -8.5t3 -4.5t8.5 -2h8q8 0 10 3t2 12v98h183v-98q0 -46 -6 -72.5t-25.5 -50t-61.5 -33.5t-110 -10q-65 0 -105 10t-59.5 33.5
t-25 50t-5.5 72.5v278q0 46 5.5 72.5t25 50t59.5 33.5t105 10zM155 623v119h113v-119h-113z" />
    <glyph glyph-name="Ccaron" unicode="&#x10c;" horiz-adv-x="452" 
d="M221 705h10q91 0 134.5 -16.5t59 -53.5t15.5 -114v-132h-193v142q0 19 -16 19h-10q-16 0 -16 -19v-362q0 -19 16 -19h10q16 0 16 19v162h193v-152q0 -78 -16 -114.5t-61.5 -52.5t-141.5 -17q-131 -1 -170 35t-39 149v342q0 77 15.5 114t59 53.5t134.5 16.5zM143 723
l-65 119h122l26 -42l27 42h122l-65 -119h-167z" />
    <glyph glyph-name="ccaron" unicode="&#x10d;" horiz-adv-x="422" 
d="M207 605h8q65 0 105 -10t59.5 -33.5t25 -50t5.5 -72.5v-108h-183v108q0 6 -0.5 8.5t-3 4.5t-8.5 2h-8q-8 0 -10 -3t-2 -12v-278q0 -6 0.5 -8.5t3 -4.5t8.5 -2h8q8 0 10 3t2 12v98h183v-98q0 -46 -6 -72.5t-25.5 -50t-61.5 -33.5t-110 -10q-65 0 -105 10t-59.5 33.5
t-25 50t-5.5 72.5v278q0 46 5.5 72.5t25 50t59.5 33.5t105 10zM128 623l-65 119h122l26 -42l27 42h122l-65 -119h-167z" />
    <glyph glyph-name="Dcaron" unicode="&#x10e;" horiz-adv-x="447" 
d="M12 0v700h219q91 0 134.5 -16.5t59 -53.5t15.5 -114v-332q0 -77 -15.5 -114t-59 -53.5t-134.5 -16.5h-219zM231 545h-26v-390h26q16 0 16 19v352q0 19 -16 19zM140 723l-65 119h122l26 -42l27 42h122l-65 -119h-167z" />
    <glyph glyph-name="dcaron" unicode="&#x10f;" horiz-adv-x="426" 
d="M13 150v300q0 94 27 122t110 28h78v130h183v-730q-136 -5 -229 -5h-12q-86 0 -121.5 31.5t-35.5 123.5zM424 626v104h97v-86q0 -44 -48 -110l-42 21q5 13 10 24t7 15t3.5 9t2 9.5t0.5 13.5h-30zM228 155v290h-14q-13 0 -15.5 -4t-2.5 -21v-240q0 -17 2.5 -21t15.5 -4h14z
" />
    <glyph glyph-name="Dcroat" unicode="&#x110;" horiz-adv-x="475" 
d="M2 287v135h38v278h219q91 0 134.5 -16.5t59 -53.5t15.5 -114v-332q0 -77 -15.5 -114t-59 -53.5t-134.5 -16.5h-219v287h-38zM259 545h-26v-123h28v-135h-28v-132h26q16 0 16 19v352q0 19 -16 19z" />
    <glyph glyph-name="dcroat" unicode="&#x111;" horiz-adv-x="435" 
d="M174 618v85h54v27h183v-27h22v-85h-22v-618q-136 -5 -229 -5h-12q-86 0 -121.5 31.5t-35.5 123.5v300q0 94 27 122t110 28h78v18h-54zM228 155v290h-14q-13 0 -15.5 -4t-2.5 -21v-240q0 -17 2.5 -21t15.5 -4h14z" />
    <glyph glyph-name="Emacron" unicode="&#x112;" horiz-adv-x="381" 
d="M208 275v-110h163v-165h-356v700h356v-165h-163v-95h143v-165h-143zM61 727v105h259v-105h-259z" />
    <glyph glyph-name="emacron" unicode="&#x113;" horiz-adv-x="419" 
d="M207 -5q-65 0 -104.5 10t-59 33.5t-25.5 50.5t-6 72v278q0 46 5.5 72.5t25 50t59.5 33.5t105 10h5q65 0 105 -10t59.5 -33.5t25 -50t5.5 -72.5v-205l-212 -5v-73q0 -6 0.5 -8.5t3 -4.5t8.5 -2h10q8 0 10 3t2 12v48h178v-43q0 -47 -5 -72.5t-24 -49.5t-60.5 -34
t-110.5 -10zM207 459q-8 0 -10 -3t-2 -12v-93h38v93q0 6 -0.5 8.5t-3 4.5t-8.5 2h-14zM80 627v105h259v-105h-259z" />
    <glyph glyph-name="Ebreve" unicode="&#x114;" horiz-adv-x="381" 
d="M208 275v-110h163v-165h-356v700h356v-165h-163v-95h143v-165h-143zM210 718h-37q-76 0 -95 22t-19 89v13h109v-24q0 -5 0.5 -6.5t2.5 -3t6 -1.5h28q6 0 7.5 2t1.5 9v24h108v-13q0 -67 -19 -89t-93 -22z" />
    <glyph glyph-name="ebreve" unicode="&#x115;" horiz-adv-x="419" 
d="M207 -5q-65 0 -104.5 10t-59 33.5t-25.5 50.5t-6 72v278q0 46 5.5 72.5t25 50t59.5 33.5t105 10h5q65 0 105 -10t59.5 -33.5t25 -50t5.5 -72.5v-205l-212 -5v-73q0 -6 0.5 -8.5t3 -4.5t8.5 -2h10q8 0 10 3t2 12v48h178v-43q0 -47 -5 -72.5t-24 -49.5t-60.5 -34
t-110.5 -10zM207 459q-8 0 -10 -3t-2 -12v-93h38v93q0 6 -0.5 8.5t-3 4.5t-8.5 2h-14zM229 618h-37q-76 0 -95 22t-19 89v13h109v-24q0 -5 0.5 -6.5t2.5 -3t6 -1.5h28q6 0 7.5 2t1.5 9v24h108v-13q0 -67 -19 -89t-93 -22z" />
    <glyph glyph-name="Edotaccent" unicode="&#x116;" horiz-adv-x="381" 
d="M208 275v-110h163v-165h-356v700h356v-165h-163v-95h143v-165h-143zM134 723v119h113v-119h-113z" />
    <glyph glyph-name="edotaccent" unicode="&#x117;" horiz-adv-x="419" 
d="M207 -5q-65 0 -104.5 10t-59 33.5t-25.5 50.5t-6 72v278q0 46 5.5 72.5t25 50t59.5 33.5t105 10h5q65 0 105 -10t59.5 -33.5t25 -50t5.5 -72.5v-205l-212 -5v-73q0 -6 0.5 -8.5t3 -4.5t8.5 -2h10q8 0 10 3t2 12v48h178v-43q0 -47 -5 -72.5t-24 -49.5t-60.5 -34
t-110.5 -10zM207 459q-8 0 -10 -3t-2 -12v-93h38v93q0 6 -0.5 8.5t-3 4.5t-8.5 2h-14zM153 623v119h113v-119h-113z" />
    <glyph glyph-name="Eogonek" unicode="&#x118;" horiz-adv-x="381" 
d="M412 -43v-18q0 -22 -1.5 -35t-8 -26t-20.5 -19t-37 -6h-72q-45 0 -56.5 13t-11.5 53v12q0 17 9 28.5t15.5 14.5t23.5 10q9 4 18.5 7.5t15.5 6t7 2.5h-279v700h356v-165h-163v-95h143v-165h-143v-110h163v-174l-53 -30q-13 -7 -15.5 -9.5t-2.5 -7.5v-1q0 -7 5 -7h7
q6 0 6 7v14h94z" />
    <glyph glyph-name="eogonek" unicode="&#x119;" horiz-adv-x="419" 
d="M378 -16v-18q0 -22 -1.5 -35t-8 -26t-20.5 -19t-37 -6h-72q-45 0 -56.5 13t-11.5 53v12q0 24 16 38q-58 1 -94 12t-53 34t-22.5 49t-5.5 70v278q0 46 5.5 72.5t25 50t59.5 33.5t105 10h5q65 0 105 -10t59.5 -33.5t25 -50t5.5 -72.5v-205l-212 -5v-73q0 -6 0.5 -8.5
t3 -4.5t8.5 -2h10q8 0 10 3t2 12v48h178v-43q0 -71 -17 -106.5t-76 -49.5l-30 -17q-13 -7 -15.5 -9.5t-2.5 -7.5v-1q0 -7 5 -7h7q6 0 6 7v14h94zM207 459q-8 0 -10 -3t-2 -12v-93h38v93q0 6 -0.5 8.5t-3 4.5t-8.5 2h-14z" />
    <glyph glyph-name="Ecaron" unicode="&#x11a;" horiz-adv-x="381" 
d="M208 275v-110h163v-165h-356v700h356v-165h-163v-95h143v-165h-143zM107 723l-65 119h122l26 -42l27 42h122l-65 -119h-167z" />
    <glyph glyph-name="ecaron" unicode="&#x11b;" horiz-adv-x="419" 
d="M207 -5q-65 0 -104.5 10t-59 33.5t-25.5 50.5t-6 72v278q0 46 5.5 72.5t25 50t59.5 33.5t105 10h5q65 0 105 -10t59.5 -33.5t25 -50t5.5 -72.5v-205l-212 -5v-73q0 -6 0.5 -8.5t3 -4.5t8.5 -2h10q8 0 10 3t2 12v48h178v-43q0 -47 -5 -72.5t-24 -49.5t-60.5 -34
t-110.5 -10zM207 459q-8 0 -10 -3t-2 -12v-93h38v93q0 6 -0.5 8.5t-3 4.5t-8.5 2h-14zM126 623l-65 119h122l26 -42l27 42h122l-65 -119h-167z" />
    <glyph glyph-name="gcircumflex" unicode="&#x11d;" 
d="M13 450q0 92 35.5 123.5t121.5 31.5h12l229 -5v-580q0 -56 -5.5 -85t-26.5 -51t-61.5 -27.5t-112.5 -1.5q-47 4 -74.5 7t-50 12.5t-32 17t-15.5 29t-7 40.5t-1 59v28h163v-28q0 -14 8 -15h20q8 0 10 3t2 12v45h-58q-86 0 -121.5 31.5t-35.5 123.5v230zM228 225v220h-14
q-13 0 -15.5 -4t-2.5 -21v-170q0 -17 2.5 -21t15.5 -4h14zM63 623l65 119h167l65 -119h-122l-27 42l-26 -42h-122z" />
    <glyph glyph-name="Gbreve" unicode="&#x11e;" horiz-adv-x="452" 
d="M221 705h10q91 0 134.5 -16.5t59 -53.5t15.5 -114v-72h-193v82q0 19 -16 19h-10q-16 0 -16 -19v-362q0 -19 16 -19h10q16 0 16 19v77h-27v155h220v-222q0 -78 -16 -114.5t-61.5 -52.5t-141.5 -17q-131 -1 -170 35t-39 149v342q0 77 15.5 114t59 53.5t134.5 16.5zM246 718
h-37q-76 0 -95 22t-19 89v13h109v-24q0 -5 0.5 -6.5t2.5 -3t6 -1.5h28q6 0 7.5 2t1.5 9v24h108v-13q0 -67 -19 -89t-93 -22z" />
    <glyph glyph-name="gbreve" unicode="&#x11f;" 
d="M13 450q0 92 35.5 123.5t121.5 31.5h12l229 -5v-580q0 -56 -5.5 -85t-26.5 -51t-61.5 -27.5t-112.5 -1.5q-47 4 -74.5 7t-50 12.5t-32 17t-15.5 29t-7 40.5t-1 59v28h163v-28q0 -14 8 -15h20q8 0 10 3t2 12v45h-58q-86 0 -121.5 31.5t-35.5 123.5v230zM228 225v220h-14
q-13 0 -15.5 -4t-2.5 -21v-170q0 -17 2.5 -21t15.5 -4h14zM231 618h-37q-76 0 -95 22t-19 89v13h109v-24q0 -5 0.5 -6.5t2.5 -3t6 -1.5h28q6 0 7.5 2t1.5 9v24h108v-13q0 -67 -19 -89t-93 -22z" />
    <glyph glyph-name="Gdotaccent" unicode="&#x120;" horiz-adv-x="452" 
d="M221 705h10q91 0 134.5 -16.5t59 -53.5t15.5 -114v-72h-193v82q0 19 -16 19h-10q-16 0 -16 -19v-362q0 -19 16 -19h10q16 0 16 19v77h-27v155h220v-222q0 -78 -16 -114.5t-61.5 -52.5t-141.5 -17q-131 -1 -170 35t-39 149v342q0 77 15.5 114t59 53.5t134.5 16.5zM170 723
v119h113v-119h-113z" />
    <glyph glyph-name="gdotaccent" unicode="&#x121;" 
d="M13 450q0 92 35.5 123.5t121.5 31.5h12l229 -5v-580q0 -56 -5.5 -85t-26.5 -51t-61.5 -27.5t-112.5 -1.5q-47 4 -74.5 7t-50 12.5t-32 17t-15.5 29t-7 40.5t-1 59v28h163v-28q0 -14 8 -15h20q8 0 10 3t2 12v45h-58q-86 0 -121.5 31.5t-35.5 123.5v230zM228 225v220h-14
q-13 0 -15.5 -4t-2.5 -21v-170q0 -17 2.5 -21t15.5 -4h14zM155 623v119h113v-119h-113z" />
    <glyph glyph-name="Gcommaaccent" unicode="&#x122;" horiz-adv-x="452" 
d="M221 705h10q91 0 134.5 -16.5t59 -53.5t15.5 -114v-72h-193v82q0 19 -16 19h-10q-16 0 -16 -19v-362q0 -19 16 -19h10q16 0 16 19v77h-27v155h220v-222q0 -78 -16 -114.5t-61.5 -52.5t-141.5 -17q-131 -1 -170 35t-39 149v342q0 77 15.5 114t59 53.5t134.5 16.5z
M161 -160v125h117v-104q0 -31 -13 -59t-45 -73l-50 26q6 15 12 28.5t8.5 18t4 11t2 11.5t0.5 16h-36z" />
    <glyph glyph-name="gcommaaccent" unicode="&#x123;" 
d="M13 450q0 92 35.5 123.5t121.5 31.5h12l229 -5v-580q0 -56 -5.5 -85t-26.5 -51t-61.5 -27.5t-112.5 -1.5q-47 4 -74.5 7t-50 12.5t-32 17t-15.5 29t-7 40.5t-1 59v28h163v-28q0 -14 8 -15h20q8 0 10 3t2 12v45h-58q-86 0 -121.5 31.5t-35.5 123.5v230zM228 225v220h-14
q-13 0 -15.5 -4t-2.5 -21v-170q0 -17 2.5 -21t15.5 -4h14zM280 762v-125h-117v104q0 31 13 59t45 73l50 -26q-6 -15 -12 -28.5t-8.5 -18t-4 -11t-2 -11.5t-0.5 -16h36z" />
    <glyph glyph-name="Hbar" unicode="&#x126;" horiz-adv-x="479" 
d="M0 497v125h25v78h193v-78h42v78h193v-78h26v-125h-26v-497h-193v275h-42v-275h-193v497h-25zM218 440h42v57h-42v-57z" />
    <glyph glyph-name="hbar" unicode="&#x127;" horiz-adv-x="433" 
d="M0 617v65h22v48h183v-48h84v-65h-84v-17h88q81 0 104 -27t23 -123v-450h-183v420q0 17 -2.5 21t-15.5 4h-14v-445h-183v617h-22z" />
    <glyph glyph-name="Imacron" unicode="&#x12a;" horiz-adv-x="223" 
d="M15 0v700h193v-700h-193zM-18 727v105h259v-105h-259z" />
    <glyph glyph-name="imacron" unicode="&#x12b;" horiz-adv-x="207" 
d="M12 0v600h183v-600h-183zM-26 627v105h259v-105h-259z" />
    <glyph glyph-name="Ibreve" unicode="&#x12c;" horiz-adv-x="223" 
d="M15 0v700h193v-700h-193zM131 718h-37q-76 0 -95 22t-19 89v13h109v-24q0 -5 0.5 -6.5t2.5 -3t6 -1.5h28q6 0 7.5 2t1.5 9v24h108v-13q0 -67 -19 -89t-93 -22z" />
    <glyph glyph-name="ibreve" unicode="&#x12d;" horiz-adv-x="207" 
d="M12 0v600h183v-600h-183zM123 618h-37q-76 0 -95 22t-19 89v13h109v-24q0 -5 0.5 -6.5t2.5 -3t6 -1.5h28q6 0 7.5 2t1.5 9v24h108v-13q0 -67 -19 -89t-93 -22z" />
    <glyph glyph-name="Iogonek" unicode="&#x12e;" horiz-adv-x="223" 
d="M15 0v700h193v-700h-33l-53 -30q-13 -7 -15.5 -9.5t-2.5 -7.5v-1q0 -7 5 -7h7q6 0 6 7v14h94v-18q0 -22 -1.5 -35t-8 -26t-20.5 -19t-37 -6h-72q-45 0 -56.5 13t-11.5 53v12q0 17 9 28.5t15.5 14.5t23.5 10l17 7h-59z" />
    <glyph glyph-name="iogonek" unicode="&#x12f;" horiz-adv-x="207" 
d="M12 0v600h183v-600h-30l-53 -30q-13 -7 -15.5 -9.5t-2.5 -7.5v-1q0 -7 5 -7h7q6 0 6 7v14h94v-18q0 -22 -1.5 -35t-8 -26t-20.5 -19t-37 -6h-72q-45 0 -56.5 13t-11.5 53v12q0 17 9 28.5t15.5 14.5t23.5 10l17 7h-52zM10 620v110h187v-110h-187z" />
    <glyph glyph-name="Idotaccent" unicode="&#x130;" horiz-adv-x="223" 
d="M15 0v700h193v-700h-193zM55 723v119h113v-119h-113z" />
    <glyph glyph-name="dotlessi" unicode="&#x131;" horiz-adv-x="207" 
d="M12 0v600h183v-600h-183z" />
    <glyph glyph-name="Kcommaaccent" unicode="&#x136;" horiz-adv-x="462" 
d="M208 236v-236h-193v700h193v-240h1l38 240h213l-82 -357l82 -343h-213l-36 236h-3zM161 -160v125h117v-104q0 -31 -13 -59t-45 -73l-50 26q6 15 12 28.5t8.5 18t4 11t2 11.5t0.5 16h-36z" />
    <glyph glyph-name="kcommaaccent" unicode="&#x137;" horiz-adv-x="463" 
d="M247 0l-44 226h-8v-226h-183v730h183v-333h7l45 203h213l-76 -291l76 -309h-213zM151 -160v125h117v-104q0 -31 -13 -59t-45 -73l-50 26q6 15 12 28.5t8.5 18t4 11t2 11.5t0.5 16h-36z" />
    <glyph glyph-name="Lacute" unicode="&#x139;" horiz-adv-x="358" 
d="M15 0v700h193v-535h148v-165h-341zM44 723l65 119h182l-125 -119h-122z" />
    <glyph glyph-name="lacute" unicode="&#x13a;" horiz-adv-x="207" 
d="M12 0v730h183v-730h-183zM38 753l65 119h182l-125 -119h-122z" />
    <glyph glyph-name="Lcommaaccent" unicode="&#x13b;" horiz-adv-x="358" 
d="M15 0v700h193v-535h148v-165h-341zM117 -160v125h117v-104q0 -31 -13 -59t-45 -73l-50 26q6 15 12 28.5t8.5 18t4 11t2 11.5t0.5 16h-36z" />
    <glyph glyph-name="lcommaaccent" unicode="&#x13c;" horiz-adv-x="207" 
d="M12 0v730h183v-730h-183zM46 -160v125h117v-104q0 -31 -13 -59t-45 -73l-50 26q6 15 12 28.5t8.5 18t4 11t2 11.5t0.5 16h-36z" />
    <glyph glyph-name="Lcaron" unicode="&#x13d;" horiz-adv-x="358" 
d="M15 0v700h193v-535h148v-165h-341zM261 596v104h97v-86q0 -44 -48 -110l-42 21q5 13 10 24t7 15t3.5 9t2 9.5t0.5 13.5h-30z" />
    <glyph glyph-name="lcaron" unicode="&#x13e;" horiz-adv-x="206" 
d="M12 0v730h183v-730h-183zM231 626v104h97v-86q0 -44 -48 -110l-42 21q5 13 10 24t7 15t3.5 9t2 9.5t0.5 13.5h-30z" />
    <glyph glyph-name="Ldot" unicode="&#x13f;" horiz-adv-x="358" 
d="M15 0v700h193v-535h148v-165h-341zM235 293v119h113v-119h-113z" />
    <glyph glyph-name="ldot" unicode="&#x140;" horiz-adv-x="336" 
d="M12 0v730h183v-730h-183zM215 293v119h113v-119h-113z" />
    <glyph glyph-name="Lslash" unicode="&#x141;" horiz-adv-x="382" 
d="M0 206v160l41 19v315h193v-225l66 31v-160l-66 -31v-150h148v-165h-341v225z" />
    <glyph glyph-name="lslash" unicode="&#x142;" horiz-adv-x="230" 
d="M0 216v160l22 11v343h183v-247l25 13v-160l-25 -13v-323h-183v227z" />
    <glyph glyph-name="Nacute" unicode="&#x143;" horiz-adv-x="453" 
d="M15 700h183l64 -265h3v265h173v-700h-193l-45 236h-2v-236h-183v700zM143 723l65 119h182l-125 -119h-122z" />
    <glyph glyph-name="nacute" unicode="&#x144;" 
d="M227 0v420q0 17 -2.5 21t-15.5 4h-14v-445h-183v600q158 5 229 5h12q86 0 121.5 -31.5t35.5 -123.5v-450h-183zM138 623l65 119h182l-125 -119h-122z" />
    <glyph glyph-name="Ncommaaccent" unicode="&#x145;" horiz-adv-x="453" 
d="M15 700h183l64 -265h3v265h173v-700h-193l-45 236h-2v-236h-183v700zM161 -160v125h117v-104q0 -31 -13 -59t-45 -73l-50 26q6 15 12 28.5t8.5 18t4 11t2 11.5t0.5 16h-36z" />
    <glyph glyph-name="ncommaaccent" unicode="&#x146;" 
d="M227 0v420q0 17 -2.5 21t-15.5 4h-14v-445h-183v600q158 5 229 5h12q86 0 121.5 -31.5t35.5 -123.5v-450h-183zM151 -160v125h117v-104q0 -31 -13 -59t-45 -73l-50 26q6 15 12 28.5t8.5 18t4 11t2 11.5t0.5 16h-36z" />
    <glyph glyph-name="Ncaron" unicode="&#x147;" horiz-adv-x="453" 
d="M15 700h183l64 -265h3v265h173v-700h-193l-45 236h-2v-236h-183v700zM143 723l-65 119h122l26 -42l27 42h122l-65 -119h-167z" />
    <glyph glyph-name="ncaron" unicode="&#x148;" 
d="M227 0v420q0 17 -2.5 21t-15.5 4h-14v-445h-183v600q158 5 229 5h12q86 0 121.5 -31.5t35.5 -123.5v-450h-183zM128 623l-65 119h122l26 -42l27 42h122l-65 -119h-167z" />
    <glyph glyph-name="Omacron" unicode="&#x14c;" horiz-adv-x="452" 
d="M221 705h10q91 0 134.5 -16.5t59 -53.5t15.5 -114v-342q0 -77 -15.5 -114t-59 -53.5t-134.5 -16.5h-10q-131 0 -170 36.5t-39 147.5v342q0 77 15.5 114t59 53.5t134.5 16.5zM221 150h10q16 0 16 19v362q0 19 -16 19h-10q-16 0 -16 -19v-362q0 -19 16 -19zM97 727v105h259
v-105h-259z" />
    <glyph glyph-name="omacron" unicode="&#x14d;" horiz-adv-x="422" 
d="M207 605h8q65 0 105 -10t59.5 -33.5t25 -50t5.5 -72.5v-278q0 -46 -5.5 -72.5t-25 -50t-59.5 -33.5t-105 -10h-8q-65 0 -105 10t-59.5 33.5t-25 50t-5.5 72.5v278q0 46 5.5 72.5t25 50t59.5 33.5t105 10zM207 146h8q8 0 10 3t2 12v278q0 6 -0.5 8.5t-3 4.5t-8.5 2h-8
q-8 0 -10 -3t-2 -12v-278q0 -6 0.5 -8.5t3 -4.5t8.5 -2zM82 627v105h259v-105h-259z" />
    <glyph glyph-name="Obreve" unicode="&#x14e;" horiz-adv-x="452" 
d="M221 705h10q91 0 134.5 -16.5t59 -53.5t15.5 -114v-342q0 -77 -15.5 -114t-59 -53.5t-134.5 -16.5h-10q-131 0 -170 36.5t-39 147.5v342q0 77 15.5 114t59 53.5t134.5 16.5zM221 150h10q16 0 16 19v362q0 19 -16 19h-10q-16 0 -16 -19v-362q0 -19 16 -19zM246 718h-37
q-76 0 -95 22t-19 89v13h109v-24q0 -5 0.5 -6.5t2.5 -3t6 -1.5h28q6 0 7.5 2t1.5 9v24h108v-13q0 -67 -19 -89t-93 -22z" />
    <glyph glyph-name="obreve" unicode="&#x14f;" horiz-adv-x="422" 
d="M207 605h8q65 0 105 -10t59.5 -33.5t25 -50t5.5 -72.5v-278q0 -46 -5.5 -72.5t-25 -50t-59.5 -33.5t-105 -10h-8q-65 0 -105 10t-59.5 33.5t-25 50t-5.5 72.5v278q0 46 5.5 72.5t25 50t59.5 33.5t105 10zM207 146h8q8 0 10 3t2 12v278q0 6 -0.5 8.5t-3 4.5t-8.5 2h-8
q-8 0 -10 -3t-2 -12v-278q0 -6 0.5 -8.5t3 -4.5t8.5 -2zM231 618h-37q-76 0 -95 22t-19 89v13h109v-24q0 -5 0.5 -6.5t2.5 -3t6 -1.5h28q6 0 7.5 2t1.5 9v24h108v-13q0 -67 -19 -89t-93 -22z" />
    <glyph glyph-name="Ohungarumlaut" unicode="&#x150;" horiz-adv-x="452" 
d="M221 705h10q91 0 134.5 -16.5t59 -53.5t15.5 -114v-342q0 -77 -15.5 -114t-59 -53.5t-134.5 -16.5h-10q-131 0 -170 36.5t-39 147.5v342q0 77 15.5 114t59 53.5t134.5 16.5zM221 150h10q16 0 16 19v362q0 19 -16 19h-10q-16 0 -16 -19v-362q0 -19 16 -19zM80 723l65 119
h152l-95 -119h-122zM250 723l65 119h182l-125 -119h-122z" />
    <glyph glyph-name="ohungarumlaut" unicode="&#x151;" horiz-adv-x="422" 
d="M207 605h8q65 0 105 -10t59.5 -33.5t25 -50t5.5 -72.5v-278q0 -46 -5.5 -72.5t-25 -50t-59.5 -33.5t-105 -10h-8q-65 0 -105 10t-59.5 33.5t-25 50t-5.5 72.5v278q0 46 5.5 72.5t25 50t59.5 33.5t105 10zM207 146h8q8 0 10 3t2 12v278q0 6 -0.5 8.5t-3 4.5t-8.5 2h-8
q-8 0 -10 -3t-2 -12v-278q0 -6 0.5 -8.5t3 -4.5t8.5 -2zM68 623l65 119h152l-95 -119h-122zM238 623l65 119h182l-125 -119h-122z" />
    <glyph glyph-name="OE" unicode="&#x152;" horiz-adv-x="633" 
d="M623 0h-402q-131 0 -170 36.5t-39 147.5v332q0 77 15.5 114t59 53.5t134.5 16.5h402v-165h-163v-95h143v-165h-143v-110h163v-165zM221 545q-16 0 -16 -19v-352q0 -19 16 -19h46v390h-46z" />
    <glyph glyph-name="oe" unicode="&#x153;" horiz-adv-x="634" 
d="M422 -5q-60 0 -103 10q-45 -10 -104 -10h-8q-65 0 -105 10t-59.5 33.5t-25 50t-5.5 72.5v278q0 46 5.5 72.5t25 50t59.5 33.5t105 10h8q66 0 103 -10q39 10 104 10h5q65 0 105 -10t59.5 -33.5t25 -50t5.5 -72.5v-205l-212 -5v-68v-12q0 -8 12 -8h10q8 0 10 3t2 12v48h178
v-43q0 -47 -5 -72.5t-24 -49.5t-60.5 -34t-110.5 -10zM207 146h8q8 0 10 3t2 12v278q0 6 -0.5 8.5t-3 4.5t-8.5 2h-8q-8 0 -10 -3t-2 -12v-278q0 -6 0.5 -8.5t3 -4.5t8.5 -2zM422 459q-12 0 -12 -9v-6v-93h38v93q0 6 -0.5 8.5t-3 4.5t-8.5 2h-14z" />
    <glyph glyph-name="Racute" unicode="&#x154;" horiz-adv-x="447" 
d="M12 0v700h219q91 0 134.5 -16.5t59 -53.5t15.5 -114v-58q0 -77 -20 -102.5t-84 -29.5q64 -7 84 -35t20 -106v-185h-193v205q0 39 -16 39h-26v-244h-193zM205 545v-156h26q16 0 16 19v118q0 19 -16 19h-26zM140 723l65 119h182l-125 -119h-122z" />
    <glyph glyph-name="racute" unicode="&#x155;" horiz-adv-x="318" 
d="M12 0v500q0 33 13 55.5t34.5 32.5t38.5 13.5t34 3.5h15l166 -5v-150l-111 -17q-7 -1 -7 -11v-422h-183zM66 623l65 119h182l-125 -119h-122z" />
    <glyph glyph-name="Rcommaaccent" unicode="&#x156;" horiz-adv-x="447" 
d="M12 0v700h219q91 0 134.5 -16.5t59 -53.5t15.5 -114v-58q0 -77 -20 -102.5t-84 -29.5q64 -7 84 -35t20 -106v-185h-193v205q0 39 -16 39h-26v-244h-193zM205 545v-156h26q16 0 16 19v118q0 19 -16 19h-26zM168 -160v125h117v-104q0 -31 -13 -59t-45 -73l-50 26
q6 15 12 28.5t8.5 18t4 11t2 11.5t0.5 16h-36z" />
    <glyph glyph-name="rcommaaccent" unicode="&#x157;" horiz-adv-x="318" 
d="M12 0v500q0 33 13 55.5t34.5 32.5t38.5 13.5t34 3.5h15l166 -5v-150l-111 -17q-7 -1 -7 -11v-422h-183zM44 -160v125h117v-104q0 -31 -13 -59t-45 -73l-50 26q6 15 12 28.5t8.5 18t4 11t2 11.5t0.5 16h-36z" />
    <glyph glyph-name="Rcaron" unicode="&#x158;" horiz-adv-x="447" 
d="M12 0v700h219q91 0 134.5 -16.5t59 -53.5t15.5 -114v-58q0 -77 -20 -102.5t-84 -29.5q64 -7 84 -35t20 -106v-185h-193v205q0 39 -16 39h-26v-244h-193zM205 545v-156h26q16 0 16 19v118q0 19 -16 19h-26zM140 723l-65 119h122l26 -42l27 42h122l-65 -119h-167z" />
    <glyph glyph-name="rcaron" unicode="&#x159;" horiz-adv-x="318" 
d="M12 0v500q0 33 13 55.5t34.5 32.5t38.5 13.5t34 3.5h15l166 -5v-150l-111 -17q-7 -1 -7 -11v-422h-183zM76 623l-65 119h122l26 -42l27 42h122l-65 -119h-167z" />
    <glyph glyph-name="Sacute" unicode="&#x15a;" horiz-adv-x="433" 
d="M214 705h2q91 0 134.5 -16.5t59 -53.5t15.5 -114v-60h-193v70q0 19 -16 19h-2q-16 0 -16 -19v-29q0 -30 9 -39.5t54 -25.5l58 -21q32 -11 47.5 -19t32.5 -24.5t23 -42.5t6 -67v-84q0 -58 -7 -90t-31.5 -53t-62.5 -29t-108 -12q-69 -4 -110.5 3t-65 30.5t-31 57.5t-7.5 93
v62h193v-72q0 -19 16 -19h5q16 0 16 19v44q0 8 -1 13.5t-2 9t-6.5 7t-8 5t-13 5.5t-16.5 7l-66 24q-33 13 -49.5 22t-34.5 26t-25.5 43.5t-7.5 66.5v79q0 77 15.5 114t59 53.5t134.5 16.5zM133 723l65 119h182l-125 -119h-122z" />
    <glyph glyph-name="sacute" unicode="&#x15b;" horiz-adv-x="415" 
d="M209 605h1q65 0 103.5 -9.5t56 -34.5t21.5 -49.5t4 -72.5v-39h-173v44q0 6 -0.5 8.5t-3 4.5t-8.5 2h-1q-8 0 -10 -3t-2 -12v-18q0 -17 4.5 -22.5t28.5 -14.5l82 -27q53 -17 73 -44t20 -81v-68q0 -46 -5.5 -73.5t-25 -53t-60 -36.5t-105.5 -11t-105 10t-59.5 33.5t-25 50
t-5.5 72.5v53h183v-58q0 -6 0.5 -8.5t3 -4.5t8.5 -2h1q12 0 12 23v40v5t-1 3.5t-1.5 2.5t-2 2.5t-3 2.5t-5 2.5t-5.5 2t-7.5 2.5t-9.5 4l-80 30q-34 14 -50.5 24.5t-29.5 36t-13 67.5v50q0 46 5.5 72.5t25 50t59.5 33.5t105 10zM124 623l65 119h182l-125 -119h-122z" />
    <glyph glyph-name="Scedilla" unicode="&#x15e;" horiz-adv-x="433" 
d="M214 705h2q91 0 134.5 -16.5t59 -53.5t15.5 -114v-60h-193v70q0 19 -16 19h-2q-16 0 -16 -19v-29q0 -30 9 -39.5t54 -25.5l58 -21q32 -11 47.5 -19t32.5 -24.5t23 -42.5t6 -67v-84q0 -102 -31 -137t-133 -44l-24 -127h-132l52 123q-94 3 -124.5 43t-30.5 142v62h193v-72
q0 -19 16 -19h5q16 0 16 19v44q0 8 -1 13.5t-2 9t-6.5 7t-8 5t-13 5.5t-16.5 7l-66 24q-33 13 -49.5 22t-34.5 26t-25.5 43.5t-7.5 66.5v79q0 77 15.5 114t59 53.5t134.5 16.5z" />
    <glyph glyph-name="scedilla" unicode="&#x15f;" horiz-adv-x="415" 
d="M209 605h1q65 0 103.5 -9.5t56 -34.5t21.5 -49.5t4 -72.5v-39h-173v44q0 6 -0.5 8.5t-3 4.5t-8.5 2h-1q-8 0 -10 -3t-2 -12v-18q0 -17 4.5 -22.5t28.5 -14.5l82 -27q53 -17 73 -44t20 -81v-68q0 -42 -4.5 -67.5t-19 -50t-45.5 -37.5t-81 -17l-24 -126h-132l54 126
q-88 8 -113.5 45.5t-25.5 118.5v53h183v-58q0 -6 0.5 -8.5t3 -4.5t8.5 -2h1q12 0 12 23v40v5t-1 3.5t-1.5 2.5t-2 2.5t-3 2.5t-5 2.5t-5.5 2t-7.5 2.5t-9.5 4l-80 30q-34 14 -50.5 24.5t-29.5 36t-13 67.5v50q0 46 5.5 72.5t25 50t59.5 33.5t105 10z" />
    <glyph glyph-name="Scaron" unicode="&#x160;" horiz-adv-x="433" 
d="M214 705h2q91 0 134.5 -16.5t59 -53.5t15.5 -114v-60h-193v70q0 19 -16 19h-2q-16 0 -16 -19v-29q0 -30 9 -39.5t54 -25.5l58 -21q32 -11 47.5 -19t32.5 -24.5t23 -42.5t6 -67v-84q0 -58 -7 -90t-31.5 -53t-62.5 -29t-108 -12q-69 -4 -110.5 3t-65 30.5t-31 57.5t-7.5 93
v62h193v-72q0 -19 16 -19h5q16 0 16 19v44q0 8 -1 13.5t-2 9t-6.5 7t-8 5t-13 5.5t-16.5 7l-66 24q-33 13 -49.5 22t-34.5 26t-25.5 43.5t-7.5 66.5v79q0 77 15.5 114t59 53.5t134.5 16.5zM133 723l-65 119h122l26 -42l27 42h122l-65 -119h-167z" />
    <glyph glyph-name="scaron" unicode="&#x161;" horiz-adv-x="415" 
d="M209 605h1q65 0 103.5 -9.5t56 -34.5t21.5 -49.5t4 -72.5v-39h-173v44q0 6 -0.5 8.5t-3 4.5t-8.5 2h-1q-8 0 -10 -3t-2 -12v-18q0 -17 4.5 -22.5t28.5 -14.5l82 -27q53 -17 73 -44t20 -81v-68q0 -46 -5.5 -73.5t-25 -53t-60 -36.5t-105.5 -11t-105 10t-59.5 33.5t-25 50
t-5.5 72.5v53h183v-58q0 -6 0.5 -8.5t3 -4.5t8.5 -2h1q12 0 12 23v40v5t-1 3.5t-1.5 2.5t-2 2.5t-3 2.5t-5 2.5t-5.5 2t-7.5 2.5t-9.5 4l-80 30q-34 14 -50.5 24.5t-29.5 36t-13 67.5v50q0 46 5.5 72.5t25 50t59.5 33.5t105 10zM124 623l-65 119h122l26 -42l27 42h122
l-65 -119h-167z" />
    <glyph glyph-name="Tcommaaccent" unicode="&#x162;" horiz-adv-x="417" 
d="M305 535v-535h-193v535h-110v165h413v-165h-110zM148 -160v125h117v-104q0 -31 -13 -59t-45 -73l-50 26q6 15 12 28.5t8.5 18t4 11t2 11.5t0.5 16h-36z" />
    <glyph glyph-name="tcommaaccent" unicode="&#x163;" horiz-adv-x="310" 
d="M295 600v-155h-68v-279q0 -10 12 -10h66v-156l-66 -5q-117 -6 -156 24t-39 137v289h-39v155h39v130h183v-130h68zM101 -160v125h117v-104q0 -31 -13 -59t-45 -73l-50 26q6 15 12 28.5t8.5 18t4 11t2 11.5t0.5 16h-36z" />
    <glyph glyph-name="Tcaron" unicode="&#x164;" horiz-adv-x="417" 
d="M305 535v-535h-193v535h-110v165h413v-165h-110zM125 723l-65 119h122l26 -42l27 42h122l-65 -119h-167z" />
    <glyph glyph-name="tcaron" unicode="&#x165;" horiz-adv-x="320" 
d="M295 600v-155h-68v-279q0 -10 12 -10h66v-156l-66 -5q-117 -6 -156 24t-39 137v289h-39v155h39v130h183v-130h68zM321 626v104h97v-86q0 -44 -48 -110l-42 21q5 13 10 24t7 15t3.5 9t2 9.5t0.5 13.5h-30z" />
    <glyph glyph-name="Umacron" unicode="&#x16a;" horiz-adv-x="452" 
d="M12 700h193v-531q0 -19 16 -19h10q16 0 16 19v531h193v-521q0 -77 -15.5 -114t-59 -53.5t-134.5 -16.5h-10q-91 0 -134.5 16.5t-59 53.5t-15.5 114v521zM97 727v105h259v-105h-259z" />
    <glyph glyph-name="umacron" unicode="&#x16b;" 
d="M196 600v-420q0 -17 2.5 -21t15.5 -4h14v445h183v-600q-123 -5 -229 -5h-12q-86 0 -121.5 31.5t-35.5 123.5v450h183zM82 627v105h259v-105h-259z" />
    <glyph glyph-name="Ubreve" unicode="&#x16c;" horiz-adv-x="452" 
d="M12 700h193v-531q0 -19 16 -19h10q16 0 16 19v531h193v-521q0 -77 -15.5 -114t-59 -53.5t-134.5 -16.5h-10q-91 0 -134.5 16.5t-59 53.5t-15.5 114v521zM246 718h-37q-76 0 -95 22t-19 89v13h109v-24q0 -5 0.5 -6.5t2.5 -3t6 -1.5h28q6 0 7.5 2t1.5 9v24h108v-13
q0 -67 -19 -89t-93 -22z" />
    <glyph glyph-name="ubreve" unicode="&#x16d;" 
d="M196 600v-420q0 -17 2.5 -21t15.5 -4h14v445h183v-600q-123 -5 -229 -5h-12q-86 0 -121.5 31.5t-35.5 123.5v450h183zM231 618h-37q-76 0 -95 22t-19 89v13h109v-24q0 -5 0.5 -6.5t2.5 -3t6 -1.5h28q6 0 7.5 2t1.5 9v24h108v-13q0 -67 -19 -89t-93 -22z" />
    <glyph glyph-name="Uring" unicode="&#x16e;" horiz-adv-x="452" 
d="M12 700h193v-531q0 -19 16 -19h10q16 0 16 19v531h193v-521q0 -77 -15.5 -114t-59 -53.5t-134.5 -16.5h-10q-91 0 -134.5 16.5t-59 53.5t-15.5 114v521zM212 897h28q54 0 68 -15.5t14 -65.5v-17q0 -49 -14 -65t-68 -16h-28q-53 0 -67 16t-14 65v17q0 50 13.5 65.5
t67.5 15.5zM240 851h-28q-21 0 -26 -6t-5 -25v-25q0 -19 5 -25t26 -6h28q21 0 26.5 6t5.5 25v25q0 19 -5.5 25t-26.5 6z" />
    <glyph glyph-name="uring" unicode="&#x16f;" 
d="M196 600v-420q0 -17 2.5 -21t15.5 -4h14v445h183v-600q-123 -5 -229 -5h-12q-86 0 -121.5 31.5t-35.5 123.5v450h183zM197 797h28q54 0 68 -15.5t14 -65.5v-17q0 -49 -14 -65t-68 -16h-28q-53 0 -67 16t-14 65v17q0 50 13.5 65.5t67.5 15.5zM225 751h-28q-21 0 -26 -6
t-5 -25v-25q0 -19 5 -25t26 -6h28q21 0 26.5 6t5.5 25v25q0 19 -5.5 25t-26.5 6z" />
    <glyph glyph-name="Uhungarumlaut" unicode="&#x170;" horiz-adv-x="452" 
d="M12 700h193v-531q0 -19 16 -19h10q16 0 16 19v531h193v-521q0 -77 -15.5 -114t-59 -53.5t-134.5 -16.5h-10q-91 0 -134.5 16.5t-59 53.5t-15.5 114v521zM76 723l65 119h152l-95 -119h-122zM246 723l65 119h182l-125 -119h-122z" />
    <glyph glyph-name="uhungarumlaut" unicode="&#x171;" 
d="M196 600v-420q0 -17 2.5 -21t15.5 -4h14v445h183v-600q-123 -5 -229 -5h-12q-86 0 -121.5 31.5t-35.5 123.5v450h183zM233 623l65 119h182l-125 -119h-122zM63 623l65 119h152l-95 -119h-122z" />
    <glyph glyph-name="Uogonek" unicode="&#x172;" horiz-adv-x="452" 
d="M330 -34v-18q0 -22 -1.5 -35t-8 -26t-20.5 -19t-37 -6h-72q-45 0 -56.5 13t-11.5 53v12q0 17 9 28.5t15.5 14.5t23.5 10l6 3q-102 4 -133.5 41.5t-31.5 141.5v521h193v-531q0 -19 16 -19h10q16 0 16 19v531h193v-521q0 -102 -30.5 -140t-127.5 -43l-46 -26
q-13 -7 -15.5 -9.5t-2.5 -7.5v-1q0 -7 5 -7h7q6 0 6 7v14h94z" />
    <glyph glyph-name="uogonek" unicode="&#x173;" 
d="M196 600v-420q0 -17 2.5 -21t15.5 -4h14v445h183v-600q-28 -1 -65 -2l-29 -17q-13 -7 -15.5 -9.5t-2.5 -7.5v-1q0 -7 5 -7h7q6 0 6 7v14h94v-18q0 -22 -1.5 -35t-8 -26t-20.5 -19t-37 -6h-72q-45 0 -56.5 13t-11.5 53v12q0 31 27 44h-49h-12q-86 0 -121.5 31.5
t-35.5 123.5v450h183z" />
    <glyph glyph-name="Wcircumflex" unicode="&#x174;" horiz-adv-x="679" 
d="M2 700h193l31 -434h5l31 434h155l31 -434h5l31 434h193l-60 -700h-253l-24 244h-2l-23 -244h-253zM191 723l65 119h167l65 -119h-122l-27 42l-26 -42h-122z" />
    <glyph glyph-name="wcircumflex" unicode="&#x175;" horiz-adv-x="663" 
d="M345 0l-13 180h-2l-12 -180h-243l-75 600h193l19 -385h6l32 385h163l32 -385h5l20 385h193l-75 -600h-243zM183 623l65 119h167l65 -119h-122l-27 42l-26 -42h-122z" />
    <glyph glyph-name="Ycircumflex" unicode="&#x176;" horiz-adv-x="471" 
d="M139 0v247l-138 453h193l41 -227l42 227h193l-138 -453v-247h-193zM87 723l65 119h167l65 -119h-122l-27 42l-26 -42h-122z" />
    <glyph glyph-name="ycircumflex" unicode="&#x177;" horiz-adv-x="467" 
d="M105 10l-105 590h186l40 -338h6l66 338h169l-143 -730h-168l27 140h-78zM85 623l65 119h167l65 -119h-122l-27 42l-26 -42h-122z" />
    <glyph glyph-name="Ydieresis" unicode="&#x178;" horiz-adv-x="471" 
d="M139 0v247l-138 453h193l41 -227l42 227h193l-138 -453v-247h-193zM106 723v119h119v-119h-119zM246 723v119h119v-119h-119z" />
    <glyph glyph-name="Zacute" unicode="&#x179;" horiz-adv-x="384" 
d="M7 535v165h370v-165l-147 -370h147v-165h-370v165l157 370h-157zM124 723l65 119h182l-125 -119h-122z" />
    <glyph glyph-name="zacute" unicode="&#x17a;" horiz-adv-x="386" 
d="M383 155v-155h-380v155l157 290h-147v155h367v-155l-154 -290h157zM120 623l65 119h182l-125 -119h-122z" />
    <glyph glyph-name="Zdotaccent" unicode="&#x17b;" horiz-adv-x="384" 
d="M7 535v165h370v-165l-147 -370h147v-165h-370v165l157 370h-157zM156 723v119h113v-119h-113z" />
    <glyph glyph-name="zdotaccent" unicode="&#x17c;" horiz-adv-x="386" 
d="M383 155v-155h-380v155l157 290h-147v155h367v-155l-154 -290h157zM157 623v119h113v-119h-113z" />
    <glyph glyph-name="Zcaron" unicode="&#x17d;" horiz-adv-x="384" 
d="M7 535v165h370v-165l-147 -370h147v-165h-370v165l157 370h-157zM109 723l-65 119h122l26 -42l27 42h122l-65 -119h-167z" />
    <glyph glyph-name="zcaron" unicode="&#x17e;" horiz-adv-x="386" 
d="M383 155v-155h-380v155l157 290h-147v155h367v-155l-154 -290h157zM110 623l-65 119h122l26 -42l27 42h122l-65 -119h-167z" />
    <glyph glyph-name="Aringacute" unicode="&#x1fa;" horiz-adv-x="467" 
d="M219 833h28q54 0 68 -15.5t14 -65.5v-17q0 -25 -2 -35h58l80 -700h-193l-6 105h-65l-6 -105h-193l80 700h57q-1 10 -1 35v17q0 50 13.5 65.5t67.5 15.5zM160 849l65 119h182l-125 -119h-122zM247 787h-28q-21 0 -26 -6t-5 -25v-25q0 -19 5 -25t26 -6h28q21 0 26.5 6
t5.5 25v25q0 19 -5.5 25t-26.5 6zM230 535l-20 -265h46l-20 265h-6z" />
    <glyph glyph-name="aringacute" unicode="&#x1fb;" horiz-adv-x="418" 
d="M214 454h-5q-9 0 -9 -15v-45h-170v45q0 48 3.5 72t19.5 49t52.5 35t97.5 10h14q44 0 76 -4.5t52.5 -15t33 -22.5t18.5 -33.5t7.5 -40.5t1.5 -50v-432q-129 -12 -224 -12h-12q-86 0 -121.5 31.5t-35.5 123.5v70q0 95 27.5 125t109.5 30h73v58q0 14 -1.5 17.5t-7.5 3.5z
M196 210v-30q0 -17 2.5 -21t15.5 -4h1q4 0 8 1v93h-9q-18 0 -18 -39zM209 803h28q54 0 68 -15.5t14 -65.5v-17q0 -49 -14 -65t-68 -16h-28q-53 0 -67 16t-14 65v17q0 50 13.5 65.5t67.5 15.5zM237 757h-28q-21 0 -26 -6t-5 -25v-25q0 -19 5 -25t26 -6h28q21 0 26.5 6t5.5 25
v25q0 19 -5.5 25t-26.5 6zM160 819l65 119h182l-125 -119h-122z" />
    <glyph glyph-name="AEacute" unicode="&#x1fc;" horiz-adv-x="688" 
d="M352 723l65 119h182l-125 -119h-122zM322 0v105h-105l-24 -105h-192l202 700h475v-165h-163v-95h143v-165h-143v-110h163v-165h-356zM317 535l-61 -265h66v265h-5z" />
    <glyph glyph-name="aeacute" unicode="&#x1fd;" horiz-adv-x="630" 
d="M246 623l65 119h182l-125 -119h-122zM418 -5q-68 0 -91.5 6t-43.5 27q-4 -8 -35.5 -20.5t-65.5 -12.5h-12q-86 0 -121.5 31.5t-35.5 123.5v70q0 95 27.5 125t109.5 30h83v64q0 15 -6 15h-18q-9 0 -9 -15v-45h-170v45q0 48 3.5 72t19.5 49t52.5 35t97.5 10h24
q63 0 100 -10q37 10 91 10h5q65 0 105 -10t59.5 -33.5t25 -50t5.5 -72.5v-205l-212 -5v-73q0 -6 0.5 -8.5t3 -4.5t8.5 -2h10q8 0 10 3t2 12v48h178v-43q0 -29 -0.5 -43.5t-4.5 -35.5t-11.5 -31.5t-21.5 -23.5t-35.5 -18.5t-53 -9.5t-73.5 -4zM418 459q-12 0 -12 -9v-99h39
v93q0 6 -0.5 8.5t-3 4.5t-8.5 2h-15zM233 157v91h-19q-12 0 -15 -9t-3 -29v-30q0 -17 2.5 -21t15.5 -4h1q8 0 18 2z" />
    <glyph glyph-name="Oslashacute" unicode="&#x1fe;" horiz-adv-x="452" 
d="M221 705h10q53 0 91 -6l11 29h99l-25 -65q33 -36 33 -142v-342q0 -77 -15.5 -114t-59 -53.5t-134.5 -16.5h-10q-59 0 -98 6l-13 -30h-99l31 70q-30 36 -30 138v342q0 77 15.5 114t59 53.5t134.5 16.5zM158 723l65 119h182l-125 -119h-122zM221 150h10q16 0 16 19v190
l-42 -119v-71q0 -19 16 -19zM205 531v-176l42 119v57q0 19 -16 19h-10q-16 0 -16 -19z" />
    <glyph glyph-name="oslashacute" unicode="&#x1ff;" horiz-adv-x="422" 
d="M207 605h8q47 0 80 -6l16 35h91l-32 -64q40 -33 40 -131v-278q0 -46 -5.5 -72.5t-25 -50t-59.5 -33.5t-105 -10h-8q-57 0 -97 8l-14 -25h-91l33 65q-26 33 -26 118v278q0 46 5.5 72.5t25 50t59.5 33.5t105 10zM138 623l65 119h182l-125 -119h-122zM207 146h8q8 0 10 3
t2 12v161l-32 -84v-77q0 -6 0.5 -8.5t3 -4.5t8.5 -2zM195 439v-119l32 80v39q0 6 -0.5 8.5t-3 4.5t-8.5 2h-8q-8 0 -10 -3t-2 -12z" />
    <glyph glyph-name="Scommaaccent" unicode="&#x218;" horiz-adv-x="433" 
d="M214 705h2q91 0 134.5 -16.5t59 -53.5t15.5 -114v-60h-193v70q0 19 -16 19h-2q-16 0 -16 -19v-29q0 -30 9 -39.5t54 -25.5l58 -21q32 -11 47.5 -19t32.5 -24.5t23 -42.5t6 -67v-84q0 -58 -7 -90t-31.5 -53t-62.5 -29t-108 -12q-69 -4 -110.5 3t-65 30.5t-31 57.5t-7.5 93
v62h193v-72q0 -19 16 -19h5q16 0 16 19v44q0 8 -1 13.5t-2 9t-6.5 7t-8 5t-13 5.5t-16.5 7l-66 24q-33 13 -49.5 22t-34.5 26t-25.5 43.5t-7.5 66.5v79q0 77 15.5 114t59 53.5t134.5 16.5zM154 -160v125h117v-104q0 -31 -13 -59t-45 -73l-50 26q6 15 12 28.5t8.5 18t4 11
t2 11.5t0.5 16h-36z" />
    <glyph glyph-name="scommaaccent" unicode="&#x219;" horiz-adv-x="415" 
d="M209 605h1q65 0 103.5 -9.5t56 -34.5t21.5 -49.5t4 -72.5v-39h-173v44q0 6 -0.5 8.5t-3 4.5t-8.5 2h-1q-8 0 -10 -3t-2 -12v-18q0 -17 4.5 -22.5t28.5 -14.5l82 -27q53 -17 73 -44t20 -81v-68q0 -46 -5.5 -73.5t-25 -53t-60 -36.5t-105.5 -11t-105 10t-59.5 33.5t-25 50
t-5.5 72.5v53h183v-58q0 -6 0.5 -8.5t3 -4.5t8.5 -2h1q12 0 12 23v40v5t-1 3.5t-1.5 2.5t-2 2.5t-3 2.5t-5 2.5t-5.5 2t-7.5 2.5t-9.5 4l-80 30q-34 14 -50.5 24.5t-29.5 36t-13 67.5v50q0 46 5.5 72.5t25 50t59.5 33.5t105 10zM148 -160v125h117v-104q0 -31 -13 -59
t-45 -73l-50 26q6 15 12 28.5t8.5 18t4 11t2 11.5t0.5 16h-36z" />
    <glyph glyph-name="circumflex" unicode="&#x2c6;" horiz-adv-x="500" 
d="M101 623l65 119h167l65 -119h-122l-27 42l-26 -42h-122z" />
    <glyph glyph-name="caron" unicode="&#x2c7;" horiz-adv-x="500" 
d="M166 623l-65 119h122l26 -42l27 42h122l-65 -119h-167z" />
    <glyph glyph-name="breve" unicode="&#x2d8;" horiz-adv-x="500" 
d="M269 618h-37q-76 0 -95 22t-19 89v13h109v-24q0 -5 0.5 -6.5t2.5 -3t6 -1.5h28q6 0 7.5 2t1.5 9v24h108v-13q0 -67 -19 -89t-93 -22z" />
    <glyph glyph-name="dotaccent" unicode="&#x2d9;" horiz-adv-x="500" 
d="M193 623v119h113v-119h-113z" />
    <glyph glyph-name="ring" unicode="&#x2da;" horiz-adv-x="500" 
d="M235 797h28q54 0 68 -15.5t14 -65.5v-17q0 -49 -14 -65t-68 -16h-28q-53 0 -67 16t-14 65v17q0 50 13.5 65.5t67.5 15.5zM263 751h-28q-21 0 -26 -6t-5 -25v-25q0 -19 5 -25t26 -6h28q21 0 26.5 6t5.5 25v25q0 19 -5.5 25t-26.5 6z" />
    <glyph glyph-name="ogonek" unicode="&#x2db;" horiz-adv-x="500" 
d="M358 -43v-18q0 -22 -1.5 -35t-8 -26t-20.5 -19t-37 -6h-72q-45 0 -56.5 13t-11.5 53v12q0 17 9 28.5t15.5 14.5t23.5 10l42 16h76v-9l-53 -30q-13 -7 -15.5 -9.5t-2.5 -7.5v-1q0 -7 5 -7h7q6 0 6 7v14h94z" />
    <glyph glyph-name="tilde" unicode="&#x2dc;" horiz-adv-x="500" 
d="M284 623l-68 53v-53h-82v119h82l68 -23v23h82v-119h-82z" />
    <glyph glyph-name="hungarumlaut" unicode="&#x2dd;" horiz-adv-x="500" 
d="M71 623l65 119h152l-95 -119h-122zM241 623l65 119h182l-125 -119h-122z" />
    <glyph glyph-name="Wgrave" unicode="&#x1e80;" horiz-adv-x="679" 
d="M2 700h193l31 -434h5l31 434h155l31 -434h5l31 434h193l-60 -700h-253l-24 244h-2l-23 -244h-253zM358 842l65 -119h-122l-125 119h182z" />
    <glyph glyph-name="wgrave" unicode="&#x1e81;" horiz-adv-x="663" 
d="M345 0l-13 180h-2l-12 -180h-243l-75 600h193l19 -385h6l32 385h163l32 -385h5l20 385h193l-75 -600h-243zM340 742l65 -119h-122l-125 119h182z" />
    <glyph glyph-name="Wacute" unicode="&#x1e82;" horiz-adv-x="679" 
d="M2 700h193l31 -434h5l31 434h155l31 -434h5l31 434h193l-60 -700h-253l-24 244h-2l-23 -244h-253zM276 723l65 119h182l-125 -119h-122z" />
    <glyph glyph-name="wacute" unicode="&#x1e83;" horiz-adv-x="663" 
d="M345 0l-13 180h-2l-12 -180h-243l-75 600h193l19 -385h6l32 385h163l32 -385h5l20 385h193l-75 -600h-243zM268 623l65 119h182l-125 -119h-122z" />
    <glyph glyph-name="Wdieresis" unicode="&#x1e84;" horiz-adv-x="679" 
d="M2 700h193l31 -434h5l31 434h155l31 -434h5l31 434h193l-60 -700h-253l-24 244h-2l-23 -244h-253zM214 723v119h119v-119h-119zM354 723v119h119v-119h-119z" />
    <glyph glyph-name="wdieresis" unicode="&#x1e85;" horiz-adv-x="663" 
d="M345 0l-13 180h-2l-12 -180h-243l-75 600h193l19 -385h6l32 385h163l32 -385h5l20 385h193l-75 -600h-243zM207 623v119h119v-119h-119zM347 623v119h119v-119h-119z" />
    <glyph glyph-name="Ygrave" unicode="&#x1ef2;" horiz-adv-x="471" 
d="M139 0v247l-138 453h193l41 -227l42 227h193l-138 -453v-247h-193zM244 842l65 -119h-122l-125 119h182z" />
    <glyph glyph-name="ygrave" unicode="&#x1ef3;" horiz-adv-x="467" 
d="M105 10l-105 590h186l40 -338h6l66 338h169l-143 -730h-168l27 140h-78zM242 742l65 -119h-122l-125 119h182z" />
    <glyph glyph-name="endash" unicode="&#x2013;" horiz-adv-x="410" 
d="M10 236v130h390v-130h-390z" />
    <glyph glyph-name="emdash" unicode="&#x2014;" horiz-adv-x="600" 
d="M10 236v130h580v-130h-580z" />
    <glyph glyph-name="quoteleft" unicode="&#x2018;" horiz-adv-x="193" 
d="M178 557v-173h-163v143q0 43 18 82t62 101l70 -34q-9 -21 -17.5 -40.5t-11 -25t-5 -15t-3 -16t-0.5 -22.5h50z" />
    <glyph glyph-name="quoteright" unicode="&#x2019;" horiz-adv-x="193" 
d="M15 527v173h163v-143q0 -43 -18 -82t-62 -101l-70 34q9 21 17.5 40.5t11 25t5 15t3 16t0.5 22.5h-50z" />
    <glyph glyph-name="quotesinglbase" unicode="&#x201a;" horiz-adv-x="193" 
d="M15 0v173h163v-143q0 -43 -18 -82t-62 -101l-70 34q9 21 17.5 40.5t11 25t5 15t3 16t0.5 22.5h-50z" />
    <glyph glyph-name="quotedblleft" unicode="&#x201c;" horiz-adv-x="368" 
d="M178 557v-173h-163v143q0 43 18 82t62 101l70 -34q-9 -21 -17.5 -40.5t-11 -25t-5 -15t-3 -16t-0.5 -22.5h50zM353 557v-173h-163v143q0 43 18 82t62 101l70 -34q-9 -21 -17.5 -40.5t-11 -25t-5 -15t-3 -16t-0.5 -22.5h50z" />
    <glyph glyph-name="quotedblright" unicode="&#x201d;" horiz-adv-x="368" 
d="M15 527v173h163v-143q0 -43 -18 -82t-62 -101l-70 34q9 21 17.5 40.5t11 25t5 15t3 16t0.5 22.5h-50zM190 527v173h163v-143q0 -43 -18 -82t-62 -101l-70 34q9 21 17.5 40.5t11 25t5 15t3 16t0.5 22.5h-50z" />
    <glyph glyph-name="quotedblbase" unicode="&#x201e;" horiz-adv-x="368" 
d="M15 0v173h163v-143q0 -43 -18 -82t-62 -101l-70 34q9 21 17.5 40.5t11 25t5 15t3 16t0.5 22.5h-50zM190 0v173h163v-143q0 -43 -18 -82t-62 -101l-70 34q9 21 17.5 40.5t11 25t5 15t3 16t0.5 22.5h-50z" />
    <glyph glyph-name="dagger" unicode="&#x2020;" horiz-adv-x="372" 
d="M170 550l-30 87v63h93v-63l-30 -87h-33zM308 561h63v-93h-63l-87 30v33zM151 498l-87 -30h-63v93h63l87 -30v-33zM170 177l-30 166l30 137h33l30 -137l-30 -166h-33z" />
    <glyph glyph-name="daggerdbl" unicode="&#x2021;" horiz-adv-x="372" 
d="M170 287l-30 96l30 97h33l29 -96l-29 -97h-33zM64 561l87 -30v-33l-87 -30h-63v93h63zM140 66v63l30 87h33l30 -87v-63h-93zM371 468h-63l-87 30v33l87 30h63v-93zM64 298l87 -30v-33l-87 -30h-63v93h63zM170 550l-30 87v63h93v-63l-30 -87h-33zM221 268l87 30h63v-93
h-63l-87 30v33z" />
    <glyph glyph-name="bullet" unicode="&#x2022;" horiz-adv-x="313" 
d="M144 515h27q74 0 93 -21.5t19 -89.5v-105q0 -67 -19 -89t-93 -22h-27q-76 0 -95 22t-19 89v105q0 68 19 89.5t95 21.5z" />
    <glyph glyph-name="ellipsis" unicode="&#x2026;" horiz-adv-x="579" 
d="M15 0v173h163v-173h-163zM208 0v173h163v-173h-163zM401 0v173h163v-173h-163z" />
    <glyph glyph-name="perthousand" unicode="&#x2030;" horiz-adv-x="964" 
d="M131 704h26q69 0 92.5 -27t23.5 -89v-194q0 -62 -23.5 -89.5t-92.5 -27.5h-26q-69 0 -92.5 27.5t-23.5 89.5v194q0 62 23.5 89t92.5 27zM527 422h26q69 0 92.5 -27t23.5 -89v-194q0 -62 -23.5 -89.5t-92.5 -27.5h-26q-69 0 -92.5 27.5t-23.5 89.5v194q0 62 23.5 89
t92.5 27zM807 422h26q69 0 92.5 -27t23.5 -89v-194q0 -62 -23.5 -89.5t-92.5 -27.5h-26q-69 0 -92.5 27.5t-23.5 89.5v194q0 62 23.5 89t92.5 27zM547 331h-14q-8 0 -8 -11v-222q0 -11 8 -11h14q8 0 8 11v222q0 11 -8 11zM151 613h-14q-8 0 -8 -11v-222q0 -11 8 -11h14
q8 0 8 11v222q0 11 -8 11zM827 331h-14q-8 0 -8 -11v-222q0 -11 8 -11h14q8 0 8 11v222q0 11 -8 11zM170 0l232 700h113l-233 -700h-112z" />
    <glyph glyph-name="guilsinglleft" unicode="&#x2039;" horiz-adv-x="226" 
d="M102 97l-100 188v18l100 188h120l-67 -188v-18l67 -188h-120z" />
    <glyph glyph-name="guilsinglright" unicode="&#x203a;" horiz-adv-x="226" 
d="M224 285l-100 -188h-120l67 188v18l-67 188h120l100 -188v-18z" />
    <glyph glyph-name="fraction" unicode="&#x2044;" horiz-adv-x="200" 
d="M-37 0l162 700h113l-163 -700h-112z" />
    <glyph glyph-name="Euro" unicode="&#x20ac;" horiz-adv-x="484" 
d="M44 460v61q0 77 15.5 114t59 53.5t134.5 16.5h10q91 0 134.5 -16.5t59 -53.5t15.5 -114v-32h-183v42q0 19 -16 19h-20q-16 0 -16 -19v-71h145v-90h-145v-20h145v-90h-145v-91q0 -19 16 -19h20q16 0 16 19v62h183v-52q0 -77 -15.5 -114t-59 -53.5t-134.5 -16.5h-10
q-91 0 -134.5 16.5t-59 53.5t-15.5 114v81h-42v90h42v20h-42v90h42z" />
    <glyph glyph-name="afii61352" unicode="&#x2116;" horiz-adv-x="875" 
d="M660 705h8q65 0 105 -10t59.5 -33.5t25 -50t5.5 -72.5v-203q0 -46 -5.5 -72.5t-25 -50t-59.5 -33.5t-105 -10h-8q-65 0 -105 10t-59.5 33.5t-25 50t-5.5 72.5v203q0 46 5.5 72.5t25 50t59.5 33.5t105 10zM660 321h8q8 0 10 3t2 12v203q0 6 -0.5 8.5t-3 4.5t-8.5 2h-8
q-8 0 -10 -3t-2 -12v-203q0 -6 0.5 -8.5t3 -4.5t8.5 -2zM465 0v151h399v-151h-399zM15 700h183l64 -265h3v265h173v-700h-193l-45 236h-2v-236h-183v700z" />
    <glyph glyph-name="trademark" unicode="&#x2122;" horiz-adv-x="515" 
d="M300 521l5 -171h-92v350h117l24 -145h4l25 145h117v-350h-92l5 171h-4l-19 -171h-67l-19 171h-4zM1 617v83h206v-83h-55v-267h-96v267h-55z" />
    <glyph glyph-name="arrowleft" unicode="&#x2190;" horiz-adv-x="400" 
d="M143 97l-120 188v18l120 188l100 -50l-38 -77h171v-140h-171l38 -77z" />
    <glyph glyph-name="arrowup" unicode="&#x2191;" horiz-adv-x="400" 
d="M191 470h18l188 -120l-50 -100l-77 37v-170h-140v170l-77 -37l-50 100z" />
    <glyph glyph-name="arrowright" unicode="&#x2192;" horiz-adv-x="400" 
d="M376 285l-120 -188l-100 50l38 77h-171v140h171l-38 77l100 50l120 -188v-18z" />
    <glyph glyph-name="arrowdown" unicode="&#x2193;" horiz-adv-x="400" 
d="M209 117h-18l-188 120l50 100l77 -37v170h140v-170l77 37l50 -100z" />
    <glyph glyph-name="uni2196" unicode="&#x2196;" horiz-adv-x="400" 
d="M81 425l218 48l35 -106l-81 -28l121 -120l-99 -99l-121 120l-28 -81l-106 36l48 217z" />
    <glyph glyph-name="uni2197" unicode="&#x2197;" horiz-adv-x="400" 
d="M95 473l218 -48l13 -13l48 -217l-106 -36l-28 81l-121 -120l-99 99l121 120l-81 28z" />
    <glyph glyph-name="uni2198" unicode="&#x2198;" horiz-adv-x="400" 
d="M313 168l-218 -48l-35 106l81 28l-121 120l99 99l121 -120l28 81l106 -36l-48 -217z" />
    <glyph glyph-name="uni2199" unicode="&#x2199;" horiz-adv-x="400" 
d="M299 120l-218 48l-13 13l-48 217l106 36l28 -81l121 120l99 -99l-121 -120l81 -28z" />
    <glyph glyph-name="minus" unicode="&#x2212;" horiz-adv-x="370" 
d="M10 296v125h350v-125h-350z" />
    <glyph glyph-name="commaaccent" unicode="&#xf6c3;" horiz-adv-x="500" 
d="M191 -30v125h117v-104q0 -31 -13 -59t-45 -73l-50 26q6 15 12 28.5t8.5 18t4 11t2 11.5t0.5 16h-36z" />
    <glyph glyph-name="aogonek.alt" 
d="M411 -23v-18q0 -22 -1.5 -35t-8 -26t-20.5 -19t-37 -6h-72q-45 0 -56.5 13t-11.5 53v12q0 31 27 44h-49h-12q-86 0 -121.5 31.5t-35.5 123.5v300q0 92 35.5 123.5t121.5 31.5h12l229 -5v-600q-28 -1 -65 -2l-29 -17q-13 -7 -15.5 -9.5t-2.5 -7.5v-1q0 -7 5 -7h7q6 0 6 7
v14h94zM214 155h14v290h-14q-13 0 -15.5 -4t-2.5 -21v-240q0 -17 2.5 -21t15.5 -4z" />
    <glyph glyph-name="aringacute.alt" 
d="M170 605h12l229 -5v-600q-112 -5 -229 -5h-12q-86 0 -121.5 31.5t-35.5 123.5v300q0 92 35.5 123.5t121.5 31.5zM197 797h28q54 0 68 -15.5t14 -65.5v-17q0 -49 -14 -65t-68 -16h-28q-53 0 -67 16t-14 65v17q0 50 13.5 65.5t67.5 15.5zM146 823l65 119h182l-125 -119
h-122zM214 155h14v290h-14q-13 0 -15.5 -4t-2.5 -21v-240q0 -17 2.5 -21t15.5 -4zM225 751h-28q-21 0 -26 -6t-5 -25v-25q0 -19 5 -25t26 -6h28q21 0 26.5 6t5.5 25v25q0 19 -5.5 25t-26.5 6z" />
    <glyph glyph-name="bracketleft.case" horiz-adv-x="308" 
d="M183 641v-562h115v-129h-278v820h278v-129h-115z" />
    <glyph glyph-name="hyphen.case" horiz-adv-x="300" 
d="M10 280v150h280v-150h-280z" />
    <glyph glyph-name="parenright.case" horiz-adv-x="237" 
d="M59 95v510q0 68 -8 91q-9 24 -32 59l63 50q70 -50 94 -76q46 -51 46 -124v-510q0 -73 -46 -124q-24 -26 -94 -76l-63 50q23 35 32 59q8 23 8 91z" />
    <glyph glyph-name="parenleft.case" horiz-adv-x="237" 
d="M178 605v-510q0 -68 8 -91q9 -24 32 -59l-63 -50q-70 50 -94 76q-46 51 -46 124v510q0 73 46 124q24 26 94 76l63 -50q-23 -35 -32 -59q-8 -23 -8 -91z" />
    <glyph glyph-name="published" horiz-adv-x="539" 
d="M195 700h149q88 0 134 -42t46 -122v-372q0 -80 -46 -122t-134 -42h-149q-88 0 -134 42.5t-46 121.5v372q0 80 46 122t134 42zM195 26h149q76 0 113 36.5t37 101.5v372q0 68 -38.5 103t-111.5 35h-149q-73 0 -111.5 -35t-38.5 -103v-372q0 -64 37 -101t113 -37zM128 92
v511h160q95 0 123.5 -26.5t28.5 -107.5v-93q0 -82 -28 -108t-124 -26h-19v-150h-141zM269 490v-135h19q11 0 11 14v107q0 14 -11 14h-19z" />
    <glyph glyph-name="registered.alt" horiz-adv-x="539" 
d="M195 700h149q88 0 134 -42t46 -122v-372q0 -80 -46 -122t-134 -42h-149q-88 0 -134 42.5t-46 121.5v372q0 80 46 122t134 42zM195 26h149q76 0 113 36.5t37 101.5v372q0 68 -38.5 103t-111.5 35h-149q-73 0 -111.5 -35t-38.5 -103v-372q0 -64 37 -101t113 -37zM117 92
v511h160q96 0 124 -26t28 -108v-43q0 -56 -14.5 -74.5t-61.5 -21.5q47 -5 61.5 -25.5t14.5 -77.5v-135h-141v150q0 28 -11 28h-19v-178h-141zM258 490v-114h19q11 0 11 14v86q0 14 -11 14h-19z" />
    <glyph glyph-name="RB" horiz-adv-x="900" 
d="M450 706q147 0 251.5 -104.5t104.5 -251.5t-104.5 -251.5t-251.5 -104.5t-251.5 104.5t-104.5 251.5t104.5 251.5t251.5 104.5zM420 241l-49 65q32 8 55.5 31.5t30.5 54.5q10 37 -9.5 63.5t-57.5 26.5h-90l-61 -241h181zM646 422q7 23 -7 40.5t-39 19.5h-108l-59 -241
h125q27 0 51.5 19t30.5 46q6 23 -6 40.5t-37 20.5q39 14 49 55z" />
    <glyph glyph-name="ygrave.alt" 
d="M228 20v45h-78q-82 0 -109.5 30t-27.5 125v380h183v-350q0 -17 2.5 -21t15.5 -4h14v375h183v-580q0 -56 -5.5 -85t-26.5 -51t-61.5 -27.5t-112.5 -1.5q-47 4 -74.5 7t-50 12.5t-32 17t-15.5 29t-7 40.5t-1 59v28h163v-28q0 -14 8 -15h20q8 0 10 3t2 12zM220 742l65 -119
h-122l-125 119h182z" />
    <glyph glyph-name="ycircumflex.alt" 
d="M228 20v45h-78q-82 0 -109.5 30t-27.5 125v380h183v-350q0 -17 2.5 -21t15.5 -4h14v375h183v-580q0 -56 -5.5 -85t-26.5 -51t-61.5 -27.5t-112.5 -1.5q-47 4 -74.5 7t-50 12.5t-32 17t-15.5 29t-7 40.5t-1 59v28h163v-28q0 -14 8 -15h20q8 0 10 3t2 12zM63 623l65 119
h167l65 -119h-122l-27 42l-26 -42h-122z" />
    <glyph glyph-name="ydieresis.alt" 
d="M228 20v45h-78q-82 0 -109.5 30t-27.5 125v380h183v-350q0 -17 2.5 -21t15.5 -4h14v375h183v-580q0 -56 -5.5 -85t-26.5 -51t-61.5 -27.5t-112.5 -1.5q-47 4 -74.5 7t-50 12.5t-32 17t-15.5 29t-7 40.5t-1 59v28h163v-28q0 -14 8 -15h20q8 0 10 3t2 12zM82 623v119h119
v-119h-119zM222 623v119h119v-119h-119z" />
    <glyph glyph-name="y.alt" 
d="M228 20v45h-78q-82 0 -109.5 30t-27.5 125v380h183v-350q0 -17 2.5 -21t15.5 -4h14v375h183v-580q0 -56 -5.5 -85t-26.5 -51t-61.5 -27.5t-112.5 -1.5q-47 4 -74.5 7t-50 12.5t-32 17t-15.5 29t-7 40.5t-1 59v28h163v-28q0 -14 8 -15h20q8 0 10 3t2 12z" />
    <glyph glyph-name="yacute.alt" 
d="M228 20v45h-78q-82 0 -109.5 30t-27.5 125v380h183v-350q0 -17 2.5 -21t15.5 -4h14v375h183v-580q0 -56 -5.5 -85t-26.5 -51t-61.5 -27.5t-112.5 -1.5q-47 4 -74.5 7t-50 12.5t-32 17t-15.5 29t-7 40.5t-1 59v28h163v-28q0 -14 8 -15h20q8 0 10 3t2 12zM138 623l65 119
h182l-125 -119h-122z" />
    <glyph glyph-name="braceleft.case" horiz-adv-x="294" 
d="M5 303v95q3 0 7.5 1.5t16 7t20.5 13.5t16 23.5t7 34.5v127q0 73 46 124q24 26 94 76l63 -50q-23 -35 -32 -59q-8 -23 -8 -91v-127q0 -82 -62 -128q62 -46 62 -127v-127q0 -68 8 -91q9 -24 32 -59l-63 -50q-70 50 -94 76q-46 51 -46 124v127q0 22 -8.5 38.5t-22 25
t-21.5 11.5t-15 5z" />
    <glyph glyph-name="gcommaaccent.alt" horiz-adv-x="446" 
d="M211 605h235v-111l-27 -7q2 -30 2 -48v-102q0 -46 -5.5 -72.5t-25 -50t-59.5 -33.5t-105 -10h-52q0 -10 22 -10h45q39 0 60 -0.5t45 -2.5t35 -5t23.5 -11t17 -16.5t9 -24t5 -32.5t0.5 -44v-4q0 -46 -5.5 -72.5t-25 -50t-59.5 -33.5t-105 -10h-75q-87 0 -122 14
t-37.5 46.5t4.5 85.5q2 15 28 52q-14 5 -22 12t-11.5 20.5t-4 23t-0.5 32.5v10q0 34 46 62q-31 32 -31 124v102q0 56 5 84t26 49t58 27t106 6zM288 762v-125h-117v104q0 31 13 59t45 73l50 -26q-6 -15 -12 -28.5t-8.5 -18t-4 -11t-2 -11.5t-0.5 -16h36zM211 322h15q8 0 10 3
t2 12v102q0 6 -0.5 8.5t-3 4.5t-8.5 2h-15q-8 0 -10 -3t-2 -12v-102q0 -6 0.5 -8.5t3 -4.5t8.5 -2zM212 6h29q8 0 10 3t2 12v4q0 6 -0.5 8.5t-3 4.5t-8.5 2h-37l-4 -19q0 -6 0.5 -8.5t3 -4.5t8.5 -2z" />
    <glyph glyph-name="gcircumflex.alt" horiz-adv-x="446" 
d="M211 605h235v-111l-27 -7q2 -30 2 -48v-102q0 -46 -5.5 -72.5t-25 -50t-59.5 -33.5t-105 -10h-52q0 -10 22 -10h45q39 0 60 -0.5t45 -2.5t35 -5t23.5 -11t17 -16.5t9 -24t5 -32.5t0.5 -44v-4q0 -46 -5.5 -72.5t-25 -50t-59.5 -33.5t-105 -10h-75q-87 0 -122 14
t-37.5 46.5t4.5 85.5q2 15 28 52q-14 5 -22 12t-11.5 20.5t-4 23t-0.5 32.5v10q0 34 46 62q-31 32 -31 124v102q0 56 5 84t26 49t58 27t106 6zM84 623l65 119h167l65 -119h-122l-27 42l-26 -42h-122zM211 322h15q8 0 10 3t2 12v102q0 6 -0.5 8.5t-3 4.5t-8.5 2h-15
q-8 0 -10 -3t-2 -12v-102q0 -6 0.5 -8.5t3 -4.5t8.5 -2zM212 6h29q8 0 10 3t2 12v4q0 6 -0.5 8.5t-3 4.5t-8.5 2h-37l-4 -19q0 -6 0.5 -8.5t3 -4.5t8.5 -2z" />
    <glyph glyph-name="gdotaccent.alt" horiz-adv-x="446" 
d="M211 605h235v-111l-27 -7q2 -30 2 -48v-102q0 -46 -5.5 -72.5t-25 -50t-59.5 -33.5t-105 -10h-52q0 -10 22 -10h45q39 0 60 -0.5t45 -2.5t35 -5t23.5 -11t17 -16.5t9 -24t5 -32.5t0.5 -44v-4q0 -46 -5.5 -72.5t-25 -50t-59.5 -33.5t-105 -10h-75q-87 0 -122 14
t-37.5 46.5t4.5 85.5q2 15 28 52q-14 5 -22 12t-11.5 20.5t-4 23t-0.5 32.5v10q0 34 46 62q-31 32 -31 124v102q0 56 5 84t26 49t58 27t106 6zM176 623v119h113v-119h-113zM211 322h15q8 0 10 3t2 12v102q0 6 -0.5 8.5t-3 4.5t-8.5 2h-15q-8 0 -10 -3t-2 -12v-102
q0 -6 0.5 -8.5t3 -4.5t8.5 -2zM212 6h29q8 0 10 3t2 12v4q0 6 -0.5 8.5t-3 4.5t-8.5 2h-37l-4 -19q0 -6 0.5 -8.5t3 -4.5t8.5 -2z" />
    <glyph glyph-name="g.alt" horiz-adv-x="446" 
d="M211 605h235v-111l-27 -7q2 -30 2 -48v-102q0 -46 -5.5 -72.5t-25 -50t-59.5 -33.5t-105 -10h-52q0 -10 22 -10h45q39 0 60 -0.5t45 -2.5t35 -5t23.5 -11t17 -16.5t9 -24t5 -32.5t0.5 -44v-4q0 -46 -5.5 -72.5t-25 -50t-59.5 -33.5t-105 -10h-75q-87 0 -122 14
t-37.5 46.5t4.5 85.5q2 15 28 52q-14 5 -22 12t-11.5 20.5t-4 23t-0.5 32.5v10q0 34 46 62q-31 32 -31 124v102q0 56 5 84t26 49t58 27t106 6zM211 322h15q8 0 10 3t2 12v102q0 6 -0.5 8.5t-3 4.5t-8.5 2h-15q-8 0 -10 -3t-2 -12v-102q0 -6 0.5 -8.5t3 -4.5t8.5 -2zM212 6
h29q8 0 10 3t2 12v4q0 6 -0.5 8.5t-3 4.5t-8.5 2h-37l-4 -19q0 -6 0.5 -8.5t3 -4.5t8.5 -2z" />
    <glyph glyph-name="gbreve.alt" horiz-adv-x="446" 
d="M211 605h235v-111l-27 -7q2 -30 2 -48v-102q0 -46 -5.5 -72.5t-25 -50t-59.5 -33.5t-105 -10h-52q0 -10 22 -10h45q39 0 60 -0.5t45 -2.5t35 -5t23.5 -11t17 -16.5t9 -24t5 -32.5t0.5 -44v-4q0 -46 -5.5 -72.5t-25 -50t-59.5 -33.5t-105 -10h-75q-87 0 -122 14
t-37.5 46.5t4.5 85.5q2 15 28 52q-14 5 -22 12t-11.5 20.5t-4 23t-0.5 32.5v10q0 34 46 62q-31 32 -31 124v102q0 56 5 84t26 49t58 27t106 6zM252 618h-37q-76 0 -95 22t-19 89v13h109v-24q0 -5 0.5 -6.5t2.5 -3t6 -1.5h28q6 0 7.5 2t1.5 9v24h108v-13q0 -67 -19 -89
t-93 -22zM211 322h15q8 0 10 3t2 12v102q0 6 -0.5 8.5t-3 4.5t-8.5 2h-15q-8 0 -10 -3t-2 -12v-102q0 -6 0.5 -8.5t3 -4.5t8.5 -2zM212 6h29q8 0 10 3t2 12v4q0 6 -0.5 8.5t-3 4.5t-8.5 2h-37l-4 -19q0 -6 0.5 -8.5t3 -4.5t8.5 -2z" />
    <glyph glyph-name="aring.alt" 
d="M170 605h12l229 -5v-600q-112 -5 -229 -5h-12q-86 0 -121.5 31.5t-35.5 123.5v300q0 92 35.5 123.5t121.5 31.5zM197 797h28q54 0 68 -15.5t14 -65.5v-17q0 -49 -14 -65t-68 -16h-28q-53 0 -67 16t-14 65v17q0 50 13.5 65.5t67.5 15.5zM214 155h14v290h-14
q-13 0 -15.5 -4t-2.5 -21v-240q0 -17 2.5 -21t15.5 -4zM225 751h-28q-21 0 -26 -6t-5 -25v-25q0 -19 5 -25t26 -6h28q21 0 26.5 6t5.5 25v25q0 19 -5.5 25t-26.5 6z" />
    <glyph glyph-name="atilde.alt" 
d="M170 605h12l229 -5v-600q-112 -5 -229 -5h-12q-86 0 -121.5 31.5t-35.5 123.5v300q0 92 35.5 123.5t121.5 31.5zM244 623l-68 53v-53h-82v119h82l68 -23v23h82v-119h-82zM214 155h14v290h-14q-13 0 -15.5 -4t-2.5 -21v-240q0 -17 2.5 -21t15.5 -4z" />
    <glyph glyph-name="bracketright.case" horiz-adv-x="308" 
d="M125 79v562h-115v129h278v-820h-278v129h115z" />
    <glyph glyph-name="bar.case" horiz-adv-x="223" 
d="M40 -80v840h143v-840h-143z" />
    <glyph glyph-name="braceright.case" horiz-adv-x="294" 
d="M289 398v-95q-7 -2 -15 -5t-21.5 -11.5t-22 -25t-8.5 -38.5v-127q0 -73 -46 -124q-24 -26 -94 -76l-63 50q23 35 32 59q8 23 8 91v127q0 81 62 127q-62 46 -62 128v127q0 68 -8 91q-9 24 -32 59l63 50q70 -50 94 -76q46 -51 46 -124v-127q0 -31 17 -51t33 -25z" />
    <glyph glyph-name="guilsinglleft.case" horiz-adv-x="226" 
d="M102 157l-100 188v18l100 188h120l-67 -188v-18l67 -188h-120z" />
    <glyph glyph-name="guilsinglright.case" horiz-adv-x="226" 
d="M224 345l-100 -188h-120l67 188v18l-67 188h120l100 -188v-18z" />
    <glyph glyph-name="guillemotleft.case" horiz-adv-x="383" 
d="M249 157l-80 188v18l80 188h130l-57 -188v-18l57 -188h-130zM2 345v18l100 188h120l-67 -188v-18l67 -188h-120z" />
    <glyph glyph-name="guillemotright.case" horiz-adv-x="383" 
d="M214 345l-80 -188h-130l57 188v18l-57 188h130l80 -188v-18zM381 363v-18l-100 -188h-120l67 188v18l-67 188h120z" />
    <glyph glyph-name="endash.case" horiz-adv-x="410" 
d="M10 286v130h390v-130h-390z" />
    <glyph glyph-name="emdash.case" horiz-adv-x="600" 
d="M10 286v130h580v-130h-580z" />
    <glyph glyph-name="bullet.case" horiz-adv-x="313" 
d="M144 515h27q74 0 93 -21.5t19 -89.5v-105q0 -67 -19 -89t-93 -22h-27q-76 0 -95 22t-19 89v105q0 68 19 89.5t95 21.5z" />
    <glyph glyph-name="periodcentered.case" horiz-adv-x="181" 
d="M9 270v173h163v-173h-163z" />
    <glyph glyph-name="germandbls.case" horiz-adv-x="883" 
d="M221 705h2q91 0 134.5 -16.5t59 -53.5t15.5 -114v-60h-193v70q0 19 -16 19h-2q-16 0 -16 -19v-29q0 -30 9 -39.5t54 -25.5l58 -21q32 -11 47.5 -19t32.5 -24.5t23 -42.5t6 -67v-84q0 -58 -7 -90t-31.5 -53t-62.5 -29t-108 -12q-69 -4 -110.5 3t-65 30.5t-31 57.5t-7.5 93
v62h193v-72q0 -19 16 -19h5q16 0 16 19v44q0 8 -1 13.5t-2 9t-6.5 7t-8 5t-13 5.5t-16.5 7l-66 24q-33 13 -49.5 22t-34.5 26t-25.5 43.5t-7.5 66.5v79q0 77 15.5 114t59 53.5t134.5 16.5zM657 705h2q91 0 134.5 -16.5t59 -53.5t15.5 -114v-60h-193v70q0 19 -16 19h-2
q-16 0 -16 -19v-29q0 -30 9 -39.5t54 -25.5l58 -21q32 -11 47.5 -19t32.5 -24.5t23 -42.5t6 -67v-84q0 -58 -7 -90t-31.5 -53t-62.5 -29t-108 -12q-69 -4 -110.5 3t-65 30.5t-31 57.5t-7.5 93v62h193v-72q0 -19 16 -19h5q16 0 16 19v44q0 8 -1 13.5t-2 9t-6.5 7t-8 5
t-13 5.5t-16.5 7l-66 24q-33 13 -49.5 22t-34.5 26t-25.5 43.5t-7.5 66.5v79q0 77 15.5 114t59 53.5t134.5 16.5z" />
    <glyph glyph-name="i.dot" horiz-adv-x="207" 
d="M12 0v600h183v-600h-183zM8 623v119h190v-119h-190z" />
    <glyph glyph-name="caron.alt" horiz-adv-x="500" 
d="M201 696v104h97v-86q0 -44 -48 -110l-42 21q5 13 10 24t7 15t3.5 9t2 9.5t0.5 13.5h-30z" />
    <glyph glyph-name="idotaccent" horiz-adv-x="207" 
d="M12 0v600h183v-600h-183zM10 620v110h187v-110h-187z" />
    <glyph glyph-name="abreve.alt" 
d="M170 605h12l229 -5v-600q-112 -5 -229 -5h-12q-86 0 -121.5 31.5t-35.5 123.5v300q0 92 35.5 123.5t121.5 31.5zM230 618h-37q-76 0 -95 22t-19 89v13h109v-24q0 -5 0.5 -6.5t2.5 -3t6 -1.5h28q6 0 7.5 2t1.5 9v24h108v-13q0 -67 -19 -89t-93 -22zM214 155h14v290h-14
q-13 0 -15.5 -4t-2.5 -21v-240q0 -17 2.5 -21t15.5 -4z" />
    <glyph glyph-name="amacron.alt" 
d="M170 605h12l229 -5v-600q-112 -5 -229 -5h-12q-86 0 -121.5 31.5t-35.5 123.5v300q0 92 35.5 123.5t121.5 31.5zM84 627v105h259v-105h-259zM214 155h14v290h-14q-13 0 -15.5 -4t-2.5 -21v-240q0 -17 2.5 -21t15.5 -4z" />
    <glyph glyph-name="agrave.alt" 
d="M170 605h12l229 -5v-600q-112 -5 -229 -5h-12q-86 0 -121.5 31.5t-35.5 123.5v300q0 92 35.5 123.5t121.5 31.5zM248 742l65 -119h-122l-125 119h182zM214 155h14v290h-14q-13 0 -15.5 -4t-2.5 -21v-240q0 -17 2.5 -21t15.5 -4z" />
    <glyph glyph-name="adieresis.alt" 
d="M170 605h12l229 -5v-600q-112 -5 -229 -5h-12q-86 0 -121.5 31.5t-35.5 123.5v300q0 92 35.5 123.5t121.5 31.5zM230 623v119h119v-119h-119zM90 623v119h119v-119h-119zM214 155h14v290h-14q-13 0 -15.5 -4t-2.5 -21v-240q0 -17 2.5 -21t15.5 -4z" />
    <glyph glyph-name="acircumflex.alt" 
d="M170 605h12l229 -5v-600q-112 -5 -229 -5h-12q-86 0 -121.5 31.5t-35.5 123.5v300q0 92 35.5 123.5t121.5 31.5zM66 623l65 119h167l65 -119h-122l-27 42l-26 -42h-122zM214 155h14v290h-14q-13 0 -15.5 -4t-2.5 -21v-240q0 -17 2.5 -21t15.5 -4z" />
    <glyph glyph-name="a.alt" 
d="M170 605h12l229 -5v-600q-112 -5 -229 -5h-12q-86 0 -121.5 31.5t-35.5 123.5v300q0 92 35.5 123.5t121.5 31.5zM214 155h14v290h-14q-13 0 -15.5 -4t-2.5 -21v-240q0 -17 2.5 -21t15.5 -4z" />
    <glyph glyph-name="aacute.alt" 
d="M170 605h12l229 -5v-600q-112 -5 -229 -5h-12q-86 0 -121.5 31.5t-35.5 123.5v300q0 92 35.5 123.5t121.5 31.5zM136 623l65 119h182l-125 -119h-122zM214 155h14v290h-14q-13 0 -15.5 -4t-2.5 -21v-240q0 -17 2.5 -21t15.5 -4z" />
    </font>
</defs>
</svg>
